<svg xmlns="http://www.w3.org/2000/svg" xmlns:xlink="http://www.w3.org/1999/xlink" version="1.1" x="0px" y="0px" style="enable-background:new 0 0 3710 3710;" xml:space="preserve" viewBox="0 0 3710 3710">

<g id="Illustration">
	<g>
		<linearGradient id="SVGID_1_" gradientUnits="userSpaceOnUse" x1="3595.5696" y1="4058.5598" x2="1119.795" y2="983.8031">
			<stop offset="0" style="stop-color:#DAE3FE"/>
			<stop offset="1" style="stop-color:#E9EFFD"/>
		</linearGradient>
		<path style="fill:url(#SVGID_1_);" d="M2914.468,2845.987c-56.868,59.868-110.675,98.476-153.188,128.979    c-499.724,358.557-1091.029,254.04-1216.699,228.515c-185.574-37.691-544.284-110.547-803.625-415.527    c-392.362-461.409-331.265-1188.346-26.923-1668.208c55.669-87.775,349.729-574.945,947.403-653.072    c361.706-47.281,783.339,48.08,1088.675,303.89C3391.037,1307.533,3345.41,2392.305,2914.468,2845.987z"/>
		<g>
			<g transform="translate(0, 300)">
				<g>
					<g>
						<g>
								<linearGradient id="SVGID_00000078043558302317096650000018426812490591077771_" gradientUnits="userSpaceOnUse" x1="2359.8389" y1="-221.4767" x2="2359.8389" y2="628.157">
								<stop offset="0" style="stop-color:#FF928E"/>
								<stop offset="1" style="stop-color:#FE7062"/>
							</linearGradient>

								<circle style="fill:url(#SVGID_00000078043558302317096650000018426812490591077771_);" cx="2359.839" cy="766.684" r="205.891"/>

								<linearGradient id="SVGID_00000070798595580284048220000011564733559652959672_" gradientUnits="userSpaceOnUse" x1="2359.6614" y1="-221.4754" x2="2359.6614" y2="628.1559">
								<stop offset="0" style="stop-color:#FF928E"/>
								<stop offset="1" style="stop-color:#FE7062"/>
							</linearGradient>
							<path style="fill:url(#SVGID_00000070798595580284048220000011564733559652959672_);" d="M2565.354,751.92h-205.515h-205.891         c0,0-16.391,116.142,167.364,429.153c8.017,13.657,22.666,22.749,38.502,22.757c15.836,0.007,30.511-9.414,38.527-23.071         C2582.077,867.72,2565.354,751.92,2565.354,751.92z"/>
						</g>
						<g>

								<linearGradient id="SVGID_00000129924715380304269050000015280503891132517791_" gradientUnits="userSpaceOnUse" x1="2716.2676" y1="88.6834" x2="2562.3972" y2="393.0795">
								<stop offset="0" style="stop-color:#FEBBBA"/>
								<stop offset="1" style="stop-color:#FF928E"/>
							</linearGradient>
							<path style="fill:url(#SVGID_00000129924715380304269050000015280503891132517791_);" d="M2364.773,1211.442v2.089h-4.962         c-17.922,0-34.649-10.326-43.654-25.665c-107.41-182.966-146.769-298.887-160.867-363.622         c-4.02-14.891-6.33-29.606-7.059-44.573c-1.244-15.31-0.292-21.818-0.18-22.5l0.541-3.323         c8.296-110.598,100.343-196.684,211.247-196.684c112.362,0,205.24,87.285,211.519,198.763         c0.158,1.458,0.459,5.156,0.341,11.346l0.009,0.758c0,20.222-2.857,40.251-8.491,59.535         c-14.585,64.678-51.672,179.224-157.252,359.104C2396.902,1202.111,2378.153,1211.442,2364.773,1211.442z M2159.567,761.956         c-0.05,0,0.045,8.973,0.586,15.611l0.013,0.717c0.684,14.178,2.876,28.2,6.701,42.332l0.07,0.422         c13.888,63.856,52.838,178.189,159.529,359.927c6.868,11.7,22.116,19.004,35.818,19.01l2.488,6.01v-5.977         c3.345,0.001,25.781-7.329,32.707-19.128c104.903-178.728,144.578-292.312,157.958-356.126v-0.369         c3.345-18.247,5.708-37.208,5.708-56.356l-2.363-0.841v-0.067c0-5.96,0.292-9.183,0.196-10.029l0.211-0.346         c-5.845-105.224-93.396-187.649-199.471-187.649c-105.872,0-193.474,82.111-199.509,188.258l-0.261,4.602H2159.567z"/>
						</g>
						<circle style="opacity:0.8;fill:#FFFFFF;" cx="2360.503" cy="766.02" r="118.885"/>
						<g>

								<linearGradient id="SVGID_00000036253104685696788600000008738633602675537855_" gradientUnits="userSpaceOnUse" x1="2360.5029" y1="-221.4762" x2="2360.5029" y2="628.1565">
								<stop offset="0" style="stop-color:#FEBBBA"/>
								<stop offset="1" style="stop-color:#FF928E"/>
							</linearGradient>
							<path style="fill:url(#SVGID_00000036253104685696788600000008738633602675537855_);" d="M2360.503,891.547         c-69.216,0-125.527-56.311-125.527-125.527s56.311-125.527,125.527-125.527s125.527,56.311,125.527,125.527         S2429.719,891.547,2360.503,891.547z M2360.503,653.777c-61.891,0-112.244,50.352-112.244,112.244         s50.353,112.244,112.244,112.244s112.244-50.352,112.244-112.244S2422.394,653.777,2360.503,653.777z"/>
						</g>
					</g>
					<g>
						<path style="opacity:0.8;fill:#FFFFFF;" d="M2247.728,642.242c-0.56,0-1.118-0.235-1.513-0.694        c-0.717-0.835-0.621-2.093,0.214-2.81c33.398-28.683,76.068-44.479,120.15-44.479c1.101,0,1.992,0.892,1.992,1.993        c0,1.101-0.892,1.993-1.992,1.993c-43.131,0-84.878,15.455-117.554,43.516C2248.65,642.084,2248.188,642.242,2247.728,642.242        z"/>
					</g>
					<g>
						<path style="opacity:0.8;fill:#FFFFFF;" d="M2184.067,780.757c-1.101,0-1.992-0.892-1.992-1.993        c0-34.427,9.544-68.012,27.601-97.122c0.581-0.936,1.809-1.224,2.744-0.643c0.935,0.58,1.224,1.808,0.644,2.743        c-17.666,28.479-27.003,61.337-27.003,95.021C2186.059,779.865,2185.167,780.757,2184.067,780.757z"/>
					</g>
				</g>

					<linearGradient id="SVGID_00000130606505647156000480000000016278967791965104_" gradientUnits="userSpaceOnUse" x1="2361.1746" y1="-221.4788" x2="2361.1746" y2="628.1525">
					<stop offset="0" style="stop-color:#FF928E"/>
					<stop offset="1" style="stop-color:#FE7062"/>
				</linearGradient>
				<path style="fill:url(#SVGID_00000130606505647156000480000000016278967791965104_);" d="M2393.127,1331.214h-63.906      c-6.6,0-12-5.4-12-12v-63.906c0-6.6,5.4-12,12-12h63.906c6.6,0,12,5.4,12,12v63.906      C2405.127,1325.814,2399.727,1331.214,2393.127,1331.214z"/>
			</g>
			<g>
				<g>
					<g>
						<g>

								<linearGradient id="SVGID_00000078037918051764382760000001121658487712759982_" gradientUnits="userSpaceOnUse" x1="2845.428" y1="2328.9397" x2="2771.8376" y2="2676.8206">
								<stop offset="0" style="stop-color:#4F52FF"/>
								<stop offset="1" style="stop-color:#4042E2"/>
							</linearGradient>

								<circle style="fill:url(#SVGID_00000078037918051764382760000001121658487712759982_);" cx="2814.968" cy="2472.932" r="99.277"/>

								<linearGradient id="SVGID_00000105399382647509146150000006319218012840550801_" gradientUnits="userSpaceOnUse" x1="2845.2817" y1="2328.9084" x2="2771.6914" y2="2676.7893">
								<stop offset="0" style="stop-color:#4F52FF"/>
								<stop offset="1" style="stop-color:#4042E2"/>
							</linearGradient>
							<path style="fill:url(#SVGID_00000105399382647509146150000006319218012840550801_);" d="M2914.064,2464.565h-99.095h-99.277         c0,0-7.904,56.626,80.7,207.554c3.866,6.585,10.929,11.281,18.565,11.285c7.636,0.004,14.712-5.008,18.577-11.593         C2922.127,2520.87,2914.064,2464.565,2914.064,2464.565z"/>
						</g>
						<g>
							<path style="fill:#91B3FA;" d="M2816.349,2687.387v1.294h-1.395c-8.641,0-16.707-5.123-21.049-12.519         c-51.791-88.223-70.769-144.189-77.567-175.404c-1.938-7.18-3.052-14.311-3.404-21.528c-0.6-7.382-0.141-10.538-0.087-10.867         l0.261-1.611c4-53.328,48.384-94.842,101.86-94.842c54.179,0,98.963,42.085,101.99,95.838         c0.076,0.703,0.221,2.485,0.164,5.469l0.004,0.365c0,9.751-1.378,19.408-4.094,28.706         c-7.032,31.187-25.414,86.419-76.323,173.154C2832.34,2682.887,2826.384,2687.387,2816.349,2687.387z M2718.401,2471.255         c-0.024,0,0.022,4.025,0.283,7.226l0.006,0.195c0.33,6.837,1.387,13.522,3.231,20.336l0.034,0.166         c6.697,30.79,25.477,85.901,76.922,173.532c3.312,5.642,10.165,9.154,16.772,9.157l0.701,2.888v-2.882         c3.345,0,13.294-3.534,16.633-9.223c50.582-86.179,70.337-140.948,77.027-171.718v-0.178         c3.345-8.799,3.618-17.941,3.618-27.174l-0.273-0.406v-0.033c0-2.874-1.089-4.428-1.135-4.835l-0.513-0.167         c-2.819-50.737-45.341-90.481-96.489-90.481c-51.05,0-93.443,39.894-96.353,91.076l-0.279,2.521H2718.401z"/>
						</g>

							<ellipse transform="matrix(0.9239 -0.3827 0.3827 0.9239 -731.9265 1265.5802)" style="opacity:0.8;fill:#FFFFFF;" cx="2815.288" cy="2472.612" rx="57.325" ry="57.324"/>
						<g>
							<path style="fill:#91B3FA;" d="M2815.288,2533.139c-33.375,0-60.527-27.152-60.527-60.527s27.152-60.527,60.527-60.527         s60.527,27.152,60.527,60.527S2848.663,2533.139,2815.288,2533.139z M2815.288,2418.49         c-29.843,0-54.122,24.279-54.122,54.122s24.279,54.122,54.122,54.122s54.122-24.279,54.122-54.122         S2845.131,2418.49,2815.288,2418.49z"/>
						</g>
					</g>
					<g>
						<path style="fill:#BDD0FB;" d="M2760.91,2412.928c-0.27,0-0.539-0.114-0.729-0.335c-0.345-0.403-0.3-1.009,0.103-1.354        c16.104-13.831,36.678-21.447,57.934-21.447c0.531,0,0.96,0.43,0.96,0.961c0,0.531-0.43,0.961-0.96,0.961        c-20.797,0-40.927,7.452-56.682,20.983C2761.355,2412.852,2761.132,2412.928,2760.91,2412.928z"/>
					</g>
					<g>
						<path style="fill:#BDD0FB;" d="M2730.214,2479.718c-0.531,0-0.961-0.43-0.961-0.961c0-16.6,4.602-32.794,13.308-46.83        c0.28-0.451,0.872-0.59,1.323-0.31c0.451,0.28,0.59,0.872,0.311,1.323c-8.518,13.732-13.021,29.576-13.021,45.818        C2731.175,2479.288,2730.745,2479.718,2730.214,2479.718z"/>
					</g>
				</g>

					<linearGradient id="SVGID_00000077306370555945882650000003925629901462632883_" gradientUnits="userSpaceOnUse" x1="2794.4189" y1="2723.9451" x2="2836.8054" y2="2723.9451">
					<stop offset="0" style="stop-color:#4F52FF"/>
					<stop offset="1" style="stop-color:#4042E2"/>
				</linearGradient>
				<path style="fill:url(#SVGID_00000077306370555945882650000003925629901462632883_);" d="M2830.47,2745.138h-29.715      c-3.485,0-6.336-2.851-6.336-6.336v-29.715c0-3.485,2.851-6.336,6.336-6.336h29.715c3.485,0,6.336,2.851,6.336,6.336v29.715      C2836.805,2742.287,2833.954,2745.138,2830.47,2745.138z"/>
			</g>
			<g transform="translate(0, 500)">
				<g>
					<g>
						<g>

								<linearGradient id="SVGID_00000013873212292277756430000004555301354248658108_" gradientUnits="userSpaceOnUse" x1="1120.2834" y1="665.6584" x2="1531.7206" y2="270.9459">
								<stop offset="0" style="stop-color:#4F52FF"/>
								<stop offset="1" style="stop-color:#4042E2"/>
							</linearGradient>

								<circle style="fill:url(#SVGID_00000013873212292277756430000004555301354248658108_);" cx="906.068" cy="871.166" r="179.904"/>

								<linearGradient id="SVGID_00000001640173703299642700000007145078887647483527_" gradientUnits="userSpaceOnUse" x1="1173.2051" y1="720.8244" x2="1584.6421" y2="326.112">
								<stop offset="0" style="stop-color:#4F52FF"/>
								<stop offset="1" style="stop-color:#4042E2"/>
							</linearGradient>
							<path style="fill:url(#SVGID_00000001640173703299642700000007145078887647483527_);" d="M1085.644,858.961H906.068H726.164         c0,0-14.322,101.135,146.239,374.639c7.005,11.933,19.805,19.704,33.643,19.711c13.837,0.007,26.66-7.965,33.664-19.899         C1100.256,959.884,1085.644,858.961,1085.644,858.961z"/>
						</g>
						<g>
							<path style="fill:#BDD0FB;" d="M909.694,1259.788v0.574h-3.651c-15.66,0-30.276-8.397-38.144-21.799         c-93.853-159.873-128.244-260.849-140.563-317.414c-3.513-13.012-5.531-25.713-6.168-38.79         c-1.087-13.378-0.255-18.986-0.158-19.582l0.473-2.865c7.248-96.638,87.678-171.84,184.584-171.84         c98.18,0,179.335,76.278,184.821,173.685c0.138,1.274,0.401,4.51,0.298,9.918l0.008,0.665c0,17.67-2.497,35.172-7.42,52.022         c-12.744,56.515-45.493,156.604-137.747,313.78C938.11,1251.634,923.074,1259.788,909.694,1259.788z M731.074,865.651         c-0.043,0,0.039,8.532,0.513,14.333l0.011,0.972c0.598,12.389,2.513,24.814,5.856,37.162l0.061,0.455         c12.135,55.796,46.169,155.742,139.393,314.542c6.002,10.224,18.982,16.627,30.955,16.632l1.831,5.273v-5.223         c6.69,0.001,22.853-6.404,28.904-16.714c91.662-156.169,124.966-255.418,138.346-311.177v-0.323         c3.345-15.944,5.199-32.512,5.199-49.243l-1.854-0.735v-0.059c0-5.208,0.062-8.024-0.022-8.763l0.087-0.302         c-5.107-91.943-81.656-163.965-174.343-163.965c-92.509,0-169.078,71.056-174.352,163.805l-0.252,3.33H731.074z"/>
						</g>

							<linearGradient id="SVGID_00000086674837564450368410000006178810486690470074_" gradientUnits="userSpaceOnUse" x1="802.7681" y1="870.586" x2="1010.5285" y2="870.586">
							<stop offset="0" style="stop-color:#DAE3FE"/>
							<stop offset="1" style="stop-color:#E9EFFD"/>
						</linearGradient>

							<circle style="fill:url(#SVGID_00000086674837564450368410000006178810486690470074_);" cx="906.648" cy="870.586" r="103.88"/>
						<g>
							<path style="fill:#7D97F4;" d="M906.648,980.269c-60.48,0-109.684-49.204-109.684-109.683s49.204-109.683,109.684-109.683         s109.683,49.204,109.683,109.683S967.128,980.269,906.648,980.269z M906.648,772.509c-54.08,0-98.077,43.997-98.077,98.077         s43.997,98.077,98.077,98.077c54.079,0,98.077-43.997,98.077-98.077S960.728,772.509,906.648,772.509z"/>
						</g>
					</g>
					<g>
						<path style="fill:#BDD0FB;" d="M808.107,762.43c-0.49,0-0.977-0.206-1.322-0.606c-0.626-0.73-0.543-1.829,0.187-2.455        c29.182-25.063,66.466-38.865,104.985-38.865c0.961,0,1.741,0.779,1.741,1.741c0,0.962-0.779,1.741-1.741,1.741        c-37.687,0-74.165,13.504-102.717,38.024C808.913,762.292,808.509,762.43,808.107,762.43z"/>
					</g>
					<g>
						<path style="fill:#BDD0FB;" d="M752.482,883.462c-0.962,0-1.741-0.779-1.741-1.741c0-30.082,8.339-59.427,24.117-84.863        c0.508-0.818,1.581-1.069,2.397-0.562c0.817,0.507,1.069,1.58,0.562,2.397c-15.436,24.885-23.595,53.595-23.595,83.028        C754.222,882.683,753.443,883.462,752.482,883.462z"/>
					</g>
				</g>

					<linearGradient id="SVGID_00000052077106430431296240000013876033334661270705_" gradientUnits="userSpaceOnUse" x1="868.83" y1="1326.0372" x2="945.6404" y2="1326.0372">
					<stop offset="0" style="stop-color:#4F52FF"/>
					<stop offset="1" style="stop-color:#4042E2"/>
				</linearGradient>
				<path style="fill:url(#SVGID_00000052077106430431296240000013876033334661270705_);" d="M934.159,1364.443h-53.848      c-6.315,0-11.481-5.167-11.481-11.481v-53.848c0-6.315,5.167-11.481,11.481-11.481h53.848c6.315,0,11.481,5.167,11.481,11.481      v53.848C945.64,1359.276,940.474,1364.443,934.159,1364.443z"/>
			</g>
		</g>
		<g>

				<linearGradient id="SVGID_00000178192459982308246670000015916427434792197029_" gradientUnits="userSpaceOnUse" x1="1646.6688" y1="2793.6123" x2="1725.0004" y2="2734.8638" gradientTransform="matrix(0.9976 -0.0698 0.0698 0.9976 -146.2738 -136.7435)">
				<stop offset="0" style="stop-color:#FEBBBA"/>
				<stop offset="1" style="stop-color:#FF928E"/>
			</linearGradient>
			<path style="fill:url(#SVGID_00000178192459982308246670000015916427434792197029_);" d="M1836.688,2014.612     c-60.17-0.49-75.044,86.363-56.867,118.218c18.177,31.856,51.228,206.22,80.163,216.466     c28.935,10.246,255.971,151.415,257.278,152.55c1.306,1.136-18.28,36.859,2.817,40.291c21.098,3.432,58.776-1.656,53.833-19.714     c-4.944-18.058,3.97-30.951-10.399-43.442c-14.37-12.491-238.836-187.092-238.836-187.092S1915.255,2015.253,1836.688,2014.612z"/>

				<linearGradient id="SVGID_00000035492579816444773750000002143626641755338415_" gradientUnits="userSpaceOnUse" x1="1783.7396" y1="3036.1033" x2="1900.9762" y2="3205.4446">
				<stop offset="0" style="stop-color:#09005D"/>
				<stop offset="1" style="stop-color:#1A0F91"/>
			</linearGradient>
			<path style="fill:url(#SVGID_00000035492579816444773750000002143626641755338415_);" d="M1786.609,2963.22l-143.919-108.843     c-4.556-3.447-10.97-2.78-14.735,1.527l-7.136,8.171c-2.008,2.3-2.976,5.338-2.675,8.386c0.308,3.05,1.855,5.835,4.276,7.683     l146.948,112.195c2.768,2.111,6.366,2.771,9.693,1.774c3.328-1,5.986-3.533,7.162-6.827l4.109-11.52     C1791.957,2971.212,1790.446,2966.123,1786.609,2963.22z"/>
			<g>

					<linearGradient id="SVGID_00000178191631142725315260000017516196658758507177_" gradientUnits="userSpaceOnUse" x1="1735.0126" y1="3201.0188" x2="2011.1888" y2="3481.7595" gradientTransform="matrix(0.998 -0.0637 0.0637 0.998 -136.433 -126.6025)">
					<stop offset="0" style="stop-color:#E1473D"/>
					<stop offset="1" style="stop-color:#E9605A"/>
				</linearGradient>
				<path style="fill:url(#SVGID_00000178191631142725315260000017516196658758507177_);" d="M1686.17,2847.039      c0,0-46.53,19.14-16.24,45.797c30.29,26.657,105.022,68.776,118.98,72.459c13.958,3.684,57.577-11.678,45.17-26.896      s-76.937-40.835-76.937-40.835l-27.818-41.681C1729.325,2855.884,1684.648,2852.484,1686.17,2847.039z"/>

					<linearGradient id="SVGID_00000160191876392441465930000013057727685377737382_" gradientUnits="userSpaceOnUse" x1="1791.7045" y1="3310.9114" x2="2162.1113" y2="2933.1699" gradientTransform="matrix(0.9164 -0.0585 0.0558 0.8742 -288.1997 143.0074)">
					<stop offset="0" style="stop-color:#FEBBBA"/>
					<stop offset="1" style="stop-color:#FF928E"/>
				</linearGradient>
				<path style="fill:url(#SVGID_00000160191876392441465930000013057727685377737382_);" d="M1768.553,2555.28      c0,0-50.76,126.117-50.815,158.176c-0.055,32.059-32.132,138.285-32.132,138.285s19.625,27.798,40.252,5.446      c20.626-22.352,147.733-317.958,129.599-338.839C1837.322,2497.467,1769.802,2525.482,1768.553,2555.28z"/>

					<linearGradient id="SVGID_00000144334866343917939450000005302877388147141795_" gradientUnits="userSpaceOnUse" x1="1575.7592" y1="3046.9189" x2="1198.8112" y2="3323.511" gradientTransform="matrix(0.9816 -0.1911 0.1911 0.9816 -428.744 -356.919)">
					<stop offset="0" style="stop-color:#09005D"/>
					<stop offset="1" style="stop-color:#1A0F91"/>
				</linearGradient>
				<path style="fill:url(#SVGID_00000144334866343917939450000005302877388147141795_);" d="M1408.397,2261.902      c0,0-58.322,129.749,57.108,150.505c115.43,20.757,302.215,168.939,302.215,168.939l114.88-58.938      c0,0-200.15-235.357-273.082-237.786C1499.206,2299.226,1444.544,2274.46,1408.397,2261.902z"/>
			</g>
			<g>
				<path style="fill:#FFFFFF;" d="M2169.701,2626.854c-160.383,0-290.4,130.017-290.4,290.4      c0,160.384,130.017,290.401,290.4,290.401s290.4-130.017,290.4-290.401C2460.101,2756.872,2330.084,2626.854,2169.701,2626.854z       M2169.701,3164.278c-136.427,0-247.024-110.597-247.024-247.024c0-136.427,110.597-247.023,247.024-247.023      s247.023,110.597,247.023,247.023C2416.725,3053.682,2306.128,3164.278,2169.701,3164.278z"/>
				<g>

						<linearGradient id="SVGID_00000169544855111060111430000002272130183291825325_" gradientUnits="userSpaceOnUse" x1="2268.9551" y1="2507.8521" x2="1849.4717" y2="4320.6187">
						<stop offset="0" style="stop-color:#09005D"/>
						<stop offset="1" style="stop-color:#1A0F91"/>
					</linearGradient>
					<path style="fill:url(#SVGID_00000169544855111060111430000002272130183291825325_);" d="M2172.005,2621.656       c-168.539,0-305.167,136.628-305.167,305.164c0,168.539,136.628,305.167,305.167,305.167       c168.536,0,305.164-136.628,305.164-305.167C2477.169,2758.284,2340.541,2621.656,2172.005,2621.656z M2168.739,3186.293       c-145.105,0-262.735-117.631-262.735-262.735s117.631-262.735,262.735-262.735s262.738,117.631,262.738,262.735       S2313.844,3186.293,2168.739,3186.293z"/>
					<g>
						<g>
							<path style="fill:#91B3FA;" d="M2427.485,2824.84c-2.012,0-3.851-1.341-4.393-3.375         c-2.714-10.216-6.188-20.351-10.323-30.132c-0.977-2.31,0.102-4.975,2.416-5.961c2.314-0.959,4.983,0.098,5.96,2.425         c4.3,10.162,7.911,20.698,10.74,31.322c0.644,2.434-0.799,4.921-3.229,5.57         C2428.266,2824.796,2427.871,2824.84,2427.485,2824.84z"/>
						</g>
						<g>
							<path style="fill:#91B3FA;" d="M2387.781,2743.63c-1.381,0-2.74-0.622-3.637-1.812         c-46.952-62.262-122.611-99.439-202.387-99.439c-34.018,0-66.926,6.902-97.813,20.511c-2.305,0.995-4.988-0.035-5.996-2.336         c-1.013-2.292,0.031-4.984,2.327-5.996c32.051-14.115,66.194-21.275,101.482-21.275c82.614,0,160.991,38.526,209.653,103.063         c1.51,2.007,1.111,4.859-0.893,6.369C2389.695,2743.328,2388.731,2743.63,2387.781,2743.63z"/>
						</g>
					</g>
				</g>

					<linearGradient id="SVGID_00000011716933598110940680000008697718608145247127_" gradientUnits="userSpaceOnUse" x1="2169.3142" y1="2965.8662" x2="2207.147" y2="2927.2842">
					<stop offset="0" style="stop-color:#09005D"/>
					<stop offset="1" style="stop-color:#1A0F91"/>
				</linearGradient>

					<circle style="fill:url(#SVGID_00000011716933598110940680000008697718608145247127_);" cx="2188.23" cy="2946.575" r="27.018"/>

					<linearGradient id="SVGID_00000016790265621260624150000008979133729780177597_" gradientUnits="userSpaceOnUse" x1="1596.968" y1="-350.8659" x2="1605.9457" y2="-350.8659" gradientTransform="matrix(0.7185 0.6956 -0.6956 0.7185 887.4882 1982.3702)">
					<stop offset="0" style="stop-color:#09005D"/>
					<stop offset="1" style="stop-color:#1A0F91"/>
				</linearGradient>
				<path style="fill:url(#SVGID_00000016790265621260624150000008979133729780177597_);" d="M2354.085,2776.441      c1.723-1.781,1.677-4.621-0.103-6.345l0,0c-1.781-1.724-4.621-1.678-6.345,0.103l-137.328,141.854      c-1.723,1.781-1.677,4.621,0.103,6.345l0,0c1.781,1.724,4.621,1.677,6.345-0.103L2354.085,2776.441z"/>

					<linearGradient id="SVGID_00000039825299570208786300000011500337541995924669_" gradientUnits="userSpaceOnUse" x1="1592.5635" y1="-228.396" x2="1601.5385" y2="-228.396" gradientTransform="matrix(0.7185 0.6956 -0.6521 0.6736 795.2548 2077.8574)">
					<stop offset="0" style="stop-color:#09005D"/>
					<stop offset="1" style="stop-color:#1A0F91"/>
				</linearGradient>
				<path style="fill:url(#SVGID_00000039825299570208786300000011500337541995924669_);" d="M2159.268,2971.547      c1.616-1.669,1.483-4.419-0.298-6.143l0,0c-1.781-1.724-4.534-1.768-6.15-0.099l-128.742,132.986      c-1.616,1.669-1.483,4.42,0.298,6.144l0,0c1.781,1.724,4.534,1.768,6.15,0.099L2159.268,2971.547z"/>

					<linearGradient id="SVGID_00000159462263777365867270000005949134626369161896_" gradientUnits="userSpaceOnUse" x1="-2289.7017" y1="-2023.213" x2="-2280.7205" y2="-2023.213" gradientTransform="matrix(-0.2613 0.9652 -0.9652 -0.2613 -512.5188 4589.8066)">
					<stop offset="0" style="stop-color:#09005D"/>
					<stop offset="1" style="stop-color:#1A0F91"/>
				</linearGradient>
				<path style="fill:url(#SVGID_00000159462263777365867270000005949134626369161896_);" d="M2131.527,2942.917      c2.392,0.647,4.856-0.767,5.504-3.159l0,0c0.648-2.392-0.766-4.856-3.159-5.504l-190.575-51.599      c-2.392-0.648-4.856,0.767-5.504,3.159l0,0c-0.648,2.392,0.766,4.856,3.158,5.504L2131.527,2942.917z"/>

					<linearGradient id="SVGID_00000170970920742083329570000015538204835837377970_" gradientUnits="userSpaceOnUse" x1="-2287.4995" y1="-2299.5422" x2="-2280.1055" y2="-2299.5422" gradientTransform="matrix(-0.2613 0.9652 -0.9652 -0.2613 -512.5188 4589.8066)">
					<stop offset="0" style="stop-color:#09005D"/>
					<stop offset="1" style="stop-color:#1A0F91"/>
				</linearGradient>
				<path style="fill:url(#SVGID_00000170970920742083329570000015538204835837377970_);" d="M2381.238,3011.156      c1.969,0.533,3.998-0.631,4.531-2.601l0,0c0.533-1.969-0.631-3.998-2.6-4.531l-156.894-42.48      c-1.969-0.533-3.998,0.631-4.531,2.6l0,0c-0.533,1.969,0.631,3.998,2.6,4.531L2381.238,3011.156z"/>

					<linearGradient id="SVGID_00000039831242955868681320000013890016666557161101_" gradientUnits="userSpaceOnUse" x1="-4981.1494" y1="-879.4697" x2="-4973.7593" y2="-879.4697" gradientTransform="matrix(-0.8176 0.5757 -0.5757 -0.8176 -2458.157 4976.1543)">
					<stop offset="0" style="stop-color:#09005D"/>
					<stop offset="1" style="stop-color:#1A0F91"/>
				</linearGradient>
				<path style="fill:url(#SVGID_00000039831242955868681320000013890016666557161101_);" d="M2161.49,2898.266      c1.175,1.668,3.479,2.068,5.147,0.894l0,0c1.668-1.175,2.068-3.479,0.894-5.147l-93.58-132.903      c-1.175-1.668-3.479-2.068-5.147-0.894l0,0c-1.668,1.175-2.068,3.479-0.894,5.147L2161.49,2898.266z"/>

					<linearGradient id="SVGID_00000090991116078908684670000017883528395105272477_" gradientUnits="userSpaceOnUse" x1="-4969.2124" y1="-1134.532" x2="-4961.8218" y2="-1134.532" gradientTransform="matrix(-0.8176 0.5757 -0.5757 -0.8176 -2458.157 4976.1543)">
					<stop offset="0" style="stop-color:#09005D"/>
					<stop offset="1" style="stop-color:#1A0F91"/>
				</linearGradient>
				<path style="fill:url(#SVGID_00000090991116078908684670000017883528395105272477_);" d="M2298.569,3113.677      c1.175,1.668,3.479,2.068,5.147,0.894l0,0c1.668-1.175,2.068-3.479,0.894-5.147l-93.579-132.903      c-1.175-1.668-3.479-2.068-5.147-0.894l0,0c-1.668,1.175-2.068,3.479-0.894,5.147L2298.569,3113.677z"/>

					<linearGradient id="SVGID_00000016071537978406412030000006160921209861942171_" gradientUnits="userSpaceOnUse" x1="-3896.3105" y1="5801.6689" x2="-3888.9211" y2="5801.6689" gradientTransform="matrix(-0.2544 -0.9671 0.9671 -0.2544 -4561.687 697.7464)">
					<stop offset="0" style="stop-color:#09005D"/>
					<stop offset="1" style="stop-color:#1A0F91"/>
				</linearGradient>
				<path style="fill:url(#SVGID_00000016071537978406412030000006160921209861942171_);" d="M1959.851,3003.453      c-1.973,0.519-3.152,2.54-2.633,4.512l0,0c0.519,1.973,2.539,3.152,4.512,2.633l157.196-41.35      c1.973-0.519,3.152-2.539,2.633-4.512l0,0c-0.519-1.973-2.539-3.152-4.512-2.633L1959.851,3003.453z"/>

					<linearGradient id="SVGID_00000037667721300928832020000002658348213147397821_" gradientUnits="userSpaceOnUse" x1="-3890.3025" y1="6086.7358" x2="-3882.9133" y2="6086.7358" gradientTransform="matrix(-0.2544 -0.9671 0.9671 -0.2544 -4561.687 697.7464)">
					<stop offset="0" style="stop-color:#09005D"/>
					<stop offset="1" style="stop-color:#1A0F91"/>
				</linearGradient>
				<path style="fill:url(#SVGID_00000037667721300928832020000002658348213147397821_);" d="M2234.011,2925.122      c-1.973,0.519-3.152,2.539-2.633,4.513l0,0c0.519,1.973,2.539,3.152,4.512,2.633l157.195-41.35      c1.973-0.519,3.152-2.539,2.633-4.512l0,0c-0.519-1.973-2.54-3.152-4.512-2.633L2234.011,2925.122z"/>

					<linearGradient id="SVGID_00000135657604823193239430000006341615106632911540_" gradientUnits="userSpaceOnUse" x1="-6183.6943" y1="1049.9325" x2="-6176.2988" y2="1049.9325" gradientTransform="matrix(-0.9998 0.0192 -0.0192 -0.9998 -3962.5505 4233.0601)">
					<stop offset="0" style="stop-color:#09005D"/>
					<stop offset="1" style="stop-color:#1A0F91"/>
				</linearGradient>
				<path style="fill:url(#SVGID_00000135657604823193239430000006341615106632911540_);" d="M2193.915,3146.01      c0.039,2.04,1.724,3.661,3.764,3.623l0,0c2.04-0.039,3.662-1.724,3.623-3.764l-3.114-162.513      c-0.039-2.04-1.725-3.662-3.764-3.623l0,0c-2.04,0.039-3.662,1.725-3.623,3.764L2193.915,3146.01z"/>

					<linearGradient id="SVGID_00000136384218165191634880000013456094812456222603_" gradientUnits="userSpaceOnUse" x1="-6188.9585" y1="1324.0457" x2="-6181.563" y2="1324.0457" gradientTransform="matrix(-0.9998 0.0192 -0.0192 -0.9998 -3962.5505 4233.0601)">
					<stop offset="0" style="stop-color:#09005D"/>
					<stop offset="1" style="stop-color:#1A0F91"/>
				</linearGradient>
				<path style="fill:url(#SVGID_00000136384218165191634880000013456094812456222603_);" d="M2193.915,2871.85      c0.039,2.04,1.724,3.662,3.764,3.623l0,0c2.04-0.039,3.662-1.724,3.623-3.764l-3.114-162.513      c-0.039-2.04-1.725-3.662-3.764-3.623l0,0c-2.04,0.039-3.662,1.724-3.623,3.764L2193.915,2871.85z"/>
			</g>
			<g>
				<path style="fill:#FFFFFF;" d="M1280.985,2631.459c-161.279,0-292.022,130.743-292.022,292.021      c0,161.279,130.743,292.022,292.022,292.022s292.022-130.743,292.022-292.022      C1573.007,2762.202,1442.264,2631.459,1280.985,2631.459z M1280.985,3171.884c-137.188,0-248.403-111.214-248.403-248.403      s111.214-248.403,248.403-248.403s248.402,111.214,248.402,248.403S1418.173,3171.884,1280.985,3171.884z"/>
				<g>

						<linearGradient id="SVGID_00000130630657920748483260000010760712687144505531_" gradientUnits="userSpaceOnUse" x1="1377.9366" y1="2507.8521" x2="958.4532" y2="4320.6191">
						<stop offset="0" style="stop-color:#09005D"/>
						<stop offset="1" style="stop-color:#1A0F91"/>
					</linearGradient>
					<path style="fill:url(#SVGID_00000130630657920748483260000010760712687144505531_);" d="M1280.986,2621.656       c-168.538,0-305.166,136.628-305.166,305.164c0,168.539,136.628,305.167,305.166,305.167       c168.536,0,305.164-136.628,305.164-305.167C1586.15,2758.284,1449.522,2621.656,1280.986,2621.656z M1277.721,3186.293       c-145.104,0-262.735-117.631-262.735-262.735s117.631-262.735,262.735-262.735s262.738,117.631,262.738,262.735       S1422.826,3186.293,1277.721,3186.293z"/>
					<g>
						<g>
							<path style="fill:#91B3FA;" d="M1548.419,2832.516c-2.166,0-4.145-1.444-4.728-3.633         c-2.921-10.996-6.66-21.906-11.111-32.434c-1.052-2.486,0.11-5.355,2.601-6.416c2.491-1.033,5.364,0.105,6.416,2.61         c4.628,10.939,8.515,22.28,11.56,33.716c0.693,2.62-0.861,5.297-3.476,5.995         C1549.26,2832.468,1548.835,2832.516,1548.419,2832.516z"/>
						</g>
						<g>
							<path style="fill:#91B3FA;" d="M1505.682,2745.101c-1.487,0-2.95-0.669-3.916-1.951         c-50.54-67.02-131.979-107.036-217.849-107.036c-36.617,0-72.04,7.429-105.286,22.078c-2.481,1.071-5.369-0.038-6.454-2.515         c-1.09-2.467,0.033-5.364,2.505-6.454c34.5-15.194,71.251-22.901,109.236-22.901c88.926,0,173.291,41.47,225.671,110.938         c1.625,2.161,1.195,5.23-0.961,6.856C1507.743,2744.776,1506.705,2745.101,1505.682,2745.101z"/>
						</g>
					</g>
				</g>

					<linearGradient id="SVGID_00000043450745075642461710000015164555603928617896_" gradientUnits="userSpaceOnUse" x1="1278.2958" y1="2965.866" x2="1316.1285" y2="2927.2842">
					<stop offset="0" style="stop-color:#09005D"/>
					<stop offset="1" style="stop-color:#1A0F91"/>
				</linearGradient>

					<circle style="fill:url(#SVGID_00000043450745075642461710000015164555603928617896_);" cx="1297.212" cy="2946.575" r="27.018"/>

					<linearGradient id="SVGID_00000059292123972042668770000001201857960070780314_" gradientUnits="userSpaceOnUse" x1="956.8362" y1="268.8635" x2="965.8138" y2="268.8635" gradientTransform="matrix(0.7185 0.6956 -0.6956 0.7185 887.4882 1982.3702)">
					<stop offset="0" style="stop-color:#09005D"/>
					<stop offset="1" style="stop-color:#1A0F91"/>
				</linearGradient>
				<path style="fill:url(#SVGID_00000059292123972042668770000001201857960070780314_);" d="M1463.066,2776.441      c1.724-1.781,1.678-4.621-0.103-6.345l0,0c-1.781-1.724-4.621-1.678-6.345,0.103l-137.327,141.854      c-1.724,1.781-1.677,4.621,0.103,6.345l0,0c1.781,1.724,4.621,1.677,6.345-0.103L1463.066,2776.441z"/>

					<linearGradient id="SVGID_00000125567331034416833240000004105595877892230044_" gradientUnits="userSpaceOnUse" x1="952.4171" y1="432.6578" x2="961.3922" y2="432.6578" gradientTransform="matrix(0.7185 0.6956 -0.6521 0.6736 795.2548 2077.8574)">
					<stop offset="0" style="stop-color:#09005D"/>
					<stop offset="1" style="stop-color:#1A0F91"/>
				</linearGradient>
				<path style="fill:url(#SVGID_00000125567331034416833240000004105595877892230044_);" d="M1268.25,2971.547      c1.616-1.669,1.482-4.419-0.298-6.143l0,0c-1.781-1.724-4.534-1.768-6.15-0.099l-128.743,132.986      c-1.616,1.669-1.482,4.42,0.298,6.144l0,0c1.781,1.724,4.534,1.768,6.15,0.099L1268.25,2971.547z"/>

					<linearGradient id="SVGID_00000084530119345545320690000016312575442052152987_" gradientUnits="userSpaceOnUse" x1="-2056.8528" y1="-1163.1064" x2="-2047.8715" y2="-1163.1064" gradientTransform="matrix(-0.2613 0.9652 -0.9652 -0.2613 -512.5188 4589.8066)">
					<stop offset="0" style="stop-color:#09005D"/>
					<stop offset="1" style="stop-color:#1A0F91"/>
				</linearGradient>
				<path style="fill:url(#SVGID_00000084530119345545320690000016312575442052152987_);" d="M1240.508,2942.917      c2.392,0.647,4.856-0.767,5.504-3.159l0,0c0.647-2.392-0.767-4.856-3.159-5.504l-190.575-51.599      c-2.392-0.648-4.856,0.767-5.504,3.159l0,0c-0.647,2.392,0.767,4.856,3.159,5.504L1240.508,2942.917z"/>

					<linearGradient id="SVGID_00000089570936223645188680000014363084970303509126_" gradientUnits="userSpaceOnUse" x1="-2054.6504" y1="-1439.4355" x2="-2047.2565" y2="-1439.4355" gradientTransform="matrix(-0.2613 0.9652 -0.9652 -0.2613 -512.5188 4589.8066)">
					<stop offset="0" style="stop-color:#09005D"/>
					<stop offset="1" style="stop-color:#1A0F91"/>
				</linearGradient>
				<path style="fill:url(#SVGID_00000089570936223645188680000014363084970303509126_);" d="M1490.22,3011.156      c1.969,0.533,3.998-0.631,4.531-2.601l0,0c0.533-1.969-0.631-3.998-2.6-4.531l-156.894-42.48      c-1.969-0.533-3.998,0.631-4.531,2.6l0,0c-0.533,1.969,0.631,3.998,2.6,4.531L1490.22,3011.156z"/>

					<linearGradient id="SVGID_00000020390308462569196520000005750954581019596969_" gradientUnits="userSpaceOnUse" x1="-4252.5801" y1="-366.4593" x2="-4245.1899" y2="-366.4593" gradientTransform="matrix(-0.8176 0.5757 -0.5757 -0.8176 -2458.157 4976.1543)">
					<stop offset="0" style="stop-color:#09005D"/>
					<stop offset="1" style="stop-color:#1A0F91"/>
				</linearGradient>
				<path style="fill:url(#SVGID_00000020390308462569196520000005750954581019596969_);" d="M1270.471,2898.266      c1.174,1.668,3.479,2.068,5.147,0.894l0,0c1.669-1.175,2.069-3.479,0.894-5.147l-93.579-132.903      c-1.175-1.668-3.479-2.068-5.147-0.894l0,0c-1.668,1.175-2.068,3.479-0.894,5.147L1270.471,2898.266z"/>

					<linearGradient id="SVGID_00000013152761985966169200000016092758826846619797_" gradientUnits="userSpaceOnUse" x1="-4240.6431" y1="-621.5215" x2="-4233.2529" y2="-621.5215" gradientTransform="matrix(-0.8176 0.5757 -0.5757 -0.8176 -2458.157 4976.1543)">
					<stop offset="0" style="stop-color:#09005D"/>
					<stop offset="1" style="stop-color:#1A0F91"/>
				</linearGradient>
				<path style="fill:url(#SVGID_00000013152761985966169200000016092758826846619797_);" d="M1407.551,3113.677      c1.175,1.668,3.479,2.068,5.147,0.894l0,0c1.668-1.175,2.068-3.479,0.894-5.147l-93.579-132.903      c-1.174-1.668-3.479-2.068-5.147-0.894l0,0c-1.668,1.175-2.068,3.479-0.894,5.147L1407.551,3113.677z"/>

					<linearGradient id="SVGID_00000059995660047904199550000017886514707816981177_" gradientUnits="userSpaceOnUse" x1="-3669.636" y1="4939.9668" x2="-3662.2466" y2="4939.9668" gradientTransform="matrix(-0.2544 -0.9671 0.9671 -0.2544 -4561.687 697.7464)">
					<stop offset="0" style="stop-color:#09005D"/>
					<stop offset="1" style="stop-color:#1A0F91"/>
				</linearGradient>
				<path style="fill:url(#SVGID_00000059995660047904199550000017886514707816981177_);" d="M1068.833,3003.453      c-1.973,0.519-3.152,2.54-2.633,4.512l0,0c0.519,1.973,2.539,3.152,4.512,2.633l157.195-41.35      c1.973-0.519,3.152-2.539,2.633-4.512l0,0c-0.519-1.973-2.539-3.152-4.512-2.633L1068.833,3003.453z"/>

					<linearGradient id="SVGID_00000122719279986817208440000014534076068824046527_" gradientUnits="userSpaceOnUse" x1="-3663.6279" y1="5225.0332" x2="-3656.2385" y2="5225.0332" gradientTransform="matrix(-0.2544 -0.9671 0.9671 -0.2544 -4561.687 697.7464)">
					<stop offset="0" style="stop-color:#09005D"/>
					<stop offset="1" style="stop-color:#1A0F91"/>
				</linearGradient>
				<path style="fill:url(#SVGID_00000122719279986817208440000014534076068824046527_);" d="M1342.993,2925.122      c-1.973,0.519-3.152,2.539-2.633,4.513l0,0c0.519,1.973,2.539,3.152,4.512,2.633l157.196-41.35      c1.973-0.519,3.152-2.539,2.633-4.512l0,0c-0.519-1.973-2.539-3.152-4.512-2.633L1342.993,2925.122z"/>

					<linearGradient id="SVGID_00000080917914644968013310000003361753243576683920_" gradientUnits="userSpaceOnUse" x1="-5292.8262" y1="1067.0405" x2="-5285.4312" y2="1067.0405" gradientTransform="matrix(-0.9998 0.0192 -0.0192 -0.9998 -3962.5505 4233.0601)">
					<stop offset="0" style="stop-color:#09005D"/>
					<stop offset="1" style="stop-color:#1A0F91"/>
				</linearGradient>
				<path style="fill:url(#SVGID_00000080917914644968013310000003361753243576683920_);" d="M1302.897,3146.01      c0.039,2.04,1.724,3.661,3.764,3.623l0,0c2.04-0.039,3.662-1.724,3.623-3.764l-3.114-162.513      c-0.039-2.04-1.724-3.662-3.764-3.623l0,0c-2.04,0.039-3.662,1.725-3.623,3.764L1302.897,3146.01z"/>

					<linearGradient id="SVGID_00000088118296441125301760000017884625402745706661_" gradientUnits="userSpaceOnUse" x1="-5298.0903" y1="1341.1537" x2="-5290.6948" y2="1341.1537" gradientTransform="matrix(-0.9998 0.0192 -0.0192 -0.9998 -3962.5505 4233.0601)">
					<stop offset="0" style="stop-color:#09005D"/>
					<stop offset="1" style="stop-color:#1A0F91"/>
				</linearGradient>
				<path style="fill:url(#SVGID_00000088118296441125301760000017884625402745706661_);" d="M1302.897,2871.85      c0.039,2.04,1.724,3.662,3.764,3.623l0,0c2.04-0.039,3.662-1.724,3.623-3.764l-3.114-162.513      c-0.039-2.04-1.724-3.662-3.764-3.623l0,0c-2.04,0.039-3.662,1.724-3.623,3.764L1302.897,2871.85z"/>
			</g>

				<linearGradient id="SVGID_00000114766572889755966240000013765251805051598986_" gradientUnits="userSpaceOnUse" x1="1425.4836" y1="-246.6983" x2="1303.152" y2="281.949" gradientTransform="matrix(0.8352 0.55 -0.55 0.8352 718.6108 1343.1689)">
				<stop offset="0" style="stop-color:#FEBBBA"/>
				<stop offset="1" style="stop-color:#FF928E"/>
			</linearGradient>
			<path style="fill:url(#SVGID_00000114766572889755966240000013765251805051598986_);" d="M1958.437,1916.046l-89.736,110.995     c0,0,13.615,70.892,84.713,68.607l76.768-137.139L1958.437,1916.046z"/>

				<linearGradient id="SVGID_00000041295644328394523210000016107863784206508714_" gradientUnits="userSpaceOnUse" x1="1674.7512" y1="-221.4765" x2="1674.7512" y2="628.1553">
				<stop offset="0" style="stop-color:#FF928E"/>
				<stop offset="1" style="stop-color:#FE7062"/>
			</linearGradient>
			<path style="fill:url(#SVGID_00000041295644328394523210000016107863784206508714_);" d="M1747.709,2204.298     c0,0,115.049,11.015,155.438-14.687c40.39-25.703,115.049-146.871-26.926-195.828c-141.975-48.957-332.5,66.5-405.936,141.567     c-73.435,75.067-79.963,124.025-79.963,124.025s137.08,86.491,181.141,66.908     C1615.525,2306.7,1700.474,2202.015,1747.709,2204.298z"/>

				<linearGradient id="SVGID_00000000922472465206071100000004972310019015116475_" gradientUnits="userSpaceOnUse" x1="1844.54" y1="1795.757" x2="1724.1196" y2="3200.6592">
				<stop offset="0" style="stop-color:#FF928E"/>
				<stop offset="1" style="stop-color:#FE7062"/>
			</linearGradient>
			<path style="fill:url(#SVGID_00000000922472465206071100000004972310019015116475_);" d="M2024.316,2509.055     c-24.478,0-467.54,63.644-467.54,63.644l-9.792-74.607l-31.822,13.411l7.344,95.466c0,0-264.368,332.908-232.546,342.699     c31.822,9.792,355.895,75.884,384.791,46.509c28.896-29.374,350.789-384.313,350.789-384.313     c24.863,48.089,146.465,332.908,146.465,332.908s29.374,44.062,33.452-7.344     C2205.457,2937.43,2048.794,2509.055,2024.316,2509.055z M1629.05,2968.676c-2.087,2.219-5.149,3.237-8.147,2.713     c-53.437-9.347-248.161-43.16-276.272-44.568c-28.284-1.413,148.09-226.032,195.656-285.944c2.156-2.713,5.665-3.964,9.048-3.213     c3.383,0.751,6.041,3.371,6.839,6.741l75.087,315.976C1631.964,2963.342,1631.137,2966.46,1629.05,2968.676z M2001.061,2577.132     c-14.687,13.927-310.153,373.594-325.564,361.522c-15.412-12.072-107-328.72-96.69-330.46c0,0,418.583-70.988,422.255-61.196     C2004.733,2556.788,2015.749,2563.205,2001.061,2577.132z"/>

				<linearGradient id="SVGID_00000149363405331304058150000013425800841866343830_" gradientUnits="userSpaceOnUse" x1="1588.5245" y1="2714.8162" x2="1506.9298" y2="2463.5039">
				<stop offset="0" style="stop-color:#E1473D"/>
				<stop offset="1" style="stop-color:#E9605A"/>
			</linearGradient>
			<path style="fill:url(#SVGID_00000149363405331304058150000013425800841866343830_);" d="M1609.405,2395.23     c-19.583-22.031-238.527-33.046-246.552-6.12c-8.025,26.927,20.125,50.647,64.187,52.863c44.061,2.214,66.092,4.669,66.092,4.669     l9.658,65.802c0.344,2.352,1.678,4.446,3.665,5.754c1.986,1.307,4.434,1.704,6.734,1.092l38.205-10.196l-9.304-67.122     C1542.089,2441.974,1628.988,2417.261,1609.405,2395.23z"/>

				<linearGradient id="SVGID_00000145764761067321829260000010350484358707503761_" gradientUnits="userSpaceOnUse" x1="2025.0935" y1="2528.8044" x2="2208.3181" y2="2341.9514">
				<stop offset="0" style="stop-color:#2C50FF"/>
				<stop offset="0.9964" style="stop-color:#1A1B80"/>
			</linearGradient>
			<path style="fill:url(#SVGID_00000145764761067321829260000010350484358707503761_);" d="M2166.903,2409.306     c-47.733-5.508-178.693,23.866-181.753,23.866c-3.06,0-15.911,3.672-9.792,25.091c6.12,21.418,15.96,54.244,15.96,54.244     l39.045,1.335l-18.287-67.198c0,0,130.465-26.495,148.094,0c16.174,24.307-21.021,67.876-45.232,86.246     c-3.577,2.714-4.872,7.508-3.141,11.651c1.973,4.719,3.652,8.622,5.067,11.835c1.362,3.089,4.209,5.267,7.546,5.772     c3.338,0.505,6.697-0.737,8.912-3.283c12.338-14.181,32.578-37.254,38.679-43.078     C2180.979,2507.22,2214.636,2414.813,2166.903,2409.306z"/>

				<linearGradient id="SVGID_00000006682931031919697390000002813133631861506947_" gradientUnits="userSpaceOnUse" x1="2075.7703" y1="2264.0894" x2="2483.8613" y2="2095.1667">
				<stop offset="0" style="stop-color:#FEBBBA"/>
				<stop offset="1" style="stop-color:#FF928E"/>
			</linearGradient>
			<path style="fill:url(#SVGID_00000006682931031919697390000002813133631861506947_);" d="M1904.478,2005.884     c-59.989-4.687-80.886,80.917-64.975,113.963c15.911,33.046,36.718,209.292,64.868,221.531     c28.15,12.24,244.786,168.902,246.009,170.126c1.224,1.224-20.807,35.494,0,40.389s58.749,2.448,55.077-15.911     c-3.672-18.359,6.12-30.598-7.344-44.062s-225.203-203.297-225.203-203.297S1982.809,2012.003,1904.478,2005.884z"/>

				<linearGradient id="SVGID_00000148656155016501986280000013701082317847618958_" gradientUnits="userSpaceOnUse" x1="2178.5308" y1="2942.0278" x2="2197.8076" y2="2942.0278">
				<stop offset="0" style="stop-color:#09005D"/>
				<stop offset="1" style="stop-color:#1A0F91"/>
			</linearGradient>
			<circle style="fill:url(#SVGID_00000148656155016501986280000013701082317847618958_);" cx="2188.169" cy="2942.028" r="9.638"/>

				<linearGradient id="SVGID_00000000186021346530304000000012682468554316682918_" gradientUnits="userSpaceOnUse" x1="1307.0953" y1="2942.0278" x2="1326.3721" y2="2942.0278">
				<stop offset="0" style="stop-color:#09005D"/>
				<stop offset="1" style="stop-color:#1A0F91"/>
			</linearGradient>
			<circle style="fill:url(#SVGID_00000000186021346530304000000012682468554316682918_);" cx="1316.734" cy="2942.028" r="9.638"/>
			<g>
				<g>

						<linearGradient id="SVGID_00000083778799641676294500000015625985439097732247_" gradientUnits="userSpaceOnUse" x1="1001.4607" y1="2709.6702" x2="1372.6146" y2="2868.2688">
						<stop offset="0" style="stop-color:#09005D"/>
						<stop offset="1" style="stop-color:#1A0F91"/>
					</linearGradient>
					<path style="fill:url(#SVGID_00000083778799641676294500000015625985439097732247_);" d="M1686.316,2939.557       c-0.086,0-0.172,0-0.258,0l-380.44-22.439c-2.701-0.134-4.776-3.742-4.638-6.448c0.143-2.696,2.467-5.663,5.144-5.28       l380.44,19.505c2.701,0.134,4.776,4.878,4.638,7.584C1691.064,2935.09,1688.903,2939.557,1686.316,2939.557z"/>
				</g>
				<g>

						<linearGradient id="SVGID_00000166665736657450826220000016352906059640190610_" gradientUnits="userSpaceOnUse" x1="2230.0754" y1="1036.407" x2="2600.5139" y2="1194.6997" gradientTransform="matrix(0.977 0.2132 -0.2132 0.977 -936.7212 1188.6252)">
						<stop offset="0" style="stop-color:#09005D"/>
						<stop offset="1" style="stop-color:#1A0F91"/>
					</linearGradient>
					<path style="fill:url(#SVGID_00000166665736657450826220000016352906059640190610_);" d="M1668.934,3063.305       c-0.084-0.019-0.168-0.037-0.252-0.055l-367.402-100.782c-2.611-0.707-4.113-3.557-3.4-6.171       c0.715-2.604,3.495-4.447,6.03-3.503l367.478,100.43c2.611,0.707,4.084,3.689,3.371,6.304       C1674.068,3062.048,1671.461,3063.857,1668.934,3063.305z"/>
				</g>
			</g>

				<linearGradient id="SVGID_00000104692399967831586490000007123683324669445269_" gradientUnits="userSpaceOnUse" x1="1586.1503" y1="2997.1436" x2="1746.3793" y2="2997.1436">
				<stop offset="0" style="stop-color:#09005D"/>
				<stop offset="1" style="stop-color:#1A0F91"/>
			</linearGradient>

				<circle style="fill:url(#SVGID_00000104692399967831586490000007123683324669445269_);" cx="1666.265" cy="2997.144" r="80.114"/>

				<linearGradient id="SVGID_00000099652242871390169710000006631658090407377536_" gradientUnits="userSpaceOnUse" x1="1574.0116" y1="3101.3247" x2="1665.5521" y2="3007.9714">
				<stop offset="0" style="stop-color:#09005D"/>
				<stop offset="1" style="stop-color:#1A0F91"/>
			</linearGradient>
			<path style="fill:url(#SVGID_00000099652242871390169710000006631658090407377536_);" d="M1672.014,2997.646l-5.352-6.82     c-2.053-2.613-5.216-4.107-8.539-4.028c-3.323,0.079-6.414,1.721-8.338,4.43l-52.211,73.454l25.294,19.829l49.626-74.519     C1675.016,3006.204,1674.823,3001.227,1672.014,2997.646z"/>

				<linearGradient id="SVGID_00000053545246687598566110000002758762976672968103_" gradientUnits="userSpaceOnUse" x1="1685.8256" y1="3192.7659" x2="1803.062" y2="3362.1072">
				<stop offset="0" style="stop-color:#09005D"/>
				<stop offset="1" style="stop-color:#1A0F91"/>
			</linearGradient>
			<path style="fill:url(#SVGID_00000053545246687598566110000002758762976672968103_);" d="M1688.695,3119.883l-143.919-108.843     c-4.556-3.447-10.97-2.78-14.735,1.527l-7.135,8.171c-2.008,2.3-2.976,5.338-2.675,8.386c0.309,3.05,1.855,5.835,4.277,7.683     l146.948,112.195c2.768,2.111,6.366,2.771,9.693,1.774c3.328-1,5.986-3.533,7.162-6.827l4.109-11.52     C1694.042,3127.875,1692.531,3122.785,1688.695,3119.883z"/>
			<g>

					<linearGradient id="SVGID_00000109005407199648902860000016707295991795127729_" gradientUnits="userSpaceOnUse" x1="1754.3969" y1="3182.0503" x2="2050.5869" y2="3483.1357">
					<stop offset="0" style="stop-color:#E1473D"/>
					<stop offset="1" style="stop-color:#E9605A"/>
				</linearGradient>
				<path style="fill:url(#SVGID_00000109005407199648902860000016707295991795127729_);" d="M1572.388,2986.213      c0,0-51.106,17.308-20.508,47.906c30.598,30.598,107.705,80.779,122.392,85.675c14.687,4.896,62.42-8.568,50.181-25.702      c-12.239-17.135-79.555-48.957-79.555-48.957l-26.926-46.509C1617.973,2998.626,1570.387,2991.937,1572.388,2986.213z"/>

					<linearGradient id="SVGID_00000095300780145871742830000002814001987702897796_" gradientUnits="userSpaceOnUse" x1="1393.9484" y1="3076.1338" x2="1791.1886" y2="2671.0276">
					<stop offset="0" style="stop-color:#FEBBBA"/>
					<stop offset="1" style="stop-color:#FF928E"/>
				</linearGradient>
				<path style="fill:url(#SVGID_00000095300780145871742830000002814001987702897796_);" d="M1690.184,2633.08      c0,0-68.54,150.135-70.988,189.301c-2.448,39.166-47.733,166.454-47.733,166.454s20.807,35.493,46.509,9.791      c25.702-25.702,195.828-376.969,176.245-403.896C1774.635,2567.804,1693.856,2596.77,1690.184,2633.08z"/>

					<linearGradient id="SVGID_00000105428757631090152760000001145435519810915755_" gradientUnits="userSpaceOnUse" x1="2738.0464" y1="1533.5682" x2="2430.3054" y2="1774.4087">
					<stop offset="0" style="stop-color:#09005D"/>
					<stop offset="1" style="stop-color:#1A0F91"/>
				</linearGradient>
				<path style="fill:url(#SVGID_00000105428757631090152760000001145435519810915755_);" d="M1392.397,2250.865      c0,0-82.038,116.215,27.299,158.644c109.337,42.429,264.368,223.571,264.368,223.571l124.025-35.902      c0,0-151.493-269.264-222.618-285.583C1474.403,2304.852,1425.479,2270.098,1392.397,2250.865z"/>
			</g>

				<linearGradient id="SVGID_00000164478186886979049190000016165213785935967616_" gradientUnits="userSpaceOnUse" x1="1307.6345" y1="2884.3113" x2="1278.3634" y2="3118.481">
				<stop offset="0" style="stop-color:#09005D"/>
				<stop offset="1" style="stop-color:#1A0F91"/>
			</linearGradient>

				<circle style="fill:url(#SVGID_00000164478186886979049190000016165213785935967616_);" cx="1301.126" cy="2936.376" r="37.217"/>
			<g>
				<g>

						<linearGradient id="SVGID_00000049195759586122633610000001798902937644166330_" gradientUnits="userSpaceOnUse" x1="955.2465" y1="-2145.6248" x2="754.9089" y2="-1880.5945" gradientTransform="matrix(0.9771 0.2131 -0.2131 0.9771 709.0426 3775.2197)">
						<stop offset="0" style="stop-color:#FEBBBA"/>
						<stop offset="1" style="stop-color:#FF928E"/>
					</linearGradient>
					<path style="fill:url(#SVGID_00000049195759586122633610000001798902937644166330_);" d="M2138.307,1889.537       c-0.563,2.581-93.228,150.61-93.228,150.61l-83.398-54.708l66.983-153.35       C2028.663,1832.09,2147.729,1846.332,2138.307,1889.537z"/>

						<linearGradient id="SVGID_00000130629826667393011220000011069140991729281190_" gradientUnits="userSpaceOnUse" x1="802.2437" y1="-2081.9775" x2="1019.1526" y2="-2081.9775" gradientTransform="matrix(0.9771 0.2131 -0.2131 0.9771 709.0426 3775.2197)">
						<stop offset="0" style="stop-color:#09005D"/>
						<stop offset="1" style="stop-color:#1A0F91"/>
					</linearGradient>
					<path style="fill:url(#SVGID_00000130629826667393011220000011069140991729281190_);" d="M2045.876,1868.11       c-4.38,0.758-8.144,3.477-10.236,7.398l-40.982,76.838c-0.621,1.166-1.084,2.387-1.358,3.68       c-1.513,7.126-4.503,30.201,19.609,32.182c20.552,1.688,39.416,3.524,51.022,10.656c6.777,4.165,8.734,13.12,4.488,19.847       c-8.745,13.856-26.958,41.459-46.584,63.71c-4.919,5.577-13.326,6.356-19.267,1.883c-15.676-11.803-45.599-35.77-65.787-60.856       c-3.316-4.121-4.09-9.707-2.032-14.578c9.06-21.442,34.208-81.643,38.692-99.729c4.165-16.803-11.432-33.842-19.194-41.079       c-2.946-2.747-4.607-6.558-4.601-10.587c0.02-12.08,4.037-35.552,35.073-34.909c7.716,0.16,14.101-6.114,14.42-13.825       c0.573-13.817,6.354-31.909,32.309-33.554c26.276-1.666,39.187,15.769,45.213,29.305c2.667,5.99,8.992,9.898,15.474,8.92       c2.883-0.436,5.982,0.264,8.797,3.341c4.939,5.4,11.293,5.684,17.075,2.484c2.755-1.525,2.372-3.418,7.012-3.466       c4.2-0.043,8.518,1.663,11.969,3.956c5.028,3.34,8.843,8.216,12.071,13.316c10.381,16.402,15.485,36.088,14.381,55.468       c-0.877,15.39-17.688,21.396-31.353,18.235c-14.926-3.452-28.032-14.939-37.281-26.694       C2082.327,1864.19,2057.942,1866.021,2045.876,1868.11z"/>
				</g>
				<g>

						<linearGradient id="SVGID_00000092442004232200265910000018234162171648757412_" gradientUnits="userSpaceOnUse" x1="2102.5249" y1="1861.1469" x2="1809.854" y2="1808.2169">
						<stop offset="0" style="stop-color:#FF928E"/>
						<stop offset="1" style="stop-color:#FE7062"/>
					</linearGradient>
					<path style="fill:url(#SVGID_00000092442004232200265910000018234162171648757412_);" d="M1966.222,1762.394       c149.786-9.874,239.484,78.248,193.651,176.474c-5.743,12.308-22.899,14.434-35.534,9.451       c-95.875-37.811-142.115-82.304-174.953-158.324C1943.962,1777.438,1952.574,1763.293,1966.222,1762.394z"/>

						<linearGradient id="SVGID_00000114755332077174059440000001030244491721491121_" gradientUnits="userSpaceOnUse" x1="1958.0133" y1="1942.1973" x2="1481.8256" y2="2311.4399">
						<stop offset="0" style="stop-color:#E1473D"/>
						<stop offset="1" style="stop-color:#E9605A"/>
					</linearGradient>
					<polygon style="fill:url(#SVGID_00000114755332077174059440000001030244491721491121_);" points="2030.182,1897.67       1953.207,1940.684 2020.036,1882.67      "/>

						<linearGradient id="SVGID_00000163039067092485831330000015427226181511586971_" gradientUnits="userSpaceOnUse" x1="1931.0426" y1="1907.4149" x2="1454.8551" y2="2276.6575">
						<stop offset="0" style="stop-color:#E1473D"/>
						<stop offset="1" style="stop-color:#E9605A"/>
					</linearGradient>
					<polygon style="fill:url(#SVGID_00000163039067092485831330000015427226181511586971_);" points="1956.162,1932.249       1971.037,1832.09 1981.409,1847.663      "/>

						<linearGradient id="SVGID_00000006677173303369842060000014560321020601946300_" gradientUnits="userSpaceOnUse" x1="1966.9893" y1="1953.7731" x2="1490.8014" y2="2323.0159">
						<stop offset="0" style="stop-color:#E1473D"/>
						<stop offset="1" style="stop-color:#E9605A"/>
					</linearGradient>
					<path style="fill:url(#SVGID_00000006677173303369842060000014560321020601946300_);" d="M1955.834,1931.595       c-23.443,56.078-19.091,62.429-21.458,78.296l5.904-15.315c5.11-11.799,7.335-20.602,23.927-63.44L1955.834,1931.595z"/>

						<linearGradient id="SVGID_00000029739710521201221120000000162583833035567806_" gradientUnits="userSpaceOnUse" x1="1948.2213" y1="1763.7844" x2="2287.0691" y2="2066.6089">
						<stop offset="0" style="stop-color:#E1473D"/>
						<stop offset="1" style="stop-color:#E9605A"/>
					</linearGradient>
					<path style="fill:url(#SVGID_00000029739710521201221120000000162583833035567806_);" d="M1983.516,1788.858       c58.533,36.823,106.557,82.809,139.115,142.277C2069.989,1893.752,2024.367,1845.125,1983.516,1788.858z"/>

						<linearGradient id="SVGID_00000064354729721076051670000004193801567982110637_" gradientUnits="userSpaceOnUse" x1="1973.2944" y1="1735.7286" x2="2312.1426" y2="2038.5533">
						<stop offset="0" style="stop-color:#E1473D"/>
						<stop offset="1" style="stop-color:#E9605A"/>
					</linearGradient>
					<path style="fill:url(#SVGID_00000064354729721076051670000004193801567982110637_);" d="M2149.496,1922.88       c15.644-61.843-47.879-119.012-140.941-143.028C2079.629,1819.716,2137.243,1868.715,2149.496,1922.88z"/>
				</g>

					<linearGradient id="SVGID_00000171678506666904128050000000765312160316703642_" gradientUnits="userSpaceOnUse" x1="667.8925" y1="-1942.9998" x2="822.6871" y2="-2101.8149" gradientTransform="matrix(0.9771 0.2131 -0.2131 0.9771 709.0426 3775.2197)">
					<stop offset="0" style="stop-color:#FEBBBA"/>
					<stop offset="1" style="stop-color:#FF928E"/>
				</linearGradient>
				<path style="fill:url(#SVGID_00000171678506666904128050000000765312160316703642_);" d="M1965.86,1931.135      c0,0,27.093-34.179,14.156-52.142c-12.938-17.963-40.714-21.542-47.83,14.611      C1923.335,1938.575,1965.86,1931.135,1965.86,1931.135z"/>
			</g>
		</g>
	</g>
</g>
</svg>