<?xml version="1.0" encoding="utf-8"?>
<!-- Generator: Adobe Illustrator 27.5.0, SVG Export Plug-In . SVG Version: 6.00 Build 0)  -->
<svg version="1.1" xmlns="http://www.w3.org/2000/svg" xmlns:xlink="http://www.w3.org/1999/xlink" x="0px" y="0px"
	 viewBox="0 0 2475 1650" style="enable-background:new 0 0 2475 1650;" xml:space="preserve">

<g id="Illustration">
	<g>

			<linearGradient id="SVGID_1_" gradientUnits="userSpaceOnUse" x1="-1419.9994" y1="788.354" x2="487.2663" y2="788.354" gradientTransform="matrix(-1 0 0 1 781.2763 0)">
			<stop  offset="0" style="stop-color:#DAE3FE"/>
			<stop  offset="1" style="stop-color:#E9EFFD"/>
		</linearGradient>
		<path style="fill:url(#SVGID_1_);" d="M296.762,351.724c25.667-245.866,414.331-48.392,547.773-167.166
			c146.913-130.76,273.143-56.419,397.964,60.235c75.448,70.512,155.187,149.895,256.005,182.417
			c72.778,23.475,153.831,12.833,223.681-15.326c429.941-173.323,499.38,105.874,474.719,226.327
			c-9.553,46.658-42.604,79.311-60.851,121.733c-22.714,52.806-14.337,106.743,4.668,159.319
			c35.621,98.545,91.736,208.042,31.241,309.111c-64.693,108.07-219.831,132.13-331.213,160.795
			c-161.299,41.511-328.311,64.703-494.721,70.266c-119.53,3.996-243.166,2.226-362.131-11.305
			C463.266,1388.912,187.928,1194.112,342,1008C496.073,821.888,266.708,639.614,296.762,351.724z"/>

		<g>
			<g>
				<path style="fill:#BDD0FB;" d="M893.916,1011.518c6.633-16.026,10.66-32.869,18.357-48.483
					c16.323-33.113,40.572-58.185,64.09-85.812c16.159-18.982,43.747-52.638,21.119-76.817
					c-11.111-11.864-29.227-13.368-44.232-11.568c-45.367,5.442-61.757,16.4-51.684-37.409
					c5.592-29.869,21.489-56.747,27.724-86.137c6.304-29.716,9.326-116.115-22.371-136.498
					c-56.298-36.196-91.513,100.591-100.211,131.933c-0.32,1.151-0.534,2.417-0.67,3.766c-0.368,3.647-3.13,6.598-6.745,7.205
					c-3.615,0.607-7.197-1.276-8.734-4.604c-2.159-4.675-3.854-9.086-4.042-12.798c-0.918-18.18,4.729-38.218,9.481-55.616
					c6.434-23.558,15.307-46.495,24.636-69.04c10.595-25.605,16.847-52.317,7.683-79.272c-9.014-26.517-27.637-48.44-44.289-70.448
					c-22.001-29.078-37.477-68.742-71.924-85.736c-40.688-20.073-81.538,10.303-103.361,44.106
					c-35.34,54.739-15.589,114.906,11.163,168.322c18.946,37.83,67.106,95.258,65.953,141.66c-0.069,2.794-1.569,5.357-3.971,6.787
					c-2.402,1.43-5.372,1.529-7.86,0.256c-8.374-4.285-15.044-11.81-22.078-19.631c-24.881-27.665-46.539-58.692-68.864-88.423
					c-15.364-20.461-36.879-56.65-65.384-59.22c-33.368-3.008-32.859,60.509-30.225,80.214
					C500.986,669.286,594.73,719.634,644.248,800.65c10.197,16.684,32.374,47.097,30.068,67.399
					c-4.44,39.082-52.325-4.144-73.185-10.584c-28.957-8.939-79.663-9.11-80.045,30.621c-0.441,46.167,39.409,85.911,80.933,99.765
					c33.305,11.112,71.353,14.934,102.922,30.437c28.882,14.183,11.592,46.127-17.382,37.288c-11.962-3.65-23.91-8.43-35.554-12.99
					c-11.282-4.417-44.522-22.668-52.782-5.708c-6.306,12.95,6.782,35.56,11.992,46.599
					c58.388,123.699,106.494,100.993,173.934,125.183c19.366,6.946,32.466,22.671,39.462,41.604
					c3.018,8.168,2.713,38.846,12.034,41.613c12.848,3.774,30.81-22.88,36.322-30.518c10.207-14.138,22.588-26.449,32.778-40.608
					c17.579-24.429,46.374-60.522,43.147-92.822c-1.598-15.999-15.37-22.433-30.226-23.609c-25.151-1.99-65.043-6.712-49.022-41.385
					C877.594,1045.731,886.664,1029.039,893.916,1011.518z"/>
				<path style="fill:#91B3FA;" d="M842.817,1290.835c-1.909,0-3.473-1.529-3.51-3.445c-0.031-1.681-3.549-169.368-40.663-281.869
					c-36.925-111.926-62.562-330.864-55.921-389.636c5.797-51.293-14.618-266.168-58.947-315.075
					c-5.815-6.416-11.745-9.626-17.758-9.541c-2.004,0.008-3.532-1.521-3.561-3.46c-0.027-1.938,1.521-3.532,3.46-3.561
					c8.07-0.072,15.831,3.869,23.061,11.847c48.511,53.522,65.879,274.948,60.722,320.579
					c-5.889,52.104,16.638,268.515,55.61,386.649c37.451,113.518,40.985,282.246,41.016,283.937
					c0.037,1.938-1.506,3.539-3.444,3.575C842.862,1290.835,842.839,1290.835,842.817,1290.835z"/>
			</g>
			<g>
				<path style="fill:#91B3FA;" d="M727.208,1081.742c-15.791,4.298-66.713,46.565-64.333,10.618
					c3.056-46.177,53.378-82.934,57.1-130.246c2.168-27.558-23.48-44.039-48.41-48.921c-43.728-8.564-59.073,77.763-80.855,106.847
					c-4.581,6.118-9.534-113.646-10.563-118.551c-3.001-14.299-10.359-40.433-25.317-46.991
					c-36.179-15.86-50.158,31.149-54.284,58.255c-0.241,1.585-1.388,2.881-2.932,3.313c-1.543,0.431-3.195-0.082-4.224-1.311
					c-23.09-27.591-5.37-56.799-18.406-88.751c-17.961-44.024-55.383,0.987-70.553,21.981
					c-26.015,36.002-30.773,84.45,9.969,112.576c37.413,25.828,55.937,42.448,31.355,49.222
					c-32.201,8.874-57.982,43.292-41.818,75.953c16.905,34.16,69.044,52.174,102.536,64.373
					c13.183,4.802,47.699,4.432,50.362,22.786c2.226,15.343-20.937,22.261-31.391,27.698c-39.485,20.533-48.277,41.42-4.758,68.08
					c87.857,53.821,184.738,38.621,183.768-1.972c-0.435-19.165,12.48-42.485,18.559-60.006
					c6.513-18.774,12.947-37.585,18.007-56.812C746.147,1130.393,764.223,1071.668,727.208,1081.742z"/>
				<path style="fill:#7D97F4;" d="M695.224,1290.219c-1.426,0-2.767-0.877-3.292-2.291c-0.703-1.898-71.182-190.434-143.329-246
					c-56.662-43.64-99.652-111.286-104.543-164.505c-2.477-26.951,4.25-49.516,19.994-67.066c1.296-1.445,3.516-1.563,4.957-0.27
					c1.443,1.295,1.564,3.515,0.27,4.957c-14.388,16.038-20.521,36.809-18.23,61.736c4.726,51.423,46.602,117.047,101.835,159.585
					c31.034,23.902,64.99,73.134,100.923,146.328c26.666,54.318,44.53,102.317,44.708,102.795c0.673,1.818-0.255,3.839-2.072,4.512
					C696.042,1290.147,695.63,1290.219,695.224,1290.219z"/>
			</g>
		</g>

		<g>
			<g>

					<linearGradient id="SVGID_00000169559353320295454250000009211693441914903964_" gradientUnits="userSpaceOnUse" x1="-7671.8911" y1="1358.8658" x2="-7563.7041" y2="1380.9336" gradientTransform="matrix(-0.9997 0.0258 0.0258 0.9997 -5577.9648 75.396)">
					<stop  offset="0" style="stop-color:#E1473D"/>
					<stop  offset="1" style="stop-color:#E9605A"/>
				</linearGradient>
				<path style="fill:url(#SVGID_00000169559353320295454250000009211693441914903964_);" d="M2013.369,1235.969l94.367-25.557
					c0,0,22.32,6.46,19.03,39.652c-3.29,33.191-97.4,27.133-97.4,27.133L2013.369,1235.969z"/>

					<linearGradient id="SVGID_00000088099334819815593650000015899563874449598133_" gradientUnits="userSpaceOnUse" x1="1555.4537" y1="1001.3918" x2="631.3607" y2="1775.4688">
					<stop  offset="0" style="stop-color:#FE7062"/>
					<stop  offset="1" style="stop-color:#FF928E"/>
				</linearGradient>
				<path style="fill:url(#SVGID_00000088099334819815593650000015899563874449598133_);" d="M1174.593,870.78
					c-180.022,45.013-285.642,165.345-337.723,177.512c-52.08,12.167-260.705,23.297-294.724,54.903
					c-34.019,31.606-1.52,54.067-45.259,94.703c-48.392,136.547,101.436,177.402,101.436,177.402l1361.962-11.063
					c0,0,91.907,8.263,93.943-57.376c2.036-65.639-20.293-98.796-25.121-157.907c-4.827-59.111-4.935-62.088-18.098-92.741
					c-13.164-30.653-141.022-33.982-165.906-68.075c-24.883-34.093-54.507-88.467-160.081-107.005
					C1539.204,855.529,1279.014,844.67,1174.593,870.78z"/>

					<linearGradient id="SVGID_00000039835019602319667280000005256264132436681135_" gradientUnits="userSpaceOnUse" x1="-7491.3379" y1="944.4995" x2="-7509.9468" y2="1242.2452" gradientTransform="matrix(-0.9997 0.0258 0.0258 0.9997 -5577.9648 75.396)">
					<stop  offset="0" style="stop-color:#E1473D"/>
					<stop  offset="1" style="stop-color:#E9605A"/>
				</linearGradient>
				<path style="fill:url(#SVGID_00000039835019602319667280000005256264132436681135_);" d="M2061.527,1302.973
					c-2.342,75.447-130.259,62.078-130.817,62.029c0,0-101.698-77.849,38.205-74.862c42.042-1.085,84.665-23.355,84.665-23.355
					L2061.527,1302.973z"/>

					<linearGradient id="SVGID_00000023256003602767029200000006105720048408837552_" gradientUnits="userSpaceOnUse" x1="-6123.0005" y1="1030.0826" x2="-6141.6084" y2="1327.8093" gradientTransform="matrix(-0.9997 0.0258 0.0258 0.9997 -5577.9648 75.396)">
					<stop  offset="0" style="stop-color:#E1473D"/>
					<stop  offset="1" style="stop-color:#E9605A"/>
				</linearGradient>
				<path style="fill:url(#SVGID_00000023256003602767029200000006105720048408837552_);" d="M488.595,1231.622
					c0,0-1.337,19.243,34.715,38.898c44.685,24.363,199.846-2.422,199.846-2.422l17.706,99.841l-146.236,7.457
					C598.043,1376.328,402.59,1365.066,488.595,1231.622z"/>

					<linearGradient id="SVGID_00000129917782758506109270000017188232477090654624_" gradientUnits="userSpaceOnUse" x1="-7014.4355" y1="-39.3507" x2="-7302.8242" y2="626.161" gradientTransform="matrix(-0.9989 -0.0367 -0.0367 0.9993 -5562.1362 389.4707)">
					<stop  offset="0" style="stop-color:#E1473D"/>
					<stop  offset="1" style="stop-color:#E9605A"/>
				</linearGradient>
				<path style="fill:url(#SVGID_00000129917782758506109270000017188232477090654624_);" d="M1822.045,1086.954
					c0,0,4.388-34.26-31.601-76.264c-35.99-42.003-56.998-69.707-84.675-76.841c-27.676-7.133-230.246-35.16-243.55-13.602
					c-13.304,21.558-30.442,153.92-30.442,153.92L1822.045,1086.954z"/>

					<linearGradient id="SVGID_00000154405416847316465940000013579003436855371697_" gradientUnits="userSpaceOnUse" x1="-4314.7202" y1="-2003.7671" x2="-3942.6826" y2="-2303.7976" gradientTransform="matrix(-0.9993 -0.0367 -0.0367 0.9993 -5562.9409 389.5528)">
					<stop  offset="0" style="stop-color:#E1473D"/>
					<stop  offset="1" style="stop-color:#E9605A"/>
				</linearGradient>
				<path style="fill:url(#SVGID_00000154405416847316465940000013579003436855371697_);" d="M1702.095,930.227
					c-22.693-3.38-194.995-23.413-239.484-17.697l-11.512,44.288l371.12,130.118c0,0,1.77-28.197-16.769-55.996
					C1774.302,984.232,1725.821,933.212,1702.095,930.227z"/>

					<linearGradient id="SVGID_00000138571556268060544710000018020321104782438803_" gradientUnits="userSpaceOnUse" x1="-6647.1221" y1="118.75" x2="-6935.5854" y2="784.4346" gradientTransform="matrix(-0.9993 -0.0367 -0.0367 0.9993 -5562.9409 389.5528)">
					<stop  offset="0" style="stop-color:#E1473D"/>
					<stop  offset="1" style="stop-color:#E9605A"/>
				</linearGradient>
				<path style="fill:url(#SVGID_00000138571556268060544710000018020321104782438803_);" d="M1401.626,920.218
					c-5.611,25.579-26.283,150.285-26.283,150.285l-438.018-2.025c0,0,138.075-126.883,244.217-146.966
					C1287.683,901.43,1405.212,906.696,1401.626,920.218z"/>

					<linearGradient id="SVGID_00000007404215062820825410000005246182545091801734_" gradientUnits="userSpaceOnUse" x1="-4196.2959" y1="-1856.9227" x2="-3824.259" y2="-2156.9524" gradientTransform="matrix(-0.9993 -0.0367 -0.0367 0.9993 -5562.9409 389.5528)">
					<stop  offset="0" style="stop-color:#E1473D"/>
					<stop  offset="1" style="stop-color:#E9605A"/>
				</linearGradient>
				<path style="fill:url(#SVGID_00000007404215062820825410000005246182545091801734_);" d="M1196.518,912.097
					c86.46-12.001,118.159-9.723,208.788-1.787l-8.728,36.25c0,0-134.886-26.454-260.568-11.159
					C1136.01,935.402,1168.293,916.015,1196.518,912.097z"/>

					<linearGradient id="SVGID_00000054971924234421917560000002122752335737950648_" gradientUnits="userSpaceOnUse" x1="577.2057" y1="622.3361" x2="574.2054" y2="829.3569">
					<stop  offset="0" style="stop-color:#FF928E"/>
					<stop  offset="1" style="stop-color:#FEB3B1"/>
				</linearGradient>
				<path style="fill:url(#SVGID_00000054971924234421917560000002122752335737950648_);" d="M552.242,1096.669
					c0,0,70.967-22.752,88.278,33.352c16.503,53.483-143.633,67.877-143.633,67.877S508.694,1118.557,552.242,1096.669z"/>

					<linearGradient id="SVGID_00000060016292725212632180000013706116047000514990_" gradientUnits="userSpaceOnUse" x1="1695.1895" y1="278.9906" x2="1677.1876" y2="735.0357">
					<stop  offset="0" style="stop-color:#FF928E"/>
					<stop  offset="1" style="stop-color:#FEB3B1"/>
				</linearGradient>
				<path style="fill:url(#SVGID_00000060016292725212632180000013706116047000514990_);" d="M1846.286,1026.338
					c-0.395,0-0.793-0.056-1.191-0.177c-16.664-5.034-30.7-22.588-46.954-42.914c-23.735-29.682-50.64-63.328-94.512-71.699
					c-84.141-16.06-211.68-27.187-212.959-27.3c-2.27-0.197-3.948-2.193-3.751-4.459c0.193-2.27,2.113-3.968,4.459-3.751
					c1.284,0.109,129.249,11.276,213.796,27.413c46.861,8.945,75.996,45.376,99.405,74.648
					c15.393,19.251,28.688,35.875,42.898,40.173c2.181,0.656,3.413,2.958,2.752,5.135
					C1849.69,1025.192,1848.056,1026.338,1846.286,1026.338z"/>

					<linearGradient id="SVGID_00000022520661600440658360000001294066786784996003_" gradientUnits="userSpaceOnUse" x1="1956.0991" y1="289.29" x2="1938.0974" y2="745.3342">
					<stop  offset="0" style="stop-color:#FF928E"/>
					<stop  offset="1" style="stop-color:#FEB3B1"/>
				</linearGradient>
				<path style="fill:url(#SVGID_00000022520661600440658360000001294066786784996003_);" d="M1976.709,1073.051
					c-1.517,0-2.978-0.841-3.694-2.29c-6.914-13.936-37.517-20.254-67.111-26.362c-10.588-2.185-21.533-4.443-31.598-7.079
					c-2.205-0.579-3.521-2.829-2.946-5.03c0.579-2.205,2.829-3.497,5.03-2.946c9.859,2.583,20.696,4.821,31.179,6.982
					c32.982,6.809,64.133,13.239,72.825,30.773c1.014,2.04,0.181,4.511-1.859,5.521
					C1977.949,1072.914,1977.325,1073.051,1976.709,1073.051z"/>
				<g>

						<linearGradient id="SVGID_00000076568778886538729140000012089962903840393857_" gradientUnits="userSpaceOnUse" x1="-7189.6616" y1="818.8295" x2="-7048.6479" y2="-69.2595" gradientTransform="matrix(-0.9997 0.0258 0.0258 0.9997 -5577.9648 75.396)">
						<stop  offset="0" style="stop-color:#E1473D"/>
						<stop  offset="1" style="stop-color:#E9605A"/>
					</linearGradient>

						<circle style="fill:url(#SVGID_00000076568778886538729140000012089962903840393857_);" cx="1751.365" cy="1359.678" r="131.186"/>

						<linearGradient id="SVGID_00000088112204802458632680000016841327288565636228_" gradientUnits="userSpaceOnUse" x1="-6698.1191" y1="-383.6321" x2="-6809.1304" y2="-38.597" gradientTransform="matrix(-0.9997 0.0258 0.0258 0.9997 -5577.9648 75.396)">
						<stop  offset="0" style="stop-color:#FE7062"/>
						<stop  offset="1" style="stop-color:#FF928E"/>
					</linearGradient>
					<path style="fill:url(#SVGID_00000088112204802458632680000016841327288565636228_);" d="M1669.11,1360.35
						c1.193,46.209,39.622,82.701,85.831,81.508c46.21-1.194,82.702-39.621,81.508-85.831c-1.193-46.209-39.621-82.701-85.83-81.507
						C1704.409,1275.713,1667.916,1314.141,1669.11,1360.35z"/>
				</g>
				<g>

						<linearGradient id="SVGID_00000109009832633088016410000014830282959194180501_" gradientUnits="userSpaceOnUse" x1="-6282.1606" y1="962.9256" x2="-6141.147" y2="74.8355" gradientTransform="matrix(-0.9997 0.0258 0.0258 0.9997 -5577.9648 75.396)">
						<stop  offset="0" style="stop-color:#E1473D"/>
						<stop  offset="1" style="stop-color:#E9605A"/>
					</linearGradient>

						<circle style="fill:url(#SVGID_00000109009832633088016410000014830282959194180501_);" cx="815.314" cy="1351.589" r="131.186"/>

						<linearGradient id="SVGID_00000117664355067548779800000013129139661554220184_" gradientUnits="userSpaceOnUse" x1="-5859.7744" y1="-113.8991" x2="-5970.7856" y2="231.1359" gradientTransform="matrix(-0.9997 0.0258 0.0258 0.9997 -5577.9648 75.396)">
						<stop  offset="0" style="stop-color:#FE7062"/>
						<stop  offset="1" style="stop-color:#FF928E"/>
					</linearGradient>
					<path style="fill:url(#SVGID_00000117664355067548779800000013129139661554220184_);" d="M733.06,1352.261
						c1.193,46.209,39.622,82.702,85.831,81.508c46.209-1.194,82.702-39.621,81.508-85.831
						c-1.194-46.209-39.622-82.701-85.831-81.507C768.358,1267.624,731.865,1306.052,733.06,1352.261z"/>
				</g>
				<g>

						<linearGradient id="SVGID_00000082369327354964642750000005162188870946462094_" gradientUnits="userSpaceOnUse" x1="2115.1296" y1="817.229" x2="1626.0818" y2="1090.2552">
						<stop  offset="0" style="stop-color:#E1473D"/>
						<stop  offset="1" style="stop-color:#E9605A"/>
					</linearGradient>
					<path style="fill:url(#SVGID_00000082369327354964642750000005162188870946462094_);" d="M1374.892,1355.752
						c-0.136,0-0.272,0-0.407,0c-2.393,0-4.308-1.911-4.277-4.304c0.023-1.735,1.063-3.175,2.545-3.848
						c8.526-13.723,19.593-162.014,24.626-253.453c0.131-2.391,2.175-4.223,4.565-4.077c2.39,0.131,4.22,2.18,4.089,4.571
						c-0.036,0.643-3.604,65.043-8.716,128.679C1386.913,1352.842,1380.501,1355.752,1374.892,1355.752z"/>
				</g>

					<linearGradient id="SVGID_00000062884244396689995320000017417894073462957966_" gradientUnits="userSpaceOnUse" x1="545.3663" y1="1325.1201" x2="923.8779" y2="1178.109">
					<stop  offset="0" style="stop-color:#E1473D"/>
					<stop  offset="1" style="stop-color:#E9605A"/>
				</linearGradient>
				<path style="fill:url(#SVGID_00000062884244396689995320000017417894073462957966_);" d="M1110.223,1134.87
					c0,16.693-13.533,30.226-30.226,30.226h-89.04c-16.693,0-30.226-13.532-30.226-30.226v-0.212
					c0-16.693,13.532-30.226,30.226-30.226h89.04c16.693,0,30.226,13.532,30.226,30.226V1134.87z"/>
			</g>
		</g>
		<g>

				<linearGradient id="SVGID_00000121977217536942264700000010650328615187367040_" gradientUnits="userSpaceOnUse" x1="1185.5836" y1="377.4716" x2="1469.443" y2="377.4716">
				<stop  offset="0" style="stop-color:#E1473D"/>
				<stop  offset="1" style="stop-color:#E9605A"/>
			</linearGradient>
			<path style="fill:url(#SVGID_00000121977217536942264700000010650328615187367040_);" d="M1187.594,471.803
				c0,0-28.967-203.26,132.987-201.944c0,0,152.737-6.17,148.787,203.185l-32.918,12.057c0,0-2.587-170.75-108.937-171.895
				c-106.35-1.145-93.834,158.596-93.834,158.596H1187.594z"/>

				<linearGradient id="SVGID_00000012431000056302993520000007237222521862753951_" gradientUnits="userSpaceOnUse" x1="1192.0267" y1="379.847" x2="1471.3073" y2="379.847">
				<stop  offset="0" style="stop-color:#FE7062"/>
				<stop  offset="1" style="stop-color:#FF928E"/>
			</linearGradient>
			<path style="fill:url(#SVGID_00000012431000056302993520000007237222521862753951_);" d="M1194.005,474.062
				c0,0-28.5-201.001,130.841-199.706c0,0,150.273-6.58,146.387,199.398l-32.387,11.608c0,0-6.699-169.757-111.333-170.884
				c-104.634-1.127-93.834,159.584-93.834,159.584H1194.005z"/>

				<linearGradient id="SVGID_00000036252287403300157380000005984725433844777094_" gradientUnits="userSpaceOnUse" x1="872.8229" y1="1259.9487" x2="2159.468" y2="-554.0077">
				<stop  offset="0" style="stop-color:#FE7062"/>
				<stop  offset="1" style="stop-color:#FF928E"/>
			</linearGradient>
			<path style="fill:url(#SVGID_00000036252287403300157380000005984725433844777094_);" d="M1487.807,471.803h-313.016
				c-3.204,0-6.272,2.126-8.503,4.425c-2.231,2.301-3.434,5.822-3.336,9.024l7.639,248.662
				c0.671,21.833,18.564,39.037,40.408,39.037h248.225c22.327,0,40.976-17.386,40.976-39.714V485.304
				C1500.2,478.762,1494.349,471.803,1487.807,471.803z"/>
			<g>

					<linearGradient id="SVGID_00000074409940819453455190000005913211956171938985_" gradientUnits="userSpaceOnUse" x1="1443.0383" y1="268.4494" x2="1384.5411" y2="446.9406">
					<stop  offset="0" style="stop-color:#E1473D"/>
					<stop  offset="1" style="stop-color:#E9605A"/>
				</linearGradient>
				<path style="fill:url(#SVGID_00000074409940819453455190000005913211956171938985_);" d="M1446.156,751.287h-231.903
					c-11.956,0-21.571-8.705-21.89-20.658l-5.992-225.007c-0.044-1.625,0.556-2.917,1.692-4.089c1.129-1.157,2.693-1.564,4.3-1.564
					h269.696c3.305,0,7.81,2.514,7.81,5.816v224.919C1469.869,742.775,1458.23,751.287,1446.156,751.287z M1192.362,504.302
					c-0.198,0-0.386,0.456-0.522,0.6c-0.134,0.139-0.211,0.513-0.203,0.714l5.992,225.241c0.242,9.078,7.543,16.097,16.624,16.097
					h231.903c9.168,0,17.213-7.08,17.213-16.251V505.785c0-0.401-0.911-1.483-1.31-1.483H1192.362z"/>
			</g>
			<g>

					<linearGradient id="SVGID_00000124877910727269740470000016721328927776018093_" gradientUnits="userSpaceOnUse" x1="1351.7899" y1="562.7793" x2="1011.3059" y2="1066.7552">
					<stop  offset="0" style="stop-color:#E1473D"/>
					<stop  offset="1" style="stop-color:#E9605A"/>
				</linearGradient>
				<circle style="fill:url(#SVGID_00000124877910727269740470000016721328927776018093_);" cx="1332.481" cy="591.36" r="25.945"/>

					<linearGradient id="SVGID_00000154394084687445628540000006315285861106645382_" gradientUnits="userSpaceOnUse" x1="1385.1411" y1="585.3112" x2="1044.6577" y2="1089.2861">
					<stop  offset="0" style="stop-color:#E1473D"/>
					<stop  offset="1" style="stop-color:#E9605A"/>
				</linearGradient>
				<path style="fill:url(#SVGID_00000154394084687445628540000006315285861106645382_);" d="M1320.377,603.962v114.067
					c0,4.548,5.35,7.26,9.899,7.26h6.783c4.548,0,9.316-2.712,9.316-7.26V603.962H1320.377z"/>
			</g>
		</g>
		<g>
			<g>
				<g>

						<linearGradient id="SVGID_00000097480724959846826560000016747582018226537364_" gradientUnits="userSpaceOnUse" x1="5585.5942" y1="2517.0078" x2="5560.2607" y2="2625.3408" gradientTransform="matrix(1 0 0 1 -5100.9595 0)">
						<stop  offset="0" style="stop-color:#4042E2"/>
						<stop  offset="1" style="stop-color:#4F52FF"/>
					</linearGradient>
					<path style="fill:url(#SVGID_00000097480724959846826560000016747582018226537364_);" d="M762.875,1472.43
						c-12.575,1.087-34.398,2.852-51.602,3.609c-10.342,0.455-16.296-0.557-19.725-1.931c0.006,0.387,0.016,0.752,0.032,1.092
						c0.082,1.81,1.552,3.259,3.381,3.361c32.509,1.814,58.363,0.628,67.567,0.068c1.903-0.116,3.037-2.184,2.064-3.807
						C764.105,1474.011,763.515,1473.216,762.875,1472.43z"/>

						<linearGradient id="SVGID_00000159459286058831772250000017561987851121210293_" gradientUnits="userSpaceOnUse" x1="5792.5034" y1="1461.5945" x2="5863.835" y2="1461.5945" gradientTransform="matrix(1 0 0 1 -5100.9595 0)">
						<stop  offset="0" style="stop-color:#09005D"/>
						<stop  offset="1" style="stop-color:#1A0F91"/>
					</linearGradient>
					<path style="fill:url(#SVGID_00000159459286058831772250000017561987851121210293_);" d="M711.273,1476.039
						c17.204-0.757,39.028-2.523,51.602-3.609c-12.363-15.168-51.602-25.391-51.602-25.391h-11.082
						c-7.622,10.988-8.726,21.448-8.643,27.07C694.977,1475.482,700.931,1476.495,711.273,1476.039z"/>

						<linearGradient id="SVGID_00000183216826942993924220000002656244016633008819_" gradientUnits="userSpaceOnUse" x1="5799.2837" y1="1441.5105" x2="5819.9595" y2="1441.5105" gradientTransform="matrix(1 0 0 1 -5100.9595 0)">
						<stop  offset="0" style="stop-color:#FF928E"/>
						<stop  offset="1" style="stop-color:#FEB3B1"/>
					</linearGradient>
					<path style="fill:url(#SVGID_00000183216826942993924220000002656244016633008819_);" d="M698.324,1428.947l1.037,20.523
						c0.113,2.222,1.776,4.09,4.002,4.408c2.214,0.317,5.18,0.357,8.325-0.69c1.935-0.644,3.371-2.274,3.728-4.263l3.584-19.978
						H698.324z"/>
				</g>
				<g>
					<g>

							<linearGradient id="SVGID_00000031889336164892552840000015744891622131588019_" gradientUnits="userSpaceOnUse" x1="5424.7817" y1="2479.4102" x2="5399.4482" y2="2587.7439" gradientTransform="matrix(1 0 0 1 -5100.9595 0)">
							<stop  offset="0" style="stop-color:#4042E2"/>
							<stop  offset="1" style="stop-color:#4F52FF"/>
						</linearGradient>
						<path style="fill:url(#SVGID_00000031889336164892552840000015744891622131588019_);" d="M554.378,1475.886
							c-5.453-0.761-7.92-3.594-8.955-6.622c-0.007,0.027-0.014,0.054-0.021,0.081c-0.802,3.195,0.959,6.762,4.776,8.081
							c6.115,2.111,10.735,2.397,13.223,2.069c4.061-0.535,7.85-1.862,9.914-4.573l0.031-0.04
							C569.239,1476.915,563.472,1477.154,554.378,1475.886z"/>

							<linearGradient id="SVGID_00000181790909434293496530000015776007161918903464_" gradientUnits="userSpaceOnUse" x1="5646.3833" y1="1452.7393" x2="5687.6694" y2="1452.7393" gradientTransform="matrix(1 0 0 1 -5100.9595 0)">
							<stop  offset="0" style="stop-color:#09005D"/>
							<stop  offset="1" style="stop-color:#1A0F91"/>
						</linearGradient>
						<path style="fill:url(#SVGID_00000181790909434293496530000015776007161918903464_);" d="M580.088,1428.815h-9.14
							c-13.921-0.285-22.663,29.078-25.525,40.449c1.034,3.028,3.502,5.861,8.955,6.622c9.094,1.268,14.86,1.029,18.969-1.004
							c7.521-9.897,11.25-24.393,13.042-32.852C588.427,1432.408,580.088,1428.815,580.088,1428.815z"/>
					</g>

						<linearGradient id="SVGID_00000123401175861395117580000003176076413130003903_" gradientUnits="userSpaceOnUse" x1="5667.8433" y1="1424.2748" x2="5692.5522" y2="1424.2748" gradientTransform="matrix(1 0 0 1 -5100.9595 0)">
						<stop  offset="0" style="stop-color:#FF928E"/>
						<stop  offset="1" style="stop-color:#FEB3B1"/>
					</linearGradient>
					<path style="fill:url(#SVGID_00000123401175861395117580000003176076413130003903_);" d="M572.123,1409.766l-5.075,20.185
						c-0.622,2.475,0.562,5.035,2.851,6.209c2.839,1.457,6.836,2.988,10.51,2.545c1.727-0.208,3.163-1.425,3.733-3.052l7.451-21.237
						L572.123,1409.766z"/>
				</g>

					<linearGradient id="SVGID_00000090996194542287574780000012464299090303199118_" gradientUnits="userSpaceOnUse" x1="645.9395" y1="1312.1609" x2="271.9399" y2="1525.1604">
					<stop  offset="0" style="stop-color:#4042E2"/>
					<stop  offset="1" style="stop-color:#4F52FF"/>
				</linearGradient>
				<path style="fill:url(#SVGID_00000090996194542287574780000012464299090303199118_);" d="M566.07,1415.601
					c6.314,5.601,26.851,6.34,26.851,6.34c73.98-177.558,104.242-202.783,104.242-202.783c-10.682,67.019-1.722,215.39-1.722,215.39
					c12.208,5.387,27.947,0,27.947,0c0.991-109.719,17.856-205.404,37.778-280.84c-50.001-1.124-76.591-18.234-85.274-25.101
					C634.213,1195.802,566.07,1415.601,566.07,1415.601z"/>

					<linearGradient id="SVGID_00000115485701274115983080000000208986135520232381_" gradientUnits="userSpaceOnUse" x1="5978.5791" y1="908.4713" x2="5412.1323" y2="1401.1364" gradientTransform="matrix(1 0 0 1 -5100.9595 0)">
					<stop  offset="0" style="stop-color:#4042E2"/>
					<stop  offset="1" style="stop-color:#4F52FF"/>
				</linearGradient>
				<path style="fill:url(#SVGID_00000115485701274115983080000000208986135520232381_);" d="M688.591,924.413
					c-9.464,47.208-6.072,131.7-3.844,170.24c0.626,10.832-6.936,25.849-13.048,36.094c-0.958,1.607-0.367,3.664,1.298,4.52
					c10.233,5.259,44.9,21.559,85.077,23.586c2.679,0.135,5.071-1.689,5.765-4.28c29.803-111.281,64.419-182.39,64.419-182.39
					C790.041,911.153,688.591,924.413,688.591,924.413z"/>

					<linearGradient id="SVGID_00000176747017504267807270000003254030941082499733_" gradientUnits="userSpaceOnUse" x1="910.1473" y1="1045.3339" x2="808.1473" y2="1126.3337">
					<stop  offset="0" style="stop-color:#4042E2"/>
					<stop  offset="1" style="stop-color:#4F52FF"/>
				</linearGradient>
				<path style="fill:url(#SVGID_00000176747017504267807270000003254030941082499733_);" d="M702.212,1214.954
					c-0.42,0-0.845-0.114-1.231-0.347c-1.116-0.682-1.47-2.138-0.791-3.253c0.398-0.655,9.968-16.122,29.333-25.465
					c1.176-0.565,2.593-0.077,3.164,1.104c0.568,1.178,0.074,2.596-1.105,3.163c-18.053,8.711-27.254,23.515-27.345,23.663
					C703.79,1214.549,703.01,1214.954,702.212,1214.954z"/>
				<g>

						<linearGradient id="SVGID_00000025421207807034121180000010273972958786490020_" gradientUnits="userSpaceOnUse" x1="5781.2993" y1="1064.3936" x2="5693.3384" y2="1142.2847" gradientTransform="matrix(1 0 0 1 -5100.9595 0)">
						<stop  offset="0" style="stop-color:#FF928E"/>
						<stop  offset="1" style="stop-color:#FEB3B1"/>
					</linearGradient>
					<path style="fill:url(#SVGID_00000025421207807034121180000010273972958786490020_);" d="M629.227,1059.898
						c3.041,21.992,12.022,45.979,29.99,71.459l16.792-13.372c0,0-17.846-24.186-13.364-60.492
						C651.561,1055.331,638.471,1057.56,629.227,1059.898z"/>

						<linearGradient id="SVGID_00000098918557234696477720000014443677318121335218_" gradientUnits="userSpaceOnUse" x1="5931.3564" y1="856.2622" x2="5367.4629" y2="1346.7065" gradientTransform="matrix(1 0 0 1 -5100.9595 0)">
						<stop  offset="0" style="stop-color:#4042E2"/>
						<stop  offset="1" style="stop-color:#4F52FF"/>
					</linearGradient>
					<path style="fill:url(#SVGID_00000098918557234696477720000014443677318121335218_);" d="M699.162,982.661l-10.571-58.248
						c0,0-70.629,53.988-59.364,135.485c9.244-2.338,22.334-4.567,33.418-2.405C665.874,1031.34,675.519,1002.949,699.162,982.661z"
						/>
				</g>
				<g>

						<linearGradient id="SVGID_00000016780920505112666140000016560270657966458277_" gradientUnits="userSpaceOnUse" x1="6019.999" y1="958.1807" x2="5456.1074" y2="1448.6234" gradientTransform="matrix(1 0 0 1 -5100.9595 0)">
						<stop  offset="0" style="stop-color:#53D8FF"/>
						<stop  offset="1" style="stop-color:#3840F7"/>
					</linearGradient>
					<path style="fill:url(#SVGID_00000016780920505112666140000016560270657966458277_);" d="M828.258,972.183l-27.263,58.714
						c4.408,35.447,23.45,50.774,43.982,56.653c1.28-16.155,5.365-29.207,9.156-38.235
						C827.899,1022.229,828.258,972.183,828.258,972.183z"/>

						<linearGradient id="SVGID_00000127007467577949029520000014016025920654299816_" gradientUnits="userSpaceOnUse" x1="5945.938" y1="1071.4762" x2="6015.21" y2="1071.4762" gradientTransform="matrix(1 0 0 1 -5100.9595 0)">
						<stop  offset="0" style="stop-color:#FF928E"/>
						<stop  offset="1" style="stop-color:#FEB3B1"/>
					</linearGradient>
					<path style="fill:url(#SVGID_00000127007467577949029520000014016025920654299816_);" d="M854.134,1049.315
						c-3.791,9.028-7.876,22.08-9.156,38.235c54.779,21.254,69.272-19.965,69.272-19.965l-10.124-1.786
						C881.264,1068.207,865.294,1060.837,854.134,1049.315z"/>
				</g>

					<linearGradient id="SVGID_00000177467773996581682320000016974831821837081996_" gradientUnits="userSpaceOnUse" x1="5878.604" y1="886.3563" x2="5877.8472" y2="1015.7162" gradientTransform="matrix(1 0 0 1 -5100.9595 0)">
					<stop  offset="0" style="stop-color:#FF928E"/>
					<stop  offset="1" style="stop-color:#FEB3B1"/>
				</linearGradient>
				<path style="fill:url(#SVGID_00000177467773996581682320000016974831821837081996_);" d="M803.141,899.696l-13.162,48.383
					c-1.478,5.435-7.357,8.354-12.588,6.263c-5.644-2.256-12.805-5.336-18.97-8.665c-6.58-3.553-8.639-12.017-4.473-18.228
					l27.364-40.801L803.141,899.696z"/>
			</g>
			<g>

					<linearGradient id="SVGID_00000023253797855966586280000011709085036330234805_" gradientUnits="userSpaceOnUse" x1="6497.6323" y1="3685.8027" x2="6428.3535" y2="3777.4529" gradientTransform="matrix(0.8756 -0.4829 0.4829 0.8756 -6663.2627 771.2718)">
					<stop  offset="0" style="stop-color:#FF928E"/>
					<stop  offset="1" style="stop-color:#FEB3B1"/>
				</linearGradient>
				<path style="fill:url(#SVGID_00000023253797855966586280000011709085036330234805_);" d="M817.648,853.938
					c0.441,0.799,10.027,60.419,10.027,60.419l-34.158,4.75l-17.48-55.157C776.037,863.95,810.264,840.549,817.648,853.938z"/>

					<linearGradient id="SVGID_00000155826589247127939100000007328842660987682706_" gradientUnits="userSpaceOnUse" x1="6444.7227" y1="3707.9109" x2="6527.4771" y2="3707.9109" gradientTransform="matrix(0.8756 -0.4829 0.4829 0.8756 -6663.2627 771.2718)">
					<stop  offset="0" style="stop-color:#09005D"/>
					<stop  offset="1" style="stop-color:#1A0F91"/>
				</linearGradient>
				<path style="fill:url(#SVGID_00000155826589247127939100000007328842660987682706_);" d="M787.659,873.325l6.928,29.756
					c0.089,0.382,0.225,0.74,0.414,1.084c1.155,2.102,5.66,9.04,12.478,3.998c6.187-4.575,11.901-8.658,16.794-8.971
					c2.196-0.141,4.138,1.406,4.486,3.58c0.869,5.417,2.604,17.66,2.487,28.527c-0.024,2.205-1.748,4.009-3.947,4.179
					c-6.625,0.511-20.628,1.199-32.023-0.887c-1.544-0.282-2.81-1.368-3.302-2.859c-2.396-7.268-9.763-29.33-12.767-35.159
					c-2.819-5.472-11.134-6.251-14.649-6.329c-1.152-0.026-2.233-0.518-3.011-1.369c-2.748-3.007-7.786-10.465,1.271-17.717
					c1.896-1.518,2.156-4.276,0.581-6.125c-3.135-3.68-6.231-9.934,0.406-16.526c6.745-6.701,14.441-4.66,19.041-2.378
					c1.86,0.923,4.066,0.338,5.317-1.319c0.712-0.944,1.844-1.591,3.641-1.234c2.422,0.482,4.704-1.33,4.933-3.789
					c0.439-4.724,2.788-10.492,11.25-12.13c15.013-2.905,22.506,12.12,22.24,22.682c-0.266,10.561-16.723,12.785-26.059,11.033
					c-7.1-1.332-13.203,5.173-15.721,8.368C787.65,870.752,787.367,872.071,787.659,873.325z"/>

					<linearGradient id="SVGID_00000083795873106447210910000003521846209154378685_" gradientUnits="userSpaceOnUse" x1="6396.166" y1="3758.3828" x2="6451.7334" y2="3701.3726" gradientTransform="matrix(0.8756 -0.4829 0.4829 0.8756 -6663.2627 771.2718)">
					<stop  offset="0" style="stop-color:#FF928E"/>
					<stop  offset="1" style="stop-color:#FEB3B1"/>
				</linearGradient>
				<path style="fill:url(#SVGID_00000083795873106447210910000003521846209154378685_);" d="M781.838,907.382
					c0,0-0.326-18.422-7.783-20.151c-7.457-1.729-15.5,3.663-9.121,14.691C772.869,915.64,781.838,907.382,781.838,907.382z"/>
			</g>
			<g>
				<g>

						<linearGradient id="SVGID_00000104667256875052857890000000409207379974427551_" gradientUnits="userSpaceOnUse" x1="-1842.0443" y1="2356.5305" x2="-1928.4438" y2="2433.0391" gradientTransform="matrix(0.5375 0.8433 -0.8433 0.5375 3561.5723 1482.0526)">
						<stop  offset="0" style="stop-color:#09005D"/>
						<stop  offset="1" style="stop-color:#1A0F91"/>
					</linearGradient>
					<path style="fill:url(#SVGID_00000104667256875052857890000000409207379974427551_);" d="M535.54,1231.541l28.311-29.881
						c2.867-3.028,3.307-7.6,1.066-11.117l-30.528-47.9c-2.22-3.482-6.514-5.027-10.444-3.757l-37.359,12.085l-5.165-15.975
						l37.359-12.084c11.201-3.619,23.441,0.784,29.767,10.709l30.528,47.9c6.39,10.026,5.142,23.054-3.033,31.687l-28.311,29.881
						L535.54,1231.541z"/>
				</g>
				<g>
					<path style="fill:#91B3FA;" d="M345.979,1447.871l196.261-167.598c16.219-13.85,19.992-37.333,8.866-55.53
						c-15.433-25.241-37.061-60.553-52.952-86.249c-11.73-18.965-35.972-25.891-55.98-16.045L209.524,1236.94
						c-11.076,5.451-19.305,15.368-22.616,27.259c-3.313,11.892-1.399,24.634,5.265,35.026l89.171,139.078
						c6.76,10.545,17.752,17.649,30.143,19.483C323.876,1459.62,336.457,1456.003,345.979,1447.871z"/>

						<linearGradient id="SVGID_00000132083510028369514730000006109772403194036926_" gradientUnits="userSpaceOnUse" x1="-1589.5454" y1="2325.7268" x2="-2388.6987" y2="3033.3948" gradientTransform="matrix(0.5375 0.8433 -0.8433 0.5375 3561.5723 1482.0526)">
						<stop  offset="0" style="stop-color:#09005D"/>
						<stop  offset="1" style="stop-color:#1A0F91"/>
					</linearGradient>
					<path style="fill:url(#SVGID_00000132083510028369514730000006109772403194036926_);" d="M344.48,1438.89l186.131-158.305
						c15.382-13.082,19.086-35.115,8.708-52.1c-14.397-23.56-34.573-56.521-49.398-80.505
						c-10.943-17.701-33.762-24.041-52.691-14.688l-220.116,108.758c-10.479,5.178-18.302,14.524-21.499,25.69
						c-3.199,11.167-1.473,23.097,4.747,32.795l83.223,129.791c6.309,9.841,16.631,16.431,28.305,18.072
						C323.563,1450.04,335.449,1446.571,344.48,1438.89z"/>
					<g>
						<path style="fill:#7D97F4;" d="M401.69,1303.808l-35.213-55.252c-8.732-13.7-27.994-19.419-41.695-10.688l-13.993,8.918
							c-4.725,3.012-3.692,10.12-0.68,14.846l55.925,87.749c3.012,4.727,7.703,6.6,12.428,3.588l13.993-8.918
							C406.156,1335.319,410.422,1317.508,401.69,1303.808z"/>
						<path style="fill:#7D97F4;" d="M348.336,1360.661l-55.925-87.749c-3.012-4.726-10.927-7.449-15.652-4.437l-10.611,6.762
							c-13.701,8.732-18.126,29.548-9.394,43.248l35.213,55.252c8.732,13.7,28.153,16.415,41.854,7.683l10.611-6.763
							C349.158,1371.646,351.348,1365.387,348.336,1360.661z"/>
					</g>
					<path style="fill:#7D97F4;" d="M465.668,1267.528c-8.797,5.606-20.472,3.02-26.078-5.776l-22.558-35.394
						c-5.606-8.796-3.02-20.472,5.776-26.078l0,0c8.796-5.606,20.472-3.02,26.078,5.776l22.558,35.394
						C477.05,1250.246,474.464,1261.922,465.668,1267.528L465.668,1267.528z"/>
				</g>
			</g>
			<g>
				<g>
					<g>
						<path style="fill:#91B3FA;" d="M1138.207,953.804l-39.264-10.501c-2.47-0.656-5.113-0.661-7.59,0.08l-242.958,72.641
							l11.589,83.714l46.914-14.027c1.961-0.586,3.412-2.45,4.109-4.32l9.12-24.83c0.297-0.796,0.946-1.512,1.787-1.74
							c0.841-0.228,1.72-0.095,2.376,0.443l19.326,16.125c1.631,1.336,3.983,2.153,6.059,1.532l31.394-9.387
							c2.07-0.619,3.577-2.611,4.211-4.616l6.872-22.14c0.286-0.906,1.031-1.699,1.987-1.899c0.956-0.199,1.921,0.073,2.535,0.79
							l12.697,15.081c1.614,1.885,4.369,3.016,6.825,2.281l23.061-6.895c2.639-0.789,4.373-3.524,4.488-6.182l0.818-20.601
							c0.044-1.006,0.663-2.01,1.63-2.402c0.967-0.392,2.054-0.254,2.8,0.432l17.961,16.817c1.641,1.51,4.126,2.421,6.326,1.764
							l24.229-7.244c4.603-1.376,8.399-4.81,10.826-8.856l33.743-56.586c1.027-1.713,1.162-3.874,0.419-5.684
							C1141.752,955.784,1140.15,954.321,1138.207,953.804z"/>
						<path style="fill:#7D97F4;" d="M1108.373,971.504c0.98,3.277-1.053,6.542-4.46,7.56l-263.2,78.694
							c-3.407,1.018-6.898-0.595-7.878-3.872l0,0c-0.98-3.277,1.053-6.542,4.46-7.561l263.2-78.694
							C1103.902,966.614,1107.393,968.227,1108.373,971.504L1108.373,971.504z"/>
					</g>

						<linearGradient id="SVGID_00000100362715067819269790000010343393787374374324_" gradientUnits="userSpaceOnUse" x1="1446.4554" y1="1308.944" x2="1684.1018" y2="1308.944" gradientTransform="matrix(0.9581 -0.2865 0.2865 0.9581 -1120.7703 282.9811)">
						<stop  offset="0" style="stop-color:#09005D"/>
						<stop  offset="1" style="stop-color:#1A0F91"/>
					</linearGradient>
					<path style="fill:url(#SVGID_00000100362715067819269790000010343393787374374324_);" d="M825.722,977.282l-124.465,19.662
						c-10.184,1.61-18.915,8.222-23.204,17.597l-37.34,81.594c-6.588,14.396-2.043,31.445,10.844,40.643l75.883,54.163
						c10.002,7.139,23.137,8.137,34.103,2.592l112.738-56.976c8.987-4.545,13.548-14.909,10.663-24.558l-35.928-120.166
						C846.032,981.854,836.009,975.656,825.722,977.282z M726.977,1158.125c-0.909,0.667-2.144,0.677-3.063,0.024l-52.132-37.075
						c-6.305-4.482-8.731-12.694-5.874-19.884l21.758-54.774c0.406-1.024,1.411-1.682,2.513-1.648
						c1.101,0.035,2.062,0.757,2.403,1.804l35.334,108.635C728.264,1156.282,727.885,1157.456,726.977,1158.125z"/>
				</g>
				<g>
					<path style="fill:#91B3FA;" d="M687.735,1023.452c-0.275,0-0.555-0.065-0.814-0.201c-0.853-0.451-1.181-1.509-0.729-2.362
						l2.215-4.191c2.191-4.15,6.268-7.068,10.904-7.808l127.98-20.364c0.976-0.147,1.848,0.502,2,1.454
						c0.152,0.952-0.498,1.846-1.45,2l-127.98,20.364c-3.556,0.563-6.682,2.802-8.365,5.986l-2.215,4.191
						C688.968,1023.114,688.362,1023.452,687.735,1023.452z"/>
				</g>
			</g>

				<linearGradient id="SVGID_00000087388875809023038210000013245744686064856716_" gradientUnits="userSpaceOnUse" x1="6007.8506" y1="1063.3407" x2="6032.6572" y2="1063.3407" gradientTransform="matrix(1 0 0 1 -5100.9595 0)">
				<stop  offset="0" style="stop-color:#FF928E"/>
				<stop  offset="1" style="stop-color:#FEB3B1"/>
			</linearGradient>
			<path style="fill:url(#SVGID_00000087388875809023038210000013245744686064856716_);" d="M910.19,1075.126
				c2.757,2.154,12.203-2.343,17.984-5.452c2.817-1.516,4.181-4.809,3.214-7.859c-1.391-4.387-3.709-10.049-6.565-10.763
				C920.085,1049.868,898.827,1066.25,910.19,1075.126z"/>
			<g>
				<path style="fill:#FFFFFF;" d="M547.081,1131.343c0.448-0.899,0.868-1.797,1.38-2.703c7.476-13.221,20.557-25.057,36.834-33.319
					c20.762-10.539,42.996-13.67,59.315-7.704l8.859-19.357c-21.927-7.996-51.504-4.913-77.664,8.366
					c-19.917,10.112-36.11,24.917-45.595,41.694c-0.621,1.099-1.149,2.2-1.704,3.3
					C540.063,1121.903,545.49,1128.823,547.081,1131.343z"/>

					<linearGradient id="SVGID_00000017480953627322091620000004308005319746462857_" gradientUnits="userSpaceOnUse" x1="521.4041" y1="1137.4852" x2="686.644" y2="1137.4852">
					<stop  offset="0" style="stop-color:#DAE3FE"/>
					<stop  offset="1" style="stop-color:#E9EFFD"/>
				</linearGradient>
				<path style="fill:url(#SVGID_00000017480953627322091620000004308005319746462857_);" d="M675.582,1076.836l-9.074,23.499
					c5.225,10.29-2.063,25.036-11.8,38.701c-7.75,10.876-19.54,20.688-33.198,27.623c-16.277,8.259-33.546,11.852-48.635,10.071
					c-13.513-1.583-23.412-7.297-27.876-16.091c-0.594-1.171-1.071-2.392-1.464-3.648c-0.009-0.014-0.016-0.021-0.025-0.034
					c-4.479-7.029-7.289-13.265-11.552-16.855c-2.89-2.433-7.62-1.678-9.574-0.922c-2.097,10.98-0.848,21.565,3.918,30.953
					c7.745,15.255,23.418,24.995,44.132,27.422c3.3,0.389,6.667,0.58,10.088,0.58c16.419,0,33.996-4.413,50.48-12.781
					c16.861-8.563,30.964-20.371,40.782-34.148C686.204,1130.968,694.646,1096.985,675.582,1076.836z"/>
			</g>

				<linearGradient id="SVGID_00000075163511752533217270000009681849880705739947_" gradientUnits="userSpaceOnUse" x1="4455.1748" y1="1382.9888" x2="4367.2192" y2="1460.8754" gradientTransform="matrix(0.8752 0.4838 -0.4838 0.8752 -2484.5913 -2230.8835)">
				<stop  offset="0" style="stop-color:#FF928E"/>
				<stop  offset="1" style="stop-color:#FEB3B1"/>
			</linearGradient>
			<path style="fill:url(#SVGID_00000075163511752533217270000009681849880705739947_);" d="M689.943,1128.764l29.16,13.151
				l5.926,17.82c0,0-5.044,2.371-12.725-4.841c-7.682-7.212-19.617-14.538-19.617-14.538s-15.414-1.258-9.81-11.75L689.943,1128.764
				z"/>
			<g>
				<path style="fill:#FFFFFF;" d="M821.912,855.125c-0.066,0-0.135-0.007-0.203-0.024c-0.469-0.109-0.759-0.58-0.648-1.051
					c0.031-0.13,2.969-13.06-4.624-18.756c-0.386-0.29-0.464-0.84-0.176-1.225c0.29-0.386,0.843-0.457,1.223-0.174
					c8.513,6.385,5.413,19.982,5.276,20.558C822.667,854.855,822.307,855.125,821.912,855.125z"/>
			</g>
		</g>
		<g>

				<linearGradient id="SVGID_00000072969272592899782060000017676647806030981266_" gradientUnits="userSpaceOnUse" x1="2036.61" y1="711.9221" x2="1936.1149" y2="831.916">
				<stop  offset="0" style="stop-color:#FF928E"/>
				<stop  offset="1" style="stop-color:#FEB3B1"/>
			</linearGradient>
			<path style="fill:url(#SVGID_00000072969272592899782060000017676647806030981266_);" d="M1849.386,824.474
				c0,0-68.879,88.188,9.707,177.883l29.545-2.753c0,0-54.086-86.844-33.278-158.663c0.918-3.169,3.892-5.295,7.182-5.055
				l30.162,2.202c4.012,0.293,7.987-0.945,11.123-3.465l18.264-14.677L1849.386,824.474z"/>
			<g>

					<linearGradient id="SVGID_00000052102926043977616260000000512300642640723843_" gradientUnits="userSpaceOnUse" x1="1653.2876" y1="835.3134" x2="1893.2754" y2="446.8324">
					<stop  offset="0" style="stop-color:#4042E2"/>
					<stop  offset="1" style="stop-color:#4F52FF"/>
				</linearGradient>
				<path style="fill:url(#SVGID_00000052102926043977616260000000512300642640723843_);" d="M1605.948,480.269
					c3.022-2.829,7.106-4.236,11.229-3.865c44.104,3.966,113.378-41.301,180.168-72.304c4.846-2.249,10.541-1.661,14.822,1.537
					c59.809,44.701,158.951,53.958,193.367,55.851c7.119,0.392,12.895,5.914,13.63,13.007
					c31.299,302.292-165.521,411.832-206.342,431.168c-4.462,2.114-9.716,1.807-13.907-0.803
					c-203.449-126.725-194.746-291.528-197.56-413.639C1601.26,487.083,1602.927,483.099,1605.948,480.269z"/>
				<g>
					<path style="fill:#BDD0FB;" d="M1811.067,886.837c-43.116-30.486-79.594-68.515-108.422-113.031
						c-23.056-35.602-41.295-75.408-54.211-118.311c-21.99-73.043-20.887-130.569-20.873-131.141
						c0.01-0.451,0.222-0.873,0.578-1.152c0.355-0.277,0.816-0.384,1.255-0.284c0.296,0.064,30.008,6.393,70.74-8.27
						c40.751-14.671,92.06-75.508,92.572-76.12c0.297-0.354,0.77-0.565,1.202-0.539c0.462,0.014,0.892,0.239,1.167,0.611
						c55.447,75.017,192.065,66.079,193.436,65.976c0.767-0.044,1.443,0.467,1.588,1.215c10.3,52.645,7.378,105.451-8.686,156.951
						c-12.842,41.171-34.064,81.596-63.076,120.152c-49.368,65.61-104.999,103.587-105.555,103.963
						c-0.255,0.172-0.55,0.258-0.844,0.258C1811.632,887.114,1811.327,887.022,1811.067,886.837z M1912.212,502.988
						c-67.708-11.511-101.695-39.24-118.421-61.08c-8.237,9.608-54.171,61.73-92.635,75.577
						c-36.256,13.052-63.434,9.915-70.594,8.719c0.008,10.205,1.07,63.077,20.789,128.524
						c12.839,42.614,30.96,82.145,53.861,117.494c28.421,43.872,64.327,81.395,106.735,111.543
						c7.193-5.047,58.311-41.967,104.037-102.762c28.787-38.272,49.838-78.382,62.566-119.214
						c15.767-50.576,18.739-102.427,8.84-154.128C1980.608,508.023,1948.966,509.236,1912.212,502.988z"/>
				</g>
			</g>

				<linearGradient id="SVGID_00000059309787305868511760000005557029937179583418_" gradientUnits="userSpaceOnUse" x1="2059.0884" y1="1265.9279" x2="1970.5929" y2="1337.9241">
				<stop  offset="0" style="stop-color:#FF928E"/>
				<stop  offset="1" style="stop-color:#FEB3B1"/>
			</linearGradient>
			<path style="fill:url(#SVGID_00000059309787305868511760000005557029937179583418_);" d="M1887.11,1256.24
				c0,0,55.807,121.632,85.087,172.012c0,0,5.815,31.7,0,41.668l-4.956,2.203l23.13-0.689c0,0,2.055-42.64,0.45-45.022
				c-1.605-2.381-4.814-2.225-4.814-2.225s-9.918-78.575-38.64-95.344l-27.836-95.875L1887.11,1256.24z"/>

				<linearGradient id="SVGID_00000058586071665400766050000010565525690808078524_" gradientUnits="userSpaceOnUse" x1="2785.5034" y1="1119.2465" x2="2733.8391" y2="1455.0625" gradientTransform="matrix(1 0 0 1 -754.9978 0)">
				<stop  offset="0" style="stop-color:#4042E2"/>
				<stop  offset="1" style="stop-color:#4F52FF"/>
			</linearGradient>
			<path style="fill:url(#SVGID_00000058586071665400766050000010565525690808078524_);" d="M1957.363,1478.095
				c-0.034,0.558,18.061,0.303,27.891,0.123c3.629-0.067,6.724-2.617,7.497-6.164l7.423-39c0.705-3.706-1.648-7.307-5.326-8.147
				l-4.143-0.947c0,0-5.911,8.109-4.051,15.743c1.861,7.634,3.517,27.41-1.185,29.714c-4.702,2.304-18.228,2.707-18.228,2.707
				S1957.672,1473.073,1957.363,1478.095z"/>

				<linearGradient id="SVGID_00000149383190821030281470000006414586719821352088_" gradientUnits="userSpaceOnUse" x1="2676.188" y1="1102.4287" x2="2624.5234" y2="1438.2461" gradientTransform="matrix(1 0 0 1 -754.9978 0)">
				<stop  offset="0" style="stop-color:#4042E2"/>
				<stop  offset="1" style="stop-color:#4F52FF"/>
			</linearGradient>
			<path style="fill:url(#SVGID_00000149383190821030281470000006414586719821352088_);" d="M1834.215,1478.803
				c-1.83,1.043-1.076,3.837,1.031,3.816c16.45-0.165,53.311-0.686,56.586-2.048c4.229-1.759-1.541-16.954-7.614-22.098
				l-33.529,10.943L1834.215,1478.803z"/>

				<linearGradient id="SVGID_00000066473556868361233580000017986524200843911853_" gradientUnits="userSpaceOnUse" x1="2578.8052" y1="1360.3033" x2="2639.2168" y2="1360.3033" gradientTransform="matrix(1 0 0 1 -754.9978 0)">
				<stop  offset="0" style="stop-color:#FF928E"/>
				<stop  offset="1" style="stop-color:#FEB3B1"/>
			</linearGradient>
			<path style="fill:url(#SVGID_00000066473556868361233580000017986524200843911853_);" d="M1823.807,1248.483
				c0,0,36.064,174.463,46.266,208.495l-24.134,15.145c0,0,12.094-2.057,21.063-2.707c8.968-0.65,17.218-10.943,17.218-10.943
				l-2.891-4.611c0,0-9.044-173.513-6.842-193.216L1823.807,1248.483z"/>

				<linearGradient id="SVGID_00000116930425617080920820000016914393251419136166_" gradientUnits="userSpaceOnUse" x1="1870.2073" y1="707.6945" x2="1807.2104" y2="808.1895">
				<stop  offset="0" style="stop-color:#FF928E"/>
				<stop  offset="1" style="stop-color:#FEB3B1"/>
			</linearGradient>
			<path style="fill:url(#SVGID_00000116930425617080920820000016914393251419136166_);" d="M1734.285,841.547
				c0,0-4.975,90.754,77.652,137.13l-19.893,45.369c0,0-74.807-45.247-72.041-168.654c0.079-3.542-1.198-6.981-3.511-9.664
				l-15.899-18.445c-6.058-7.027-8.321-16.561-6.07-25.561l2.093-8.365c0.701-2.801,3.891-4.148,6.387-2.698l1.662,0.966
				c5.293,3.074,9.486,7.734,11.985,13.322l7.984,12.598c2.916,6.519,3.597,9.254,10.711,8.639l13.229,0.149L1734.285,841.547z"/>
			<path style="fill:#7D97F4;" d="M1809.061,971.875c13.823,3.833,60.654,16.153,89.89,15.65l-17.95,101.296l1.428,16.522
				l-58.525-0.262c0,0-16.475-38.262-29.474-57.338c-3.754-5.51-0.96-12.081,1.168-18.399l-2.923-1.946
				c-2.975-1.98-4.265-5.701-3.155-9.098l14.252-43.604C1804.512,972.496,1806.826,971.256,1809.061,971.875z"/>

				<linearGradient id="SVGID_00000101105226670999886250000008748823646686787201_" gradientUnits="userSpaceOnUse" x1="2525.4678" y1="1087.3895" x2="2719.2075" y2="1305.8849" gradientTransform="matrix(1 0 0 1 -754.9978 0)">
				<stop  offset="0" style="stop-color:#4042E2"/>
				<stop  offset="1" style="stop-color:#4F52FF"/>
			</linearGradient>
			<path style="fill:url(#SVGID_00000101105226670999886250000008748823646686787201_);" d="M1819.214,1096.434l1.151,10.01
				c0,0-16.539,49.531,8.27,165.216c0,0,53.73,15.222,97.891-21.202c0,0-12.457-109.189-15.86-114.276
				c-16.948-25.333-28.237-30.84-28.237-30.84l-0.509-10.935C1881.92,1094.407,1834.688,1102.947,1819.214,1096.434z"/>

				<linearGradient id="SVGID_00000096750114476651124350000012747645196234657466_" gradientUnits="userSpaceOnUse" x1="2597.1194" y1="965.1206" x2="2634.0879" y2="965.1206" gradientTransform="matrix(1 0 0 1 -754.9978 0)">
				<stop  offset="0" style="stop-color:#FF928E"/>
				<stop  offset="1" style="stop-color:#FEB3B1"/>
			</linearGradient>
			<path style="fill:url(#SVGID_00000096750114476651124350000012747645196234657466_);" d="M1842.124,980.039
				c-0.206-0.271,12.218-37.509,12.218-37.509l17.796,1.614l6.952,42.244C1879.09,986.389,1851.2,992.019,1842.124,980.039z"/>
			<g>

					<linearGradient id="SVGID_00000111908266273200808400000015147561213492105899_" gradientUnits="userSpaceOnUse" x1="2655.874" y1="917.3465" x2="2924.9568" y2="935.6441" gradientTransform="matrix(1 0 0 1 -754.9978 0)">
					<stop  offset="0" style="stop-color:#FF928E"/>
					<stop  offset="1" style="stop-color:#FEB3B1"/>
				</linearGradient>
				<path style="fill:url(#SVGID_00000111908266273200808400000015147561213492105899_);" d="M1867.878,883.806
					c-1.187,0.739-38.027,15.964-30.112,54.211c0.468,2.26,1.976,4.175,4.084,5.116c5.406,2.412,17.045,6.54,30.965,5.126
					c19.3-1.961,31.946-35.639,31.408-45.44C1903.685,893.019,1879.639,876.483,1867.878,883.806z"/>
				<g>

						<linearGradient id="SVGID_00000021806302961937083370000017420505601538920626_" gradientUnits="userSpaceOnUse" x1="-684.7634" y1="2980.9668" x2="-874.6542" y2="3138.8413" gradientTransform="matrix(0.1482 0.9889 -0.9889 0.1482 5087.917 1367.5433)">
						<stop  offset="0" style="stop-color:#09005D"/>
						<stop  offset="1" style="stop-color:#1A0F91"/>
					</linearGradient>
					<path style="fill:url(#SVGID_00000021806302961937083370000017420505601538920626_);" d="M1865.004,918.916
						c-5.712-14.263-11.017-26.798-5.025-36.334c8.813-14.026,43.746-15.081,61.886,4.039c18.936,19.959,0.935,46.623,20.418,68.263
						c15.22,16.906,32.768,7.924,54.057,20.768c35.318,21.31,52.642,85.622,31.705,120.913
						c-34.227,57.693-171.409,39.014-192.682-9.051C1816.492,1044.877,1891.835,985.915,1865.004,918.916z"/>
					<path style="opacity:0.39;fill:#FFFFFF;" d="M1912.512,999.602c-0.11-0.268-0.216-0.537-0.318-0.809
						c-3.986-10.615-3.309-23.465,2.07-39.282c8.378-24.633,8.14-32.608,2.261-46.944c-0.171-0.417-0.347-0.839-0.528-1.268
						l0.582-0.244c0.17,0.404,0.336,0.803,0.498,1.198c5.883,14.345,6.176,22.789-2.216,47.459
						c-5.33,15.674-6.009,28.384-2.076,38.858c4.247,11.295,15.869,20.117,31.887,24.15c6.986,1.759,14.277,2.637,21.329,3.486
						c6.608,0.796,13.442,1.619,20.032,3.166c4.801,1.126,11.785,3.162,16.999,7.819c5.193,4.633,7.626,11.337,6.204,17.075
						l-0.613-0.151c1.368-5.515-0.992-11.971-6.011-16.455c-5.108-4.56-11.991-6.564-16.725-7.675
						c-6.555-1.539-13.372-2.359-19.963-3.153c-7.071-0.852-14.382-1.732-21.406-3.501
						C1928.68,1019.347,1917.074,1010.724,1912.512,999.602z"/>
					<path style="opacity:0.39;fill:#FFFFFF;" d="M1899.189,1008.993c-0.451-1.098-0.834-2.209-1.147-3.327
						c-2.006-7.147-1.1-16.808,5.447-22.282l0.404,0.484c-6.33,5.292-7.196,14.676-5.245,21.627
						c2.525,8.99,9.609,17.389,19.952,23.664c6.817,4.138,14.387,7.127,21.709,10.019c2.424,0.958,4.933,1.948,7.377,2.966
						c10.757,4.481,21.217,9.883,31.091,16.056c6.54,4.088,12.952,8.822,15.789,15.739c0.095,0.231,0.186,0.464,0.273,0.7
						c1.546,4.21,1.058,9.469-1.24,13.395c-1.773,3.029-4.443,4.969-7.52,5.464l-0.101-0.622c2.887-0.465,5.4-2.298,7.076-5.161
						c2.208-3.77,2.675-8.818,1.192-12.86c-2.628-7.14-9.141-11.957-15.804-16.122c-9.845-6.155-20.275-11.541-31-16.009
						c-2.439-1.015-4.944-2.004-7.366-2.961c-7.345-2.901-14.941-5.901-21.804-10.067
						C1909.075,1024.118,1902.416,1016.861,1899.189,1008.993z"/>
					<path style="opacity:0.39;fill:#FFFFFF;" d="M1893.211,1019.493c-1.094-2.667-1.677-5.585-1.431-8.711l0.63,0.048
						c-0.883,11.21,9.685,19.87,14.27,23.071c5.141,3.591,10.846,6.601,16.362,9.512c9.119,4.812,18.548,9.788,25.596,17.496
						c3.609,3.943,5.912,7.976,6.85,11.982c1.154,4.94,0.157,9.92-2.669,13.323l-0.484-0.403c2.7-3.252,3.649-8.027,2.538-12.777
						c-0.91-3.891-3.165-7.835-6.699-11.7c-6.974-7.626-16.354-12.576-25.426-17.363c-5.534-2.921-11.256-5.941-16.428-9.552
						C1902.146,1031.504,1896.007,1026.312,1893.211,1019.493z"/>
				</g>
			</g>
			<g>
				<g>
					<path style="fill:#BDD0FB;" d="M1872.69,668.845l6.891-5.689c1.412-1.166,1.962-3.414,1.383-5.151
						c-0.341-1.023-1.299-2.046-2.377-2.046h-9.744l-7.652-23.254c-2.336-7.419-9.214-11.411-16.992-11.411h-65.678
						c-7.833,0-14.747,4.063-17.036,11.555l-7.383,23.11h-9.436c-1.079,0-2.036,1.023-2.377,2.046
						c-0.579,1.737-0.029,3.819,1.383,4.984l6.736,5.643l-6.498,21.308c-1.751,5.73,0.324,11.973,3.888,16.789
						c1.864,2.519,3.721,4.511,8.055,5.826v15.533c0,3.083,1.362,5.865,4.98,5.865h10.535c3.619,0,6.15-2.783,6.15-5.865v-13.634
						h67.163v13.634c0,3.083,3.587,5.865,7.206,5.865h10.535c3.619,0,6.091-2.783,6.091-5.865v-15.14
						c2.167-1.307,5.92-3.448,7.984-6.261c3.561-4.854,4.602-11.115,2.794-16.857L1872.69,668.845z M1765.498,656.191
						c1.751-6.157,3.502-11.868,5.254-18.025c1.093-3.844,4.599-6.039,8.595-6.039c21.519,0,43.039,0,64.558,0
						c3.991,0,7.504,2.202,8.595,6.039c1.751,6.157,3.503,12.091,5.254,18.248c0.147,0.517,0.043,0.837-0.281,1.267
						c-0.325,0.429-0.831,0.445-1.37,0.445c-29.652,0-59.303,0-88.955,0c-0.538,0-1.045-0.127-1.369-0.556
						C1765.456,657.141,1765.351,656.709,1765.498,656.191z M1772.228,698.796c-5.843,0-10.579-4.736-10.579-10.579
						c0-5.843,4.736-10.579,10.579-10.579c5.843,0,10.579,4.736,10.579,10.579C1782.807,694.06,1778.071,698.796,1772.228,698.796z
						 M1831.681,681.985c0,1.181-0.958,2.139-2.139,2.139h-39.052c-1.181,0-2.139-0.958-2.139-2.139v-0.055
						c0-1.182,0.958-2.139,2.139-2.139h39.052c1.181,0,2.139,0.958,2.139,2.139V681.985z M1851.025,698.796
						c-5.843,0-10.579-4.736-10.579-10.579c0-5.843,4.736-10.579,10.579-10.579c5.843,0,10.579,4.736,10.579,10.579
						C1861.604,694.06,1856.867,698.796,1851.025,698.796z"/>
					<g>
						<g>
							<g>
								<path style="fill:#BDD0FB;" d="M1724.462,701.623c-0.987,0-1.969-0.416-2.662-1.224
									c-27.877-32.558-0.77-62.821-0.493-63.123c1.308-1.425,3.524-1.52,4.948-0.212c1.423,1.307,1.52,3.518,0.217,4.943
									c-0.958,1.054-23.137,26.058,0.648,53.837c1.258,1.469,1.087,3.68-0.383,4.938
									C1726.078,701.346,1725.268,701.623,1724.462,701.623z"/>
							</g>
							<g>
								<path style="fill:#BDD0FB;" d="M1702.104,711.915c-1.064,0-2.115-0.483-2.803-1.4
									c-16.614-22.126-15.882-43.614-12.343-57.745c3.813-15.223,11.486-25.158,11.811-25.574c1.19-1.525,3.391-1.794,4.916-0.603
									c1.524,1.191,1.793,3.391,0.604,4.914c-0.164,0.213-7.212,9.458-10.6,23.222c-4.509,18.312-0.736,35.666,11.213,51.58
									c1.161,1.547,0.849,3.741-0.698,4.902C1703.575,711.687,1702.836,711.915,1702.104,711.915z"/>
							</g>
						</g>
						<g>
							<g>
								<path style="fill:#BDD0FB;" d="M1904.647,701.623c0.988,0,1.969-0.416,2.662-1.224c27.877-32.558,0.77-62.821,0.493-63.123
									c-1.308-1.425-3.524-1.52-4.948-0.212c-1.423,1.307-1.52,3.518-0.217,4.943c0.958,1.054,23.137,26.058-0.649,53.837
									c-1.258,1.469-1.087,3.68,0.383,4.938C1903.031,701.346,1903.841,701.623,1904.647,701.623z"/>
							</g>
							<g>
								<path style="fill:#BDD0FB;" d="M1927.005,711.915c1.064,0,2.115-0.483,2.803-1.4c16.614-22.126,15.882-43.614,12.343-57.745
									c-3.813-15.223-11.486-25.158-11.811-25.574c-1.19-1.525-3.391-1.794-4.916-0.603c-1.524,1.191-1.794,3.391-0.604,4.914
									c0.163,0.213,7.211,9.458,10.6,23.222c4.509,18.312,0.736,35.666-11.214,51.58c-1.161,1.547-0.849,3.741,0.698,4.902
									C1925.535,711.687,1926.273,711.915,1927.005,711.915z"/>
							</g>
						</g>
					</g>
				</g>
				<g>
					<path style="fill:#BDD0FB;" d="M1840.767,557.789c0-3.634-3.549-6.58-7.928-6.58h-42.513c-4.378,0-7.928,2.946-7.928,6.58
						v35.285c0,3.634,3.549,7.164,7.928,7.164h42.513c4.378,0,7.928-3.529,7.928-7.164V557.789z"/>
					<g>
						<path style="fill:#BDD0FB;" d="M1833.847,569.298h-47.664v-29.053c0-11.978,12.764-22.944,25.578-22.944h2.02
							c12.384,0,20.066,10.561,20.066,22.944V569.298z M1794.849,560.632h32.498v-20.386c0-7.436-6.13-12.112-13.567-12.112h-2.02
							c-7.8,0-16.911,5.148-16.911,12.112V560.632z"/>
					</g>
				</g>
			</g>
		</g>
	</g>
</g>
</svg>
