<?xml version="1.0" encoding="utf-8"?>
<!-- Generator: Adobe Illustrator 27.5.0, SVG Export Plug-In . SVG Version: 6.00 Build 0)  -->
<svg version="1.1" xmlns="http://www.w3.org/2000/svg" xmlns:xlink="http://www.w3.org/1999/xlink" x="0px" y="0px"
	 viewBox="0 0 3710 3710" style="enable-background:new 0 0 3710 3710;" xml:space="preserve">

<g id="Illustration">
	<g>
		<linearGradient id="SVGID_1_" gradientUnits="userSpaceOnUse" x1="3409.2112" y1="3589.0886" x2="1373.1313" y2="1391.4149">
			<stop  offset="0" style="stop-color:#DAE3FE"/>
			<stop  offset="1" style="stop-color:#E9EFFD"/>
		</linearGradient>
		<path style="fill:url(#SVGID_1_);" d="M3129.102,2335.398c-280.595,652.269-1021.276,932.434-1601.61,884.666
			c-158.455-13.043-477.27-39.285-726.203-273.405c-478.059-449.612-404.434-1389.427,53.206-1942.738
			c58.935-71.255,466.871-548.656,1102.563-542.266c465.419,4.679,792.093,266.149,831.815,298.723
			c50.18,41.15,160.856,138.936,260.603,294.066C3283.844,1418.947,3304.445,1927.795,3129.102,2335.398z"/>
		<g>
			<g>
				<path style="fill:#91B3FA;" d="M1576.838,2431.872c0,0-262.243-1162.994-842.216-1798.819
					c-38.988-42.742-112.37-26.543-129.249,28.705C492.511,1031.185,267.452,2152.117,1576.838,2431.872z"/>
				<path style="opacity:0.24;fill:#FFFFFF;" d="M1458.025,2356.567c2.892,2.783-1.103,7.156-4.364,4.778
					c-120.217-87.662-583.114-518.002-739.667-1373.25c-0.502-2.747,3.716-3.78,4.465-1.089
					C773.604,1185.312,1000.685,1916.611,1458.025,2356.567z"/>
			</g>
			<g>
				<path style="fill:#BDD0FB;" d="M1585.428,1882.618c0,0-103.847-886.533-493.882-1404.913
					c-26.22-34.847-83.575-28.445-101.034,11.405C873.766,755.578,609.135,1573.167,1585.428,1882.618z"/>
				<path style="opacity:0.5;fill:#FFFFFF;" d="M1500.974,1817.354c1.977,2.296-1.434,5.245-3.726,3.222
					c-84.503-74.577-402.192-430.858-450.853-1079.999c-0.156-2.085,3.15-2.529,3.498-0.467
					C1075.56,892.082,1188.323,1454.34,1500.974,1817.354z"/>
			</g>
		</g>
		<g>
			<g>
				<rect x="2571.684" y="1512.608" style="fill:#7D97F4;" width="572.843" height="1412.388"/>

					<linearGradient id="SVGID_00000115473678603524479070000001598301417762909583_" gradientUnits="userSpaceOnUse" x1="2980.5227" y1="1058.0713" x2="3361.6829" y2="295.7528">
					<stop  offset="0" style="stop-color:#4F52FF"/>
					<stop  offset="1" style="stop-color:#4042E2"/>
				</linearGradient>
				<path style="fill:url(#SVGID_00000115473678603524479070000001598301417762909583_);" d="M3221.251,1608.081h-676.845
					l-123.875-497.828h655.801l171.582,456.072C3256.948,1585.805,3242.723,1608.081,3221.251,1608.081z"/>

					<linearGradient id="SVGID_00000026124989215709300830000009062420686174183089_" gradientUnits="userSpaceOnUse" x1="2669.7939" y1="413.9203" x2="2711.5" y2="1435.7209">
					<stop  offset="0" style="stop-color:#4F52FF"/>
					<stop  offset="1" style="stop-color:#4042E2"/>
				</linearGradient>
				<path style="fill:url(#SVGID_00000026124989215709300830000009062420686174183089_);" d="M3076.332,1117.073l-738.503,2.961
					l-20.453-61.359l713.64,3.841c25.027,0,45.316,14.81,45.316,33.079V1117.073z"/>
				<g style="opacity:0.89;">
					<path style="opacity:0.71;fill:#FFFFFF;" d="M3022.357,2437.689h-325.093c-0.62,0-1.123-0.503-1.123-1.123v-502.402
						c0-0.62,0.503-1.123,1.123-1.123h325.093c0.62,0,1.123,0.503,1.123,1.123v502.402
						C3023.48,2437.186,3022.977,2437.689,3022.357,2437.689z"/>
					<g>
						<path style="fill:#91B3FA;" d="M2846.477,2410.41h-125.844c-0.345,0-0.624-0.279-0.624-0.624v-448.843
							c0-0.345,0.28-0.624,0.624-0.624h125.844c0.345,0,0.624,0.28,0.624,0.624v448.843
							C2847.101,2410.131,2846.822,2410.41,2846.477,2410.41z"/>
						<path style="fill:#91B3FA;" d="M2998.987,2410.41h-125.843c-0.344,0-0.624-0.279-0.624-0.624v-448.843
							c0-0.345,0.28-0.624,0.624-0.624h125.843c0.345,0,0.624,0.28,0.624,0.624v448.843
							C2999.611,2410.131,2999.332,2410.41,2998.987,2410.41z"/>
					</g>
				</g>
				<path style="fill:#7D97F4;" d="M575.65,2924.995h562.667V1512.608H565.473v1402.212
					C565.473,2920.439,570.029,2924.995,575.65,2924.995z"/>

					<linearGradient id="SVGID_00000006670622233719915660000015408473056559872941_" gradientUnits="userSpaceOnUse" x1="1436.2472" y1="285.9387" x2="1817.4083" y2="-476.3819">
					<stop  offset="0" style="stop-color:#4F52FF"/>
					<stop  offset="1" style="stop-color:#4042E2"/>
				</linearGradient>
				<path style="fill:url(#SVGID_00000006670622233719915660000015408473056559872941_);" d="M488.75,1608.081h676.845
					l241.619-528.953l-773.545,31.125l-171.583,456.072C453.052,1585.805,467.277,1608.081,488.75,1608.081z"/>

					<linearGradient id="SVGID_00000040562402031938840070000013132756561850416310_" gradientUnits="userSpaceOnUse" x1="1019.7419" y1="668.252" x2="1064.024" y2="1174.3381">
					<stop  offset="0" style="stop-color:#4F52FF"/>
					<stop  offset="1" style="stop-color:#4042E2"/>
				</linearGradient>
				<path style="fill:url(#SVGID_00000040562402031938840070000013132756561850416310_);" d="M633.67,1117.072l783.771-12.378
					l61.359-51.133l-796.318,8.954c-26.958,0-48.812,14.81-48.812,33.079V1117.072z"/>
				<g style="opacity:0.89;">
					<path style="opacity:0.71;fill:#FFFFFF;" d="M680.956,2437.689h325.093c0.62,0,1.123-0.503,1.123-1.123v-502.402
						c0-0.62-0.503-1.123-1.123-1.123H680.956c-0.62,0-1.123,0.503-1.123,1.123v502.402
						C679.833,2437.186,680.336,2437.689,680.956,2437.689z"/>
					<g>
						<path style="fill:#91B3FA;" d="M856.836,2410.41H982.68c0.345,0,0.624-0.279,0.624-0.624v-448.843
							c0-0.345-0.279-0.624-0.624-0.624H856.836c-0.345,0-0.624,0.28-0.624,0.624v448.843
							C856.212,2410.131,856.491,2410.41,856.836,2410.41z"/>
						<path style="fill:#91B3FA;" d="M704.326,2410.41h125.844c0.345,0,0.624-0.279,0.624-0.624v-448.843
							c0-0.345-0.279-0.624-0.624-0.624H704.326c-0.345,0-0.624,0.28-0.624,0.624v448.843
							C703.701,2410.131,703.981,2410.41,704.326,2410.41z"/>
					</g>
				</g>
				<path style="fill:#91B3FA;" d="M1855,821.628c0,0-776.615,586.299-795.856,586.299l-8.676,1512.018l1598.278,10.031
					l2.109-1522.049L1855,821.628z"/>
				<g>
					<path style="fill:#BDD0FB;" d="M1964.052,1832.319h-289.269c-13.135,0-23.784-10.648-23.784-23.784v-20.774
						c0-12.496,9.67-22.86,22.135-23.726l289.269-20.094c13.751-0.955,25.432,9.942,25.432,23.727v40.868
						C1987.835,1821.671,1977.187,1832.319,1964.052,1832.319z"/>
					<g>
						<path style="fill:#7D97F4;" d="M2080.321,2702.606h-538.332V2596.54c0-1.751,1.42-3.171,3.171-3.171h531.991
							c1.751,0,3.17,1.42,3.17,3.17V2702.606z"/>
						<path style="fill:#7D97F4;" d="M2120.446,2802.917h-601.281v-109.411c0-1.751,1.42-3.17,3.171-3.17h594.941
							c1.751,0,3.17,1.419,3.17,3.17V2802.917z"/>
						<path style="fill:#7D97F4;" d="M2194.007,2923.289h-721.654v-119.442c0-1.751,1.42-3.17,3.171-3.17h715.313
							c1.751,0,3.17,1.419,3.17,3.17V2923.289z"/>

							<linearGradient id="SVGID_00000118395188779216869720000008628900202415608757_" gradientUnits="userSpaceOnUse" x1="745.1711" y1="3216.6709" x2="1997.6583" y2="2074.5354">
							<stop  offset="0" style="stop-color:#4F52FF"/>
							<stop  offset="1" style="stop-color:#4042E2"/>
						</linearGradient>
						<path style="fill:url(#SVGID_00000118395188779216869720000008628900202415608757_);" d="M1987.835,2602.296h-336.836
							v-728.875c0-1.966,1.594-3.56,3.56-3.56h329.717c1.966,0,3.56,1.594,3.56,3.56V2602.296z"/>
						<g>
							<path style="fill:#BDD0FB;" d="M1772.644,2350.326h-50.838c-16.953,0-30.744-13.792-30.744-30.744v-375.829
								c0-16.953,13.791-30.744,30.744-30.744h50.838c16.952,0,30.744,13.792,30.744,30.744v375.829
								C1803.388,2336.535,1789.597,2350.326,1772.644,2350.326z M1721.806,1916.701c-14.916,0-27.052,12.136-27.052,27.052v375.829
								c0,14.916,12.136,27.052,27.052,27.052h50.838c14.916,0,27.052-12.136,27.052-27.052v-375.829
								c0-14.916-12.136-27.052-27.052-27.052H1721.806z"/>
						</g>
						<g>
							<path style="fill:#BDD0FB;" d="M1914.51,2350.326h-50.838c-16.953,0-30.744-13.792-30.744-30.744v-375.829
								c0-16.953,13.792-30.744,30.744-30.744h50.838c16.953,0,30.744,13.792,30.744,30.744v375.829
								C1945.254,2336.535,1931.463,2350.326,1914.51,2350.326z M1863.672,1916.701c-14.916,0-27.052,12.136-27.052,27.052v375.829
								c0,14.916,12.137,27.052,27.052,27.052h50.838c14.916,0,27.052-12.136,27.052-27.052v-375.829
								c0-14.916-12.136-27.052-27.052-27.052H1863.672z"/>
						</g>
						<g>
							<path style="fill:#BDD0FB;" d="M1772.644,2567.312h-50.838c-16.953,0-30.744-25.681-30.744-57.25v-80.497
								c0-31.565,13.791-57.247,30.744-57.247h50.838c16.952,0,30.744,25.682,30.744,57.247v80.497
								C1803.388,2541.631,1789.597,2567.312,1772.644,2567.312z M1721.806,2379.193c-14.916,0-27.052,22.596-27.052,50.372v80.497
								c0,27.775,12.136,50.375,27.052,50.375h50.838c14.916,0,27.052-22.6,27.052-50.375v-80.497
								c0-27.776-12.136-50.372-27.052-50.372H1721.806z"/>
						</g>
						<g>
							<path style="fill:#BDD0FB;" d="M1914.51,2567.312h-50.838c-16.953,0-30.744-25.681-30.744-57.25v-80.497
								c0-31.565,13.792-57.247,30.744-57.247h50.838c16.953,0,30.744,25.682,30.744,57.247v80.497
								C1945.254,2541.631,1931.463,2567.312,1914.51,2567.312z M1863.672,2379.193c-14.916,0-27.052,22.596-27.052,50.372v80.497
								c0,27.775,12.137,50.375,27.052,50.375h50.838c14.916,0,27.052-22.6,27.052-50.375v-80.497
								c0-27.776-12.136-50.372-27.052-50.372H1863.672z"/>
						</g>
					</g>
					<g>
						<g>
							<path style="fill:#7D97F4;" d="M2255.325,1700.906h-3.2c-83.191,0-156.023,58.898-156.023,142.089v149.82h159.223V1700.906z"
								/>
							<path style="fill:#7D97F4;" d="M2096.102,2037.045v440.768c0,14.842,17.422,37.852,32.264,37.852h126.959v-478.62H2096.102z"
								/>
							<path style="fill:#7D97F4;" d="M2298.8,1700.906h-8.092v291.91h159.224v-149.82
								C2449.932,1759.804,2381.992,1700.906,2298.8,1700.906z"/>
							<path style="fill:#7D97F4;" d="M2290.708,2515.665h131.852c14.841,0,27.372-23.01,27.372-37.852v-440.768h-159.224V2515.665z
								"/>
						</g>
						<g>
							<path style="fill:#BDD0FB;" d="M2463.707,2543.194h-383.285c-21.978,0-39.857-17.881-39.857-39.859v-663.621
								c0-104.943,85.379-190.319,190.322-190.319h82.359c104.943,0,190.32,85.376,190.32,190.319v663.621
								C2503.565,2525.313,2485.685,2543.194,2463.707,2543.194z M2230.886,1653.085c-102.908,0-186.63,83.721-186.63,186.628
								v663.621c0,19.944,16.224,36.168,36.166,36.168h383.285c19.941,0,36.166-16.224,36.166-36.168v-663.621
								c0-102.908-83.72-186.628-186.628-186.628H2230.886z"/>
						</g>
					</g>
					<g>
						<g>
							<path style="fill:#7D97F4;" d="M1378.338,1700.906h-3.201c-83.192,0-156.023,58.898-156.023,142.089v149.82h159.224V1700.906
								z"/>
							<path style="fill:#7D97F4;" d="M1219.114,2037.045v440.768c0,14.842,17.422,37.852,32.264,37.852h126.96v-478.62H1219.114z"
								/>
							<path style="fill:#7D97F4;" d="M1421.813,1700.906h-8.092v291.91h159.223v-149.82
								C1572.944,1759.804,1505.005,1700.906,1421.813,1700.906z"/>
							<path style="fill:#7D97F4;" d="M1413.721,2515.665h131.851c14.841,0,27.372-23.01,27.372-37.852v-440.768h-159.223V2515.665z
								"/>
						</g>
						<g>
							<path style="fill:#BDD0FB;" d="M1586.892,2543.194h-383.285c-21.978,0-39.857-17.881-39.857-39.859v-663.621
								c0-104.943,85.376-190.319,190.319-190.319h82.359c104.943,0,190.322,85.376,190.322,190.319v663.621
								C1626.749,2525.313,1608.87,2543.194,1586.892,2543.194z M1354.069,1653.085c-102.908,0-186.628,83.721-186.628,186.628
								v663.621c0,19.944,16.225,36.168,36.166,36.168h383.285c19.941,0,36.166-16.224,36.166-36.168v-663.621
								c0-102.908-83.722-186.628-186.63-186.628H1354.069z"/>
						</g>
					</g>
				</g>
				<g>

						<linearGradient id="SVGID_00000013905742425064267720000011855831909128608191_" gradientUnits="userSpaceOnUse" x1="2533.8828" y1="400.4849" x2="2864.8901" y2="-276.5752">
						<stop  offset="0" style="stop-color:#4F52FF"/>
						<stop  offset="1" style="stop-color:#4042E2"/>
					</linearGradient>

						<rect x="2203.5" y="834.432" style="fill:url(#SVGID_00000013905742425064267720000011855831909128608191_);" width="131.658" height="214.369"/>

						<linearGradient id="SVGID_00000013157314084892092770000003733282463846252681_" gradientUnits="userSpaceOnUse" x1="2764.2075" y1="100.2879" x2="2542.5544" y2="432.7669">
						<stop  offset="0" style="stop-color:#4F52FF"/>
						<stop  offset="1" style="stop-color:#4042E2"/>
					</linearGradient>
					<path style="fill:url(#SVGID_00000013157314084892092770000003733282463846252681_);" d="M2378.549,869.167h-212.804v-59.734
						c0-3.367,2.729-6.096,6.095-6.096h197.43c5.124,0,9.278,4.154,9.278,9.278V869.167z"/>

						<linearGradient id="SVGID_00000065074351164114583980000011048597924079037327_" gradientUnits="userSpaceOnUse" x1="-270.7032" y1="2124.8284" x2="2016.8594" y2="1174.4202">
						<stop  offset="0" style="stop-color:#4F52FF"/>
						<stop  offset="1" style="stop-color:#4042E2"/>
					</linearGradient>
					<path style="fill:url(#SVGID_00000065074351164114583980000011048597924079037327_);" d="M1010.35,1469.396L1855,821.628
						l801.766,621.905c29.142,22.604,71.887,6.773,79.275-29.36l11.246-55.006L1855,679.448l-863.695,659.698
						c-15.465,11.812-21.076,32.533-13.685,50.534L1010.35,1469.396z"/>
				</g>
			</g>
		</g>
		<g>
			<g>

					<linearGradient id="SVGID_00000167370959513532828450000008995437010006374541_" gradientUnits="userSpaceOnUse" x1="-3749.9888" y1="2298.7505" x2="-3583.1367" y2="2298.7505" gradientTransform="matrix(-1 0 0 1 -763.9898 0)">
					<stop  offset="0" style="stop-color:#FEBBBA"/>
					<stop  offset="1" style="stop-color:#FF928E"/>
				</linearGradient>
				<path style="fill:url(#SVGID_00000167370959513532828450000008995437010006374541_);" d="M2925.944,2212.758
					c17.117,18.27,42.32,34.058,60.055,43.903c-26.486,32.738-62.324,65.523-109.768,97.613l-13.579,30.47l-43.506-52.142
					C2819.147,2332.601,2897.212,2293.752,2925.944,2212.758z"/>

					<linearGradient id="SVGID_00000159429340131848119060000010549621621424254369_" gradientUnits="userSpaceOnUse" x1="-3523.0332" y1="2821.7668" x2="-3518.8484" y2="3282.0715" gradientTransform="matrix(-1 0 0 1 -763.9898 0)">
					<stop  offset="0" style="stop-color:#4F52FF"/>
					<stop  offset="1" style="stop-color:#4042E2"/>
				</linearGradient>
				<path style="fill:url(#SVGID_00000159429340131848119060000010549621621424254369_);" d="M2693.12,3201.717
					c-0.015-0.931,0.047-1.875,0.286-2.826c14.092-55.866,84.031-90.663,84.031-90.663l27.715,2.173
					c15.935,49.24,13.887,79.439,11.329,92.891c-0.07,0.377-0.185,0.735-0.285,1.1
					C2793.333,3206.433,2746.277,3207.767,2693.12,3201.717z"/>
				<path style="fill:#7D97F4;" d="M2816.195,3204.391c-1.234,4.491-4.55,7.989-8.795,8.882
					c-32.521,6.839-84.211,1.335-105.913-1.502c-4.789-0.626-8.288-5.054-8.367-10.053
					C2746.277,3207.767,2793.333,3206.433,2816.195,3204.391z"/>

					<linearGradient id="SVGID_00000130611744127486156660000009338457501002336387_" gradientUnits="userSpaceOnUse" x1="-3547.4282" y1="3014.7322" x2="-3571.3274" y2="3223.3064" gradientTransform="matrix(-1 0 0 1 -763.9898 0)">
					<stop  offset="0" style="stop-color:#FEBBBA"/>
					<stop  offset="1" style="stop-color:#FF928E"/>
				</linearGradient>
				<path style="fill:url(#SVGID_00000130611744127486156660000009338457501002336387_);" d="M2816.297,3069.12l-11.738,56.507
					c-0.86,4.139-4.042,7.241-7.896,7.603c-4.717,0.443-11.432,0.702-18.185-0.29c-6.056-0.89-10.272-7.043-9.198-13.647
					l8.159-50.173H2816.297z"/>
				<path style="fill:#7D97F4;" d="M2573.092,3203.823c30.609-0.858,46.441-4.461,54.625-7.807c0.02,3.043,0.003,6.141-0.096,9.351
					c-0.105,3.427-2.644,6.165-5.767,6.145l-168.061-1.085c-5.363-0.036-8.498-6.255-6.173-11.173
					C2469.655,3201.074,2525.777,3205.147,2573.092,3203.823z"/>

					<linearGradient id="SVGID_00000141447776428945682970000015406205913926311863_" gradientUnits="userSpaceOnUse" x1="-3305.093" y1="2819.7854" x2="-3300.908" y2="3280.0896" gradientTransform="matrix(-1 0 0 1 -763.9898 0)">
					<stop  offset="0" style="stop-color:#4F52FF"/>
					<stop  offset="1" style="stop-color:#4042E2"/>
				</linearGradient>
				<path style="fill:url(#SVGID_00000141447776428945682970000015406205913926311863_);" d="M2447.619,3199.254
					c0.203-0.428,0.377-0.864,0.666-1.268c14.841-20.739,52.644-62.035,127.342-79.945l35.834-1.132
					c0,0,15.956,27.734,16.257,79.106c-8.184,3.346-24.016,6.95-54.625,7.807
					C2525.777,3205.147,2469.655,3201.074,2447.619,3199.254z"/>

					<linearGradient id="SVGID_00000016041073515168478340000011272183309584706225_" gradientUnits="userSpaceOnUse" x1="-3352.7551" y1="3037.0396" x2="-3376.6538" y2="3245.6106" gradientTransform="matrix(-1 0 0 1 -763.9898 0)">
					<stop  offset="0" style="stop-color:#FEBBBA"/>
					<stop  offset="1" style="stop-color:#FF928E"/>
				</linearGradient>
				<path style="fill:url(#SVGID_00000016041073515168478340000011272183309584706225_);" d="M2618.104,3062.602
					c-0.397,2.671-5.31,43.268-7.211,59.009c-0.452,3.74-3.161,6.635-6.577,7.042c-6.102,0.729-15.976,1.393-24.615-0.378
					c-4.66-0.956-8.034-5.432-8.034-10.638v-63.725L2618.104,3062.602z"/>

					<linearGradient id="SVGID_00000077308396543227995700000012440650835169996966_" gradientUnits="userSpaceOnUse" x1="-3068.7969" y1="2083.2791" x2="-3833.1663" y2="3269.3708" gradientTransform="matrix(-1 0 0 1 -763.9898 0)">
					<stop  offset="0" style="stop-color:#09005D"/>
					<stop  offset="1" style="stop-color:#1A0F91"/>
				</linearGradient>
				<path style="fill:url(#SVGID_00000077308396543227995700000012440650835169996966_);" d="M2646.854,2321.738
					c0,0-86.429,328.465-84.867,741.805c0.029,7.536,5.319,14.039,12.694,15.593c10.867,2.289,26.841,5.006,40.066,4.635
					c7.059-0.198,12.961-5.433,14.149-12.395c12.119-71.07,81.666-471.437,121.29-536.435c0,0,26.071,356.585,17.737,541.584
					c-0.207,4.6,3.162,8.589,7.736,9.119c6.939,0.802,18.039,1.411,32.167-0.089c5.362-0.57,9.688-4.624,10.454-9.961
					c8.633-60.148,58.316-418.169,56.205-676.074c-0.119-14.544-38.463-77.782-38.463-77.782H2646.854z"/>

					<linearGradient id="SVGID_00000163055089166686550830000004270005365529040058_" gradientUnits="userSpaceOnUse" x1="2940.064" y1="1780.3795" x2="2779.5676" y2="2054.5613">
					<stop  offset="0" style="stop-color:#FF928E"/>
					<stop  offset="1" style="stop-color:#FE7062"/>
				</linearGradient>
				<path style="fill:url(#SVGID_00000163055089166686550830000004270005365529040058_);" d="M2526.651,1924.215
					c14.028-17.583,26.316-36.431,36.595-55.851c14.356-27.124,1.155,17.559,5.077-13.07
					c107.509-77.582,269.399-38.313,332.019-30.425c20.533,2.587,39.312,12.709,52.842,28.369
					c53.66,62.098,171.408,232.11,32.814,403.423c-17.735-9.844-42.938-25.633-60.055-43.903
					c15.333-43.223,16.589-98.46-15.545-166.193c-1.098,5.369-2.455,10.684-4.105,15.915
					c-44.29,140.313-46.653,257.077-46.554,283.988c0.014,3.653-2.18,6.943-5.573,8.304c-58.291,23.358-170.498,9.456-208.164,3.843
					c-6.906-1.03-11.552-7.46-10.598-14.376c18.486-133.928-76.387-354.245-101.445-409.427
					C2532.157,1930.841,2529.665,1927.268,2526.651,1924.215z"/>

					<linearGradient id="SVGID_00000046329182026162175860000010360169296740907162_" gradientUnits="userSpaceOnUse" x1="-3494.6313" y1="1681.3889" x2="-3585.8816" y2="2075.72" gradientTransform="matrix(-1 0 0 1 -763.9898 0)">
					<stop  offset="0" style="stop-color:#FEBBBA"/>
					<stop  offset="1" style="stop-color:#FF928E"/>
				</linearGradient>
				<path style="fill:url(#SVGID_00000046329182026162175860000010360169296740907162_);" d="M2799.592,1712.096l11.234,114.778
					c0,0-64.569,19.448-111.531-13.688l33.013-104.316L2799.592,1712.096z"/>
				<g>

						<linearGradient id="SVGID_00000109749385762388656900000016088997216472016547_" gradientUnits="userSpaceOnUse" x1="-3540.3325" y1="-3343.2334" x2="-3702.2224" y2="-3129.0662" gradientTransform="matrix(-0.6854 -0.7281 -0.7281 0.6854 -2114.989 1318.7853)">
						<stop  offset="0" style="stop-color:#FEBBBA"/>
						<stop  offset="1" style="stop-color:#FF928E"/>
					</linearGradient>
					<path style="fill:url(#SVGID_00000109749385762388656900000016088997216472016547_);" d="M2724.671,1581.276
						c-1.554,1.463-65.586,127.207-65.586,127.207l72.575,35.035l78.395-110.163
						C2810.054,1633.355,2750.687,1556.786,2724.671,1581.276z"/>

						<linearGradient id="SVGID_00000155839201049976823970000010771792523765210794_" gradientUnits="userSpaceOnUse" x1="-3663.9702" y1="-3291.8013" x2="-3470.5911" y2="-3291.8013" gradientTransform="matrix(-0.6854 -0.7281 -0.7281 0.6854 -2114.989 1318.7853)">
						<stop  offset="0" style="stop-color:#09005D"/>
						<stop  offset="1" style="stop-color:#1A0F91"/>
					</linearGradient>
					<path style="fill:url(#SVGID_00000155839201049976823970000010771792523765210794_);" d="M2777.944,1636.406
						c1.294,3.35,0.976,7.088-0.872,10.167l-36.196,60.339c-0.55,0.915-1.204,1.743-1.985,2.47
						c-4.308,4.011-19.052,15.675-30.448-0.207c-9.715-13.536-18.828-25.842-28.595-30.918c-5.702-2.965-12.721-0.597-15.617,5.141
						c-5.963,11.82-17.515,35.915-24.772,58.762c-1.818,5.727,1.138,11.875,6.706,14.131c14.695,5.954,43.74,16.721,69.513,20.278
						c4.234,0.585,8.426-1.202,10.945-4.654c11.088-15.19,42.341-57.642,53.008-68.268c9.909-9.872,28.199-6.15,36.44-3.782
						c3.128,0.9,6.459,0.466,9.248-1.213c8.362-5.036,22.954-17.578,9.605-38.811c-3.319-5.279-1.627-12.313,3.584-15.739
						c9.334-6.141,19.465-17.668,9.814-36.335c-9.77-18.897-27.218-20.593-39.101-19.141c-5.258,0.642-10.596-2.115-12.613-7.012
						c-0.897-2.178-2.67-4.035-5.973-4.705c-6.228-1.264-10.316-6.959-9.094-13.195c2.095-10.695,0.518-24.586-16.556-33.973
						c-31.314-17.217-58.744,10.837-65.717,34.517c-6.976,23.682,28.036,40.418,50.06,43.211
						C2765.505,1609.521,2774.375,1627.177,2777.944,1636.406z"/>

						<linearGradient id="SVGID_00000140733912804811081150000007563276515714556042_" gradientUnits="userSpaceOnUse" x1="-3777.4363" y1="-3173.6311" x2="-3647.5886" y2="-3306.8513" gradientTransform="matrix(-0.6854 -0.7281 -0.7281 0.6854 -2114.989 1318.7853)">
						<stop  offset="0" style="stop-color:#FEBBBA"/>
						<stop  offset="1" style="stop-color:#FF928E"/>
					</linearGradient>
					<path style="fill:url(#SVGID_00000140733912804811081150000007563276515714556042_);" d="M2766.037,1725.807
						c0,0,13.924-40.742,31.748-39.247c17.824,1.496,31.853,19.251,9.763,39.212
						C2780.07,1750.6,2766.037,1725.807,2766.037,1725.807z"/>
				</g>

					<linearGradient id="SVGID_00000018936942609089998890000015370121828437775773_" gradientUnits="userSpaceOnUse" x1="-3571.4778" y1="1755.6832" x2="-3760.374" y2="2102.7256" gradientTransform="matrix(-1 0 0 1 -763.9898 0)">
					<stop  offset="0" style="stop-color:#E1473D"/>
					<stop  offset="1" style="stop-color:#E9605A"/>
				</linearGradient>
				<path style="fill:url(#SVGID_00000018936942609089998890000015370121828437775773_);" d="M2916.277,2036.071
					c23.494-64.295,14.971-141.934,14.881-142.71l-6.473,0.739c0.085,0.763,8.427,76.912-14.532,139.733L2916.277,2036.071z"/>

					<linearGradient id="SVGID_00000144334609301630719090000007644050274123701420_" gradientUnits="userSpaceOnUse" x1="-3497.4741" y1="2401.7598" x2="-3561.5664" y2="2515.8223" gradientTransform="matrix(-1 0 0 1 -763.9898 0)">
					<stop  offset="0" style="stop-color:#09005D"/>
					<stop  offset="1" style="stop-color:#1A0F91"/>
				</linearGradient>
				<path style="fill:url(#SVGID_00000144334609301630719090000007644050274123701420_);" d="M2753.362,2526.568
					c1.448,0,2.773-0.972,3.151-2.441c7.167-27.644,60.838-58.022,61.379-58.327c1.569-0.88,2.129-2.866,1.247-4.437
					c-0.881-1.569-2.857-2.131-4.436-1.247c-2.307,1.294-56.637,32.048-64.498,62.375c-0.452,1.742,0.595,3.521,2.336,3.971
					C2752.814,2526.535,2753.092,2526.568,2753.362,2526.568z"/>
				<g>

						<linearGradient id="SVGID_00000089556150620831284380000004184415468046372506_" gradientUnits="userSpaceOnUse" x1="2772.0374" y1="1682.022" x2="2611.541" y2="1956.2039">
						<stop  offset="0" style="stop-color:#FF928E"/>
						<stop  offset="1" style="stop-color:#FE7062"/>
					</linearGradient>
					<path style="fill:url(#SVGID_00000089556150620831284380000004184415468046372506_);" d="M2425.679,2254.704
						c90.9-82.797,81.414-192.693,82.59-267.874c1.554-99.26,67.8-137.048,67.8-137.048l59.266,112.75
						c12.433,170.21-81.517,314.056-161.606,352.363C2449.175,2296.506,2434.449,2273.962,2425.679,2254.704z"/>

						<linearGradient id="SVGID_00000161600674748026528920000001802511132440196739_" gradientUnits="userSpaceOnUse" x1="403.761" y1="2519.5642" x2="-154.645" y2="3233.9956" gradientTransform="matrix(-0.6312 0.7756 0.7756 0.6312 316.7004 397.4317)">
						<stop  offset="0" style="stop-color:#FEBBBA"/>
						<stop  offset="1" style="stop-color:#FF928E"/>
					</linearGradient>
					<path style="fill:url(#SVGID_00000161600674748026528920000001802511132440196739_);" d="M2261.543,2341.471l42.282-17.58
						c53.361-18.924,92.743-42.669,121.854-69.187c8.77,19.258,23.496,41.802,48.05,60.191
						c-50.981,24.387-93.684,30.936-93.684,30.936C2280.14,2382.302,2261.543,2341.471,2261.543,2341.471z"/>
				</g>

					<linearGradient id="SVGID_00000150101790597357776220000017917299314391655347_" gradientUnits="userSpaceOnUse" x1="478.4971" y1="2577.9761" x2="-79.9118" y2="3292.4114" gradientTransform="matrix(-0.6312 0.7756 0.7756 0.6312 316.7004 397.4317)">
					<stop  offset="0" style="stop-color:#FEBBBA"/>
					<stop  offset="1" style="stop-color:#FF928E"/>
				</linearGradient>
				<path style="fill:url(#SVGID_00000150101790597357776220000017917299314391655347_);" d="M2230.637,2469.475
					c-5.069-7.481-6.461-16.863-3.783-25.495l26.128-84.245c0,0-7.361-7.583-24.586,2.284c-17.226,9.869-30.585-6.587-30.585-6.587
					s24.93-12.344,62.521-29.526c21.497-9.826,43.344-7.377,58.119-3.482l8.191,33.827c-20.083,48.685-50.049,90.099-87.199,126.228
					L2230.637,2469.475z"/>
			</g>

				<linearGradient id="SVGID_00000011001603345925459720000016465614921318898587_" gradientUnits="userSpaceOnUse" x1="4575.0972" y1="2079.592" x2="4478.1177" y2="3029.1777" gradientTransform="matrix(1 0 0 1 -2093.1492 0)">
				<stop  offset="0" style="stop-color:#FEBBBA"/>
				<stop  offset="1" style="stop-color:#FF928E"/>
			</linearGradient>
			<path style="fill:url(#SVGID_00000011001603345925459720000016465614921318898587_);" d="M2456.982,2378.724
				c0,0,26.696,9.213,32.034,46.062c5.339,36.849-26.695,64.486-53.39,59.88c-26.695-4.606-55.311-73.698-6.3-105.941
				C2478.338,2346.481,2456.982,2378.724,2456.982,2378.724z"/>
			<g>

					<linearGradient id="SVGID_00000128458949546309407300000002313245946932063380_" gradientUnits="userSpaceOnUse" x1="4479.9106" y1="1538.311" x2="3943.4407" y2="2329.6055" gradientTransform="matrix(1 0 0 1 -2093.1492 0)">
					<stop  offset="0" style="stop-color:#09005D"/>
					<stop  offset="1" style="stop-color:#1A0F91"/>
				</linearGradient>
				<path style="fill:url(#SVGID_00000128458949546309407300000002313245946932063380_);" d="M2229.716,1647.116
					c0,0-38.085,29.335-90.965,51.233c-29.486,12.21-86.847,30.258-94.418,82.974c-3.907,27.215-27.25,49.014-58.673,53.169
					c-78.261,10.347-198.865,45.407-218.161,162.632c-14.729,89.476,38.143,123.404,93.629,135.146
					c40.753,8.626,67.837,42.823,59.592,78.32c-7.905,34.047,3.884,73.405,72.252,104.53
					c153.206,69.744,306.206-165.232,306.206-165.232l31.356-410.282L2229.716,1647.116z"/>
				<path style="fill:#FFFFFF;" d="M1880.157,2079.632c-2.315,0-4.95-0.957-7.082-2.155
					c-35.745-20.096-54.805-61.572-46.348-100.864c5.061-23.533,18.586-43.83,38.077-57.151
					c13.819-9.445,30.243-15.216,45.884-20.317c26.403-8.609,53.6-16.194,80.839-22.545c2.23-0.521,4.467-1.034,6.704-1.548
					c15.954-3.664,32.451-7.451,47.386-13.9c19.151-8.273,33.114-20.302,39.311-33.871c3.847-8.426,4.954-17.758,6.024-26.782
					c1.31-11.045,2.665-22.465,9.071-32.229c0.127-0.193,0.392-0.247,0.578-0.121c0.193,0.127,0.248,0.385,0.121,0.578
					c-6.299,9.6-7.641,20.921-8.94,31.869c-1.078,9.087-2.194,18.487-6.096,27.03c-6.282,13.76-20.395,25.938-39.736,34.292
					c-15.007,6.48-31.543,10.276-47.533,13.948c-2.237,0.514-4.47,1.027-6.7,1.546c-27.216,6.346-54.39,13.925-80.767,22.526
					c-15.585,5.084-31.948,10.831-45.675,20.212c-19.314,13.2-32.712,33.314-37.731,56.639
					c-8.379,38.936,10.511,80.041,45.943,99.959c2.707,1.523,7.899,3.378,10.175,0.637c0.147-0.178,0.411-0.202,0.588-0.054
					c0.176,0.147,0.202,0.412,0.052,0.59C1883.282,2079.147,1881.803,2079.632,1880.157,2079.632z"/>
				<path style="fill:#FFFFFF;" d="M1870.969,2042.579c-0.124,0-0.248-0.056-0.33-0.162c-13.793-17.789-20.973-36.465-20.767-54.008
					c0.242-20.536,11.282-39.623,28.813-49.816c0.193-0.119,0.451-0.049,0.571,0.15c0.114,0.201,0.046,0.455-0.153,0.571
					c-17.277,10.046-28.157,28.862-28.395,49.104c-0.203,17.354,6.916,35.848,20.591,53.486c0.141,0.183,0.108,0.446-0.075,0.586
					C1871.148,2042.55,1871.057,2042.579,1870.969,2042.579z"/>

					<linearGradient id="SVGID_00000136392133924548221050000007143043282723822745_" gradientUnits="userSpaceOnUse" x1="4633.7095" y1="1040.1072" x2="4305.6694" y2="4252.1484" gradientTransform="matrix(1 0 0 1 -2093.1492 0)">
					<stop  offset="0" style="stop-color:#FEBBBA"/>
					<stop  offset="1" style="stop-color:#FF928E"/>
				</linearGradient>
				<path style="fill:url(#SVGID_00000136392133924548221050000007143043282723822745_);" d="M2392.525,1996.415
					c0,0,85.424,211.882,112.119,400.734l-26.696,23.031c0,0-85.424-239.519-149.491-308.61L2392.525,1996.415z"/>

					<linearGradient id="SVGID_00000032628566123070899030000017341367479457601720_" gradientUnits="userSpaceOnUse" x1="-5087.0381" y1="3183.6926" x2="-4985.2192" y2="3183.6926" gradientTransform="matrix(-1 0 0 1 -3258.5825 0)">
					<stop  offset="0" style="stop-color:#09005D"/>
					<stop  offset="1" style="stop-color:#1A0F91"/>
				</linearGradient>
				<path style="fill:url(#SVGID_00000032628566123070899030000017341367479457601720_);" d="M1828.334,3162.625l-5.792,41.074
					c-1.098,7.793-8.209,13.953-17.249,14.845c-15.262,1.504-39.755,3.046-63.718,0.86c-10.518-0.959-17.347-10.148-14.143-18.844
					c5.841-15.857,16.529-39.659,31.937-53.667h52.815C1821.948,3146.893,1829.514,3154.262,1828.334,3162.625z"/>

					<linearGradient id="SVGID_00000084527082243041921780000000044742287443609753_" gradientUnits="userSpaceOnUse" x1="-5509.1929" y1="3531.3381" x2="-5382.6694" y2="2052.5935" gradientTransform="matrix(-1 0 0 1 -3258.5825 0)">
					<stop  offset="0" style="stop-color:#FEBBBA"/>
					<stop  offset="1" style="stop-color:#FF928E"/>
				</linearGradient>
				<path style="fill:url(#SVGID_00000084527082243041921780000000044742287443609753_);" d="M2241.995,2681.459l8.915,45.24
					c0,0-29.852,260.87-35.162,365.219c-0.832,16.36,4.073,32.527,14.026,46.471l51.908,72.723l-131.923-67.161l-2.626-13.888
					l21.596-25.618l-28.287-292.24c-1.661-17.168,2.445-34.385,11.827-49.593l27.288-44.226L2241.995,2681.459z"/>

					<linearGradient id="SVGID_00000047750240592207028920000007851441736252464286_" gradientUnits="userSpaceOnUse" x1="-5560.083" y1="3167.6548" x2="-5395.3311" y2="3167.6548" gradientTransform="matrix(-1 0 0 1 -3258.5825 0)">
					<stop  offset="0" style="stop-color:#09005D"/>
					<stop  offset="1" style="stop-color:#1A0F91"/>
				</linearGradient>
				<path style="fill:url(#SVGID_00000047750240592207028920000007851441736252464286_);" d="M2290.368,3221.647h-42.099
					c-7.88,0-15.312-3.121-20.117-8.509c-13.125-14.712-40.316-43.416-53.319-44.166c-17.503-1.009-15.264,52.675-15.264,52.675
					h-9.811l-12.428-66.708c-3.126-16.784,6.548-33.412,24.018-41.276l0,0c0,0,4.001,25.528,25.697,36.82
					c21.694,11.292,88.284,51.729,88.284,51.729s8.156-1.004,17.11,0.393C2305.722,3204.676,2303.867,3221.647,2290.368,3221.647z"
					/>

					<linearGradient id="SVGID_00000062879061959600078140000010541052075000774573_" gradientUnits="userSpaceOnUse" x1="-5213.918" y1="3548.7734" x2="-5088.1528" y2="2078.8916" gradientTransform="matrix(-1 0 0 1 -3258.5825 0)">
					<stop  offset="0" style="stop-color:#FEBBBA"/>
					<stop  offset="1" style="stop-color:#FF928E"/>
				</linearGradient>
				<path style="fill:url(#SVGID_00000062879061959600078140000010541052075000774573_);" d="M2061.305,2702.946
					c0,0-174.883,286.199-202.682,351.543c-27.799,65.344-37.538,119.855-37.911,125.018c-0.583,8.066-12.211,15.802-44.265,15.802
					c-16.542,0-24.645-5.721-28.611-11.258c-3.384-4.725-3.559-10.637-0.707-15.615c10.115-17.662,42.219-74.108,54.109-99.709
					c14.194-30.565,44.73-169.088,61.477-217.25c16.747-48.163,35.676-100.406,108.603-148.53
					C1971.318,2702.946,2021.379,2660.644,2061.305,2702.946z"/>

					<linearGradient id="SVGID_00000114031191599294856960000003749445397503020970_" gradientUnits="userSpaceOnUse" x1="2610.0596" y1="1782.7188" x2="2489.6873" y2="1883.0291">
					<stop  offset="0" style="stop-color:#FF928E"/>
					<stop  offset="1" style="stop-color:#FE7062"/>
				</linearGradient>
				<path style="fill:url(#SVGID_00000114031191599294856960000003749445397503020970_);" d="M2171.78,2233.994
					c45.112-164.918-69.17-258.193-69.17-258.193c72.11-59.716,203.493-86.89,203.493-86.89s125.367,79.075,110.494,140.967
					c-8.716,36.276-88.12,217.284-88.12,217.284S2255.052,2277.142,2171.78,2233.994z"/>

					<linearGradient id="SVGID_00000056398483958207505650000015442799049051514047_" gradientUnits="userSpaceOnUse" x1="2445.4097" y1="2337.8745" x2="1887.0189" y2="2674.02">
					<stop  offset="0" style="stop-color:#09005D"/>
					<stop  offset="1" style="stop-color:#1A0F91"/>
				</linearGradient>
				<path style="fill:url(#SVGID_00000056398483958207505650000015442799049051514047_);" d="M2071.762,2315.639
					c18.359-47.715,100.018-81.645,100.018-81.645c83.272,43.148,156.697,13.169,156.697,13.169s16.466,54.3,5.101,104.763
					c-11.365,50.463-82.668,374.773-82.668,374.773c-112.351,19.639-285.144-19.76-285.144-19.76
					C2037.329,2597.324,2053.402,2363.355,2071.762,2315.639z"/>

					<linearGradient id="SVGID_00000022553416652493142030000010784903875867456400_" gradientUnits="userSpaceOnUse" x1="-5528.5186" y1="2072.4375" x2="-5504.8765" y2="1899.4778" gradientTransform="matrix(-1 0 0 1 -3258.5825 0)">
					<stop  offset="0" style="stop-color:#FEBBBA"/>
					<stop  offset="1" style="stop-color:#FF928E"/>
				</linearGradient>
				<path style="fill:url(#SVGID_00000022553416652493142030000010784903875867456400_);" d="M2224.144,1779.93l-36.677,142.131
					c-3.511,12.52,9.718,10.47,24.389,8.084c24.025-3.907,54.991-11.956,65.343-28.085c1.053-1.641,1.58-3.497,1.876-5.356
					l15.758-98.558c1.25-7.819-3.649-15.408-12.013-18.608l-30.406-11.631C2240.707,1763.428,2227.156,1769.19,2224.144,1779.93z"/>
				<g>

						<linearGradient id="SVGID_00000058580023325149391230000007580069062014264975_" gradientUnits="userSpaceOnUse" x1="-4045.3022" y1="19.3442" x2="-3834.5835" y2="-355.6645" gradientTransform="matrix(-0.84 -0.5425 -0.5425 0.84 -1106.1176 -313.7175)">
						<stop  offset="0" style="stop-color:#FEBBBA"/>
						<stop  offset="1" style="stop-color:#FF928E"/>
					</linearGradient>
					<path style="fill:url(#SVGID_00000058580023325149391230000007580069062014264975_);" d="M2339.681,1686.498
						c0,0,27.879,35.601,22.049,95.765c-5.832,60.165-38.86,69.465-64.366,57.968c-25.507-11.499-60.423-33.381-77.687-85.057
						C2202.412,1703.498,2302.403,1641.721,2339.681,1686.498z"/>

						<linearGradient id="SVGID_00000079468614685670862640000009086789724467067282_" gradientUnits="userSpaceOnUse" x1="3046.4468" y1="379.152" x2="2521.0559" y2="1154.1047" gradientTransform="matrix(0.9295 0.3689 -0.3689 0.9295 -271.8948 124.188)">
						<stop  offset="0" style="stop-color:#09005D"/>
						<stop  offset="1" style="stop-color:#1A0F91"/>
					</linearGradient>
					<path style="fill:url(#SVGID_00000079468614685670862640000009086789724467067282_);" d="M2261.229,1746.468
						c0,0,17.404-82.618,87.136-41.245l9.684,19.491c0,0,50.48-20.936,20.786-63.694c-29.696-42.76-88.361-58.114-138.649-21.691
						c-50.288,36.424-75.108,66.194-61.179,106.759c13.929,40.565,43.748,22.353,43.748,22.353s-1.499-30.92,12.836-38.244
						c14.334-7.322,20.014,15.513,20.014,15.513L2261.229,1746.468z"/>

						<linearGradient id="SVGID_00000062183445754379074990000017712244975445278649_" gradientUnits="userSpaceOnUse" x1="-4000.1211" y1="53.7079" x2="-3789.708" y2="-320.7568" gradientTransform="matrix(-0.84 -0.5425 -0.5425 0.84 -1106.1176 -313.7175)">
						<stop  offset="0" style="stop-color:#FEBBBA"/>
						<stop  offset="1" style="stop-color:#FF928E"/>
					</linearGradient>
					<path style="fill:url(#SVGID_00000062183445754379074990000017712244975445278649_);" d="M2250.366,1760.445
						c0,0,9.23-42.397-18.841-40.372c-28.071,2.025-6.266,40.541,3.099,54.418L2250.366,1760.445z"/>
				</g>
			</g>
			<g>

					<linearGradient id="SVGID_00000057112072928878928980000006283589942008034223_" gradientUnits="userSpaceOnUse" x1="-178.9818" y1="1992.7581" x2="-285.5882" y2="1789.045" gradientTransform="matrix(-0.7029 -0.7112 -0.7112 0.7029 3722.27 789.096)">
					<stop  offset="0" style="stop-color:#09005D"/>
					<stop  offset="1" style="stop-color:#1A0F91"/>
				</linearGradient>
				<path style="fill-rule:evenodd;clip-rule:evenodd;fill:url(#SVGID_00000057112072928878928980000006283589942008034223_);" d="
					M2372.285,2289.464c0,0-6.609-35.169,20.501-42.747c0,0-12.279-40.569,26.1-40.439c0,0,65.625-81.585,118.557,2.044
					c0,0,118.458,7.181,71.606,96.885c0,0,31.052,27.785-14.131,50.192c0,0-36.523,109.8-118.844,39.015L2372.285,2289.464z"/>

					<linearGradient id="SVGID_00000111911874110172383630000011728238160744370109_" gradientUnits="userSpaceOnUse" x1="1861.3125" y1="2244.387" x2="1725.3833" y2="2600.6772" gradientTransform="matrix(1 0 0 1 846 0)">
					<stop  offset="0" style="stop-color:#C4421B"/>
					<stop  offset="1" style="stop-color:#5C0E16"/>
				</linearGradient>
				<path style="fill:url(#SVGID_00000111911874110172383630000011728238160744370109_);" d="M2746.342,2210.339
					c-24.579-25.243-42.371,8.659-42.371,8.659c-19.784,6.666-0.002,49.202,0,49.208c-12.112,23.469-75.298,144.109-109.55,173.869
					c-37.991,33.013,23.118,41.613,23.118,41.613s68.278-31.948,106.559-205.804c0.318-0.117,0.63-0.248,0.896-0.452
					C2730.218,2273.446,2770.921,2235.582,2746.342,2210.339z"/>

					<linearGradient id="SVGID_00000110429063351411709080000013755895418166008757_" gradientUnits="userSpaceOnUse" x1="2232.8813" y1="1689.6038" x2="2129.7043" y2="1960.0459" gradientTransform="matrix(0.9801 0.1984 -0.1984 0.9801 498.2334 181.5726)">
					<stop  offset="0" style="stop-color:#C4421B"/>
					<stop  offset="1" style="stop-color:#5C0E16"/>
				</linearGradient>
				<path style="fill:url(#SVGID_00000110429063351411709080000013755895418166008757_);" d="M2362.773,2462.224
					c-24.888-32.356-58.714-154.572-70.608-199.602c5.405-7.907,23.92-37.177,8.34-46.197c0,0-10.712-36.758-39.811-16.894
					c-26.841,18.323-1.386,58.166,6.124,68.122c-0.45,99.784,46.846,221.466,46.846,221.466S2393.459,2502.117,2362.773,2462.224z"
					/>

					<linearGradient id="SVGID_00000121238562615088488740000005270586379742193820_" gradientUnits="userSpaceOnUse" x1="7.4123" y1="3202.0444" x2="101.885" y2="3202.0444" gradientTransform="matrix(-1 -0.0047 -0.0047 1 2500.8052 4.0466)">
					<stop  offset="0" style="stop-color:#09005D"/>
					<stop  offset="1" style="stop-color:#1A0F91"/>
				</linearGradient>
				<path style="fill-rule:evenodd;clip-rule:evenodd;fill:url(#SVGID_00000121238562615088488740000005270586379742193820_);" d="
					M2473.138,3183.881c0,0,5.509,20.456,5.13,35.564c-0.06,2.373-1.82,4.349-4.172,4.672c-13.808,1.904-60.946,7.555-86.839,0.013
					c-2.086-0.609-3.512-2.552-3.45-4.723c0.236-8.129,5.958-27.206,53.259-32.076L2473.138,3183.881z"/>

					<linearGradient id="SVGID_00000037693467763184021940000000973726384119275672_" gradientUnits="userSpaceOnUse" x1="270.2466" y1="3162.4626" x2="288.1159" y2="2726.1563" gradientTransform="matrix(-0.9977 0.0685 0.0685 0.9977 2505.5278 -47.5666)">
					<stop  offset="0" style="stop-color:#C4421B"/>
					<stop  offset="1" style="stop-color:#5C0E16"/>
				</linearGradient>
				<path style="fill-rule:evenodd;clip-rule:evenodd;fill:url(#SVGID_00000037693467763184021940000000973726384119275672_);" d="
					M2391.754,2870.999c-5.822,3.802,38.093,312.178,48.733,314.419c0,0,12.17,11.309,30.95-1.581
					c-10.842-100.506-17.443-202.447-11.606-306.631L2391.754,2870.999z"/>

					<linearGradient id="SVGID_00000060006841071619352590000001456607549348764081_" gradientUnits="userSpaceOnUse" x1="-97.7593" y1="3201.55" x2="-3.2861" y2="3201.55" gradientTransform="matrix(-1 -0.0047 -0.0047 1 2500.8052 4.0466)">
					<stop  offset="0" style="stop-color:#09005D"/>
					<stop  offset="1" style="stop-color:#1A0F91"/>
				</linearGradient>
				<path style="fill-rule:evenodd;clip-rule:evenodd;fill:url(#SVGID_00000060006841071619352590000001456607549348764081_);" d="
					M2578.312,3183.881c0,0,5.51,20.456,5.13,35.564c-0.06,2.373-1.82,4.349-4.173,4.672c-13.808,1.904-60.946,7.555-86.839,0.013
					c-2.086-0.609-3.512-2.552-3.449-4.723c0.236-8.129,5.958-27.206,53.259-32.076L2578.312,3183.881z"/>

					<linearGradient id="SVGID_00000160899021423238536750000000521229543623107716_" gradientUnits="userSpaceOnUse" x1="165.3248" y1="3169.6663" x2="183.1942" y2="2733.3599" gradientTransform="matrix(-0.9977 0.0685 0.0685 0.9977 2505.5278 -47.5666)">
					<stop  offset="0" style="stop-color:#C4421B"/>
					<stop  offset="1" style="stop-color:#5C0E16"/>
				</linearGradient>
				<path style="fill-rule:evenodd;clip-rule:evenodd;fill:url(#SVGID_00000160899021423238536750000000521229543623107716_);" d="
					M2496.927,2870.999c-5.823,3.802,38.093,312.178,48.733,314.419c0,0,12.169,11.309,30.949-1.581
					c-10.842-100.506-17.442-202.447-11.606-306.631L2496.927,2870.999z"/>

					<linearGradient id="SVGID_00000088833716160529415140000005303276122384004023_" gradientUnits="userSpaceOnUse" x1="2796.1692" y1="2282.4595" x2="2337.7419" y2="2999.2739">
					<stop  offset="0" style="stop-color:#09005D"/>
					<stop  offset="1" style="stop-color:#1A0F91"/>
				</linearGradient>
				<path style="fill-rule:evenodd;clip-rule:evenodd;fill:url(#SVGID_00000088833716160529415140000005303276122384004023_);" d="
					M2545.777,2683.834c0,0-143.214,6.551-177.323,18.526c0,0,4.203,116.436,18.204,187.987c0.542,2.775,2.641,4.974,5.396,5.613
					c9.189,2.131,32.322,5.177,68.985-5.09c3.26-0.913,5.428-4.008,5.196-7.384l-3.783-46.379c-0.214-3.113,2.137-5.811,5.251-6.025
					l3.835-0.581c3.245-0.222,6.008,2.334,6.037,5.586l7.24,47.036c0.028,3.046,1.969,5.737,4.855,6.714
					c10.765,3.647,38.778,10.453,75.719-0.802c2.977-0.907,5.042-3.652,5.062-6.764
					C2570.826,2825.181,2560.572,2756.898,2545.777,2683.834z"/>

					<linearGradient id="SVGID_00000049223824083744069150000014916487868274774160_" gradientUnits="userSpaceOnUse" x1="132.438" y1="2708.6936" x2="185.4958" y2="2781.0454" gradientTransform="matrix(-0.9977 0.0685 0.0685 0.9977 2505.5278 -47.5666)">
					<stop  offset="0" style="stop-color:#09005D"/>
					<stop  offset="1" style="stop-color:#1A0F91"/>
				</linearGradient>
				<path style="fill-rule:evenodd;clip-rule:evenodd;fill:url(#SVGID_00000049223824083744069150000014916487868274774160_);" d="
					M2492.093,2693.874c0,0,18.101,50.332,61.789,53.821l-9.659-57.399C2544.222,2690.296,2510.386,2690.044,2492.093,2693.874z"/>

					<linearGradient id="SVGID_00000106123243791623837650000009267676159749836479_" gradientUnits="userSpaceOnUse" x1="15.8896" y1="2599.5237" x2="-49.4809" y2="3005.1204" gradientTransform="matrix(-1 0 0 1 2497.3521 0)">
					<stop  offset="0" style="stop-color:#FF928E"/>
					<stop  offset="1" style="stop-color:#FE7062"/>
				</linearGradient>
				<path style="fill-rule:evenodd;clip-rule:evenodd;fill:url(#SVGID_00000106123243791623837650000009267676159749836479_);" d="
					M2612.915,2418.959c0,0-64.729,41.612-143.327,36.988c-78.602-4.624-112.051-35.152-130.543-58.269
					c-0.3,0.125-22.099,5.911-48.675,32.909c-4.099,4.164-5.013,10.51-2.207,15.636c17.448,31.876,39.77,55.632,49.831,75.776
					c7.306,8.052,11.225,18.613,10.939,29.481l-3.988,151.511c-0.11,4.201,2.806,7.858,6.936,8.641
					c28.732,5.453,137.773,24.436,205.554,12.475l0-163.414c0-12.04,6.517-23.124,17.059-28.941
					c14.237-7.855,35.576-23.347,56.916-52.689L2612.915,2418.959z"/>

					<linearGradient id="SVGID_00000068638489366669757490000005277230976726856067_" gradientUnits="userSpaceOnUse" x1="-10.1182" y1="2580.4353" x2="59.5242" y2="2319.2759" gradientTransform="matrix(-1 0 0 1 2497.3521 0)">
					<stop  offset="0" style="stop-color:#C4421B"/>
					<stop  offset="1" style="stop-color:#5C0E16"/>
				</linearGradient>
				<path style="fill-rule:evenodd;clip-rule:evenodd;fill:url(#SVGID_00000068638489366669757490000005277230976726856067_);" d="
					M2500.644,2384.015l7.104,78.01c0,0-41.175,24.058-76.598,3.025l6.292-68.137L2500.644,2384.015z"/>

					<linearGradient id="SVGID_00000012441918912787664860000002274784242033823630_" gradientUnits="userSpaceOnUse" x1="-5566.8105" y1="210.2526" x2="-5732.4971" y2="152.9781" gradientTransform="matrix(-0.7711 -0.6367 -0.6367 0.7711 3767.0581 680.1392)">
					<stop  offset="0" style="stop-color:#C4421B"/>
					<stop  offset="1" style="stop-color:#5C0E16"/>
				</linearGradient>
				<path style="fill-rule:evenodd;clip-rule:evenodd;fill:url(#SVGID_00000012441918912787664860000002274784242033823630_);" d="
					M2425.43,2239.818c0,0-124.394,93.022-54.139,160.186c66.305,63.39,128.428-5.689,128.428-5.689s47.512-23.559,45.735-55.385
					S2450.552,2231.71,2425.43,2239.818z"/>

					<linearGradient id="SVGID_00000049899974461149253840000014940403084698124953_" gradientUnits="userSpaceOnUse" x1="-19.2027" y1="2106.4124" x2="-100.8812" y2="1950.3339" gradientTransform="matrix(-0.7711 -0.6367 -0.6367 0.7711 3767.0581 680.1392)">
					<stop  offset="0" style="stop-color:#09005D"/>
					<stop  offset="1" style="stop-color:#1A0F91"/>
				</linearGradient>
				<path style="fill-rule:evenodd;clip-rule:evenodd;fill:url(#SVGID_00000049899974461149253840000014940403084698124953_);" d="
					M2516.667,2374.149c-4.557-2.18-8.618-5.973-11.63-11.594c-4.486-8.372-4.995-18.551-2.432-27.696
					c0.658-2.349,1.474-5.011,0.204-7.094c-1.529-2.508-5.029-2.61-7.95-2.918c-8.947-0.941-17.21-6.844-21.002-15.001
					c-3.792-8.158-2.978-18.28,2.069-25.727c-12.006-3.103-13.318-12.546-21.822-18.439c-7.813-5.415-19.064-0.816-27.662-4.342
					c-6.335-2.599-19.491-12.271-17.699-20.743c0.801-3.79,11.747-11.833,15.284-14.335c15.854-11.214,33.154-7.855,47.18,4.813
					c40.469,36.552,76.706,71.97,84.431,90.468c5.416,12.969,5.058,29.677-3.498,41.233
					C2543.286,2374.733,2528.349,2379.74,2516.667,2374.149z"/>

					<linearGradient id="SVGID_00000033332689909863533500000007455096437233439413_" gradientUnits="userSpaceOnUse" x1="-5573.6494" y1="230.0692" x2="-5739.3359" y2="172.7948" gradientTransform="matrix(-0.7711 -0.6367 -0.6367 0.7711 3767.0581 680.1392)">
					<stop  offset="0" style="stop-color:#C4421B"/>
					<stop  offset="1" style="stop-color:#5C0E16"/>
				</linearGradient>
				<path style="fill-rule:evenodd;clip-rule:evenodd;fill:url(#SVGID_00000033332689909863533500000007455096437233439413_);" d="
					M2485.455,2401.491l27.862-33.644c0,0,31.633-2.79,20.547,16.967C2522.779,2404.571,2494.211,2407.474,2485.455,2401.491z"/>
			</g>
			<g>

					<linearGradient id="SVGID_00000070800682542172910800000006462465322392568749_" gradientUnits="userSpaceOnUse" x1="-2434.8406" y1="1506.3623" x2="-2790.4336" y2="889.6296" gradientTransform="matrix(-1 0 0 1 84.0555 0)">
					<stop  offset="0" style="stop-color:#FEBBBA"/>
					<stop  offset="1" style="stop-color:#FF928E"/>
				</linearGradient>
				<path style="fill:url(#SVGID_00000070800682542172910800000006462465322392568749_);" d="M2132.736,1979.129
					c-13.358-6.24-30.008-4.296-41.616,4.158c-23.112,16.832-76.181,67.148-81.723,177.106
					c-7.107,141.024,241.639,104.235,241.639,104.235l14.215-30.657c0,0-177.676-6.131-177.676-67.446
					c0-43.184,51.592-93.376,74.521-113.552c8.781-7.726,12.641-18.905,9.415-29.361
					C2166.022,2005.825,2150.575,1987.461,2132.736,1979.129z"/>

					<linearGradient id="SVGID_00000065757143271605393620000005094561996147143053_" gradientUnits="userSpaceOnUse" x1="-2581.1963" y1="1590.7483" x2="-2936.7883" y2="974.0171" gradientTransform="matrix(-1 0 0 1 84.0555 0)">
					<stop  offset="0" style="stop-color:#FEBBBA"/>
					<stop  offset="1" style="stop-color:#FF928E"/>
				</linearGradient>
				<path style="fill:url(#SVGID_00000065757143271605393620000005094561996147143053_);" d="M2232.659,2233.994
					c0,0,25.485-12.286,46.806-18.418c21.321-6.131,28.428,0,28.428,0s-21.321,6.131-28.428,12.263
					c-7.107,6.131,34.023,6.178,48.993,6.155c14.97-0.023,17.611,30.133,2.076,39.581c-15.534,9.448-58.177,27.843-100.819-8.946
					L2232.659,2233.994z"/>
			</g>
		</g>

	</g>
</g>
</svg>
