<?xml version="1.0" encoding="utf-8"?>
<!-- Generator: Adobe Illustrator 27.5.0, SVG Export Plug-In . SVG Version: 6.00 Build 0)  -->
<svg version="1.1" xmlns="http://www.w3.org/2000/svg" xmlns:xlink="http://www.w3.org/1999/xlink" x="0px" y="0px"
	 viewBox="0 0 430 500" height="600" width="500" xml:space="preserve">


<g id="Sign">
	<g>
		<rect x="124.147" y="125.992" style="fill:#2E353A;" width="5.397" height="266.915"/>
		<path style="fill:#407BFF;" d="M146.084,163.462h-38.477c-2.641,0-4.782-2.141-4.782-4.781v-38.477
			c0-2.641,2.141-4.782,4.782-4.782h38.477c2.641,0,4.782,2.141,4.782,4.782v38.477
			C150.865,161.322,148.725,163.462,146.084,163.462z"/>
		<path style="fill:none;stroke:#FFFFFF;stroke-width:2;stroke-miterlimit:10;" d="M107.607,160.462
			c-0.982,0-1.782-0.799-1.782-1.782v-38.477c0-0.982,0.799-1.782,1.782-1.782h38.477c0.982,0,1.781,0.799,1.781,1.782v38.477
			c0,0.982-0.799,1.782-1.781,1.782H107.607z"/>

			<text transform="matrix(1 0 0 1 116.6697 147.6416)" style="fill:#FFFFFF; font-family:'Montserrat-SemiBold'; font-size:28.032px;">P</text>
		<polygon style="opacity:0.4;fill:#FFFFFF;enable-background:new    ;" points="129.544,392.907 124.147,392.907 124.147,207.998
			129.544,214.998 		"/>
		<g>
			<path style="fill:#407BFF;" d="M145.433,201.643h-38.006c-1.344,0-2.433-1.089-2.433-2.433v-22.041
				c0-1.344,1.089-2.433,2.433-2.433h38.006c1.343,0,2.433,1.089,2.433,2.433v22.041
				C147.865,200.554,146.776,201.643,145.433,201.643z"/>
			<path style="opacity:0.4;fill:#FFFFFF;enable-background:new    ;" d="M145.433,201.643h-38.006
				c-1.344,0-2.433-1.089-2.433-2.433v-22.041c0-1.344,1.089-2.433,2.433-2.433h38.006c1.343,0,2.433,1.089,2.433,2.433v22.041
				C147.865,200.554,146.776,201.643,145.433,201.643z"/>
		</g>
		<g>
			<path style="fill:#FFFFFF;" d="M121.635,191.749c0,1.966-1.593,3.559-3.559,3.559s-3.559-1.593-3.559-3.559
				c0-1.966,1.593-3.559,3.559-3.559S121.635,189.783,121.635,191.749z"/>
			<path style="fill:#FFFFFF;" d="M137.36,191.749c0,1.966-1.593,3.559-3.559,3.559c-1.966,0-3.559-1.593-3.559-3.559
				c0-1.966,1.593-3.559,3.559-3.559C135.766,188.19,137.36,189.783,137.36,191.749z"/>
			<path style="fill:#FFFFFF;" d="M117.451,187.066c0,0,1.286-2.473,3.066-3.462l-0.692-0.989c0,0,1.681-0.89,2.374-0.989
				c0.692-0.099,0.692,0.692,0.692,0.692l2.571-0.198v0.692l-2.077,0.396l-1.75,1.133l0.86,1.043l-0.86,1.681l1.948,4.683h3.263
				l1.979-5.065l-1.088-1.299l0.297-1.484l6.231-0.593l0.692,1.385l-1.155,1.187l1.155,1.286c0,0-6.033,0.593-5.341,5.341
				l-0.396,0.791H122c0,0,0.494-2.67-1.187-4.451c-1.681-1.78-4.648-0.657-4.648-0.657S115.769,187.066,117.451,187.066z"/>
		</g>
	</g>
</g>

<g id="vehicle_1">
	<g>
		<g>
			<ellipse style="fill:#2E353A;" cx="237.032" cy="373.844" rx="36.322" ry="43.825"/>
			<ellipse cx="243.112" cy="373.844" rx="22.909" ry="27.642"/>
			<g>
				<ellipse style="fill:#407BFF;" cx="248.373" cy="373.478" rx="9.542" ry="11.513"/>
				<ellipse style="opacity:0.4;enable-background:new    ;" cx="248.373" cy="373.478" rx="9.542" ry="11.513"/>
			</g>
		</g>
		<polygon points="199.367,331.495 209.388,361.965 204.378,364.115 195.344,337.335 		"/>
		<g>
			<path style="fill:#2E353A;" d="M203.583,338.07l-7.149,5.745c-0.441,0.354-1.086,0.284-1.44-0.157l0,0
				c-0.354-0.441-0.284-1.086,0.157-1.44l7.149-5.745c0.441-0.354,1.086-0.284,1.44,0.157l0,0
				C204.095,337.071,204.024,337.716,203.583,338.07z"/>
			<path style="fill:#2E353A;" d="M204.844,341.867l-7.149,5.745c-0.441,0.354-1.086,0.284-1.44-0.157l0,0
				c-0.354-0.441-0.284-1.086,0.157-1.44l7.149-5.745c0.441-0.354,1.086-0.284,1.44,0.157v0
				C205.355,340.868,205.285,341.513,204.844,341.867z"/>
			<path style="fill:#2E353A;" d="M206.105,345.664l-7.149,5.745c-0.441,0.354-1.086,0.284-1.44-0.157l0,0
				c-0.354-0.441-0.284-1.086,0.157-1.44l7.149-5.745c0.441-0.354,1.086-0.284,1.44,0.157l0,0
				C206.616,344.665,206.546,345.31,206.105,345.664z"/>
			<path style="fill:#2E353A;" d="M207.366,349.461l-7.149,5.745c-0.441,0.354-1.086,0.284-1.44-0.157l0,0
				c-0.354-0.441-0.284-1.086,0.157-1.44l7.149-5.745c0.441-0.354,1.086-0.284,1.44,0.157l0,0
				C207.877,348.462,207.807,349.107,207.366,349.461z"/>
			<path style="fill:#2E353A;" d="M208.627,353.258l-7.149,5.745c-0.441,0.355-1.086,0.284-1.44-0.157l0,0
				c-0.354-0.441-0.284-1.086,0.157-1.44l7.149-5.745c0.441-0.354,1.086-0.284,1.44,0.157l0,0
				C209.138,352.259,209.068,352.904,208.627,353.258z"/>
			<path style="fill:#2E353A;" d="M209.888,357.055l-7.149,5.745c-0.441,0.354-1.086,0.284-1.44-0.157l0,0
				c-0.354-0.441-0.284-1.086,0.157-1.44l7.149-5.745c0.441-0.354,1.086-0.284,1.44,0.157l0,0
				C210.399,356.056,210.329,356.701,209.888,357.055z"/>
		</g>
		<g>
			<polygon style="fill:#2E353A;" points="189.943,357.514 265.304,354.328 269.671,359.268 257.616,359.777 250.932,374.965
				184.283,377.782 			"/>
			<polygon style="opacity:0.1;fill:#FFFFFF;enable-background:new    ;" points="199.934,357.091 265.304,354.328 269.671,359.268
				257.616,359.777 250.932,374.965 194.275,377.36 			"/>
		</g>
		<polygon style="fill:#2E353A;" points="168.037,379.276 156.666,417.482 159.614,417.482 169.894,387.32 179.156,387.32
			183.08,417.482 185.852,417.482 183.822,378.974 		"/>
		<g>
			<path style="fill:#407BFF;" d="M109.994,319.129l-5.728,18.022l-12.884,40.566l-4.889-3.028l12.478-40.618l5.767-18.782
				C106.298,316.35,108.067,317.635,109.994,319.129z"/>
			<path style="opacity:0.6;fill:#FFFFFF;enable-background:new    ;" d="M109.994,319.129l-5.728,18.022l-12.884,40.566
				l-4.889-3.028l12.478-40.618l5.767-18.782C106.298,316.35,108.067,317.635,109.994,319.129z"/>
			<path style="fill:#2E353A;" d="M125.815,275.146l-20.081,62.005h-1.52c-2.818-3.342-5.243-3.08-5.243-3.08l-1.009-1.481
				l20.601-59.964C118.654,272.665,122.966,269.363,125.815,275.146z"/>
			<path style="fill:#2E353A;" d="M93.884,373.782c0,3.244-1.842,5.873-4.114,5.873s-4.115-2.63-4.115-5.873
				s1.842-5.873,4.115-5.873S93.884,370.538,93.884,373.782z"/>
		</g>
		<path d="M251.915,308.492l18,19.614v1.688h-7.912c0,0-8.505-12.449-26.11-13.219L251.915,308.492z"/>
		<g>
			<path style="fill:#2E353A;" d="M156.666,323.991l12.437,47.636l13.187,12.311l0,0c0,0.847,0.686,1.533,1.533,1.533h9
				c0.847,0,1.533-0.686,1.533-1.533v-24.943c0-7.521,2.74-14.785,7.708-20.432h0c2.873-3.266,6.403-5.89,10.359-7.7l38.109-17.434
				l-2.769-4.937l-63.89,4.148L156.666,323.991z"/>
			<path style="opacity:0.1;fill:#FFFFFF;enable-background:new    ;" d="M156.666,323.991l12.437,47.636l13.187,12.311l0,0
				c0,0.847,0.686,1.533,1.533,1.533h9c0.847,0,1.533-0.686,1.533-1.533v-24.943c0-7.521,2.74-14.785,7.708-20.432h0
				c2.873-3.266,6.403-5.89,10.359-7.7l38.109-17.434l-2.769-4.937l-63.89,4.148L156.666,323.991z"/>
		</g>
		<path style="fill:#2E353A;" d="M184.474,377.48h-23.567c-3.233,0-5.853-2.621-5.853-5.853v-15.09c0-3.233,2.621-5.853,5.853-5.853
			h23.567c3.233,0,5.853,2.621,5.853,5.853v15.09C190.328,374.86,187.707,377.48,184.474,377.48z"/>
		<path style="opacity:0.2;fill:#FFFFFF;enable-background:new    ;" d="M190.332,356.537v15.09c0,3.23-2.63,5.85-5.86,5.85h-23.57
			c-3.23,0-5.85-2.62-5.85-5.85v-15.09c0-3.23,2.62-5.85,5.85-5.85h23.57C187.702,350.687,190.332,353.307,190.332,356.537z"/>
		<path style="opacity:0.2;fill:#FFFFFF;enable-background:new    ;" d="M190.332,356.537v15.09c0,3.23-2.63,5.85-5.86,5.85h-9.52
			c-3.23,0-5.85-2.62-5.85-5.85v-15.09c0-3.23,2.62-5.85,5.85-5.85h9.52C187.702,350.687,190.332,353.307,190.332,356.537z"/>
		<path style="fill:#407BFF;" d="M120.746,290.707c4.721-4.732,18.003-8.879,36.003,0c18,8.879,25.319,20.112,21.363,25.869
			c-3.956,5.757-30.264,20.618-47.67,12.594C113.035,321.146,112.634,298.838,120.746,290.707z"/>
		<path style="opacity:0.2;enable-background:new    ;" d="M120.746,290.707c4.721-4.732,18.003-8.879,36.003,0
			c18,8.879,25.319,20.112,21.363,25.869c-3.956,5.757-30.264,20.618-47.67,12.594C113.035,321.146,112.634,298.838,120.746,290.707
			z"/>
		<path style="fill:#407BFF;" d="M199.033,314.365c-0.15,0.8-0.46,1.54-0.92,2.21c-3.96,5.76-30.26,20.62-47.67,12.6
			c-17.41-8.03-17.81-30.34-9.69-38.47c4.72-4.73,18-8.88,36,0c4.52,2.23,8.37,4.61,11.53,7.01
			C196.253,303.765,199.892,309.985,199.033,314.365z"/>
		<path style="fill:#263238;" d="M110.304,303.063h22.629c2.209,0,4-1.791,4-4v-8.27c0-2.22-1.348-6.174-3.567-6.174l-19.871,2.156
			L110.304,303.063z"/>
		<path style="fill:#263238;" d="M145.003,371.973h-8.276c-2.285,0-4.395-1.249-5.471-3.264
			c-4.33-8.115-16.926-28.912-34.635-34.028c-22.136-6.395,12.031-10.233,24.33-1.4C133.25,342.112,145.003,371.973,145.003,371.973
			z"/>
		<path style="opacity:0.4;enable-background:new    ;" d="M145.003,371.973h-8.276c-2.285,0-4.395-1.249-5.471-3.264
			c-4.33-8.115-16.926-28.912-34.635-34.028c-22.136-6.395,12.031-10.233,24.33-1.4C133.25,342.112,145.003,371.973,145.003,371.973
			z"/>
		<ellipse style="fill:#2E353A;" cx="96.622" cy="375.536" rx="34.92" ry="42.133"/>
		<ellipse cx="102.467" cy="375.536" rx="22.025" ry="26.574"/>
		<g>
			<ellipse style="fill:#407BFF;" cx="107.524" cy="375.184" rx="9.174" ry="11.069"/>
			<ellipse style="opacity:0.4;enable-background:new    ;" cx="107.524" cy="375.184" rx="9.174" ry="11.069"/>
		</g>
		<path style="fill:#407BFF;" d="M68.409,349.163h3.883c3.226,0,6.346-1.067,8.927-3.001c6.029-4.516,18.774-12.085,32.013-7.695
			c15.332,5.084,25.741,25.19,28.707,31.56c0.555,1.193,1.748,1.946,3.064,1.946l0,0c0,0-4.822-39.38-31.771-50.083
			c-26.139-10.382-43.84,11.465-47.657,23.389C64.96,347.201,66.39,349.163,68.409,349.163z"/>
		<g>
			<path style="fill:#407BFF;" d="M130.995,319.129l-5.728,18.022l-12.884,40.566l-4.889-3.028l12.478-40.618l5.767-18.782
				C127.299,316.35,129.069,317.635,130.995,319.129z"/>
			<path style="opacity:0.6;fill:#FFFFFF;enable-background:new    ;" d="M130.995,319.129l-5.728,18.022l-12.884,40.566
				l-4.889-3.028l12.478-40.618l5.767-18.782C127.299,316.35,129.069,317.635,130.995,319.129z"/>
			<path style="fill:#2E353A;" d="M146.817,275.146l-20.081,62.005h-1.52c-2.818-3.342-5.243-3.08-5.243-3.08l-1.009-1.481
				l20.601-59.964C139.656,272.665,143.967,269.363,146.817,275.146z"/>
			<path style="fill:#2E353A;" d="M114.885,373.782c0,3.244-1.842,5.873-4.114,5.873s-4.115-2.63-4.115-5.873
				s1.842-5.873,4.115-5.873S114.885,370.538,114.885,373.782z"/>
		</g>
		<g>
			<g>
				<path style="fill:#407BFF;" d="M120.288,288.353c0,0-2.321,14.608-9.984,14.71c-7.183,0.095-7.853-13.62-1-15.728
					C114.84,285.631,120.288,288.353,120.288,288.353z"/>
				<path style="fill:#263238;" d="M120.288,288.353c0,0-2.321,14.608-9.984,14.71c-7.183,0.095-7.853-13.62-1-15.728
					C114.84,285.631,120.288,288.353,120.288,288.353z"/>
			</g>
			<path style="fill:#407BFF;" d="M105.003,295.07c-0.17,3.71,2.065,6.717,4.993,6.717c2.927,0,5.438-3.007,5.608-6.717
				c0.17-3.71-2.065-6.717-4.993-6.717C107.684,288.353,105.173,291.36,105.003,295.07z"/>
			<path style="opacity:0.7;fill:#FFFFFF;enable-background:new    ;" d="M105.003,295.07c-0.17,3.71,2.065,6.717,4.993,6.717
				c2.927,0,5.438-3.007,5.608-6.717c0.17-3.71-2.065-6.717-4.993-6.717C107.684,288.353,105.173,291.36,105.003,295.07z"/>
			<path style="fill:#FFFFFF;" d="M111.607,296.822c0,1.641-1.033,2.971-2.306,2.971c-1.274,0-2.306-1.33-2.306-2.971
				c0-1.641,1.033-2.971,2.306-2.971C110.575,293.851,111.607,295.181,111.607,296.822z"/>
			<path style="fill:#FFFFFF;" d="M113.558,292.959c0,0.82-0.516,1.486-1.153,1.486c-0.637,0-1.153-0.665-1.153-1.486
				c0-0.82,0.516-1.486,1.153-1.486C113.041,291.473,113.558,292.138,113.558,292.959z"/>
		</g>
		<g>
			<g>
				<path style="fill:#407BFF;" d="M132.43,288.353c0,0-2.321,14.608-9.984,14.71c-7.183,0.095-7.853-13.62-1-15.728
					C126.983,285.631,132.43,288.353,132.43,288.353z"/>
				<path style="fill:#263238;" d="M132.43,288.353c0,0-2.321,14.608-9.984,14.71c-7.183,0.095-7.853-13.62-1-15.728
					C126.983,285.631,132.43,288.353,132.43,288.353z"/>
			</g>
			<path style="fill:#407BFF;" d="M117.146,295.07c-0.17,3.71,2.066,6.717,4.993,6.717s5.438-3.007,5.608-6.717
				c0.17-3.71-2.065-6.717-4.993-6.717S117.316,291.36,117.146,295.07z"/>
			<path style="opacity:0.7;fill:#FFFFFF;enable-background:new    ;" d="M117.146,295.07c-0.17,3.71,2.066,6.717,4.993,6.717
				s5.438-3.007,5.608-6.717c0.17-3.71-2.065-6.717-4.993-6.717S117.316,291.36,117.146,295.07z"/>
			<path style="fill:#FFFFFF;" d="M123.749,296.822c0,1.641-1.032,2.971-2.306,2.971c-1.274,0-2.306-1.33-2.306-2.971
				c0-1.641,1.033-2.971,2.306-2.971C122.717,293.851,123.749,295.181,123.749,296.822z"/>
			<ellipse style="fill:#FFFFFF;" cx="124.547" cy="292.959" rx="1.153" ry="1.486"/>
		</g>
		<path style="fill:#407BFF;" d="M133.022,297.983L133.022,297.983c0.416,0,0.785-0.265,0.919-0.658l6.727-19.809
			c0.325-0.957-0.387-1.95-1.397-1.95h-16.313c-0.973,0-1.891,0.453-2.483,1.226l-7.542,9.851h16.601
			c1.391,0,2.518,1.127,2.518,2.518v7.853C132.052,297.548,132.486,297.983,133.022,297.983z"/>
		<g>
			<path style="fill:#2E353A;" d="M127.384,316.576h-21.99c-1.449,0-2.2-1.113-1.677-2.486l3.253-8.539
				c0.523-1.373,2.122-2.486,3.571-2.486h21.99c1.449,0,2.2,1.113,1.677,2.486l-3.253,8.539
				C130.432,315.462,128.833,316.576,127.384,316.576z"/>
			<path style="opacity:0.2;fill:#FFFFFF;enable-background:new    ;" d="M127.384,316.576h-21.99c-1.449,0-2.2-1.113-1.677-2.486
				l3.253-8.539c0.523-1.373,2.122-2.486,3.571-2.486h21.99c1.449,0,2.2,1.113,1.677,2.486l-3.253,8.539
				C130.432,315.462,128.833,316.576,127.384,316.576z"/>
		</g>
		<ellipse style="opacity:0.2;fill:#FFFFFF;enable-background:new    ;" cx="176.883" cy="364.082" rx="6.989" ry="11.538"/>
		<path style="fill:#407BFF;" d="M172.719,336.143l3.394,10.313c0.459,1.396,1.762,2.339,3.231,2.339h12.433
			c1.118,0,2.165-0.55,2.8-1.47l8.62-12.494c1.03-1.493,0.708-3.531-0.733-4.633l-6.37-4.875c-1.05-0.803-2.465-0.925-3.638-0.316
			c-3.473,1.804-11.055,5.496-17.172,6.741C173.283,332.154,172.081,334.203,172.719,336.143z"/>
		<path style="fill:#2E353A;" d="M148.465,358.962l8.623,19.198c1.524,3.392,4.93,5.537,8.648,5.44
			c7.169-0.189,18.135,0.183,18.135,0.183s1.978-2.504,1.978-6.461h-13.782c-2.952,0-5.577-1.876-6.533-4.668l-4.561-13.319
			L148.465,358.962z"/>
		<g>
			<path style="fill:#2E353A;" d="M168.023,336.775l-0.04,0.56l-0.08,0.97l-0.21,2.54l-0.07,0.97l-0.21,2.54l-0.08,0.97l-0.2,2.54
				l-0.08,0.97l-0.2,2.54l-0.08,0.97l-0.25,3.11c-0.18,2.19-2.01,3.88-4.21,3.88h-15.34c-1.92,0-3.59-1.29-4.08-3.14l-1.01-3.85
				l-0.26-0.97l-0.67-2.54l-0.25-0.97l-0.67-2.54l-0.26-0.97l-0.67-2.54l-0.25-0.97l-0.67-2.54l-0.26-0.97l-0.59-2.25
				c-0.26-0.97-0.16-2.01,0.29-2.92c0.35-0.72,0.89-1.32,1.55-1.73c0.66-0.41,1.44-0.64,2.24-0.64h19.21c0.92,0,1.82,0.3,2.55,0.85
				l3.19,2.42C167.512,333.935,168.142,335.335,168.023,336.775z"/>
			<path style="opacity:0.2;fill:#FFFFFF;enable-background:new    ;" d="M168.023,336.775l-0.04,0.56l-0.08,0.97l-0.21,2.54
				l-0.07,0.97l-0.21,2.54l-0.08,0.97l-0.2,2.54l-0.08,0.97l-0.2,2.54l-0.08,0.97l-0.25,3.11c-0.18,2.19-2.01,3.88-4.21,3.88h-15.34
				c-1.92,0-3.59-1.29-4.08-3.14l-1.01-3.85l-0.26-0.97l-0.67-2.54l-0.25-0.97l-0.67-2.54l-0.26-0.97l-0.67-2.54l-0.25-0.97
				l-0.67-2.54l-0.26-0.97l-0.59-2.25c-0.26-0.97-0.16-2.01,0.29-2.92c0.35-0.72,0.89-1.32,1.55-1.73c0.66-0.41,1.44-0.64,2.24-0.64
				h19.21c0.92,0,1.82,0.3,2.55,0.85l3.19,2.42C167.512,333.935,168.142,335.335,168.023,336.775z"/>
			<path style="opacity:0.2;fill:#FFFFFF;enable-background:new    ;" d="M168.023,336.775l-0.04,0.56l-0.08,0.97l-0.21,2.54
				l-0.07,0.97l-0.21,2.54l-0.08,0.97l-0.2,2.54l-0.08,0.97l-0.2,2.54l-0.08,0.97l-0.25,3.11c-0.18,2.19-2.01,3.88-4.21,3.88h-1.34
				c-1.91,0-3.59-1.29-4.08-3.14l-1.01-3.85l-0.26-0.97l-0.67-2.54l-0.25-0.97l-0.67-2.54l-0.26-0.97l-0.67-2.54l-0.25-0.97
				l-0.67-2.54l-0.26-0.97l-0.59-2.25c-0.26-0.97-0.16-2.01,0.29-2.92c0.35-0.72,0.89-1.32,1.55-1.73c0.66-0.41,1.44-0.64,2.24-0.64
				h5.21c0.92,0,1.82,0.3,2.55,0.85l3.19,2.42C167.512,333.935,168.142,335.335,168.023,336.775z"/>
			<polygon style="opacity:0.2;enable-background:new    ;" points="167.982,337.335 167.903,338.305 138.182,338.305
				137.922,337.335 			"/>
			<polygon style="opacity:0.2;enable-background:new    ;" points="167.692,340.845 167.622,341.815 139.102,341.815
				138.852,340.845 			"/>
			<polygon style="opacity:0.2;enable-background:new    ;" points="167.412,344.355 167.333,345.325 140.033,345.325
				139.773,344.355 			"/>
			<polygon style="opacity:0.2;enable-background:new    ;" points="167.133,347.865 167.053,348.835 140.952,348.835
				140.702,347.865 			"/>
			<polygon style="opacity:0.2;enable-background:new    ;" points="166.852,351.375 166.773,352.345 141.883,352.345
				141.622,351.375 			"/>
		</g>
		<path style="opacity:0.2;fill:#FFFFFF;enable-background:new    ;" d="M185.852,377.325c0,3.47-1.53,5.83-1.9,6.35
			c-0.05,0.07-0.08,0.11-0.08,0.11s-5.44-0.18-11.16-0.23h-0.78c-1.11-0.01-2.23-0.01-3.31,0c-1,0-1.98,0.01-2.89,0.04
			c-3.71,0.1-7.12-2.04-8.64-5.44l-8.63-19.19l4.05,0.12l8.46,0.25l4.56,13.32c0.96,2.79,3.58,4.67,6.53,4.67H185.852z"/>
		<path style="opacity:0.2;fill:#FFFFFF;enable-background:new    ;" d="M185.852,377.325c0,3.47-1.53,5.83-1.9,6.35
			c-3.03-0.07-7.36-0.15-11.24-0.12h-0.78c-0.76,0.01-1.5,0.02-2.2,0.04c-0.37,0.01-0.75,0-1.11-0.04c-3.27-0.31-6.16-2.35-7.53-5.4
			l-8.58-19.07l8.46,0.25l4.56,13.32c0.96,2.79,3.58,4.67,6.53,4.67H185.852z"/>
		<path style="fill:#2E353A;" d="M199.029,311.656l0.714,0.021c0.779,0.022,1.396,0.661,1.388,1.44
			c-0.014,1.382-0.033,3.458-0.033,4.666c0,2.673,4.928,7.732,5.917,8.02c0.989,0.288,47.077-14.281,47.077-14.281
			s0.791-9.933-3.56-11.936c-4.352-2.003-28.397,0.137-30.462,2.201c-2.064,2.064-9.001,6.706-16.27,6.706
			C203.799,308.492,199.029,309.769,199.029,311.656z"/>
		<path style="fill:#407BFF;" d="M266.992,299.795l-20.22,19.65l-24.03,7.14l-0.73-5.07l23.63-16.74c0.76-0.54,1.04-1.54,0.67-2.4
			l-0.45-1.05c-0.35-0.82-1.15-1.34-2.04-1.34h-18.17c0,0,3.91-1.35,7.27-2.54c3.37-1.19,26.31,0,29.67,0c1.84,0,2.99,0.7,3.64,1.34
			C266.783,299.315,266.992,299.795,266.992,299.795z"/>
		<path style="fill:#2E353A;" d="M141.622,277.827c0,0,8.299,0.207,12.615-9.094h6.871v2.989l19.401,6.105
			c0,0,0.395,3.242-0.791,3.896l-21.165-5.547h-5.601c0,0-4.151,5.35-8.985,5.605C139.133,282.036,141.622,277.827,141.622,277.827z
			"/>
		<path style="fill:#2E353A;" d="M155.52,273.674v4.483c0,0,9.21,1.714,12.517,5.275v1.187h1.197v-1.187c0,0-0.956-2.286-9.62-6.066
			v-3.692H155.52z"/>
		<path style="fill:#2E353A;" d="M120.475,276.791c0,0-1.673-3.777-1.512-7.337h-5.406l-1.153,2.769l-11.874,8.967
			c0,0-0.816,2.901,3.02,2.505l10.562-7.102l-0.555,2.18c0,0-5.11,2.887-6.563,4.959c-1.453,2.073,1.316,1.756,1.316,1.756
			l0.132-1.793c0,0,3.527-3.446,7.17-3.503L120.475,276.791z"/>
		<path style="opacity:0.2;enable-background:new    ;" d="M199.033,314.365c-3.84,7.65-22.02,14.48-29.8,12.22
			c-7.77-2.26-21.76-13.75-9.62-18.09c9.7-3.48,23.51-8.79,28.67-10.78C196.253,303.765,199.892,309.985,199.033,314.365z"/>
		<path style="opacity:0.2;enable-background:new    ;" d="M246.313,302.375l-0.45-1.05c-0.35-0.82-1.15-1.34-2.04-1.34h-18.17
			c0,0,3.91-1.35,7.27-2.54c3.37-1.19,26.31,0,29.67,0c1.84,0,2.99,0.7,3.64,1.34c0,0-14.6,1.74-20.59,5.99
			C246.403,304.235,246.682,303.235,246.313,302.375z"/>
		<path style="fill:#2E353A;" d="M194.355,377.059l18.396-1.582c0,0,10.375-3.674,12.902-3.695
			c2.527-0.02,27.252-1.121,27.252-1.121s3.561,2.4,4.352,4.816s-3.143,7.515-3.143,7.515s-39.29,1.291-40.92,1.261
			c-1.629-0.03-3.805-1.261-3.805-1.261l-15.033-1.054V377.059z"/>
		<path style="opacity:0.2;fill:#FFFFFF;enable-background:new    ;" d="M194.355,377.059l18.396-1.582
			c0,0,10.375-3.674,12.902-3.695c2.527-0.02,27.252-1.121,27.252-1.121s3.561,2.4,4.352,4.816s-3.143,7.515-3.143,7.515
			s-39.29,1.291-40.92,1.261c-1.629-0.03-3.805-1.261-3.805-1.261l-15.033-1.054V377.059z"/>
	</g>
</g>

<g id="vehicle_2">
	<g>
		<g>
			<polygon points="257.344,417.669 264.632,397.387 278.707,397.387 277.915,417.669 275.344,417.669 274.157,399.563
				267.453,399.563 259.52,417.669 			"/>
			<path style="fill:#2E353A;" d="M314.712,387.261l-3.91,8.998c-1.511,3.478-4.942,5.728-8.735,5.728h-16.391
				c-2.176,0-4.262-0.864-5.801-2.403l0,0h-30.618c-2.399,0-4.652-1.154-6.054-3.102l-4.049-5.625L314.712,387.261z"/>
			<path style="opacity:0.4;enable-background:new    ;" d="M314.712,387.261l-3.91,8.998c-1.511,3.478-4.942,5.728-8.735,5.728
				h-16.391c-2.176,0-4.262-0.864-5.801-2.403l0,0h-30.618c-2.399,0-4.652-1.154-6.054-3.102l-4.049-5.625L314.712,387.261z"/>

				<path style="fill:none;stroke:#263238;stroke-width:0.6684;stroke-linecap:round;stroke-linejoin:round;stroke-miterlimit:10;" d="
				M260.865,281.995c0,0-0.062,0.209-4.949,0.688c-4.887,0.479-11.485,3.093-12.699,6.081"/>

				<path style="fill:none;stroke:#263238;stroke-width:0.6684;stroke-linecap:round;stroke-linejoin:round;stroke-miterlimit:10;" d="
				M219.781,281.995c0,0,2.451-0.329,3.046,1.773c0.595,2.102,0.911,3.538,3.087,4.594"/>
			<g>
				<path style="fill:#2E353A;" d="M368.951,379.276h-1.888v-2.895h3.776C370.84,376.381,370.84,378.287,368.951,379.276z"/>
				<g>
					<ellipse style="fill:#2E353A;" cx="339.866" cy="387.32" rx="25.153" ry="30.349"/>
					<ellipse style="opacity:0.4;enable-background:new    ;" cx="339.866" cy="387.32" rx="25.153" ry="30.349"/>
					<ellipse cx="344.076" cy="387.32" rx="15.865" ry="19.142"/>
					<g>
						<path style="fill:#407BFF;" d="M347.719,379.094c3.65,0,6.608,3.57,6.608,7.973c0,4.403-2.958,7.973-6.608,7.973
							s-6.608-3.57-6.608-7.973C341.111,382.663,344.07,379.094,347.719,379.094z"/>
						<path style="opacity:0.4;enable-background:new    ;" d="M347.719,379.094c3.65,0,6.608,3.57,6.608,7.973
							c0,4.403-2.958,7.973-6.608,7.973s-6.608-3.57-6.608-7.973C341.111,382.663,344.07,379.094,347.719,379.094z"/>
					</g>
				</g>
				<path style="fill:#2E353A;" d="M366.508,371.773c0,0,2.84,6.152,0,11.013c0,0-12.363,6.541-27.209,6.541
					C324.452,389.327,343.764,370.336,366.508,371.773z"/>
				<path style="opacity:0.2;fill:#FFFFFF;enable-background:new    ;" d="M366.508,371.773c0,0,2.84,6.152,0,11.013
					c0,0-12.363,6.541-27.209,6.541C324.452,389.327,343.764,370.336,366.508,371.773z"/>
			</g>
			<path style="fill:#263238;" d="M356.199,333.303c0,0,2.428,0.747,2.428,6.211c0,3.313-3.361,6.661-3.361,6.661
				S349.849,333.116,356.199,333.303z"/>
			<path style="opacity:0.7;fill:#FFFFFF;enable-background:new    ;" d="M356.199,333.303c0,0,2.428,0.747,2.428,6.211
				c0,3.313-3.361,6.661-3.361,6.661S349.849,333.116,356.199,333.303z"/>
			<path style="fill:#263238;" d="M345.297,331.802h12.022c0,0,1.86,3.186-2.992,6.918
				C349.476,342.453,345.297,331.802,345.297,331.802z"/>
			<path style="fill:#FFFFFF;" d="M357.879,338.091c0,1.068-0.334,1.934-0.747,1.934s-0.747-0.866-0.747-1.934
				c0-1.068,0.335-1.934,0.747-1.934S357.879,337.023,357.879,338.091z"/>
			<g>
				<path style="fill:#407BFF;" d="M289.769,351.573c0,4.311-17.206,34.971-18.931,36.19c-1.724,1.219-24.176-0.146-24.176-0.146
					l1.675,6.362h61.7l25.609-49.746l-16.94-24.447l-30.877,0.854C287.83,320.639,289.769,347.263,289.769,351.573z"/>
				<path style="opacity:0.5;fill:#FFFFFF;enable-background:new    ;" d="M289.769,351.573c0,4.311-17.206,34.971-18.931,36.19
					c-1.724,1.219-24.176-0.146-24.176-0.146l1.675,6.362h61.7l25.609-49.746l-16.94-24.447l-30.877,0.854
					C287.83,320.639,289.769,347.263,289.769,351.573z"/>
			</g>
			<g>
				<path style="fill:#407BFF;" d="M199.725,341.478c0,0,20.062,15.383,29.662,47.025c1.126,3.712,4.512,6.277,8.391,6.277h29.674
					l-34.446-56.033l-18.165-7.555L199.725,341.478z"/>
				<path style="opacity:0.2;fill:#FFFFFF;enable-background:new    ;" d="M197.346,339.706c0,0,22.191,16.969,32.035,48.838
					c1.14,3.691,4.515,6.236,8.378,6.236h29.694l-34.446-56.033l-18.165-7.555L197.346,339.706z"/>
			</g>
			<path style="fill:#407BFF;" d="M370.23,368.8c-0.123,1.227-1.199,2.134-2.427,2.134h-4.362c-0.812,0-1.577,0.34-2.115,0.935
				l-13.048,14.388c-0.396,0.434-0.85,0.803-1.359,1.095c-8.657,4.862-18.438,7.43-28.38,7.43h-60.97
				c-3.352,0-6.109-2.643-6.401-5.976c-1.482-17.617-12.094-30.57-21.025-38.51c-3.484-3.097-6.722-5.428-9.054-6.986
				c-2.219-1.482-4.824-2.19-7.496-2.19h-14.029c-1.775,0-3.031-2.256-2.483-3.937c2.313-7.024,6.599-14.568,10.876-21.053
				c6.25-9.46,12.462-16.654,12.462-16.654h19.628c2.068,0,3.861,1.124,4.985,2.757c0.972,1.397,1.444,3.182,1.171,4.928
				c-1.284,8.129-1.218,16.38-0.265,24.386c2.814,23.942,13.463,45.713,19.024,55.626c1.992,3.559,5.759,6.005,9.828,6.005h15.257
				c11.15-3.201,19.77-34.413,19.77-42.57c0-8.62-8.771-29.513-8.771-29.513h43.703v10.385c0.802,0.094,0.406,0.198,0.661,0.321
				c16.739,6.722,22.583,23.886,24.66,33.884C370.287,366.733,370.334,367.78,370.23,368.8z"/>
			<path style="opacity:0.7;fill:#FFFFFF;enable-background:new    ;" d="M345.408,331.798c-0.255-0.123,0.142-0.227-0.661-0.321
				v-10.385h-43.702c0,0,8.771,20.893,8.771,29.513c0,8.157-8.62,39.369-19.769,42.569h-15.257c-4.069,0-7.836-2.445-9.828-6.004
				c-5.561-9.913-16.21-31.684-19.024-55.626c-0.953-8.006-1.02-16.258,0.264-24.386c0.274-1.747-0.198-3.531-1.171-4.928
				c-1.123-1.633-2.917-2.757-4.985-2.757h-19.628c0,0-6.212,7.194-12.462,16.654c-4.277,6.486-8.563,14.029-10.876,21.053
				c-0.547,1.681,0.708,3.937,2.483,3.937h14.029c2.672,0,5.277,0.708,7.496,2.19c2.332,1.558,5.57,3.89,9.054,6.986
				c8.931,7.94,19.543,20.893,21.025,38.51c0.293,3.333,3.049,5.976,6.401,5.976h50.746v-19.316c0-5.646,1.237-11.216,3.625-16.323
				l7.222-15.455c3.371-7.222,10.621-11.839,18.599-11.839h6.76l0.774-0.047C346.979,332.475,347.053,332.46,345.408,331.798z"/>
			<g>
				<path style="fill:#2E353A;" d="M231.04,292.972h5.592c1.468,0,2.906-0.509,4.048-1.433l11.526-9.329
					c0.455-0.368,1.027-0.571,1.612-0.571h22.135c0.885,0,1.602-0.717,1.602-1.602c0-0.885-0.717-1.602-1.602-1.602h-22.135
					c-1.316,0-2.604,0.456-3.627,1.284l-11.526,9.329c-0.573,0.464-1.295,0.72-2.032,0.72h-5.592c-1.599,0-2.973-1.194-3.197-2.777
					l-0.51-3.599c-0.4-2.826-2.854-4.957-5.708-4.957h-4.216c-0.885,0-1.602,0.717-1.602,1.602c0,0.885,0.717,1.602,1.602,1.602
					h4.216c1.268,0,2.358,0.947,2.537,2.203l0.51,3.599C225.117,290.595,227.856,292.972,231.04,292.972z"/>
			</g>
			<g>
				<path style="fill:#263238;" d="M245.051,297.266l-2.502,4.022h-23.263l-1.822-3.437c-0.604-1.133-0.406-2.511,0.491-3.427
					l6.911-7.071c0.264-0.274,0.566-0.5,0.887-0.68c0.17-0.094,0.34-0.179,0.519-0.246c0.434-0.17,0.906-0.255,1.378-0.255h13.255
					c0,0-0.066,3.786,3.474,3.55l1.161,4.097C245.873,294.99,245.694,296.237,245.051,297.266z"/>
				<path style="opacity:0.4;fill:#FFFFFF;enable-background:new    ;" d="M232.146,291.261l-7.402-0.264l1.01-4.324
					c0.17-0.094,0.34-0.179,0.519-0.246c0.434-0.17,0.906-0.255,1.378-0.255h11.556L232.146,291.261z"/>
			</g>
			<path style="fill:#2E353A;" d="M283.88,319.992V323c0,2.733,2.237,4.503,4.97,4.503h54.163c2.741,0,4.94-1.77,4.94-4.503v-3.009
				c0-2.733-2.198-4.502-4.94-4.502H288.85C286.117,315.49,283.88,317.259,283.88,319.992z"/>
			<path style="opacity:0.1;fill:#FFFFFF;enable-background:new    ;" d="M301.5,319.992V323c0,2.733,1.868,4.503,4.61,4.503h36.904
				c2.741,0,4.94-1.77,4.94-4.503v-3.009c0-2.733-2.198-4.502-4.94-4.502h-36.904C303.368,315.49,301.5,317.259,301.5,319.992z"/>
			<g>

					<rect x="252.244" y="272.975" transform="matrix(0.6075 -0.7943 0.7943 0.6075 -115.6553 313.5084)" style="fill:#2E353A;" width="14.283" height="1.602"/>
			</g>
			<path style="fill:#263238;" d="M268.302,266.234h-4.085c-0.866,0-1.649,0.516-1.99,1.312l-0.547,1.277
				c-0.612,1.428,0.436,3.018,1.99,3.018h4.45c1.077,0,1.991-0.792,2.143-1.859l0.182-1.277
				C270.632,267.401,269.62,266.234,268.302,266.234z"/>
			<g>

					<rect x="221.809" y="269.46" transform="matrix(0.9785 -0.206 0.206 0.9785 -51.8073 51.7547)" style="fill:#2E353A;" width="1.602" height="10.367"/>
			</g>
			<path style="fill:#263238;" d="M216.752,266.234h4.396c0.89,0,1.645,0.655,1.771,1.536l0.29,2.029
				c0.154,1.077-0.682,2.041-1.771,2.041h-4.395c-0.89,0-1.645-0.655-1.77-1.536l-0.29-2.029
				C214.827,267.198,215.663,266.234,216.752,266.234z"/>
			<g>
				<path style="fill:#407BFF;enable-background:new    ;" d="M245.599,311.965c-0.453,4.758-0.472,9.535-0.16,14.246
					c0.123,1.794,0.293,3.569,0.5,5.334l-7.046,13.456c-1.704,3.255-5.074,5.294-8.748,5.294l0,0
					c-0.032-0.014-0.061-0.026-0.093-0.039c-0.349-0.355-0.725-0.679-1.068-0.971c-2.936-2.508-5.635-4.461-7.679-5.833
					c-2.279-1.53-4.965-2.333-7.71-2.333h-14.029c-1.775,0-3.031-2.256-2.483-3.937c2.313-7.024,6.599-14.568,10.876-21.053
					c0.075,4.409-0.066,13.076-1.709,22.592h6.741c0,0,12.302-17.428,22.762-20.789l9.281-15.7c0.972,1.397,1.444,3.182,1.171,4.928
					C245.949,308.755,245.75,310.36,245.599,311.965z"/>
				<path style="opacity:0.5;fill:#FFFFFF;enable-background:new    ;" d="M245.599,311.965c-0.453,4.758-0.472,9.535-0.16,14.246
					c0.123,1.794,0.293,3.569,0.5,5.334l-7.046,13.456c-1.704,3.255-5.074,5.294-8.748,5.294l0,0
					c-0.032-0.014-0.061-0.026-0.093-0.039c-0.349-0.355-0.725-0.679-1.068-0.971c-2.936-2.508-5.635-4.461-7.679-5.833
					c-2.279-1.53-4.965-2.333-7.71-2.333h-14.029c-1.775,0-3.031-2.256-2.483-3.937c2.313-7.024,6.599-14.568,10.876-21.053
					c0.075,4.409-0.066,13.076-1.709,22.592h6.741c0,0,12.302-17.428,22.762-20.789l9.281-15.7c0.972,1.397,1.444,3.182,1.171,4.928
					C245.949,308.755,245.75,310.36,245.599,311.965z"/>
				<path style="fill:#407BFF;" d="M206.249,320.942c0,0,0.72,7.678-1.822,14.719h-5.779
					C198.648,335.661,202.397,325.451,206.249,320.942z"/>
				<path style="opacity:0.7;fill:#FFFFFF;enable-background:new    ;" d="M206.249,320.942c0,0,0.72,7.678-1.822,14.719h-5.779
					C198.648,335.661,202.397,325.451,206.249,320.942z"/>
				<path style="fill:#407BFF;" d="M233.589,320.943c0.194-0.115-5.809,15.784-5.809,15.784h-8.792
					C218.988,336.727,223.462,326.946,233.589,320.943z"/>
				<path style="opacity:0.7;fill:#FFFFFF;enable-background:new    ;" d="M233.589,320.943c0.194-0.115-5.809,15.784-5.809,15.784
					h-8.792C218.988,336.727,223.462,326.946,233.589,320.943z"/>
				<path style="fill:#FFFFFF;" d="M228.369,332.384c0,1.971-1.24,3.57-2.771,3.57s-2.771-1.598-2.771-3.57
					c0-1.972,1.24-3.57,2.771-3.57S228.369,330.412,228.369,332.384z"/>
				<path style="fill:#FFFFFF;" d="M205.1,331.192c0,1.972-0.873,3.57-1.951,3.57c-1.077,0-1.95-1.598-1.95-3.57
					c0-1.971,0.873-3.57,1.95-3.57C204.226,327.622,205.1,329.22,205.1,331.192z"/>
				<path style="fill:#FFFFFF;" d="M230.925,327.007c0,0.964-0.607,1.746-1.355,1.746c-0.748,0-1.355-0.782-1.355-1.746
					c0-0.964,0.606-1.746,1.355-1.746C230.318,325.262,230.925,326.043,230.925,327.007z"/>
				<path style="fill:#FFFFFF;" d="M205.826,326.093c0,0.964-0.416,1.746-0.928,1.746s-0.928-0.781-0.928-1.746
					c0-0.964,0.416-1.746,0.928-1.746S205.826,325.129,205.826,326.093z"/>
			</g>
			<g>
				<g>
					<path style="fill:#407BFF;" d="M232.668,302.167c0,0-4.157,26.168-17.884,26.35c-12.866,0.171-14.067-24.396-1.79-28.174
						C222.911,297.291,232.668,302.167,232.668,302.167z"/>
					<path style="fill:#263238;" d="M232.668,302.167c0,0-4.157,26.168-17.884,26.35c-12.866,0.171-14.067-24.396-1.79-28.174
						C222.911,297.291,232.668,302.167,232.668,302.167z"/>
				</g>
				<path style="fill:#407BFF;" d="M205.29,314.198c-0.304,6.645,3.7,12.031,8.943,12.031c5.243,0,9.741-5.387,10.045-12.031
					c0.304-6.645-3.7-12.031-8.943-12.031C210.091,302.167,205.594,307.553,205.29,314.198z"/>
				<path style="opacity:0.7;fill:#FFFFFF;enable-background:new    ;" d="M205.29,314.198c-0.304,6.645,3.7,12.031,8.943,12.031
					c5.243,0,9.741-5.387,10.045-12.031c0.304-6.645-3.7-12.031-8.943-12.031C210.091,302.167,205.594,307.553,205.29,314.198z"/>
				<path style="fill:#FFFFFF;" d="M217.118,317.336c0,2.939-1.85,5.322-4.131,5.322c-2.281,0-4.131-2.383-4.131-5.322
					c0-2.939,1.85-5.322,4.131-5.322C215.269,312.014,217.118,314.397,217.118,317.336z"/>
				<path style="fill:#FFFFFF;" d="M220.613,310.416c0,1.47-0.925,2.661-2.066,2.661c-1.141,0-2.065-1.191-2.065-2.661
					s0.925-2.661,2.065-2.661C219.688,307.755,220.613,308.947,220.613,310.416z"/>
			</g>
			<path style="fill:#407BFF;" d="M369.522,363.291h-4.087c-0.718,0-1.299,0.582-1.299,1.299v2.288c0,0.718,0.582,1.299,1.299,1.299
				h4.85C370.285,368.178,371.08,365.735,369.522,363.291z"/>
			<path style="opacity:0.7;fill:#FFFFFF;enable-background:new    ;" d="M369.522,363.291h-4.087c-0.718,0-1.299,0.582-1.299,1.299
				v2.288c0,0.718,0.582,1.299,1.299,1.299h4.85C370.285,368.178,371.08,365.735,369.522,363.291z"/>
			<path style="fill:#2E353A;" d="M264.36,278.435c0,0-0.133-0.783-2.188-0.783s-2.787,2.988-2.787,2.988l0.826,2.521h2.801
				l1.347-0.479c0,0,5.096,1.319,5.562,2.159c0.467,0.84,1.194,1.027,0.97,0s-5.733-3.244-5.733-3.244L264.36,278.435z"/>
			<path style="fill:#2E353A;" d="M223.226,278.667c0,0-0.428-1.014-1.609-1.014s-1.835,0.582-1.928,1.598
				c-0.093,1.016,0,1.857,0,1.857l-1.14,0.887c0,0-3.473,1.641-3.763,1.871c-0.29,0.23-0.438,1.164,0.179,1.07
				c0.617-0.093,1.55-0.934,2.671-1.587c1.12-0.654,2.979-0.758,2.979-0.758l2.103-1.293L223.226,278.667z"/>
			<g>
				<g>
					<polygon style="fill:#407BFF;" points="206.667,341.582 192.807,386.714 196.33,388.891 210.241,345.089 					"/>
					<polygon style="opacity:0.6;fill:#FFFFFF;enable-background:new    ;" points="206.667,341.582 192.807,386.714
						196.33,388.891 210.241,345.089 					"/>
					<path style="fill:#2E353A;" d="M212.442,341.119l-5.778,18.552h-1.095c-2.03-2.407-3.776-2.219-3.776-2.219l-0.727-1.067
						l4.381-15.266H212.442z"/>
					<path style="fill:#2E353A;" d="M198.128,386.057c0,2.337-1.327,4.231-2.964,4.231c-1.637,0-2.964-1.894-2.964-4.231
						c0-2.337,1.327-4.231,2.964-4.231C196.801,381.826,198.128,383.72,198.128,386.057z"/>
				</g>
				<ellipse style="fill:#2E353A;" cx="201.023" cy="387.32" rx="25.153" ry="30.349"/>
				<ellipse style="opacity:0.4;enable-background:new    ;" cx="201.023" cy="387.32" rx="25.153" ry="30.349"/>
				<path style="fill:#263238;" d="M235.872,384.754h-5.962c-1.646,0-3.166-0.899-3.941-2.352
					c-3.119-5.845-12.192-20.826-24.948-24.511c-15.945-4.606,8.666-7.371,17.525-1.009
					C227.407,363.245,235.872,384.754,235.872,384.754z"/>
				<path style="opacity:0.4;enable-background:new    ;" d="M235.872,384.754h-5.962c-1.646,0-3.166-0.899-3.941-2.352
					c-3.119-5.845-12.192-20.826-24.948-24.511c-15.945-4.606,8.666-7.371,17.525-1.009
					C227.407,363.245,235.872,384.754,235.872,384.754z"/>
				<ellipse cx="205.233" cy="387.32" rx="15.865" ry="19.142"/>
				<g>
					<path style="fill:#407BFF;" d="M208.876,379.094c3.65,0,6.608,3.57,6.608,7.973c0,4.403-2.958,7.973-6.608,7.973
						c-3.65,0-6.608-3.57-6.608-7.973C202.268,382.663,205.226,379.094,208.876,379.094z"/>
					<path style="opacity:0.4;enable-background:new    ;" d="M208.876,379.094c3.65,0,6.608,3.57,6.608,7.973
						c0,4.403-2.958,7.973-6.608,7.973c-3.65,0-6.608-3.57-6.608-7.973C202.268,382.663,205.226,379.094,208.876,379.094z"/>
				</g>
				<path style="fill:#407BFF;" d="M180.701,368.324h2.797c2.323,0,4.571-0.769,6.431-2.162c4.343-3.253,13.523-8.705,23.059-5.543
					c11.044,3.662,18.542,18.145,20.678,22.733c0.4,0.859,1.259,1.402,2.207,1.402l0,0c0,0-3.473-28.366-22.885-36.076
					c-18.828-7.478-31.579,8.259-34.328,16.847C178.216,366.91,179.246,368.324,180.701,368.324z"/>
				<path style="opacity:0.5;fill:#FFFFFF;enable-background:new    ;" d="M180.701,368.324h2.797c2.323,0,4.571-0.769,6.431-2.162
					c4.343-3.253,13.523-8.705,23.059-5.543c11.044,3.662,18.542,18.145,20.678,22.733c0.4,0.859,1.259,1.402,2.207,1.402l0,0
					c0,0-3.473-28.366-22.885-36.076c-18.828-7.478-31.579,8.259-34.328,16.847C178.216,366.91,179.246,368.324,180.701,368.324z"/>
				<g>
					<path style="fill:#407BFF;" d="M225.783,346.689l-4.126,12.981l-9.281,29.22l-3.521-2.181l8.988-29.258l4.154-13.529
						C223.12,344.688,224.395,345.613,225.783,346.689z"/>
					<path style="opacity:0.6;fill:#FFFFFF;enable-background:new    ;" d="M225.783,346.689l-4.126,12.981l-9.281,29.22
						l-3.521-2.181l8.988-29.258l4.154-13.529C223.12,344.688,224.395,345.613,225.783,346.689z"/>
					<path style="fill:#2E353A;" d="M226.566,347.303l-3.852,12.368h-1.095c-2.03-2.407-3.776-2.219-3.776-2.219l-0.727-1.067
						l3.786-13.189c0.066,0.028,0.123,0.076,0.189,0.113c0.293,0.189,0.595,0.397,0.906,0.614c1.123,0.765,2.398,1.69,3.786,2.766
						C226.037,346.888,226.302,347.095,226.566,347.303z"/>
					<path style="fill:#2E353A;" d="M214.178,386.057c0,2.337-1.327,4.231-2.964,4.231c-1.637,0-2.964-1.894-2.964-4.231
						c0-2.337,1.327-4.231,2.964-4.231C212.851,381.826,214.178,383.72,214.178,386.057z"/>
				</g>
			</g>
			<path style="opacity:0.5;fill:#FFFFFF;enable-background:new    ;" d="M370.23,368.8c-0.123,1.227-1.199,2.134-2.427,2.134
				h-4.362c-0.812,0-1.577,0.34-2.115,0.935l-13.048,14.388c-0.396,0.434-0.85,0.803-1.359,1.095
				c-8.657,4.862-18.438,7.43-28.38,7.43h-10.224v-19.316c0-5.646,1.236-11.216,3.625-16.324l7.222-15.455
				c3.37-7.222,10.621-11.839,18.599-11.839h6.76l0.774-0.047c7.052,2.832,12.198,7.524,15.927,12.745
				c0.396,0.547,0.774,1.105,1.142,1.662c1.227,1.888,2.285,3.824,3.181,5.75c0.803,1.69,1.492,3.38,2.068,5.013
				c1.152,3.172,1.926,6.174,2.455,8.714C370.287,366.733,370.334,367.78,370.23,368.8z"/>
		</g>
		<g>
			<path style="fill:#407BFF;" d="M306.805,291.594c-0.24,0.343-0.427,0.731-0.552,1.167c-0.153,0.533-0.297,1.068-0.433,1.606
				c-1.209,4.783-2.052,10.301-0.278,15.053c0.739,1.98,2.474,4.847,4.664,5.501c1.634,0.488,4.021,0.124,5.736,0.176
				c2.034,0.061,4.069,0.123,6.103,0.184c0.399,0.012,0.815,0.021,1.179-0.142c0.397-0.178,0.68-0.536,0.942-0.884
				c1.106-1.468,2.136-2.993,3.084-4.567c0.987-1.638,1.9-3.369,2.215-5.256c0.382-2.288-0.148-4.647-1.041-6.788
				c-1.174-2.815-3.092-5.457-5.844-6.772c-0.738-0.352-1.52-0.602-2.308-0.819C316.956,289.14,309.216,288.145,306.805,291.594z"/>
			<path style="opacity:0.4;enable-background:new    ;" d="M306.805,291.594c-0.24,0.343-0.427,0.731-0.552,1.167
				c-0.153,0.533-0.297,1.068-0.433,1.606c-1.209,4.783-2.052,10.301-0.278,15.053c0.739,1.98,2.474,4.847,4.664,5.501
				c1.634,0.488,4.021,0.124,5.736,0.176c2.034,0.061,4.069,0.123,6.103,0.184c0.399,0.012,0.815,0.021,1.179-0.142
				c0.397-0.178,0.68-0.536,0.942-0.884c1.106-1.468,2.136-2.993,3.084-4.567c0.987-1.638,1.9-3.369,2.215-5.256
				c0.382-2.288-0.148-4.647-1.041-6.788c-1.174-2.815-3.092-5.457-5.844-6.772c-0.738-0.352-1.52-0.602-2.308-0.819
				C316.956,289.14,309.216,288.145,306.805,291.594z"/>
			<path style="fill:#E4897B;" d="M321.961,307.195c0.158-1.127,1.513-2.929,3.596-2.493c2.155,0.451,2.756,5.025-2.768,5.571
				C321.996,310.351,321.631,309.548,321.961,307.195z"/>
			<path style="fill:#263238;" d="M326.239,289.743c0,0-9.634-3.75-17.347,0.748c-7.713,4.498,10.841,8.021,10.841,8.021
				l-4.116-3.258c0,0,5.4,3.077,8.121,2.86L326.239,289.743z"/>
			<g>
				<path style="fill:#263238;" d="M305.717,310.1c0,0,0.507,3.205,3.779,3.977c4.437,1.046,11.626-2.514,11.626-2.514l0.374,2.009
					c0,0-7.099,3.137-11.978,2.057C306.922,315.054,305.026,311.808,305.717,310.1z"/>
				<path style="fill:#263238;" d="M311.201,315.841l-0.261-1.58c0,0-1.331-0.804-2.223-1.002c-0.892-0.197-1.436-0.028-1.436-0.028
					s-0.146,1.578,1.182,2.164C309.793,315.98,311.201,315.841,311.201,315.841z"/>
				<path style="opacity:0.5;fill:#FFFFFF;" d="M311.201,315.841l-0.261-1.58c0,0-1.331-0.804-2.223-1.002
					c-0.892-0.197-1.436-0.028-1.436-0.028s-0.146,1.578,1.182,2.164C309.793,315.98,311.201,315.841,311.201,315.841z"/>
			</g>
			<path style="fill:#407BFF;" d="M333.142,310.471c-3.392,4.859-9.072,7.684-12.189,4.063c-3.127-3.622,1.325-17.149,1.325-17.149
				c-7.251-4.379-15.94-3.714-15.94-3.714c0.606-5.369,7.546-10.92,19.686-6.176c4.321,1.685,6.888,4.508,8.247,7.649
				c0.158,0.367,0.307,0.732,0.424,1.103c0.263,0.756,0.462,1.533,0.591,2.31c0.162,0.893,0.243,1.784,0.255,2.665
				C335.63,304.954,334.55,308.454,333.142,310.471z"/>
			<path style="fill:#263238;" d="M306.658,291.49c0,0,8.353-1.288,17.104,3.434c0,0,1.099,3.585,1.093,4.673
				c-0.006,1.088-21.584-3.48-22.662-4.911c-1.078-1.431,3.107-1.32,3.107-1.32L306.658,291.49z"/>
		</g>
	</g>
</g>

</svg>
