<svg xmlns="http://www.w3.org/2000/svg" xmlns:xlink="http://www.w3.org/1999/xlink" version="1.1" x="0px" y="0px" style="enable-background:new 0 0 3710 3710;" xml:space="preserve" viewBox="0 0 3710 3710">

<g id="Illustration">
	<g>
		<linearGradient id="SVGID_1_" gradientUnits="userSpaceOnUse" x1="3605.3459" y1="4081.4114" x2="1113.8716" y2="987.1564">
			<stop offset="0" style="stop-color:#e5edfd"/>
			<stop offset="1" style="stop-color:#e5edfd"/>
		</linearGradient>
		<path style="fill:url(#SVGID_1_);" d="M2919.926,2861.149c-57.228,60.247-111.377,99.1-154.159,129.797    c-502.893,360.831-1097.948,255.651-1224.414,229.964c-186.751-37.93-547.736-111.248-808.721-418.162    c-394.85-464.335-333.366-1195.882-27.094-1678.786c56.022-88.331,351.946-578.591,953.411-657.214    c364-47.581,788.307,48.385,1095.578,305.817C3399.517,1312.939,3353.6,2404.59,2919.926,2861.149z"/>
		<g>
			<linearGradient id="SVGID_00000145763742256559924930000018276437778764892067_" gradientUnits="userSpaceOnUse" x1="-4465.2944" y1="2380.1145" x2="-4996.7925" y2="2531.4907" gradientTransform="matrix(-1 0 0 1 720.2058 0)">
				<stop offset="0" style="stop-color:#01a26d"/>
				<stop offset="1" style="stop-color:#01a26d"/>
			</linearGradient>
			<path style="fill:url(#SVGID_00000145763742256559924930000018276437778764892067_);" d="M2505.131,1494.651     c-0.826,4.912-6.995,171.986-6.995,171.986c-48.766,42.549-109.328,48.226-182.365,14.877l-56.899-25.289     C2372.531,1666.15,2454.616,1612.292,2505.131,1494.651z"/>

			<g>
				<g>
					<linearGradient id="SVGID_00000045583444302091708510000000030680618867158957_" gradientUnits="userSpaceOnUse" x1="1964.25" y1="1574.5779" x2="3443.3376" y2="3085.136">
						<stop offset="0" style="stop-color:#00233f"/>
						<stop offset="1" style="stop-color:#00233f"/>
					</linearGradient>
					<path style="fill:url(#SVGID_00000045583444302091708510000000030680618867158957_);" d="M3045.863,2756.726       c-18.233,75.712,11.457,147.799,66.315,161.01c54.858,13.211,114.111-37.456,132.344-113.168       c18.233-75.712-11.457-147.799-66.315-161.01C3123.348,2630.347,3064.096,2681.014,3045.863,2756.726z"/>

					<linearGradient id="SVGID_00000052797572523725966950000005688416295324675987_" gradientUnits="userSpaceOnUse" x1="2180.7151" y1="1900.0745" x2="3785.6807" y2="3355.5571">
						<stop offset="0" style="stop-color:#00233f"/>
						<stop offset="1" style="stop-color:#b8d1fe"/>
					</linearGradient>
					<path style="fill:url(#SVGID_00000052797572523725966950000005688416295324675987_);" d="M3079.28,2764.774       c-15.083,62.628,6.183,121.465,47.498,131.414c41.315,9.949,87.034-32.755,102.116-95.384       c15.082-62.628-6.183-121.464-47.498-131.414C3140.082,2659.441,3094.363,2702.145,3079.28,2764.774z"/>

					<linearGradient id="SVGID_00000073708258968536713460000009962503006865106334_" gradientUnits="userSpaceOnUse" x1="2624.5449" y1="1910.8198" x2="3139.8669" y2="2752.6423">
						<stop offset="0" style="stop-color:#2B3582"/>
						<stop offset="1" style="stop-color:#150E42"/>
					</linearGradient>
					<path style="fill:url(#SVGID_00000073708258968536713460000009962503006865106334_);" d="M3142.208,2784.37       c-4.039,16.772,1.656,32.528,12.72,35.192c11.064,2.664,23.308-8.772,27.346-25.544c4.039-16.772-1.656-32.529-12.72-35.193       C3158.491,2756.161,3146.248,2767.598,3142.208,2784.37z"/>
				</g>

				<linearGradient id="SVGID_00000017479354375509087260000010886340083261996690_" gradientUnits="userSpaceOnUse" x1="-2560.011" y1="2776.999" x2="-1916.3705" y2="2431.821" gradientTransform="matrix(-1 0 0 1 720.2058 0)">
					<stop offset="0" style="stop-color:#4f7ec6"/>
					<stop offset="1" style="stop-color:#4f7ec6"/>
				</linearGradient>
				<path style="fill:url(#SVGID_00000017479354375509087260000010886340083261996690_);" d="M3135.774,2593.419      c56.165-14.864,89.315,33.234,105.818,69.445c4.068,8.925-6.07,17.636-14.188,12.126c-17.26-11.72-42.392-23.422-74.582-24.233      c-65.643-1.651-109.88,120.502-109.88,120.502l-44.001-16.019C2998.941,2755.24,3048.458,2616.527,3135.774,2593.419z"/>

				<linearGradient id="SVGID_00000098928806283689991960000003111194393794249102_" gradientUnits="userSpaceOnUse" x1="-2030.3392" y1="2383.4634" x2="-2103.0083" y2="2995.958" gradientTransform="matrix(-1 0 0 1 720.2058 0)">
					<stop offset="0" style="stop-color:#4f7ec6"/>
					<stop offset="1" style="stop-color:#4f7ec6"/>
				</linearGradient>
				<path style="fill:url(#SVGID_00000098928806283689991960000003111194393794249102_);" d="M3162.762,2755.762L2419.35,2913.24      l37.933,54.722c14.615,21.084,41.073,30.463,65.705,23.293l651.297-189.597c10.108-2.943,17.058-12.206,17.058-22.733l0,0      C3191.344,2763.874,3177.485,2752.643,3162.762,2755.762z"/>

				<linearGradient id="SVGID_00000116196343861586779970000014272643471154833840_" gradientUnits="userSpaceOnUse" x1="2368.5098" y1="2770.8967" x2="3737.4524" y2="3022.656">
					<stop offset="0" style="stop-color:#27537b"/>
					<stop offset="1" style="stop-color:#27537b"/>
				</linearGradient>
				<path style="fill:url(#SVGID_00000116196343861586779970000014272643471154833840_);" d="M3056.259,2793.629l-538.596,138.751      c-22.249,5.732-45.699,4.72-67.372-2.905l-45.804-16.117c-14.996-5.276-14.17-26.758,1.187-30.868l541.691-144.945      c10.64-2.847,21.906-2.282,32.208,1.615l78.054,29.526C3069.589,2773.212,3068.644,2790.439,3056.259,2793.629z"/>

				<linearGradient id="SVGID_00000127760572970709039840000018423398537440540062_" gradientUnits="userSpaceOnUse" x1="2371.4143" y1="2755.1042" x2="3740.3572" y2="3006.8638">
					<stop offset="0" style="stop-color:#27537b"/>
					<stop offset="1" style="stop-color:#27537b"/>
				</linearGradient>
				<path style="fill:url(#SVGID_00000127760572970709039840000018423398537440540062_);" d="M2323.074,2620.845l197.901,253.593      c0,0-8.023,39.694-74.358,18.611l-155.635-202.671L2323.074,2620.845z"/>

				<linearGradient id="SVGID_00000094581719371986843540000010333449751047542933_" gradientUnits="userSpaceOnUse" x1="2626.4468" y1="2049.325" x2="3270.5945" y2="1513.437">
					<stop offset="0" style="stop-color:#27537b"/>
					<stop offset="1" style="stop-color:#27537b"/>
				</linearGradient>
				<path style="fill:url(#SVGID_00000094581719371986843540000010333449751047542933_);" d="M2291.06,2802.761      c0-9.97,207.077-1078.599,207.077-1078.599l-33.77-14.413l-219.921,1085.073L2291.06,2802.761z"/>

				<linearGradient id="SVGID_00000115516600452257920610000007326678789912484496_" gradientUnits="userSpaceOnUse" x1="-1589.1042" y1="2323.1458" x2="-1589.1042" y2="3353.4893" gradientTransform="matrix(-1 0 0 1 720.2058 0)">
					<stop offset="0" style="stop-color:#4f7ec6"/>
					<stop offset="1" style="stop-color:#4f7ec6"/>
				</linearGradient>
				<path style="fill:url(#SVGID_00000115516600452257920610000007326678789912484496_);" d="M2443.591,2935.457      c0,0,6.478-164.813-118.966-191.344c-125.444-26.531-149.653,58.674-149.653,58.674l48.417,22.632      c0,0,138.274-54.509,175.874,101.491L2443.591,2935.457z"/>

				<g>
					<linearGradient id="SVGID_00000103967088744147664060000000581945755503415220_" gradientUnits="userSpaceOnUse" x1="1420.7473" y1="2106.7563" x2="2899.8362" y2="3617.3157">
						<stop offset="0" style="stop-color:#00233f"/>
						<stop offset="1" style="stop-color:#00233f"/>
					</linearGradient>
					<path style="fill:url(#SVGID_00000103967088744147664060000000581945755503415220_);" d="M2127.004,2931.946       c-23.234,96.478,17.538,189.043,91.067,206.75c73.529,17.708,151.971-46.148,175.205-142.625       c23.234-96.477-17.538-189.042-91.067-206.75C2228.679,2771.614,2150.238,2835.469,2127.004,2931.946z"/>

					<linearGradient id="SVGID_00000079454720160660160620000008043048766439724477_" gradientUnits="userSpaceOnUse" x1="1691.0736" y1="2440.0032" x2="3296.0422" y2="3895.4885">
						<stop offset="0" style="stop-color:#b8d1fe"/>
						<stop offset="1" style="stop-color:#00233f"/>
					</linearGradient>
					<path style="fill:url(#SVGID_00000079454720160660160620000008043048766439724477_);" d="M2171.795,2942.733       c-19.219,79.805,10.092,155.311,65.468,168.647c55.376,13.336,115.847-40.548,135.066-120.354       c19.219-79.805-10.092-155.311-65.468-168.646C2251.485,2809.044,2191.014,2862.928,2171.795,2942.733z"/>

					<linearGradient id="SVGID_00000054987845418571192420000017490058328142533264_" gradientUnits="userSpaceOnUse" x1="1902.1925" y1="2353.009" x2="2417.5137" y2="3194.8303">
						<stop offset="0" style="stop-color:#00233f"/>
						<stop offset="1" style="stop-color:#00233f"/>
					</linearGradient>
					<path style="fill:url(#SVGID_00000054987845418571192420000017490058328142533264_);" d="M2256.208,2968.721       c-5.147,21.372,2.703,41.592,17.532,45.164c14.83,3.571,31.024-10.859,36.17-32.231c5.147-21.372-2.702-41.592-17.532-45.164       C2277.549,2932.919,2261.354,2947.349,2256.208,2968.721z"/>
				</g>
			</g>

			<g>
				<linearGradient id="SVGID_00000009557276051002313690000007636955201430111645_" gradientUnits="userSpaceOnUse" x1="2828.29" y1="1510.2445" x2="2613.2336" y2="2294.1594">
					<stop offset="0" style="stop-color:#0f3657"/>
					<stop offset="1" style="stop-color:#26547b"/>
				</linearGradient>
				<path style="fill:url(#SVGID_00000009557276051002313690000007636955201430111645_);" d="M2645.083,1979.905h230.177      c8.448,0,15.297-6.849,15.297-15.297V1517.3c0-12.508-10.139-22.647-22.647-22.647h-222.827V1979.905z"/>

				<linearGradient id="SVGID_00000170970753516894663450000018385408043938072974_" gradientUnits="userSpaceOnUse" x1="2823.614" y1="1409.2529" x2="2593.271" y2="1815.7405">
					<stop offset="0" style="stop-color:#b8d1fe"/>
					<stop offset="0.9964" style="stop-color:#0f3657"/>
				</linearGradient>
				<circle style="fill:url(#SVGID_00000170970753516894663450000018385408043938072974_);" cx="2767.82" cy="1507.713" r="91.702"/>

				<g>
					<linearGradient id="SVGID_00000057115839409119197690000008137255993479020729_" gradientUnits="userSpaceOnUse" x1="-2093.1206" y1="2982.3674" x2="-2040.7638" y2="2370.4465" gradientTransform="matrix(-1 0 0 1 720.2058 0)">
						<stop offset="0" style="stop-color:#c77844"/>
						<stop offset="1" style="stop-color:#87522e"/>
					</linearGradient>
					<path style="fill:url(#SVGID_00000057115839409119197690000008137255993479020729_);" d="M2797.102,2731.144       c-0.083-24.711-0.927-57.533-2.2-93.751c20.258-3.401,40.461-6.939,60.61-10.63l-14.91,119.77l14.867,30.328l1.163,13.296       l-126.552,67.919l51.835-77.003C2791.854,2766.313,2797.161,2748.942,2797.102,2731.144z"/>

					<linearGradient id="SVGID_00000147904924023469263190000018231744731934912151_" gradientUnits="userSpaceOnUse" x1="2920.5901" y1="2709.0676" x2="2579.5706" y2="1686.006">
						<stop offset="0" style="stop-color:#00233f"/>
						<stop offset="1" style="stop-color:#00233f"/>
					</linearGradient>
					<path style="fill:url(#SVGID_00000147904924023469263190000018231744731934912151_);" d="M2860.91,2688.654       c-6.67,20.079-47.285,20.619-67.553,17.123l-63.277-385.226l-79.557-305.463l-31.837-196.171l57.186-14.312       c129.838,25.17,126.646,169.776,113.485,493.886C2925.611,2391.705,2838.7,2584.815,2860.91,2688.654z"/>

					<linearGradient id="SVGID_00000121966741370979271850000015054776814912275608_" gradientUnits="userSpaceOnUse" x1="1188.078" y1="1564.6284" x2="1756.2036" y2="2389.0503" gradientTransform="matrix(-0.7267 -0.687 -0.687 0.7267 4288.3174 2579.2881)">
						<stop offset="0" style="stop-color:#00233f"/>
						<stop offset="1" style="stop-color:#00233f"/>
					</linearGradient>
					<path style="fill:url(#SVGID_00000121966741370979271850000015054776814912275608_);" d="M2844.638,2747.494       c0,0,39.616,51.654-4.781,75.809c-44.397,24.155-122.855,72.175-133.43,37.741c-10.573-34.434,83.139-81.3,88.455-109.92       C2832.692,2754.684,2844.638,2747.494,2844.638,2747.494z"/>
				</g>

				<g>
					<linearGradient id="SVGID_00000113322516830992960840000013716611777089276032_" gradientUnits="userSpaceOnUse" x1="-266.5605" y1="3213.2483" x2="-129.1713" y2="1607.5107" gradientTransform="matrix(1 0 0 1 2860.937 0)">
						<stop offset="0" style="stop-color:#c77844"/>
						<stop offset="1" style="stop-color:#87522e"/>
					</linearGradient>
					<path style="fill:url(#SVGID_00000113322516830992960840000013716611777089276032_);" d="M2610.037,2290.922l-8.359,49.168       c0,0,27.99,283.522,32.969,396.931c0.781,17.78-3.819,35.351-13.15,50.506l-48.672,79.037l123.697-72.992l2.462-15.095       l-20.249-27.841l26.522-317.615c1.559-18.658-2.292-37.371-11.089-53.899l-25.585-48.065L2610.037,2290.922z"/>

					<linearGradient id="SVGID_00000010310697504309295130000012128878348121464452_" gradientUnits="userSpaceOnUse" x1="2787.4407" y1="2753.4507" x2="2446.4224" y2="1730.3928">
						<stop offset="0" style="stop-color:#00233f"/>
						<stop offset="1" style="stop-color:#00233f"/>
					</linearGradient>
					<path style="fill:url(#SVGID_00000010310697504309295130000012128878348121464452_);" d="M2528.947,1818.917       c-28.561,53.212,2.775,204.063,71.277,513.052l24.33,355.821c20.083,16.478,48.336,22.851,70.174,17.298       c20.542-177.814,27.926-306.074-20.171-379.677l-11.437-295.709l-43.593-202.994L2528.947,1818.917z"/>

					<linearGradient id="SVGID_00000074439666095101490290000015954510895203938718_" gradientUnits="userSpaceOnUse" x1="-1873.6929" y1="3011.2356" x2="-1305.5636" y2="3835.6628" gradientTransform="matrix(-0.9996 0.0298 0.0298 0.9996 585.946 10.2139)">
						<stop offset="0" style="stop-color:#00233f"/>
						<stop offset="1" style="stop-color:#00233f"/>
					</linearGradient>
					<path style="fill:url(#SVGID_00000074439666095101490290000015954510895203938718_);" d="M2687.704,2762.968       c0,0,54.511,56.189,13.087,68.922c-41.423,12.732-148.665,55.385-155.223,34.674c-8.188-25.854,86.366-103.596,86.366-103.596       C2648.177,2771.404,2676.657,2772.676,2687.704,2762.968z"/>
				</g>

				<linearGradient id="SVGID_00000086688285399595728740000009690547351678030741_" gradientUnits="userSpaceOnUse" x1="-4466.6543" y1="2375.342" x2="-4998.1538" y2="2526.7188" gradientTransform="matrix(-1 0 0 1 720.2058 0)">
					<stop offset="0" style="stop-color:#008258"/>
					<stop offset="1" style="stop-color:#008258"/>
				</linearGradient>
				<path style="fill:url(#SVGID_00000086688285399595728740000009690547351678030741_);" d="M2675.872,1804.605      c-42.298-179.237,46.957-313.135,46.957-313.135c-50.905-48.863-129.954-52.094-165.913-50.708      c-12.406,0.478-24.271,5.013-33.913,12.834c-28.594,23.192-87.303,77.94-76.682,129.172      c8.174,39.425,82.627,236.15,82.627,236.15S2597.793,1851.499,2675.872,1804.605z"/>

				<linearGradient id="SVGID_00000093874634592618230900000002830506518830828675_" gradientUnits="userSpaceOnUse" x1="-313.9889" y1="1636.6425" x2="-287.6938" y2="1444.2738" gradientTransform="matrix(1 0 0 1 2860.937 0)">
					<stop offset="0" style="stop-color:#87522e"/>
					<stop offset="1" style="stop-color:#c77844"/>
				</linearGradient>
				<path style="fill:url(#SVGID_00000093874634592618230900000002830506518830828675_);" d="M2595.961,1311.114l34.429,143.38      c3.292,13.606-9.056,17.849-22.907,19.879c-32.556,4.772-57.206-7.553-61.27-30.524c-0.355-2.009-1.481-3.801-1.759-5.822      l-14.775-107.114c-1.172-8.498,3.421-16.746,11.264-20.223l28.51-12.643C2580.432,1293.179,2593.137,1299.443,2595.961,1311.114      z"/>

				<linearGradient id="SVGID_00000125572865435154367540000008792369621942511548_" gradientUnits="userSpaceOnUse" x1="2829.0505" y1="1412.3337" x2="2598.7083" y2="1818.8198">
					<stop offset="0" style="stop-color:#26547c"/>
					<stop offset="0.9964" style="stop-color:#26547c"/>
				</linearGradient>
				<path style="fill:url(#SVGID_00000125572865435154367540000008792369621942511548_);" d="M2702.36,1472.574      c-77.563,118.94,15.017,351.715,39.241,360.932c-106.329-21.397-145.955-215.542-86.685-380.724      C2672.32,1451.471,2690.122,1457.277,2702.36,1472.574z"/>

				<g>
					<linearGradient id="SVGID_00000078005976182200788520000015124363452426177457_" gradientUnits="userSpaceOnUse" x1="8215.7344" y1="1440.1887" x2="8440.2588" y2="1592.6953" gradientTransform="matrix(0.9957 -0.093 0.093 0.9957 -5843.2544 593.3239)">
						<stop offset="0" style="stop-color:#c77844"/>
						<stop offset="1" style="stop-color:#87522e"/>
					</linearGradient>
					<path style="fill:url(#SVGID_00000078005976182200788520000015124363452426177457_);" d="M2539.778,1201.604       c0,0-44.219,23.741-69.305,93.189c-25.086,69.449,1.16,97.98,30.916,99.453c29.755,1.473,73.606-3.272,116.037-50.586       C2659.856,1296.347,2597.47,1172.97,2539.778,1201.604z"/>

					<linearGradient id="SVGID_00000155848587493426637530000001350022869504227001_" gradientUnits="userSpaceOnUse" x1="8200.5361" y1="3259.1416" x2="8218.6152" y2="3027.1272" gradientTransform="matrix(0.9957 -0.093 0.093 0.9957 -5843.2544 593.3239)">
						<stop offset="0" style="stop-color:#2b2b2b"/>
						<stop offset="1" style="stop-color:#2b2b2b"/>
					</linearGradient>
					<path style="fill:url(#SVGID_00000155848587493426637530000001350022869504227001_);" d="M2582.885,1311.062       c0,0,25.637-100.572-60.759-93.659l-18.978,16.089c0,0-2.473-45.19,47.085-75.805c49.558-30.615,95.009-20.738,123.665,47.206       c28.656,67.943,19.937,114.36-13.724,151.293c-33.661,36.934-52.372,0.371-52.372,0.371s17.107-33.201,7.385-49.2       c-9.722-15.999-26.644,5.987-26.644,5.987L2582.885,1311.062z"/>

					<linearGradient id="SVGID_00000124876213066719245760000000063658933407684012_" gradientUnits="userSpaceOnUse" x1="-1509.0431" y1="2271.1106" x2="-1198.1034" y2="1789.1533" gradientTransform="matrix(-0.9743 0.2254 0.2254 0.9743 1084.5792 -206.0431)">
						<stop offset="0" style="stop-color:#2b2b2b"/>
						<stop offset="1" style="stop-color:#2b2b2b"/>
					</linearGradient>
					<path style="fill:url(#SVGID_00000124876213066719245760000000063658933407684012_);" d="M2679.324,1320.804       c0,0,150.666-87.433,216.51,75.586c65.844,163.02,96.835,212.991,130.305,174.511c0,0,8,64.743-75.76,54.357       C2732.961,1598.297,2800.635,1335.257,2679.324,1320.804z"/>
				</g>
			</g>

			<linearGradient id="SVGID_00000106127977561687857500000017916662302142730686_" gradientUnits="userSpaceOnUse" x1="-4481.9414" y1="2321.6904" x2="-5013.4385" y2="2473.0664" gradientTransform="matrix(-1 0 0 1 720.2058 0)">
				<stop offset="0" style="stop-color:#01a26d"/>
				<stop offset="1" style="stop-color:#01a26d"/>
			</linearGradient>
			<path style="fill:url(#SVGID_00000106127977561687857500000017916662302142730686_);" d="M2702.36,1472.575     c162.537,156.013,129.819,339.293-118.711,237.066l-23.979-16.292c122.726-2.597,196.615-47.087,122.726-93.935     C2657.792,1561.443,2670.469,1514.121,2702.36,1472.575z"/>

			<linearGradient id="SVGID_00000008113229895339427400000013813354495079530368_" gradientUnits="userSpaceOnUse" x1="2726.9763" y1="1242.6465" x2="1931.2659" y2="2579.6584">
				<stop offset="0" style="stop-color:#00233f"/>
				<stop offset="1" style="stop-color:#00233f"/>
			</linearGradient>
			<path style="fill:url(#SVGID_00000008113229895339427400000013813354495079530368_);" d="M2636.201,1742.385     c9.376,0.581,17.531-6.451,18.3-15.856c0.776-9.52-6.308-17.868-15.831-18.644l-376.538-30.755     c-9.638-0.723-17.868,6.312-18.644,15.831c-0.776,9.52,6.308,17.868,15.831,18.644l376.539,30.755     C2635.972,1742.37,2636.087,1742.377,2636.201,1742.385z"/>

			<linearGradient id="SVGID_00000034053777825185959960000016509512661595620503_" gradientUnits="userSpaceOnUse" x1="-1451.6263" y1="1413.2966" x2="-1558.8505" y2="856.4213" gradientTransform="matrix(-0.9981 -0.0618 -0.0618 0.9981 892.216 256.1789)">
				<stop offset="0" style="stop-color:#c77844"/>
				<stop offset="1" style="stop-color:#87522e"/>
			</linearGradient>
			<path style="fill:url(#SVGID_00000034053777825185959960000016509512661595620503_);" d="M2305.167,1679.795     c0,0-29.782,12.698-30.23,22.874c-0.448,10.175-39.25,6.143-43.671-6.415c-3.034-8.62-1.003-43.927,27.606-40.031     c54.127,7.37,46.823,15.031,56.9,25.289L2305.167,1679.795z"/>

			<linearGradient id="SVGID_00000142891627163678424030000001511517329407705511_" gradientUnits="userSpaceOnUse" x1="-1720.5237" y1="1445.8824" x2="-1812.502" y2="968.1876" gradientTransform="matrix(-0.9981 -0.0618 -0.0618 0.9981 892.216 256.1789)">
				<stop offset="0" style="stop-color:#c77844"/>
				<stop offset="1" style="stop-color:#87522e"/>
			</linearGradient>
			<path style="fill:url(#SVGID_00000142891627163678424030000001511517329407705511_);" d="M2583.649,1709.641     c2.132-1.805,1.271-5.3-1.427-6.028c-19.578-5.278-32.067-32.758-68.296-9.4c-7.605,4.904-5.895,9.865-8.518,15.535     c-3.236,6.995,22.926,13.965,30.6,13.255C2552.557,1721.471,2573.88,1717.911,2583.649,1709.641z"/>
		</g>

		<g>
			<linearGradient id="SVGID_00000104670526316841746120000009335389413177526422_" gradientUnits="userSpaceOnUse" x1="3148.9751" y1="2908.3899" x2="2455.9272" y2="3662.2322" gradientTransform="matrix(1 0 0 1 -1727.1187 0)">
				<stop offset="0" style="stop-color:#8a3c27"/>
				<stop offset="1" style="stop-color:#8a3c27"/>
			</linearGradient>
			<path style="fill:url(#SVGID_00000104670526316841746120000009335389413177526422_);" d="M1202.783,2964.546     c0,0-7.177,40.632-10.696,80.854c-1.375,15.72,10.744,29.369,26.51,30.025c53.563,2.231,168.138,6.569,209.251,4.734     c6.18-0.276,10.221-6.603,7.934-12.352c-1.917-4.817-5.614-8.711-10.324-10.876l-189.256-86.982L1202.783,2964.546z"/>

			<linearGradient id="SVGID_00000054232119923210471130000004778514334361179838_" gradientUnits="userSpaceOnUse" x1="2924.0225" y1="2964.3792" x2="2985.5823" y2="2964.3792" gradientTransform="matrix(1 0 0 1 -1727.1187 0)">
				<stop offset="0" style="stop-color:#F9B776"/>
				<stop offset="1" style="stop-color:#F47960"/>
			</linearGradient>
			<path style="fill:url(#SVGID_00000054232119923210471130000004778514334361179838_);" d="M1196.904,2940.672l5.766,48.602     c0,0,33.153,15.433,55.794-1.946l-13.729-54.161L1196.904,2940.672z"/>

			<linearGradient id="SVGID_00000163044772741107082750000001943575003917735847_" gradientUnits="userSpaceOnUse" x1="2061.4973" y1="5085.8804" x2="2533.5586" y2="3597.6914" gradientTransform="matrix(1 0 0 1 -1727.1187 0)">
				<stop offset="0" style="stop-color:#00233f"/>
				<stop offset="1" style="stop-color:#27537b"/>
			</linearGradient>
			<path style="fill:url(#SVGID_00000163044772741107082750000001943575003917735847_);" d="M1201.238,2026.948     c-2.491,12.692-13.37,633.362,52.975,911.505c1.082,4.538-1.218,9.216-5.538,10.981c-10.176,4.158-30.125,10.178-54.032,10.981     c-7.404,0.249-14.042-4.564-16.13-11.67c-18.965-64.533-109.839-387.865-121.694-696.733c-13.246-345.131,0-11.751,0-11.751     l7.769-213.339L1201.238,2026.948z"/>

			<g>
				<linearGradient id="SVGID_00000135685922624415032350000007870197951820600740_" gradientUnits="userSpaceOnUse" x1="-3498.4316" y1="13177.0742" x2="-2186.0488" y2="2934.7341" gradientTransform="matrix(-1 0 0 1 -1006.9128 0)">
					<stop offset="0" style="stop-color:#27537b"/>
					<stop offset="1" style="stop-color:#27537b"/>
				</linearGradient>
				<path style="fill:url(#SVGID_00000135685922624415032350000007870197951820600740_);" d="M902.018,2894.222      c0,199.124,121.84,360.545,272.137,360.545s272.137-161.422,272.137-360.545s-132.453-322.677-282.75-322.677      S902.018,2695.098,902.018,2894.222z"/>

				<linearGradient id="SVGID_00000161611026312364661200000006840005268368492452_" gradientUnits="userSpaceOnUse" x1="1411.5217" y1="1965.2872" x2="971.4659" y2="3461.4807">
					<stop offset="0" style="stop-color:#00233f"/>
					<stop offset="1" style="stop-color:#00233f"/>
				</linearGradient>
				<ellipse style="fill:url(#SVGID_00000161611026312364661200000006840005268368492452_);" cx="1140.089" cy="2888.16" rx="238.071" ry="328.329"/>

				<linearGradient id="SVGID_00000115480443431786538090000009485415529691799184_" gradientUnits="userSpaceOnUse" x1="-1963.9414" y1="2547.0679" x2="-2420.95" y2="3595.4971" gradientTransform="matrix(-1 0 0 1 -1006.9128 0)">
					<stop offset="0" style="stop-color:#b8d1fe"/>
					<stop offset="1" style="stop-color:#00233f"/>
				</linearGradient>
				<ellipse style="fill:url(#SVGID_00000115480443431786538090000009485415529691799184_);" cx="1100.824" cy="2876.951" rx="190.469" ry="262.68"/>

				<linearGradient id="SVGID_00000095309740590792588320000018112116021323886495_" gradientUnits="userSpaceOnUse" x1="-2358.1907" y1="2678.4685" x2="-2353.9871" y2="3056.7771" gradientTransform="matrix(-0.9958 -0.0911 -0.0911 0.9958 -1053.9413 -19.1226)">
					<stop offset="0" style="stop-color:#27537b"/>
					<stop offset="1" style="stop-color:#27537b"/>
				</linearGradient>
				<path style="fill:url(#SVGID_00000095309740590792588320000018112116021323886495_);" d="M892.764,3072.485      c-1.78,19.455,57.123,40.747,131.563,47.557s136.228-3.442,138.007-22.897c1.78-19.455-57.123-40.747-131.563-47.556      C956.331,3042.778,894.543,3053.03,892.764,3072.485z"/>

				<linearGradient id="SVGID_00000150801761910273356900000011401996798782665895_" gradientUnits="userSpaceOnUse" x1="-2319.8093" y1="2804.9766" x2="-2433.915" y2="3066.7483" gradientTransform="matrix(-0.9958 -0.0911 -0.0911 0.9958 -1053.9413 -19.1226)">
					<stop offset="0" style="stop-color:#b8d1fe"/>
					<stop offset="1" style="stop-color:#b8d1fe"/>
				</linearGradient>
				<path style="fill:url(#SVGID_00000150801761910273356900000011401996798782665895_);" d="M894.055,3058.368      c-1.78,19.455,57.123,40.747,131.562,47.557c74.44,6.81,136.228-3.442,138.007-22.897s-57.123-40.747-131.563-47.557      C957.623,3028.661,895.835,3038.913,894.055,3058.368z"/>

				<linearGradient id="SVGID_00000016067770095402006340000016202998699656726717_" gradientUnits="userSpaceOnUse" x1="-2124.7195" y1="2414.1711" x2="-2612.1282" y2="3532.3423" gradientTransform="matrix(-1 0 0 1 -1006.9128 0)">
					<stop offset="0" style="stop-color:#5783c8"/>
					<stop offset="1" style="stop-color:#5783c8"/>
				</linearGradient>
				<path style="fill:url(#SVGID_00000016067770095402006340000016202998699656726717_);" d="M1458.686,2945.781      c3.521,56.288-64.05,60.546-83.174,4.503c0-204.558-101.699-400.79-332.163-348.131l1.69-31.478      C1318.71,2493.673,1448.432,2697.7,1458.686,2945.781z"/>

				<path style="fill:#FFFFFF;" d="M1421.409,2963.186c-0.936,0-1.694-0.758-1.694-1.694c0-157.644-43.264-275.166-125.115-339.861      c-64.14-50.692-148.266-65.564-243.277-43.006c-0.915,0.213-1.824-0.347-2.039-1.255c-0.217-0.911,0.346-1.824,1.255-2.039      c96.061-22.805,181.181-7.716,246.161,43.644c82.693,65.358,126.402,183.799,126.402,342.517      C1423.103,2962.428,1422.345,2963.186,1421.409,2963.186z"/>
			</g>

			<g>
				<linearGradient id="SVGID_00000089567066010198784330000001197337170543655849_" gradientUnits="userSpaceOnUse" x1="2993.5012" y1="2765.4546" x2="2300.4541" y2="3519.2961" gradientTransform="matrix(1 0 0 1 -1727.1187 0)">
					<stop offset="0" style="stop-color:#8a3c27"/>
					<stop offset="1" style="stop-color:#8a3c27"/>
				</linearGradient>
				<path style="fill:url(#SVGID_00000089567066010198784330000001197337170543655849_);" d="M985.077,2985.744      c0,0-11.425,20.513-22.486,75.02c-1.998,9.844,4.88,19.265,14.876,20.248c17.686,1.739,44.914,3.975,66.725,3.825      c10.054-0.069,17.901-8.823,16.689-18.805c-2.416-19.896-9.942-52.538-33.193-77.979L985.077,2985.744z"/>

				<linearGradient id="SVGID_00000119075467133636436100000018201847487072816056_" gradientUnits="userSpaceOnUse" x1="2702.1616" y1="2961.2219" x2="2755.313" y2="2961.2219" gradientTransform="matrix(1 0 0 1 -1727.1187 0)">
					<stop offset="0" style="stop-color:#c77844"/>
					<stop offset="1" style="stop-color:#87522e"/>
				</linearGradient>
				<path style="fill:url(#SVGID_00000119075467133636436100000018201847487072816056_);" d="M975.043,2923.232l13.474,73.499      c0,0,13.322,9.909,39.677,2.726l-6.432-79.08L975.043,2923.232z"/>

				<linearGradient id="SVGID_00000044136163375088976760000015036563146744895123_" gradientUnits="userSpaceOnUse" x1="1908.9769" y1="5037.5039" x2="2381.0391" y2="3549.3123" gradientTransform="matrix(1 0 0 1 -1727.1187 0)">
					<stop offset="0" style="stop-color:#bacefd"/>
					<stop offset="1" style="stop-color:#042945"/>
				</linearGradient>
				<path style="fill:url(#SVGID_00000044136163375088976760000015036563146744895123_);" d="M938.642,2045.994      c-54.261,327.47,11.771,809.37,34.04,903.69c1.364,5.774,6.024,10.198,11.876,11.168c9.941,1.648,26.307,2.992,42.441-1.694      c5.559-1.615,9.465-6.628,9.692-12.413c2.987-76.254-2.39-544.383,48.169-729.389c2.563-9.376,8.288-17.552,16.21-23.184      l98.132-69.763l7.524-112.766L938.642,2045.994z"/>
			</g>

			<linearGradient id="SVGID_00000046339886432477891770000010762771889826998678_" gradientUnits="userSpaceOnUse" x1="2941.1958" y1="1130.7427" x2="3027.0876" y2="1130.7427" gradientTransform="matrix(1 0 0 1 -1727.1187 0)">
				<stop offset="0" style="stop-color:#01b97b"/>
				<stop offset="1" style="stop-color:#01b97b"/>
			</linearGradient>
			<path style="fill:url(#SVGID_00000046339886432477891770000010762771889826998678_);" d="M1214.149,1138.526     c0.516,2.518,13.15,5.224,38.396,10.534c12.887,2.711,19.467,4.031,26.143,2.327c2.798-0.714,18.145-4.631,20.877-16.847     c2.005-8.96-4.094-16.504-4.455-16.938c-0.946-1.134-4.395-5.009-12.164-7.145c-6.813-1.873-16.456-2.272-35.52,5.882     C1235.078,1121.622,1212.647,1131.197,1214.149,1138.526z"/>

			<g>
				<linearGradient id="SVGID_00000075151422676532452950000008312428111515728562_" gradientUnits="userSpaceOnUse" x1="1053.5419" y1="1782.5214" x2="399.4869" y2="2484.5798">
					<stop offset="0" style="stop-color:#b8d1fe"/>
					<stop offset="1" style="stop-color:#00233f"/>
				</linearGradient>
				<path style="fill:url(#SVGID_00000075151422676532452950000008312428111515728562_);" d="M1284.397,1425.5      c-162.611-2.687-342.034,42.697-342.034,42.697c-48.471,282.826-8.475,609.045-8.475,609.045      c125.889,33.014,267.899-20.184,267.899-20.184c20.924-118.215,118.547-450.91,118.547-450.91      c79.452-9.861,144.901-32.783,198.801-63.089c-41.113-47.656-60.495-108.296-68.913-144.142      C1392.729,1416.786,1334.552,1426.329,1284.397,1425.5z"/>

				<linearGradient id="SVGID_00000011028735562940745300000008585003357091565483_" gradientUnits="userSpaceOnUse" x1="1773.7899" y1="1210.5792" x2="1069.6975" y2="1866.6644">
					<stop offset="0" style="stop-color:#c77844"/>
					<stop offset="1" style="stop-color:#87522e"/>
				</linearGradient>
				<path style="fill:url(#SVGID_00000011028735562940745300000008585003357091565483_);" d="M1764.72,1185.983      c-15.974-19.294-36.191-10.166-36.191-10.166c-23.93,101.081-149.402,183.04-278.307,223.101      c8.419,35.846,27.8,96.486,68.913,144.142C1733.064,1422.776,1764.72,1185.983,1764.72,1185.983z"/>

				<linearGradient id="SVGID_00000029012630763443310410000000834158624235175822_" gradientUnits="userSpaceOnUse" x1="1311.5292" y1="183.2857" x2="1000.627" y2="-425.9267" gradientTransform="matrix(0.9902 0.1395 -0.1395 0.9902 531.8508 872.4636)">
					<stop offset="0" style="stop-color:#c77844"/>
					<stop offset="1" style="stop-color:#87522e"/>
				</linearGradient>
				<path style="fill:url(#SVGID_00000029012630763443310410000000834158624235175822_);" d="M1717.707,1137.432      c-1.499-10.179-2.195-21.286,3.202-30.045c5.608-9.102,16.36-13.417,24.528-20.315c17.013-14.367,21.45-38.446,23.966-60.572      c19.544,7.433,33.188,26.702,36.982,47.264c3.794,20.563-1.305,42.045-10.912,60.617c-4.977,9.621-11.122,18.586-16.511,27.982      c-7.869,13.72-21.956,38.105-41.836,28.111C1721.97,1182.856,1719.8,1151.649,1717.707,1137.432z"/>
			</g>

			<linearGradient id="SVGID_00000183230183923300672660000009761153144991101353_" gradientUnits="userSpaceOnUse" x1="888.9435" y1="1629.1785" x2="234.891" y2="2331.2341">
				<stop offset="0" style="stop-color:#cddffe"/>
				<stop offset="1" style="stop-color:#00233f"/>
			</linearGradient>
			<path style="fill:url(#SVGID_00000183230183923300672660000009761153144991101353_);" d="M1004.734,1625.652l-62.371-157.455     c0,0-151.887,103.201-176.865,234.049c28.699,2.113,80.922,9.578,132.038,35.388     C908.768,1675.85,1004.734,1625.652,1004.734,1625.652z"/>

			<linearGradient id="SVGID_00000160185652553430102340000009794798301671026861_" gradientUnits="userSpaceOnUse" x1="2489.1538" y1="1803.838" x2="2887.1538" y2="1803.838" gradientTransform="matrix(1 0 0 1 -1727.1187 0)">
				<stop offset="0" style="stop-color:#87522e"/>
				<stop offset="1" style="stop-color:#c77844"/>
			</linearGradient>
			<path style="fill:url(#SVGID_00000160185652553430102340000009794798301671026861_);" d="M1137.467,1773.812     c0,0-170.531,96.376-228.071,14.082c-11.947-17.088-14.803-34.07-11.86-50.26c-51.116-25.81-103.339-33.275-132.038-35.388     c-7.531,39.445-3.55,81.399,19.629,123.801c100.791,184.374,374.908-10.19,374.908-10.19L1137.467,1773.812z"/>

			<linearGradient id="SVGID_00000030448400623612652250000010218195943544659889_" gradientUnits="userSpaceOnUse" x1="2794.7622" y1="1378.3516" x2="2952.1187" y2="1378.3516" gradientTransform="matrix(1 0 0 1 -1727.1187 0)">
				<stop offset="0" style="stop-color:#87522e"/>
				<stop offset="1" style="stop-color:#c77844"/>
			</linearGradient>
			<path style="fill:url(#SVGID_00000030448400623612652250000010218195943544659889_);" d="M1119.685,1293.486l-51.74,149.629     c-0.857,2.479,0.162,5.224,2.458,6.493c14.104,7.798,64.917,30.338,126.152-8.486c6.379-4.044,10.722-10.64,11.691-18.131     L1225,1293.486H1119.685z"/>

			<g>
				<linearGradient id="SVGID_00000173120051468792082030000010671260184828408722_" gradientUnits="userSpaceOnUse" x1="-2976.5247" y1="128.7272" x2="-3035.3269" y2="-65.2165" gradientTransform="matrix(0.746 -0.6659 0.6659 0.746 3399.2168 -803.1727)">
					<stop offset="0" style="stop-color:#c77844"/>
					<stop offset="1" style="stop-color:#87522e"/>
				</linearGradient>
				<path style="fill:url(#SVGID_00000173120051468792082030000010671260184828408722_);" d="M1228.887,1143.759      c0,0,60.194,118.116,52.911,161.319c-7.283,43.203-77.697,40.101-139.186,5.013l-42.967-115.483L1228.887,1143.759z"/>

				<linearGradient id="SVGID_00000067915927592371683740000002661722338270746042_" gradientUnits="userSpaceOnUse" x1="-3048.4841" y1="-211.1556" x2="-2998.2871" y2="75.1537" gradientTransform="matrix(0.746 -0.6659 0.6659 0.746 3399.2168 -803.1727)">
					<stop offset="0" style="stop-color:#2b2b2b"/>
					<stop offset="1" style="stop-color:#2b2b2b"/>
				</linearGradient>
				<path style="fill:url(#SVGID_00000067915927592371683740000002661722338270746042_);" d="M1145.33,1253.377      c2.499-1.107,3.421-4.164,1.924-6.451c-4.552-6.953-13.085-21.141-15.806-33.561c0,0-10.214-6.542,25.996-15.208      c36.21-8.667,45.356-28.809,56.706-59.63c11.348-30.815-41.868-87.89-92.475-19.75c-1.149-1.903,21.47-51.215-13.439-35.552      c-26.09,11.706-4.689,29.492-4.508,39.055c0.052,2.776-2.664,4.834-5.393,4.322c-13.249-2.488-55.991-7.489-59.16,27.711      c-3.9,43.321,7.888,53.491,10.478,54.79c-13.982,1.224-16.542,17.05-16.539,31.251c0.003,15.348,21.509,25.983,30.258,24.713      c1.415-0.205,2.817,0.307,3.775,1.368c7.569,8.381,41.96,44.293,79.196,48.645c3.239,0.379,5.771-2.785,4.71-5.869      l-16.102-46.805c-0.748-2.174,0.292-4.558,2.394-5.49L1145.33,1253.377z"/>

				<linearGradient id="SVGID_00000051350928107704784200000012035821800578343563_" gradientUnits="userSpaceOnUse" x1="-3040.354" y1="128.9531" x2="-3093.2598" y2="-45.5428" gradientTransform="matrix(0.746 -0.6659 0.6659 0.746 3399.2168 -803.1727)">
					<stop offset="0" style="stop-color:#87522e"/>
					<stop offset="1" style="stop-color:#87522e"/>
				</linearGradient>
				<path style="fill:url(#SVGID_00000051350928107704784200000012035821800578343563_);" d="M1151.802,1260.021      c0,0-40.454-27.755-43.409-4.381c-2.956,23.373,36.429,33.855,55.937,25.141L1151.802,1260.021z"/>
			</g>

			<linearGradient id="SVGID_00000077312574006878703460000002951315073732537527_" gradientUnits="userSpaceOnUse" x1="1115.0074" y1="1052.6215" x2="1111.0071" y2="1272.65">
				<stop offset="0" style="stop-color:#01b97b"/>
				<stop offset="1" style="stop-color:#008256"/>
			</linearGradient>
			<path style="fill:url(#SVGID_00000077312574006878703460000002951315073732537527_);" d="M1214.304,1105.541     c-12.851-19.937-26.284-41.478-39.135-61.415c0,0-10.549-19.788-36.831-17.848c-12.008,0.886-31.771,4.138-59.626,21.62     c-15.772,9.899-27.754,17.418-39.789,32.137c-8.591,10.507-29.466,36.036-25.122,65.611c1.519,10.344,6.019,18.78,15.018,35.651     c1.412,2.647,2.825,5.178,4.223,7.588c8.283,14.277,25.367,20.934,41.063,15.829c0.223-0.072,0.446-0.145,0.67-0.219     c44.269-14.477,109.534-35.808,134.127-88.27C1211.477,1110.734,1213.604,1107.741,1214.304,1105.541z"/>

			<linearGradient id="SVGID_00000114786082992894195380000006668496888468881308_" gradientUnits="userSpaceOnUse" x1="1190.5956" y1="1170.5706" x2="734.5359" y2="1142.5664">
				<stop offset="0" style="stop-color:#017f55"/>
				<stop offset="1" style="stop-color:#017f55"/>
			</linearGradient>
			<path style="fill:url(#SVGID_00000114786082992894195380000006668496888468881308_);" d="M1283.847,1110.72     c-0.489-0.147-1.332-0.395-2.385-0.673c-11.315-2.99-18.655-2.036-35.979-2.752c-4.623-0.191-7.108-0.406-9.519-0.645     c-3.226-0.32-5.255-0.679-12.057-1.323c-5.344-0.506-13.422-1.292-23.836,0.546c-15.749,2.779-26.641,9.76-34.93,15.258     c-37.825,25.089-63.368,50.322-73.657,58.9c-10.308,8.594-18.076,21.807-23.841,26.731     c17.823,13.437,28.908,14.956,40.302,19.439c15.813,6.224,27.407,10.612,41.582,7.692c2.809-0.579,13.196-2.984,26.7-14.742     c25.858-22.512,18.41-40.362,42.87-67.83c14.574-16.367,32.932-25.898,39.855-29.631     C1268.577,1116.5,1277.225,1113.03,1283.847,1110.72z"/>

			<linearGradient id="SVGID_00000006695369043717792450000014973175609768554370_" gradientUnits="userSpaceOnUse" x1="-2903.1475" y1="368.083" x2="-3857.5234" y2="1406.1774" gradientTransform="matrix(-0.9201 -0.3916 -0.4448 1.0451 -1332.2218 -49.6137)">
				<stop offset="0" style="stop-color:#002d55"/>
				<stop offset="1" style="stop-color:#002d55"/>
			</linearGradient>
			<path style="fill:url(#SVGID_00000006695369043717792450000014973175609768554370_);" d="M1154.691,1815.083l107.407,45.712     c1.434,0.61,3.092-0.057,3.702-1.492l83.168-195.416c0.61-1.434-0.057-3.092-1.492-3.702l-107.407-45.712     c-1.434-0.61-3.092,0.057-3.702,1.492l-83.168,195.416C1152.589,1812.815,1153.257,1814.473,1154.691,1815.083z"/>

			<linearGradient id="SVGID_00000054982520151914588930000014153631404341433258_" gradientUnits="userSpaceOnUse" x1="1592.2352" y1="1572.0308" x2="1726.3833" y2="1572.0308" gradientTransform="matrix(0.9495 0.3139 -0.3139 0.9495 110.0554 -233.141)">
				<stop offset="0" style="stop-color:#87522e"/>
				<stop offset="1" style="stop-color:#c77844"/>
			</linearGradient>
			<path style="fill:url(#SVGID_00000054982520151914588930000014153631404341433258_);" d="M1140.23,1825.442     c-12.128-0.73-21.071-11.679-19.562-23.735c2.367-18.909,7.064-47.686,14.692-59.102c11.795-17.653,30.463-39.192,63.322-22.171     c32.86,17.022,68.953,45.168,68.953,45.168s-10.434,24.623-34.103,7.741l12.169,18.058c0,0-9.036,19.49-27.73,1.301l9.661,21.807     c0,0-15.067,13.479-27.925-2.612C1189.103,1798.627,1171.069,1827.298,1140.23,1825.442z"/>
		</g>
	</g>
</g>
</svg>