<svg xmlns="http://www.w3.org/2000/svg" xmlns:xlink="http://www.w3.org/1999/xlink" version="1.1" x="0px" y="0px" style="enable-background:new 0 0 3710 3710;" xml:space="preserve" viewBox="0 0 3710 3710">
<g id="Background">
	<g>
		<g>
			<rect style="fill:transparent;" width="3710" height="3710"/>
		</g>
	</g>
</g>
<g id="Illustration">
	<g>
		<linearGradient id="SVGID_1_" gradientUnits="userSpaceOnUse" x1="3585.2778" y1="3987.7524" x2="1152.3213" y2="966.1732">
			<stop offset="0" style="stop-color:#DAE3FE"/>
			<stop offset="1" style="stop-color:#E9EFFD"/>
		</linearGradient>
		<path style="fill:url(#SVGID_1_);" d="M2926.308,2788.955c-56.452,58.44-109.865,96.127-152.067,125.902    c-496.068,350.005-1083.047,247.98-1207.797,223.064c-184.216-36.792-540.302-107.91-797.746-405.615    c-389.491-450.403-328.841-1160.001-26.726-1628.416c55.262-85.681,347.17-561.231,940.471-637.495    c359.06-46.154,777.608,46.933,1080.709,296.641C3399.39,1287.198,3354.097,2346.095,2926.308,2788.955z"/>
		<g style="opacity:0.9;">
			<path style="fill:#BDD0FB;" d="M1644.633,2610.201c0,0-365.924-1219.873-1012.946-1859.039     c-43.495-42.966-117.262-21.078-129.912,38.737C417.19,1189.865,280.719,2395.998,1644.633,2610.201z"/>
			<path style="opacity:0.24;fill:#FFFFFF;" d="M1516.688,2537.688c3.194,2.774-0.529,7.678-4.067,5.357     c-130.417-85.563-640.364-513.691-872.301-1413.074c-0.745-2.889,3.487-4.256,4.479-1.442     C717.872,1335.871,1011.625,2098.983,1516.688,2537.688z"/>
		</g>
		<g>

				<linearGradient id="SVGID_00000008831113661700722750000017951806947005375640_" gradientUnits="userSpaceOnUse" x1="1678.4006" y1="1446.1412" x2="1233.4423" y2="430.0412">
				<stop offset="0" style="stop-color:#4F52FF"/>
				<stop offset="1" style="stop-color:#4042E2"/>
			</linearGradient>
			<path style="fill:url(#SVGID_00000008831113661700722750000017951806947005375640_);" d="M2811.617,1595.071     c-24.459,557.161-531.82,987.427-1133.22,961.026c-601.401-26.402-1069.105-499.473-1044.645-1056.634     c24.459-557.161,531.82-987.427,1133.22-961.026C2368.373,564.838,2836.076,1037.909,2811.617,1595.071z"/>
			<ellipse style="opacity:0.11;fill:#FFFFFF;" cx="1663.692" cy="1474.411" rx="855.298" ry="807.984"/>
			<g style="opacity:0.68;">
				<path style="fill:#FFFFFF;" d="M2001.138,1552.144c-0.262,178.101-12.476,356.566-43.862,532.145      c-7.946,43.858-17.158,87.507-28.133,130.741c-11.009,43.217-23.72,86.059-39.282,127.946      c-15.693,41.778-33.906,82.955-58.605,120.589c-12.446,18.679-26.563,36.578-43.984,51.301      c-8.708,7.315-18.272,13.802-28.791,18.555c-10.497,4.722-21.97,7.711-33.614,7.919c-11.629,0.34-23.275-1.936-33.979-6.247      c-10.746-4.269-20.542-10.464-29.46-17.537c-17.838-14.265-32.265-31.967-44.934-50.499      c-25.136-37.366-43.597-78.46-59.454-120.172c-15.759-41.815-28.594-84.623-39.7-127.814      c-11.085-43.205-20.39-86.834-28.401-130.679c-15.989-87.708-26.895-176.259-34.253-265.054      c-7.306-88.809-10.968-177.902-11.418-267.008c-0.219-44.547,0.997-89.087,2.58-133.6c1.668-44.512,4.12-88.995,7.397-133.417      c6.589-88.834,16.43-177.471,31.061-265.379c7.341-43.944,15.9-87.702,26.196-131.074      c10.322-43.357,22.317-86.369,37.197-128.448c7.479-21.021,15.655-41.816,24.98-62.123      c9.311-20.302,19.731-40.162,31.977-58.938c12.274-18.693,26.384-36.537,43.955-50.82c8.784-7.079,18.461-13.239,29.064-17.412      c10.56-4.227,22.018-6.367,33.416-5.934c11.404,0.325,22.647,3.168,33.02,7.737c10.387,4.59,19.932,10.833,28.695,17.909      c17.527,14.243,32.033,31.656,44.902,49.942c25.585,36.827,44.874,77.441,61.581,118.765      c16.586,41.438,30.28,83.948,42.208,126.897c11.886,42.97,21.951,86.419,30.661,130.123      C1986.623,1195.526,2000.624,1374.012,2001.138,1552.144z M1987.956,1552.144c0.163-88.743-3.21-177.509-10.585-265.944      c-7.271-88.432-18.286-176.61-34.696-263.811c-8.194-43.595-17.738-86.942-29.094-129.81      c-11.396-42.846-24.55-85.255-40.565-126.567c-16.13-41.195-34.835-81.667-59.656-118.232      c-12.477-18.154-26.551-35.396-43.44-49.423c-8.441-6.971-17.606-13.098-27.523-17.609c-9.907-4.457-20.578-7.379-31.43-7.664      c-10.845-0.344-21.677,1.838-31.708,5.966c-10.068,4.088-19.31,10.102-27.736,17.045      c-16.858,14.005-30.516,31.622-42.388,50.149c-11.849,18.607-21.936,38.342-30.933,58.54      c-9.012,20.203-16.897,40.916-24.092,61.861c-14.313,41.932-25.776,84.83-35.573,128.076      c-9.772,43.263-17.818,86.918-24.649,130.757c-13.613,87.699-22.454,176.116-28.05,264.696      c-5.653,88.592-7.605,177.384-7.445,266.138c-0.235,88.739,2.73,177.503,9.325,266.001      c6.648,88.484,16.83,176.745,32.069,264.14c7.636,43.688,16.556,87.153,27.243,130.169      c10.704,43.001,23.124,85.599,38.412,127.128c15.371,41.418,33.345,82.167,57.637,118.869      c12.225,18.198,26.136,35.457,42.994,49.14c8.424,6.789,17.592,12.664,27.503,16.686c9.881,4.033,20.482,6.274,31.104,5.916      c10.619-0.273,21.081-3.077,30.794-7.533c9.728-4.487,18.7-10.656,26.941-17.692c16.493-14.155,30.107-31.632,42.117-49.986      c23.867-36.992,41.582-77.832,56.78-119.319c15.082-41.605,27.365-84.239,37.96-127.267      c10.565-43.046,19.379-86.531,26.939-130.23c15.136-87.411,25.192-175.682,31.878-264.166      C1984.862,1729.678,1987.991,1640.905,1987.956,1552.144z"/>
				<path style="fill:#FFFFFF;" d="M2450.432,1552.144c-0.616,114.692-15.357,229.435-46.06,340.038      c-31.239,110.349-78.331,216.508-142.263,311.817c-31.97,47.603-68.189,92.41-108.66,133.063      c-40.453,40.641-85.192,77.114-133.757,107.679c-48.608,30.448-101.109,54.822-156.067,71.358      c-54.925,16.576-112.264,25.223-169.654,25.28c-57.39-0.005-114.745-8.6-169.699-25.131      c-54.987-16.491-107.53-40.825-156.189-71.243c-48.614-30.534-93.42-66.974-133.939-107.598      c-40.538-40.635-76.829-85.434-108.871-133.036c-64.062-95.322-111.252-201.527-142.637-311.93      c-15.448-55.303-26.929-111.698-34.534-168.596c-7.565-56.907-11.366-114.294-11.627-171.701      c0.297-57.409,4.133-114.79,11.733-171.688c7.642-56.888,19.165-113.267,34.651-168.548      c31.464-110.359,78.726-216.492,142.83-311.715c32.056-47.559,68.352-92.308,108.885-132.889      c40.519-40.563,85.293-76.969,133.899-107.406c48.644-30.339,101.175-54.494,156.066-70.978      c54.856-16.553,112.119-25.187,169.433-25.243c57.315,0.104,114.562,8.786,169.391,25.381      c54.863,16.529,107.349,40.731,155.942,71.103c48.553,30.472,93.263,66.908,133.715,107.489      c40.466,40.599,76.69,85.357,108.674,132.917c63.974,95.21,111.141,201.297,142.456,311.602      C2434.92,1322.728,2449.738,1437.451,2450.432,1552.144z M2435.32,1552.144c-0.166-113.391-14.291-226.902-44.209-336.359      c-30.084-109.288-75.382-214.797-137.744-309.681c-31.164-47.393-66.559-92.065-106.202-132.672      c-39.659-40.544-83.464-77.225-131.372-107.713c-47.966-30.317-99.764-54.72-154.078-71.226      c-54.286-16.518-110.964-25.201-167.745-25.389c-56.782,0.237-113.445,8.968-167.704,25.527      c-54.285,16.55-106.038,41.001-153.953,71.35c-47.856,30.523-91.596,67.234-131.189,107.795      c-39.575,40.625-74.899,85.306-105.991,132.7c-62.232,94.872-107.432,200.334-137.369,309.568      c-14.914,54.679-25.712,110.435-33.029,166.604c-7.334,56.177-10.953,112.828-11.08,169.496      c0.162,56.667,3.817,113.314,11.186,169.481c7.353,56.16,18.195,111.899,33.145,166.556      c30.014,109.19,75.289,214.58,137.563,309.353c31.104,47.35,66.432,91.981,106.004,132.552      c39.592,40.499,83.3,77.177,131.148,107.603c47.901,30.272,99.641,54.542,153.831,71.085      c54.16,16.582,110.731,25.352,167.437,25.64c56.707-0.235,113.293-8.953,167.483-25.49      c54.219-16.499,106.002-40.73,153.953-70.97c47.897-30.396,91.672-67.041,131.331-107.523      c39.638-40.553,75.039-85.175,106.215-132.525c62.403-94.786,107.777-200.222,137.936-309.466      C2420.874,1779.026,2435.077,1665.534,2435.32,1552.144z"/>
				<path style="fill:#FFFFFF;" d="M811.241,1160.7l227.175-1.835l227.175-1.04l454.35-0.839l454.35,0.923l227.175,1.136      l227.175,1.981c0.368,0.003,0.664,0.304,0.661,0.673c-0.002,0.364-0.298,0.658-0.661,0.661l-227.175,1.981l-227.175,1.136      l-454.35,0.924l-454.35-0.839l-227.175-1.04l-227.175-1.835c-0.549-0.005-0.99-0.453-0.986-1.002      C810.26,1161.143,810.7,1160.704,811.241,1160.7z"/>
				<path style="fill:#FFFFFF;" d="M1074.791,780.201c53.762-0.852,107.525-1.217,161.287-1.835l161.287-1.04      c53.763-0.443,107.525-0.395,161.288-0.532l161.287-0.307l322.575,0.924l161.288,1.136      c53.763,0.674,107.525,1.069,161.288,1.981c0.368,0.006,0.661,0.31,0.656,0.678c-0.006,0.36-0.299,0.649-0.656,0.656      c-53.763,0.913-107.525,1.307-161.288,1.981l-161.288,1.136l-322.575,0.924l-161.287-0.307      c-53.763-0.137-107.525-0.089-161.288-0.532l-161.287-1.04c-53.762-0.618-107.525-0.983-161.287-1.835      c-0.548-0.009-0.986-0.46-0.978-1.009C1073.822,780.642,1074.257,780.21,1074.791,780.201z"/>
				<path style="fill:#FFFFFF;" d="M732.295,1541.199l246.911-1.829l246.912-1.046l493.822-0.839l493.822,0.924l246.912,1.137      l246.911,1.98c0.369,0.003,0.665,0.304,0.662,0.672c-0.003,0.365-0.298,0.659-0.662,0.662l-246.911,1.98l-246.912,1.137      l-493.822,0.924l-493.822-0.839l-246.912-1.046l-246.911-1.829c-0.549-0.004-0.99-0.452-0.986-1.001      C731.313,1541.641,731.753,1541.203,732.295,1541.199z"/>
				<path style="fill:#FFFFFF;" d="M811.241,1921.697l227.175-1.835l227.175-1.04l454.35-0.839l454.35,0.924l227.175,1.135      l227.175,1.982c0.368,0.003,0.664,0.305,0.661,0.673c-0.002,0.364-0.298,0.658-0.661,0.661l-227.175,1.981l-227.175,1.136      l-454.35,0.924l-454.35-0.839l-227.175-1.04l-227.175-1.836c-0.549-0.004-0.99-0.453-0.986-1.001      C810.26,1922.139,810.7,1921.702,811.241,1921.697z"/>
				<path style="fill:#FFFFFF;" d="M2397.597,2306.673H1107.299c-1.925,0-3.483-1.559-3.483-3.483c0-1.923,1.557-3.483,3.483-3.483      h1290.298c1.925,0,3.483,1.56,3.483,3.483C2401.08,2305.113,2399.522,2306.673,2397.597,2306.673z"/>
			</g>
		</g>
		<g>
			<g>
				<g>

						<linearGradient id="SVGID_00000032608022109207783780000002094312493813833353_" gradientUnits="userSpaceOnUse" x1="2700.4104" y1="804.7117" x2="2597.1836" y2="1035.8502">
						<stop offset="0" style="stop-color:#FF928E"/>
						<stop offset="1" style="stop-color:#FE7062"/>
					</linearGradient>
					<path style="fill:url(#SVGID_00000032608022109207783780000002094312493813833353_);" d="M2754.923,1050.075       c16.296,0.343,29.673-14.2,29.673-32.259V874.255c0-18.862-13.68-34.209-30.702-34.415       c-51.087-0.616-156.452-0.647-242.663,7.403c-11.764,1.098-20.915,11.782-21.342,24.855l-8.058,138.795       c-0.599,18.358,12.501,33.696,29.077,34.045L2754.923,1050.075z"/>
					<path style="opacity:0.37;fill:#FFFFFF;" d="M2645.134,962.079l-35.072,4.192c-4.907,0.587-9.095-3.897-8.733-9.352       l7.667-115.597c14.702-0.517,29.203-0.893,43.196-1.158v113.204C2652.192,957.843,2649.149,961.598,2645.134,962.079z"/>
					<path style="fill:#FFFFFF;" d="M2630.759,942.043c-0.108,2.079-1.663,3.683-3.519,3.683c-0.069,0-0.138-0.003-0.207-0.008       c-1.945-0.125-3.431-1.972-3.316-4.128l5.288-100.889c2.371-0.065,4.723-0.123,7.075-0.181L2630.759,942.043z"/>
				</g>
				<g>

						<linearGradient id="SVGID_00000138561666196379760920000006486746688842651794_" gradientUnits="userSpaceOnUse" x1="2963.7043" y1="801.1323" x2="2876.186" y2="1032.2708">
						<stop offset="0" style="stop-color:#FF928E"/>
						<stop offset="1" style="stop-color:#FE7062"/>
					</linearGradient>
					<path style="fill:url(#SVGID_00000138561666196379760920000006486746688842651794_);" d="M3015.367,1050.961       c14.802,0.343,26.952-14.2,26.952-32.259V875.141c0-18.862-12.426-34.209-27.888-34.415       c-46.404-0.616-142.109-0.647-220.417,7.403c-10.686,1.098-18.998,11.782-19.385,24.855l-7.319,138.795       c-0.544,18.358,11.355,33.696,26.412,34.045L3015.367,1050.961z"/>
					<path style="opacity:0.37;fill:#FFFFFF;" d="M2915.643,962.964l-31.856,4.192c-4.458,0.587-8.261-3.898-7.933-9.352       l6.964-115.597c13.354-0.517,26.526-0.893,39.236-1.158v113.204C2922.055,958.729,2919.291,962.484,2915.643,962.964z"/>
					<path style="fill:#FFFFFF;" d="M2902.586,942.929c-0.098,2.079-1.51,3.682-3.196,3.682c-0.063,0-0.125-0.003-0.188-0.008       c-1.767-0.125-3.117-1.972-3.012-4.128l4.803-100.889c2.154-0.065,4.291-0.124,6.427-0.181L2902.586,942.929z"/>
				</g>
				<g>

						<linearGradient id="SVGID_00000134225852251060862950000004132851042325703349_" gradientUnits="userSpaceOnUse" x1="2887.6338" y1="629.4003" x2="2703.6204" y2="824.6337">
						<stop offset="0" style="stop-color:#FF928E"/>
						<stop offset="1" style="stop-color:#FE7062"/>
					</linearGradient>
					<path style="fill:url(#SVGID_00000134225852251060862950000004132851042325703349_);" d="M2906.624,821.376V683.399       c0-18.128-12.59-32.878-28.256-33.076c-47.017-0.592-143.987-0.622-223.33,7.115c-10.827,1.056-19.249,11.324-19.641,23.888       l-7.416,133.396c-0.551,17.644,11.505,32.385,26.761,32.721l224.573,4.938C2894.313,852.71,2906.624,838.733,2906.624,821.376z       "/>
					<path style="opacity:0.37;fill:#FFFFFF;" d="M2778.273,767.807l-32.278,4.029c-4.516,0.564-8.37-3.746-8.037-8.988l7.056-111.1       c13.531-0.497,26.877-0.859,39.755-1.113v108.8C2784.769,763.736,2781.969,767.346,2778.273,767.807z"/>
					<path style="fill:#FFFFFF;" d="M2765.044,748.551c-0.099,1.998-1.531,3.539-3.238,3.539c-0.064,0-0.127-0.003-0.191-0.008       c-1.79-0.12-3.158-1.895-3.052-3.967l4.867-96.964c2.182-0.062,4.347-0.119,6.511-0.174L2765.044,748.551z"/>
				</g>
				<g>

						<linearGradient id="SVGID_00000111185509973510090040000011398478331789906833_" gradientUnits="userSpaceOnUse" x1="2970.4983" y1="456.7857" x2="2730.3835" y2="656.5076">
						<stop offset="0" style="stop-color:#FF928E"/>
						<stop offset="1" style="stop-color:#FE7062"/>
					</linearGradient>
					<path style="fill:url(#SVGID_00000111185509973510090040000011398478331789906833_);" d="M2932.082,628.59V521.873       c0-14.021-9.738-25.43-21.854-25.582c-36.365-0.458-111.366-0.481-172.733,5.503c-8.374,0.816-14.888,8.759-15.191,18.476       l-5.735,103.174c-0.426,13.647,8.898,25.048,20.698,25.307l173.695,3.819C2922.56,652.826,2932.082,642.015,2932.082,628.59z"/>
					<path style="opacity:0.37;fill:#FFFFFF;" d="M2832.81,587.157l-24.965,3.116c-3.493,0.437-6.474-2.897-6.217-6.952       l5.458-85.929c10.465-0.384,20.788-0.664,30.748-0.861v84.151C2837.835,584.009,2835.668,586.801,2832.81,587.157z"/>
					<path style="fill:#FFFFFF;" d="M2822.578,572.264c-0.077,1.546-1.184,2.737-2.505,2.737c-0.049,0-0.098-0.002-0.147-0.006       c-1.385-0.093-2.442-1.466-2.361-3.068l3.764-74.996c1.688-0.048,3.362-0.092,5.036-0.135L2822.578,572.264z"/>
				</g>
			</g>
			<g>
				<path style="fill:#7D97F4;" d="M2661.808,1048.519h263.685V902.763c0-13.444-10.899-24.343-24.343-24.343h-203.566      c-19.759,0-35.776,16.017-35.776,35.776V1048.519z"/>
				<path style="fill:#91B3FA;" d="M2681.569,1045.396h243.924V875.296h-233.296c-5.87,0-10.628,4.758-10.628,10.628V1045.396z"/>

					<linearGradient id="SVGID_00000008127998646516764130000015154860925860881809_" gradientUnits="userSpaceOnUse" x1="-4210.5327" y1="751.347" x2="-4038.2666" y2="1116.0441" gradientTransform="matrix(-1 0 0 1 -1862.0112 0)">
					<stop offset="0" style="stop-color:#09005D"/>
					<stop offset="1" style="stop-color:#1A0F91"/>
				</linearGradient>
				<polygon style="fill:url(#SVGID_00000008127998646516764130000015154860925860881809_);" points="2366.473,751.929      2377.319,751.929 2377.319,651.795 2366.473,651.795     "/>

					<linearGradient id="SVGID_00000112619946562132557270000017103025579084905373_" gradientUnits="userSpaceOnUse" x1="-4191.4971" y1="747.845" x2="-4009.4944" y2="1133.1547" gradientTransform="matrix(-1 0 0 1 -1862.0112 0)">
					<stop offset="0" style="stop-color:#09005D"/>
					<stop offset="1" style="stop-color:#1A0F91"/>
				</linearGradient>
				<path style="fill:url(#SVGID_00000112619946562132557270000017103025579084905373_);" d="M2358.105,658.738h29.563v-5.146      c0-0.992-0.805-1.797-1.797-1.797h-25.969c-0.992,0-1.797,0.805-1.797,1.797V658.738z"/>

					<linearGradient id="SVGID_00000170240477917821374810000004449900277349039491_" gradientUnits="userSpaceOnUse" x1="-4258.5415" y1="774.0239" x2="-4086.2756" y2="1138.7207" gradientTransform="matrix(-1 0 0 1 -1862.0112 0)">
					<stop offset="0" style="stop-color:#09005D"/>
					<stop offset="1" style="stop-color:#1A0F91"/>
				</linearGradient>
				<polygon style="fill:url(#SVGID_00000170240477917821374810000004449900277349039491_);" points="2397.81,776.511      2417.079,776.511 2417.079,725.325 2397.81,725.325     "/>

					<linearGradient id="SVGID_00000166657613813294839290000001066341791692685754_" gradientUnits="userSpaceOnUse" x1="-4142.9502" y1="719.4236" x2="-3970.6838" y2="1084.1208" gradientTransform="matrix(-1 0 0 1 -1862.0112 0)">
					<stop offset="0" style="stop-color:#09005D"/>
					<stop offset="1" style="stop-color:#1A0F91"/>
				</linearGradient>
				<polygon style="fill:url(#SVGID_00000166657613813294839290000001066341791692685754_);" points="2256.428,776.511      2275.697,776.511 2275.697,725.325 2256.428,725.325     "/>

					<rect x="2223.915" y="888.319" transform="matrix(-1 -1.224647e-16 1.224647e-16 -1 4698.4355 1919.4521)" style="fill:#91B3FA;" width="250.605" height="142.814"/>
				<path style="fill:#91B3FA;" d="M2244.622,889.36h190.535V748.386c0-1.016-0.823-1.839-1.839-1.839h-188.696V889.36z"/>
				<path style="fill:#7D97F4;" d="M2224.595,899.774h246.32c5.011,0,9.073-4.062,9.073-9.073v-2.682      c0-5.011-4.062-9.073-9.073-9.073h-246.32c-5.01,0-9.073,4.062-9.073,9.073v2.682      C2215.523,895.712,2219.585,899.774,2224.595,899.774z"/>
				<rect x="2266.062" y="767.846" style="fill:#7D97F4;" width="21.691" height="42.373"/>
				<rect x="2303.456" y="767.846" style="fill:#7D97F4;" width="21.691" height="42.373"/>
				<rect x="2347.756" y="767.846" style="fill:#7D97F4;" width="21.691" height="42.373"/>
				<rect x="2385.149" y="767.846" style="fill:#7D97F4;" width="21.691" height="42.373"/>
				<rect x="2278.829" y="923.304" style="fill:#7D97F4;" width="21.691" height="42.373"/>
				<rect x="2316.222" y="923.304" style="fill:#7D97F4;" width="21.691" height="42.373"/>
				<rect x="2360.522" y="923.304" style="fill:#7D97F4;" width="21.691" height="42.373"/>
				<rect x="2397.916" y="923.304" style="fill:#7D97F4;" width="21.691" height="42.373"/>
				<path style="fill:#91B3FA;" d="M2966.528,1092.225c-47.746,22.957-91.76,47.662-105.235,81.722l-563.23,3.087l-20.719-80.865      c-4.824-18.827-20.172-34.783-41.551-43.277c-68.983-27.407-122.771-48.012-119.522-90.539l367.299-3.322      c2.543-0.023,4.809,1.601,5.603,4.017l5.342,16.243c6.463,19.652,28.242,33.495,53.438,33.966l324.53,6.064l12.405-22.014      c1.01-1.792,2.91-2.897,4.968-2.889l128.915,0.521c2.673,0.011,4.317,2.927,2.943,5.22L2966.528,1092.225z"/>

					<linearGradient id="SVGID_00000171720479676614554640000007800723369486038205_" gradientUnits="userSpaceOnUse" x1="2564.5146" y1="764.7475" x2="2567.8806" y2="1013.8381">
					<stop offset="0" style="stop-color:#09005D"/>
					<stop offset="1" style="stop-color:#1A0F91"/>
				</linearGradient>
				<path style="fill:url(#SVGID_00000171720479676614554640000007800723369486038205_);" d="M2966.528,1105.118      c-47.746,22.957-91.76,47.662-105.235,81.722l-563.23,3.087l-20.719-80.865c-4.824-18.827-20.172-34.783-41.551-43.276      c-68.983-27.407-115.729-57.468-119.522-90.539l359.65-5.027c2.268-0.032,4.334,1.296,5.248,3.372l9.403,21.371      c9.257,20.497,32.185,30.717,57.38,31.188l324.53,6.064l11.92-21.154c1.312-2.328,3.766-3.78,6.438-3.807l128.02-1.336      L2966.528,1105.118z"/>
				<g>
					<path style="fill:#BDD0FB;" d="M2858.584,1094.605c-10.733,0-19.467-8.734-19.467-19.467c0-10.733,8.734-19.464,19.467-19.464       c10.733,0,19.463,8.731,19.463,19.464C2878.048,1085.871,2869.317,1094.605,2858.584,1094.605z M2858.584,1062.098       c-7.192,0-13.044,5.851-13.044,13.04c0,7.192,5.851,13.044,13.044,13.044c7.189,0,13.04-5.851,13.04-13.044       C2871.625,1067.949,2865.773,1062.098,2858.584,1062.098z"/>
				</g>
				<g>
					<path style="fill:#BDD0FB;" d="M2800.019,1094.605c-10.733,0-19.467-8.734-19.467-19.467c0-10.733,8.734-19.464,19.467-19.464       c10.733,0,19.464,8.731,19.464,19.464C2819.483,1085.871,2810.752,1094.605,2800.019,1094.605z M2800.019,1062.098       c-7.192,0-13.044,5.851-13.044,13.04c0,7.192,5.851,13.044,13.044,13.044c7.189,0,13.041-5.851,13.041-13.044       C2813.06,1067.949,2807.208,1062.098,2800.019,1062.098z"/>
				</g>
				<g>
					<path style="fill:#BDD0FB;" d="M2747.46,1093.202c-10.733,0-19.463-8.734-19.463-19.467s8.731-19.467,19.463-19.467       c10.733,0,19.467,8.734,19.467,19.467S2758.193,1093.202,2747.46,1093.202z M2747.46,1060.691       c-7.189,0-13.04,5.851-13.04,13.044c0,7.193,5.851,13.044,13.04,13.044c7.192,0,13.044-5.851,13.044-13.044       C2760.504,1066.542,2754.653,1060.691,2747.46,1060.691z"/>
				</g>
				<g>
					<path style="fill:#BDD0FB;" d="M2419.608,1025.225c-10.733,0-19.467-8.734-19.467-19.467c0-10.733,8.734-19.467,19.467-19.467       s19.463,8.734,19.463,19.467C2439.071,1016.491,2430.341,1025.225,2419.608,1025.225z M2419.608,992.715       c-7.192,0-13.044,5.851-13.044,13.044c0,7.192,5.851,13.044,13.044,13.044c7.189,0,13.04-5.851,13.04-13.044       C2432.648,998.566,2426.797,992.715,2419.608,992.715z"/>
				</g>
				<g>
					<path style="fill:#BDD0FB;" d="M2360.524,1025.225c-10.733,0-19.467-8.734-19.467-19.467c0-10.733,8.734-19.467,19.467-19.467       s19.464,8.734,19.464,19.467C2379.987,1016.491,2371.256,1025.225,2360.524,1025.225z M2360.524,992.715       c-7.192,0-13.044,5.851-13.044,13.044c0,7.192,5.851,13.044,13.044,13.044c7.189,0,13.04-5.851,13.04-13.044       C2373.564,998.566,2367.713,992.715,2360.524,992.715z"/>
				</g>
				<g>
					<path style="fill:#BDD0FB;" d="M2314.302,1025.225c-10.733,0-19.467-8.734-19.467-19.467c0-10.733,8.734-19.467,19.467-19.467       c10.733,0,19.464,8.734,19.464,19.467C2333.766,1016.491,2325.035,1025.225,2314.302,1025.225z M2314.302,992.715       c-7.192,0-13.043,5.851-13.043,13.044c0,7.192,5.851,13.044,13.043,13.044c7.189,0,13.041-5.851,13.041-13.044       C2327.343,998.566,2321.491,992.715,2314.302,992.715z"/>
				</g>
				<path style="fill:#BDD0FB;" d="M2878.179,1052.072c-0.02,0-0.036,0-0.056,0l-316.436-5.575      c-1.775-0.033-3.185-1.496-3.156-3.267c0.033-1.755,1.463-3.156,3.212-3.156c0.02,0,0.036,0,0.056,0l316.436,5.575      c1.775,0.033,3.185,1.496,3.156,3.267C2881.361,1050.672,2879.928,1052.072,2878.179,1052.072z"/>
				<path style="fill:#BDD0FB;" d="M2163.561,987.051c-1.745,0-3.175-1.394-3.211-3.146c-0.036-1.772,1.371-3.241,3.146-3.277      l273.916-5.644c0,0,0.046,0,0.066,0c1.746,0,3.176,1.394,3.212,3.146c0.036,1.772-1.371,3.241-3.146,3.277l-273.916,5.644      C2163.604,987.051,2163.581,987.051,2163.561,987.051z"/>
			</g>
		</g>
		<g>
			<g>

					<linearGradient id="SVGID_00000152249853000542196260000006785410534256840378_" gradientUnits="userSpaceOnUse" x1="430.8767" y1="3102.9749" x2="1263.1746" y2="1988.2021">
					<stop offset="0" style="stop-color:#FF928E"/>
					<stop offset="1" style="stop-color:#FE7062"/>
				</linearGradient>
				<path style="fill:url(#SVGID_00000152249853000542196260000006785410534256840378_);" d="M563.544,3057.702h373.268v-746.383      H549.799v732.637C549.799,3051.548,555.953,3057.702,563.544,3057.702z"/>

					<linearGradient id="SVGID_00000072266273219179017760000012614831013889388458_" gradientUnits="userSpaceOnUse" x1="478.0837" y1="2207.6545" x2="1044.2065" y2="2207.6545">
					<stop offset="0" style="stop-color:#E1473D"/>
					<stop offset="1" style="stop-color:#E9605A"/>
				</linearGradient>
				<path style="fill:url(#SVGID_00000072266273219179017760000012614831013889388458_);" d="M497.964,2375.821h457.277      l88.965-336.333H595.872L479.95,2347.611C473.847,2360.771,483.457,2375.821,497.964,2375.821z"/>

					<linearGradient id="SVGID_00000110430742401721952500000000360292805406441120_" gradientUnits="userSpaceOnUse" x1="1005.0626" y1="1312.6157" x2="914.1826" y2="1731.6741">
					<stop offset="0" style="stop-color:#E1473D"/>
					<stop offset="1" style="stop-color:#E9605A"/>
				</linearGradient>
				<path style="fill:url(#SVGID_00000110430742401721952500000000360292805406441120_);" d="M595.872,2044.095l503.873,3.439      l2.08-40.297l-472.975,0c-18.213,0-32.978,10.006-32.978,22.348V2044.095z"/>
				<g style="opacity:0.89;">
					<path style="fill:#FFFFFF;" d="M632.701,2854.981h218.904c0.62,0,1.123-0.503,1.123-1.123v-338.695       c0-0.62-0.503-1.123-1.123-1.123H632.701c-0.62,0-1.123,0.503-1.123,1.123v338.695       C631.578,2854.478,632.081,2854.981,632.701,2854.981z"/>
					<g>

							<linearGradient id="SVGID_00000140716154936190525840000017586996510920697984_" gradientUnits="userSpaceOnUse" x1="817.2483" y1="2389.3645" x2="770.3511" y2="2976.4451">
							<stop offset="0" style="stop-color:#E1473D"/>
							<stop offset="1" style="stop-color:#E9605A"/>
						</linearGradient>
						<path style="fill:url(#SVGID_00000140716154936190525840000017586996510920697984_);" d="M751.364,2836.552h84.615        c0.345,0,0.624-0.28,0.624-0.624v-302.834c0-0.345-0.279-0.624-0.624-0.624h-84.615c-0.345,0-0.624,0.28-0.624,0.624v302.834        C750.74,2836.272,751.019,2836.552,751.364,2836.552z"/>

							<linearGradient id="SVGID_00000150784726890144960960000009948654426695395003_" gradientUnits="userSpaceOnUse" x1="714.8655" y1="2381.1855" x2="667.9683" y2="2968.2661">
							<stop offset="0" style="stop-color:#E1473D"/>
							<stop offset="1" style="stop-color:#E9605A"/>
						</linearGradient>
						<path style="fill:url(#SVGID_00000150784726890144960960000009948654426695395003_);" d="M648.328,2836.552h84.615        c0.345,0,0.624-0.28,0.624-0.624v-302.834c0-0.345-0.279-0.624-0.624-0.624h-84.615c-0.345,0-0.624,0.28-0.624,0.624v302.834        C647.703,2836.272,647.983,2836.552,648.328,2836.552z"/>
					</g>
				</g>
			</g>

				<linearGradient id="SVGID_00000031914793276591302140000013710800678529213362_" gradientUnits="userSpaceOnUse" x1="1354.45" y1="2041.9994" x2="1336.4985" y2="3365.9907">
				<stop offset="0" style="stop-color:#FF928E"/>
				<stop offset="1" style="stop-color:#FE7062"/>
			</linearGradient>
			<path style="fill:url(#SVGID_00000031914793276591302140000013710800678529213362_);" d="M1346.168,1844.493     c0,0-524.682,396.104-537.681,396.104v813.821c0,20.007,16.219,36.227,36.227,36.227h1013.405     c14.21,0,25.729-11.52,25.729-25.729v-824.318L1346.168,1844.493z"/>
			<g>

					<linearGradient id="SVGID_00000034059133561075959020000007265443068504020883_" gradientUnits="userSpaceOnUse" x1="1470.6034" y1="2002.9811" x2="1404.3293" y2="2461.8013">
					<stop offset="0" style="stop-color:#FF928E"/>
					<stop offset="1" style="stop-color:#FE7062"/>
				</linearGradient>
				<path style="fill:url(#SVGID_00000034059133561075959020000007265443068504020883_);" d="M1488.834,3057.702h-333.414v-53.389      c0-1.751,1.419-3.171,3.17-3.171h327.073c1.751,0,3.17,1.42,3.17,3.17V3057.702z"/>

					<linearGradient id="SVGID_00000028305876905415208580000005877727607275903380_" gradientUnits="userSpaceOnUse" x1="1310.4084" y1="2894.0833" x2="1330.4675" y2="3189.9553">
					<stop offset="0" style="stop-color:#FEBBBA"/>
					<stop offset="1" style="stop-color:#FF928E"/>
				</linearGradient>
				<path style="fill:url(#SVGID_00000028305876905415208580000005877727607275903380_);" d="M1488.834,3093.688h-333.414v-53.389      c0-1.751,1.419-3.17,3.17-3.17h327.073c1.751,0,3.17,1.419,3.17,3.17V3093.688z"/>

					<linearGradient id="SVGID_00000146484635821545076610000010741671674941022096_" gradientUnits="userSpaceOnUse" x1="1980.9974" y1="2682.3169" x2="1766.9708" y2="2713.8574">
					<stop offset="0" style="stop-color:#E1473D"/>
					<stop offset="1" style="stop-color:#E9605A"/>
				</linearGradient>
				<path style="fill:url(#SVGID_00000146484635821545076610000010741671674941022096_);" d="M1435.911,3001.142h-227.567v-440.385      c0-1.966,1.594-3.56,3.56-3.56h220.447c1.966,0,3.56,1.594,3.56,3.56V3001.142z"/>
				<path style="opacity:0.89;fill:#FFFFFF;" d="M1419.843,2527.316h-195.431c-8.874,0-16.068-7.194-16.068-16.068v-14.035      c0-8.442,6.533-15.445,14.955-16.03l195.43-13.575c9.29-0.645,17.182,6.717,17.182,16.03v27.61      C1435.911,2520.123,1428.717,2527.316,1419.843,2527.316z"/>
				<g>

						<linearGradient id="SVGID_00000093867220616550298830000001528711826390654597_" gradientUnits="userSpaceOnUse" x1="1784.1006" y1="1896.5166" x2="1421.0295" y2="2834.4482">
						<stop offset="0" style="stop-color:#E1473D"/>
						<stop offset="1" style="stop-color:#E9605A"/>
					</linearGradient>
					<path style="fill:url(#SVGID_00000093867220616550298830000001528711826390654597_);" d="M1616.628,2330.102h-2.162       c-56.204,0-105.409,39.792-105.409,95.996v101.219h107.571V2330.102z"/>

						<linearGradient id="SVGID_00000079466367882464342650000013712549534368463759_" gradientUnits="userSpaceOnUse" x1="1868.5244" y1="1929.1979" x2="1505.4525" y2="2867.1318">
						<stop offset="0" style="stop-color:#E1473D"/>
						<stop offset="1" style="stop-color:#E9605A"/>
					</linearGradient>
					<path style="fill:url(#SVGID_00000079466367882464342650000013712549534368463759_);" d="M1509.056,2557.198v297.783       c0,10.027,11.771,25.573,21.797,25.573h85.774v-323.356H1509.056z"/>

						<linearGradient id="SVGID_00000013875502185609164820000015019675687493624500_" gradientUnits="userSpaceOnUse" x1="1885.182" y1="1935.6458" x2="1522.1107" y2="2873.5779">
						<stop offset="0" style="stop-color:#FF928E"/>
						<stop offset="1" style="stop-color:#FE7062"/>
					</linearGradient>
					<path style="opacity:0.9;fill:url(#SVGID_00000013875502185609164820000015019675687493624500_);" d="M1646,2330.102h-5.467       v197.214h107.572v-101.219C1748.104,2369.894,1702.204,2330.102,1646,2330.102z"/>

						<linearGradient id="SVGID_00000116224837245801315510000008336733297956045741_" gradientUnits="userSpaceOnUse" x1="1979.3245" y1="1972.0865" x2="1616.2527" y2="2910.0198">
						<stop offset="0" style="stop-color:#FF928E"/>
						<stop offset="1" style="stop-color:#FE7062"/>
					</linearGradient>
					<path style="opacity:0.9;fill:url(#SVGID_00000116224837245801315510000008336733297956045741_);" d="M1640.532,2880.554       h89.079c10.027,0,18.493-15.545,18.493-25.573v-297.783h-107.572V2880.554z"/>
				</g>
				<g>

						<linearGradient id="SVGID_00000165928564167213827270000014479688170580665494_" gradientUnits="userSpaceOnUse" x1="981.5929" y1="1819.63" x2="962.2396" y2="2949.8594">
						<stop offset="0" style="stop-color:#E1473D"/>
						<stop offset="1" style="stop-color:#E9605A"/>
					</linearGradient>
					<path style="fill:url(#SVGID_00000165928564167213827270000014479688170580665494_);" d="M1024.134,2330.102h-2.162       c-56.205,0-105.409,39.792-105.409,95.996v101.219h107.572V2330.102z"/>

						<linearGradient id="SVGID_00000010296607336392854310000010392904047113899179_" gradientUnits="userSpaceOnUse" x1="985.7454" y1="1819.7017" x2="966.3921" y2="2949.9307">
						<stop offset="0" style="stop-color:#E1473D"/>
						<stop offset="1" style="stop-color:#E9605A"/>
					</linearGradient>
					<path style="fill:url(#SVGID_00000010296607336392854310000010392904047113899179_);" d="M916.563,2557.198v297.783       c0,10.027,11.771,25.573,21.797,25.573h85.774v-323.356H916.563z"/>

						<linearGradient id="SVGID_00000031175927553445826760000017807022007962751659_" gradientUnits="userSpaceOnUse" x1="1112.2161" y1="1821.8661" x2="1092.8628" y2="2952.0969">
						<stop offset="0" style="stop-color:#E1473D"/>
						<stop offset="1" style="stop-color:#E9605A"/>
					</linearGradient>
					<path style="fill:url(#SVGID_00000031175927553445826760000017807022007962751659_);" d="M1053.506,2330.102h-5.467v197.214       h107.571v-101.219C1155.611,2369.894,1109.71,2330.102,1053.506,2330.102z"/>

						<linearGradient id="SVGID_00000010289336291408216540000003072532419616140694_" gradientUnits="userSpaceOnUse" x1="1116.9657" y1="1821.9464" x2="1097.6124" y2="2952.1753">
						<stop offset="0" style="stop-color:#E1473D"/>
						<stop offset="1" style="stop-color:#E9605A"/>
					</linearGradient>
					<path style="fill:url(#SVGID_00000010289336291408216540000003072532419616140694_);" d="M1048.039,2880.554h89.079       c10.027,0,18.493-15.545,18.493-25.573v-297.783h-107.571V2880.554z"/>
				</g>
				<path style="fill:#FFFFFF;" d="M1757.411,2899.153h-258.948c-14.848,0-26.927-12.08-26.927-26.929V2423.88      c0-70.899,57.682-128.58,128.581-128.58h55.642c70.9,0,128.58,57.681,128.58,128.58v448.343      C1784.339,2887.072,1772.259,2899.153,1757.411,2899.153z M1600.116,2297.794c-69.525,0-126.087,56.562-126.087,126.086v448.343      c0,13.474,10.961,24.435,24.433,24.435h258.948c13.472,0,24.434-10.961,24.434-24.435V2423.88      c0-69.525-56.561-126.086-126.086-126.086H1600.116z"/>
				<path style="fill:#FFFFFF;" d="M1165.034,2899.153H906.086c-14.848,0-26.928-12.08-26.928-26.929V2423.88      c0-70.899,57.68-128.58,128.58-128.58h55.642c70.9,0,128.581,57.681,128.581,128.58v448.343      C1191.961,2887.072,1179.882,2899.153,1165.034,2899.153z M1007.738,2297.794c-69.524,0-126.086,56.562-126.086,126.086v448.343      c0,13.474,10.961,24.435,24.434,24.435h258.948c13.472,0,24.433-10.961,24.433-24.435V2423.88      c0-69.525-56.562-126.086-126.087-126.086H1007.738z"/>

					<linearGradient id="SVGID_00000171718075116862232440000009513263332881085621_" gradientUnits="userSpaceOnUse" x1="1693.4634" y1="1940.7664" x2="1155.389" y2="2878.52">
					<stop offset="0" style="stop-color:#FF928E"/>
					<stop offset="1" style="stop-color:#FE7062"/>
				</linearGradient>
				<path style="fill:url(#SVGID_00000171718075116862232440000009513263332881085621_);" d="M1216.39,3001.142h-5.499      c-2.142,0-3.879-1.737-3.879-3.879v-436.765c0-1.823,1.478-3.301,3.301-3.301h6.077V3001.142z"/>
			</g>
			<g>

					<linearGradient id="SVGID_00000031209309016670181050000004064017018348035764_" gradientUnits="userSpaceOnUse" x1="1566.3726" y1="462.5004" x2="1635.6487" y2="2159.7708">
					<stop offset="0" style="stop-color:#53D8FF"/>
					<stop offset="0.6092" style="stop-color:#437BFA"/>
					<stop offset="1" style="stop-color:#3840F7"/>
				</linearGradient>

					<rect x="1581.615" y="1853.143" style="fill:url(#SVGID_00000031209309016670181050000004064017018348035764_);" width="88.948" height="144.828"/>
				<path style="fill:#91B3FA;" d="M1699.878,1876.61h-143.771v-38.379c0-3.366,2.729-6.095,6.095-6.095H1690.6      c5.124,0,9.278,4.154,9.278,9.278V1876.61z"/>

					<linearGradient id="SVGID_00000142863251649886789820000008327102894448022942_" gradientUnits="userSpaceOnUse" x1="2338.5251" y1="1217.6665" x2="2075.9834" y2="1485.2576">
					<stop offset="0" style="stop-color:#E1473D"/>
					<stop offset="1" style="stop-color:#E9605A"/>
				</linearGradient>
				<path style="fill:url(#SVGID_00000142863251649886789820000008327102894448022942_);" d="M775.521,2282.125l570.647-437.632      l541.674,420.159c19.688,15.271,48.567,4.576,53.558-19.836l7.598-37.162l-602.83-459.219l-583.513,445.692      c-10.448,7.98-14.239,21.979-9.245,34.141L775.521,2282.125z"/>
			</g>
		</g>
		<g>
			<path style="fill:#7D97F4;" d="M3077.049,3187.558c28.286-16.632,60.347-104.822,53.307-228.254     c-100.705,26.07-250.035-24.167-367.131-43.997C2861.463,3087.044,2968.082,3206.098,3077.049,3187.558z"/>
			<path style="fill:#7D97F4;" d="M2683.662,1410.963c0,0,362.759,39.542,409.488-21.945c0,0-37.174-110.661-147.568-103.298     C2835.189,1293.083,2683.662,1410.963,2683.662,1410.963z"/>
			<path style="fill:#91B3FA;" d="M1503.848,1535.464c31.632,355.498,98.076,1107.439,126.981,1473.726     c6.444,81.658,71.896,146.158,153.64,151.404c285.218,18.308,1026.006,57.09,1292.58,26.964c2.639-0.298,2.702-4.102,0.08-4.517     l-30.389-4.808c-45.682-7.228-87.152-31.952-113.747-69.791c-14.262-20.292-24.355-44.146-24.138-70.906l-6.417-1650.854     c0.472-58.078,58.32-99.81,112.707-79.43c34.263,12.839,60.209,40.192,78.005,81.767     c-23.743-69.189-61.083-119.811-147.568-103.298c0,0-845.853,8.456-1256.307,33.906     C1577.744,1326.542,1493.944,1424.157,1503.848,1535.464z"/>
			<defs>

					<filter id="Adobe_OpacityMaskFilter" filterUnits="userSpaceOnUse" x="1536.156" y="1322.919" width="1366.923" height="1848.007">
					<feFlood style="flood-color:white;flood-opacity:1" result="back"/>
					<feBlend in="SourceGraphic" in2="back" mode="normal"/>
				</filter>
			</defs>

				<mask maskUnits="userSpaceOnUse" x="1536.156" y="1322.919" width="1366.923" height="1848.007" id="SVGID_00000066476460435325387150000000274469718967176374_">
				<g style="filter:url(#Adobe_OpacityMaskFilter);">
					<defs>

							<filter id="Adobe_OpacityMaskFilter_00000127027100568912271630000017275468601694793643_" filterUnits="userSpaceOnUse" x="1536.156" y="1322.919" width="1366.923" height="1848.007">
							<feFlood style="flood-color:white;flood-opacity:1" result="back"/>
							<feBlend in="SourceGraphic" in2="back" mode="normal"/>
						</filter>
					</defs>

						<mask maskUnits="userSpaceOnUse" x="1536.156" y="1322.919" width="1366.923" height="1848.007" id="SVGID_00000066476460435325387150000000274469718967176374_">
						<g style="filter:url(#Adobe_OpacityMaskFilter_00000127027100568912271630000017275468601694793643_);">
						</g>
					</mask>

						<linearGradient id="SVGID_00000175315780010500027540000015976467581870982306_" gradientUnits="userSpaceOnUse" x1="2733.4998" y1="1671.4718" x2="983.3567" y2="3911.1177">
						<stop offset="0" style="stop-color:#FFFFFF"/>
						<stop offset="1" style="stop-color:#000000"/>
					</linearGradient>

						<path style="mask:url(#SVGID_00000066476460435325387150000000274469718967176374_);fill:url(#SVGID_00000175315780010500027540000015976467581870982306_);" d="       M1713.091,1366.675l1136.573-43.756c-46.878,347.047-27.094,1053.782-9.207,1750.286c1.06,41.291,25.277,78.454,62.622,96.102       l0,0c0,0-758.086,8.735-1083.817-14.368c-76.696-5.44-139.261-63.474-150.656-139.513       c-44.718-298.41-151.704-1069.311-129.437-1477.44C1544.268,1444.524,1619.56,1370.276,1713.091,1366.675z"/>
				</g>
			</mask>

				<linearGradient id="SVGID_00000045593903882313979590000014029734067534122113_" gradientUnits="userSpaceOnUse" x1="2733.4998" y1="1671.4718" x2="983.3567" y2="3911.1177">
				<stop offset="0" style="stop-color:#FFFFFF"/>
				<stop offset="1" style="stop-color:#FFFFFF"/>
			</linearGradient>
			<path style="opacity:0.53;fill:url(#SVGID_00000045593903882313979590000014029734067534122113_);" d="M1713.091,1366.675     l1136.573-43.756c-46.878,347.047-27.094,1053.782-9.207,1750.286c1.06,41.291,25.277,78.454,62.622,96.102l0,0     c0,0-758.086,8.735-1083.817-14.368c-76.696-5.44-139.261-63.474-150.656-139.513     c-44.718-298.41-151.704-1069.311-129.437-1477.44C1544.268,1444.524,1619.56,1370.276,1713.091,1366.675z"/>
			<g>

					<linearGradient id="SVGID_00000116207666523479356790000000520594045115421070_" gradientUnits="userSpaceOnUse" x1="1713.4476" y1="1718.3611" x2="3370.3672" y2="1052.3038" gradientTransform="matrix(1.0001 0.0044 0.0044 1.1368 -12.3322 -387.7583)">
					<stop offset="0" style="stop-color:#E1473D"/>
					<stop offset="1" style="stop-color:#E9605A"/>
				</linearGradient>
				<path style="fill:url(#SVGID_00000116207666523479356790000000520594045115421070_);" d="M1693.924,1624.757      c0.418,13.124-2.177,23.269-7.783,30.432c-5.606,7.165-13.9,10.921-24.88,11.271c-10.757,0.343-19.983-1.767-27.682-6.328      l-0.823-25.832c9.453,6.556,18.037,9.711,25.752,9.466c4.393-0.14,7.657-1.621,9.794-4.447c2.136-2.821,3.13-6.602,2.979-11.34      c-0.149-4.675-1.609-8.904-4.379-12.695c-2.771-3.789-7.271-7.954-13.503-12.5c-5.427-3.993-9.566-7.85-12.418-11.573      c-2.854-3.72-5.101-7.927-6.744-12.617c-1.644-4.69-2.565-10.171-2.765-16.447c-0.383-12.036,2.255-21.669,7.916-28.899      c5.659-7.23,13.445-11.003,23.356-11.318c9.46-0.301,18.65,2.417,27.571,8.157l-6.935,21.177      c-2.76-1.705-5.641-3.216-8.642-4.531c-3.002-1.313-6.192-1.917-9.57-1.81c-3.717,0.118-6.531,1.602-8.441,4.451      c-1.91,2.849-2.789,6.674-2.636,11.475c0.151,4.738,1.478,8.831,3.984,12.273c2.505,3.447,6.813,7.316,12.926,11.606      c8.248,5.891,14.065,11.985,17.451,18.286C1691.839,1609.314,1693.663,1616.561,1693.924,1624.757z"/>

					<linearGradient id="SVGID_00000098926046557817588340000002993023247833829774_" gradientUnits="userSpaceOnUse" x1="1727.9187" y1="1747.9009" x2="3381.7417" y2="1083.0884" gradientTransform="matrix(1.0001 0.0044 0.0044 1.1368 -12.3322 -387.7583)">
					<stop offset="0" style="stop-color:#E1473D"/>
					<stop offset="1" style="stop-color:#E9605A"/>
				</linearGradient>
				<path style="fill:url(#SVGID_00000098926046557817588340000002993023247833829774_);" d="M1768.813,1661.112l-8.224-35.211      l-32.183,1.025l-5.967,35.663l-22.975,0.732l26.088-141.952l31.168-0.993l35.152,140.001L1768.813,1661.112z M1755.543,1602.894      l-7.628-32.442c-0.458-1.971-1.503-6.922-3.137-14.849c-1.634-7.927-2.634-13.229-3-15.909      c-0.558,5.53-1.293,11.625-2.208,18.288c-0.916,6.661-3.362,21.88-7.34,45.655L1755.543,1602.894z"/>

					<linearGradient id="SVGID_00000169558913385728367340000016634183266584754615_" gradientUnits="userSpaceOnUse" x1="1741.6133" y1="1768.2727" x2="3358.3345" y2="1118.3745" gradientTransform="matrix(1.0001 0.0044 0.0044 1.1368 -12.3322 -387.7583)">
					<stop offset="0" style="stop-color:#E1473D"/>
					<stop offset="1" style="stop-color:#E9605A"/>
				</linearGradient>
				<path style="fill:url(#SVGID_00000169558913385728367340000016634183266584754615_);" d="M1802.769,1660.03l-4.472-140.401      l22.975-0.732l3.744,117.546l31.845-1.014l0.728,22.855L1802.769,1660.03z"/>

					<linearGradient id="SVGID_00000176729524812688675910000010475027010499525559_" gradientUnits="userSpaceOnUse" x1="1752.1952" y1="1789.9043" x2="3402.1421" y2="1126.6499" gradientTransform="matrix(1.0001 0.0044 0.0044 1.1368 -12.3322 -387.7583)">
					<stop offset="0" style="stop-color:#E1473D"/>
					<stop offset="1" style="stop-color:#E9605A"/>
				</linearGradient>
				<path style="fill:url(#SVGID_00000176729524812688675910000010475027010499525559_);" d="M1927.949,1656.043l-55.664,1.773      l-4.472-140.401l55.664-1.773l0.719,22.567l-32.689,1.041l1.064,33.421l30.324-0.966l0.722,22.663l-30.324,0.966l1.239,38.895      l32.689-1.041L1927.949,1656.043z"/>

					<linearGradient id="SVGID_00000003827285351551995130000003320780292290973319_" gradientUnits="userSpaceOnUse" x1="1763.1554" y1="1812.02" x2="3420.0735" y2="1145.9634" gradientTransform="matrix(1.0001 0.0044 0.0044 1.1368 -12.3322 -387.7583)">
					<stop offset="0" style="stop-color:#E1473D"/>
					<stop offset="1" style="stop-color:#E9605A"/>
				</linearGradient>
				<path style="fill:url(#SVGID_00000003827285351551995130000003320780292290973319_);" d="M2000.966,1614.978      c0.418,13.124-2.177,23.269-7.783,30.432c-5.606,7.165-13.9,10.921-24.88,11.271c-10.756,0.343-19.983-1.767-27.682-6.328      l-0.823-25.833c9.453,6.556,18.037,9.711,25.752,9.466c4.393-0.14,7.657-1.621,9.794-4.447c2.136-2.821,3.129-6.603,2.979-11.34      c-0.149-4.675-1.609-8.904-4.379-12.695c-2.771-3.789-7.271-7.954-13.503-12.5c-5.427-3.993-9.566-7.85-12.418-11.573      c-2.853-3.72-5.101-7.927-6.744-12.617c-1.644-4.69-2.565-10.171-2.764-16.447c-0.383-12.036,2.255-21.669,7.916-28.899      c5.659-7.23,13.445-11.003,23.356-11.318c9.461-0.301,18.65,2.417,27.571,8.157l-6.935,21.177      c-2.76-1.705-5.641-3.216-8.642-4.531c-3.002-1.313-6.192-1.917-9.57-1.81c-3.717,0.118-6.531,1.602-8.441,4.451      c-1.91,2.849-2.789,6.674-2.636,11.475c0.151,4.738,1.478,8.831,3.984,12.273c2.505,3.447,6.813,7.316,12.926,11.606      c8.248,5.891,14.065,11.985,17.451,18.286C1998.88,1599.535,2000.705,1606.782,2000.966,1614.978z"/>

					<linearGradient id="SVGID_00000172405427323915359190000010931021407501694603_" gradientUnits="userSpaceOnUse" x1="1781.6788" y1="1852.1962" x2="3448.6462" y2="1182.0999" gradientTransform="matrix(1.0001 0.0044 0.0044 1.1368 -12.3322 -387.7583)">
					<stop offset="0" style="stop-color:#E1473D"/>
					<stop offset="1" style="stop-color:#E9605A"/>
				</linearGradient>
				<path style="fill:url(#SVGID_00000172405427323915359190000010931021407501694603_);" d="M2097.302,1530.966      c-6.589,0.21-11.644,4.762-15.166,13.653c-3.522,8.894-5.034,21.15-4.536,36.77c1.036,32.526,9.014,48.548,23.938,48.073      c6.531-0.208,13.298-2.794,20.299-7.759l0.74,23.24c-5.881,4.738-13.523,7.255-22.927,7.554      c-13.909,0.443-24.795-5.507-32.657-17.849c-7.862-12.342-12.156-29.909-12.881-52.703c-0.726-22.792,2.552-40.68,9.832-53.666      c7.281-12.984,17.763-19.694,31.448-20.13c4.505-0.143,8.849,0.422,13.033,1.699c4.184,1.277,8.696,3.6,13.539,6.97      l-6.926,21.465c-2.597-1.903-5.358-3.626-8.282-5.167C2103.832,1531.575,2100.681,1530.858,2097.302,1530.966z"/>

					<linearGradient id="SVGID_00000070800588169183466320000017735877778239700663_" gradientUnits="userSpaceOnUse" x1="1791.2526" y1="1877.9692" x2="3472.6465" y2="1202.0737" gradientTransform="matrix(1.0001 0.0044 0.0044 1.1368 -12.3322 -387.7583)">
					<stop offset="0" style="stop-color:#E1473D"/>
					<stop offset="1" style="stop-color:#E9605A"/>
				</linearGradient>
				<path style="fill:url(#SVGID_00000070800588169183466320000017735877778239700663_);" d="M2222.951,1576.182      c0.74,23.242-2.521,41.226-9.781,53.953c-7.262,12.73-18.015,19.319-32.262,19.773c-14.304,0.456-25.484-5.419-33.538-17.628      c-8.055-12.207-12.456-30.029-13.202-53.461c-0.74-23.242,2.521-41.179,9.785-53.81c7.263-12.631,18.103-19.177,32.52-19.636      c14.245-0.454,25.369,5.425,33.368,17.634C2217.841,1535.219,2222.211,1552.943,2222.951,1576.182z M2157.657,1578.262      c0.51,16.007,2.672,28.146,6.486,36.421c3.815,8.275,9.157,12.301,16.028,12.082c13.853-0.441,20.257-17.051,19.213-49.832      c-1.044-32.779-8.437-48.949-22.176-48.512c-6.983,0.222-12.115,4.568-15.397,13.036      C2158.53,1549.925,2157.146,1562.194,2157.657,1578.262z"/>

					<linearGradient id="SVGID_00000136412571525950944570000003560109919931046025_" gradientUnits="userSpaceOnUse" x1="1811.3101" y1="1909.1217" x2="3477.9695" y2="1239.1492" gradientTransform="matrix(1.0001 0.0044 0.0044 1.1368 -12.3322 -387.7583)">
					<stop offset="0" style="stop-color:#E1473D"/>
					<stop offset="1" style="stop-color:#E9605A"/>
				</linearGradient>
				<path style="fill:url(#SVGID_00000136412571525950944570000003560109919931046025_);" d="M2329.68,1643.248l-28.043,0.893      l-41.419-100.484l-1.098,0.035c1.654,7.703,2.624,16.003,2.907,24.902l2.444,76.731l-21.285,0.678l-4.472-140.401l28.212-0.899      l41.046,99.438l0.929-0.029c-1.284-6.69-2.073-14.674-2.369-23.958l-2.441-76.635l21.117-0.672L2329.68,1643.248z"/>

					<linearGradient id="SVGID_00000067236344997634223040000016940787181552832918_" gradientUnits="userSpaceOnUse" x1="1832.5353" y1="1930.0859" x2="3475.4849" y2="1269.6445" gradientTransform="matrix(1.0001 0.0044 0.0044 1.1368 -12.3322 -387.7583)">
					<stop offset="0" style="stop-color:#E1473D"/>
					<stop offset="1" style="stop-color:#E9605A"/>
				</linearGradient>
				<path style="fill:url(#SVGID_00000067236344997634223040000016940787181552832918_);" d="M2389.399,1641.346l-22.891,0.729      l-3.74-117.45l-23.651,0.753l-0.731-22.951l70.193-2.236l0.731,22.951l-23.651,0.753L2389.399,1641.346z"/>

					<linearGradient id="SVGID_00000011023739063386417830000011001960046067133577_" gradientUnits="userSpaceOnUse" x1="1840.948" y1="1962.8754" x2="3502.8918" y2="1294.7985" gradientTransform="matrix(1.0001 0.0044 0.0044 1.1368 -12.3322 -387.7583)">
					<stop offset="0" style="stop-color:#E1473D"/>
					<stop offset="1" style="stop-color:#E9605A"/>
				</linearGradient>
				<path style="fill:url(#SVGID_00000011023739063386417830000011001960046067133577_);" d="M2447.462,1584.8l1.74,54.642      l-22.975,0.732l-4.472-140.401l30.07-0.958c12.726-0.405,22.225,2.721,28.498,9.378c6.271,6.657,9.632,17.029,10.08,31.113      c0.565,17.735-4.307,30.29-14.611,37.668l25.695,60.802l-24.58,0.783l-21.252-54.021L2447.462,1584.8z M2446.747,1562.327      l5.913-0.188c5.406-0.172,9.236-2.04,11.49-5.606c2.254-3.564,3.271-8.803,3.051-15.717c-0.229-7.169-1.645-12.237-4.247-15.198      c-2.603-2.961-6.522-4.359-11.76-4.192l-5.744,0.183L2446.747,1562.327z"/>

					<linearGradient id="SVGID_00000182498765813721895360000006639055277804101554_" gradientUnits="userSpaceOnUse" x1="1859.0718" y1="1992.145" x2="3512.8945" y2="1327.3326" gradientTransform="matrix(1.0001 0.0044 0.0044 1.1368 -12.3322 -387.7583)">
					<stop offset="0" style="stop-color:#E1473D"/>
					<stop offset="1" style="stop-color:#E9605A"/>
				</linearGradient>
				<path style="fill:url(#SVGID_00000182498765813721895360000006639055277804101554_);" d="M2571.175,1635.557l-8.224-35.211      l-32.183,1.025l-5.967,35.663l-22.975,0.732l26.088-141.952l31.168-0.993l35.152,140.001L2571.175,1635.557z M2557.905,1577.339      l-7.628-32.442c-0.458-1.971-1.503-6.922-3.136-14.849c-1.635-7.927-2.634-13.229-3-15.909      c-0.558,5.53-1.293,11.625-2.208,18.288c-0.916,6.661-3.362,21.88-7.34,45.655L2557.905,1577.339z"/>

					<linearGradient id="SVGID_00000045588870567087421330000013446532635117686175_" gradientUnits="userSpaceOnUse" x1="1867.1373" y1="2019.5509" x2="3534.1042" y2="1349.4548" gradientTransform="matrix(1.0001 0.0044 0.0044 1.1368 -12.3322 -387.7583)">
					<stop offset="0" style="stop-color:#E1473D"/>
					<stop offset="1" style="stop-color:#E9605A"/>
				</linearGradient>
				<path style="fill:url(#SVGID_00000045588870567087421330000013446532635117686175_);" d="M2642.29,1513.609      c-6.589,0.21-11.644,4.762-15.166,13.653c-3.522,8.894-5.034,21.15-4.536,36.77c1.036,32.526,9.014,48.549,23.938,48.073      c6.531-0.208,13.298-2.794,20.299-7.76l0.74,23.24c-5.882,4.738-13.523,7.255-22.927,7.554      c-13.909,0.443-24.795-5.507-32.657-17.849c-7.862-12.342-12.156-29.909-12.882-52.703c-0.726-22.792,2.552-40.68,9.832-53.666      c7.281-12.984,17.763-19.694,31.448-20.13c4.504-0.144,8.849,0.422,13.033,1.699c4.183,1.277,8.696,3.6,13.539,6.97      l-6.926,21.466c-2.597-1.903-5.358-3.626-8.281-5.167C2648.82,1514.217,2645.669,1513.501,2642.29,1513.609z"/>

					<linearGradient id="SVGID_00000072246749804664790750000005249030401552371368_" gradientUnits="userSpaceOnUse" x1="1888.9232" y1="2030.9386" x2="3531.8726" y2="1370.4971" gradientTransform="matrix(1.0001 0.0044 0.0044 1.1368 -12.3322 -387.7583)">
					<stop offset="0" style="stop-color:#E1473D"/>
					<stop offset="1" style="stop-color:#E9605A"/>
				</linearGradient>
				<path style="fill:url(#SVGID_00000072246749804664790750000005249030401552371368_);" d="M2723.133,1630.717l-22.89,0.729      l-3.741-117.45l-23.651,0.753l-0.731-22.951l70.193-2.236l0.731,22.951l-23.651,0.753L2723.133,1630.717z"/>
			</g>
			<path style="opacity:0.6;fill:#FFFFFF;" d="M1829.577,1752.828l875.322-38.731c13.885-0.614,25.413,13.079,25.413,30.187v210.976     c0,16.532-10.794,29.993-24.219,30.204l-868.642,13.621c-13.247,0.208-24.234-12.572-24.82-28.868l-6.68-185.866     C1805.347,1767.587,1815.957,1753.431,1829.577,1752.828z"/>
			<path style="opacity:0.6;fill:#FFFFFF;" d="M1748.41,2212.923h-72.232c-10.63,0-19.366-8.388-19.797-19.009l-5.153-126.873     c-0.457-11.249,8.539-20.617,19.797-20.617h73.724c10.72,0,19.496,8.526,19.805,19.242l3.661,126.872     C1768.537,2203.7,1759.576,2212.923,1748.41,2212.923z"/>
			<path style="opacity:0.6;fill:#FFFFFF;" d="M1748.41,1963.159h-72.232c-10.63,0-19.366-8.388-19.797-19.009l-5.153-126.872     c-0.457-11.249,8.539-20.617,19.797-20.617h73.724c10.72,0,19.496,8.526,19.805,19.242l3.661,126.872     C1768.537,1953.936,1759.576,1963.159,1748.41,1963.159z"/>
			<path style="opacity:0.6;fill:#FFFFFF;" d="M1830.374,2268.831l872.933-15.224c17.05-0.297,31.03,13.574,31.03,30.788v112.802     c0,16.044-12.757,29.117-28.647,29.359l-869.675,13.23c-13.022,0.198-23.824-10.126-24.339-23.264l-4.805-122.576     C1806.339,2280.402,1816.947,2269.065,1830.374,2268.831z"/>
			<path style="opacity:0.6;fill:#FFFFFF;" d="M1752.434,2439.79h-72.232c-10.63,0-19.366-8.388-19.797-19.009l-5.153-126.872     c-0.457-11.249,8.539-20.618,19.797-20.618h73.724c10.72,0,19.496,8.526,19.805,19.242l3.661,126.872     C1772.562,2430.566,1763.601,2439.79,1752.434,2439.79z"/>
			<path style="opacity:0.6;fill:#FFFFFF;" d="M1844.666,2505.481l871.428-11.833c17.021-0.231,30.976,10.551,30.976,23.931v87.678     c0,12.47-12.735,22.632-28.598,22.82l-868.176,10.283c-13,0.154-23.783-7.871-24.297-18.083l-4.797-95.275     C1820.672,2514.474,1831.263,2505.663,1844.666,2505.481z"/>
			<path style="opacity:0.6;fill:#FFFFFF;" d="M1766.767,2661.573h-72.232c-10.63,0-19.366-8.388-19.797-19.009l-5.153-126.872     c-0.457-11.249,8.539-20.618,19.797-20.618h73.724c10.72,0,19.496,8.526,19.805,19.242l3.661,126.872     C1786.894,2652.35,1777.934,2661.573,1766.767,2661.573z"/>
			<path style="opacity:0.6;fill:#FFFFFF;" d="M1757.155,2708.559l943.58-6.213c25.972-0.171,47.446,20.194,48.652,46.138     l13.776,296.382c1.471,31.65-24.034,57.994-55.715,57.549l-883.494-12.43c-53.777-0.757-98.351-41.897-103.406-95.441     l-20.987-222.276C1696.349,2738.246,1722.984,2708.784,1757.155,2708.559z"/>
			<path style="opacity:0.6;fill:#FFFFFF;" d="M1805.925,2072.309v116.367c0,15.122,12.361,27.327,27.482,27.134l873.528-11.149     c15.089-0.192,27.123-12.659,26.783-27.746l-2.795-123.872c-0.338-14.971-12.739-26.838-27.71-26.518l-870.732,18.653     C1817.723,2045.495,1805.925,2057.548,1805.925,2072.309z"/>
			<g>

					<linearGradient id="SVGID_00000170265977770186784400000005445583039625474981_" gradientUnits="userSpaceOnUse" x1="2091.8474" y1="2933.8623" x2="2499.8188" y2="2933.8623">
					<stop offset="0" style="stop-color:#2B3582"/>
					<stop offset="1" style="stop-color:#150E42"/>
				</linearGradient>
				<path style="opacity:0.2;fill:url(#SVGID_00000170265977770186784400000005445583039625474981_);" d="M2496.453,3017.947      h-23.563c-1.861,0-3.366-1.505-3.366-3.366s1.506-3.366,3.366-3.366h23.563c1.861,0,3.366,1.506,3.366,3.366      S2498.313,3017.947,2496.453,3017.947z M2449.327,3017.947h-23.563c-1.861,0-3.366-1.505-3.366-3.366s1.506-3.366,3.366-3.366      h23.563c1.861,0,3.366,1.506,3.366,3.366S2451.188,3017.947,2449.327,3017.947z M2402.202,3017.947h-23.563      c-1.861,0-3.366-1.505-3.366-3.366s1.505-3.366,3.366-3.366h23.563c1.861,0,3.366,1.506,3.366,3.366      S2404.063,3017.947,2402.202,3017.947z M2355.077,3017.947h-23.563c-1.861,0-3.366-1.505-3.366-3.366s1.506-3.366,3.366-3.366      h23.563c1.861,0,3.366,1.506,3.366,3.366S2356.938,3017.947,2355.077,3017.947z M2307.951,3017.947h-23.563      c-1.861,0-3.366-1.505-3.366-3.366s1.506-3.366,3.366-3.366h23.563c1.861,0,3.366,1.506,3.366,3.366      S2309.812,3017.947,2307.951,3017.947z M2260.826,3017.947h-23.563c-1.861,0-3.366-1.505-3.366-3.366s1.505-3.366,3.366-3.366      h23.563c1.861,0,3.366,1.506,3.366,3.366S2262.687,3017.947,2260.826,3017.947z M2213.701,3017.947h-23.563      c-1.861,0-3.366-1.505-3.366-3.366s1.506-3.366,3.366-3.366h23.563c1.861,0,3.366,1.506,3.366,3.366      S2215.561,3017.947,2213.701,3017.947z M2166.575,3017.947h-23.563c-1.861,0-3.366-1.505-3.366-3.366s1.505-3.366,3.366-3.366      h23.563c1.861,0,3.366,1.506,3.366,3.366S2168.436,3017.947,2166.575,3017.947z M2119.45,3017.947h-23.563      c-1.861,0-3.366-1.505-3.366-3.366s1.505-3.366,3.366-3.366h23.563c1.861,0,3.366,1.506,3.366,3.366      S2121.311,3017.947,2119.45,3017.947z M2496.453,3000.039c-1.861,0-3.366-1.505-3.366-3.366v-23.563      c0-1.861,1.506-3.366,3.366-3.366s3.366,1.505,3.366,3.366v23.563C2499.819,2998.533,2498.313,3000.039,2496.453,3000.039z       M2095.214,2995.059c-1.861,0-3.366-1.506-3.366-3.366v-23.563c0-1.86,1.506-3.366,3.366-3.366s3.366,1.506,3.366,3.366v23.563      C2098.58,2993.553,2097.074,2995.059,2095.214,2995.059z M2496.453,2952.913c-1.861,0-3.366-1.506-3.366-3.366v-23.563      c0-1.861,1.506-3.366,3.366-3.366s3.366,1.506,3.366,3.366v23.563C2499.819,2951.408,2498.313,2952.913,2496.453,2952.913z       M2095.214,2947.933c-1.861,0-3.366-1.506-3.366-3.366v-23.563c0-1.861,1.506-3.366,3.366-3.366s3.366,1.506,3.366,3.366v23.563      C2098.58,2946.427,2097.074,2947.933,2095.214,2947.933z M2496.453,2905.788c-1.861,0-3.366-1.506-3.366-3.366v-23.563      c0-1.861,1.506-3.366,3.366-3.366s3.366,1.505,3.366,3.366v23.563C2499.819,2904.282,2498.313,2905.788,2496.453,2905.788z       M2095.214,2900.808c-1.861,0-3.366-1.506-3.366-3.366v-23.563c0-1.861,1.506-3.366,3.366-3.366s3.366,1.506,3.366,3.366v23.563      C2098.58,2899.302,2097.074,2900.808,2095.214,2900.808z M2496.453,2858.663c-1.43,0-2.653-0.894-3.139-2.153h-18.27      c-1.861,0-3.366-1.506-3.366-3.366s1.505-3.366,3.366-3.366h24.776v5.519      C2499.819,2857.157,2498.313,2858.663,2496.453,2858.663z M2451.481,2856.51h-23.563c-1.861,0-3.366-1.506-3.366-3.366      s1.506-3.366,3.366-3.366h23.563c1.86,0,3.366,1.505,3.366,3.366S2453.341,2856.51,2451.481,2856.51z M2404.355,2856.51h-23.563      c-1.861,0-3.366-1.506-3.366-3.366s1.505-3.366,3.366-3.366h23.563c1.861,0,3.366,1.505,3.366,3.366      S2406.216,2856.51,2404.355,2856.51z M2357.23,2856.51h-23.563c-1.861,0-3.366-1.506-3.366-3.366s1.505-3.366,3.366-3.366      h23.563c1.861,0,3.366,1.505,3.366,3.366S2359.091,2856.51,2357.23,2856.51z M2310.104,2856.51h-23.563      c-1.861,0-3.366-1.506-3.366-3.366s1.506-3.366,3.366-3.366h23.563c1.861,0,3.366,1.505,3.366,3.366      S2311.965,2856.51,2310.104,2856.51z M2262.979,2856.51h-23.563c-1.861,0-3.366-1.506-3.366-3.366s1.505-3.366,3.366-3.366      h23.563c1.861,0,3.366,1.505,3.366,3.366S2264.84,2856.51,2262.979,2856.51z M2215.854,2856.51h-23.563      c-1.861,0-3.366-1.506-3.366-3.366s1.505-3.366,3.366-3.366h23.563c1.861,0,3.366,1.505,3.366,3.366      S2217.715,2856.51,2215.854,2856.51z M2168.729,2856.51h-23.563c-1.861,0-3.366-1.506-3.366-3.366s1.506-3.366,3.366-3.366      h23.563c1.861,0,3.366,1.505,3.366,3.366S2170.589,2856.51,2168.729,2856.51z M2121.603,2856.51h-23.563      c-1.861,0-3.366-1.506-3.366-3.366s1.505-3.366,3.366-3.366h23.563c1.861,0,3.366,1.505,3.366,3.366      S2123.464,2856.51,2121.603,2856.51z"/>
				<g style="opacity:0.6;">
					<path style="fill:#FFFFFF;" d="M2392.982,2923.018c7.051-0.459,12.246,4.918,11.545,11.949l-3.223,32.302       c-0.701,7.031-7.056,12.816-14.122,12.854l-214.659,1.183c-7.066,0.039-12.828-5.71-12.806-12.776l0.056-17.483       c0.023-7.066,5.81-13.223,12.861-13.682L2392.982,2923.018z"/>
				</g>

					<linearGradient id="SVGID_00000052073600477052088200000012611897647724126133_" gradientUnits="userSpaceOnUse" x1="2779.4338" y1="2306.1704" x2="2627.9595" y2="2498.0376">
					<stop offset="0" style="stop-color:#09005D"/>
					<stop offset="1" style="stop-color:#1A0F91"/>
				</linearGradient>
				<path style="fill:url(#SVGID_00000052073600477052088200000012611897647724126133_);" d="M2237.536,3064.635      c-7.446,0-14.904-3.527-22.774-10.756c-29.036-26.669-36.495-67.693-38.513-106.686c-13.428,15.032-27.169,29.67-40.751,44.144      c-1.906,2.035-5.108,2.13-7.136,0.227c-2.035-1.91-2.137-5.105-0.227-7.136c15.903-16.946,32.024-34.121,47.576-51.869      c-1.285-53.354,1.173-107.284,7.317-160.294c3.764-32.494,9.191-66.888,23.283-98.271c4.487-9.996,11.932-24.322,24.743-33.28      c13.349-9.333,30.85-10.355,42.569-2.485c13.168,8.849,16.719,25.63,18.241,37.481c8.967,69.744-18.241,133.661-42.645,175.001      c-18.129,30.706-40.068,58.808-63.308,85.526c1.203,39.897,6.726,83.607,35.683,110.207c6.117,5.618,11.462,8.307,16.429,8.083      c8.185-0.296,14.802-8.228,20.193-15.946c24.457-35.032,43.483-73.022,56.78-113.31c1.548-12.11,4.934-23.983,10.085-35.071      c1.095-2.357,3.8-3.488,6.246-2.64c2.452,0.858,3.853,3.435,3.241,5.96c-2.794,11.492-6.022,22.826-9.677,33.99      c-1.364,11.42-0.943,23.053,1.318,34.348c1.203,6.012,6.275,25.844,20.94,28.638c10.933,2.071,22.336-6.193,34.9-25.295      l35.643-54.176c1.344-2.041,3.961-2.827,6.206-1.867c2.248,0.963,3.484,3.402,2.929,5.782      c-2.301,9.905-6.154,33.552,7.702,39.256c7.906,3.248,16.203-1.443,25.827-6.864c9.536-5.371,19.434-10.913,30.594-9.441      c1.361,0.181,2.59,0.91,3.406,2.015c0.812,1.108,1.14,2.498,0.907,3.849c-0.522,3.018-4.688,29.555,9.119,32.609      c6.305,1.404,11.601-2.958,19.546-10.305c6.216-5.749,12.646-11.693,21.094-13.737c2.709-0.657,5.44,1.012,6.094,3.721      c0.654,2.709-1.009,5.437-3.721,6.094c-5.894,1.427-11.101,6.239-16.614,11.337c-7.801,7.212-16.653,15.387-28.582,12.751      c-15.604-3.455-19.414-21.091-17.695-38.276c-6.213,0.871-12.557,4.444-19.194,8.182c-10.407,5.864-22.212,12.495-34.621,7.403      c-10.309-4.244-15.861-14.523-16.219-29.24l-23.987,36.455c-9.605,14.602-24.772,33.563-45.222,29.667      c-14.079-2.682-24.904-16.354-28.954-36.573c-0.589-2.936-1.062-5.894-1.423-8.862c-12.63,31.432-28.809,61.333-48.391,89.379      c-6.417,9.191-15.414,19.799-28.106,20.259C2238.102,3064.629,2237.819,3064.635,2237.536,3064.635z M2255.412,2642.976      c-6.775,0-13.602,2.541-18.573,6.016c-10.759,7.524-17.32,20.233-21.317,29.138c-13.53,30.131-18.793,63.611-22.461,95.299      c-5.661,48.838-8.169,98.455-7.469,147.681c20.18-23.786,39.092-48.7,54.929-75.533c23.602-39.979,49.929-101.677,41.33-168.578      c-2.025-15.739-6.43-25.394-13.862-30.387C2264.169,2644.044,2259.804,2642.976,2255.412,2642.976z"/>
			</g>
			<g>
				<path style="fill:#7D97F4;" d="M1722.302,1932.356h-18.396v-58.894c0-6.407,0.32-13.773,0.96-22.104      c-0.321,0.458-1.499,1.853-3.534,4.187c-2.037,2.334-6.006,6.521-11.91,12.562l-10.433-11.394l26.701-24.712h16.612V1932.356z"/>
			</g>
			<g>
				<path style="fill:#7D97F4;" d="M1737.298,2180.384h-53.617v-13.883l17.781-25.167c4.879-6.93,8.23-12.071,10.053-15.422      s3.169-6.565,4.035-9.643c0.866-3.077,1.299-6.258,1.299-9.54c0-3.83-0.855-6.702-2.565-8.617      c-1.71-1.915-3.932-2.872-6.668-2.872c-2.416,0-4.673,0.638-6.771,1.915s-4.651,3.579-7.66,6.907l-10.395-10.942      c4.787-5.426,9.233-9.142,13.336-11.148c4.103-2.006,8.549-3.009,13.336-3.009c8.07,0,14.373,2.371,18.91,7.113      s6.805,11.33,6.805,19.764c0,3.83-0.41,7.455-1.231,10.874c-0.821,3.419-2.063,6.85-3.727,10.293      c-1.664,3.442-3.75,7.021-6.258,10.737c-2.508,3.716-8.982,12.23-19.423,25.543v0.547h32.759V2180.384z"/>
			</g>
			<g>
				<path style="fill:#7D97F4;" d="M1740.08,2329.783c0,6.131-1.51,11.273-4.532,15.427s-7.286,7.031-12.795,8.63v0.533      c6.131,0.978,10.874,3.376,14.228,7.197c3.354,3.821,5.031,9.019,5.031,15.594c0,8.974-2.788,16.127-8.363,21.458      c-5.576,5.332-13.206,7.997-22.891,7.997c-8.619,0-15.861-1.533-21.725-4.598v-16.261c2.932,1.777,6.109,3.177,9.53,4.198      c3.421,1.022,6.708,1.533,9.863,1.533c5.154,0,9.041-1.188,11.662-3.565c2.621-2.377,3.932-6.142,3.932-11.296      c0-9.73-5.975-14.594-17.927-14.594h-5.531v-13.528h5.265c5.287,0,9.341-1.244,12.162-3.732      c2.821-2.488,4.232-6.198,4.232-11.129c0-3.865-0.9-6.786-2.699-8.763s-4.343-2.966-7.63-2.966      c-5.02,0-9.907,2.133-14.661,6.398l-8.197-11.996c6.575-6.575,14.861-9.863,24.857-9.863c8.219,0,14.639,2.077,19.259,6.231      C1737.77,2316.844,1740.08,2322.542,1740.08,2329.783z"/>
			</g>
			<path style="fill:#91B3FA;" d="M3046.739,3178.233c41.394-7.307,61.072-43.936,75.718-88.411     c-4.227,28.611-13.213,72.037-45.408,97.737L3046.739,3178.233z"/>
			<g>
				<path style="fill:#7D97F4;" d="M1759.528,2609.561h-10.196v21.149h-17.635v-21.149h-32.86v-15.225l30.449-64.342h20.047v64.066      h10.196V2609.561z M1731.697,2594.061v-21.218l0.344-9.369l0.482-8.955h-0.551c-1.607,5.006-3.353,9.53-5.235,13.571      l-12.124,25.971H1731.697z"/>
			</g>
		</g>
		<g>
			<g>
				<g>

						<linearGradient id="SVGID_00000060740398093301945580000018279121072973801880_" gradientUnits="userSpaceOnUse" x1="1431.3921" y1="1561.0995" x2="1600.1378" y2="1365.2343" gradientTransform="matrix(0.9991 -0.0418 0.0418 0.9991 -566.8859 -157.1224)">
						<stop offset="0" style="stop-color:#FF928E"/>
						<stop offset="1" style="stop-color:#FE7062"/>
					</linearGradient>

						<circle style="fill:url(#SVGID_00000060740398093301945580000018279121072973801880_);" cx="1092.119" cy="1135.902" r="125.803"/>

						<linearGradient id="SVGID_00000123427740803336515480000003026620073881794751_" gradientUnits="userSpaceOnUse" x1="1695.4901" y1="1222.3773" x2="1196.5048" y2="1976.2018" gradientTransform="matrix(0.9991 -0.0418 0.0418 0.9991 -566.8859 -157.1224)">
						<stop offset="0" style="stop-color:#FF928E"/>
						<stop offset="1" style="stop-color:#FE7062"/>
					</linearGradient>

						<circle style="fill:url(#SVGID_00000123427740803336515480000003026620073881794751_);" cx="1092.119" cy="1135.902" r="121.62"/>
					<path style="opacity:0.7;fill:#FFFFFF;" d="M989.974,1093.682c-0.615,0.026-1.246-0.087-1.846-0.36       c-2.047-0.928-2.952-3.339-2.024-5.382c18.254-40.266,57.012-66.424,101.151-68.27c7.044-0.295,14.124,0.045,21.044,1.008       c2.223,0.309,3.776,2.363,3.467,4.586c-0.308,2.227-2.352,3.795-4.589,3.467c-6.435-0.891-13.024-1.208-19.582-0.934       c-41.053,1.718-77.103,26.048-94.083,63.499C992.856,1092.742,991.46,1093.62,989.974,1093.682z"/>

						<ellipse transform="matrix(0.7071 -0.7071 0.7071 0.7071 -484.3161 1107.636)" style="opacity:0.78;fill:#FFFFFF;" cx="1094.877" cy="1138.439" rx="102.936" ry="102.936"/>
					<g>

							<linearGradient id="SVGID_00000118365498475370224770000004232858037030577292_" gradientUnits="userSpaceOnUse" x1="1088.6897" y1="938.826" x2="1098.7874" y2="1231.6621">
							<stop offset="0" style="stop-color:#FF928E"/>
							<stop offset="1" style="stop-color:#FE7062"/>
						</linearGradient>
						<path style="fill:url(#SVGID_00000118365498475370224770000004232858037030577292_);" d="M1087.983,1215.318l-0.468-11.189        c-11.684,0.021-23.336-2.249-31.681-5.494c-2.979-1.158-4.608-4.38-3.897-7.496l2.406-10.542        c0.883-3.867,4.958-6.019,8.677-4.64c8.271,3.068,18.42,5.343,29.243,4.891c11.235-0.47,19.454-4.629,19.127-12.437        c-0.295-7.045-6.944-10.963-22.734-14.499c-22.534-5.161-38.936-14.204-39.756-33.817        c-0.741-17.71,11.643-31.771,33.961-36.329l-0.468-11.19c-0.15-3.6,2.646-6.642,6.247-6.793l6.574-0.275        c3.6-0.151,6.641,2.647,6.792,6.247l0.42,10.047c10.811-0.02,18.745,1.498,25.072,3.427c3.242,0.989,5.131,4.357,4.382,7.662        l-2.211,9.748c-0.853,3.759-4.74,5.961-8.399,4.75c-5.831-1.931-14.043-3.852-24.592-3.41        c-13.33,0.558-16.907,6.239-16.7,11.19c0.255,6.093,8.427,9.948,25.979,14.555c25.066,6.391,35.778,16.243,36.551,34.714        c0.709,16.948-11.221,32.707-35.436,37.535l0.524,12.522c0.151,3.601-2.646,6.641-6.246,6.792l-6.575,0.275        C1091.175,1221.716,1088.134,1218.919,1087.983,1215.318z"/>
					</g>
				</g>
				<g>

						<linearGradient id="SVGID_00000156585445035278513250000001404007989788147123_" gradientUnits="userSpaceOnUse" x1="1653.6816" y1="1408.0911" x2="1929.0741" y2="1088.4396" gradientTransform="matrix(0.9991 -0.0418 0.0418 0.9991 -566.8859 -157.1224)">
						<stop offset="0" style="stop-color:#FF928E"/>
						<stop offset="1" style="stop-color:#FE7062"/>
					</linearGradient>

						<circle style="fill:url(#SVGID_00000156585445035278513250000001404007989788147123_);" cx="1411.236" cy="843.019" r="205.31"/>

						<linearGradient id="SVGID_00000176752029746478345980000000057313633754131385_" gradientUnits="userSpaceOnUse" x1="2084.6887" y1="855.2972" x2="1270.3456" y2="2085.5376" gradientTransform="matrix(0.9991 -0.0418 0.0418 0.9991 -566.8859 -157.1224)">
						<stop offset="0" style="stop-color:#FF928E"/>
						<stop offset="1" style="stop-color:#FE7062"/>
					</linearGradient>

						<circle style="fill:url(#SVGID_00000176752029746478345980000000057313633754131385_);" cx="1411.237" cy="843.019" r="198.483"/>
					<path style="opacity:0.7;fill:#FFFFFF;" d="M1244.422,771.293c-0.577,0.024-1.168-0.082-1.73-0.338       c-1.919-0.87-2.768-3.13-1.897-5.045c29.348-64.737,91.661-106.796,162.625-109.765c11.324-0.474,22.708,0.071,33.835,1.626       c2.086,0.289,3.542,2.214,3.251,4.303c-0.291,2.084-2.214,3.562-4.303,3.247c-10.674-1.487-21.597-2.011-32.464-1.556       c-68.071,2.848-127.846,43.195-156,105.291C1247.124,770.412,1245.815,771.235,1244.422,771.293z"/>

						<ellipse transform="matrix(0.7071 -0.7071 0.7071 0.7071 -184.3716 1249.2053)" style="opacity:0.78;fill:#FFFFFF;" cx="1415.738" cy="847.159" rx="167.992" ry="167.991"/>
					<g>

							<linearGradient id="SVGID_00000158001567692686859970000008865282701415672984_" gradientUnits="userSpaceOnUse" x1="1424.2662" y1="630.7979" x2="1414.1685" y2="943.83">
							<stop offset="0" style="stop-color:#FF928E"/>
							<stop offset="1" style="stop-color:#FE7062"/>
						</linearGradient>
						<path style="fill:url(#SVGID_00000158001567692686859970000008865282701415672984_);" d="M1404.487,972.626l-0.764-18.261        c-19.068,0.034-38.084-3.671-51.703-8.965c-4.863-1.891-7.521-7.148-6.36-12.235l3.927-17.203        c1.441-6.311,8.092-9.822,14.161-7.571c13.498,5.006,30.062,8.72,47.724,7.981c18.335-0.767,31.749-7.556,31.216-20.297        c-0.481-11.497-11.333-17.892-37.102-23.662c-36.775-8.423-63.543-23.181-64.882-55.19        c-1.209-28.903,19.001-51.851,55.423-59.288l-0.764-18.262c-0.246-5.876,4.319-10.839,10.194-11.085l10.729-0.449        c5.877-0.246,10.84,4.318,11.085,10.195l0.686,16.397c17.644-0.032,30.592,2.444,40.917,5.594        c5.29,1.613,8.374,7.11,7.151,12.504l-3.608,15.91c-1.391,6.135-7.735,9.728-13.707,7.752        c-9.517-3.151-22.917-6.286-40.135-5.565c-21.754,0.91-27.591,10.182-27.253,18.262c0.416,9.944,13.754,16.234,42.397,23.754        c40.907,10.429,58.39,26.508,59.651,56.653c1.157,27.659-18.313,53.378-57.831,61.258l0.855,20.436        c0.246,5.877-4.318,10.839-10.195,11.085l-10.73,0.449C1409.697,983.067,1404.734,978.503,1404.487,972.626z"/>
					</g>
				</g>
				<g>

						<linearGradient id="SVGID_00000000218033924756803290000000276339420381447850_" gradientUnits="userSpaceOnUse" x1="1787.1354" y1="1876.1273" x2="2070.511" y2="1547.2097" gradientTransform="matrix(0.9991 -0.0418 0.0418 0.9991 -566.8859 -157.1224)">
						<stop offset="0" style="stop-color:#FF928E"/>
						<stop offset="1" style="stop-color:#FE7062"/>
					</linearGradient>

						<circle style="fill:url(#SVGID_00000000218033924756803290000000276339420381447850_);" cx="1571.876" cy="1295.27" r="211.262"/>

						<linearGradient id="SVGID_00000138562540109244633630000007934971976215832761_" gradientUnits="userSpaceOnUse" x1="2230.6365" y1="1307.3088" x2="1392.6874" y2="2573.2109" gradientTransform="matrix(0.9991 -0.0418 0.0418 0.9991 -566.8859 -157.1224)">
						<stop offset="0" style="stop-color:#FF928E"/>
						<stop offset="1" style="stop-color:#FE7062"/>
					</linearGradient>

						<circle style="fill:url(#SVGID_00000138562540109244633630000007934971976215832761_);" cx="1571.876" cy="1295.27" r="204.237"/>
					<path style="opacity:0.7;fill:#FFFFFF;" d="M1400.221,1221.355c-0.577,0.024-1.168-0.082-1.73-0.337       c-1.919-0.87-2.768-3.13-1.898-5.045c30.18-66.575,94.263-109.826,167.242-112.879c11.645-0.487,23.352,0.074,34.796,1.671       c2.086,0.289,3.542,2.215,3.251,4.302c-0.291,2.084-2.201,3.551-4.303,3.247c-10.993-1.53-22.239-2.069-33.426-1.601       c-70.087,2.932-131.631,44.471-160.617,108.406C1402.924,1220.474,1401.614,1221.297,1400.221,1221.355z"/>

						<ellipse transform="matrix(0.2278 -0.9737 0.9737 0.2278 -48.0246 2538.5024)" style="opacity:0.78;fill:#FFFFFF;" cx="1576.508" cy="1299.531" rx="172.861" ry="172.862"/>
					<g>

							<linearGradient id="SVGID_00000010286886869592019410000003836964541818590359_" gradientUnits="userSpaceOnUse" x1="1601.8633" y1="984.0239" x2="1566.5214" y2="1458.6205">
							<stop offset="0" style="stop-color:#FF928E"/>
							<stop offset="1" style="stop-color:#FE7062"/>
						</linearGradient>
						<path style="fill:url(#SVGID_00000010286886869592019410000003836964541818590359_);" d="M1564.931,1428.635l-0.786-18.79        c-19.621,0.035-39.189-3.777-53.201-9.225c-5.004-1.945-7.74-7.355-6.544-12.589l4.041-17.702        c1.482-6.494,8.326-10.107,14.571-7.791c13.891,5.151,30.934,8.974,49.108,8.213c18.867-0.789,32.669-7.774,32.12-20.886        c-0.495-11.831-11.661-18.41-38.177-24.348c-37.841-8.667-65.386-23.853-66.763-56.79        c-1.245-29.74,19.552-53.353,57.03-61.007l-0.786-18.792c-0.253-6.047,4.444-11.153,10.49-11.406l11.04-0.462        c6.047-0.253,11.153,4.443,11.406,10.49l0.706,16.872c18.156-0.033,31.479,2.515,42.104,5.756        c5.443,1.66,8.617,7.316,7.358,12.867l-3.713,16.37c-1.432,6.313-7.96,10.011-14.105,7.977        c-9.793-3.242-23.581-6.468-41.298-5.727c-22.385,0.936-28.391,10.477-28.043,18.791        c0.428,10.233,14.153,16.705,43.626,24.443c42.093,10.732,60.082,27.277,61.38,58.295        c1.191,28.46-18.843,54.925-59.506,63.034l0.88,21.028c0.253,6.047-4.444,11.154-10.49,11.406l-11.041,0.462        C1570.291,1439.378,1565.184,1434.681,1564.931,1428.635z"/>
					</g>
				</g>
				<g>

						<linearGradient id="SVGID_00000087392944891217868860000009023451741516274820_" gradientUnits="userSpaceOnUse" x1="2108.8523" y1="1457.1088" x2="2335.4861" y2="1194.0521" gradientTransform="matrix(0.9991 -0.0418 0.0418 0.9991 -566.8859 -157.1224)">
						<stop offset="0" style="stop-color:#FF928E"/>
						<stop offset="1" style="stop-color:#FE7062"/>
					</linearGradient>

						<circle style="fill:url(#SVGID_00000087392944891217868860000009023451741516274820_);" cx="1820.761" cy="932.732" r="168.959"/>

						<linearGradient id="SVGID_00000062155541809171937660000001532460666977466275_" gradientUnits="userSpaceOnUse" x1="2463.5486" y1="1002.1882" x2="1793.3872" y2="2014.611" gradientTransform="matrix(0.9991 -0.0418 0.0418 0.9991 -566.8859 -157.1224)">
						<stop offset="0" style="stop-color:#FF928E"/>
						<stop offset="1" style="stop-color:#FE7062"/>
					</linearGradient>

						<circle style="fill:url(#SVGID_00000062155541809171937660000001532460666977466275_);" cx="1820.761" cy="932.732" r="163.341"/>
					<path style="opacity:0.7;fill:#FFFFFF;" d="M1683.522,874.727c-0.629,0.026-1.275-0.089-1.889-0.368       c-2.094-0.95-3.021-3.417-2.071-5.507c24.312-53.628,75.936-88.47,134.721-90.93c9.369-0.392,18.798,0.059,28.03,1.345       c2.275,0.316,3.864,2.417,3.548,4.693c-0.318,2.275-2.4,3.895-4.696,3.548c-8.736-1.213-17.663-1.641-26.534-1.27       c-55.628,2.327-104.479,35.3-127.488,86.047C1686.472,873.766,1685.043,874.664,1683.522,874.727z"/>

						<ellipse transform="matrix(0.7071 -0.7071 0.7071 0.7071 -127.5766 1564.2808)" style="opacity:0.78;fill:#FFFFFF;" cx="1824.466" cy="936.139" rx="138.248" ry="138.248"/>
					<g>

							<linearGradient id="SVGID_00000057146739155724951280000017192807466152453812_" gradientUnits="userSpaceOnUse" x1="1825.5764" y1="717.117" x2="1825.5764" y2="1070.5399">
							<stop offset="0" style="stop-color:#FF928E"/>
							<stop offset="1" style="stop-color:#FE7062"/>
						</linearGradient>
						<path style="fill:url(#SVGID_00000057146739155724951280000017192807466152453812_);" d="M1815.207,1039.392l-0.629-15.027        c-15.692,0.028-31.342-3.021-42.549-7.378c-4.001-1.556-6.189-5.882-5.234-10.068l3.232-14.158        c1.186-5.193,6.66-8.083,11.654-6.231c11.109,4.12,24.74,7.177,39.275,6.569c15.089-0.631,26.127-6.218,25.688-16.704        c-0.396-9.462-9.326-14.724-30.533-19.472c-30.264-6.932-52.293-19.077-53.395-45.418        c-0.995-23.785,15.636-42.67,45.611-48.79l-0.629-15.03c-0.202-4.836,3.554-8.92,8.389-9.123l8.829-0.37        c4.836-0.202,8.921,3.554,9.123,8.39l0.565,13.493c14.52-0.026,25.176,2.011,33.673,4.604        c4.353,1.328,6.891,5.851,5.885,10.29l-2.969,13.093c-1.145,5.048-6.366,8.006-11.281,6.379        c-7.832-2.593-18.859-5.172-33.029-4.58c-17.903,0.749-22.706,8.378-22.428,15.029c0.342,8.183,11.318,13.36,34.891,19.548        c33.664,8.583,48.052,21.815,49.089,46.623c0.952,22.761-15.07,43.927-47.592,50.412l0.704,16.818        c0.202,4.836-3.553,8.92-8.39,9.122l-8.83,0.37C1819.494,1047.984,1815.409,1044.227,1815.207,1039.392z"/>
					</g>
				</g>
			</g>
		</g>
		<g>

				<linearGradient id="SVGID_00000174563215990561194870000001624592072978752671_" gradientUnits="userSpaceOnUse" x1="-574.2008" y1="3118.2048" x2="-1040.4719" y2="3625.3774" gradientTransform="matrix(-1 0 0 1 2239.415 0)">
				<stop offset="0" style="stop-color:#09005D"/>
				<stop offset="1" style="stop-color:#1A0F91"/>
			</linearGradient>
			<path style="fill:url(#SVGID_00000174563215990561194870000001624592072978752671_);" d="M2961.005,3155.986     c0,0,4.829,27.336,7.196,54.397c0.925,10.576-7.228,19.759-17.835,20.2c-36.037,1.501-113.12,4.419-140.781,3.185     c-4.158-0.186-6.877-4.442-5.338-8.31c1.29-3.241,3.777-5.861,6.946-7.317l127.328-58.52L2961.005,3155.986z"/>

				<linearGradient id="SVGID_00000154419997553834030070000010194725886593797778_" gradientUnits="userSpaceOnUse" x1="-725.5454" y1="3155.8733" x2="-684.129" y2="3155.8733" gradientTransform="matrix(-1 0 0 1 2239.415 0)">
				<stop offset="0" style="stop-color:#FEBBBA"/>
				<stop offset="1" style="stop-color:#FF928E"/>
			</linearGradient>
			<path style="fill:url(#SVGID_00000154419997553834030070000010194725886593797778_);" d="M2964.96,3139.924l-3.879,32.699     c0,0-22.305,10.383-37.537-1.309l9.237-36.439L2964.96,3139.924z"/>

				<linearGradient id="SVGID_00000043434143800956312160000015559598392327270048_" gradientUnits="userSpaceOnUse" x1="-823.7537" y1="2839.1892" x2="-686.8101" y2="2839.1892" gradientTransform="matrix(-1 0 0 1 2239.415 0)">
				<stop offset="0" style="stop-color:#09005D"/>
				<stop offset="1" style="stop-color:#1A0F91"/>
			</linearGradient>
			<path style="fill:url(#SVGID_00000043434143800956312160000015559598392327270048_);" d="M2962.045,2525.184     c1.676,8.539,8.995,426.116-35.641,613.246c-0.729,3.054,0.819,6.201,3.726,7.388c6.846,2.797,20.268,6.848,36.352,7.388     c4.981,0.167,9.447-3.07,10.853-7.852c12.759-43.417,73.898-260.949,81.874-468.751c8.912-232.198,0-7.906,0-7.906     l-5.227-143.531L2962.045,2525.184z"/>

				<linearGradient id="SVGID_00000128476868653675445880000001998479086791673731_" gradientUnits="userSpaceOnUse" x1="-678.8009" y1="3022.0398" x2="-1145.0728" y2="3529.2134" gradientTransform="matrix(-1 0 0 1 2239.415 0)">
				<stop offset="0" style="stop-color:#09005D"/>
				<stop offset="1" style="stop-color:#1A0F91"/>
			</linearGradient>
			<path style="fill:url(#SVGID_00000128476868653675445880000001998479086791673731_);" d="M3107.474,3170.248     c0,0,7.687,13.801,15.128,50.472c1.344,6.623-3.283,12.961-10.009,13.623c-11.899,1.17-30.218,2.675-44.892,2.573     c-6.764-0.046-12.043-5.936-11.228-12.651c1.625-13.385,6.689-35.346,22.332-52.463L3107.474,3170.248z"/>

				<linearGradient id="SVGID_00000023998325027944793340000009158538092199474860_" gradientUnits="userSpaceOnUse" x1="-874.8101" y1="3153.7493" x2="-839.0507" y2="3153.7493" gradientTransform="matrix(-1 0 0 1 2239.415 0)">
				<stop offset="0" style="stop-color:#FEBBBA"/>
				<stop offset="1" style="stop-color:#FF928E"/>
			</linearGradient>
			<path style="fill:url(#SVGID_00000023998325027944793340000009158538092199474860_);" d="M3114.225,3128.19l-9.065,49.449     c0,0-8.963,6.667-26.694,1.834l4.327-53.204L3114.225,3128.19z"/>

				<linearGradient id="SVGID_00000036212993492717053170000002926540046142582708_" gradientUnits="userSpaceOnUse" x1="-913.3531" y1="2834.7083" x2="-718.9374" y2="2834.7083" gradientTransform="matrix(-1 0 0 1 2239.415 0)">
				<stop offset="0" style="stop-color:#09005D"/>
				<stop offset="1" style="stop-color:#1A0F91"/>
			</linearGradient>
			<path style="fill:url(#SVGID_00000036212993492717053170000002926540046142582708_);" d="M3138.715,2537.998     c36.506,220.317-7.919,544.532-22.902,607.989c-0.917,3.885-4.052,6.861-7.99,7.514c-6.688,1.109-17.699,2.013-28.553-1.139     c-3.74-1.086-6.368-4.46-6.521-8.352c-2.01-51.303,1.608-366.253-32.407-490.722c-1.724-6.308-5.576-11.809-10.906-15.598     l-66.021-46.936l-5.062-75.868L3138.715,2537.998z"/>
			<g>

					<linearGradient id="SVGID_00000155860976017818922100000008639385430034064289_" gradientUnits="userSpaceOnUse" x1="-968.6379" y1="2461.8591" x2="-316.9463" y2="1992.8586" gradientTransform="matrix(-1 0 0 1 2239.415 0)">
					<stop offset="0" style="stop-color:#4F52FF"/>
					<stop offset="1" style="stop-color:#4042E2"/>
				</linearGradient>
				<path style="fill:url(#SVGID_00000155860976017818922100000008639385430034064289_);" d="M2906.096,2120.539      c109.402-1.807,230.115,28.726,230.115,28.726c32.611,190.281,5.703,409.757,5.703,409.757      c-84.697,22.211-180.239-13.58-180.239-13.58c-14.077-79.533-79.757-303.365-79.757-303.365      c-53.454-6.635-97.488-22.056-133.75-42.445c27.66-32.063,40.7-72.86,46.364-96.977      C2833.212,2114.676,2872.353,2121.097,2906.096,2120.539z"/>

					<linearGradient id="SVGID_00000010306744569657284390000010655653855056365244_" gradientUnits="userSpaceOnUse" x1="-555.1168" y1="2075.3679" x2="-343.5272" y2="2075.3679" gradientTransform="matrix(-1 0 0 1 2239.415 0)">
					<stop offset="0" style="stop-color:#FEBBBA"/>
					<stop offset="1" style="stop-color:#FF928E"/>
				</linearGradient>
				<path style="fill:url(#SVGID_00000010306744569657284390000010655653855056365244_);" d="M2582.942,1959.396      c10.747-12.981,24.349-6.84,24.349-6.84c16.099,68.006,100.515,123.146,187.241,150.099      c-5.664,24.116-18.704,64.914-46.364,96.977C2604.24,2118.706,2582.942,1959.396,2582.942,1959.396z"/>
			</g>
			<g>

					<linearGradient id="SVGID_00000044175491826299802950000011384536070826107543_" gradientUnits="userSpaceOnUse" x1="10838.4404" y1="2039.9006" x2="10980.4229" y2="2362.9407" gradientTransform="matrix(1 0 0 1 -8208.3633 0)">
					<stop offset="0" style="stop-color:#FEBBBA"/>
					<stop offset="1" style="stop-color:#FF928E"/>
				</linearGradient>
				<path style="fill:url(#SVGID_00000044175491826299802950000011384536070826107543_);" d="M2585.551,1962.697      c-1.125,3.575,11.897,9.018,19.565-5.603c0.268-7.007,4.53-37.028,0.343-42.736c-22.301-30.404-65.538-68.517-65.538-68.517      c-7.307,7.21-1.287,14.293-1.287,14.293l20.974,21.85c-4.387,7.928-9.738,14.62-12.246,24.209      c-1.9,7.262-0.738,15.023,2.93,21.632c3.682,6.633,8.705,15.255,13.454,22.003      C2572.734,1962.601,2585.551,1962.697,2585.551,1962.697z"/>

					<linearGradient id="SVGID_00000165202418373282835440000005777795185973760659_" gradientUnits="userSpaceOnUse" x1="-344.5428" y1="1932.3165" x2="-285.2997" y2="1841.2302" gradientTransform="matrix(-1 0 0 1 2239.415 0)">
					<stop offset="0" style="stop-color:#FEBBBA"/>
					<stop offset="1" style="stop-color:#FF928E"/>
				</linearGradient>
				<path style="fill:url(#SVGID_00000165202418373282835440000005777795185973760659_);" d="M2568.782,1896.161l19.114,16.203      l6.001,16.133l-17.042,18.905c0,0-5.73-32.009-9.989-38.938C2562.608,1901.538,2564.816,1898.188,2568.782,1896.161z"/>
			</g>

				<linearGradient id="SVGID_00000031914187286459099860000014941191022865985717_" gradientUnits="userSpaceOnUse" x1="-1054.5128" y1="2342.533" x2="-402.8231" y2="1873.5337" gradientTransform="matrix(-1 0 0 1 2239.415 0)">
				<stop offset="0" style="stop-color:#4F52FF"/>
				<stop offset="1" style="stop-color:#4042E2"/>
			</linearGradient>
			<path style="fill:url(#SVGID_00000031914187286459099860000014941191022865985717_);" d="M3094.249,2255.198l41.962-105.933     c0,0,102.188,69.432,118.993,157.464c-19.308,1.422-54.443,6.444-88.833,23.809     C3158.813,2288.971,3094.249,2255.198,3094.249,2255.198z"/>

				<linearGradient id="SVGID_00000068660247806622378230000000691575757874424722_" gradientUnits="userSpaceOnUse" x1="-1018.1184" y1="2375.0789" x2="-750.35" y2="2375.0789" gradientTransform="matrix(-1 0 0 1 2239.415 0)">
				<stop offset="0" style="stop-color:#FEBBBA"/>
				<stop offset="1" style="stop-color:#FF928E"/>
			</linearGradient>
			<path style="fill:url(#SVGID_00000068660247806622378230000000691575757874424722_);" d="M3004.948,2354.878     c0,0,114.731,64.841,153.443,9.474c8.038-11.496,9.959-22.922,7.979-33.814c34.39-17.365,69.525-22.387,88.833-23.809     c5.067,26.539,2.388,54.764-13.206,83.292c-67.81,124.044-252.232-6.855-252.232-6.855L3004.948,2354.878z"/>
			<g>

					<linearGradient id="SVGID_00000111183761172498756190000004785552384843523516_" gradientUnits="userSpaceOnUse" x1="3346.9294" y1="2031.912" x2="3175.2666" y2="2137.939">
					<stop offset="0" style="stop-color:#FF928E"/>
					<stop offset="1" style="stop-color:#FE7062"/>
				</linearGradient>
				<path style="fill:url(#SVGID_00000111183761172498756190000004785552384843523516_);" d="M3018.734,2436.908l-62.616-218.669      c-0.711-2.482-2.828-4.292-5.393-4.592c-11.345-1.323-44.218-5.039-82.173-8.25c-45.719-3.867-98.811-7-130.538-4.335      c-4.51,0.379-7.236,5.149-5.23,9.207c18.042,36.5,92.253,184.975,129.417,233.614c1.231,1.611,3.135,2.553,5.163,2.534      l145.279-1.352C3016.87,2445.027,3019.897,2440.972,3018.734,2436.908z"/>
				<path style="fill:#91B3FA;" d="M2862.056,2186.44l-45.398-7.564c-2.417-0.403-4.398,1.907-3.63,4.235l4.494,13.618      c0.391,1.186,1.425,2.043,2.663,2.208l43.686,5.835c2.26,0.302,4.124-1.751,3.604-3.972l-2.782-11.889      C2864.394,2187.631,2863.354,2186.656,2862.056,2186.44z"/>
				<path style="fill:#91B3FA;" d="M2896.049,2224.872l-3.74-19.48c-0.375-1.954-1.988-3.43-3.968-3.631l-91.693-9.304      c-3.086-0.313-5.557,2.515-4.833,5.531l5.83,24.274c0.467,1.942,2.157,3.345,4.152,3.446l89.602,4.51      C2894.317,2230.365,2896.6,2227.74,2896.049,2224.872z"/>

					<linearGradient id="SVGID_00000077285006901589097240000012467582100375465600_" gradientUnits="userSpaceOnUse" x1="-770.2307" y1="2347.0034" x2="-686.8101" y2="2347.0034" gradientTransform="matrix(-1 0 0 1 2239.415 0)">
					<stop offset="0" style="stop-color:#FEBBBA"/>
					<stop offset="1" style="stop-color:#FF928E"/>
				</linearGradient>
				<path style="fill:url(#SVGID_00000077285006901589097240000012467582100375465600_);" d="M3003.606,2384.077      c0,0,8.722-35.866,5.204-48.591s-10.335-29.085-33.058-25.449c-22.723,3.635-49.527,13.208-49.527,13.208      s1.354,16.575,18.624,11.227l-10.709,8.286c0,0,1.531,13.271,16.117,6.181l-9.96,10.99c0,0,6.265,10.899,16.996,3.908      C2968.026,2356.846,2973.17,2388.396,3003.606,2384.077z"/>
			</g>

				<linearGradient id="SVGID_00000008114261524346092760000003500141027585764279_" gradientUnits="userSpaceOnUse" x1="-812.5095" y1="2088.8181" x2="-706.6429" y2="2088.8181" gradientTransform="matrix(-1 0 0 1 2239.415 0)">
				<stop offset="0" style="stop-color:#FEBBBA"/>
				<stop offset="1" style="stop-color:#FF928E"/>
			</linearGradient>
			<path style="fill:url(#SVGID_00000008114261524346092760000003500141027585764279_);" d="M3016.912,2031.722l34.81,100.668     c0.577,1.668-0.109,3.514-1.653,4.368c-9.489,5.247-43.676,20.411-84.873-5.709c-4.292-2.721-7.213-7.159-7.865-12.198     l-11.272-87.129H3016.912z"/>
			<g>

					<linearGradient id="SVGID_00000105395440372215684480000013471647273408575406_" gradientUnits="userSpaceOnUse" x1="-6213.9263" y1="-1760.3396" x2="-6253.4873" y2="-1890.822" gradientTransform="matrix(-0.746 -0.6659 -0.6659 0.746 -2886.9204 -803.1727)">
					<stop offset="0" style="stop-color:#FEBBBA"/>
					<stop offset="1" style="stop-color:#FF928E"/>
				</linearGradient>
				<path style="fill:url(#SVGID_00000105395440372215684480000013471647273408575406_);" d="M2941.17,1938.5      c0,0-38.225,71.954-33.325,101.021c4.9,29.066,52.274,26.979,93.642,3.373l28.908-77.695L2941.17,1938.5z"/>

					<linearGradient id="SVGID_00000177460796172713002140000006834601397031566745_" gradientUnits="userSpaceOnUse" x1="-6249.6182" y1="-1987.6857" x2="-6216.5254" y2="-1798.9347" gradientTransform="matrix(-0.746 -0.6659 -0.6659 0.746 -2886.9204 -803.1727)">
					<stop offset="0" style="stop-color:#09005D"/>
					<stop offset="1" style="stop-color:#1A0F91"/>
				</linearGradient>
				<path style="fill:url(#SVGID_00000177460796172713002140000006834601397031566745_);" d="M2999.659,2004.737      c-1.681-0.745-2.302-2.802-1.294-4.34c3.063-4.678,8.803-14.223,10.635-22.579c0,0,6.872-4.401-17.49-10.232      c-24.362-5.831-60.691-14.882-68.327-35.618c-7.445-20.217,12.117-71.06,43.325-30.549c1.188,1.542,3.514,1.576,4.699,0.033      c5.116-6.659,18.567-20.48,37.241-12.101c17.475,7.841,19.444,20.646,19.204,27.101c-0.071,1.899,1.627,3.375,3.493,3.019      c8.836-1.685,30.038-3.132,39.934,18.618c8.152,17.915,2.854,28.057-1.972,33.016c-1.563,1.607-0.878,4.253,1.266,4.909      c5.807,1.778,13.305,6.701,12.554,20.306c-1.038,18.807-22.066,17.151-28.052,16.293c-0.981-0.141-1.969,0.196-2.634,0.931      c-5.134,5.68-28.262,29.802-53.294,32.709c-2.167,0.252-3.847-1.889-3.138-3.952l10.833-31.49      c0.503-1.463-0.197-3.067-1.611-3.693L2999.659,2004.737z"/>

					<linearGradient id="SVGID_00000020399681206242842010000008498841918283249794_" gradientUnits="userSpaceOnUse" x1="-6254.3672" y1="-1760.9469" x2="-6289.9609" y2="-1878.3446" gradientTransform="matrix(-0.746 -0.6659 -0.6659 0.746 -2886.9204 -803.1727)">
					<stop offset="0" style="stop-color:#FEBBBA"/>
					<stop offset="1" style="stop-color:#FF928E"/>
				</linearGradient>
				<path style="fill:url(#SVGID_00000020399681206242842010000008498841918283249794_);" d="M2995.304,2009.207      c0,0,27.217-18.673,29.205-2.948s-24.509,22.778-37.633,16.915L2995.304,2009.207z"/>
			</g>
		</g>
	</g>
</g>
</svg>