<?xml version="1.0" encoding="utf-8"?>
<!-- Generator: Adobe Illustrator 27.5.0, SVG Export Plug-In . SVG Version: 6.00 Build 0)  -->
<svg version="1.1" xmlns="http://www.w3.org/2000/svg" xmlns:xlink="http://www.w3.org/1999/xlink" x="0px" y="0px"
	 viewBox="0 0 3710 3710" style="enable-background:new 0 0 3710 3710;" xml:space="preserve">

<g id="Illustration">
	<g>
		<linearGradient id="SVGID_1_" gradientUnits="userSpaceOnUse" x1="3581.2031" y1="4009.5164" x2="1139.1232" y2="976.6062">
			<stop  offset="0" style="stop-color:#DAE3FE"/>
			<stop  offset="1" style="stop-color:#E9EFFD"/>
		</linearGradient>
		<path style="fill:url(#SVGID_1_);" d="M2909.371,2813.446c-56.094,59.053-109.169,97.135-151.103,127.223
			c-492.923,353.677-1076.181,250.582-1200.14,225.405c-183.048-37.178-536.877-109.043-792.688-409.872
			c-387.022-455.129-326.757-1172.173-26.557-1645.504c54.911-86.58,344.969-567.12,934.509-644.184
			c356.783-46.638,772.678,47.425,1073.858,299.754C3379.455,1295.93,3334.448,2365.939,2909.371,2813.446z"/>

		<g>
				<linearGradient id="SVGID_00000164479380490830673570000005484290073915940260_" gradientUnits="userSpaceOnUse" x1="1660.3074" y1="1776.4438" x2="1151.7098" y2="615.0184">
				<stop  offset="0" style="stop-color:#4F52FF"/>
				<stop  offset="1" style="stop-color:#4042E2"/>
			</linearGradient>
			<path style="fill:url(#SVGID_00000164479380490830673570000005484290073915940260_);" d="M2955.6,1946.674
				c-27.958,636.848-607.882,1128.652-1295.297,1098.474S438.292,2474.24,466.25,1837.391S1074.131,708.739,1761.547,738.917
				C2448.961,769.094,2983.557,1309.826,2955.6,1946.674z"/>
			<!-- <ellipse style="opacity:0.22;fill:#91B3FA;" cx="1643.495" cy="1808.757" rx="977.625" ry="923.544"/> -->
		</g>
		<g>

				<linearGradient id="SVGID_00000124861711482744292370000011359012956628126620_" gradientUnits="userSpaceOnUse" x1="1591.2898" y1="1043.1958" x2="1223.1666" y2="675.0726">
				<stop  offset="0" style="stop-color:#FF928E"/>
				<stop  offset="1" style="stop-color:#FE7062"/>
			</linearGradient>
			<path style="fill:url(#SVGID_00000124861711482744292370000011359012956628126620_);" d="M1408.675,724.09l-110.098-36.128
				c-2.266-0.743-4.729-0.592-6.887,0.424l-118.323,55.707c-3.188,1.501-5.259,4.669-5.355,8.192
				c-0.096,3.523,1.8,6.799,4.902,8.471l90.859,48.979L1408.675,724.09z"/>

				<linearGradient id="SVGID_00000167395290966581254310000007015994960288021157_" gradientUnits="userSpaceOnUse" x1="203.0299" y1="2065.8481" x2="1763.3344" y2="323.1679">
				<stop  offset="0" style="stop-color:#FF928E"/>
				<stop  offset="1" style="stop-color:#FE7062"/>
			</linearGradient>
			<path style="fill:url(#SVGID_00000167395290966581254310000007015994960288021157_);" d="M606.21,1035.432
				c0,0,1110.022-489.157,1158.814-485.641c48.791,3.515,141.373,31.929,165.256,26.237c23.882-5.691,110.885-11.282,103.62,53.546
				c-7.266,64.828-925.326,480.475-1046.679,469.014c-121.353-11.462-422.626-15.38-422.626-15.38S528.649,1048.868,606.21,1035.432
				z"/>

				<linearGradient id="SVGID_00000121275455512748884970000003559133731694702736_" gradientUnits="userSpaceOnUse" x1="4528.2227" y1="1902.1708" x2="3839.5671" y2="1320.5352" gradientTransform="matrix(0.9717 -0.2361 0.2361 0.9717 -3181.3533 636.8878)">
				<stop  offset="0" style="stop-color:#FEBBBA"/>
				<stop  offset="1" style="stop-color:#FF928E"/>
			</linearGradient>
			<path style="fill:url(#SVGID_00000121275455512748884970000003559133731694702736_);" d="M928.547,898.119l-189.429-52.421
				c-11.878-3.287-22.594-9.841-30.932-18.917L611.139,721.14c-7.689-8.371-19.955-10.754-30.211-5.854
				c-32.837,15.686-100.727,49.205-99.099,57.436c2.145,10.846,102.443,271.909,102.443,271.909L928.547,898.119z"/>

				<linearGradient id="SVGID_00000064334170372015712480000012107558091571885208_" gradientUnits="userSpaceOnUse" x1="4293.6699" y1="870.4634" x2="3553.8938" y2="1439.0967" gradientTransform="matrix(0.9717 -0.2361 0.2361 0.9717 -3181.3533 636.8878)">
				<stop  offset="0" style="stop-color:#FEBBBA"/>
				<stop  offset="1" style="stop-color:#FF928E"/>
			</linearGradient>
			<path style="fill:url(#SVGID_00000064334170372015712480000012107558091571885208_);" d="M626.396,1071.419l-0.138,60.197
				c-0.023,10.157,4.521,19.386,12.485,25.69c7.964,6.303,18.287,8.23,28.167,5.875l59.033-14.068
				c9.323-2.222,17.317-7.99,21.766-16.478l76.322-145.34L626.396,1071.419z"/>

				<linearGradient id="SVGID_00000096041546777092868080000004880879712029888405_" gradientUnits="userSpaceOnUse" x1="4851.3843" y1="1406.707" x2="4268.9004" y2="1478.6182" gradientTransform="matrix(0.9717 -0.2361 0.2361 0.9717 -3181.3533 636.8878)">
				<stop  offset="0" style="stop-color:#FF928E"/>
				<stop  offset="1" style="stop-color:#FE7062"/>
			</linearGradient>
			<path style="fill:url(#SVGID_00000096041546777092868080000004880879712029888405_);" d="M1280.213,1114.359
				c0,0,46.281,35.346,104.494,21.473c58.213-13.873,126.018-47.068,134.543-70.868c8.525-23.8,0.915-182.787-112.08-132.719
				C1294.175,982.315,1172.689,1084.143,1280.213,1114.359z"/>

				<linearGradient id="SVGID_00000016070912639086503100000007052174524960216734_" gradientUnits="userSpaceOnUse" x1="838.5063" y1="1408.4546" x2="1917.4923" y2="537.1602">
				<stop  offset="0" style="stop-color:#FEBBBA"/>
				<stop  offset="1" style="stop-color:#FF928E"/>
			</linearGradient>
			<path style="fill:url(#SVGID_00000016070912639086503100000007052174524960216734_);" d="M1176.492,973.018l264.198-114.587
				l-160.341,353.079c-2.248,4.95-6.464,8.734-11.627,10.437l-161.918,53.387c-7.009,2.311-14.722,0.459-19.917-4.782
				c-5.196-5.241-6.98-12.97-4.608-19.958L1176.492,973.018z"/>

				<linearGradient id="SVGID_00000158709262436924578270000008821276041267457165_" gradientUnits="userSpaceOnUse" x1="4000.5195" y1="1432.9329" x2="4440.1714" y2="1105.9017" gradientTransform="matrix(0.9886 -0.1507 0.1507 0.9886 -2965.6995 466.8693)">
				<stop  offset="0" style="stop-color:#FEBBBA"/>
				<stop  offset="1" style="stop-color:#FF928E"/>
			</linearGradient>
			<path style="fill:url(#SVGID_00000158709262436924578270000008821276041267457165_);" d="M1505.075,1072.781
				c0.745-0.021,1.441-0.156,2.094-0.407c3.573-1.373,6.353-6.084,8.268-14.006c6.157-25.471,1.871-75.816-26.924-107.989l0,0
				c-8.533-9.527-21.136-13.933-33.742-11.83c-10.345,1.748-22.612,7.895-22.317,27.274c0.466,30.376,44.068,90.167,63.844,103.537
				C1499.777,1071.715,1502.674,1072.847,1505.075,1072.781z M1459.937,943.233c9.282-0.258,18.458,3.602,24.72,10.599l0,0
				c27.247,30.437,31.473,79.646,25.751,103.321c-1.656,6.863-3.779,9.889-5.091,10.39c-0.17,0.07-1.714,0.518-6.123-2.468
				c-20.569-13.909-61.155-72.5-61.566-99.335c-0.196-12.786,5.694-20.01,18.003-22.09
				C1457.061,943.408,1458.503,943.272,1459.937,943.233z"/>

				<linearGradient id="SVGID_00000038375553261619800190000007770156241413081271_" gradientUnits="userSpaceOnUse" x1="983.8103" y1="494.423" x2="686.6097" y2="788.2463">
				<stop  offset="0" style="stop-color:#FF928E"/>
				<stop  offset="1" style="stop-color:#FE7062"/>
			</linearGradient>
			<polygon style="fill:url(#SVGID_00000038375553261619800190000007770156241413081271_);" points="503.826,835.096
				532.484,828.266 602.951,1004.812 574.506,1019.031 			"/>
			<g>
				<g>

						<linearGradient id="SVGID_00000099620592951526872030000004096585582647885219_" gradientUnits="userSpaceOnUse" x1="4987.0454" y1="-2157.8821" x2="4789.4771" y2="-1276.425" gradientTransform="matrix(0.9727 -0.2318 0.2318 0.9727 -3353.8916 521.2909)">
						<stop  offset="0" style="stop-color:#09005D"/>
						<stop  offset="1" style="stop-color:#1A0F91"/>
					</linearGradient>
					<path style="fill:url(#SVGID_00000099620592951526872030000004096585582647885219_);" d="M1027.332,942.862
						c-2.247-9.428,3.575-18.892,13.003-21.138l1.085-0.259c9.427-2.247,18.891,3.575,21.138,13.003l2.657,11.15
						c2.247,9.427-3.575,18.891-13.003,21.138l-1.085,0.259c-9.427,2.247-18.891-3.575-21.138-13.003L1027.332,942.862z"/>

						<linearGradient id="SVGID_00000054255747236921877910000007169386761197532055_" gradientUnits="userSpaceOnUse" x1="5049.979" y1="-2143.771" x2="4852.4097" y2="-1262.3104" gradientTransform="matrix(0.9727 -0.2318 0.2318 0.9727 -3353.8916 521.2909)">
						<stop  offset="0" style="stop-color:#09005D"/>
						<stop  offset="1" style="stop-color:#1A0F91"/>
					</linearGradient>
					<path style="fill:url(#SVGID_00000054255747236921877910000007169386761197532055_);" d="M1091.553,922.239
						c-2.247-9.427,3.574-18.891,13.002-21.138l1.085-0.258c9.428-2.247,18.892,3.574,21.139,13.002l2.657,11.15
						c2.247,9.427-3.575,18.891-13.002,21.138l-1.086,0.258c-9.427,2.247-18.891-3.575-21.138-13.002L1091.553,922.239z"/>

						<linearGradient id="SVGID_00000098217808153135144160000016499773289763891889_" gradientUnits="userSpaceOnUse" x1="5110.7046" y1="-2130.157" x2="4913.1362" y2="-1248.7" gradientTransform="matrix(0.9727 -0.2318 0.2318 0.9727 -3353.8916 521.2909)">
						<stop  offset="0" style="stop-color:#09005D"/>
						<stop  offset="1" style="stop-color:#1A0F91"/>
					</linearGradient>
					<path style="fill:url(#SVGID_00000098217808153135144160000016499773289763891889_);" d="M1153.375,891.552
						c-2.247-9.428,3.574-18.892,13.002-21.139l1.086-0.258c9.427-2.247,18.891,3.574,21.138,13.002l2.657,11.15
						c2.246,9.428-3.575,18.892-13.002,21.138l-1.085,0.259c-9.428,2.247-18.892-3.574-21.138-13.003L1153.375,891.552z"/>

						<linearGradient id="SVGID_00000006693138280937768750000016039495945271603585_" gradientUnits="userSpaceOnUse" x1="5167.6094" y1="-2117.4028" x2="4970.0405" y2="-1235.944" gradientTransform="matrix(0.9727 -0.2318 0.2318 0.9727 -3353.8916 521.2909)">
						<stop  offset="0" style="stop-color:#09005D"/>
						<stop  offset="1" style="stop-color:#1A0F91"/>
					</linearGradient>
					<path style="fill:url(#SVGID_00000006693138280937768750000016039495945271603585_);" d="M1211.364,867.097
						c-2.247-9.428,3.575-18.892,13.002-21.139l1.085-0.258c9.428-2.247,18.892,3.575,21.139,13.002l2.657,11.15
						c2.247,9.427-3.575,18.891-13.002,21.138l-1.085,0.259c-9.428,2.246-18.892-3.574-21.139-13.003L1211.364,867.097z"/>

						<linearGradient id="SVGID_00000017505206760758102910000013950100929440654227_" gradientUnits="userSpaceOnUse" x1="5234.3657" y1="-2102.4397" x2="5036.7969" y2="-1220.9808" gradientTransform="matrix(0.9727 -0.2318 0.2318 0.9727 -3353.8916 521.2909)">
						<stop  offset="0" style="stop-color:#09005D"/>
						<stop  offset="1" style="stop-color:#1A0F91"/>
					</linearGradient>
					<path style="fill:url(#SVGID_00000017505206760758102910000013950100929440654227_);" d="M1279.418,840.242
						c-2.247-9.428,3.574-18.892,13.002-21.139l1.086-0.258c9.427-2.247,18.891,3.575,21.138,13.002l2.657,11.15
						c2.247,9.427-3.574,18.891-13.002,21.138l-1.085,0.259c-9.428,2.246-18.892-3.575-21.139-13.002L1279.418,840.242z"/>

						<linearGradient id="SVGID_00000085241363483652496090000004119390240280941447_" gradientUnits="userSpaceOnUse" x1="5296.1953" y1="-2088.5769" x2="5098.627" y2="-1207.1199" gradientTransform="matrix(0.9727 -0.2318 0.2318 0.9727 -3353.8916 521.2909)">
						<stop  offset="0" style="stop-color:#09005D"/>
						<stop  offset="1" style="stop-color:#1A0F91"/>
					</linearGradient>
					<path style="fill:url(#SVGID_00000085241363483652496090000004119390240280941447_);" d="M1342.44,814.587
						c-2.247-9.428,3.575-18.892,13.002-21.138l1.085-0.259c9.428-2.247,18.892,3.574,21.139,13.003l2.657,11.15
						c2.247,9.427-3.575,18.892-13.002,21.138l-1.085,0.259c-9.428,2.247-18.892-3.575-21.139-13.003L1342.44,814.587z"/>

						<linearGradient id="SVGID_00000101088761360692036070000013520138882574374272_" gradientUnits="userSpaceOnUse" x1="5356.9219" y1="-2074.9661" x2="5159.353" y2="-1193.5082" gradientTransform="matrix(0.9727 -0.2318 0.2318 0.9727 -3353.8916 521.2909)">
						<stop  offset="0" style="stop-color:#09005D"/>
						<stop  offset="1" style="stop-color:#1A0F91"/>
					</linearGradient>
					<path style="fill:url(#SVGID_00000101088761360692036070000013520138882574374272_);" d="M1404.262,783.899
						c-2.247-9.427,3.574-18.892,13.003-21.138l1.085-0.259c9.427-2.247,18.891,3.575,21.138,13.003l2.657,11.15
						c2.247,9.428-3.575,18.892-13.003,21.139l-1.085,0.258c-9.427,2.247-18.891-3.575-21.138-13.002L1404.262,783.899z"/>

						<linearGradient id="SVGID_00000081648278295563484520000001759070069005115009_" gradientUnits="userSpaceOnUse" x1="5414.9297" y1="-2061.96" x2="5217.3608" y2="-1180.5028" gradientTransform="matrix(0.9727 -0.2318 0.2318 0.9727 -3353.8916 521.2909)">
						<stop  offset="0" style="stop-color:#09005D"/>
						<stop  offset="1" style="stop-color:#1A0F91"/>
					</linearGradient>
					<path style="fill:url(#SVGID_00000081648278295563484520000001759070069005115009_);" d="M1463.45,764.476
						c-2.246-9.427,3.575-18.891,13.002-21.138l1.085-0.259c9.428-2.247,18.892,3.575,21.138,13.003l2.657,11.15
						c2.247,9.428-3.574,18.892-13.002,21.139l-1.086,0.258c-9.427,2.247-18.891-3.575-21.138-13.002L1463.45,764.476z"/>

						<linearGradient id="SVGID_00000116232324941773370710000018390484286676370571_" gradientUnits="userSpaceOnUse" x1="5476.7593" y1="-2048.0974" x2="5279.1904" y2="-1166.6387" gradientTransform="matrix(0.9727 -0.2318 0.2318 0.9727 -3353.8916 521.2909)">
						<stop  offset="0" style="stop-color:#09005D"/>
						<stop  offset="1" style="stop-color:#1A0F91"/>
					</linearGradient>
					<path style="fill:url(#SVGID_00000116232324941773370710000018390484286676370571_);" d="M1526.471,738.821
						c-2.246-9.428,3.574-18.892,13.002-21.139l1.085-0.258c9.428-2.247,18.892,3.575,21.138,13.002l2.657,11.15
						c2.247,9.427-3.574,18.891-13.002,21.138l-1.085,0.259c-9.427,2.246-18.891-3.575-21.138-13.003L1526.471,738.821z"/>

						<linearGradient id="SVGID_00000034769269277810240700000010445705443594070150_" gradientUnits="userSpaceOnUse" x1="5537.4863" y1="-2034.4885" x2="5339.9175" y2="-1153.0308" gradientTransform="matrix(0.9727 -0.2318 0.2318 0.9727 -3353.8916 521.2909)">
						<stop  offset="0" style="stop-color:#09005D"/>
						<stop  offset="1" style="stop-color:#1A0F91"/>
					</linearGradient>
					<path style="fill:url(#SVGID_00000034769269277810240700000010445705443594070150_);" d="M1588.294,708.133
						c-2.247-9.428,3.574-18.892,13.002-21.138l1.086-0.259c9.427-2.247,18.891,3.575,21.138,13.002l2.657,11.15
						c2.247,9.427-3.575,18.891-13.002,21.138l-1.085,0.259c-9.428,2.247-18.892-3.575-21.139-13.003L1588.294,708.133z"/>

						<linearGradient id="SVGID_00000081610167064280306720000016354545131826181283_" gradientUnits="userSpaceOnUse" x1="5595.4937" y1="-2021.4806" x2="5397.9248" y2="-1140.0228" gradientTransform="matrix(0.9727 -0.2318 0.2318 0.9727 -3353.8916 521.2909)">
						<stop  offset="0" style="stop-color:#09005D"/>
						<stop  offset="1" style="stop-color:#1A0F91"/>
					</linearGradient>
					<path style="fill:url(#SVGID_00000081610167064280306720000016354545131826181283_);" d="M1647.482,688.71
						c-2.247-9.428,3.575-18.892,13.003-21.138l1.085-0.259c9.427-2.247,18.891,3.575,21.138,13.003l2.657,11.15
						c2.247,9.427-3.574,18.891-13.002,21.138l-1.085,0.259c-9.427,2.247-18.891-3.575-21.138-13.003L1647.482,688.71z"/>
				</g>

					<linearGradient id="SVGID_00000035492842728422142180000013684645360057102734_" gradientUnits="userSpaceOnUse" x1="5755.6606" y1="-1985.4362" x2="5558.0996" y2="-1104.0117" gradientTransform="matrix(0.9727 -0.2318 0.2318 0.9727 -3353.8916 521.2909)">
					<stop  offset="0" style="stop-color:#09005D"/>
					<stop  offset="1" style="stop-color:#1A0F91"/>
				</linearGradient>
				<path style="fill:url(#SVGID_00000035492842728422142180000013684645360057102734_);" d="M1854.65,566.36l-107.187,59.229
					c-8.048,4.457-11.79,14.026-8.872,22.75c3.469,10.37,7.922,21.962,10.044,20.386c3.753-2.787,172.804-91.375,172.804-91.375
					L1854.65,566.36z"/>
			</g>
		</g>
		<g>
			<g>
				<g>

						<linearGradient id="SVGID_00000017514238912686306690000014965218901106092433_" gradientUnits="userSpaceOnUse" x1="1546.1729" y1="2074.8447" x2="1810.8995" y2="3373.2686">
						<stop  offset="0" style="stop-color:#09005D"/>
						<stop  offset="1" style="stop-color:#1A0F91"/>
					</linearGradient>
					<path style="fill:url(#SVGID_00000017514238912686306690000014965218901106092433_);" d="M1454.702,2143.172
						c-4.839,0.968,37.011,713.066,69.086,873.445l66.619-4.935l14.804-720.469h24.673l37.01,708.132h54.282l51.814-863.575
						C1772.991,2135.77,1565.733,2120.966,1454.702,2143.172z"/>

						<linearGradient id="SVGID_00000164483350481616999640000009990641182780288702_" gradientUnits="userSpaceOnUse" x1="1562.2686" y1="2393.8354" x2="1565.6458" y2="2802.4866">
						<stop  offset="0" style="stop-color:#09005D"/>
						<stop  offset="1" style="stop-color:#1A0F91"/>
					</linearGradient>
					<path style="fill:url(#SVGID_00000164483350481616999640000009990641182780288702_);" d="M1523.788,3063.497
						c0,0,54.282,7.402,86.357,0c0,0,9.869-27.141-19.739-51.814c-29.609-24.674-66.619,4.935-66.619,4.935V3063.497z"/>

						<linearGradient id="SVGID_00000165942611012882003280000011335915374319284359_" gradientUnits="userSpaceOnUse" x1="1746.0823" y1="2392.3171" x2="1749.4595" y2="2800.9673">
						<stop  offset="0" style="stop-color:#09005D"/>
						<stop  offset="1" style="stop-color:#1A0F91"/>
					</linearGradient>
					<path style="fill:url(#SVGID_00000165942611012882003280000011335915374319284359_);" d="M1666.895,2999.345
						c0,0-2.467,39.478,0,59.217c0,0,103.631,3.455,160.604,3.138c10.464-0.058,13.4-14.314,3.829-18.546
						c-18.324-8.101-51.193-35.074-110.152-43.808H1666.895z"/>
				</g>
				<g>

						<linearGradient id="SVGID_00000118382306956095872970000005756664881073025923_" gradientUnits="userSpaceOnUse" x1="2700.6445" y1="633.984" x2="1500.0834" y2="2016.9082">
						<stop  offset="0" style="stop-color:#FF928E"/>
						<stop  offset="1" style="stop-color:#FE7062"/>
					</linearGradient>
					<path style="fill:url(#SVGID_00000118382306956095872970000005756664881073025923_);" d="M1476.908,1568.278
						c0,0,143.106-46.88,256.605-4.934l56.749,594.633c0,0-254.138-7.403-340.496,12.336L1476.908,1568.278z"/>

						<linearGradient id="SVGID_00000038403632527067625780000002207451065424226181_" gradientUnits="userSpaceOnUse" x1="1586.2212" y1="1509.2267" x2="1194.2522" y2="2416.7729">
						<stop  offset="0" style="stop-color:#09005D"/>
						<stop  offset="1" style="stop-color:#1A0F91"/>
					</linearGradient>
					<path style="fill:url(#SVGID_00000038403632527067625780000002207451065424226181_);" d="M1351.073,1617.625
						c0,0,83.89-46.879,162.846-59.217l-23.669,603.563c-0.589,15.026-11.395,27.691-26.14,30.64l-8.408,1.682
						c-8.086,1.618-15.575-4.706-15.338-12.949l7.385-254.772c1.331-45.893-7.029-91.552-24.532-133.997L1351.073,1617.625z"/>

						<linearGradient id="SVGID_00000034065411395408245810000003223715988296685218_" gradientUnits="userSpaceOnUse" x1="1388.5697" y1="1439.5701" x2="2055.3513" y2="2150.1296">
						<stop  offset="0" style="stop-color:#09005D"/>
						<stop  offset="1" style="stop-color:#1A0F91"/>
					</linearGradient>
					<path style="fill:url(#SVGID_00000034065411395408245810000003223715988296685218_);" d="M1694.036,1553.474
						c0,0,123.368,9.87,194.921,74.02l-55.615,157.033c-18.713,52.835-28.275,108.475-28.275,164.526l-11.708,226.367
						c-0.353,6.817-5.984,12.165-12.81,12.165l0,0c-16.851,0-30.915-12.863-32.418-29.646L1694.036,1553.474z"/>
				</g>
				<g>

						<linearGradient id="SVGID_00000160898579619564499260000010139734758986757264_" gradientUnits="userSpaceOnUse" x1="1594.0103" y1="1658.791" x2="1610.683" y2="1516.1475">
						<stop  offset="0" style="stop-color:#FEBBBA"/>
						<stop  offset="1" style="stop-color:#FF928E"/>
					</linearGradient>
					<path style="fill:url(#SVGID_00000160898579619564499260000010139734758986757264_);" d="M1555.864,1479.453l-2.13,70.292
						c-0.211,6.951,4.1,13.214,10.659,15.527c17.972,6.34,55.179,15.978,90.439,3.353c7.113-2.547,11.394-9.828,10.295-17.304
						l-10.568-71.869H1555.864z"/>
					<g>

							<linearGradient id="SVGID_00000160913112006197968730000005275011542806269332_" gradientUnits="userSpaceOnUse" x1="1615.8885" y1="1499.1256" x2="1609.5112" y2="1315.3448">
							<stop  offset="0" style="stop-color:#FEBBBA"/>
							<stop  offset="1" style="stop-color:#FF928E"/>
						</linearGradient>
						<path style="fill:url(#SVGID_00000160913112006197968730000005275011542806269332_);" d="M1526.255,1351.151
							c0,0,12.337,125.836,39.478,157.911c0,0,81.423,7.403,111.031-9.869c0,0,20.973-62.918,18.505-146.808
							c0,0,4.043-76.339-80.188-82.656C1516.386,1262.326,1526.255,1351.151,1526.255,1351.151z"/>
						<g>

								<linearGradient id="SVGID_00000134214115099685754990000006410226005400493751_" gradientUnits="userSpaceOnUse" x1="1702.0248" y1="1496.1381" x2="1695.6475" y2="1312.3551">
								<stop  offset="0" style="stop-color:#FEBBBA"/>
								<stop  offset="1" style="stop-color:#FF928E"/>
							</linearGradient>
							<path style="fill:url(#SVGID_00000134214115099685754990000006410226005400493751_);" d="M1686.634,1390.628
								c0,0,7.402-22.206,19.738-22.206c12.337,0-2.467,59.217-19.738,59.217V1390.628z"/>

								<linearGradient id="SVGID_00000143599963448545290830000017048287832544562614_" gradientUnits="userSpaceOnUse" x1="1530.2101" y1="1502.0992" x2="1523.8328" y2="1318.3186">
								<stop  offset="0" style="stop-color:#FEBBBA"/>
								<stop  offset="1" style="stop-color:#FF928E"/>
							</linearGradient>
							<path style="fill:url(#SVGID_00000143599963448545290830000017048287832544562614_);" d="M1537.483,1396.46
								c0,0-10.329-21.005-22.553-19.341c-12.224,1.663,10.431,58.343,27.544,56.014L1537.483,1396.46z"/>
						</g>
						<path style="fill:#FFFFFF;" d="M1534.773,1417.541c0,0,2.766,75.165,35.826,113.287c3.034,3.499,7.421,5.534,12.047,5.756
							c16.875,0.812,60.012,2.262,84.335-2.584c6.054-1.206,11.038-5.474,13.03-11.317c5.98-17.531,16.361-45.177,12.79-108.614
							l-19.843,47.283c-14.7,39.074-22.678-8.357-29.504-7.806h-44.412c-4.681,0.378-9.87,29.608-27.213,21.045L1534.773,1417.541z"
							/>
						<path style="fill:#FFFFFF;" d="M1661.96,1321.543c0,0-62.863,64.654-131.359,64.403c0,0-38.889-103.88,37.6-121.152
							c76.488-17.271,78.955,4.934,78.955,4.934s89.442-21.967,49.655,104.983L1661.96,1321.543z"/>
					</g>
				</g>
				<g>
					<g>
						<g>

								<linearGradient id="SVGID_00000116232184260262467330000005929973774418000309_" gradientUnits="userSpaceOnUse" x1="1197.8097" y1="2414.1177" x2="1225.8542" y2="2414.1177">
								<stop  offset="0" style="stop-color:#09005D"/>
								<stop  offset="1" style="stop-color:#1A0F91"/>
							</linearGradient>

								<rect x="1197.81" y="2333.49" style="fill:url(#SVGID_00000116232184260262467330000005929973774418000309_);" width="28.045" height="161.256"/>

								<linearGradient id="SVGID_00000158712113413051937710000006624311178892415110_" gradientUnits="userSpaceOnUse" x1="1338.0323" y1="2414.1177" x2="1366.0768" y2="2414.1177">
								<stop  offset="0" style="stop-color:#09005D"/>
								<stop  offset="1" style="stop-color:#1A0F91"/>
							</linearGradient>

								<rect x="1338.032" y="2333.49" style="fill:url(#SVGID_00000158712113413051937710000006624311178892415110_);" width="28.045" height="161.256"/>

								<linearGradient id="SVGID_00000052806150912872374190000008732468949876634285_" gradientUnits="userSpaceOnUse" x1="1171.7128" y1="2336.6606" x2="1386.7207" y2="2336.6606">
								<stop  offset="0" style="stop-color:#09005D"/>
								<stop  offset="1" style="stop-color:#1A0F91"/>
							</linearGradient>
							<path style="fill:url(#SVGID_00000052806150912872374190000008732468949876634285_);" d="M1378.782,2347.512
								c-66.377,10.387-132.754,10.387-199.131,0c-10.929-9.5-10.235-19.351,0-29.492c69.666,6.232,135.887,5.938,199.131,0
								C1389.017,2328.161,1389.711,2338.012,1378.782,2347.512z"/>
						</g>
						<g>

								<linearGradient id="SVGID_00000154387024271838687890000003723871304219396791_" gradientUnits="userSpaceOnUse" x1="1189.1078" y1="3211.9734" x2="1222.871" y2="3211.9734">
								<stop  offset="0" style="stop-color:#09005D"/>
								<stop  offset="1" style="stop-color:#1A0F91"/>
							</linearGradient>

								<ellipse style="fill:url(#SVGID_00000154387024271838687890000003723871304219396791_);" cx="1205.989" cy="3211.973" rx="16.882" ry="39.521"/>

								<linearGradient id="SVGID_00000158742796807221996770000014922503081233350812_" gradientUnits="userSpaceOnUse" x1="1357.3749" y1="3215.479" x2="1391.1381" y2="3215.479">
								<stop  offset="0" style="stop-color:#09005D"/>
								<stop  offset="1" style="stop-color:#1A0F91"/>
							</linearGradient>

								<ellipse style="fill:url(#SVGID_00000158742796807221996770000014922503081233350812_);" cx="1374.256" cy="3215.479" rx="16.882" ry="39.521"/>
						</g>

							<linearGradient id="SVGID_00000098912150834461134240000017336772831341231489_" gradientUnits="userSpaceOnUse" x1="1902.5245" y1="1664.325" x2="1071.7544" y2="3204.2888">
							<stop  offset="0" style="stop-color:#FF928E"/>
							<stop  offset="1" style="stop-color:#FE7062"/>
						</linearGradient>
						<path style="fill:url(#SVGID_00000098912150834461134240000017336772831341231489_);" d="M1444.472,3194.226
							c-84.709,30.509-189.448,26.941-309.591-2.837c-17.618-4.367-30.565-19.388-32.391-37.448l-58.385-577.382
							c-3.679-36.382,21.8-69.238,57.942-74.803c120.688-18.583,244.691-18.964,372.297,0.445
							c35.696,5.429,60.799,38.013,57.166,73.937l-58.844,581.915C1471,3174.527,1460.05,3188.615,1444.472,3194.226z"/>

							<linearGradient id="SVGID_00000035494069593309577740000010129321993425482129_" gradientUnits="userSpaceOnUse" x1="2403.8911" y1="1197.8424" x2="1203.3296" y2="2945.4937">
							<stop  offset="0" style="stop-color:#FEBBBA"/>
							<stop  offset="1" style="stop-color:#FF928E"/>
						</linearGradient>
						<path style="fill:url(#SVGID_00000035494069593309577740000010129321993425482129_);" d="M1421.218,3145.629
							c-72.136,25.981-161.328,22.942-263.639-2.416c-15.003-3.719-26.028-16.511-27.583-31.889l-49.719-491.683
							c-3.133-30.981,18.565-58.961,49.342-63.7c102.775-15.825,208.372-16.15,317.038,0.379
							c30.398,4.624,51.775,32.371,48.681,62.962l-50.11,495.543C1443.809,3128.853,1434.484,3140.851,1421.218,3145.629z"/>
					</g>
					<g style="opacity:0.58;">
						<path style="fill:#FDFDFF;" d="M1456.681,3136.887c-0.053,0-0.105-0.002-0.162-0.007c-0.927-0.087-1.609-0.91-1.524-1.839
							c8.466-90.408,19.838-180.861,29.874-260.667c13.578-108.004,25.307-201.28,28.008-273.708
							c1.517-40.646-29.004-76.231-69.478-81.01c-69.505-8.209-136.034-6.514-194.728-5.018
							c-14.235,0.361-28.133,0.716-41.668,0.925c-0.901-0.02-1.702-0.729-1.715-1.662c-0.013-0.934,0.729-1.7,1.662-1.715
							c13.526-0.209,27.414-0.562,41.635-0.925c58.806-1.494,125.464-3.191,195.209,5.041c42.213,4.985,74.04,42.097,72.46,84.49
							c-2.708,72.578-14.446,165.922-28.034,274.005c-10.033,79.78-21.401,170.205-29.861,260.558
							C1458.277,3136.231,1457.542,3136.887,1456.681,3136.887z"/>
						<path style="fill:#FDFDFF;" d="M1278.619,2335.138c-33.146,0-66.292-2.916-99.204-8.745c-0.92-0.162-1.53-1.039-1.369-1.958
							c0.165-0.918,1.045-1.527,1.956-1.367c65.438,11.59,131.793,11.59,197.238,0c0.897-0.162,1.794,0.448,1.956,1.367
							c0.162,0.919-0.448,1.796-1.369,1.958C1344.914,2332.223,1311.768,2335.138,1278.619,2335.138z"/>
					</g>
				</g>
				<g>
					<g>
						<g>

								<linearGradient id="SVGID_00000054250588148924564960000011129298573367637655_" gradientUnits="userSpaceOnUse" x1="1861.0332" y1="1958.1061" x2="1745.1962" y2="1951.3582">
								<stop  offset="0" style="stop-color:#4F52FF"/>
								<stop  offset="1" style="stop-color:#4042E2"/>
							</linearGradient>
							<path style="fill:url(#SVGID_00000054250588148924564960000011129298573367637655_);" d="M1535.402,2009.869l169.181,13.416
								c2.474,0.196,4.694-1.512,5.139-3.953l22.61-124.144c0.202-1.11-0.12-2.252-0.874-3.092l-14.974-16.704L1535.402,2009.869z"
								/>

								<linearGradient id="SVGID_00000118396539447342947880000000484336397178736572_" gradientUnits="userSpaceOnUse" x1="1705.9192" y1="1862.0198" x2="1525.2351" y2="1997.6733">
								<stop  offset="0" style="stop-color:#4F52FF"/>
								<stop  offset="1" style="stop-color:#4042E2"/>
							</linearGradient>
							<path style="fill:url(#SVGID_00000118396539447342947880000000484336397178736572_);" d="M1510.308,1875.391h206.176
								l-24.909,129.49c-0.557,2.895-3.09,4.988-6.039,4.988h-150.134l-27.427-131.609
								C1507.667,1876.781,1508.797,1875.391,1510.308,1875.391z"/>
							<g>

									<linearGradient id="SVGID_00000183936239886131677620000017791807076865100442_" gradientUnits="userSpaceOnUse" x1="1554.0964" y1="1858.3938" x2="1622.0023" y2="1959.7137">
									<stop  offset="0" style="stop-color:#09005D"/>
									<stop  offset="1" style="stop-color:#1A0F91"/>
								</linearGradient>

									<circle style="fill:url(#SVGID_00000183936239886131677620000017791807076865100442_);" cx="1621.093" cy="1958.356" r="29.641"/>
								<path style="fill:#91B3FA;" d="M1621.092,1989.686c-17.276,0-31.329-14.055-31.329-31.331
									c0-17.276,14.053-31.329,31.329-31.329c17.276,0,31.329,14.053,31.329,31.329
									C1652.421,1975.631,1638.368,1989.686,1621.092,1989.686z M1621.092,1930.404c-15.412,0-27.952,12.54-27.952,27.952
									c0,15.414,12.539,27.953,27.952,27.953c15.412,0,27.952-12.539,27.952-27.953
									C1649.044,1942.944,1636.504,1930.404,1621.092,1930.404z"/>
							</g>
							<g>

									<linearGradient id="SVGID_00000022544109553183160700000017551507566484606130_" gradientUnits="userSpaceOnUse" x1="1512.598" y1="1858.6892" x2="1543.3593" y2="1904.5868">
									<stop  offset="0" style="stop-color:#09005D"/>
									<stop  offset="1" style="stop-color:#1A0F91"/>
								</linearGradient>

									<rect x="1530.013" y="1896.475" style="fill:url(#SVGID_00000022544109553183160700000017551507566484606130_);" width="25.869" height="14.994"/>
								<path style="fill:#91B3FA;" d="M1555.882,1913.158h-25.87c-0.933,0-1.689-0.755-1.689-1.689v-14.995
									c0-0.933,0.755-1.689,1.689-1.689h25.87c0.933,0,1.689,0.755,1.689,1.689v14.995
									C1557.57,1912.403,1556.815,1913.158,1555.882,1913.158z M1531.7,1909.781h22.493v-11.618H1531.7V1909.781z"/>
							</g>
							<g>

									<linearGradient id="SVGID_00000076588632054782141920000015367874652589906088_" gradientUnits="userSpaceOnUse" x1="1564.3894" y1="1804.5992" x2="1627.3251" y2="1898.5032">
									<stop  offset="0" style="stop-color:#09005D"/>
									<stop  offset="1" style="stop-color:#1A0F91"/>
								</linearGradient>

									<rect x="1582.828" y="1893.428" style="fill:url(#SVGID_00000076588632054782141920000015367874652589906088_);" width="87.307" height="7.635"/>
								<path style="fill:#91B3FA;" d="M1670.135,1902.751h-87.308c-0.933,0-1.689-0.755-1.689-1.689v-7.635
									c0-0.933,0.755-1.689,1.689-1.689h87.308c0.933,0,1.689,0.755,1.689,1.689v7.635
									C1671.824,1901.996,1671.069,1902.751,1670.135,1902.751z M1584.516,1899.374h83.931v-4.258h-83.931V1899.374z"/>
							</g>
						</g>

							<linearGradient id="SVGID_00000144336859212880384110000008412905126145542804_" gradientUnits="userSpaceOnUse" x1="1605.951" y1="1679.4373" x2="1368.3152" y2="1798.2555">
							<stop  offset="0" style="stop-color:#4F52FF"/>
							<stop  offset="1" style="stop-color:#4042E2"/>
						</linearGradient>
						<polygon style="fill:url(#SVGID_00000144336859212880384110000008412905126145542804_);" points="1507.377,1875.391
							1553.733,1549.746 1520.716,1877.856 						"/>

							<linearGradient id="SVGID_00000123438732392033444840000011797532368894870450_" gradientUnits="userSpaceOnUse" x1="1735.2294" y1="1701.2943" x2="1607.321" y2="1765.2487">
							<stop  offset="0" style="stop-color:#4F52FF"/>
							<stop  offset="1" style="stop-color:#4042E2"/>
						</linearGradient>
						<polygon style="fill:url(#SVGID_00000123438732392033444840000011797532368894870450_);" points="1664.329,1545.9
							1732.652,1893.428 1716.484,1875.391 						"/>
					</g>
					<g>

							<linearGradient id="SVGID_00000116196163283586181190000014169135988969117088_" gradientUnits="userSpaceOnUse" x1="1396.6932" y1="1431.9479" x2="2063.4771" y2="2142.5098">
							<stop  offset="0" style="stop-color:#09005D"/>
							<stop  offset="1" style="stop-color:#1A0F91"/>
						</linearGradient>
						<path style="fill:url(#SVGID_00000116196163283586181190000014169135988969117088_);" d="M1669.362,2009.935
							c0,0,140.64,78.956,175.183-22.206c34.542-101.161-29.609-165.313-29.609-165.313l74.021-194.922
							c0,0,140.64,259.073,41.945,416.984c-92.468,147.949-256.604,12.337-256.604,12.337L1669.362,2009.935z"/>

							<linearGradient id="SVGID_00000005962855470499793540000003679797882425224357_" gradientUnits="userSpaceOnUse" x1="1671.7654" y1="1998.1423" x2="1548.7961" y2="2059.6272">
							<stop  offset="0" style="stop-color:#FEBBBA"/>
							<stop  offset="1" style="stop-color:#FF928E"/>
						</linearGradient>
						<path style="fill:url(#SVGID_00000005962855470499793540000003679797882425224357_);" d="M1684.166,2009.935
							c0,0-64.151-39.478-103.629-14.803c0,0-7.402,29.608,14.805,41.945c0,0,39.478,27.141,71.553,12.336
							C1698.97,2034.609,1684.166,2009.935,1684.166,2009.935z"/>
					</g>
					<g>

							<linearGradient id="SVGID_00000103256881669376492060000014385662480292466350_" gradientUnits="userSpaceOnUse" x1="1520.4082" y1="1480.8021" x2="1128.4396" y2="2388.3477">
							<stop  offset="0" style="stop-color:#09005D"/>
							<stop  offset="1" style="stop-color:#1A0F91"/>
						</linearGradient>
						<path style="fill:url(#SVGID_00000103256881669376492060000014385662480292466350_);" d="M1277.034,2129.428
							c-1.172-109.726-0.633-251.732,8.411-311.788c15.714-104.338,65.627-200.015,65.627-200.015
							c156.852,15.459,38.099,346.966,38.099,346.966l-41.231,173.495C1331.833,2131.69,1307.936,2126.098,1277.034,2129.428z"/>

							<linearGradient id="SVGID_00000009568984794414867030000003730865611358809759_" gradientUnits="userSpaceOnUse" x1="3679.8818" y1="1706.0928" x2="3531.8909" y2="3155.1624" gradientTransform="matrix(-0.9989 0.0479 0.0479 0.9989 4824.5161 -130.3353)">
							<stop  offset="0" style="stop-color:#FEBBBA"/>
							<stop  offset="1" style="stop-color:#FF928E"/>
						</linearGradient>
						<path style="fill:url(#SVGID_00000009568984794414867030000003730865611358809759_);" d="M1277.034,2129.428
							c30.902-3.33,54.799,2.262,70.906,8.658l-33.47,140.84c0,0,10.524,75.458,4.73,84.111c-5.793,8.651-55.554,8.1-56.214-5.68
							c-0.661-13.78,16.705-83.669,16.705-83.669S1277.897,2210.329,1277.034,2129.428z"/>
					</g>
				</g>
			</g>
			<g>
				<g>
					<g>
						<g>

								<linearGradient id="SVGID_00000163757986508003782510000000293571701950938512_" gradientUnits="userSpaceOnUse" x1="28.4211" y1="4185.3921" x2="-106.6708" y2="3219.4912" gradientTransform="matrix(-1 0 0 1 1957.3085 0)">
								<stop  offset="0" style="stop-color:#09005D"/>
								<stop  offset="1" style="stop-color:#1A0F91"/>
							</linearGradient>

								<path style="fill-rule:evenodd;clip-rule:evenodd;fill:url(#SVGID_00000163757986508003782510000000293571701950938512_);" d="
								M2111.538,3002.784l4.445,10.911l-1.802,39.285c-0.253,5.521-4.707,10.155-10.712,11.081
								c-8.196,1.264-20.114,2.543-31.328,1.676c-8.78-0.678-14.28-8.925-10.844-16.287l13.225-28.336
								c1.978-4.238,5.592-7.493,10.014-9.018L2111.538,3002.784z"/>

								<linearGradient id="SVGID_00000155855897856049821410000000850645525269876137_" gradientUnits="userSpaceOnUse" x1="2233.2095" y1="2991.7427" x2="1934.8826" y2="2615.7378">
								<stop  offset="0" style="stop-color:#FEBBBA"/>
								<stop  offset="1" style="stop-color:#FF928E"/>
							</linearGradient>

								<path style="fill-rule:evenodd;clip-rule:evenodd;fill:url(#SVGID_00000155855897856049821410000000850645525269876137_);" d="
								M2125.376,2646.571c0,0,0,284.868-13.408,365.108c-0.688,4.118-3.827,7.428-7.943,8.126c-3.76,0.638-8.896,0.493-15.03-2.226
								c-3.087-1.368-5.137-4.388-5.551-7.739l-37.886-358.281L2125.376,2646.571z"/>

								<linearGradient id="SVGID_00000183928430467327756600000017258951912603851435_" gradientUnits="userSpaceOnUse" x1="2384.6277" y1="2908.2939" x2="2249.5366" y2="2991.6001">
								<stop  offset="0" style="stop-color:#09005D"/>
								<stop  offset="1" style="stop-color:#1A0F91"/>
							</linearGradient>

								<path style="fill-rule:evenodd;clip-rule:evenodd;fill:url(#SVGID_00000183928430467327756600000017258951912603851435_);" d="
								M2159.17,3002.784l-4.445,10.911l-3.187,39.285c0.253,5.521,4.707,10.155,10.712,11.081
								c8.195,1.264,25.102,2.543,36.317,1.676c8.779-0.678,14.28-8.925,10.844-16.287l-13.225-28.336
								c-1.978-4.238-5.593-7.493-10.015-9.018L2159.17,3002.784z"/>

								<linearGradient id="SVGID_00000044171812129263556040000002148276551503559299_" gradientUnits="userSpaceOnUse" x1="2090.9316" y1="2899.1116" x2="2388.1331" y2="2626.6772">
								<stop  offset="0" style="stop-color:#FEBBBA"/>
								<stop  offset="1" style="stop-color:#FF928E"/>
							</linearGradient>

								<path style="fill-rule:evenodd;clip-rule:evenodd;fill:url(#SVGID_00000044171812129263556040000002148276551503559299_);" d="
								M2145.331,2646.571c0,0,0.001,288.627,13.734,367.013c0.451,2.573,2.258,4.733,4.748,5.527
								c3.993,1.273,10.709,2.043,19.211-2.145c2.21-1.088,3.756-3.226,4.059-5.671l38.066-359.735L2145.331,2646.571z"/>
						</g>

							<linearGradient id="SVGID_00000037669237431820518940000011319948178039974800_" gradientUnits="userSpaceOnUse" x1="2341.7063" y1="2049.2898" x2="1536.2677" y2="3290.3767">
							<stop  offset="0" style="stop-color:#09005D"/>
							<stop  offset="1" style="stop-color:#1A0F91"/>
						</linearGradient>
						<path style="fill:url(#SVGID_00000037669237431820518940000011319948178039974800_);" d="M2010.752,2082.779
							c-39.478,91.293-35.998,348.732,19.739,606.97c0,0,138.172,12.337,204.791,0c0,0,91.292-532.949-4.935-606.97H2010.752z"/>
					</g>
					<g>
						<g>

								<linearGradient id="SVGID_00000140011284012536671070000015854093510948447653_" gradientUnits="userSpaceOnUse" x1="2448.8293" y1="1244.6534" x2="2256.3342" y2="1609.3813">
								<stop  offset="0" style="stop-color:#FF928E"/>
								<stop  offset="1" style="stop-color:#FE7062"/>
							</linearGradient>
							<path style="fill:url(#SVGID_00000140011284012536671070000015854093510948447653_);" d="M2296.966,1739.817
								c0,0-51.815-86.358-160.378-111.031l-56.749-2.467c0,0-81.424,39.478-115.966,113.499l44.412,189.986l2.467,152.976
								c0,0,130.77,29.608,219.595,0l19.739-187.519L2296.966,1739.817z"/>

								<linearGradient id="SVGID_00000132062348896281577270000007189767231724295822_" gradientUnits="userSpaceOnUse" x1="2387.1807" y1="1205.4728" x2="2371.4202" y2="1471.152">
								<stop  offset="0" style="stop-color:#FF928E"/>
								<stop  offset="1" style="stop-color:#FE7062"/>
							</linearGradient>
							<path style="fill:url(#SVGID_00000132062348896281577270000007189767231724295822_);" d="M2296.966,1739.817
								c28.267,86.919,54.227,171.499,53.875,229.411l55.163-161.631l36.106-15.48l-85.429,303.822
								c-45.021-64.818-77.98-142.192-96.303-234.81C2256.915,1815.794,2268.658,1775.215,2296.966,1739.817z"/>

								<linearGradient id="SVGID_00000137832703015920847230000002819682956883557009_" gradientUnits="userSpaceOnUse" x1="1894.2805" y1="1176.2344" x2="1878.52" y2="1441.9133">
								<stop  offset="0" style="stop-color:#FF928E"/>
								<stop  offset="1" style="stop-color:#FE7062"/>
							</linearGradient>
							<path style="fill:url(#SVGID_00000137832703015920847230000002819682956883557009_);" d="M1963.872,1739.817
								l-258.524,292.322l33.702-0.435l252.845-172.01C1992.115,1815.799,1985.203,1774.84,1963.872,1739.817z"/>
						</g>
						<g>

								<linearGradient id="SVGID_00000139990123225302956910000016097204032363248546_" gradientUnits="userSpaceOnUse" x1="2044.4177" y1="1796.5182" x2="2130.3799" y2="1548.4559">
								<stop  offset="0" style="stop-color:#FEBBBA"/>
								<stop  offset="1" style="stop-color:#FF928E"/>
							</linearGradient>
							<path style="fill:url(#SVGID_00000139990123225302956910000016097204032363248546_);" d="M2074.903,1557.233v93.503
								c0,7.563,5.508,14.001,12.988,15.126c12.39,1.864,31.55,3.308,47.998-1.638c7.577-2.279,12.248-9.863,10.732-17.629
								l-17.436-89.363H2074.903z"/>
							<g>

									<linearGradient id="SVGID_00000002357655364449681240000008095900882484975269_" gradientUnits="userSpaceOnUse" x1="2012.5569" y1="1591.0245" x2="2186.0408" y2="1366.7875">
									<stop  offset="0" style="stop-color:#FEBBBA"/>
									<stop  offset="1" style="stop-color:#FF928E"/>
								</linearGradient>
								<path style="fill:url(#SVGID_00000002357655364449681240000008095900882484975269_);" d="M2040.361,1420.294
									c0,0-59.217,157.911,16.038,177.086c88.568,22.568,118.433-94.429,118.433-94.429S2097.109,1279.654,2040.361,1420.294z"/>
								<g>
									<path style="fill:#FFFFFF;" d="M2198.575,1429.125c0,0-31.982-61.617-6.239-87.013
										c25.744-25.396,73.725-14.2,80.535,36.417C2279.681,1429.145,2214.186,1484.199,2198.575,1429.125z"/>
									<path style="fill:#FFFFFF;" d="M2016.362,1407.215c-3.568,12.974,8.086,25.024,21.199,22.008
										c13.201-3.036,29.445-5.776,43.511-5.228c94.993,3.701,57.983,65.385,57.983,75.254c0,20.185,19.838-10.507,20.972-3.701
										c2.468,14.805-9.081,59.72-9.081,59.72s60.896-12.84,80.635-42.449c19.739-29.608-2.467-96.227-9.869-120.9
										c-7.402-24.674-56.749-49.348-83.89-46.88C2113.556,1347.245,2036.044,1335.647,2016.362,1407.215z"/>
								</g>

									<linearGradient id="SVGID_00000122717000455597338340000008546600897389858185_" gradientUnits="userSpaceOnUse" x1="2063.6018" y1="1632.5065" x2="2237.5095" y2="1407.7218">
									<stop  offset="0" style="stop-color:#FEBBBA"/>
									<stop  offset="1" style="stop-color:#FF928E"/>
								</linearGradient>
								<path style="fill:url(#SVGID_00000122717000455597338340000008546600897389858185_);" d="M2147.69,1512.82
									c0,0,7.402-37.01,27.141-29.608c19.739,7.402-14.804,49.347-27.141,56.749V1512.82z"/>
							</g>
						</g>
					</g>
				</g>
				<g>
					<g>
						<polygon style="fill:#FFFFFF;" points="2517.145,2366.644 2332.19,2273.187 2134.871,2347.475 1914.58,2282.359
							1727.279,2359.3 1712.526,1830.496 1899.143,1715.439 2122.061,1829.586 2332.19,1684.57 2536.169,1826.287 						"/>
						<g>
							<polygon style="fill:#BDD0FB;" points="1896.835,1727.893 2117.375,1842.197 2329.416,1700.589 2528.121,1825.835
								2508.391,2354.723 2332.19,2255.921 2136.565,2336.628 1914.58,2268.512 1736.259,2347.475 1727.279,1829.934 							"/>
							<polygon style="fill:#91B3FA;" points="2117.375,1842.197 2136.565,2336.628 2332.19,2255.921 2329.416,1700.589 							"/>
							<g>
								<path style="fill:#7D97F4;" d="M2182.364,2105.601c-1.02,7.714-1.851,15.453-2.491,23.208
									c-0.153,1.85,0.22,4.365,2.068,4.546c1.113,0.109,2.038-0.793,2.788-1.622c3.184-3.521,6.604-8.062,5.063-12.551
									c-0.573-1.671-1.793-3.076-2.263-4.779c-0.706-2.561,0.401-5.287,0.116-7.928s-3.567-5.239-5.405-3.321L2182.364,2105.601z"
									/>
								<path style="fill:#7D97F4;" d="M1977.82,1985.07c0.331-2.328,0.048-4.683-1.045-6.826c-1.845-3.621-5.619-5.951-9.547-6.994
									c-3.928-1.043-8.055-0.967-12.118-0.884c-3.771,0.077-7.543,0.154-11.314,0.232c-1.115,0.023-2.263,0.053-3.285,0.498
									c-1.445,0.63-2.423,1.993-3.206,3.36c-2.523,4.406-3.767,9.535-3.543,14.607c-4.971,1.69-9.798-2.892-12.51-7.387
									c-3.13-5.19-5.38-10.908-6.625-16.839c-0.481-2.292-0.776-4.828,0.409-6.847c0.654-1.114,1.693-1.943,2.74-2.697
									c4.223-3.041,9.094-5.339,14.269-5.886c8.837-0.934,17.426,3.281,24.671,8.447c6.958,4.961,18.305,10.898,26.112,3.768
									c4.03-3.681,4.102-10.381,1.295-15.062c-4.561-7.602-16.191-11.58-23.769-15.419c-3.547-1.797-5.825-5.496-6.832-9.342
									c-1.007-3.847-0.912-7.884-0.809-11.859c10.488-4.143,22.813-3.333,32.669,2.147c1.399,0.778,2.891,1.86,3.056,3.452
									c0.17,1.636-1.123,3.001-2.144,4.292c-14.725,18.624,15.935,31.428,29.095,35.924c5.362,1.832,10.48,4.845,16.21,3.718
									c5.319-1.046,10.104-6.851,15.616-8.33c3.993-1.071,8.257-0.509,12.309-1.323c4.053-0.814,8.278-3.851,8.11-7.981
									c-0.137-3.363-3.093-5.893-6.034-7.53c0,0.321-5.096-3.71-5.579-4.583c-4.447-8.615,2.019-16.203,4.493-23.64
									c3.582-10.768-1.723-17.099,9.295-23.062c2.344-1.268,4.187-4.419,2.565-6.534c-1.461-1.905-4.362-1.424-6.762-1.409
									c-7.666,0.048-13.756-6.413-21.125-8.527c-3.861-1.107-7.949-0.982-11.966-1.041c-19.045-0.28-38.011-4.992-54.973-13.658
									c-12.521-6.398-20.396-7.263-33.877-5.845c-12.716,1.338-21.308,7.513-30.038,16.313c-1.986,2.002-3.915,4.192-6.49,5.341
									c-10.789,4.815-24.472,3.844-35.49,8.597c-13.114,5.657-16.814,23.252-28.792,31.031
									c-6.933,4.503-15.671,5.073-23.284,8.295c-11.27,4.771-16.468,14.68-22.869,24.323c-3.936,5.93-18.432,16.092-17.61,23.027
									c0.15,1.263,0.697,2.45,1.384,3.52c3.992,6.219,9.953,6.874,16.243,8.651c8.31,2.347,13.323,5.952,20.676,10.979
									c7.668,5.243,18.1,9.828,18.764,19.093c0.308,4.299-1.768,8.362-2.783,12.551c-4.579,18.894,12.414,35.865,28.953,46.083
									s36.054,20.312,41.314,39.027c0.48,1.706,0.883,3.557,2.167,4.778c4.829,4.592,8.444-5.795,9.907-9.097
									c0.942-2.126,0.089-4.678-1.383-6.479c-1.472-1.8-3.48-3.063-5.29-4.522c-6.109-4.924-10.071-12.423-10.697-20.244
									c-0.08-0.994-0.087-2.07,0.476-2.894c2.867-4.195,10.013-5.917,13.518-11c5.015-7.272,6.16-14.172,7.013-22.802
									c3.136-31.707,32.999-20.483,51.745-34.543C1974.597,1993.422,1977.22,1989.291,1977.82,1985.07z"/>
								<path style="fill:#7D97F4;" d="M1923.472,2149.168c1.919,3.906,3.493,7.595,3.911,10.735
									c1.818,13.659-9.943,30.466-14.943,42.936c-1.391,3.468-2.808,7.158-2.182,10.842c0.264,1.552,0.882,3.017,1.497,4.466
									c4.541,10.694,13.462,20.373,21.388,28.62c2.71-7.07,2.51-24.049,1.766-31.582c-0.245-2.484-0.674-5.084,0.241-7.407
									c2.935-7.449,12.488-17.698,19.074-22.141c6.456-4.355,14.941-7.851,16.615-15.457c0.643-2.925,0.102-6.056,1.049-8.897
									c0.568-1.703,1.635-3.186,2.486-4.768c4.176-7.762,6.546-22.747-1.816-28.26c-9.347-6.163-22.577,2.864-30.597-7.19
									c-1.21-1.517-2.111-3.283-3.488-4.65c-2.555-2.537-6.48-3.34-10.032-2.746
									C1904.8,2117.626,1916.445,2134.861,1923.472,2149.168z"/>
								<path style="fill:#7D97F4;" d="M2071.924,2036.334c7.465,4.775,20.352-5.7,25.09-17.945
									c0.593-1.533,1.143-3.133,2.229-4.367c2.211-2.511,6.015-2.833,9.329-2.37c3.314,0.463,6.618,1.526,9.937,1.101
									c4.763-0.611,8.697-4.266,10.92-8.522c2.224-4.255,3.024-9.088,3.794-13.828c3.523-0.869,7.332-0.534,10.649,0.936
									c2.562,1.135,5.091,3.637,4.376,6.346c-0.328,1.244-1.278,2.211-2.173,3.136c-2.794,2.89-5.398,5.964-7.787,9.197
									c-1.474,1.994-2.921,4.595-1.814,6.814c3.015,6.048,8.53,2.902,6.945,11.551c-1.994,10.835-16.713,15.264-8.305,28.207
									c3.077,4.737,8.674,7.57,14.316,7.826c4.049,0.183,9.034-1.913,9.086-5.966c0.015-1.201-0.428-2.438-0.052-3.578
									c0.49-1.484,2.172-2.211,3.717-2.446c5.056-0.769,9.943,1.769,14.609,3.863c1.408,0.632,3.09,1.221,4.429,0.453
									c4.363-2.501,2.327-4.564,8.259-5.117c5.058-0.471,10.976,3.428,13.841,7.283c0.689,0.927,1.312,2.121,0.875,3.191
									c-0.379,0.929-1.428,1.407-1.957,2.26c-0.872,1.405,0.006,3.346,1.382,4.264c1.375,0.918,3.086,1.12,4.706,1.453
									c7.599,1.564,7.777,8.808,13.147,12.424c4.36,2.935,15.465,3.514,14.485-4.929c-0.358-3.086-3.457-5.625-2.948-8.69
									c0.447-2.698,3.479-4.134,6.192-4.478c2.713-0.343,5.608-0.086,8.034-1.35c1.616-0.842,2.837-2.274,4.311-3.346
									c9.07-6.602,30.554-0.993,37.513,6.409c6.502,6.916,7.23,18.834,15.598,23.315c-0.977-9.19-5.615-17.94-12.672-23.908
									c-1.298-1.097-2.725-2.17-3.406-3.728c-0.572-1.307-0.539-2.79-0.466-4.215c0.371-7.279,1.799-14.057,3.786-20.852
									c-0.238,0.812,5.312-13.953,1.321-11.159c7.14-4.998,22.724-13.208,31.672-12.673c4.66,0.278,9.259,2.973,11.215,7.212
									c1.956,4.238,0.776,9.873-3.075,12.51c-3.688,2.525-8.805,2.04-12.551,4.477c-3.606,2.347-5.147,7.412-3.457,11.369
									c2.348-3.236,5.896-5.581,9.793-6.472c5.231-1.196,11.172,0.063,15.689-2.834c3.332-2.137,5.082-6.22,5.123-10.179
									c0.041-3.959-1.425-7.799-3.386-11.238c-1.418-2.488-3.126-4.87-3.885-7.631c-1.217-4.428,0.224-9.247,2.787-13.058
									c9.527-14.168,27.161-20.292,43.474-15.082c1.086,0.347,2.245,0.812,2.81,1.802c0.82,1.436,0.03,3.27,0.377,4.887
									c0.547,2.548,4.433,3.512,6.108,1.516c1.157-1.38,1.086-3.371,1.524-5.118c1.139-4.542,5.769-7.322,10.269-8.617
									c5.502-1.583,20.285-8.893,21.804,0.771c0.133,0.846,0.106,1.739,0.472,2.513c1.032,2.179,4.487,1.866,6.13,0.102
									c3.388-3.637,3.983-9.611,7.265-13.675c2.904-3.597,7.192-5.752,9.623-9.766c6.023-9.948,1.436-22.95-9.042-27.767
									c-10.04-4.616-21.722-2.569-32.598-0.614c-7.487,1.346-33.202,6.506-35.033-5.623c-0.15-0.994-0.117-2.053-0.599-2.936
									c-0.596-1.093-1.843-1.666-2.603-2.652c-0.97-1.259-1.009-2.978-1.531-4.479c-1.897-5.45-9.046-6.449-14.817-6.516
									c0.582-3.38,0.898-7.498-1.82-9.59c-1.536-1.182-3.609-1.313-5.546-1.395c-5.032-0.215-17.169,1.591-21.341-1.353
									c-5.526-3.9-1.72-10.543-4.128-15.922c-2.56-5.712-12.079-6.506-13.138-12.676c-0.229-1.334,0.021-2.709-0.138-4.054
									c-0.389-3.279-3.06-5.75-5.559-7.909c-4.529-3.913-9.659-8.053-15.642-7.9c-1.125,0.889-0.115,2.754,1.153,3.422
									c1.268,0.669,2.888,1.016,3.53,2.297c1.231,2.458-2.299,4.477-5,4.991c-0.131,3.593,3.481,5.973,6.271,8.24
									c4.714,3.829,8.063,9.303,9.325,15.243c-9.51,1.708-19.253,2.108-28.87,1.186c-11.588-1.111-19.032,17.282-32.767,12.184
									c-2.029-0.753-3.843-2.105-5.969-2.508c-5.347-1.012-9.654,4.053-14.459,6.607c-7.316,3.889-16.286,1.872-24.126-0.805
									c-9.369-3.199-20.761-7.793-30.204-2.274c-3.529,2.063-6.349,5.273-10.085,6.932c-7.843,3.481-16.741-0.793-25.282-1.612
									c-21.073-2.022-33.755,18.598-40.601,35.77c-1.039,2.606-1.971,5.344-1.835,8.146s1.559,5.703,4.117,6.857
									c3.79,1.709,8.193-1.006,10.667-4.347c2.474-3.341,3.977-7.425,7.004-10.275s8.588-3.767,10.978-0.366
									c1.176,1.674,1.224,3.864,1.229,5.91c0.008,3.885,0.017,7.77,0.025,11.654c0.004,2.136-0.006,4.347-0.874,6.299
									c-1.449,3.26-4.906,5.06-8.117,6.614c-6.974,3.376-13.949,6.751-20.923,10.127c-2.354,1.14-4.736,2.297-6.735,3.984
									c-9.111,7.689-2.989,18.332-10.017,25.735c-2.837,2.989-7.544,3.887-9.871,7.289c-1.719,2.513-1.711,5.784-1.639,8.828
									C2066.589,2029.589,2068.774,2034.319,2071.924,2036.334z"/>
								<path style="fill:#7D97F4;" d="M2315.078,2100.946c-2.824,5.106-2.434,11.78-8.815,14.599
									c-4.245,1.875-9.679,1.019-13.136,4.115c-3.944,3.532-2.914,9.795-2.152,15.035c0.137,0.939,0.247,1.937-0.137,2.805
									c-1.016,2.299-4.66,2.239-5.91,4.419c-1.073,1.872,0.256,4.231,1.856,5.679c4.874,4.41,12.796,4.987,18.259,1.331
									c1.454-0.973,3.028-2.273,4.727-1.856c1.981,0.486,2.646,2.893,3.184,4.861c1.146,4.19,3.408,8.217,6.983,10.689
									c11.246,7.774,27.067-1.686,39.557,9.283c1.534,1.347,2.994,2.949,3.442,4.941c0.484,2.153-0.24,4.625,0.97,6.47
									c1.515,2.31,5.245,1.997,7.284,0.133s2.858-4.671,3.71-7.3s1.969-5.406,4.311-6.876c3.944-2.473,8.44-1.527,10.624-6.558
									c2.723-6.417-5.402-11.733-2.823-17.58c1.152-2.611,2.993-5.46,1.837-8.069c-0.587-1.325-1.832-2.211-2.861-3.238
									c-4.813-4.812-5.632-9.339-12.045-12.274c-4.092-1.873-12.571,0.551-14.251-6.275c-0.438-1.779,0.189-4.011-1.182-5.225
									c-0.777-0.688-1.915-0.735-2.953-0.731c-7.176,0.025-15.711,0.133-19.801-5.764c-4.52-6.517-5.05-11.216-14.229-7.98
									C2318.186,2096.756,2316.321,2098.699,2315.078,2100.946z"/>
								<path style="fill:#7D97F4;" d="M2101.169,2065.087c-1.495,2.074-2.339,4.573-3.916,6.586
									c-4.438,5.664-6.365,0.657-11.38,2.564c-1.732,0.66-3.264,1.834-5.07,2.249c-3.652,0.84-7.279-1.597-11.025-1.612
									c-14.432-0.058-6.856,23.143,0.131,27.592c1.293,0.823,2.924,0.835,4.457,0.82c4.758-0.047,9.517-0.093,14.275-0.14
									c1.356-0.013,2.81,0.001,3.927,0.77c3.442,2.367,0.163,8.216,2.233,11.844c1.42,2.49,4.721,2.953,7.543,3.465
									c5.965,1.082,7.271,7.574,10.922,11.579c4.694,5.147,9.172,7.223,11.818,14.696c1.571,4.438,2.115,9.239,4.188,13.466
									c4.261,8.692,15.316,13.376,24.525,10.392c9.209-2.984,15.416-13.261,13.77-22.801c-0.962-5.573-4.171-10.455-6.399-15.652
									c-4.507-10.514-1.458-23.316,11.03-25.322c3.152-0.506,7.155-0.684,8.332-3.651c1.695-4.277-4.844-9.279-2.133-12.996
									c0.976-1.338,2.865-1.816,3.723-3.233c1.153-1.904-0.159-4.368-1.765-5.909c-1.606-1.541-3.631-2.876-4.295-5.002
									c-3.734-11.97-15.999-4.489-24.183-2.911c-7.3,1.407-11.462,0.492-17.536-3.019
									C2124.935,2063.427,2110.686,2051.885,2101.169,2065.087z"/>
								<path style="fill:#7D97F4;" d="M2132.266,1877.91c1.078-2.014,3.715-2.485,5.994-2.64
									c7.854-0.533,15.779-0.021,23.499,1.518c-6.391,5.026-13.526,10.308-21.651,10.035c-3.686-0.124-7.511-1.395-10.96-0.087
									c-0.807-2.43-0.362-5.239,1.157-7.301L2132.266,1877.91z"/>
								<path style="fill:#7D97F4;" d="M2041.454,1970.327c8.015,6.343,36.288-2.121,23.098-10.308
									c-2.131-1.323-4.687-1.73-7.167-2.109c-3.333-0.51-6.751-1.018-10.052-0.335c-3.302,0.684-6.516,2.821-7.507,6.044
									C2038.872,1966.72,2039.65,1968.899,2041.454,1970.327z"/>
								<path style="fill:#7D97F4;" d="M2390.65,1914.518c4.958,4.347,11.9,5.416,18.433,6.306c3.261,0.444,7.53,0.324,8.656-2.769
									c1.188-3.261-2.646-6.273-6.095-6.65c-3.45-0.378-7.115,0.534-10.311-0.819c-2.835-1.2-5.067-4.097-8.145-4.071
									c-3.583,0.03-5.753,5.26-3.243,7.818L2390.65,1914.518z"/>
							</g>
							<polygon style="fill:#91B3FA;" points="1736.259,2347.475 1727.279,1829.934 1896.835,1727.893 1914.58,2268.512 							"/>
						</g>
					</g>
					<g>

							<rect x="1904.018" y="1727.747" transform="matrix(0.9995 -0.0328 0.0328 0.9995 -64.5229 63.5897)" style="fill:#FFFFFF;" width="3.379" height="540.911"/>

							<rect x="2329.115" y="1700.586" transform="matrix(1 -0.005 0.005 1 -9.8515 11.6661)" style="fill:#FFFFFF;" width="3.377" height="555.338"/>
					</g>
				</g>
				<g>

						<linearGradient id="SVGID_00000017481133948352097080000005444550202933120406_" gradientUnits="userSpaceOnUse" x1="2107.9631" y1="1585.5574" x2="2187.4622" y2="1585.5574" gradientTransform="matrix(0.3319 -0.9433 0.9433 0.3319 -484.2198 3563.2004)">
						<stop  offset="0" style="stop-color:#FEBBBA"/>
						<stop  offset="1" style="stop-color:#FF928E"/>
					</linearGradient>
					<path style="fill:url(#SVGID_00000017481133948352097080000005444550202933120406_);" d="M1695.859,2043.571
						c0,0-18.645,42.444,18.501,58.363c37.146,15.918,37.684-8.373,27.681-20.442c-10.002-12.069-11.281-14.555-16.072-33.338
						c-4.79-18.784-8.415-28.705-8.415-28.705S1714.297,2011.672,1695.859,2043.571z"/>

						<linearGradient id="SVGID_00000059285061665620414590000013628833252866388643_" gradientUnits="userSpaceOnUse" x1="2580.0271" y1="1866.0096" x2="2662.6824" y2="1866.0096" gradientTransform="matrix(-0.8593 -0.5115 -0.5115 0.8593 5663.0024 1532.2906)">
						<stop  offset="0" style="stop-color:#FEBBBA"/>
						<stop  offset="1" style="stop-color:#FF928E"/>
					</linearGradient>
					<path style="fill:url(#SVGID_00000059285061665620414590000013628833252866388643_);" d="M2478.607,1756.412
						c0,0,31.141,22.597,11.462,61.301c-19.68,38.703-34.386,37.814-34.444,20.973c-0.059-16.841,0.037-17.124-8.943-35.916
						c-8.981-18.791-13.529-50.242-13.529-50.242S2445.737,1739.817,2478.607,1756.412z"/>
				</g>
			</g>
		</g>
	</g>
</g>
</svg>
