<svg xmlns="http://www.w3.org/2000/svg" xmlns:xlink="http://www.w3.org/1999/xlink" version="1.1" x="0px" y="0px" style="enable-background:new 0 0 3250 3250;" xml:space="preserve" viewBox="798.26 890.09 1880.08 2364.91">
<g id="Illustration">
	<g>
		<g>
			<g>

					<linearGradient id="SVGID_00000026872062680282749880000009959354150634106496_" gradientUnits="userSpaceOnUse" x1="1559.1266" y1="1464.4435" x2="1721.2507" y2="1276.2639">
					<stop offset="0" style="stop-color:#faa744"/>
					<stop offset="1" style="stop-color:#faa744"/>
				</linearGradient>

					<circle style="fill:url(#SVGID_00000026872062680282749880000009959354150634106496_);" cx="1724.525" cy="1272.463" r="120.869"/>

					<linearGradient id="SVGID_00000174588607250327748260000006424549058299597987_" gradientUnits="userSpaceOnUse" x1="1812.8613" y1="1139.0126" x2="1333.4559" y2="1863.2576">
					<stop offset="0" style="stop-color:#f8bc54"/>
					<stop offset="1" style="stop-color:#f8bc54"/>
				</linearGradient>

					<circle style="fill:url(#SVGID_00000174588607250327748260000006424549058299597987_);" cx="1724.525" cy="1272.463" r="116.85"/>
				<path style="opacity:0.78;fill:#FFFFFF;" d="M1628.167,1227.303c-0.511,0-1.03-0.115-1.518-0.363      c-1.666-0.841-2.336-2.874-1.495-4.537c19.049-37.742,57.127-61.186,99.369-61.186c6.745,0,13.496,0.607,20.068,1.808      c1.835,0.333,3.052,2.092,2.716,3.93c-0.333,1.838-2.099,3.079-3.93,2.716c-6.174-1.125-12.516-1.696-18.854-1.696      c-39.678,0-75.443,22.022-93.338,57.47C1630.592,1226.623,1629.401,1227.303,1628.167,1227.303z"/>

					<ellipse transform="matrix(0.2298 -0.9732 0.9732 0.2298 89.3713 2662.9434)" style="opacity:0.78;fill:#FFFFFF;" cx="1727.071" cy="1275.009" rx="98.9" ry="98.899"/>
				<g>

						<linearGradient id="SVGID_00000183240263479649790660000012952202310730570401_" gradientUnits="userSpaceOnUse" x1="1798.5603" y1="1159.7645" x2="1543.2871" y2="1588.3259">
						<stop offset="0" style="stop-color:#f8bc54"/>
						<stop offset="1" style="stop-color:#f8bc54"/>
					</linearGradient>
					<path style="fill:url(#SVGID_00000183240263479649790660000012952202310730570401_);" d="M1717.366,1348.532v-10.759       c-11.216-0.449-22.311-3.096-30.191-6.546c-2.814-1.232-4.248-4.389-3.44-7.353l2.734-10.022       c1.003-3.677,5.001-5.578,8.516-4.106c7.817,3.277,17.468,5.87,27.876,5.87c10.803,0,18.86-3.663,18.86-11.171       c0-6.775-6.226-10.803-21.241-14.831c-21.424-5.86-36.806-15.199-36.806-34.06c0-17.03,12.452-30.031,34.059-33.51v-10.761       c0-3.462,2.807-6.269,6.269-6.269h6.322c3.462,0,6.269,2.807,6.269,6.269v9.662c10.379,0.416,17.934,2.19,23.93,4.297       c3.072,1.079,4.751,4.389,3.899,7.531l-2.514,9.269c-0.97,3.574-4.79,5.532-8.254,4.222c-5.52-2.088-13.325-4.262-23.47-4.262       c-12.818,0-16.48,5.311-16.48,10.072c0,5.859,7.69,9.887,24.354,15.016c23.805,7.141,33.693,17.029,33.693,34.791       c0,16.298-12.085,30.947-35.524,34.609v12.041c0,3.463-2.806,6.269-6.269,6.269h-6.322       C1720.173,1354.801,1717.366,1351.995,1717.366,1348.532z"/>
				</g>
			</g>
			<g>

					<linearGradient id="SVGID_00000065055868391319301730000001774418130263618439_" gradientUnits="userSpaceOnUse" x1="1780.6523" y1="1463.3308" x2="2062.8823" y2="1135.7429">
					<stop offset="0" style="stop-color:#faa744"/>
					<stop offset="1" style="stop-color:#faa744"/>
				</linearGradient>

					<circle style="fill:url(#SVGID_00000065055868391319301730000001774418130263618439_);" cx="2068.583" cy="1129.126" r="210.413"/>

					<linearGradient id="SVGID_00000059301706789142475050000013857953254816146584_" gradientUnits="userSpaceOnUse" x1="2222.3606" y1="896.8116" x2="1387.7986" y2="2157.5969">
					<stop offset="0" style="stop-color:#f8bc54"/>
					<stop offset="1" style="stop-color:#f8bc54"/>
				</linearGradient>

					<circle style="fill:url(#SVGID_00000059301706789142475050000013857953254816146584_);" cx="2068.583" cy="1129.126" r="203.416"/>
				<path style="opacity:0.78;fill:#FFFFFF;" d="M1900.844,1048.006c-0.511,0-1.03-0.115-1.518-0.363      c-1.666-0.841-2.336-2.874-1.495-4.537c32.733-64.848,98.162-105.134,170.751-105.134c11.595,0,23.197,1.043,34.485,3.102      c1.835,0.333,3.052,2.092,2.716,3.93c-0.337,1.835-2.082,3.079-3.93,2.716c-10.886-1.983-22.081-2.99-33.271-2.99      c-70.026,0-133.141,38.863-164.719,101.418C1903.27,1047.326,1902.078,1048.006,1900.844,1048.006z"/>

					<ellipse transform="matrix(0.7071 -0.7071 0.7071 0.7071 -194.3743 1797.8545)" style="opacity:0.78;fill:#FFFFFF;" cx="2073.015" cy="1133.558" rx="172.167" ry="172.167"/>
				<g>

						<linearGradient id="SVGID_00000178902414703234098640000008802139547384216715_" gradientUnits="userSpaceOnUse" x1="2197.4648" y1="932.9371" x2="1753.0776" y2="1678.9899">
						<stop offset="0" style="stop-color:#f8bc54"/>
						<stop offset="1" style="stop-color:#f8bc54"/>
					</linearGradient>
					<path style="fill:url(#SVGID_00000178902414703234098640000008802139547384216715_);" d="M2056.12,1261.549v-18.731       c-19.527-0.782-38.84-5.39-52.558-11.395c-4.898-2.144-7.395-7.641-5.988-12.8l4.759-17.448       c1.745-6.4,8.706-9.711,14.825-7.146c13.607,5.704,30.409,10.217,48.525,10.217c18.808,0,32.833-6.376,32.833-19.446       c0-11.794-10.838-18.806-36.977-25.818c-37.295-10.201-64.073-26.459-64.073-59.292c0-29.647,21.677-52.279,59.291-58.335       v-18.733c0-6.028,4.887-10.914,10.914-10.914h11.005c6.027,0,10.914,4.886,10.914,10.914v16.818       c18.068,0.724,31.221,3.813,41.658,7.481c5.348,1.879,8.27,7.64,6.787,13.11l-4.376,16.136       c-1.688,6.222-8.337,9.63-14.368,7.35c-9.61-3.634-23.197-7.418-40.858-7.418c-22.314,0-28.688,9.244-28.688,17.532       c0,10.2,13.388,17.213,42.395,26.139c41.44,12.432,58.653,29.645,58.653,60.566c0,28.371-21.038,53.872-61.84,60.248v20.962       c0,6.028-4.886,10.914-10.914,10.914h-11.006C2061.007,1272.463,2056.12,1267.577,2056.12,1261.549z"/>
				</g>
			</g>
			<g>

					<linearGradient id="SVGID_00000080172820538508197120000000950799945320248219_" gradientUnits="userSpaceOnUse" x1="1917.4197" y1="1942.9874" x2="2207.8308" y2="1605.9033">
					<stop offset="0" style="stop-color:#faa744"/>
					<stop offset="1" style="stop-color:#faa744"/>
				</linearGradient>

					<circle style="fill:url(#SVGID_00000080172820538508197120000000950799945320248219_);" cx="2213.697" cy="1599.094" r="216.512"/>

					<linearGradient id="SVGID_00000053512532763403868590000010037408998244100541_" gradientUnits="userSpaceOnUse" x1="2371.9321" y1="1360.0464" x2="1513.1788" y2="2657.3779">
					<stop offset="0" style="stop-color:#f8bc54"/>
					<stop offset="1" style="stop-color:#f8bc54"/>
				</linearGradient>

					<circle style="fill:url(#SVGID_00000053512532763403868590000010037408998244100541_);" cx="2213.697" cy="1599.094" r="209.313"/>
				<path style="opacity:0.78;fill:#FFFFFF;" d="M2041.097,1515.525c-0.511,0-1.029-0.115-1.518-0.363      c-1.666-0.841-2.336-2.874-1.495-4.537c33.663-66.696,100.956-108.13,175.615-108.13c11.915,0,23.847,1.076,35.465,3.194      c1.835,0.333,3.052,2.092,2.716,3.93c-0.333,1.835-2.102,3.072-3.93,2.716c-11.216-2.046-22.741-3.082-34.25-3.082      c-72.094,0-137.074,40.008-169.583,104.415C2043.522,1514.845,2042.331,1515.525,2041.097,1515.525z"/>

					<ellipse transform="matrix(0.7071 -0.7071 0.7071 0.7071 -484.243 2038.2449)" style="opacity:0.78;fill:#FFFFFF;" cx="2218.258" cy="1603.655" rx="177.158" ry="177.158"/>
				<g>

						<linearGradient id="SVGID_00000081643721672537451300000011226336041891399354_" gradientUnits="userSpaceOnUse" x1="2346.3149" y1="1397.2189" x2="1889.0461" y2="2164.8975">
						<stop offset="0" style="stop-color:#f8bc54"/>
						<stop offset="1" style="stop-color:#f8bc54"/>
					</linearGradient>
					<path style="fill:url(#SVGID_00000081643721672537451300000011226336041891399354_);" d="M2200.873,1735.357v-19.274       c-20.092-0.804-39.966-5.546-54.081-11.725c-5.04-2.206-7.61-7.863-6.161-13.171l4.896-17.953       c1.796-6.586,8.959-9.993,15.254-7.354c14.002,5.87,31.291,10.514,49.933,10.514c19.352,0,33.784-6.561,33.784-20.01       c0-12.135-11.152-19.351-38.049-26.566c-38.377-10.496-65.93-27.225-65.93-61.01c0-30.506,22.306-53.795,61.01-60.026v-19.276       c0-6.202,5.028-11.23,11.23-11.23h11.324c6.202,0,11.23,5.028,11.23,11.23v17.307c18.592,0.744,32.126,3.923,42.866,7.697       c5.502,1.933,8.51,7.861,6.983,13.49l-4.503,16.604c-1.736,6.403-8.579,9.91-14.784,7.563       c-9.888-3.739-23.869-7.633-42.042-7.633c-22.961,0-29.52,9.512-29.52,18.04c0,10.497,13.776,17.712,43.625,26.897       c42.641,12.793,60.354,30.504,60.354,62.322c0,29.193-21.648,55.434-63.633,61.995v21.57c0,6.202-5.028,11.23-11.23,11.23       h-11.325C2205.901,1746.587,2200.873,1741.559,2200.873,1735.357z"/>
				</g>
			</g>
			<g>

					<linearGradient id="SVGID_00000085939572064990373720000010457862698887370414_" gradientUnits="userSpaceOnUse" x1="2274.3733" y1="1556.1299" x2="2487.1555" y2="1309.151">
					<stop offset="0" style="stop-color:#faa744"/>
					<stop offset="1" style="stop-color:#faa744"/>
				</linearGradient>

					<circle style="fill:url(#SVGID_00000085939572064990373720000010457862698887370414_);" cx="2491.453" cy="1304.162" r="158.637"/>

					<linearGradient id="SVGID_00000173144934067602887660000018283994243510384023_" gradientUnits="userSpaceOnUse" x1="2607.3911" y1="1129.0134" x2="1978.1886" y2="2079.5591">
					<stop offset="0" style="stop-color:#f8bc54"/>
					<stop offset="1" style="stop-color:#f8bc54"/>
				</linearGradient>

					<circle style="fill:url(#SVGID_00000173144934067602887660000018283994243510384023_);" cx="2491.453" cy="1304.162" r="153.362"/>
				<path style="opacity:0.78;fill:#FFFFFF;" d="M2364.991,1243.834c-0.511,0-1.03-0.115-1.518-0.363      c-1.666-0.841-2.336-2.874-1.495-4.537c24.817-49.175,74.431-79.72,129.476-79.72c8.793,0,17.59,0.792,26.146,2.353      c1.835,0.333,3.052,2.092,2.716,3.93c-0.333,1.835-2.099,3.075-3.93,2.716c-8.153-1.485-16.544-2.241-24.932-2.241      c-52.481,0-99.782,29.123-123.444,76.004C2367.417,1243.155,2366.225,1243.834,2364.991,1243.834z"/>

					<ellipse transform="matrix(0.7071 -0.7071 0.7071 0.7071 -193.8364 2147.0454)" style="opacity:0.78;fill:#FFFFFF;" cx="2494.795" cy="1307.504" rx="129.802" ry="129.802"/>
				<g>

						<linearGradient id="SVGID_00000151508053782695348880000002327566084466962606_" gradientUnits="userSpaceOnUse" x1="2588.6216" y1="1156.2491" x2="2253.5837" y2="1718.722">
						<stop offset="0" style="stop-color:#f8bc54"/>
						<stop offset="1" style="stop-color:#f8bc54"/>
					</linearGradient>
					<path style="fill:url(#SVGID_00000151508053782695348880000002327566084466962606_);" d="M2482.057,1404v-14.122       c-14.721-0.589-29.282-4.064-39.625-8.591c-3.693-1.617-5.575-5.761-4.515-9.65l3.587-13.154       c1.316-4.826,6.564-7.321,11.177-5.388c10.26,4.301,22.927,7.704,36.586,7.704c14.179,0,24.754-4.808,24.754-14.661       c0-8.892-8.171-14.178-27.879-19.465c-28.117-7.691-48.306-19.948-48.306-44.702c0-22.352,16.343-39.414,44.702-43.98v-14.124       c0-4.544,3.683-8.229,8.228-8.229h8.297c4.545,0,8.229,3.684,8.229,8.229v12.68c13.622,0.545,23.538,2.874,31.407,5.64       c4.031,1.417,6.235,5.76,5.116,9.884l-3.299,12.166c-1.272,4.691-6.286,7.261-10.832,5.541       c-7.246-2.74-17.489-5.593-30.804-5.593c-16.823,0-21.629,6.969-21.629,13.218c0,7.69,10.093,12.977,31.963,19.707       c31.243,9.372,44.22,22.35,44.22,45.662c0,21.39-15.861,40.616-46.624,45.423V1404c0,4.544-3.684,8.228-8.228,8.228h-8.298       C2485.741,1412.229,2482.057,1408.545,2482.057,1404z"/>
				</g>
			</g>
		</g>
		<g transform="translate(300, 0)">

				<linearGradient id="SVGID_00000067204769358188678700000012959802805664272809_" gradientUnits="userSpaceOnUse" x1="9997.4727" y1="3105.0527" x2="9408.5352" y2="3745.6523" gradientTransform="matrix(1 0 0 1 -8938.5107 0)">
				<stop offset="0" style="stop-color:#012d56"/>
				<stop offset="1" style="stop-color:#012d56"/>
			</linearGradient>
			<path style="fill:url(#SVGID_00000067204769358188678700000012959802805664272809_);" d="M872.798,3152.774     c0,0-6.1,34.528-9.09,68.708c-1.169,13.358,9.13,24.956,22.528,25.515c45.516,1.895,142.88,5.582,177.817,4.022     c5.252-0.234,8.686-5.611,6.743-10.496c-1.629-4.093-4.771-7.403-8.773-9.242l-160.825-73.915L872.798,3152.774z"/>

				<linearGradient id="SVGID_00000082345398606506524990000016982164536867567542_" gradientUnits="userSpaceOnUse" x1="9806.3125" y1="3152.6309" x2="9858.625" y2="3152.6309" gradientTransform="matrix(1 0 0 1 -8938.5107 0)">
				<stop offset="0" style="stop-color:#f8bc54"/>
				<stop offset="1" style="stop-color:#FEB3B1"/>
			</linearGradient>
			<path style="fill:url(#SVGID_00000082345398606506524990000016982164536867567542_);" d="M867.802,3132.486l4.901,41.3     c0,0,28.172,13.115,47.412-1.653l-11.667-46.026L867.802,3132.486z"/>

				<linearGradient id="SVGID_00000176743365013832443160000017349987237892959642_" gradientUnits="userSpaceOnUse" x1="919.4326" y1="2423.9312" x2="682.9124" y2="3333.9709">
				<stop offset="0" style="stop-color:#26547c"/>
				<stop offset="1" style="stop-color:#26547c"/>
			</linearGradient>
			<path style="fill:url(#SVGID_00000176743365013832443160000017349987237892959642_);" d="M871.484,2356.021     c-2.117,10.785-11.361,538.218,45.017,774.578c0.92,3.857-1.035,7.832-4.706,9.332c-8.647,3.533-25.599,8.649-45.916,9.331     c-6.292,0.211-11.933-3.877-13.708-9.917c-16.115-54.84-93.338-329.6-103.413-592.07c-11.256-293.285,0-9.986,0-9.986     l6.602-181.291L871.484,2356.021z"/>

				<linearGradient id="SVGID_00000000204906760799277160000005784789690195520689_" gradientUnits="userSpaceOnUse" x1="9865.3545" y1="2983.5889" x2="9276.416" y2="3624.1885" gradientTransform="matrix(1 0 0 1 -8938.5107 0)">
				<stop offset="0" style="stop-color:#012d56"/>
				<stop offset="1" style="stop-color:#012d56"/>
			</linearGradient>
			<path style="fill:url(#SVGID_00000000204906760799277160000005784789690195520689_);" d="M687.795,3170.787     c0,0-9.708,17.431-19.108,63.75c-1.697,8.366,4.148,16.372,12.643,17.206c15.03,1.478,38.167,3.379,56.701,3.251     c8.544-0.059,15.212-7.498,14.182-15.98c-2.053-16.907-8.449-44.646-28.206-66.265L687.795,3170.787z"/>

				<linearGradient id="SVGID_00000181770098749532526530000007085851163589314218_" gradientUnits="userSpaceOnUse" x1="9617.7793" y1="3149.9485" x2="9662.9463" y2="3149.9485" gradientTransform="matrix(1 0 0 1 -8938.5107 0)">
				<stop offset="0" style="stop-color:#f8bc54"/>
				<stop offset="1" style="stop-color:#FEB3B1"/>
			</linearGradient>
			<path style="fill:url(#SVGID_00000181770098749532526530000007085851163589314218_);" d="M679.268,3117.665l11.45,62.457     c0,0,11.321,8.422,33.716,2.317l-5.465-67.2L679.268,3117.665z"/>

				<linearGradient id="SVGID_00000016781406080130313220000015214821501957761678_" gradientUnits="userSpaceOnUse" x1="785.2243" y1="2389.051" x2="548.704" y2="3299.0911">
				<stop offset="0" style="stop-color:#26547c"/>
				<stop offset="1" style="stop-color:#00233f"/>
			</linearGradient>
			<path style="fill:url(#SVGID_00000016781406080130313220000015214821501957761678_);" d="M648.337,2372.206     c-46.111,278.278,10.002,687.787,28.926,767.937c1.158,4.907,5.119,8.667,10.093,9.491c8.447,1.4,22.354,2.542,36.066-1.439     c4.724-1.372,8.042-5.633,8.235-10.549c2.539-64.799-2.031-462.605,40.934-619.82c2.177-7.967,7.042-14.916,13.775-19.701     l83.39-59.283l6.393-95.826L648.337,2372.206z"/>
			<g>

					<linearGradient id="SVGID_00000182497968539430714560000003911619112409292977_" gradientUnits="userSpaceOnUse" x1="1116.2535" y1="1502.9969" x2="661.2365" y2="2352.2122">
					<stop offset="0" style="stop-color:#00ba7c"/>
					<stop offset="1" style="stop-color:#018257"/>
				</linearGradient>
				<path style="fill:url(#SVGID_00000182497968539430714560000003911619112409292977_);" d="M942.151,1844.923      c-138.184-2.283-290.653,36.282-290.653,36.282c-41.19,240.34-7.203,517.555-7.203,517.555      c106.978,28.054,227.655-17.152,227.655-17.152c17.781-100.457,100.739-383.174,100.739-383.174      c67.516-8.379,123.134-27.859,168.937-53.612c-34.937-40.497-51.407-92.027-58.561-122.489      C1034.21,1837.517,984.772,1845.627,942.151,1844.923z"/>

					<linearGradient id="SVGID_00000102535708646413414580000012003402798364661906_" gradientUnits="userSpaceOnUse" x1="1690.3379" y1="1476.4883" x2="1285.04" y2="1740.198" gradientTransform="matrix(-1 0 0 1 -3963.2288 0)">
					<stop offset="0" style="stop-color:#ffbd95"/>
					<stop offset="1" style="stop-color:#ffbd95"/>
				</linearGradient>
				<path style="fill:url(#SVGID_00000102535708646413414580000012003402798364661906_);" d="M1350.32,1641.386      c-13.574-16.395-30.755-8.639-30.755-8.639c-20.335,85.897-126.958,155.543-236.499,189.587      c7.154,30.461,23.624,81.992,58.561,122.489C1323.42,1842.608,1350.32,1641.386,1350.32,1641.386z"/>
			</g>
			<g>

					<linearGradient id="SVGID_00000098202610669840527460000016354698562334999992_" gradientUnits="userSpaceOnUse" x1="1690.6868" y1="1486.8433" x2="1285.224" y2="1598.3458">
					<stop offset="0" style="stop-color:#ffbd95"/>
					<stop offset="1" style="stop-color:#ffbd95"/>
				</linearGradient>
				<path style="fill:url(#SVGID_00000098202610669840527460000016354698562334999992_);" d="M1347.026,1645.555      c1.421,4.516-15.028,11.391-24.712-7.076c-0.339-8.851-5.721-46.769-0.432-53.979c28.167-38.402,82.779-86.542,82.779-86.542      c9.23,9.107,1.626,18.053,1.626,18.053l-26.492,27.598c5.542,10.014,12.301,18.466,15.468,30.578      c2.4,9.173,0.932,18.975-3.701,27.323c-4.65,8.377-10.995,19.268-16.993,27.792      C1363.214,1645.434,1347.026,1645.555,1347.026,1645.555z"/>

					<linearGradient id="SVGID_00000080206697489164890300000007796473944333812361_" gradientUnits="userSpaceOnUse" x1="1690.3218" y1="1672.5825" x2="1285.8457" y2="1532.3357" gradientTransform="matrix(-1 0 0 1 -3963.2288 0)">
					<stop offset="0" style="stop-color:#ffbd95"/>
					<stop offset="1" style="stop-color:#ffbd95"/>
				</linearGradient>
				<path style="fill:url(#SVGID_00000080206697489164890300000007796473944333812361_);" d="M1368.206,1561.516l-24.143,20.466      l-7.58,20.376l21.526,23.88c0,0,7.237-40.431,12.616-49.181S1373.215,1564.075,1368.206,1561.516z"/>
			</g>

				<linearGradient id="SVGID_00000115476360058755855220000015469158116637649292_" gradientUnits="userSpaceOnUse" x1="940.0967" y1="1408.6119" x2="485.0782" y2="2257.8298">
				<stop offset="0" style="stop-color:#018257"/>
				<stop offset="1" style="stop-color:#018257"/>
			</linearGradient>
			<path style="fill:url(#SVGID_00000115476360058755855220000015469158116637649292_);" d="M704.5,2015.008l-53.001-133.802     c0,0-129.071,87.698-150.298,198.89c24.388,1.796,68.766,8.14,112.204,30.073C622.951,2057.665,704.5,2015.008,704.5,2015.008z"/>

				<linearGradient id="SVGID_00000183928856967150348130000017907231107002551996_" gradientUnits="userSpaceOnUse" x1="9436.7695" y1="2166.4263" x2="9774.9824" y2="2166.4263" gradientTransform="matrix(1 0 0 1 -8938.5107 0)">
				<stop offset="0" style="stop-color:#ffbd95"/>
				<stop offset="1" style="stop-color:#ffbd95"/>
			</linearGradient>
			<path style="fill:url(#SVGID_00000183928856967150348130000017907231107002551996_);" d="M817.293,2140.911     c0,0-144.914,81.898-193.81,11.967c-10.152-14.521-12.579-28.952-10.078-42.71c-43.438-21.933-87.816-28.277-112.204-30.073     c-6.4,33.521-3.016,69.172,16.681,105.205c85.65,156.677,318.589-8.658,318.589-8.658L817.293,2140.911z"/>
			<g>
				<path style="fill:#26547c;" d="M799.882,2244.521l79.089-276.196c0.897-3.135,3.572-5.422,6.812-5.8      c14.329-1.671,55.85-6.365,103.791-10.42c57.747-4.885,124.807-8.842,164.88-5.475c5.697,0.478,9.14,6.504,6.607,11.629      c-22.788,46.103-116.524,233.639-163.463,295.073c-1.556,2.036-3.961,3.225-6.522,3.201l-183.499-1.707      C802.236,2254.777,798.412,2249.654,799.882,2244.521z"/>

					<linearGradient id="SVGID_00000075159503879205894120000004557372087920046989_" gradientUnits="userSpaceOnUse" x1="990.8218" y1="1934.9507" x2="1059.915" y2="1934.9507">
					<stop offset="0" style="stop-color:#00233f"/>
					<stop offset="1" style="stop-color:#00233f"/>
				</linearGradient>
				<path style="fill:url(#SVGID_00000075159503879205894120000004557372087920046989_);" d="M997.777,1928.16l57.341-9.554      c3.054-0.508,5.555,2.409,4.585,5.349l-5.676,17.2c-0.495,1.497-1.8,2.58-3.363,2.789l-55.179,7.371      c-2.854,0.381-5.208-2.213-4.552-5.017l3.514-15.017C994.825,1929.665,996.139,1928.434,997.777,1928.16z"/>

					<linearGradient id="SVGID_00000008870003757269081500000010040081269931050373_" gradientUnits="userSpaceOnUse" x1="954.7383" y1="1959.5969" x2="1086.6576" y2="1959.5969">
					<stop offset="0" style="stop-color:#00233f"/>
					<stop offset="1" style="stop-color:#00233f"/>
				</linearGradient>
				<path style="fill:url(#SVGID_00000008870003757269081500000010040081269931050373_);" d="M954.842,1976.704l4.724-24.605      c0.474-2.468,2.511-4.332,5.011-4.586l115.815-11.752c3.898-0.396,7.02,3.177,6.105,6.986l-7.364,30.661      c-0.589,2.453-2.724,4.225-5.245,4.351l-113.175,5.698C957.03,1983.642,954.147,1980.326,954.842,1976.704z"/>

					<linearGradient id="SVGID_00000166661164305451323700000008083601395699066029_" gradientUnits="userSpaceOnUse" x1="9749.8711" y1="2130.9651" x2="9855.2383" y2="2130.9651" gradientTransform="matrix(1 0 0 1 -8938.5107 0)">
					<stop offset="0" style="stop-color:#ffbd95"/>
					<stop offset="1" style="stop-color:#ffbd95"/>
				</linearGradient>
				<path style="fill:url(#SVGID_00000166661164305451323700000008083601395699066029_);" d="M818.99,2177.792      c0,0-11.017-45.302-6.573-61.374c4.445-16.073,13.055-36.737,41.755-32.145c28.701,4.592,62.556,16.683,62.556,16.683      s-1.71,20.935-23.523,14.181l13.527,10.466c0,0-1.933,16.762-20.358,7.807l12.581,13.88c0,0-7.913,13.767-21.468,4.937      C863.93,2143.396,857.432,2183.248,818.99,2177.792z"/>
			</g>

				<linearGradient id="SVGID_00000004544088559279346540000017888901411439023802_" gradientUnits="userSpaceOnUse" x1="855.6606" y1="1650.782" x2="810.6094" y2="1889.5538">
				<stop offset="0" style="stop-color:#ffbd95"/>
				<stop offset="1" style="stop-color:#ffbd95"/>
			</linearGradient>
			<path style="fill:url(#SVGID_00000004544088559279346540000017888901411439023802_);" d="M802.183,1732.739l-43.968,127.152     c-0.728,2.106,0.137,4.438,2.088,5.517c11.985,6.627,55.165,25.78,107.201-7.212c5.421-3.437,9.111-9.042,9.934-15.408     l14.238-110.05H802.183z"/>
			<g>

					<linearGradient id="SVGID_00000179630381224489506980000010064684465653457848_" gradientUnits="userSpaceOnUse" x1="1592.4578" y1="3039.2546" x2="1761.3285" y2="3262.657" gradientTransform="matrix(0.8971 -0.4417 0.4417 0.8971 972.5545 -1794.4351)">
					<stop offset="0" style="stop-color:#ffbd95"/>
					<stop offset="1" style="stop-color:#ffbd95"/>
				</linearGradient>
				<path style="fill:url(#SVGID_00000179630381224489506980000010064684465653457848_);" d="M915.697,1619.955      c0.983,1.997,17.569,148.252,17.569,148.252l-83.71,7.695l-36.315-136.284C813.241,1639.619,899.234,1586.518,915.697,1619.955z      "/>

					<linearGradient id="SVGID_00000134209344456798089470000002037133700625181614_" gradientUnits="userSpaceOnUse" x1="928.9023" y1="1596.2361" x2="741.9388" y2="1902.5857">
					<stop offset="0" style="stop-color:#8d3b26"/>
					<stop offset="1" style="stop-color:#8d3b26"/>
				</linearGradient>
				<path style="fill:url(#SVGID_00000134209344456798089470000002037133700625181614_);" d="M840.479,1663.766l13.499,73.239      c0.173,0.939,0.463,1.828,0.884,2.686c2.575,5.248,12.758,22.654,29.931,11.149c15.582-10.439,29.958-19.734,41.907-19.942      c5.365-0.093,9.917,3.893,10.52,9.225c1.503,13.288,4.338,43.296,2.823,69.742c-0.307,5.367-4.711,9.563-10.084,9.727      c-16.19,0.495-50.365,0.583-77.874-5.786c-3.728-0.863-6.686-3.65-7.715-7.335c-5.012-17.968-20.45-72.521-27.103-87.057      c-6.245-13.644-26.402-16.482-34.952-17.07c-2.803-0.193-5.38-1.514-7.176-3.674c-6.352-7.634-17.774-26.364,5.102-42.995      c4.788-3.481,5.734-10.17,2.109-14.85c-7.216-9.317-14.045-24.894,2.861-40.193c17.184-15.551,35.691-9.711,46.633-3.633      c4.425,2.458,9.862,1.284,13.095-2.609c1.841-2.217,4.67-3.667,9.005-2.592c5.843,1.448,11.606-2.706,12.441-8.667      c1.604-11.452,7.979-25.233,28.766-28.26c36.887-5.372,53.428,32.062,51.585,57.748c-1.844,25.685-42.167,29.236-64.704,23.913      c-17.135-4.047-32.734,11.101-39.226,18.595C840.749,1657.5,839.91,1660.677,840.479,1663.766z"/>

					<linearGradient id="SVGID_00000049924325571791818160000011767597760916926879_" gradientUnits="userSpaceOnUse" x1="1839.7867" y1="3216.1719" x2="1704.339" y2="3077.2061" gradientTransform="matrix(0.8971 -0.4417 0.4417 0.8971 972.5545 -1794.4351)">
					<stop offset="0" style="stop-color:#ffbd95"/>
					<stop offset="1" style="stop-color:#ffbd95"/>
				</linearGradient>
				<path style="fill:url(#SVGID_00000049924325571791818160000011767597760916926879_);" d="M822.447,1746.031      c0,0,1.291-44.894-16.668-49.948c-17.96-5.055-38.156,7.163-23.873,34.739C799.671,1765.124,822.447,1746.031,822.447,1746.031z      "/>
			</g>
		</g>
	</g>
</g>
</svg>