<svg xmlns="http://www.w3.org/2000/svg" xmlns:xlink="http://www.w3.org/1999/xlink" version="1.1" x="0px" y="0px" style="enable-background:new 0 0 3710 3710;" xml:space="preserve" viewBox="473.81 460.68 2762.38 2772.4">
<g id="Illustration">
	<g>
		<g>
			<g>
				<path style="fill:#7D97F4;" d="M833.29,2877.146c59.093-57.676,314.778-306.877,331.18-312.248      c4.615-1.511,9.102-1.288,9.102-1.288c9.051,0.449,16.296,6.031,21.268,11.198c0,0,95.704,338.73,116.972,482.901H826.644      L833.29,2877.146z"/>
				<path style="fill:#91B3FA;" d="M1578.988,3057.708c-33.505-77.208-68.611-137.235-95.705-179.163      c-24.63-38.116-78.812-116.191-164.402-199.539c-43.944-42.793-84.59-75.646-116.699-99.538      c-5.08-5.512-13.127-12.306-24.266-15.034c-1.485-0.364-2.935-0.633-4.343-0.825c32.561,164.7,65.123,329.399,97.684,494.099      C1373.834,3057.708,1476.411,3057.708,1578.988,3057.708z"/>
			</g>
			<g>
				<path style="fill:#91B3FA;" d="M807.991,2721.82c0,0,42.535,11.198,108.997,61.587c66.461,50.39,262.49,273.493,262.49,273.493      l-279.461,41.717l-114.212-374.004C785.805,2724.614,795.296,2717.365,807.991,2721.82z"/>
				<path style="fill:#7D97F4;" d="M543.474,3019.959l219.323-274.344c0,0,17.28-23.795,33.231-23.795l134.226,372.284      l-456.443,19.393L543.474,3019.959z"/>
			</g>
		</g>
		<g>

				<linearGradient id="SVGID_00000080172082640161723890000009136961879563734165_" gradientUnits="userSpaceOnUse" x1="1519.1707" y1="3334.1982" x2="1246.1155" y2="2226.4648">
				<stop offset="0" style="stop-color:#5783c8"/>
				<stop offset="1" style="stop-color:#4b7bc6"/>
			</linearGradient>
			<path style="fill:url(#SVGID_00000080172082640161723890000009136961879563734165_);" d="M1547.172,3071.403h-262.047     c-4.384,0-7.971-3.587-7.971-7.971v-307.968c0-4.384,3.587-7.971,7.971-7.971h258.691c4.384,0,7.971,3.587,7.971,7.971v311.324     C1551.786,3069.337,1549.72,3071.403,1547.172,3071.403z"/>

				<linearGradient id="SVGID_00000020386375522065246910000017774921975422337939_" gradientUnits="userSpaceOnUse" x1="1401.3489" y1="2577.7043" x2="1416.5814" y2="3162.2559">
				<stop offset="0" style="stop-color:#5783c8"/>
				<stop offset="1" style="stop-color:#4b7bc6"/>
			</linearGradient>
			<path style="fill:url(#SVGID_00000020386375522065246910000017774921975422337939_);" d="M1589.45,3073.784     c0-32.799-26.835-59.635-59.634-59.635h-241.676c-32.799,0-48.649,26.836-48.649,59.635v15.693h349.96V3073.784z"/>

				<linearGradient id="SVGID_00000153678127654489985500000013478337522565726381_" gradientUnits="userSpaceOnUse" x1="1857.988" y1="1652.2268" x2="1253.1055" y2="2482.376">
				<stop offset="0" style="stop-color:#5783c8"/>
				<stop offset="1" style="stop-color:#4b7bc6"/>
			</linearGradient>
			<path style="fill:url(#SVGID_00000153678127654489985500000013478337522565726381_);" d="M1483.416,2144.402     c-5.319-11.665-12.916-31.635-30.21-38.841c-2.038-0.849-6.741,1.282-9.024-1.177c-2.31-2.49-1.127-7.399,0.328-11.321     c-3.734,2.003-9.045,4.237-15.682,5.194c-15.669,2.26-27.984-4.144-32.444-6.764c-0.938,3.905-1.875,7.809-2.813,11.714     c-12.201-0.31-24.402-0.62-36.603-0.93c-20.564,135.339,14.297,245.962,82.548,274.83c13.359,5.65,32.462,10.056,58.783,6.314     c-0.239-3.008-1.545-20.098-1.545-20.098s-1.177-43.941,1.177-69.05C1500.286,2269.163,1505.949,2193.814,1483.416,2144.402z"/>

				<linearGradient id="SVGID_00000138550422522014892520000004619188791056496315_" gradientUnits="userSpaceOnUse" x1="1459.2648" y1="2142.4956" x2="2197.1477" y2="787.1984">
				<stop offset="0" style="stop-color:#5783c8"/>
				<stop offset="1" style="stop-color:#4b7bc6"/>
			</linearGradient>
			<path style="fill:url(#SVGID_00000138550422522014892520000004619188791056496315_);" d="M1358.478,2102.349     c-6.104-3.276-21.35-9.309-35.917-25.134c-3.807-4.135-14.644-12.092-18.44-28.542c-2.354-10.201-4.708-122.015-5.885-135.747     c-0.526-6.139,2.953-14.636,6.67-31.779c12.406-57.225,16.791-67.632,12.371-86.071c-4.33-18.065-14.399-29.505-18.648-35.944     c-5.465-8.283-10.393-13.398-16.576-13.649c-13.08-0.531-27.791,23.229-32.858,45.821c-4.562,20.34,0.163,42.655,9.613,87.285     c4.405,20.804,10.114,43.567-0.088,51.401c-3.877,2.977-13.806,6.68-17.309,15.357c-0.94,2.328-1.391,4.923-1.391,4.923     c-0.931,5.995,0.418,11.085,1.329,13.66c5.088,14.384,19.536,15.391,27.463,24.324c13.875,15.639-8.423,37.324-6.277,75.328     c1.758,31.141,17.82,35.882,33.989,87.882c6.761,21.743,9.924,40.118,11.522,51.788c5.607,95.47,5.345,168.529,3.923,218.921     c-2.262,80.151-7.232,94.901-3.139,149.086c1.776,23.502,4.601,45.74-0.013,76.514c-5.818,38.802-20.159,69.143-31.661,89.05     l265.504-2.746c-9.363-16.349-21.678-41.561-29.149-74.123c-9.302-40.547-7.166-75.373-4.592-117.334     c4.066-66.288,13.895-79.421,3.923-105.145c-1.554-4.008-12.755-31.97-14.516-53.75c-0.005-0.069-0.016-0.2-0.024-0.303     c-59.562-45.717-84.161-91.379-95.387-125.861C1383.938,2199.272,1396.057,2122.513,1358.478,2102.349z"/>

				<linearGradient id="SVGID_00000039825498213131301280000006194925643130087088_" gradientUnits="userSpaceOnUse" x1="1574.7823" y1="1759.917" x2="1040.8173" y2="2580.3318">
				<stop offset="0" style="stop-color:#5783c8"/>
				<stop offset="1" style="stop-color:#4b7bc6"/>
			</linearGradient>
			<path style="fill:url(#SVGID_00000039825498213131301280000006194925643130087088_);" d="M1477.531,2018.856     c-0.064-0.808-0.136-1.551-0.209-2.218c14.798-3.646,40.544-10.589,39.965-15.306c-0.608-4.951-29.958-5.249-44.93-5.135     c-2.107-3.541-4.213-7.082-6.32-10.624c3.478-6.299,21.005-38.35,16.202-41.783c-4.779-3.416-29.212,23.243-34.116,28.64     c-5.901-1.347-11.802-2.693-17.703-4.04c-5.245-25.706-12.264-54.907-17.232-54.418c-4.689,0.461-6.073,27.226-6.299,53.992     c-5.657,1.423-11.313,2.846-16.97,4.269c-13.209-14.594-30.407-32.449-33.75-30.013c-3.465,2.525,9.281,25.892,19.132,42.839     c-1.973,4.48-3.945,8.959-5.918,13.439c-9.173,0.777-38.669,3.537-38.846,8.587c-0.171,4.839,26.65,9.491,36.202,11.037     c0.016,7.12,0.696,16.505,3.396,27.116c6.09,23.928,25.1,64.466,50.312,65.61     C1449.717,2112.177,1480.783,2060.114,1477.531,2018.856z"/>

				<linearGradient id="SVGID_00000173849635366936232190000012916986050871415229_" gradientUnits="userSpaceOnUse" x1="1401.4434" y1="2270.2097" x2="1416.7186" y2="2856.4023">
				<stop offset="0" style="stop-color:#5783c8"/>
				<stop offset="1" style="stop-color:#4b7bc6"/>
			</linearGradient>
			<path style="fill:url(#SVGID_00000173849635366936232190000012916986050871415229_);" d="M1589.384,2811.706h-349.828     c-3.057,0-5.558-2.501-5.558-5.558v-72.057c0-3.057,2.501-5.559,5.558-5.559h349.828c3.057,0,5.558,2.501,5.558,5.559v72.057     C1594.943,2809.205,1592.441,2811.706,1589.384,2811.706z"/>
		</g>
		<g>

				<linearGradient id="SVGID_00000128455158471840497010000007189814069888694944_" gradientUnits="userSpaceOnUse" x1="1737.006" y1="1662.6434" x2="1748.1803" y2="1662.6434">
				<stop offset="0" style="stop-color:#5783c8"/>
				<stop offset="1" style="stop-color:#4b7bc6"/>
			</linearGradient>
			<path style="fill:url(#SVGID_00000128455158471840497010000007189814069888694944_);" d="M1737.006,1730.652l4.126-127.895     c0.494-4.849,2.284-8.149,3.674-8.122c1.383,0.026,3.028,3.354,3.374,8.122c0,42.632,0,85.263,0,127.895H1737.006z"/>

				<linearGradient id="SVGID_00000049918346831506163610000007774601293773225133_" gradientUnits="userSpaceOnUse" x1="1935.8157" y1="2163.9036" x2="1679.8159" y2="3333.4736">
				<stop offset="0" style="stop-color:#5783c8"/>
				<stop offset="1" style="stop-color:#4b7bc6"/>
			</linearGradient>
			<path style="fill:url(#SVGID_00000049918346831506163610000007774601293773225133_);" d="M2052.016,2935.275     c-18.565-24.754-127.895-272.292-165.026-383.684c-37.131-111.392-72.199-286.732-82.513-338.302     c-10.314-51.57-26.817-410.501-26.817-410.501h-72.198c0,0-12.377,321.8-30.942,408.438     c-18.565,86.638-53.633,253.727-86.638,340.365c-33.005,86.638-165.026,404.312-185.654,432.754     c-20.628,28.442-66.01,62.323-66.01,62.323h228.492c-2.374-11.215-3.645-22.837-3.645-34.759     c0-92.28,74.808-167.088,167.088-167.088s167.088,74.808,167.088,167.088c0,11.922-1.271,23.544-3.645,34.759h3.645h253.727     C2148.968,3046.667,2070.581,2960.029,2052.016,2935.275z M1649.56,2706.637c0,0,47.444-45.717,51.57-194.24h86.845     c0,0-6.188,130.628,61.885,194.24H1649.56z"/>

				<linearGradient id="SVGID_00000111913616920072049770000010598568644163290240_" gradientUnits="userSpaceOnUse" x1="1742.5931" y1="2846.4497" x2="1742.5931" y2="2362.0764">
				<stop offset="0" style="stop-color:#5783c8"/>
				<stop offset="1" style="stop-color:#4b7bc6"/>
			</linearGradient>
			<path style="fill:url(#SVGID_00000111913616920072049770000010598568644163290240_);" d="M1893.372,2475.782h-301.557     c-2.73,0-4.964-2.234-4.964-4.964v-41.127c0-2.73,2.234-4.964,4.964-4.964h301.557c2.73,0,4.964,2.234,4.964,4.964v41.127     C1898.336,2473.548,1896.102,2475.782,1893.372,2475.782z"/>

				<linearGradient id="SVGID_00000046318759618257511370000013877351859549532047_" gradientUnits="userSpaceOnUse" x1="1914.9031" y1="2433.6223" x2="1472.9844" y2="3251.9919">
				<stop offset="0" style="stop-color:#5783c8"/>
				<stop offset="1" style="stop-color:#4b7bc6"/>
			</linearGradient>
			<path style="fill:url(#SVGID_00000046318759618257511370000013877351859549532047_);" d="M2014.627,2780.563h-544.067     c-2.978,0-5.415-2.437-5.415-5.415v-44.865c0-2.979,2.437-5.415,5.415-5.415h544.067c2.979,0,5.415,2.437,5.415,5.415v44.865     C2020.042,2778.126,2017.605,2780.563,2014.627,2780.563z"/>

				<linearGradient id="SVGID_00000016069654106598375220000017645706062755990975_" gradientUnits="userSpaceOnUse" x1="1765.5531" y1="1668.2169" x2="1695.0958" y2="2196.6499">
				<stop offset="0" style="stop-color:#5783c8"/>
				<stop offset="1" style="stop-color:#4b7bc6"/>
			</linearGradient>
			<path style="fill:url(#SVGID_00000016069654106598375220000017645706062755990975_);" d="M1773.622,1717.244     c10.403,6.899,12.757,19.097,13.924,25.141c3.46,17.924-4.934,23.856-0.387,38.291c1.134,3.598,5.928,9.538,15.471,21.273     c19.019,23.386,24.29,27.752,24.754,37.131c0.468,9.451-4.309,16.406-5.575,18.16c-10.109,14.002-30.395,13.556-30.395,13.556     h-42.932h-11.776h-42.932c0,0-20.287,0.446-30.395-13.556c-1.266-1.753-6.043-8.709-5.575-18.16     c0.464-9.378,5.735-13.745,24.754-37.131c9.543-11.734,14.338-17.675,15.471-21.273c4.548-14.435-3.847-20.367-0.387-38.291     c1.167-6.043,3.521-18.242,13.924-25.141C1721.204,1710.851,1763.982,1710.851,1773.622,1717.244z"/>
		</g>
		<g>
			<g>

					<linearGradient id="SVGID_00000168079087300095380500000007051169024387071888_" gradientUnits="userSpaceOnUse" x1="1454.0571" y1="1265.8071" x2="1255.494" y2="861.987">
					<stop offset="0" style="stop-color:#26547c"/>
					<stop offset="1" style="stop-color:#00243f"/>
				</linearGradient>
				<path style="fill:url(#SVGID_00000168079087300095380500000007051169024387071888_);" d="M1353.113,839.72l-93.499-58.026      c-1.924-1.194-4.232-1.607-6.45-1.153l-121.68,24.876c-3.279,0.67-5.9,3.129-6.779,6.359c-0.878,3.23,0.136,6.678,2.624,8.917      l72.863,65.571L1353.113,839.72z"/>

					<linearGradient id="SVGID_00000018945953628807726590000004836474741041928607_" gradientUnits="userSpaceOnUse" x1="1635.5994" y1="708.9442" x2="787.7997" y2="1155.1537">
					<stop offset="0" style="stop-color:#26547c"/>
					<stop offset="1" style="stop-color:#00243f"/>
				</linearGradient>
				<path style="fill:url(#SVGID_00000018945953628807726590000004836474741041928607_);" d="M542.779,947.098      c0,0,1134.022-202.507,1178.259-188.322c44.236,14.184,123.302,61.163,146.617,61.266      c23.315,0.103,104.856,14.452,83.615,72.647c-21.241,58.195-961.635,235.908-1071.051,198.121      c-109.416-37.787-386.555-108.956-386.555-108.956S468.192,942.106,542.779,947.098z"/>

					<linearGradient id="SVGID_00000061457173783217401420000017945007583691761322_" gradientUnits="userSpaceOnUse" x1="622.0112" y1="569.8344" x2="700.0981" y2="942.4197">
					<stop offset="0" style="stop-color:#26547c"/>
					<stop offset="1" style="stop-color:#00243f"/>
				</linearGradient>
				<path style="fill:url(#SVGID_00000061457173783217401420000017945007583691761322_);" d="M871.024,892.66L707.971,801.81      c-10.224-5.696-18.644-14.148-24.303-24.392l-65.869-119.247c-5.219-9.449-16.003-14.398-26.566-12.176      c-33.819,7.113-103.985,22.822-104.329,30.782c-0.453,10.49,33.567,273.891,33.567,273.891L871.024,892.66z"/>

					<linearGradient id="SVGID_00000012456796330616882900000012815088266201113224_" gradientUnits="userSpaceOnUse" x1="664.6376" y1="914.1464" x2="767.2662" y2="434.4709">
					<stop offset="0" style="stop-color:#26547c"/>
					<stop offset="1" style="stop-color:#00243f"/>
				</linearGradient>
				<path style="fill:url(#SVGID_00000012456796330616882900000012815088266201113224_);" d="M553.338,984.833l-13.625,55.519      c-2.299,9.368-0.175,18.903,5.761,26.506c5.936,7.602,15.03,11.695,24.676,11.738l57.63,0.254      c9.101,0.04,17.772-3.491,23.78-10.326l103.02-117.008L553.338,984.833z"/>

					<linearGradient id="SVGID_00000083048409082205516160000009355923017789080734_" gradientUnits="userSpaceOnUse" x1="1265.6566" y1="485.2534" x2="1258.9636" y2="853.3757">
					<stop offset="0" style="stop-color:#26547c"/>
					<stop offset="1" style="stop-color:#00243f"/>
				</linearGradient>
				<path style="fill:url(#SVGID_00000083048409082205516160000009355923017789080734_);" d="M1147.059,1171.06      c0,0,34.783,42.995,91.614,43.246c56.83,0.251,126.844-15.178,140.048-35.23c13.203-20.051,41.83-168.473-73.67-147.605      C1189.551,1052.339,1054.61,1119.067,1147.059,1171.06z"/>

					<linearGradient id="SVGID_00000078747271123097988500000017344789679155732910_" gradientUnits="userSpaceOnUse" x1="1159.0343" y1="1029.2831" x2="835.7638" y2="2645.6404">
					<stop offset="0" style="stop-color:#26547c"/>
					<stop offset="1" style="stop-color:#00243f"/>
				</linearGradient>
				<path style="fill:url(#SVGID_00000078747271123097988500000017344789679155732910_);" d="M1083.037,1017.373l269.498-46.502      l-227.133,289.873c-3.184,4.064-7.923,6.611-13.07,7.024l-161.39,12.96c-6.986,0.561-13.688-2.877-17.307-8.879      c-3.62-6.002-3.533-13.534,0.223-19.451L1083.037,1017.373z"/>

					<linearGradient id="SVGID_00000158722495676761007740000005144258854073651386_" gradientUnits="userSpaceOnUse" x1="1300.8851" y1="1199.2369" x2="1682.4706" y2="556.1954">
					<stop offset="0" style="stop-color:#7d97f4"/>
					<stop offset="1" style="stop-color:#7d97f4"/>
				</linearGradient>
				<path style="fill:url(#SVGID_00000158722495676761007740000005144258854073651386_);" d="M1363.887,1183.11      c0.692,0.148,1.365,0.179,2.024,0.094c3.605-0.466,7.227-4.19,10.771-11.071c11.393-22.124,18.726-69.544-0.633-105.69l0,0      c-5.738-10.705-16.38-17.597-28.485-18.483c-9.938-0.706-22.637,2.215-26.71,20.165c-6.381,28.136,20.449,93.089,35.7,109.861      C1359.237,1180.939,1361.657,1182.634,1363.887,1183.11z M1351.281,1053.441c8.623,1.844,16.226,7.462,20.435,15.324l0,0      c18.319,34.197,11.185,80.555,0.597,101.12c-3.068,5.962-5.704,8.278-7.028,8.447c-0.172,0.027-1.698,0.094-5.097-3.65      c-15.863-17.447-40.179-80.616-34.541-105.472c2.686-11.843,9.741-17.189,21.566-16.348      C1348.588,1052.958,1349.949,1053.156,1351.281,1053.441z"/>

					<linearGradient id="SVGID_00000142881436985986118320000003820041763608507800_" gradientUnits="userSpaceOnUse" x1="980.3129" y1="561.7996" x2="672.4276" y2="740.2838">
					<stop offset="0" style="stop-color:#26547c"/>
					<stop offset="0.3673" style="stop-color:#FF867E"/>
					<stop offset="1" style="stop-color:#00243f"/>
				</linearGradient>
				<polygon style="fill:url(#SVGID_00000142881436985986118320000003820041763608507800_);" points="493.218,739.268      521.196,739.392 546.637,918.111 517.199,924.854     "/>
				<g>
					<g>

							<linearGradient id="SVGID_00000163057654710322396660000005394610912677858482_" gradientUnits="userSpaceOnUse" x1="852.6778" y1="-680.3259" x2="761.2078" y2="-289.9063" gradientTransform="matrix(1 0.0045 -0.0045 1 541.547 -152.249)">
							<stop offset="0" style="stop-color:#092e4c"/>
							<stop offset="1" style="stop-color:#91b3fa"/>
						</linearGradient>
						<path style="fill:url(#SVGID_00000163057654710322396660000005394610912677858482_);" d="M952.152,956.099        c0.041-9.204,7.535-16.632,16.739-16.591l1.06,0.004c9.204,0.04,16.632,7.535,16.591,16.739l-0.048,10.885        c-0.04,9.203-7.534,16.632-16.739,16.591l-1.06-0.005c-9.204-0.04-16.632-7.534-16.591-16.738L952.152,956.099z"/>

							<linearGradient id="SVGID_00000177442940680302477370000009299961556463101824_" gradientUnits="userSpaceOnUse" x1="912.1285" y1="-666.4001" x2="820.6583" y2="-275.98" gradientTransform="matrix(1 0.0045 -0.0045 1 541.547 -152.249)">
							<stop offset="0" style="stop-color:#092e4c"/>
							<stop offset="1" style="stop-color:#91b3fa"/>
						</linearGradient>
						<path style="fill:url(#SVGID_00000177442940680302477370000009299961556463101824_);" d="M1016.04,951.468        c0.041-9.203,7.535-16.632,16.738-16.591l1.059,0.005c9.204,0.041,16.632,7.535,16.592,16.738l-0.048,10.885        c-0.041,9.204-7.535,16.632-16.738,16.591l-1.06-0.005c-9.203-0.04-16.632-7.535-16.591-16.738L1016.04,951.468z"/>

							<linearGradient id="SVGID_00000042712881570254070590000008169991413915212215_" gradientUnits="userSpaceOnUse" x1="969.3958" y1="-652.985" x2="877.9257" y2="-262.5652" gradientTransform="matrix(1 0.0045 -0.0045 1 541.547 -152.249)">
							<stop offset="0" style="stop-color:#092e4c"/>
							<stop offset="1" style="stop-color:#91b3fa"/>
						</linearGradient>
						<path style="fill:url(#SVGID_00000042712881570254070590000008169991413915212215_);" d="M1079.97,937.011        c0.041-9.204,7.535-16.632,16.738-16.592l1.06,0.005c9.203,0.04,16.632,7.534,16.591,16.738l-0.048,10.885        c-0.041,9.203-7.535,16.632-16.739,16.591l-1.059-0.005c-9.204-0.041-16.632-7.535-16.591-16.739L1079.97,937.011z"/>

							<linearGradient id="SVGID_00000041981411380025571790000001937045685483188359_" gradientUnits="userSpaceOnUse" x1="1023.0983" y1="-640.4082" x2="931.6283" y2="-249.9886" gradientTransform="matrix(1 0.0045 -0.0045 1 541.547 -152.249)">
							<stop offset="0" style="stop-color:#092e4c"/>
							<stop offset="1" style="stop-color:#91b3fa"/>
						</linearGradient>
						<path style="fill:url(#SVGID_00000041981411380025571790000001937045685483188359_);" d="M1138.967,927.446        c0.041-9.204,7.535-16.632,16.738-16.592l1.059,0.005c9.204,0.041,16.632,7.535,16.592,16.738l-0.048,10.885        c-0.04,9.204-7.535,16.632-16.738,16.591l-1.059-0.005c-9.204-0.041-16.632-7.535-16.592-16.739L1138.967,927.446z"/>

							<linearGradient id="SVGID_00000090263977784903022830000007883262786611581346_" gradientUnits="userSpaceOnUse" x1="1086.1145" y1="-625.6473" x2="994.6444" y2="-235.2274" gradientTransform="matrix(1 0.0045 -0.0045 1 541.547 -152.249)">
							<stop offset="0" style="stop-color:#092e4c"/>
							<stop offset="1" style="stop-color:#91b3fa"/>
						</linearGradient>
						<path style="fill:url(#SVGID_00000090263977784903022830000007883262786611581346_);" d="M1207.789,917.924        c0.041-9.204,7.535-16.632,16.738-16.592l1.06,0.005c9.203,0.041,16.632,7.535,16.591,16.738l-0.048,10.885        c-0.041,9.204-7.535,16.632-16.738,16.591l-1.06-0.004c-9.204-0.041-16.632-7.535-16.592-16.739L1207.789,917.924z"/>

							<linearGradient id="SVGID_00000156557121447987190430000008160891416444105889_" gradientUnits="userSpaceOnUse" x1="1144.4736" y1="-611.9774" x2="1053.0035" y2="-221.5576" gradientTransform="matrix(1 0.0045 -0.0045 1 541.547 -152.249)">
							<stop offset="0" style="stop-color:#092e4c"/>
							<stop offset="1" style="stop-color:#91b3fa"/>
						</linearGradient>
						<path style="fill:url(#SVGID_00000156557121447987190430000008160891416444105889_);" d="M1271.699,908.38        c0.04-9.204,7.535-16.632,16.738-16.591l1.06,0.004c9.204,0.041,16.632,7.535,16.592,16.739l-0.048,10.885        c-0.04,9.204-7.535,16.632-16.738,16.591l-1.06-0.005c-9.204-0.04-16.632-7.535-16.592-16.739L1271.699,908.38z"/>

							<linearGradient id="SVGID_00000029006584020372656350000013706674431665513130_" gradientUnits="userSpaceOnUse" x1="1201.7407" y1="-598.561" x2="1110.2708" y2="-208.1413" gradientTransform="matrix(1 0.0045 -0.0045 1 541.547 -152.249)">
							<stop offset="0" style="stop-color:#092e4c"/>
							<stop offset="1" style="stop-color:#91b3fa"/>
						</linearGradient>
						<path style="fill:url(#SVGID_00000029006584020372656350000013706674431665513130_);" d="M1335.63,893.923        c0.04-9.203,7.535-16.632,16.739-16.591l1.06,0.005c9.203,0.04,16.632,7.534,16.591,16.738l-0.048,10.885        c-0.041,9.204-7.535,16.632-16.739,16.592l-1.059-0.005c-9.203-0.04-16.632-7.535-16.591-16.738L1335.63,893.923z"/>

							<linearGradient id="SVGID_00000095334304952075010270000016508654121148597889_" gradientUnits="userSpaceOnUse" x1="1256.5348" y1="-585.7283" x2="1165.0647" y2="-195.3085" gradientTransform="matrix(1 0.0045 -0.0045 1 541.547 -152.249)">
							<stop offset="0" style="stop-color:#092e4c"/>
							<stop offset="1" style="stop-color:#91b3fa"/>
						</linearGradient>
						<path style="fill:url(#SVGID_00000095334304952075010270000016508654121148597889_);" d="M1394.604,889.27        c0.041-9.203,7.535-16.632,16.739-16.591l1.059,0.005c9.204,0.041,16.632,7.535,16.591,16.739l-0.048,10.885        c-0.041,9.204-7.535,16.632-16.738,16.592l-1.06-0.005c-9.203-0.04-16.632-7.534-16.591-16.738L1394.604,889.27z"/>

							<linearGradient id="SVGID_00000149380482815650967520000016673122768609853106_" gradientUnits="userSpaceOnUse" x1="1314.8945" y1="-572.0613" x2="1223.4244" y2="-181.6414" gradientTransform="matrix(1 0.0045 -0.0045 1 541.547 -152.249)">
							<stop offset="0" style="stop-color:#092e4c"/>
							<stop offset="1" style="stop-color:#91b3fa"/>
						</linearGradient>
						<path style="fill:url(#SVGID_00000149380482815650967520000016673122768609853106_);" d="M1458.514,879.726        c0.041-9.204,7.535-16.632,16.739-16.592l1.06,0.005c9.204,0.041,16.632,7.535,16.591,16.738l-0.048,10.885        c-0.04,9.204-7.534,16.632-16.738,16.591l-1.06-0.004c-9.203-0.041-16.632-7.534-16.591-16.739L1458.514,879.726z"/>

							<linearGradient id="SVGID_00000105402276944300188600000017627841165793569923_" gradientUnits="userSpaceOnUse" x1="1372.1617" y1="-558.6454" x2="1280.6917" y2="-168.2257" gradientTransform="matrix(1 0.0045 -0.0045 1 541.547 -152.249)">
							<stop offset="0" style="stop-color:#092e4c"/>
							<stop offset="1" style="stop-color:#91b3fa"/>
						</linearGradient>
						<path style="fill:url(#SVGID_00000105402276944300188600000017627841165793569923_);" d="M1522.445,865.27        c0.041-9.204,7.535-16.632,16.738-16.591l1.06,0.005c9.204,0.041,16.632,7.535,16.591,16.739l-0.048,10.885        c-0.04,9.204-7.534,16.632-16.738,16.591l-1.06-0.004c-9.204-0.041-16.632-7.535-16.592-16.739L1522.445,865.27z"/>

							<linearGradient id="SVGID_00000096772496427863276900000018445755575603804340_" gradientUnits="userSpaceOnUse" x1="1426.9547" y1="-545.8078" x2="1335.4847" y2="-155.3881" gradientTransform="matrix(1 0.0045 -0.0045 1 541.547 -152.249)">
							<stop offset="0" style="stop-color:#092e4c"/>
							<stop offset="1" style="stop-color:#91b3fa"/>
						</linearGradient>
						<path style="fill:url(#SVGID_00000096772496427863276900000018445755575603804340_);" d="M1581.42,860.617        c0.041-9.204,7.535-16.632,16.739-16.591l1.06,0.005c9.204,0.04,16.632,7.534,16.591,16.738l-0.048,10.885        c-0.04,9.204-7.535,16.632-16.739,16.591l-1.059-0.004c-9.204-0.04-16.632-7.535-16.591-16.739L1581.42,860.617z"/>
					</g>

						<linearGradient id="SVGID_00000164478345172720268630000002647324258515649694_" gradientUnits="userSpaceOnUse" x1="1578.0532" y1="-510.496" x2="1486.5785" y2="-120.0563" gradientTransform="matrix(1 0.0045 -0.0045 1 541.547 -152.249)">
						<stop offset="0" style="stop-color:#092e4c"/>
						<stop offset="1" style="stop-color:#91b3fa"/>
					</linearGradient>
					<path style="fill:url(#SVGID_00000164478345172720268630000002647324258515649694_);" d="M1800.03,794.163l-112.194,30.623       c-8.426,2.308-14.025,10.299-13.288,19.005c0.876,10.347,2.386,22.043,4.698,21.065c4.088-1.731,179.954-45.576,179.954-45.576       L1800.03,794.163z"/>
				</g>
			</g>
		</g>
		<g>

				<linearGradient id="SVGID_00000154400667117827129640000018387799682873485467_" gradientUnits="userSpaceOnUse" x1="1288.9014" y1="2750.5835" x2="1434.4706" y2="1776.7775">
				<stop offset="0" style="stop-color:#5783c8"/>
				<stop offset="1" style="stop-color:#4b7bc6"/>
			</linearGradient>
			<path style="fill:url(#SVGID_00000154400667117827129640000018387799682873485467_);" d="M1955.543,3128.058     c-24.332-13.154-52.47-23.164-77.228-34.89c-133.326-63.146-276.621-110.17-421.213-139.046     c-92.631-18.499-191.925-25.704-286.086-14.359c-351.378,42.343-728.166,143.304-687.838,182.289     c40.328,38.984,108.717,33.803,217.688,33.705c108.971-0.098,251.464-53.941,360.351-9.544     c164.152,66.93,336.41,5.083,506.269,18.491c115.138,9.088,236.555,21.694,351.89,19.33     c38.437-0.788,93.091-22.755,43.067-52.095C1960.182,3130.613,1957.88,3129.321,1955.543,3128.058z"/>
			<g>
				<path style="fill:#7D97F4;" d="M1237.822,3146.524c39.743,0.002,80.688-9.513,139.001-32.826      c142.615-57.019,318.017-25.516,380.617-1.329c2.073,0.809,4.413-0.228,5.215-2.308c0.802-2.078-0.23-4.413-2.309-5.214      c-63.562-24.565-241.675-56.546-386.519,1.361c-121.272,48.487-166.134,35.986-286.031,2.585      c-21.394-5.958-45.641-12.715-72.953-19.839c-122.837-32.038-199.908-14.395-261.836-0.219      c-28.663,6.563-53.423,12.272-77.779,11.807c-21.421-0.368-34.885-5.256-38.935-14.133      c-5.669-12.423,7.145-31.924,12.561-38.391c1.43-1.705,1.207-4.249-0.498-5.679c-1.706-1.434-4.247-1.207-5.679,0.494      c-0.929,1.105-22.655,27.312-13.729,46.909c5.504,12.085,21.028,18.431,46.14,18.865c25.339,0.412,50.54-5.333,79.719-12.012      c61.07-13.981,137.076-31.38,258,0.163c27.248,7.107,51.461,13.851,72.824,19.804      C1150.067,3134.515,1193.185,3146.522,1237.822,3146.524z"/>
			</g>
		</g>
		<g>
			<g>
				<g>

						<linearGradient id="SVGID_00000118388872786578050080000011081451301737605013_" gradientUnits="userSpaceOnUse" x1="2200.3264" y1="1998.2449" x2="2477.3181" y2="3356.825">
						<stop offset="0" style="stop-color:#092e4c"/>
						<stop offset="1" style="stop-color:#11385a"/>
					</linearGradient>
					<path style="fill:url(#SVGID_00000118388872786578050080000011081451301737605013_);" d="M2104.617,2069.738       c-5.063,1.013,38.725,746.103,72.287,913.911l69.705-5.163l15.49-753.848h25.817l38.725,740.939h56.797l54.215-903.585       C2437.653,2061.993,2220.793,2046.503,2104.617,2069.738z"/>

						<linearGradient id="SVGID_00000022532062973635435290000009380927393969591944_" gradientUnits="userSpaceOnUse" x1="2220.7903" y1="3058.5928" x2="2231.3591" y2="2780.2749">
						<stop offset="0" style="stop-color:#5783c8"/>
						<stop offset="1" style="stop-color:#4b7bc6"/>
					</linearGradient>
					<path style="fill:url(#SVGID_00000022532062973635435290000009380927393969591944_);" d="M2176.904,3032.701       c0,0,56.797,7.744,90.358,0c0,0,10.327-28.398-20.653-54.215c-30.98-25.817-69.705,5.163-69.705,5.163V3032.701z"/>

						<linearGradient id="SVGID_00000150077195406440139550000004023312356336962717_" gradientUnits="userSpaceOnUse" x1="2412.8745" y1="3065.8875" x2="2423.4434" y2="2787.5684">
						<stop offset="0" style="stop-color:#5783c8"/>
						<stop offset="1" style="stop-color:#4b7bc6"/>
					</linearGradient>
					<path style="fill:url(#SVGID_00000150077195406440139550000004023312356336962717_);" d="M2326.641,2965.578       c0,0-2.582,41.307,0,61.96c0,0,108.432,3.615,168.045,3.283c10.949-0.061,14.021-14.978,4.007-19.405       c-19.173-8.477-53.565-36.699-115.255-45.838H2326.641z"/>
				</g>
				<g>

						<linearGradient id="SVGID_00000062896611464571527690000005549393767133923241_" gradientUnits="userSpaceOnUse" x1="2324.5264" y1="2498.9658" x2="2244.2129" y2="1746.022">
						<stop offset="0" style="stop-color:#049966"/>
						<stop offset="1" style="stop-color:#058258"/>
					</linearGradient>
					<path style="fill:url(#SVGID_00000062896611464571527690000005549393767133923241_);" d="M2127.853,1468.209       c0,0,149.737-49.052,268.494-5.163l59.379,622.183c0,0-265.913-7.746-356.271,12.908L2127.853,1468.209z"/>

						<linearGradient id="SVGID_00000113355217059577850220000009162958075002864518_" gradientUnits="userSpaceOnUse" x1="2242.2302" y1="1406.4218" x2="1832.1013" y2="2356.0149">
						<stop offset="0" style="stop-color:#092e4c"/>
						<stop offset="1" style="stop-color:#11385a"/>
					</linearGradient>
					<path style="fill:url(#SVGID_00000113355217059577850220000009162958075002864518_);" d="M1996.187,1519.842       c0,0,87.777-49.051,170.39-61.96l-24.765,631.526c-0.617,15.722-11.923,28.974-27.351,32.06l-8.797,1.76       c-8.461,1.693-16.297-4.924-16.048-13.549l7.727-266.575c1.392-48.02-7.355-95.793-25.668-140.205L1996.187,1519.842z"/>

						<linearGradient id="SVGID_00000136381825695989129810000006994561280078765705_" gradientUnits="userSpaceOnUse" x1="2035.4215" y1="1333.5378" x2="2733.0955" y2="2077.0178">
						<stop offset="0" style="stop-color:#092e4c"/>
						<stop offset="1" style="stop-color:#11385a"/>
					</linearGradient>
					<path style="fill:url(#SVGID_00000136381825695989129810000006994561280078765705_);" d="M2355.04,1452.719       c0,0,129.084,10.327,203.952,77.45l-58.192,164.309c-19.58,55.283-29.585,113.501-29.585,172.149l-12.25,236.854       c-0.369,7.133-6.261,12.729-13.403,12.729l0,0c-17.631,0-32.348-13.459-33.92-31.02L2355.04,1452.719z"/>
				</g>
				<g>

						<linearGradient id="SVGID_00000144309185723509174170000009908673550839881645_" gradientUnits="userSpaceOnUse" x1="2250.3804" y1="1562.9152" x2="2267.8254" y2="1413.6631">
						<stop offset="0" style="stop-color:#febc96"/>
						<stop offset="1" style="stop-color:#fda47d"/>
					</linearGradient>
					<path style="fill:url(#SVGID_00000144309185723509174170000009908673550839881645_);" d="M2210.466,1375.269l-2.229,73.549       c-0.22,7.273,4.291,13.826,11.153,16.247c18.805,6.633,57.735,16.718,94.629,3.508c7.442-2.665,11.922-10.284,10.772-18.106       l-11.058-75.198H2210.466z"/>
					<g>

							<linearGradient id="SVGID_00000170240362525468922210000010645358479188845985_" gradientUnits="userSpaceOnUse" x1="2273.2722" y1="1395.8525" x2="2266.5994" y2="1203.5571">
							<stop offset="0" style="stop-color:#febc96"/>
							<stop offset="1" style="stop-color:#fda47d"/>
						</linearGradient>
						<path style="fill:url(#SVGID_00000170240362525468922210000010645358479188845985_);" d="M2179.486,1241.022        c0,0,12.909,131.666,41.307,165.227c0,0,85.195,7.746,116.175-10.326c0,0,21.944-65.833,19.362-153.61        c0,0,4.231-79.875-83.904-86.486C2169.159,1148.082,2179.486,1241.022,2179.486,1241.022z"/>
						<g>

								<linearGradient id="SVGID_00000034806246520661523290000001967555437324605871_" gradientUnits="userSpaceOnUse" x1="2363.3992" y1="1392.7267" x2="2356.7263" y2="1200.429">
								<stop offset="0" style="stop-color:#febc96"/>
								<stop offset="1" style="stop-color:#fda47d"/>
							</linearGradient>
							<path style="fill:url(#SVGID_00000034806246520661523290000001967555437324605871_);" d="M2347.295,1282.328         c0,0,7.745-23.235,20.653-23.235c12.909,0-2.581,61.961-20.653,61.961V1282.328z"/>

								<linearGradient id="SVGID_00000005244856421356146980000007774810339605580698_" gradientUnits="userSpaceOnUse" x1="2183.6243" y1="1398.964" x2="2176.9514" y2="1206.6686">
								<stop offset="0" style="stop-color:#febc96"/>
								<stop offset="1" style="stop-color:#fda47d"/>
							</linearGradient>
							<path style="fill:url(#SVGID_00000005244856421356146980000007774810339605580698_);" d="M2191.234,1288.431         c0,0-10.807-21.979-23.598-20.238c-12.79,1.74,10.914,61.046,28.821,58.609L2191.234,1288.431z"/>
						</g>
						<path style="fill:#b2b2b2;" d="M2188.398,1310.488c0,0,2.895,78.647,37.486,118.536c3.175,3.661,7.765,5.79,12.605,6.022        c17.656,0.85,62.792,2.367,88.242-2.704c6.335-1.262,11.549-5.728,13.634-11.841c6.257-18.343,17.119-47.27,13.383-113.646        l-20.762,49.474c-15.381,40.884-23.729-8.744-30.871-8.167h-46.47c-4.898,0.395-10.327,30.98-28.474,22.02L2188.398,1310.488z        "/>
						<path style="fill:#b2b2b2;" d="M2321.478,1210.042c0,0-65.775,67.65-137.445,67.386c0,0-40.69-108.693,39.342-126.765        c80.031-18.072,82.613,5.163,82.613,5.163s93.586-22.985,51.956,109.846L2321.478,1210.042z"/>
					</g>
				</g>
				<g>
					<g>
						<g>

								<linearGradient id="SVGID_00000055682371590172703080000008664486802425015970_" gradientUnits="userSpaceOnUse" x1="1835.8237" y1="2353.2363" x2="1865.1675" y2="2353.2363">
								<stop offset="0" style="stop-color:#092e4c"/>
								<stop offset="1" style="stop-color:#11385a"/>
							</linearGradient>

								<rect x="1835.824" y="2268.873" style="fill:url(#SVGID_00000055682371590172703080000008664486802425015970_);" width="29.344" height="168.727"/>

								<linearGradient id="SVGID_00000149341327218957775670000004782833666710163117_" gradientUnits="userSpaceOnUse" x1="1982.5428" y1="2353.2363" x2="2011.8866" y2="2353.2363">
								<stop offset="0" style="stop-color:#092e4c"/>
								<stop offset="1" style="stop-color:#11385a"/>
							</linearGradient>

								<rect x="1982.543" y="2268.873" style="fill:url(#SVGID_00000149341327218957775670000004782833666710163117_);" width="29.344" height="168.727"/>

								<linearGradient id="SVGID_00000066504385892885729030000016252892301083777443_" gradientUnits="userSpaceOnUse" x1="1808.5176" y1="2272.1909" x2="2033.4869" y2="2272.1909">
								<stop offset="0" style="stop-color:#092e4c"/>
								<stop offset="1" style="stop-color:#11385a"/>
							</linearGradient>
							<path style="fill:url(#SVGID_00000066504385892885729030000016252892301083777443_);" d="M2025.181,2283.545         c-69.453,10.868-138.904,10.868-208.357,0c-11.435-9.94-10.709-20.248,0-30.859c72.894,6.521,142.183,6.213,208.357,0         C2035.89,2263.297,2036.615,2273.605,2025.181,2283.545z"/>
						</g>
						<g>

								<linearGradient id="SVGID_00000024704956097968340330000004714587171147483779_" gradientUnits="userSpaceOnUse" x1="1826.7186" y1="3188.0569" x2="1862.046" y2="3188.0569">
								<stop offset="0" style="stop-color:#092e4c"/>
								<stop offset="1" style="stop-color:#11385a"/>
							</linearGradient>

								<ellipse style="fill:url(#SVGID_00000024704956097968340330000004714587171147483779_);" cx="1844.382" cy="3188.057" rx="17.664" ry="41.352"/>

								<linearGradient id="SVGID_00000045583575342753836640000010123440585661151908_" gradientUnits="userSpaceOnUse" x1="2002.7815" y1="3191.7249" x2="2038.109" y2="3191.7249">
								<stop offset="0" style="stop-color:#092e4c"/>
								<stop offset="1" style="stop-color:#11385a"/>
							</linearGradient>

								<ellipse style="fill:url(#SVGID_00000045583575342753836640000010123440585661151908_);" cx="2020.445" cy="3191.725" rx="17.664" ry="41.352"/>
						</g>

							<linearGradient id="SVGID_00000083066543793459010140000007838701990724939912_" gradientUnits="userSpaceOnUse" x1="2533.4834" y1="1402.7279" x2="1783.85" y2="3076.0154">
							<stop offset="0" style="stop-color:#00a66f"/>
							<stop offset="1" style="stop-color:#008257"/>
						</linearGradient>
						<path style="fill:url(#SVGID_00000083066543793459010140000007838701990724939912_);" d="M2093.914,3169.487        c-88.634,31.923-198.225,28.189-323.934-2.968c-18.434-4.569-31.981-20.287-33.892-39.183l-61.09-604.132        c-3.849-38.067,22.811-72.445,60.626-78.268c126.28-19.445,256.027-19.843,389.545,0.465        c37.35,5.681,63.616,39.774,59.815,77.363l-61.57,608.875C2121.671,3148.875,2110.213,3163.617,2093.914,3169.487z"/>
						<defs>

								<filter id="Adobe_OpacityMaskFilter" filterUnits="userSpaceOnUse" x="1712.531" y="2489.134" width="434.916" height="648.441">
								<feFlood style="flood-color:white;flood-opacity:1" result="back"/>
								<feBlend in="SourceGraphic" in2="back" mode="normal"/>
							</filter>
						</defs>

							<mask maskUnits="userSpaceOnUse" x="1712.531" y="2489.134" width="434.916" height="648.441" id="SVGID_00000044894157258158823840000003151236900056368005_">
							<g style="filter:url(#Adobe_OpacityMaskFilter);">
								<defs>

										<filter id="Adobe_OpacityMaskFilter_00000109018611046372886000000007294816502749150110_" filterUnits="userSpaceOnUse" x="1712.531" y="2489.134" width="434.916" height="648.441">
										<feFlood style="flood-color:white;flood-opacity:1" result="back"/>
										<feBlend in="SourceGraphic" in2="back" mode="normal"/>
									</filter>
								</defs>

									<mask maskUnits="userSpaceOnUse" x="1712.531" y="2489.134" width="434.916" height="648.441" id="SVGID_00000044894157258158823840000003151236900056368005_">
									<g style="filter:url(#Adobe_OpacityMaskFilter_00000109018611046372886000000007294816502749150110_);">
									</g>
								</mask>

									<linearGradient id="SVGID_00000003797788800407272150000004153855060016285363_" gradientUnits="userSpaceOnUse" x1="1712.5308" y1="2813.3545" x2="2147.4468" y2="2813.3545">
									<stop offset="0" style="stop-color:#000000"/>
									<stop offset="0.9974" style="stop-color:#808080"/>
								</linearGradient>

									<path style="mask:url(#SVGID_00000044894157258158823840000003151236900056368005_);fill:url(#SVGID_00000003797788800407272150000004153855060016285363_);" d="          M2069.583,3118.638c-75.478,27.184-168.803,24.005-275.854-2.528c-15.698-3.891-27.234-17.276-28.861-33.367          l-52.023-514.463c-3.278-32.417,19.425-61.692,51.628-66.651c107.536-16.559,218.026-16.898,331.726,0.396          c31.806,4.838,54.173,33.871,50.937,65.88l-52.431,518.501C2093.22,3101.086,2083.463,3113.639,2069.583,3118.638z"/>
							</g>
						</mask>

							<linearGradient id="SVGID_00000183207453863617734660000005512902391747205506_" gradientUnits="userSpaceOnUse" x1="1712.5308" y1="2813.3545" x2="2147.4468" y2="2813.3545">
							<stop offset="0" style="stop-color:#00243f"/>
							<stop offset="0.9974" style="stop-color:#bed0fb"/>
						</linearGradient>
						<path style="opacity:0.37;fill:url(#SVGID_00000183207453863617734660000005512902391747205506_);" d="M2069.583,3118.638        c-75.478,27.184-168.803,24.005-275.854-2.528c-15.698-3.891-27.234-17.276-28.861-33.367l-52.023-514.463        c-3.278-32.417,19.425-61.692,51.628-66.651c107.536-16.559,218.026-16.898,331.726,0.396        c31.806,4.838,54.173,33.871,50.937,65.88l-52.431,518.501C2093.22,3101.086,2083.463,3113.639,2069.583,3118.638z"/>
					</g>
					<g style="opacity:0.53;">
						<path style="fill:#FDFDFF;" d="M2106.688,3111.072c-0.104,0-0.209-0.003-0.314-0.013c-1.843-0.173-3.193-1.804-3.023-3.644        c8.86-94.619,20.762-189.278,31.263-272.788c14.203-112.973,26.472-210.54,29.296-286.256        c1.556-41.714-29.763-78.229-71.304-83.135c-72.615-8.576-142.171-6.804-203.54-5.242c-14.893,0.379-29.436,0.751-43.6,0.97        c-0.02,0-0.036,0-0.052,0c-1.827,0-3.317-1.464-3.347-3.294c-0.029-1.85,1.448-3.369,3.294-3.399        c14.145-0.219,28.665-0.588,43.535-0.968c61.585-1.569,131.399-3.35,204.494,5.285c44.979,5.311,78.893,44.858,77.207,90.031        c-2.833,76.01-15.118,173.711-29.341,286.841c-10.494,83.465-22.39,178.064-31.237,272.576        C2109.855,3109.771,2108.398,3111.072,2106.688,3111.072z"/>
						<path style="fill:#91B3FA;" d="M1920.378,2272.176c-34.773,0-69.549-3.056-104.08-9.174c-1.817-0.32-3.033-2.059-2.709-3.879        c0.32-1.82,2.033-3.049,3.879-2.709c68.284,12.092,137.536,12.092,205.821,0c1.837-0.33,3.556,0.892,3.879,2.709        c0.324,1.82-0.892,3.559-2.709,3.879C1989.928,2269.121,1955.151,2272.176,1920.378,2272.176z"/>
					</g>
				</g>
				<g>
					<g>
						<g>

								<linearGradient id="SVGID_00000091707818196327527520000007013423385058527382_" gradientUnits="userSpaceOnUse" x1="2628.4111" y1="1805.7391" x2="2425.3857" y2="1854.822">
								<stop offset="0" style="stop-color:#5783c8"/>
								<stop offset="1" style="stop-color:#4b7bc6"/>
							</linearGradient>
							<polygon style="fill:url(#SVGID_00000091707818196327527520000007013423385058527382_);" points="2189.057,1930.259         2370.634,1944.658 2395.445,1808.423 2378.528,1789.551        "/>

								<linearGradient id="SVGID_00000064312005876591489100000007617745925106078608_" gradientUnits="userSpaceOnUse" x1="2273.7893" y1="1692.7231" x2="2260.0679" y2="1977.9341">
								<stop offset="0" style="stop-color:#5783c8"/>
								<stop offset="1" style="stop-color:#4b7bc6"/>
							</linearGradient>
							<polygon style="fill:url(#SVGID_00000064312005876591489100000007617745925106078608_);" points="2159.734,1789.551         2378.528,1789.551 2351.461,1930.259 2189.057,1930.259        "/>
							<g>

									<linearGradient id="SVGID_00000162312593281455955610000001588532356278798513_" gradientUnits="userSpaceOnUse" x1="2247.7026" y1="1876.3596" x2="2309.7319" y2="1876.3596">
									<stop offset="0" style="stop-color:#092e4c"/>
									<stop offset="1" style="stop-color:#11385a"/>
								</linearGradient>

									<circle style="fill:url(#SVGID_00000162312593281455955610000001588532356278798513_);" cx="2278.717" cy="1876.36" r="31.015"/>

									<linearGradient id="SVGID_00000046311965338614387170000009745522479938614191_" gradientUnits="userSpaceOnUse" x1="2246.0288" y1="1876.3588" x2="2311.4048" y2="1876.3588">
									<stop offset="0" style="stop-color:#DAE3FE"/>
									<stop offset="1" style="stop-color:#E9EFFD"/>
								</linearGradient>
								<path style="fill:url(#SVGID_00000046311965338614387170000009745522479938614191_);" d="M2278.717,1909.047          c-18.024,0-32.688-14.664-32.688-32.688c0-18.024,14.664-32.688,32.688-32.688s32.688,14.664,32.688,32.688          C2311.405,1894.382,2296.74,1909.047,2278.717,1909.047z M2278.717,1847.017c-16.177,0-29.341,13.164-29.341,29.341          c0,16.177,13.164,29.341,29.341,29.341s29.341-13.164,29.341-29.341C2308.058,1860.182,2294.894,1847.017,2278.717,1847.017          z"/>
							</g>
							<g>

									<linearGradient id="SVGID_00000149364871180308527670000007033135217102730422_" gradientUnits="userSpaceOnUse" x1="2165.196" y1="1772.0747" x2="2197.3826" y2="1820.0989">
									<stop offset="0" style="stop-color:#092e4c"/>
									<stop offset="1" style="stop-color:#11385a"/>
								</linearGradient>

									<rect x="2183.417" y="1811.611" style="fill:url(#SVGID_00000149364871180308527670000007033135217102730422_);" width="27.067" height="15.689"/>

									<linearGradient id="SVGID_00000083056474534732617230000012999952212802422701_" gradientUnits="userSpaceOnUse" x1="2181.7446" y1="1819.4556" x2="2212.158" y2="1819.4556">
									<stop offset="0" style="stop-color:#DAE3FE"/>
									<stop offset="1" style="stop-color:#E9EFFD"/>
								</linearGradient>
								<path style="fill:url(#SVGID_00000083056474534732617230000012999952212802422701_);" d="M2212.158,1828.974h-30.413          v-19.037h30.413V1828.974z M2185.091,1825.627h23.72v-12.344h-23.72V1825.627z"/>
							</g>
							<g>

									<linearGradient id="SVGID_00000056411888839110079150000008149113852456420023_" gradientUnits="userSpaceOnUse" x1="2219.387" y1="1715.4788" x2="2285.2385" y2="1813.7333">
									<stop offset="0" style="stop-color:#092e4c"/>
									<stop offset="1" style="stop-color:#11385a"/>
								</linearGradient>

									<rect x="2238.68" y="1808.423" style="fill:url(#SVGID_00000056411888839110079150000008149113852456420023_);" width="91.352" height="7.989"/>

									<linearGradient id="SVGID_00000052061807724227873240000009756897741128061111_" gradientUnits="userSpaceOnUse" x1="2237.0056" y1="1812.4176" x2="2331.7063" y2="1812.4176">
									<stop offset="0" style="stop-color:#DAE3FE"/>
									<stop offset="1" style="stop-color:#E9EFFD"/>
								</linearGradient>
								<path style="fill:url(#SVGID_00000052061807724227873240000009756897741128061111_);" d="M2331.706,1818.085h-94.701          v-11.334h94.701V1818.085z M2240.352,1814.738h88.008v-4.641h-88.008V1814.738z"/>
							</g>
						</g>

							<linearGradient id="SVGID_00000132796334821474368840000007717903726804554888_" gradientUnits="userSpaceOnUse" x1="2262.8743" y1="1584.5181" x2="2014.2286" y2="1708.8412">
							<stop offset="0" style="stop-color:#5783c8"/>
							<stop offset="1" style="stop-color:#4b7bc6"/>
						</linearGradient>
						<polygon style="fill:url(#SVGID_00000132796334821474368840000007717903726804554888_);" points="2159.734,1789.551        2208.237,1448.818 2173.69,1792.129       "/>

							<linearGradient id="SVGID_00000168803678332120106170000008236497334306230701_" gradientUnits="userSpaceOnUse" x1="2398.1421" y1="1607.3877" x2="2264.3079" y2="1674.3051">
							<stop offset="0" style="stop-color:#5783c8"/>
							<stop offset="1" style="stop-color:#4b7bc6"/>
						</linearGradient>
						<polygon style="fill:url(#SVGID_00000168803678332120106170000008236497334306230701_);" points="2323.957,1444.794        2395.445,1808.423 2378.528,1789.551       "/>
					</g>
					<g>

							<linearGradient id="SVGID_00000047042294628268119130000000342351649671398300_" gradientUnits="userSpaceOnUse" x1="2043.9215" y1="1325.5624" x2="2741.5977" y2="2069.0449">
							<stop offset="0" style="stop-color:#092e4c"/>
							<stop offset="1" style="stop-color:#11385a"/>
						</linearGradient>
						<path style="fill:url(#SVGID_00000047042294628268119130000000342351649671398300_);" d="M2329.223,1930.328        c0,0,147.155,82.614,183.299-23.235c36.143-105.849-30.981-172.972-30.981-172.972l77.45-203.953        c0,0,147.156,271.076,43.888,436.303c-96.752,154.803-268.493,12.908-268.493,12.908L2329.223,1930.328z"/>

							<linearGradient id="SVGID_00000096041097444472046890000005005007114712252854_" gradientUnits="userSpaceOnUse" x1="2331.7378" y1="1917.9888" x2="2203.0715" y2="1982.3221">
							<stop offset="0" style="stop-color:#febc96"/>
							<stop offset="1" style="stop-color:#fda47d"/>
						</linearGradient>
						<path style="fill:url(#SVGID_00000096041097444472046890000005005007114712252854_);" d="M2344.713,1930.328        c0,0-67.124-41.307-108.43-15.489c0,0-7.745,30.98,15.49,43.888c0,0,41.306,28.399,74.868,12.908        C2360.203,1956.145,2344.713,1930.328,2344.713,1930.328z"/>
					</g>
					<g>

							<linearGradient id="SVGID_00000149363663139522763650000001881595986155623592_" gradientUnits="userSpaceOnUse" x1="2173.3682" y1="1376.6802" x2="1763.2396" y2="2326.2725">
							<stop offset="0" style="stop-color:#092e4c"/>
							<stop offset="1" style="stop-color:#11385a"/>
						</linearGradient>
						<path style="fill:url(#SVGID_00000149363663139522763650000001881595986155623592_);" d="M1918.719,2055.357        c-1.226-114.809-0.662-263.395,8.801-326.233c16.442-109.172,68.667-209.282,68.667-209.282        c164.119,16.175,39.864,363.041,39.864,363.041l-43.141,181.533C1976.056,2057.723,1951.052,2051.873,1918.719,2055.357z"/>

							<linearGradient id="SVGID_00000044172254157554510430000008366816240415920805_" gradientUnits="userSpaceOnUse" x1="3036.7329" y1="1645.1895" x2="2881.8855" y2="3161.3945" gradientTransform="matrix(-0.9989 0.0479 0.0479 0.9989 4824.5161 -130.3353)">
							<stop offset="0" style="stop-color:#febc96"/>
							<stop offset="1" style="stop-color:#fda47d"/>
						</linearGradient>
						<path style="fill:url(#SVGID_00000044172254157554510430000008366816240415920805_);" d="M1918.719,2055.357        c32.333-3.484,57.338,2.366,74.191,9.059l-35.021,147.366c0,0,11.011,78.954,4.949,88.008        c-6.061,9.052-58.127,8.475-58.819-5.943c-0.691-14.419,17.479-87.545,17.479-87.545S1919.622,2140.006,1918.719,2055.357z"/>
					</g>
				</g>
			</g>
			<g>
				<g>
					<g>
						<g>

								<linearGradient id="SVGID_00000001635136729641789990000014640160723605655993_" gradientUnits="userSpaceOnUse" x1="-1566.1967" y1="3607.05" x2="-1782.7125" y2="3780.7026" gradientTransform="matrix(-1 0 0 1 1957.3085 0)">
								<stop offset="0" style="stop-color:#092e4c"/>
								<stop offset="1" style="stop-color:#11385a"/>
							</linearGradient>

								<path style="fill-rule:evenodd;clip-rule:evenodd;fill:url(#SVGID_00000001635136729641789990000014640160723605655993_);" d="         M2791.885,2969.176l4.651,11.416l-1.885,41.105c-0.265,5.777-4.926,10.625-11.208,11.594         c-8.575,1.323-21.045,2.66-32.78,1.754c-9.186-0.71-14.942-9.338-11.347-17.042l13.838-29.649         c2.07-4.435,5.851-7.84,10.478-9.436L2791.885,2969.176z"/>

								<linearGradient id="SVGID_00000044871770670131645340000013794848505756853690_" gradientUnits="userSpaceOnUse" x1="-849.0557" y1="2791.8867" x2="-765.5406" y2="2791.8867" gradientTransform="matrix(-1 0 0 1 1957.3085 0)">
								<stop offset="0" style="stop-color:#febc96"/>
								<stop offset="1" style="stop-color:#fda47d"/>
							</linearGradient>

								<path style="fill-rule:evenodd;clip-rule:evenodd;fill:url(#SVGID_00000044871770670131645340000013794848505756853690_);" d="         M2806.364,2596.459c0,0-0.001,298.066-14.029,382.024c-0.72,4.309-4.005,7.772-8.311,8.503         c-3.935,0.667-9.308,0.516-15.726-2.329c-3.23-1.431-5.375-4.591-5.808-8.097l-39.641-374.88L2806.364,2596.459z"/>

								<linearGradient id="SVGID_00000000914101694315510270000014879878869496215442_" gradientUnits="userSpaceOnUse" x1="2355.7104" y1="4918.9336" x2="2139.1948" y2="5092.5859" gradientTransform="matrix(1 0 0 1 -1881.3085 0)">
								<stop offset="0" style="stop-color:#092e4c"/>
								<stop offset="1" style="stop-color:#11385a"/>
							</linearGradient>

								<path style="fill-rule:evenodd;clip-rule:evenodd;fill:url(#SVGID_00000000914101694315510270000014879878869496215442_);" d="         M2841.724,2969.176l-4.651,11.416l-3.334,41.105c0.265,5.777,4.925,10.625,11.208,11.594         c8.575,1.323,26.265,2.66,37.999,1.754c9.186-0.71,14.941-9.338,11.346-17.042l-13.838-29.649         c-2.07-4.435-5.852-7.84-10.479-9.436L2841.724,2969.176z"/>

								<linearGradient id="SVGID_00000098213908301264786250000013235819176660422539_" gradientUnits="userSpaceOnUse" x1="4708.5522" y1="2791.887" x2="4792.0679" y2="2791.887" gradientTransform="matrix(1 0 0 1 -1881.3085 0)">
								<stop offset="0" style="stop-color:#febc96"/>
								<stop offset="1" style="stop-color:#fda47d"/>
							</linearGradient>

								<path style="fill-rule:evenodd;clip-rule:evenodd;fill:url(#SVGID_00000098213908301264786250000013235819176660422539_);" d="         M2827.244,2596.459c0,0,0.001,302,14.37,384.017c0.472,2.693,2.363,4.953,4.968,5.783c4.178,1.332,11.206,2.138,20.102-2.244         c2.312-1.139,3.93-3.376,4.247-5.934l39.829-376.402L2827.244,2596.459z"/>
						</g>

							<linearGradient id="SVGID_00000137835215720085023030000002171764781005355907_" gradientUnits="userSpaceOnUse" x1="2363.3574" y1="1497.7467" x2="2990.655" y2="2646.6169">
							<stop offset="0" style="stop-color:#092e4c"/>
							<stop offset="1" style="stop-color:#11385a"/>
						</linearGradient>
						<path style="fill:url(#SVGID_00000137835215720085023030000002171764781005355907_);" d="M2686.43,2006.547        c-41.307,95.522-37.666,364.888,20.654,635.091c0,0,144.574,12.909,214.279,0c0,0,95.521-557.641-5.164-635.091H2686.43z"/>
					</g>
					<g>
						<g>

								<linearGradient id="SVGID_00000070831347796978718060000005032492342669749177_" gradientUnits="userSpaceOnUse" x1="2805.6782" y1="2762.739" x2="2810.698" y2="1824.072">
								<stop offset="0" style="stop-color:#01a26d"/>
								<stop offset="1" style="stop-color:#01a26d"/>
							</linearGradient>
							<path style="fill:url(#SVGID_00000070831347796978718060000005032492342669749177_);" d="M2985.904,1647.696         c0,0-54.215-90.359-167.809-116.176l-59.378-2.582c0,0-85.196,41.307-121.339,118.757l46.47,198.788l2.582,160.064         c0,0,136.829,30.98,229.769,0l20.653-196.207L2985.904,1647.696z"/>

								<linearGradient id="SVGID_00000084490370543631240530000014650677463111556010_" gradientUnits="userSpaceOnUse" x1="3103.1038" y1="1817.5319" x2="2202.4182" y2="1990.1453">
								<stop offset="0" style="stop-color:#CB236D"/>
								<stop offset="1" style="stop-color:#4C246D"/>
							</linearGradient>
							<path style="fill:url(#SVGID_00000084490370543631240530000014650677463111556010_);" d="M2985.904,1647.695         c29.577,90.946,56.739,179.445,56.371,240.039l57.719-169.12l37.779-16.197l-89.387,317.898         c-47.106-67.821-81.593-148.779-100.764-245.689C2943.998,1727.192,2956.285,1684.733,2985.904,1647.695z"/>

								<linearGradient id="SVGID_00000028316716822456861950000004327217421224796330_" gradientUnits="userSpaceOnUse" x1="3066.4995" y1="1695.6194" x2="2194.1174" y2="1862.8086">
								<stop offset="0" style="stop-color:#26547c"/>
								<stop offset="1" style="stop-color:#00243f"/>
							</linearGradient>
							<path style="fill:url(#SVGID_00000028316716822456861950000004327217421224796330_);" d="M2637.378,1647.695         l-270.501,305.865l35.263-0.455l264.56-179.98C2666.929,1727.197,2659.697,1684.34,2637.378,1647.695z"/>
						</g>
						<g>

								<linearGradient id="SVGID_00000179641932667379138800000012610999240330650804_" gradientUnits="userSpaceOnUse" x1="2721.6553" y1="1707.0233" x2="2811.6001" y2="1447.4685">
								<stop offset="0" style="stop-color:#febc96"/>
								<stop offset="1" style="stop-color:#fda47d"/>
							</linearGradient>
							<path style="fill:url(#SVGID_00000179641932667379138800000012610999240330650804_);" d="M2753.553,1456.652v97.835         c0,7.914,5.763,14.649,13.589,15.827c12.964,1.951,33.012,3.462,50.222-1.714c7.928-2.384,12.815-10.32,11.23-18.446         l-18.244-93.503H2753.553z"/>
							<g>

									<linearGradient id="SVGID_00000070833176058532575760000012898049478433963912_" gradientUnits="userSpaceOnUse" x1="2688.3181" y1="1492.0092" x2="2869.8396" y2="1257.3832">
									<stop offset="0" style="stop-color:#febc96"/>
									<stop offset="1" style="stop-color:#fda47d"/>
								</linearGradient>
								<path style="fill:url(#SVGID_00000070833176058532575760000012898049478433963912_);" d="M2717.41,1313.369          c0,0-61.961,165.227,16.781,185.291c92.671,23.614,123.92-98.804,123.92-98.804S2776.788,1166.213,2717.41,1313.369z"/>
								<g>
									<path style="fill:#b2b2b2;" d="M2882.955,1322.609c0,0-33.464-64.472-6.528-91.044           c26.937-26.573,77.141-14.858,84.266,38.104C2967.818,1322.63,2899.289,1380.234,2882.955,1322.609z"/>
									<path style="fill:#b2b2b2;" d="M2692.3,1299.684c-3.733,13.575,8.46,26.183,22.181,23.028           c13.813-3.177,30.809-6.044,45.526-5.47c99.395,3.873,60.67,68.414,60.67,78.741c0,21.12,20.757-10.993,21.944-3.872           c2.582,15.49-9.502,62.487-9.502,62.487s63.718-13.435,84.371-44.416c20.653-30.98-2.581-100.685-10.326-126.501           c-7.746-25.817-59.379-51.634-87.777-49.052C2793.997,1236.935,2712.893,1224.8,2692.3,1299.684z"/>
								</g>

									<linearGradient id="SVGID_00000088112903253369093450000003604587131784451456_" gradientUnits="userSpaceOnUse" x1="2741.7283" y1="1535.4128" x2="2923.6926" y2="1300.2141">
									<stop offset="0" style="stop-color:#febc96"/>
									<stop offset="1" style="stop-color:#fda47d"/>
								</linearGradient>
								<path style="fill:url(#SVGID_00000088112903253369093450000003604587131784451456_);" d="M2829.712,1410.181          c0,0,7.745-38.725,28.399-30.98s-15.49,51.633-28.399,59.378V1410.181z"/>
							</g>
						</g>
					</g>
				</g>
				<g>
					<g>
						<polygon style="fill:#FFFFFF;" points="3216.284,2303.563 3022.76,2205.776 2816.299,2283.506 2585.802,2215.374        2389.823,2295.878 2374.386,1742.576 2569.65,1622.188 2802.895,1741.623 3022.76,1589.888 3236.189,1738.171       "/>
						<g>
							<polygon style="fill:#91B3FA;" points="2567.235,1635.219 2797.992,1754.819 3019.857,1606.65 3227.769,1737.698         3207.125,2291.091 3022.76,2187.71 2818.072,2272.157 2585.802,2200.885 2399.219,2283.506 2389.823,1741.987        "/>
							<polygon style="fill:#7D97F4;" points="2797.992,1754.819 2818.072,2272.157 3022.76,2187.71 3019.857,1606.65        "/>
							<g>

									<linearGradient id="SVGID_00000183932792467938777480000017021787062220040072_" gradientUnits="userSpaceOnUse" x1="3550.7297" y1="2030.5955" x2="2423.8047" y2="2051.5605">
									<stop offset="0" style="stop-color:#5783c8"/>
									<stop offset="1" style="stop-color:#4b7bc6"/>
								</linearGradient>
								<path style="fill:url(#SVGID_00000183932792467938777480000017021787062220040072_);" d="M2865.992,2030.426          c-1.068,8.071-1.937,16.169-2.607,24.283c-0.16,1.936,0.23,4.567,2.164,4.756c1.164,0.114,2.133-0.83,2.917-1.697          c3.331-3.684,6.909-8.435,5.298-13.133c-0.6-1.748-1.876-3.219-2.368-5c-0.739-2.68,0.419-5.531,0.121-8.295          c-0.298-2.764-3.732-5.482-5.656-3.475L2865.992,2030.426z"/>

									<linearGradient id="SVGID_00000163042218352943209970000017049521071727481474_" gradientUnits="userSpaceOnUse" x1="3547.897" y1="1878.3809" x2="2420.9727" y2="1899.3459">
									<stop offset="0" style="stop-color:#5783c8"/>
									<stop offset="1" style="stop-color:#4b7bc6"/>
								</linearGradient>
								<path style="fill:url(#SVGID_00000163042218352943209970000017049521071727481474_);" d="M2651.972,1904.311          c0.346-2.436,0.05-4.9-1.093-7.142c-1.931-3.789-5.879-6.227-9.99-7.318c-4.11-1.091-8.428-1.012-12.68-0.925          c-3.946,0.081-7.892,0.161-11.838,0.242c-1.167,0.024-2.368,0.055-3.437,0.521c-1.511,0.659-2.535,2.085-3.355,3.516          c-2.64,4.61-3.941,9.976-3.707,15.283c-5.201,1.768-10.252-3.026-13.089-7.73c-3.275-5.43-5.629-11.414-6.932-17.62          c-0.503-2.398-0.813-5.052,0.428-7.165c0.684-1.165,1.771-2.032,2.867-2.822c4.418-3.182,9.515-5.586,14.93-6.158          c9.246-0.977,18.234,3.433,25.814,8.839c7.28,5.191,19.153,11.403,27.321,3.943c4.217-3.852,4.292-10.862,1.354-15.76          c-4.772-7.955-16.942-12.117-24.87-16.134c-3.711-1.88-6.094-5.75-7.148-9.775c-1.054-4.025-0.954-8.249-0.847-12.408          c10.974-4.335,23.871-3.487,34.183,2.247c1.463,0.814,3.025,1.946,3.198,3.612c0.178,1.712-1.176,3.14-2.243,4.491          c-15.407,19.486,16.674,32.884,30.444,37.589c5.61,1.917,10.965,5.069,16.961,3.89c5.565-1.095,10.572-7.168,16.339-8.716          c4.177-1.121,8.639-0.533,12.88-1.385s8.661-4.029,8.486-8.351c-0.143-3.519-3.237-6.166-6.314-7.879          c0,0.336-5.332-3.881-5.837-4.795c-4.653-9.014,2.113-16.953,4.701-24.735c3.748-11.267-1.803-17.891,9.726-24.13          c2.452-1.327,4.381-4.624,2.684-6.836c-1.528-1.993-4.563-1.49-7.075-1.475c-8.021,0.05-14.394-6.71-22.104-8.922          c-4.04-1.159-8.318-1.027-12.521-1.089c-19.927-0.293-39.772-5.223-57.52-14.291c-13.102-6.694-21.342-7.599-35.446-6.115          c-13.305,1.4-22.295,7.861-31.429,17.068c-2.078,2.095-4.097,4.386-6.791,5.589c-11.289,5.038-25.606,4.022-37.134,8.995          c-13.721,5.919-17.593,24.329-30.125,32.469c-7.255,4.712-16.397,5.308-24.363,8.68          c-11.792,4.992-17.231,15.36-23.928,25.45c-4.118,6.205-19.286,16.837-18.426,24.094c0.156,1.322,0.73,2.563,1.448,3.683          c4.177,6.507,10.415,7.193,16.996,9.052c8.695,2.455,13.94,6.228,21.633,11.488c8.023,5.486,18.939,10.283,19.633,19.978          c0.322,4.498-1.85,8.75-2.912,13.133c-4.791,19.769,12.989,37.527,30.295,48.218c17.305,10.691,37.724,21.252,43.228,40.835          c0.502,1.785,0.924,3.722,2.267,4.999c5.052,4.805,8.836-6.063,10.366-9.518c0.986-2.225,0.093-4.895-1.447-6.779          c-1.54-1.884-3.641-3.204-5.536-4.731c-6.392-5.152-10.538-12.998-11.193-21.182c-0.083-1.04-0.091-2.166,0.498-3.028          c3-4.39,10.477-6.19,14.145-11.509c5.247-7.609,6.445-14.829,7.338-23.859c3.281-33.176,34.528-21.432,54.143-36.143          C2648.6,1913.05,2651.344,1908.727,2651.972,1904.311z"/>

									<linearGradient id="SVGID_00000080901947816465985570000010815606675136282505_" gradientUnits="userSpaceOnUse" x1="3551.8481" y1="2090.7676" x2="2424.9229" y2="2111.7327">
									<stop offset="0" style="stop-color:#5783c8"/>
									<stop offset="1" style="stop-color:#4b7bc6"/>
								</linearGradient>
								<path style="fill:url(#SVGID_00000080901947816465985570000010815606675136282505_);" d="M2595.106,2076.012          c2.008,4.087,3.655,7.946,4.093,11.232c1.902,14.292-10.403,31.877-15.635,44.926c-1.455,3.628-2.938,7.49-2.283,11.344          c0.276,1.624,0.922,3.157,1.566,4.673c4.751,11.189,14.086,21.317,22.379,29.946c2.836-7.398,2.626-25.164,1.848-33.045          c-0.257-2.599-0.705-5.32,0.253-7.75c3.071-7.794,13.066-18.518,19.958-23.167c6.755-4.557,15.634-8.215,17.384-16.173          c0.673-3.06,0.107-6.336,1.098-9.309c0.594-1.782,1.71-3.333,2.601-4.989c4.369-8.122,6.849-23.801-1.901-29.57          c-9.78-6.449-23.623,2.996-32.014-7.523c-1.266-1.587-2.209-3.435-3.65-4.866c-2.673-2.655-6.78-3.495-10.497-2.873          C2575.569,2043.009,2587.753,2061.042,2595.106,2076.012z"/>

									<linearGradient id="SVGID_00000048469200693450342190000013109091565348110752_" gradientUnits="userSpaceOnUse" x1="3547.8374" y1="1875.1786" x2="2420.9153" y2="1896.1437">
									<stop offset="0" style="stop-color:#5783c8"/>
									<stop offset="1" style="stop-color:#4b7bc6"/>
								</linearGradient>
								<path style="fill:url(#SVGID_00000048469200693450342190000013109091565348110752_);" d="M2750.436,1957.949          c7.812,4.996,21.295-5.964,26.253-18.777c0.621-1.604,1.196-3.278,2.332-4.569c2.314-2.628,6.294-2.964,9.761-2.479          c3.468,0.485,6.925,1.597,10.398,1.152c4.983-0.639,9.099-4.464,11.426-8.917c2.327-4.453,3.164-9.509,3.97-14.468          c3.687-0.909,7.671-0.559,11.143,0.979c2.68,1.188,5.327,3.805,4.578,6.64c-0.344,1.302-1.337,2.314-2.273,3.281          c-2.924,3.024-5.647,6.241-8.148,9.623c-1.542,2.087-3.056,4.807-1.898,7.13c3.155,6.328,8.925,3.036,7.267,12.086          c-2.087,11.337-17.488,15.971-8.689,29.514c3.219,4.956,9.075,7.921,14.979,8.188c4.236,0.192,9.453-2.002,9.507-6.242          c0.016-1.257-0.448-2.551-0.054-3.744c0.513-1.553,2.272-2.313,3.889-2.559c5.29-0.804,10.404,1.851,15.286,4.042          c1.474,0.661,3.233,1.277,4.634,0.474c4.565-2.617,2.435-4.776,8.641-5.354c5.292-0.493,11.485,3.587,14.482,7.621          c0.721,0.97,1.372,2.219,0.915,3.338c-0.397,0.972-1.494,1.473-2.048,2.365c-0.913,1.47,0.007,3.501,1.446,4.462          c1.439,0.96,3.229,1.172,4.924,1.521c7.951,1.637,8.137,9.216,13.756,12.999c4.562,3.071,16.182,3.677,15.156-5.157          c-0.375-3.229-3.617-5.885-3.085-9.092c0.468-2.823,3.64-4.326,6.479-4.685c2.839-0.359,5.868-0.091,8.406-1.413          c1.692-0.881,2.969-2.379,4.51-3.501c9.49-6.908,31.969-1.039,39.251,6.706c6.803,7.236,7.565,19.707,16.321,24.395          c-1.022-9.616-5.875-18.771-13.259-25.015c-1.358-1.148-2.852-2.271-3.564-3.9c-0.598-1.368-0.564-2.919-0.488-4.41          c0.388-7.616,1.883-14.708,3.961-21.818c-0.248,0.85,5.558-14.599,1.382-11.676c7.471-5.229,23.776-13.82,33.139-13.26          c4.876,0.291,9.688,3.111,11.735,7.546c2.047,4.435,0.812,10.33-3.218,13.09c-3.858,2.641-9.213,2.134-13.133,4.684          c-3.773,2.455-5.385,7.755-3.617,11.896c2.456-3.386,6.168-5.84,10.247-6.772c5.474-1.251,11.689,0.066,16.415-2.965          c3.487-2.236,5.318-6.509,5.361-10.651c0.042-4.142-1.491-8.16-3.543-11.759c-1.484-2.603-3.271-5.096-4.065-7.985          c-1.273-4.633,0.235-9.676,2.916-13.663c9.968-14.824,28.419-21.232,45.489-15.781c1.136,0.363,2.349,0.849,2.94,1.885          c0.857,1.503,0.031,3.421,0.395,5.113c0.572,2.666,4.638,3.675,6.391,1.586c1.211-1.444,1.136-3.527,1.595-5.355          c1.192-4.753,6.036-7.661,10.745-9.017c5.757-1.657,21.224-9.305,22.814,0.807c0.139,0.885,0.11,1.82,0.494,2.63          c1.08,2.28,4.695,1.953,6.415,0.107c3.545-3.806,4.168-10.056,7.601-14.309c3.039-3.763,7.526-6.018,10.069-10.219          c6.302-10.409,1.502-24.013-9.461-29.054c-10.505-4.83-22.729-2.688-34.109-0.642c-7.834,1.408-34.74,6.807-36.656-5.884          c-0.157-1.04-0.123-2.148-0.626-3.072c-0.624-1.144-1.928-1.743-2.723-2.775c-1.014-1.317-1.056-3.116-1.602-4.686          c-1.985-5.702-9.466-6.748-15.503-6.818c0.609-3.537,0.939-7.845-1.905-10.034c-1.607-1.237-3.776-1.374-5.803-1.46          c-5.265-0.225-17.965,1.665-22.33-1.415c-5.782-4.08-1.8-11.031-4.319-16.659c-2.679-5.977-12.639-6.807-13.746-13.263          c-0.24-1.396,0.022-2.835-0.145-4.241c-0.407-3.431-3.202-6.016-5.816-8.275c-4.739-4.094-10.106-8.426-16.367-8.266          c-1.177,0.93-0.12,2.881,1.207,3.581c1.327,0.7,3.022,1.063,3.693,2.404c1.288,2.572-2.406,4.684-5.232,5.223          c-0.137,3.759,3.642,6.25,6.562,8.621c4.932,4.006,8.436,9.734,9.757,15.95c-9.95,1.786-20.145,2.205-30.208,1.241          c-12.125-1.162-19.913,18.083-34.285,12.748c-2.123-0.788-4.021-2.203-6.245-2.624c-5.595-1.059-10.101,4.24-15.129,6.913          c-7.655,4.069-17.04,1.959-25.244-0.843c-9.803-3.348-21.723-8.155-31.604-2.379c-3.693,2.159-6.643,5.518-10.552,7.253          c-8.206,3.642-17.516-0.83-26.453-1.687c-22.05-2.116-35.319,19.46-42.482,37.427c-1.087,2.727-2.062,5.592-1.92,8.524          s1.631,5.968,4.307,7.175c3.965,1.788,8.573-1.052,11.161-4.548s4.162-7.769,7.328-10.751          c3.167-2.982,8.986-3.942,11.487-0.383c1.231,1.751,1.281,4.043,1.285,6.183c0.009,4.065,0.017,8.13,0.026,12.194          c0.005,2.236-0.006,4.548-0.914,6.591c-1.516,3.411-5.133,5.294-8.493,6.92c-7.298,3.532-14.595,7.064-21.893,10.596          c-2.463,1.192-4.955,2.403-7.047,4.168c-9.533,8.046-3.127,19.181-10.481,26.928c-2.969,3.127-7.894,4.068-10.329,7.626          c-1.799,2.63-1.79,6.052-1.715,9.238C2744.854,1950.892,2747.14,1955.841,2750.436,1957.949z"/>

									<linearGradient id="SVGID_00000157269889408369472830000002080516476845867151_" gradientUnits="userSpaceOnUse" x1="3551.2131" y1="2056.6013" x2="2424.2878" y2="2077.5664">
									<stop offset="0" style="stop-color:#5783c8"/>
									<stop offset="1" style="stop-color:#4b7bc6"/>
								</linearGradient>
								<path style="fill:url(#SVGID_00000157269889408369472830000002080516476845867151_);" d="M3004.855,2025.556          c-2.955,5.342-2.547,12.326-9.224,15.275c-4.442,1.962-10.127,1.066-13.745,4.306c-4.127,3.695-3.049,10.249-2.252,15.731          c0.143,0.983,0.258,2.026-0.143,2.935c-1.063,2.406-4.876,2.342-6.184,4.624c-1.122,1.959,0.268,4.428,1.942,5.942          c5.1,4.614,13.389,5.219,19.105,1.393c1.521-1.018,3.169-2.378,4.946-1.942c2.073,0.509,2.769,3.027,3.332,5.086          c1.199,4.384,3.566,8.598,7.306,11.184c11.767,8.134,28.321-1.764,41.389,9.713c1.605,1.41,3.132,3.086,3.601,5.17          c0.507,2.252-0.251,4.839,1.016,6.77c1.585,2.417,5.488,2.09,7.622,0.139s2.991-4.888,3.882-7.638          c0.891-2.75,2.06-5.657,4.511-7.195c4.127-2.588,8.831-1.598,11.116-6.862c2.849-6.715-5.653-12.276-2.954-18.395          c1.205-2.732,3.131-5.713,1.922-8.443c-0.614-1.386-1.917-2.314-2.993-3.388c-5.036-5.035-5.893-9.772-12.604-12.843          c-4.282-1.959-13.153,0.576-14.911-6.566c-0.458-1.861,0.198-4.197-1.237-5.467c-0.813-0.72-2.003-0.769-3.09-0.766          c-7.509,0.026-16.439,0.139-20.718-6.031c-4.729-6.819-5.284-11.736-14.889-8.35          C3008.107,2021.172,3006.155,2023.205,3004.855,2025.556z"/>

									<linearGradient id="SVGID_00000153700114667626039470000006609286771194850960_" gradientUnits="userSpaceOnUse" x1="3550.6458" y1="2026.1122" x2="2423.7222" y2="2047.0773">
									<stop offset="0" style="stop-color:#5783c8"/>
									<stop offset="1" style="stop-color:#4b7bc6"/>
								</linearGradient>
								<path style="fill:url(#SVGID_00000153700114667626039470000006609286771194850960_);" d="M2781.036,1988.035          c-1.565,2.171-2.447,4.785-4.097,6.892c-4.644,5.926-6.66,0.687-11.907,2.683c-1.812,0.69-3.415,1.919-5.305,2.353          c-3.821,0.879-7.616-1.671-11.536-1.686c-15.101-0.061-7.174,24.215,0.137,28.871c1.353,0.862,3.059,0.874,4.664,0.858          c4.979-0.049,9.957-0.097,14.936-0.146c1.419-0.014,2.94,0.002,4.109,0.806c3.602,2.477,0.17,8.596,2.336,12.393          c1.486,2.605,4.939,3.089,7.892,3.625c6.241,1.132,7.607,7.925,11.428,12.115c4.911,5.386,9.597,7.558,12.366,15.377          c1.644,4.644,2.213,9.667,4.382,14.09c4.459,9.095,16.025,13.996,25.661,10.874c9.636-3.122,16.13-13.875,14.407-23.857          c-1.006-5.831-4.364-10.939-6.695-16.377c-4.716-11.001-1.526-24.397,11.541-26.495c3.298-0.53,7.487-0.715,8.717-3.82          c1.774-4.475-5.068-9.709-2.232-13.598c1.021-1.4,2.998-1.901,3.896-3.383c1.206-1.992-0.167-4.571-1.847-6.183          s-3.799-3.009-4.494-5.233c-3.907-12.524-16.74-4.697-25.303-3.046c-7.638,1.472-11.993,0.516-18.348-3.158          C2805.903,1986.298,2790.993,1974.222,2781.036,1988.035z"/>

									<linearGradient id="SVGID_00000149355907624627800120000000035110177183539882_" gradientUnits="userSpaceOnUse" x1="3546.1023" y1="1781.9315" x2="2419.1807" y2="1802.8966">
									<stop offset="0" style="stop-color:#5783c8"/>
									<stop offset="1" style="stop-color:#4b7bc6"/>
								</linearGradient>
								<path style="fill:url(#SVGID_00000149355907624627800120000000035110177183539882_);" d="M2813.573,1792.187          c1.129-2.107,3.887-2.601,6.272-2.763c8.218-0.557,16.51-0.022,24.588,1.589c-6.687,5.258-14.152,10.786-22.655,10.5          c-3.857-0.13-7.859-1.459-11.467-0.09c-0.844-2.542-0.378-5.482,1.21-7.639L2813.573,1792.187z"/>

									<linearGradient id="SVGID_00000009566274138065337960000015600517991162795680_" gradientUnits="userSpaceOnUse" x1="3547.7031" y1="1867.9506" x2="2420.7783" y2="1888.9158">
									<stop offset="0" style="stop-color:#5783c8"/>
									<stop offset="1" style="stop-color:#4b7bc6"/>
								</linearGradient>
								<path style="fill:url(#SVGID_00000009566274138065337960000015600517991162795680_);" d="M2718.554,1888.885          c8.386,6.637,37.969-2.219,24.168-10.786c-2.23-1.384-4.905-1.81-7.499-2.207c-3.487-0.534-7.064-1.066-10.518-0.35          s-6.818,2.952-7.855,6.324C2715.853,1885.111,2716.667,1887.391,2718.554,1888.885z"/>

									<linearGradient id="SVGID_00000075876253969922561230000013916109257259869096_" gradientUnits="userSpaceOnUse" x1="3546.8345" y1="1821.3212" x2="2419.9099" y2="1842.2863">
									<stop offset="0" style="stop-color:#5783c8"/>
									<stop offset="1" style="stop-color:#4b7bc6"/>
								</linearGradient>
								<path style="fill:url(#SVGID_00000075876253969922561230000013916109257259869096_);" d="M3083.928,1830.491          c5.188,4.548,12.451,5.667,19.287,6.598c3.412,0.465,7.879,0.339,9.057-2.897c1.243-3.412-2.768-6.563-6.378-6.959          s-7.444,0.558-10.788-0.857c-2.966-1.255-5.302-4.287-8.522-4.26c-3.75,0.032-6.02,5.504-3.393,8.18L3083.928,1830.491z"/>
							</g>
							<defs>

									<filter id="Adobe_OpacityMaskFilter_00000031907746883069047190000012393949876009962641_" filterUnits="userSpaceOnUse" x="2389.823" y="1635.219" width="195.978" height="648.287">
									<feFlood style="flood-color:white;flood-opacity:1" result="back"/>
									<feBlend in="SourceGraphic" in2="back" mode="normal"/>
								</filter>
							</defs>

								<mask maskUnits="userSpaceOnUse" x="2389.823" y="1635.219" width="195.978" height="648.287" id="SVGID_00000035516311981514939630000007418744227870917020_">
								<g style="filter:url(#Adobe_OpacityMaskFilter_00000031907746883069047190000012393949876009962641_);">
									<defs>

											<filter id="Adobe_OpacityMaskFilter_00000155833598415146882120000011318652387327328386_" filterUnits="userSpaceOnUse" x="2389.823" y="1635.219" width="195.978" height="648.287">
											<feFlood style="flood-color:white;flood-opacity:1" result="back"/>
											<feBlend in="SourceGraphic" in2="back" mode="normal"/>
										</filter>
									</defs>

										<mask maskUnits="userSpaceOnUse" x="2389.823" y="1635.219" width="195.978" height="648.287" id="SVGID_00000035516311981514939630000007418744227870917020_">
										<g style="filter:url(#Adobe_OpacityMaskFilter_00000155833598415146882120000011318652387327328386_);">
										</g>
									</mask>

										<linearGradient id="SVGID_00000065073408841976940260000003573945881354186910_" gradientUnits="userSpaceOnUse" x1="2433.6814" y1="1898.1259" x2="3031.4468" y2="2636.9373">
										<stop offset="0" style="stop-color:#999999"/>
										<stop offset="0.9974" style="stop-color:#808080"/>
									</linearGradient>

										<polygon style="mask:url(#SVGID_00000035516311981514939630000007418744227870917020_);fill:url(#SVGID_00000065073408841976940260000003573945881354186910_);" points="           2399.219,2283.506 2389.823,1741.987 2567.235,1635.219 2585.802,2200.885          "/>
								</g>
							</mask>

								<linearGradient id="SVGID_00000060020255470736669260000005029433080373900218_" gradientUnits="userSpaceOnUse" x1="2433.6814" y1="1898.1259" x2="3031.4468" y2="2636.9373">
								<stop offset="0" style="stop-color:#FFFFFF"/>
								<stop offset="0.9974" style="stop-color:#FFFFFF"/>
							</linearGradient>
							<polygon style="opacity:0.37;fill:url(#SVGID_00000060020255470736669260000005029433080373900218_);" points="         2399.219,2283.506 2389.823,1741.987 2567.235,1635.219 2585.802,2200.885        "/>
							<defs>

									<filter id="Adobe_OpacityMaskFilter_00000015334150136924119530000004865243211203581363_" filterUnits="userSpaceOnUse" x="3019.857" y="1606.65" width="207.912" height="684.44">
									<feFlood style="flood-color:white;flood-opacity:1" result="back"/>
									<feBlend in="SourceGraphic" in2="back" mode="normal"/>
								</filter>
							</defs>

								<mask maskUnits="userSpaceOnUse" x="3019.857" y="1606.65" width="207.912" height="684.44" id="SVGID_00000016795506234467218600000012432960050406549168_">
								<g style="filter:url(#Adobe_OpacityMaskFilter_00000015334150136924119530000004865243211203581363_);">
									<defs>

											<filter id="Adobe_OpacityMaskFilter_00000062152278090497088310000006023983809075133097_" filterUnits="userSpaceOnUse" x="3019.857" y="1606.65" width="207.912" height="684.44">
											<feFlood style="flood-color:white;flood-opacity:1" result="back"/>
											<feBlend in="SourceGraphic" in2="back" mode="normal"/>
										</filter>
									</defs>

										<mask maskUnits="userSpaceOnUse" x="3019.857" y="1606.65" width="207.912" height="684.44" id="SVGID_00000016795506234467218600000012432960050406549168_">
										<g style="filter:url(#Adobe_OpacityMaskFilter_00000062152278090497088310000006023983809075133097_);">
										</g>
									</mask>

										<linearGradient id="SVGID_00000014593677875990685540000015903820541103510920_" gradientUnits="userSpaceOnUse" x1="2938.553" y1="1826.3378" x2="3480.5159" y2="2222.1643">
										<stop offset="0" style="stop-color:#666666"/>
										<stop offset="0.0345" style="stop-color:#4D4D4D"/>
										<stop offset="0.9974" style="stop-color:#333333"/>
									</linearGradient>

										<polygon style="mask:url(#SVGID_00000016795506234467218600000012432960050406549168_);fill:url(#SVGID_00000014593677875990685540000015903820541103510920_);" points="           3207.125,2291.091 3227.769,1737.698 3019.857,1606.65 3022.76,2187.71          "/>
								</g>
							</mask>
						</g>
					</g>
					<g>

							<rect x="2574.844" y="1635.067" transform="matrix(0.9995 -0.0328 0.0328 0.9995 -61.5338 85.5533)" style="fill:#FFFFFF;" width="3.348" height="565.971"/>

							<rect x="3019.635" y="1606.645" transform="matrix(1 -0.005 0.005 1 -9.448 15.13)" style="fill:#FFFFFF;" width="3.347" height="581.069"/>
					</g>
				</g>
				<g>

						<linearGradient id="SVGID_00000008861568860267674390000000451772728286779788_" gradientUnits="userSpaceOnUse" x1="2398.7336" y1="2184.8223" x2="2481.916" y2="2184.8223" gradientTransform="matrix(0.3319 -0.9433 0.9433 0.3319 -484.2198 3563.2004)">
						<stop offset="0" style="stop-color:#febc96"/>
						<stop offset="1" style="stop-color:#fda47d"/>
					</linearGradient>
					<path style="fill:url(#SVGID_00000008861568860267674390000000451772728286779788_);" d="M2356.948,1965.522       c0,0-19.509,44.41,19.358,61.067c38.867,16.656,39.429-8.761,28.963-21.389c-10.466-12.628-11.803-15.229-16.816-34.883       c-5.012-19.654-8.805-30.035-8.805-30.035S2376.24,1932.145,2356.948,1965.522z"/>

						<linearGradient id="SVGID_00000052066413967991396550000016801483361414313866_" gradientUnits="userSpaceOnUse" x1="2025.6063" y1="1432.8953" x2="2112.0911" y2="1432.8953" gradientTransform="matrix(-0.8593 -0.5115 -0.5115 0.8593 5663.0024 1532.2906)">
						<stop offset="0" style="stop-color:#febc96"/>
						<stop offset="1" style="stop-color:#fda47d"/>
					</linearGradient>
					<path style="fill:url(#SVGID_00000052066413967991396550000016801483361414313866_);" d="M3175.96,1665.059       c0,0,32.584,23.644,11.993,64.141c-20.592,40.497-35.979,39.566-36.04,21.944c-0.062-17.621,0.039-17.917-9.357-37.58       c-9.397-19.662-14.156-52.569-14.156-52.569S3141.567,1647.695,3175.96,1665.059z"/>
				</g>
			</g>
		</g>
	</g>
</g>
</svg>