<?xml version="1.0" encoding="UTF-8" standalone="no"?>
<svg
   xmlns:dc="http://purl.org/dc/elements/1.1/"
   xmlns:cc="http://creativecommons.org/ns#"
   xmlns:rdf="http://www.w3.org/1999/02/22-rdf-syntax-ns#"
   xmlns:svg="http://www.w3.org/2000/svg"
   xmlns="http://www.w3.org/2000/svg"
   xmlns:sodipodi="http://sodipodi.sourceforge.net/DTD/sodipodi-0.dtd"
   xmlns:inkscape="http://www.inkscape.org/namespaces/inkscape"
   inkscape:version="1.0rc1 (09960d6, 2020-04-09)"
   sodipodi:docname="logo-hdi-seguros.svg"
   viewBox="0 0 84.340432 29.79424"
   id="svg290"
   height="29.794239"
   width="84.340431"
   version="1.1">
  <metadata
     id="metadata296">
    <rdf:RDF>
      <cc:Work
         rdf:about="">
        <dc:format>image/svg+xml</dc:format>
        <dc:type
           rdf:resource="http://purl.org/dc/dcmitype/StillImage" />
        <dc:title></dc:title>
      </cc:Work>
    </rdf:RDF>
  </metadata>
  <defs
     id="defs294" />
  <sodipodi:namedview
     fit-margin-bottom="0"
     fit-margin-right="0"
     fit-margin-left="0"
     fit-margin-top="0"
     inkscape:current-layer="svg290"
     inkscape:window-maximized="0"
     inkscape:window-y="23"
     inkscape:window-x="1"
     inkscape:cy="69.009203"
     inkscape:cx="-0.51612587"
     inkscape:zoom="2.9405364"
     showgrid="false"
     id="namedview292"
     inkscape:window-height="855"
     inkscape:window-width="1440"
     inkscape:pageshadow="2"
     inkscape:pageopacity="0"
     guidetolerance="10"
     gridtolerance="10"
     objecttolerance="10"
     borderopacity="1"
     bordercolor="#666666"
     pagecolor="#ffffff" />
  <g
     transform="matrix(0.24315405,0,0,0.24315405,-7.800823,-41.835717)"
     id="Layer1000">
    <path
       inkscape:connector-curvature="0"
       id="path285"
       style="fill:#e30016;fill-rule:evenodd"
       d="m 86.2869,251.0461 v -35.4512 h 64.5503 v 13.1282 8.2754 14.0476 z" />
    <path
       inkscape:connector-curvature="0"
       id="path287"
       style="fill:#009035;fill-rule:evenodd"
       d="M 55.3669,286.361 V 180.2801 h 35.3262 v 39.2836 24.7623 42.035 z m 171.9938,-24.7623 c 43.145,0 45.5904,-56.8619 0,-56.8619 z M 192.85,286.361 V 180.2801 h 43.287 c 6.8046,0 12.9079,0.5604 18.2812,1.707 5.374,1.1463 10.0727,2.9296 14.0962,5.2988 7.6963,4.5856 13.6907,10.9037 17.9305,18.9286 4.2395,8.0501 6.3729,17.0686 6.3729,27.055 0,8.8656 -1.8632,17.1709 -5.6166,24.8644 -3.7539,7.7193 -8.8305,13.8589 -15.2841,18.4445 -4.8067,3.3372 -10.2345,5.8084 -16.2564,7.3879 -6.0489,1.605 -13.07,2.3947 -21.0359,2.3947 z m 127.6532,0 V 180.2801 h 35.1536 V 286.361 Z m -193.5363,0 V 180.2801 h 35.3262 v 39.2836 24.7623 42.035 z" />
  </g>
</svg>
