<?xml version="1.0" encoding="utf-8"?>
<!-- Generator: Adobe Illustrator 18.0.0, SVG Export Plug-In . SVG Version: 6.00 Build 0)  -->
<!DOCTYPE svg PUBLIC "-//W3C//DTD SVG 1.1//EN" "http://www.w3.org/Graphics/SVG/1.1/DTD/svg11.dtd">
<svg version="1.1" id="Capa_1" xmlns="http://www.w3.org/2000/svg" xmlns:xlink="http://www.w3.org/1999/xlink" x="0px" y="0px"
	 viewBox="0 0 235.9 72.2" enable-background="new 0 0 235.9 72.2" xml:space="preserve">
<g>
	<path fill-rule="evenodd" clip-rule="evenodd" fill="#00ABE2" d="M168,2.7h62.5c1.4,0,2.6,1.2,2.6,2.6v61.1c0,1.4-1.2,2.6-2.6,2.6
		H168c-1.4,0-2.6-1.2-2.6-2.6V5.3C165.4,3.9,166.6,2.7,168,2.7L168,2.7z"/>
	<g>
		<path fill-rule="evenodd" clip-rule="evenodd" fill="#1D1D1B" d="M4.5,3.7l15.7,0.2c4.7,0,8.5,3.4,8.8,8.7
			c0.3,5.3-2.6,11.1-11.3,11.4l-5.3,0l-0.1,10.5H4.6L4.5,3.7L4.5,3.7z M12.3,9.6l0,8.6c1.3,0.1,4.6,0,5.6-0.1
			c5.1-0.1,5.2-8.4,0.2-8.5H12.3L12.3,9.6z"/>
		<path fill-rule="evenodd" clip-rule="evenodd" fill="#1D1D1B" d="M46.6,3.4c9.3,0,16.9,7.3,16.9,16.3c0,9-7.6,16.3-16.9,16.3
			c-9.3,0-16.9-7.3-16.9-16.3C29.7,10.8,37.3,3.4,46.6,3.4L46.6,3.4z M46.6,9.6c5.9,0,9,4.6,9,10.2c0,5.6-3,10.1-9,10.2
			c-6,0.1-9.1-4.6-9.1-10.2C37.6,14.1,40.7,9.6,46.6,9.6L46.6,9.6z"/>
		<path fill-rule="evenodd" clip-rule="evenodd" fill="#1D1D1B" d="M133.8,2.7c9.3,0,16.9,7.3,16.9,16.3c0,9-7.6,16.3-16.9,16.3
			c-9.3,0-16.9-7.3-16.9-16.3C116.9,10,124.5,2.7,133.8,2.7L133.8,2.7z M133.9,8.8c5.9,0,9,4.6,9,10.2c0,5.6-3,10.1-9,10.2
			c-6,0.1-9.1-4.6-9.1-10.2C124.8,13.4,128,8.8,133.9,8.8L133.9,8.8z"/>
		<path fill-rule="evenodd" clip-rule="evenodd" fill="#1D1D1B" d="M65.5,3.6l15.7,0.1c4.7,0,8.5,3.4,8.8,8.7c0.2,3.8-1.2,7.4-5,9.3
			l0,0L95,34.5L85,34.5l-8.2-11.3l-3.4,0l-0.1,11.3h-7.6L65.5,3.6L65.5,3.6z M73.3,9.4V18c1.3,0.1,4.6,0.1,5.6,0
			c5.1-0.1,5.3-8.5,0.2-8.7H73.3L73.3,9.4z"/>
		<polygon fill-rule="evenodd" clip-rule="evenodd" fill="#1D1D1B" points="91.2,3.6 118.2,3.6 118.2,10.3 108.6,10.3 108.6,34.5 
			100.9,34.5 100.9,10.3 91.2,10.3 91.2,3.6 		"/>
		<path fill-rule="evenodd" clip-rule="evenodd" fill="#1D1D1B" d="M135,40.9c7.9,0,14.2,6.2,14.2,13.8c0,7.6-6.4,13.8-14.2,13.8
			c-7.9,0-14.2-6.2-14.2-13.8C120.7,47.1,127.1,40.9,135,40.9L135,40.9z M135,46.1c5,0,7.6,3.8,7.6,8.6c0,4.7-2.5,8.5-7.6,8.6
			c-5.1,0.1-7.6-3.8-7.6-8.6C127.3,49.9,130,46.1,135,46.1L135,46.1z"/>
		<path fill-rule="evenodd" clip-rule="evenodd" fill="#1D1D1B" d="M98,41.1l13.8,0.1c4.1,0,7.5,3,7.7,7.7c0.2,3.3-1,6.5-4.4,8.2
			l0,0l8.9,11.2l-8.9-0.1l-7.2-9.9l-3,0l-0.1,9.9h-6.7L98,41.1L98,41.1z M104.9,46.2v7.6c1.1,0.1,4,0.1,4.9,0
			c4.5-0.1,4.6-7.5,0.2-7.6H104.9L104.9,46.2z"/>
		<path fill-rule="evenodd" clip-rule="evenodd" fill="#1D1D1B" d="M20.8,48.4l2.5-5.2c0,0-6.2-3.5-12.3-1.8C4.9,43,2.6,51,7.7,54.6
			c5.2,3.6,9.3,2.8,9,5.9c-0.5,4.5-8.1,1.6-11.5,0l-2,5.4c0,0,3.1,1.9,8.8,2.5c5.7,0.5,11.1-2.6,11.3-8.1
			c0.3-9.3-14.1-7.3-11.5-12.7C13,45.4,17.4,46.7,20.8,48.4L20.8,48.4z"/>
		<polygon fill-rule="evenodd" clip-rule="evenodd" fill="#1D1D1B" points="43.3,41.7 43.3,47.4 32.7,47.4 32.7,51.6 42.4,51.6 
			42.4,57.3 32.7,57.3 32.7,61.9 44.1,61.9 44.1,67.6 26,67.6 26,41.7 43.3,41.7 		"/>
		<path fill-rule="evenodd" clip-rule="evenodd" fill="#1D1D1B" d="M66.3,48.2c-8.9-3.7-14.5,1.1-15.1,6.1c-0.5,4.7,3.5,9.6,12,7.9
			l0-9.1h6.6l0,12.3c-10.9,6.9-25.3,0.7-24.9-10.5c0.5-15.2,17.3-15.7,24-11.8L66.3,48.2L66.3,48.2z"/>
		<path fill-rule="evenodd" clip-rule="evenodd" fill="#1D1D1B" d="M78.5,41.2l-6.6-0.1v16c-0.1,7.5,6,11.2,12.1,11.2
			c6.2,0,12.3-3.7,12.2-11.2v-16l-6.6,0.1l0,15.6c0.1,3.8-1.9,5.6-5.5,5.6c-3.6,0-5.6-1.8-5.5-5.6L78.5,41.2L78.5,41.2z"/>
	</g>
	<path fill-rule="evenodd" clip-rule="evenodd" fill="#FFFFFF" d="M169.2,7c2.4-0.1,31-1.1,47.5,15.1c0,0-13.1-9.8-42.6-5.5
		C172.7,12.8,171,9.6,169.2,7L169.2,7z"/>
	<path fill-rule="evenodd" clip-rule="evenodd" fill="#FFFFFF" d="M224.3,32.9c-8.9-10.1-37.8-5.1-46.6-2.7
		c-0.6-3.5-1.3-6.7-2.2-9.6C181.9,19.6,218.7,14.9,224.3,32.9L224.3,32.9z"/>
	<path fill-rule="evenodd" clip-rule="evenodd" fill="#FFFFFF" d="M178.3,34.7c7-1.9,46.5-11.9,50.5,6.9c-12.5-8.4-42.2,1-50,3.9
		c0.1-2.4,0-4.9-0.2-7.6C178.5,36.9,178.4,35.8,178.3,34.7L178.3,34.7z"/>
	<path fill-rule="evenodd" clip-rule="evenodd" fill="#FFFFFF" d="M178.4,50.8c16.9-7,69.3-20.2,46.4,9c5-9.2,2.1-10.4-4.6-10
		c-12.9,0.7-39.4,12-45.9,15.2C176.1,61.4,177.6,56.7,178.4,50.8L178.4,50.8z"/>
</g>
</svg>
