<?xml version="1.0" encoding="UTF-8" standalone="no"?>
<svg
   xmlns:dc="http://purl.org/dc/elements/1.1/"
   xmlns:cc="http://creativecommons.org/ns#"
   xmlns:rdf="http://www.w3.org/1999/02/22-rdf-syntax-ns#"
   xmlns:svg="http://www.w3.org/2000/svg"
   xmlns="http://www.w3.org/2000/svg"
   xmlns:sodipodi="http://sodipodi.sourceforge.net/DTD/sodipodi-0.dtd"
   xmlns:inkscape="http://www.inkscape.org/namespaces/inkscape"
   inkscape:version="1.0rc1 (09960d6, 2020-04-09)"
   sodipodi:docname="logo.svg"
   xml:space="preserve"
   style="enable-background:new 0 0 419.3 144.7;"
   viewBox="0 0 419.3 144.7"
   y="0px"
   x="0px"
   id="Layer_1"
   version="1.1"><metadata
   id="metadata107"><rdf:RDF><cc:Work
       rdf:about=""><dc:format>image/svg+xml</dc:format><dc:type
         rdf:resource="http://purl.org/dc/dcmitype/StillImage" /><dc:title></dc:title></cc:Work></rdf:RDF></metadata><defs
   id="defs105"><clipPath
     id="clipPath117"
     clipPathUnits="userSpaceOnUse"><path
       inkscape:connector-curvature="0"
       d="m 194.90039,96 v 18.30078 h 11.10352 v -5.89844 c -1.44994,-1.1531 -2.98666,-2.25796 -4.5625,-3.20312 -0.32674,-0.19598 -0.71203,-0.275 -1.04883,-0.45313 -0.48156,-0.25471 -0.93522,-0.56151 -1.40235,-0.84179 -0.71377,-0.42826 -0.56598,-1.07657 -0.0469,-1.13282 0.17304,-0.0187 0.38708,0.0291 0.625,0.17188 0.46713,0.28028 0.91904,0.58475 1.40039,0.83984 0.29205,0.15477 0.63067,0.21663 0.91406,0.38672 1.41532,0.84949 2.79767,1.80112 4.1211,2.81055 V 96 Z"
       style="fill:#ff0000;fill-opacity:1;fill-rule:nonzero;stroke:none"
       id="path119" /></clipPath></defs><sodipodi:namedview
   inkscape:current-layer="Layer_1"
   inkscape:window-maximized="1"
   inkscape:window-y="23"
   inkscape:window-x="0"
   inkscape:cy="72.35"
   inkscape:cx="209.65"
   inkscape:zoom="1.7839256"
   showgrid="false"
   id="namedview103"
   inkscape:window-height="855"
   inkscape:window-width="1440"
   inkscape:pageshadow="2"
   inkscape:pageopacity="0"
   guidetolerance="10"
   gridtolerance="10"
   objecttolerance="10"
   borderopacity="1"
   bordercolor="#666666"
   pagecolor="#ffffff" />
<style
   id="style10"
   type="text/css">
	.st0{fill:#00467F;}
	.st1{fill:none;}
</style>
<g
   id="g88">
	<g
   id="g70">
		<g
   id="g68">
			<g
   id="g36">
				<path
   id="path12"
   d="M123.3,81.6c-4.9,0-8.1-0.5-12-1.9v-8.9c3.4,1.3,7,2.2,10.7,2.2c3.3,0,4.6-1,4.6-2.8c0-2.7-3.8-3.4-7.7-4.6      c-4.2-1.2-8.6-3.7-8.6-10.6c0-7.1,4.2-11.9,14.2-11.9c3.8,0,6.6,0.5,9.6,1.4v8.6c-3.3-0.7-6.4-1.2-9-1.2c-4,0-4.8,1.1-4.8,2.5      c0,2.3,3.2,2.9,6.7,3.9c4.5,1.2,9.6,3.5,9.6,11.2C136.6,76.9,131.6,81.6,123.3,81.6z"
   class="st0" />
				<path
   id="path14"
   d="M141.1,51.4c0,0,4.2-1.5,10.4-1.5c6.3,0,12.4,1.8,12.4,12.5v18.5h-6.6l-1.1-3.3h-0.3c0,0-2.5,3.9-7.8,3.9      c-5.6,0-9.6-3-9.6-9.7c0-7.2,4.7-10.2,11.3-10.2c1.9,0,3.8,0.3,4.6,0.5v-0.9c0-1.8-0.9-3.6-5-3.6c-4.1,0-8.3,1.3-8.3,1.3V51.4z       M154.4,72.3V68c-0.7-0.2-1.7-0.3-2.6-0.3c-3.4,0-4.4,1.5-4.4,3.4c0,1.8,1.3,3,3.3,3C152.3,74.1,153.6,73.3,154.4,72.3z"
   class="st0" />
				<path
   id="path16"
   d="M177.6,80.9h-9.5V50.5h6.6l1,3.5l0,0h0.3c2.4-2.7,5.3-4,8.4-4c6.3,0,10.3,4,10.3,11.2v19.8h-9.6v-19      c0-2.8-1.1-3.9-3.7-3.9c-1.2,0-2.7,0.5-4,2.1V80.9z"
   class="st0" />
				<path
   id="path18"
   d="M235.3,53c-1.7-0.6-5-1.1-7.4-1.1c-6,0-7.4,2.4-7.4,10.2c0,8.3,1.6,10.7,7.5,10.7c2.3,0,5.5-0.5,7.4-1.3      v8.4c-2.4,1.2-5.9,1.8-8.8,1.8c-11.3,0-17-6.4-17-19.6c0-12.2,5.5-19.1,17.7-19.1c2.7,0,6,0.4,8,1.2V53z"
   class="st0" />
				<path
   id="path20"
   d="M248.5,80.9h-9.5V50.5h6.6l1.3,5.3h0.5c1.4-3.9,3.7-5.9,6.3-5.9c1.2,0,2,0.2,2.6,0.5v8.2      c-0.3-0.1-1.5-0.2-2.2-0.2c-2.8,0-4.5,1.2-5.7,4V80.9z"
   class="st0" />
				<path
   id="path22"
   d="M264.3,48.3c-3.6,0-5.2-1-5.2-3.9c0-2.5,1.6-3.9,5.2-3.9c3.6,0,5.2,1.4,5.2,3.9      C269.5,47,268,48.3,264.3,48.3z M259.4,80.9V50.5h9.8v30.4H259.4z"
   class="st0" />
				<path
   id="path24"
   d="M284.3,81.6c-3.9,0-7.1-0.5-9.8-1.3v-7.8c2.6,0.9,6.3,1.6,8.8,1.6c2.3,0,3.3-1,3.3-2.2      c0-2.2-3.2-2.2-6.3-3.3c-3.4-1.2-7-2.7-7-8.5c0-6,3.7-10.1,11.5-10.1c3.2,0,6.2,0.4,8.8,1.2v7.4c-2.3-0.7-5.6-1.2-7.5-1.2      c-2.5,0-3.6,0.9-3.6,2c0,1.9,2.5,1.9,5.4,2.8c3.6,1,7.6,2.4,7.6,8.8C295.4,77.3,292.2,81.6,284.3,81.6z"
   class="st0" />
				<path
   id="path26"
   d="M309.3,57.8v13.3c0,1.9,0.9,2.8,3.1,2.8c0.7,0,2.3-0.1,2.8-0.3v7c-1.1,0.5-3.4,0.9-5.8,0.9      c-6.7,0-9.8-3.8-9.8-9.8V57.8h-2.9v-7.3h3.3l0-6.1l9.1-0.9v7h6.3v7.3H309.3z"
   class="st0" />
				<path
   id="path28"
   d="M331.5,81.6c-9.9,0-14.4-4.6-14.4-15.7c0-11.1,4.5-15.9,14.4-15.9c10,0,14.3,4.8,14.3,15.9      C345.9,77,341.6,81.6,331.5,81.6z M331.6,74.1c3.3,0,4.4-1.6,4.4-8.3c0-6.8-1.1-8.3-4.4-8.3c-3.3,0-4.5,1.5-4.5,8.3      C327.1,72.6,328.3,74.1,331.6,74.1z M339.9,41.5l-5,6.4h-7.1l2.2-6.4H339.9z"
   class="st0" />
				<path
   id="path30"
   d="M358.9,52.8c2-2.1,4.7-2.8,7.3-2.8c6.7,0,10.9,4.9,10.9,15.6c0,11-3.7,15.9-11.6,15.9      c-3.4,0-6.5-1.5-8.3-3.9h-0.3l-1,3.3h-6.5v-39l9.5-0.9v7.2c0,0.8-0.4,4.7-0.4,4.7H358.9z M362.8,58.1c-1.7,0-3.1,0.8-4,2.2v11      c0.8,1.1,2.1,2.1,4,2.1c2.8,0,4.3-1.2,4.3-7.6C367.2,59,365.8,58.1,362.8,58.1z"
   class="st0" />
				<path
   id="path32"
   d="M381.9,51.4c0,0,4.2-1.5,10.4-1.5c6.3,0,12.4,1.8,12.4,12.5v18.5H398l-1.1-3.3h-0.3c0,0-2.5,3.9-7.8,3.9      c-5.6,0-9.6-3-9.6-9.7c0-7.2,4.7-10.2,11.3-10.2c1.9,0,3.8,0.3,4.6,0.5v-0.9c0-1.8-0.9-3.6-5-3.6c-4.1,0-8.3,1.3-8.3,1.3V51.4z       M395.2,72.3V68c-0.7-0.2-1.7-0.3-2.6-0.3c-3.4,0-4.4,1.5-4.4,3.4c0,1.8,1.3,3,3.3,3C393,74.1,394.3,73.3,395.2,72.3z"
   class="st0" />
				<path
   id="path34"
   d="M409.1,80.9v-39l9.7-0.9v39.9H409.1z"
   class="st0" />
			</g>
			<g
   id="g66">
				
				
				
				
				
				
				
				
				
				
				
				
				
				
			</g>
		</g>
	</g>
	<g
   id="g86">
		<path
   id="path72"
   d="M56.1,49.3c-2.8-0.2-2.8-2.8-2.8-3.9c0-3.3,1.9-0.7,2.1-3.6c0-0.6-0.4-0.7-0.6-0.7c-0.6,0-0.7,0.1-0.8,0.1    c-0.4-0.2-1.3-1.3-1.3-3c-0.8-0.1-2.8-0.2-3.9-1.2c-1.1,0.2-1.4,1.2-1.4,1.9c0,0.7,0.4,1.7,0.4,1.9c0,0.8-1.1,1.1-1.1,1.7    c0,0.4,0.7,0.6,0.7,1.1c0,0.5-0.4,1.1-0.4,1.9c0,1.1,2.1,1.7,2.3,1.7c-0.4,0.1-0.8,0.4-2.5,0.4c-1.7,0-3.4-1.5-5.7-1.5    c-2.4,0-7.2,4-12.9,4c-0.7,0-1.3,0-1.8-0.1c-0.8-0.7-1.1-0.9-1.7-1.5L24.5,48c-0.1-0.1-0.7-0.4-1.2-0.4c-1-0.6-2.7-1.8-3.4-1.8    c-0.1,0-0.2,0-0.2,0.2c0,0.1,0.2,0.6,0.6,0.8c-0.4-0.1-1-0.2-1.2-0.2c-0.1,0-0.4,0-0.4,0.1c0,0.7,1.4,0.9,2.6,1.4    c0.9,0.5,1.9,1.1,1.9,1.9c0,0.2,0,0.5-0.4,0.5c0,0-1.4-0.8-2.3-0.8c-0.4,0-0.5,0.1-0.5,0.4c0,0.5,1.1,0.9,2.4,1.4    c0.7,0.4,1.3,0.8,2.1,0.8c0.4,0,1.2-0.2,1.2-0.2c2,0.7,3.9,1.1,5.8,1.1c2.5,0,6.9-2.1,8.8-2.1c0.5,0,0.9,0.1,0.9,0.7    c0,2.3-6.2,5.1-6.2,11.5c0,5.8,6.8,10.2,11.3,10.2c2.1,0,5-1.4,5-4.5c0-6.5-8.9-4.1-8.9-6.9c0-0.2,0.1-0.5,0.5-0.5    c0.4,0,2.4,0.9,4.4,0.9C52.7,62.5,49.2,52.6,56.1,49.3z M50.3,41c0,0.4-0.4,0.6-0.8,0.6c-0.5,0-0.7-0.4-0.7-0.7    c0-0.6,0.3-0.8,1.2-0.8c0.6,0,1.3,0.2,1.3,0.6C51.3,40.7,51.1,41,50.3,41z"
   class="st1" />
		<path
   id="path74"
   d="M55.4,54.1c0,0.9,3,1.2,3,1.9c0,0.4-0.2,0.7-1.1,0.7c-0.6,0-0.8-0.1-1.2-0.2C56,56.7,55.8,57,55.3,57    c-0.6,0-0.8-0.5-0.8-0.5s-0.1,0.4-0.6,0.6c-1.2,1.1-1.4,3.2-1.4,4.5c0,0,0.5-0.4,1.4-0.4c0.9,0,2.2,0.1,3,0.2l1.7-3.3    c0.1-0.2,0.4-1.5,2-1.5c1.9,0,3.1,1.5,3.1,1.9c0,0.2-0.1,0.4-0.6,0.4c-0.4,0-0.7-0.1-1-0.2c-0.1,0.4-0.5,0.6-0.9,0.6    c-0.6,0-0.9-0.4-0.9-0.9C59.5,58.6,59,59.4,59,61c0,1.7,0.2,2.6,0.7,4.3c2.6-2.4,6.4-2,6.4-8.9c0-3.2-0.3-4.3-0.6-5.3    c-0.8-0.5-2.7-0.9-3.2-0.9c-0.6,0-0.2,0.8-3.6,2.2C56.5,53.3,55.4,53.5,55.4,54.1z"
   class="st1" />
		<g
   id="g78">
			<polygon
   id="polygon76"
   points="50.9,134.2 13.1,48.3 9.9,51.6 50.9,144.7 91.5,51.5 88.3,48.3    "
   class="st0" />
		</g>
		<path
   id="path80"
   d="M55,45.8c0-0.6,0-1.1,0.4-1.3c1.1-0.8,3.3-0.5,3.3-2.4c0-0.5-0.2-0.8-0.2-0.8s1.5-1.1,1.5-3.2    c0-1.2-1.3-2-1.9-3c-1.3-1.9-2.7-2.7-4.6-2.7c-0.5,0-0.7,0.1-1.1,0.2c-0.5-0.4-1.2-1.2-2.6-1.2c-1.3,0-1.9,0.8-2.1,1.2    c-1.1,0.2-1.7,0.9-1.7,2.1c0,0.8,0.8,1.5,0.8,1.5c-0.2,0.1-1.3,1-1.3,2.3c0,1.1,0.4,1.7,0.4,2.1c0,0.5-1.1,0.9-1.1,1.7    c0,0.6,0.7,1.1,0.7,1.4c0,0.4-0.2,0.7-0.2,1.5c-1.4-0.7-2.5-1.2-4.2-1.2c-3.9,0-6.3,4.1-14,4.1c-1.2-0.8-1.5-1.2-2.6-2.1    c-0.5-0.4-0.7-0.1-1.3-0.4c-1-0.6-2.3-1.3-3.3-1.3c-1.7,0-2.7,0.8-2.7,2.4c0,0.9,0.7,1.9,1.9,2.1c-0.7,0.2-0.8,0.8-0.8,1.1    c0,1.1,1.1,1.8,3,2.6c0.7,0.4,1.9,1.2,3.1,1.2c0.6,0,1.1-0.1,1.2-0.1c0,0,3.3,1.1,5.3,1.1c4.6,0,6.6-1.5,7.9-1.9    c0,0.2-5.5,4.1-5.5,10.3c0,2.1,0.8,4,1.9,5.7l-5.6,2.8l6,13.9c0,0,4.9-0.2,5.8-2.7c-1.2-2.8-1.8-5.2-1.8-6.8c0-1,0.4-2,0.7-2.6    c1.9,1,3.9,1.7,5.6,1.7c2.8,0,4.6-1.2,5.5-2.2c0.4,0.7,1,1.9,1,5.1c0,3.4-2.7,6.4-2.7,6.4l-7.2,8.9c-1.1,1.3-1.5,2.5-1.5,3.6    c0,0.5,0.1,0.9,0.2,1.3l10.1,23.1l17.4-39.9c0,0-0.6,0.2-1.3,0.2c-1.1,0-3.2-0.6-3.2-3.4c0-3.1,2.8-4.6,2.8-4.6s-0.2-1.5-0.2-2.2    c0-0.7,0.2-1.2,0.7-1.2c0.6,0,2,1.9,3.6,1.9c1.4,0,2.1-0.9,2.6-2L84.9,44h-4.5l-9.6,22c0.1-0.5,1.2-4,1.2-7c0-3-0.9-4.2-1.7-4.9    v-0.9c0-4.7-3.4-5.8-4.6-5.9c-1.4-0.1-1.5-1.1-3.6-1.1c-3.3,0-3.9,1.5-5.6,1.5C55.8,47.7,55,47,55,45.8z M47.3,62.5    c-2,0-4-0.9-4.4-0.9c-0.4,0-0.5,0.2-0.5,0.5c0,2.7,8.9,0.4,8.9,6.9c0,3.1-2.8,4.5-5,4.5c-4.5,0-11.3-4.4-11.3-10.2    c0-6.4,6.2-9.2,6.2-11.5c0-0.6-0.5-0.7-0.9-0.7c-1.9,0-6.3,2.1-8.8,2.1c-1.9,0-3.8-0.4-5.8-1.1c0,0-0.8,0.2-1.2,0.2    c-0.8,0-1.4-0.5-2.1-0.8c-1.3-0.5-2.4-0.9-2.4-1.4c0-0.2,0.1-0.4,0.5-0.4c0.8,0,2.3,0.8,2.3,0.8c0.4,0,0.4-0.2,0.4-0.5    c0-0.8-0.9-1.4-1.9-1.9c-1.2-0.5-2.6-0.7-2.6-1.4c0-0.1,0.2-0.1,0.4-0.1c0.2,0,0.8,0.1,1.2,0.2c-0.4-0.2-0.6-0.7-0.6-0.8    c0-0.2,0.1-0.2,0.2-0.2c0.7,0,2.5,1.2,3.4,1.8c0.5,0,1.1,0.2,1.2,0.4l0.2,0.4c0.6,0.6,0.8,0.8,1.7,1.5c0.5,0.1,1.1,0.1,1.8,0.1    c5.7,0,10.5-4,12.9-4c2.3,0,4,1.5,5.7,1.5c1.7,0,2.1-0.2,2.5-0.4c-0.1,0-2.3-0.6-2.3-1.7c0-0.8,0.4-1.4,0.4-1.9    c0-0.5-0.7-0.7-0.7-1.1c0-0.6,1.1-0.8,1.1-1.7c0-0.2-0.4-1.2-0.4-1.9c0-0.7,0.4-1.7,1.4-1.9c1.1,1,3.1,1.1,3.9,1.2    c0,1.7,0.9,2.7,1.3,3c0.1,0,0.2-0.1,0.8-0.1c0.2,0,0.6,0.1,0.6,0.7c-0.2,2.8-2.1,0.2-2.1,3.6c0,1.1,0,3.7,2.8,3.9    C49.2,52.6,52.7,62.5,47.3,62.5z M62.3,50.1c0.5,0,2.4,0.5,3.2,0.9c0.2,1.1,0.6,2.1,0.6,5.3c0,6.9-3.8,6.5-6.4,8.9    C59.2,63.6,59,62.7,59,61c0-1.7,0.6-2.4,1.2-2.7c0,0.6,0.4,0.9,0.9,0.9c0.5,0,0.8-0.2,0.9-0.6c0.2,0.1,0.6,0.2,1,0.2    c0.5,0,0.6-0.1,0.6-0.4c0-0.4-1.2-1.9-3.1-1.9c-1.7,0-1.9,1.3-2,1.5l-1.7,3.3c-0.7-0.1-2-0.2-3-0.2c-0.9,0-1.4,0.4-1.4,0.4    c0-1.3,0.2-3.4,1.4-4.5c0.5-0.2,0.6-0.6,0.6-0.6s0.2,0.5,0.8,0.5c0.5,0,0.7-0.2,0.8-0.5c0.4,0.1,0.6,0.2,1.2,0.2    c0.8,0,1.1-0.4,1.1-0.7c0-0.7-3-0.9-3-1.9c0-0.6,1.1-0.8,3.3-1.8C62,50.9,61.7,50.1,62.3,50.1z"
   class="st0" />
		<path
   id="path82"
   d="M49.9,40c-0.8,0-1.2,0.2-1.2,0.8c0,0.4,0.2,0.7,0.7,0.7c0.5,0,0.8-0.2,0.8-0.6c0.8,0,1-0.2,1-0.4    C51.3,40.3,50.5,40,49.9,40z"
   class="st0" />
		<polygon
   id="polygon84"
   points="50.9,0 50.9,0 50.9,0 0,50.7 1.6,54.4 50.9,5.4 99.5,54.2 101.1,50.4   "
   class="st0" />
	</g>
</g>
<g
   id="g90">
</g>
<g
   id="g92">
</g>
<g
   id="g94">
</g>
<g
   id="g96">
</g>
<g
   id="g98">
</g>
<g
   id="g100">
</g>
</svg>
