<?xml version="1.0" encoding="utf-8"?>
<!-- Generator: Adobe Illustrator 26.5.0, SVG Export Plug-In . SVG Version: 6.00 Build 0)  -->
<svg version="1.1" id="Layer_1" xmlns="http://www.w3.org/2000/svg" xmlns:xlink="http://www.w3.org/1999/xlink" x="0px" y="0px"
	 viewBox="0 0 132.9 46.7" style="enable-background:new 0 0 282.9 46.7;" xml:space="preserve">
<style type="text/css">
	.st0{fill:#48459C;}
	.st1{fill:#5B6772;}
	.st2{enable-background:new    ;}
</style>
<g id="Group_1693" transform="translate(-8960.311 8333.606)">
	<g id="Group_1692" transform="translate(12690 -8452)">
		<g id="Group_1691" transform="translate(-3729.689 118.394)">
			<path id="Path_655" class="st0" d="M28.1,0.6c3.6,0,7.2,0,10.8,0c0.8-0.1,1.7,0.3,2.2,1c0.8,1.1,0.6,2.7-0.5,3.5
				c-0.4,0.3-0.8,0.4-1.2,0.5c-0.3,0-0.7,0-1,0c-6.4,0-12.9,0-19.3,0c-7-0.1-12.8,5.5-12.9,12.5c0,2.7,0.8,5.3,2.3,7.5
				c1.9,2.7,4.9,4.5,8.1,5.2c0.4,0.1,0.8,0.1,1.2,0.1c3.7,0,7.3,0,11,0c1,0.1,2-0.6,2.3-1.6c0.5-1.2,0-2.7-1.3-3.2
				c-0.2-0.1-0.3-0.1-0.5-0.2c-0.4-0.1-0.8-0.1-1.2-0.1c-3.1,0-6.2,0-9.3,0c-2.6,0.1-5.1-1.2-6.5-3.4c-2.3-3.5-1.3-8.2,2.2-10.5
				c1.2-0.8,2.5-1.2,3.9-1.2c3.7-0.1,7.3-0.1,11,0c9.8,0.3,17.4,8.5,17,18.3c-0.2,6.7-4.3,12.7-10.4,15.5c-2.3,1.1-4.9,1.6-7.5,1.6
				c-6.5,0-13,0-19.5,0c-0.7,0.1-1.5-0.1-2.1-0.5C6,45,5.7,43.8,6,42.8s1.1-1.7,2.1-1.7c0.3,0,0.7,0,1,0c6.4,0,12.8-0.1,19.2,0
				c7,0.2,12.8-5.4,12.9-12.3c0.1-4.2-1.9-8.1-5.3-10.6c-2.2-1.5-4.7-2.4-7.4-2.4c-3.2,0-6.4,0-9.7,0c-0.4,0-0.8,0-1.2,0.1
				c-1,0.3-1.7,1.3-1.7,2.4s0.7,2,1.7,2.3c0.4,0.1,0.9,0.2,1.3,0.2c3.3,0,6.5,0,9.8,0c4.2,0.1,7.5,3.5,7.4,7.7
				c-0.1,4.1-3.4,7.5-7.6,7.4c-3.5,0-7.1,0.1-10.6,0C10.4,35.6,5,31.9,2,25.1c-2.3-6.5-0.9-14.2,4.3-19.3c3.1-3.2,7.3-5.1,11.8-5.2
				C21.5,0.6,24.8,0.6,28.1,0.6L28.1,0.6z"/>
			<path id="Path_656" class="st1" d="M109.9,22.5c1,0.5,1.9,0.8,2.7,1.3c2.3,1.1,3.9,3.3,4.2,5.8c0.5,4.5-1,8.1-5.7,10
				c-2.1,0.8-4.4,1.3-6.7,1.2c-4.5,0-9.1,0-13.6,0c-1.4,0.1-2.7-0.7-3.1-2c-0.1-0.4-0.2-0.7-0.2-1.1c0-9.7,0-19.3,0-29
				c-0.1-1.7,1.2-3.2,2.9-3.2c0.1,0,0.2,0,0.2,0c4.4-0.1,8.8-0.1,13.2,0c2,0,4.1,0.4,6,1.2c2.1,0.9,3.7,2.5,4.6,4.6
				c1.6,3.9,0.1,8.3-3.4,10.5C110.6,22,110.3,22.2,109.9,22.5z M93.4,35.5c0.2,0,0.4,0.1,0.6,0.1c3.5,0,7,0,10.5,0
				c1.1,0,2.1-0.3,3.1-0.6c1.8-0.5,3.1-2.2,3.1-4.1c0.2-1.9-0.9-3.7-2.7-4.4c-1.4-0.6-2.9-0.9-4.5-0.8c-3,0-6.1,0-9.2,0
				c-0.4,0-0.7,0.1-1.1,0.1L93.4,35.5z M93.4,20.5c0.5,0,0.9,0.1,1.3,0.1c1.8,0,3.7,0,5.5,0c1.1,0,2.2,0,3.3-0.1
				c1.1-0.1,2.1-0.4,3.1-0.9c1.5-0.8,2.4-2.4,2.2-4.2c0-1.7-1.1-3.2-2.7-3.8c-1-0.4-2.1-0.6-3.2-0.6c-2.9,0-5.7,0-8.6,0
				c-0.3,0-0.6,0-0.9,0.1L93.4,20.5z"/>
			<path id="Path_657" class="st1" d="M70.8,40.9c-4.5,0-8.9-1.5-12.5-4.2c-0.7-0.4-1.1-1-1.3-1.8c-0.3-1.1,0.2-2.3,1.2-2.9
				c1-0.7,2.4-0.6,3.3,0.1c1.3,1,2.6,1.8,4.1,2.4c2.5,1.2,5.4,1.4,8.1,0.8c0.7-0.2,1.3-0.5,1.9-0.9c1.6-1.1,2.3-3.1,1.5-4.9
				c-0.3-0.8-1-1.5-1.8-1.8c-1.7-0.8-3.4-1.5-5.3-1.8c-2.7-0.5-5.3-1.4-7.7-2.7c-3.4-1.9-4.5-4.9-4.2-8.7c0.5-5.3,5-7.9,8.7-8.7
				c2.9-0.5,5.9-0.3,8.7,0.5c2,0.5,3.8,1.4,5.4,2.6c1.2,0.9,1.5,2.6,0.6,3.8c-0.2,0.3-0.6,0.6-0.9,0.8c-0.9,0.5-2,0.4-2.9-0.1
				c-1.2-0.7-2.5-1.3-3.8-1.9c-2-0.8-4.1-1-6.2-0.5c-0.8,0.2-1.6,0.6-2.3,1.1c-1.6,1.3-1.9,3.7-0.5,5.4c0.3,0.3,0.6,0.6,1,0.9
				c1.6,0.8,3.4,1.5,5.2,1.9c1.9,0.5,3.8,1,5.7,1.7c1,0.4,2,0.9,3,1.5c2,1.3,3.4,3.4,3.6,5.8c0.5,3.1-0.5,6.3-2.7,8.5
				c-1.1,1.1-2.5,1.9-4,2.4C74.7,40.7,72.8,40.9,70.8,40.9z"/>
			<path id="Path_658" class="st1" d="M128.8,23.3c0,4.8,0,9.6,0,14.4c0.1,1.1-0.4,2.1-1.3,2.6c-1.4,0.9-3.2,0.5-4-0.9
				c-0.3-0.5-0.5-1-0.5-1.5c0-2.3,0-4.6,0-6.9c0-7.3,0-14.7,0-22c0-0.8,0.2-1.5,0.6-2.1c0.8-0.9,2-1.3,3.2-1c1.1,0.3,2,1.3,2,2.5
				c0,0.3,0,0.7,0,1C128.8,14.1,128.8,18.7,128.8,23.3z"/>
		</g>
	</g>
</g>
</svg>
