<?xml version="1.0" encoding="UTF-8" standalone="no"?>
<svg version="1.1" id="logo-cuaprose" xmlns="http://www.w3.org/2000/svg" xmlns:xlink="http://www.w3.org/1999/xlink" x="0px" y="0px" viewBox="0 0 600 175.5" enable-background="new 0 0 600 175.5" xml:space="preserve">
<g id="isotipo_1_">
	<path fill-rule="evenodd" clip-rule="evenodd" fill="#FCD116" d="M5.4,72c-1.4,8.1,6.8,21,8.1,28.4L168,107c1.8-2.2-11.8-4.1-9.1-8
		c2.7-3.8,6.9-10.8,9.4-16.3L5.4,72z"></path>
	<path fill-rule="evenodd" clip-rule="evenodd" fill="#FCD116" d="M145.1,148.5c1.2-8.1,12.1-13.5,11-20.9l-144-3.3
		c-1.1,1.6,3.4,7.1,4.9,5.4c0.3-0.4,0.5-3-0.1-2c-2.3,3.8,12.6,10.5,10.4,16L145.1,148.5z"></path>
	<path fill-rule="evenodd" clip-rule="evenodd" fill="#FCD116" d="M28,30.4c-1.6,2-2,2.5-4.6,6.2c-2.6,3.7-0.7,10.9-3.4,16.3
		l142.5,2.2c-4.3-7.2-12.4-9.7-10.5-17.2L28,30.4z"></path>
	<path fill-rule="evenodd" clip-rule="evenodd" fill="#0038A8" d="M122.1,164.5c-10.7,5.1-22.7,7.9-35.4,7.9
		c-33.5,0-62.4-19.9-75.6-48.5L122.1,164.5z M160,128.5c-4,7.4-9,14.1-14.9,20L3.9,96.9c-0.2-2.5-0.4-5.1-0.4-7.6
		c0-5.9,0.6-11.7,1.8-17.3L160,128.5z M169.6,82.1c0.2,2.4,0.3,4.7,0.3,7.2c0,6.1-0.7,12-1.9,17.7L13.2,50.4
		c3.9-7.4,8.9-14.1,14.8-20L169.6,82.1z M86.7,6.1c33.7,0,62.8,20.1,75.8,49L50.8,14.3C61.6,9.1,73.8,6.1,86.7,6.1z"></path>
</g>
<path id="logotipo_1_" fill="#0038A8" d="M552.1,96.7c0.6-6.1,1-11.2,1.3-15.3c0.3-4.1,0.5-9.6,0.8-16.4c0.3-6.8,0.4-11.3,0.4-13.6
	l0-3.1c5.6,0,12.3,0.1,20.3,0.1c7.3,0,13.7,0,19.3-0.1l-0.1,1.2c0,0.3-0.1,1.3-0.2,3.1l-0.2,3.9c0,0.8-0.1,1.7-0.1,2.5
	c-4.6-0.2-8.4-0.3-11.5-0.3c-3.4,0-5.7,0-6.9,0c-1.2,0-3.1,0.1-5.6,0.2l-0.4,8.1c2.8,0.1,6,0.1,9.7,0.1c1.3,0,4.9-0.1,10.6-0.3
	c-0.2,3-0.5,6.6-0.7,10.8c-4.1,0-7.2-0.1-9.4-0.1c-3.3,0-6.9,0.1-11,0.2l-0.4,8.6h4.1c1.2,0,3.7,0,7.5-0.1l7.4-0.2
	c1.1,0,2.9-0.1,5.5-0.3c-0.3,3.5-0.5,7.1-0.7,10.9c-5.8,0-12.1-0.1-19-0.1l-15.6,0L552.1,96.7z M511.6,96c-0.3-5-0.7-9-1.1-12.1
	c2.7,1.2,5.1,2,7.1,2.4c2.1,0.5,3.9,0.7,5.5,0.7c2.1,0,3.7-0.3,5-0.9c1.2-0.6,1.8-1.5,1.8-2.7c0-0.4-0.1-0.8-0.2-1.2
	c-0.1-0.4-0.3-0.8-0.7-1.2c-0.3-0.5-0.8-1-1.4-1.5l-6.7-5.8c-1.6-1.3-2.7-2.3-3.3-2.9c-1.3-1.2-2.3-2.3-3-3.4
	c-0.7-1-1.2-2.1-1.5-3.2c-0.3-1.1-0.5-2.2-0.5-3.4c0-1.4,0.3-2.9,0.8-4.2c0.5-1.4,1.3-2.7,2.3-3.9c1-1.2,2.4-2.2,4.1-3.1
	c1.7-0.9,3.5-1.5,5.4-1.8c1.9-0.3,3.9-0.5,5.9-0.5c4,0,8.4,0.5,13.1,1.4c0.1,1.6,0.1,3.1,0.2,4.5c0.1,1.4,0.3,3.7,0.7,7.1
	c-2.2-0.9-4.2-1.5-6-1.8c-1.8-0.3-3.4-0.5-4.7-0.5c-1.9,0-3.4,0.3-4.6,1c-1.2,0.7-1.8,1.5-1.8,2.6c0,0.5,0.1,0.9,0.3,1.4
	c0.2,0.4,0.5,1,1.1,1.6c0.5,0.6,1.2,1.3,2.1,2c0.9,0.7,2.2,1.8,4,3.2l2.6,2c0.8,0.6,1.6,1.4,2.5,2.2c0.9,0.9,1.6,1.7,2.3,2.6
	c0.7,0.9,1.1,1.6,1.5,2.3c0.3,0.7,0.6,1.4,0.8,2.1c0.2,0.7,0.3,1.5,0.3,2.3c0,2.1-0.5,4.2-1.5,6.1c-1,1.9-2.5,3.5-4.3,4.8
	c-1.9,1.2-3.9,2.1-6.2,2.6c-2.2,0.5-4.6,0.8-7.1,0.8C522.3,97.7,517.4,97.1,511.6,96z M477.8,58.1c-2.7,0-5.2,0.7-7.4,2
	c-2.2,1.3-3.9,3.2-5.1,5.6c-1.2,2.4-1.8,4.9-1.8,7.7c0,2.5,0.5,4.8,1.6,6.9c1.1,2.1,2.7,3.7,4.9,4.9c2.2,1.2,4.5,1.8,7,1.8
	c2.6,0,5.1-0.7,7.2-2c2.2-1.3,3.9-3.2,5-5.5c1.2-2.4,1.7-4.9,1.7-7.5c0-2.5-0.5-4.9-1.6-7c-1.1-2.1-2.6-3.8-4.7-5
	C482.7,58.7,480.4,58.1,477.8,58.1z M478.4,47.4c3.8,0,7.4,0.5,10.9,1.5c3.5,1,6.6,2.6,9.2,4.9c2.6,2.2,4.6,4.8,5.9,7.7
	c1.3,2.9,1.9,6.3,1.9,10c0,4-0.7,7.6-2.1,10.9c-1.4,3.3-3.5,6.2-6.2,8.5c-2.7,2.3-5.9,4-9.7,5.1c-3.7,1.1-7.6,1.6-11.7,1.6
	c-4,0-7.8-0.5-11.5-1.6c-3.7-1.1-6.9-2.8-9.6-5.1c-2.7-2.4-4.6-5-5.8-7.9c-1.1-2.9-1.7-6.1-1.7-9.6c0-5.2,1.2-9.7,3.6-13.6
	c2.4-3.9,6-7,10.7-9.2C467.2,48.5,472.5,47.4,478.4,47.4z M398.1,96.7c0.5-4.2,0.8-7.9,1.1-11.3c0.3-3.3,0.5-7.2,0.7-11.6
	c0.2-4.4,0.4-9,0.4-13.9c0.1-4.9,0.1-8.8,0.1-11.7c3,0.1,5.3,0.1,7.2,0.1c1.9,0,4.2-0.1,6.9-0.2c2.7-0.1,5.4-0.2,7.9-0.2
	c3,0,5.7,0.1,8.1,0.4c1.8,0.2,3.4,0.5,4.8,1c1.5,0.5,2.7,1.2,3.7,1.9c1,0.8,1.8,1.6,2.5,2.5c0.7,0.9,1.2,2,1.6,3.2
	c0.4,1.2,0.5,2.6,0.5,4c0,1.6-0.2,3.1-0.6,4.5c-0.4,1.4-1,2.7-1.9,3.9c-0.9,1.2-1.9,2.3-3.3,3.2c-1.3,0.9-3.2,1.8-5.5,2.7l1.8,4.5
	c0.5,1.2,1.1,2.5,1.7,3.8l4.7,10.4c0.2,0.4,0.6,1.3,1.1,2.7c-3.9,0-6.5-0.1-7.9-0.1c-1.7,0-4.5,0-8.4,0.1c-0.4-1.2-1.1-3.5-2.1-6.9
	c-0.4-1.4-0.7-2.5-1-3.2c-0.6-1.7-1.4-4-2.5-7.1l-3.7-10.1c1.3,0.2,2.5,0.4,3.8,0.4c1.7,0,3.3-0.3,4.7-0.8c1.4-0.5,2.5-1.3,3.2-2.4
	c0.7-1.1,1.1-2.2,1.1-3.4c0-1-0.3-1.9-0.8-2.7c-0.5-0.8-1.4-1.3-2.6-1.7c-1.2-0.4-3-0.6-5.4-0.6c-0.8,0-1.7,0-2.6,0
	c-0.9,0-1.9,0.1-3.1,0.1c-0.3,4.8-0.6,10.8-0.8,17.7c-0.2,7-0.4,13.8-0.5,20.6c-3.9,0-6.5-0.1-7.7-0.1
	C404.2,96.7,401.7,96.7,398.1,96.7z M352,96.7l0.7-9.1l0.9-17.8l0.4-12.6c0-1.4,0-2.7,0-4.1c0-1,0-2.7,0-5c3.1,0.1,5.6,0.1,7.5,0.1
	c1.8,0,4.3-0.1,7.5-0.2c3.2-0.1,5.8-0.2,8.1-0.2c3.2,0,5.5,0.2,7,0.6c1.5,0.4,2.9,1,4.1,1.9c1.2,0.9,2.3,1.9,3.1,3
	c0.8,1.2,1.4,2.5,1.8,4c0.4,1.5,0.6,3,0.6,4.5c0,3.2-0.8,6.1-2.3,8.7c-1.5,2.6-3.7,4.6-6.5,5.9c-2.8,1.3-5.9,1.9-9.4,1.9
	c-1.3,0-2.8-0.1-4.4-0.4c-0.2-1.1-0.5-2.7-1.1-4.8c-0.5-2.1-0.9-3.7-1.3-4.8c1,0.2,2.1,0.3,3.2,0.3c2.4,0,4.2-0.6,5.3-1.7
	c1.2-1.2,1.7-2.6,1.7-4.2c0-0.8-0.1-1.5-0.4-2.2c-0.3-0.6-0.7-1.1-1.2-1.6c-0.6-0.4-1.2-0.7-1.9-0.8c-0.7-0.1-1.5-0.2-2.3-0.2
	c-0.8,0-1.7,0-2.7,0.1l-3,0.2c-0.3,4.6-0.5,9.7-0.7,15.2c-0.3,10.2-0.4,16.3-0.4,18.3v4.6l-7.1-0.1C358.4,96.7,355.9,96.7,352,96.7z
	 M313.7,72.6h11c-2.7-8.3-4.3-12.9-4.5-13.8c-1.6,3.5-2.9,6.3-4,8.6L313.7,72.6z M286.3,96.7l2.9-5.1L307.6,57l1.9-3.9
	c0.6-1.1,1.4-2.8,2.4-4.9c4.2,0,7.2,0.1,9.1,0.1c3.3,0,6.4,0,9.3-0.1l5.2,14.8L346,91.5l2.1,5.2c-4.1,0-6.6-0.1-7.4-0.1
	c-2,0-4.9,0-8.8,0.1c-1-3.9-2.5-8.5-4.5-13.8h-17.9c-2,4.2-4.2,8.8-6.4,13.8c-4.4,0-7.1-0.1-8.1-0.1
	C293.2,96.7,290.3,96.7,286.3,96.7z M238.3,48.3c3.7,0,6.3,0.1,7.8,0.1c1.9,0,4.4,0,7.6-0.1l-1.1,15.1c-0.2,2.8-0.4,5.5-0.5,8
	c-0.1,2.5-0.2,4.2-0.2,5.1c0,1.8,0.1,3.3,0.4,4.5c0.3,1.2,0.7,2.2,1.4,3.1c0.7,0.8,1.6,1.5,2.9,1.9c1.2,0.4,2.5,0.6,3.8,0.6
	c1.1,0,2.2-0.2,3.2-0.5c0.8-0.3,1.5-0.6,2.1-1.1c0.5-0.4,1-0.9,1.4-1.5c0.5-0.7,0.9-1.5,1.3-2.5c0.4-1,0.7-2.2,0.8-3.7
	c0.2-1.6,0.5-5.1,0.8-10.6c0.3-4.7,0.5-9,0.7-12.9c0.1-3.8,0.3-5.7,0.4-5.7c3.6,0,6.4,0,8.5,0h7.2l-1.7,25.2c0,0.5,0,0.9,0,1.2
	c-0.1,4.9-0.4,8.4-0.9,10.4c-0.5,2-1.4,3.8-2.5,5.3c-1.2,1.5-2.9,2.8-5.2,4c-2.3,1.2-4.9,2-7.7,2.5c-2.9,0.5-5.8,0.8-8.8,0.8
	c-2.7,0-5.2-0.2-7.7-0.6c-2.3-0.4-4.3-0.9-6.2-1.6c-1.8-0.7-3.4-1.6-4.8-2.5c-1.2-0.9-2.2-1.8-2.8-2.7c-0.7-0.9-1.2-2.1-1.6-3.4
	c-0.4-1.5-0.6-3-0.6-4.7c0-0.6,0-1.4,0.1-2.6c0-1.2,0.1-2.8,0.3-5l0.5-5.7c0.1-1.5,0.2-3.7,0.4-6.6L238.3,48.3z M229.3,85
	c-0.3,1.4-0.6,3.3-1,5.8c-0.4,2.5-0.7,4.4-0.8,5.8c-5.1,0.8-9.6,1.2-13.5,1.2c-3.8,0-7.4-0.5-10.7-1.4c-3.3-1-6.3-2.5-9.1-4.7
	c-2.8-2.2-4.7-4.8-5.9-7.7c-1.2-3-1.8-6.3-1.8-9.9c0-4.3,0.8-8.1,2.4-11.6c1.6-3.4,3.9-6.3,6.9-8.5c3-2.3,6.3-3.9,9.8-4.9
	c3.6-1,7.3-1.5,11.1-1.5c3.5,0,7.8,0.5,13,1.4l0.1,3c0,1.3,0.1,2.7,0.2,4.3l0.2,4c-2.8-0.7-5-1.1-6.7-1.3c-1.7-0.2-3.3-0.4-4.8-0.4
	c-3.2,0-6.1,0.6-8.6,1.9c-2.5,1.3-4.6,3.1-6,5.6c-1.5,2.4-2.2,5.1-2.2,8.1c0,2.7,0.6,5,1.8,6.9c1.2,1.9,2.9,3.4,5,4.5
	c2.1,1.1,4.7,1.6,7.8,1.6c1.7,0,3.5-0.1,5.5-0.4C223.9,86.3,226.4,85.7,229.3,85z"></path>
<path id="denominacion_1_" fill="#0038A8" d="M280.3,127.2c0-0.4-0.1-0.7-0.3-0.9c-0.2-0.2-0.5-0.3-0.9-0.3l-1.5-0.1
	c-0.1,0.2-0.3,0.3-0.4,0.5c-0.1,0.1-0.2,0.3-0.2,0.4c-0.1,0.1-0.1,0.3-0.1,0.4c0,0.1,0,0.3,0,0.4c0,0.4,0.1,0.7,0.4,1
	c0.3,0.2,0.7,0.3,1.2,0.3c0.3,0,0.6,0,0.8-0.1c0.2-0.1,0.4-0.2,0.5-0.4c0.1-0.2,0.2-0.3,0.3-0.5
	C280.3,127.7,280.3,127.5,280.3,127.2 M279.8,118.1c0-0.6-0.1-1.1-0.3-1.4c-0.2-0.3-0.6-0.5-1-0.5c-0.2,0-0.4,0.1-0.6,0.2
	c-0.2,0.1-0.3,0.2-0.4,0.4c-0.1,0.2-0.2,0.4-0.2,0.6c-0.1,0.2-0.1,0.5-0.1,0.8c0,0.6,0.1,1,0.3,1.4c0.2,0.3,0.5,0.5,1,0.5
	c0.2,0,0.4-0.1,0.6-0.2c0.2-0.1,0.3-0.2,0.4-0.4c0.1-0.2,0.2-0.4,0.2-0.6C279.8,118.6,279.8,118.4,279.8,118.1z M282.6,115.4
	c0,0.4,0,0.7-0.1,0.9c-0.1,0.2-0.1,0.3-0.2,0.3h-0.9c0.1,0.2,0.2,0.4,0.3,0.7c0.1,0.3,0.1,0.5,0.1,0.8c0,0.7-0.1,1.3-0.2,1.8
	c-0.1,0.5-0.4,1-0.6,1.3c-0.3,0.4-0.6,0.6-1,0.8c-0.4,0.2-0.8,0.3-1.3,0.3c-0.2,0-0.5,0-0.7-0.1c-0.2-0.1-0.4-0.2-0.5-0.3
	c-0.1,0.1-0.1,0.2-0.2,0.4c-0.1,0.2-0.1,0.3-0.1,0.5c0,0.2,0.1,0.5,0.2,0.6c0.1,0.2,0.3,0.2,0.6,0.3l1.9,0.1c0.4,0,0.8,0.1,1.2,0.3
	c0.3,0.2,0.6,0.4,0.9,0.7c0.2,0.3,0.4,0.6,0.5,1c0.1,0.4,0.2,0.9,0.2,1.4c0,0.6-0.1,1.1-0.2,1.6c-0.2,0.5-0.4,0.9-0.7,1.3
	c-0.3,0.4-0.8,0.7-1.3,0.9c-0.5,0.2-1.1,0.3-1.8,0.3c-0.7,0-1.2-0.1-1.7-0.2c-0.5-0.2-0.8-0.4-1.1-0.6c-0.3-0.3-0.5-0.6-0.6-1
	c-0.1-0.4-0.2-0.8-0.2-1.3c0-0.3,0-0.6,0.1-0.8c0.1-0.3,0.1-0.5,0.2-0.7c0.1-0.2,0.2-0.5,0.3-0.7c0.1-0.2,0.3-0.4,0.5-0.6
	c-0.2-0.2-0.4-0.5-0.6-0.8c-0.1-0.3-0.2-0.7-0.2-1.1c0-0.5,0.1-1,0.2-1.4c0.2-0.4,0.4-0.8,0.6-1.1c-0.2-0.3-0.4-0.7-0.5-1.1
	c-0.1-0.4-0.2-0.9-0.2-1.6c0-0.7,0.1-1.3,0.2-1.8c0.2-0.5,0.4-1,0.7-1.3c0.3-0.4,0.6-0.6,1-0.8c0.4-0.2,0.8-0.3,1.3-0.3
	c0.2,0,0.5,0,0.7,0.1c0.2,0,0.4,0.1,0.6,0.2h2.4c0.1,0,0.2,0.1,0.2,0.3C282.5,114.6,282.6,114.9,282.6,115.4z M273.5,126.1
	c0,0.1,0,0.2,0,0.2c0,0.1-0.1,0.1-0.1,0.2c-0.1,0-0.2,0.1-0.3,0.1c-0.1,0-0.3,0-0.4,0c-0.2,0-0.3,0-0.5,0c-0.1,0-0.2-0.1-0.3-0.1
	c-0.1,0-0.1-0.1-0.1-0.2c0-0.1,0-0.1,0-0.2v-1.3c-0.4,0.7-0.9,1.2-1.3,1.5c-0.4,0.3-0.9,0.5-1.4,0.5c-0.5,0-1-0.1-1.3-0.4
	c-0.4-0.3-0.6-0.6-0.9-1.1c-0.2-0.4-0.4-1-0.5-1.5c-0.1-0.6-0.1-1.3-0.1-2.2v-7c0-0.1,0-0.2,0-0.2c0-0.1,0.1-0.1,0.2-0.2
	c0.1,0,0.2-0.1,0.3-0.1c0.1,0,0.3,0,0.5,0c0.2,0,0.4,0,0.5,0c0.1,0,0.2,0.1,0.3,0.1c0.1,0,0.1,0.1,0.2,0.2c0,0.1,0.1,0.1,0.1,0.2
	v6.5c0,0.6,0,1.1,0.1,1.4c0.1,0.3,0.1,0.6,0.2,0.8c0.1,0.2,0.2,0.4,0.4,0.5c0.2,0.1,0.4,0.2,0.6,0.2c0.3,0,0.6-0.1,0.8-0.4
	c0.3-0.3,0.6-0.7,0.9-1.3v-7.6c0-0.1,0-0.2,0-0.2c0-0.1,0.1-0.1,0.2-0.2c0.1,0,0.2-0.1,0.3-0.1c0.1,0,0.3,0,0.5,0c0.2,0,0.4,0,0.5,0
	c0.1,0,0.2,0.1,0.3,0.1c0.1,0,0.1,0.1,0.2,0.2c0,0.1,0.1,0.1,0.1,0.2V126.1z M264.9,115.7c0,0.3,0,0.6,0,0.8c0,0.2,0,0.4-0.1,0.5
	c0,0.1-0.1,0.2-0.1,0.2c0,0-0.1,0.1-0.1,0.1c0,0-0.1,0-0.2,0c-0.1,0-0.1-0.1-0.2-0.1c-0.1,0-0.1-0.1-0.2-0.1c-0.1,0-0.2,0-0.3,0
	c-0.1,0-0.2,0-0.4,0.1c-0.1,0.1-0.2,0.2-0.4,0.3c-0.1,0.2-0.3,0.4-0.4,0.6c-0.1,0.3-0.3,0.6-0.5,1v7.1c0,0.1,0,0.2-0.1,0.2
	c0,0.1-0.1,0.1-0.2,0.2c-0.1,0-0.2,0.1-0.3,0.1c-0.1,0-0.3,0-0.5,0c-0.2,0-0.4,0-0.5,0c-0.1,0-0.2-0.1-0.3-0.1
	c-0.1,0-0.1-0.1-0.2-0.2c0-0.1-0.1-0.1-0.1-0.2v-11.5c0-0.1,0-0.2,0-0.2c0-0.1,0.1-0.1,0.2-0.2c0.1,0,0.2-0.1,0.3-0.1
	c0.1,0,0.3,0,0.4,0c0.2,0,0.3,0,0.5,0c0.1,0,0.2,0.1,0.3,0.1c0.1,0,0.1,0.1,0.1,0.2c0,0.1,0,0.1,0,0.2v1.4c0.2-0.4,0.4-0.8,0.6-1.1
	c0.2-0.3,0.3-0.5,0.5-0.7c0.2-0.2,0.3-0.3,0.5-0.3c0.2-0.1,0.3-0.1,0.5-0.1c0.1,0,0.2,0,0.2,0c0.1,0,0.2,0,0.3,0.1
	c0.1,0,0.2,0.1,0.2,0.1c0.1,0,0.1,0.1,0.2,0.1c0,0,0.1,0.1,0.1,0.1c0,0.1,0,0.1,0,0.2c0,0.1,0,0.2,0,0.4
	C264.9,115.1,264.9,115.4,264.9,115.7z M257.6,120.3c0,1-0.1,1.9-0.3,2.7c-0.2,0.8-0.5,1.5-0.9,2c-0.4,0.6-0.9,1-1.4,1.3
	c-0.6,0.3-1.2,0.4-2,0.4c-0.7,0-1.3-0.1-1.9-0.4c-0.6-0.3-1-0.7-1.4-1.2c-0.4-0.5-0.7-1.2-0.9-2c-0.2-0.8-0.3-1.7-0.3-2.8v-10.1
	c0-0.1,0-0.2,0.1-0.2c0-0.1,0.1-0.1,0.2-0.2c0.1,0,0.2-0.1,0.3-0.1c0.1,0,0.3,0,0.5,0c0.2,0,0.4,0,0.5,0c0.1,0,0.3,0.1,0.3,0.1
	c0.1,0,0.1,0.1,0.2,0.2c0,0.1,0.1,0.1,0.1,0.2v9.8c0,0.7,0.1,1.2,0.2,1.7c0.1,0.5,0.3,0.9,0.5,1.2c0.2,0.3,0.4,0.6,0.7,0.7
	c0.3,0.2,0.6,0.2,1,0.2c0.4,0,0.7-0.1,1-0.2c0.3-0.2,0.5-0.4,0.7-0.7c0.2-0.3,0.3-0.7,0.5-1.2c0.1-0.5,0.2-1,0.2-1.6v-10
	c0-0.1,0-0.2,0.1-0.2c0-0.1,0.1-0.1,0.2-0.2c0.1,0,0.2-0.1,0.3-0.1c0.1,0,0.3,0,0.5,0c0.2,0,0.4,0,0.5,0c0.1,0,0.3,0.1,0.3,0.1
	c0.1,0,0.1,0.1,0.2,0.2c0,0.1,0.1,0.1,0.1,0.2V120.3z M240.2,121.2h-0.8c-0.3,0-0.6,0-0.9,0.1c-0.2,0.1-0.4,0.2-0.6,0.4
	c-0.2,0.2-0.3,0.3-0.3,0.6c-0.1,0.2-0.1,0.5-0.1,0.7c0,0.5,0.1,0.9,0.3,1.1c0.2,0.3,0.5,0.4,0.8,0.4c0.3,0,0.6-0.1,0.8-0.3
	c0.3-0.2,0.5-0.6,0.8-1V121.2z M242.3,126.1c0,0.1,0,0.2-0.1,0.3c-0.1,0.1-0.1,0.1-0.3,0.1c-0.1,0-0.3,0-0.5,0c-0.3,0-0.4,0-0.6,0
	c-0.1,0-0.2-0.1-0.2-0.1c-0.1-0.1-0.1-0.2-0.1-0.3v-0.9c-0.3,0.5-0.7,0.9-1.1,1.2c-0.4,0.3-0.9,0.4-1.3,0.4c-0.4,0-0.8-0.1-1.1-0.2
	c-0.3-0.2-0.6-0.4-0.9-0.7c-0.2-0.3-0.4-0.7-0.6-1.2c-0.1-0.5-0.2-1-0.2-1.6c0-0.7,0.1-1.2,0.3-1.7c0.2-0.5,0.4-0.9,0.8-1.2
	c0.3-0.3,0.8-0.6,1.3-0.7c0.5-0.2,1.1-0.2,1.8-0.2h0.7v-0.7c0-0.4,0-0.7-0.1-0.9c0-0.3-0.1-0.5-0.2-0.7c-0.1-0.2-0.3-0.3-0.4-0.4
	c-0.2-0.1-0.4-0.1-0.7-0.1c-0.4,0-0.7,0.1-1,0.2c-0.3,0.1-0.5,0.3-0.8,0.4c-0.2,0.1-0.4,0.3-0.5,0.4c-0.1,0.1-0.3,0.2-0.4,0.2
	c-0.1,0-0.1,0-0.2-0.1c0-0.1-0.1-0.1-0.1-0.3c0-0.1-0.1-0.3-0.1-0.4c0-0.2,0-0.3,0-0.5c0-0.3,0-0.5,0-0.6c0-0.2,0.1-0.3,0.2-0.4
	c0.1-0.1,0.2-0.3,0.4-0.4c0.2-0.1,0.4-0.3,0.7-0.4c0.3-0.1,0.6-0.2,0.9-0.3c0.3-0.1,0.6-0.1,1-0.1c0.6,0,1.1,0.1,1.5,0.3
	c0.4,0.2,0.8,0.4,1.1,0.8c0.3,0.4,0.5,0.8,0.6,1.4c0.1,0.6,0.2,1.3,0.2,2V126.1z M234.8,115.7c0,0.3,0,0.6,0,0.8
	c0,0.2,0,0.4-0.1,0.5c0,0.1-0.1,0.2-0.1,0.2c0,0-0.1,0.1-0.1,0.1c0,0-0.1,0-0.2,0c-0.1,0-0.1-0.1-0.2-0.1c-0.1,0-0.1-0.1-0.2-0.1
	c-0.1,0-0.2,0-0.3,0c-0.1,0-0.2,0-0.4,0.1c-0.1,0.1-0.2,0.2-0.4,0.3c-0.1,0.2-0.3,0.4-0.4,0.6c-0.1,0.3-0.3,0.6-0.5,1v7.1
	c0,0.1,0,0.2-0.1,0.2c0,0.1-0.1,0.1-0.2,0.2c-0.1,0-0.2,0.1-0.3,0.1c-0.1,0-0.3,0-0.5,0c-0.2,0-0.4,0-0.5,0c-0.1,0-0.2-0.1-0.3-0.1
	c-0.1,0-0.1-0.1-0.2-0.2c0-0.1-0.1-0.1-0.1-0.2v-11.5c0-0.1,0-0.2,0-0.2c0-0.1,0.1-0.1,0.2-0.2c0.1,0,0.2-0.1,0.3-0.1
	c0.1,0,0.3,0,0.4,0c0.2,0,0.3,0,0.5,0c0.1,0,0.2,0.1,0.3,0.1c0.1,0,0.1,0.1,0.1,0.2c0,0.1,0,0.1,0,0.2v1.4c0.2-0.4,0.4-0.8,0.6-1.1
	c0.2-0.3,0.3-0.5,0.5-0.7c0.2-0.2,0.3-0.3,0.5-0.3c0.2-0.1,0.3-0.1,0.5-0.1c0.1,0,0.2,0,0.2,0c0.1,0,0.2,0,0.3,0.1
	c0.1,0,0.2,0.1,0.2,0.1c0.1,0,0.1,0.1,0.2,0.1c0,0,0.1,0.1,0.1,0.1c0,0.1,0,0.1,0,0.2c0,0.1,0,0.2,0,0.4
	C234.8,115.1,234.8,115.4,234.8,115.7z M225.6,121.2h-0.8c-0.3,0-0.6,0-0.9,0.1c-0.2,0.1-0.4,0.2-0.6,0.4c-0.2,0.2-0.3,0.3-0.3,0.6
	c-0.1,0.2-0.1,0.5-0.1,0.7c0,0.5,0.1,0.9,0.3,1.1c0.2,0.3,0.5,0.4,0.8,0.4c0.3,0,0.6-0.1,0.8-0.3c0.3-0.2,0.5-0.6,0.8-1V121.2z
	 M227.7,126.1c0,0.1,0,0.2-0.1,0.3c-0.1,0.1-0.1,0.1-0.3,0.1c-0.1,0-0.3,0-0.5,0c-0.3,0-0.4,0-0.6,0c-0.1,0-0.2-0.1-0.2-0.1
	c0-0.1-0.1-0.2-0.1-0.3v-0.9c-0.3,0.5-0.7,0.9-1.1,1.2c-0.4,0.3-0.9,0.4-1.3,0.4c-0.4,0-0.8-0.1-1.1-0.2c-0.3-0.2-0.6-0.4-0.9-0.7
	c-0.2-0.3-0.4-0.7-0.6-1.2c-0.1-0.5-0.2-1-0.2-1.6c0-0.7,0.1-1.2,0.3-1.7c0.2-0.5,0.4-0.9,0.8-1.2c0.3-0.3,0.8-0.6,1.3-0.7
	c0.5-0.2,1.1-0.2,1.8-0.2h0.7v-0.7c0-0.4,0-0.7-0.1-0.9c0-0.3-0.1-0.5-0.2-0.7c-0.1-0.2-0.3-0.3-0.4-0.4c-0.2-0.1-0.4-0.1-0.7-0.1
	c-0.4,0-0.7,0.1-1,0.2c-0.3,0.1-0.5,0.3-0.8,0.4c-0.2,0.1-0.4,0.3-0.5,0.4c-0.1,0.1-0.3,0.2-0.4,0.2c-0.1,0-0.1,0-0.2-0.1
	c0-0.1-0.1-0.1-0.1-0.3c0-0.1-0.1-0.3-0.1-0.4c0-0.2,0-0.3,0-0.5c0-0.3,0-0.5,0-0.6c0-0.2,0.1-0.3,0.2-0.4c0.1-0.1,0.2-0.3,0.4-0.4
	c0.2-0.1,0.4-0.3,0.7-0.4c0.3-0.1,0.6-0.2,0.9-0.3c0.3-0.1,0.6-0.1,1-0.1c0.6,0,1.1,0.1,1.5,0.3c0.4,0.2,0.8,0.4,1.1,0.8
	c0.3,0.4,0.5,0.8,0.6,1.4c0.1,0.6,0.2,1.3,0.2,2V126.1z M219.1,126.1c0,0.1,0,0.2-0.1,0.2c0,0.1-0.1,0.1-0.2,0.2
	c-0.1,0-0.2,0.1-0.3,0.1c-0.1,0-0.3,0-0.5,0c-0.2,0-0.4,0-0.5,0c-0.1,0-0.2-0.1-0.3-0.1c-0.1,0-0.1-0.1-0.2-0.2c0-0.1,0-0.1,0-0.2
	v-6.8c0-0.4,0-0.7-0.1-1.1c0-0.3-0.1-0.6-0.2-0.8c-0.1-0.2-0.2-0.4-0.4-0.5c-0.2-0.1-0.3-0.2-0.5-0.2c-0.3,0-0.5,0.1-0.8,0.5
	c-0.3,0.3-0.5,0.7-0.9,1.3v7.6c0,0.1,0,0.2-0.1,0.2c0,0.1-0.1,0.1-0.2,0.2c-0.1,0-0.2,0.1-0.3,0.1c-0.1,0-0.3,0-0.5,0
	c-0.2,0-0.4,0-0.5,0c-0.1,0-0.2-0.1-0.3-0.1c-0.1,0-0.1-0.1-0.2-0.2c0-0.1-0.1-0.1-0.1-0.2v-6.8c0-0.4,0-0.7-0.1-1.1
	c0-0.3-0.1-0.6-0.2-0.8c-0.1-0.2-0.2-0.4-0.4-0.5c-0.2-0.1-0.3-0.2-0.5-0.2c-0.3,0-0.5,0.1-0.8,0.5c-0.3,0.3-0.5,0.7-0.9,1.3v7.6
	c0,0.1,0,0.2-0.1,0.2c0,0.1-0.1,0.1-0.2,0.2c-0.1,0-0.2,0.1-0.3,0.1c-0.1,0-0.3,0-0.5,0c-0.2,0-0.4,0-0.5,0c-0.1,0-0.2-0.1-0.3-0.1
	c-0.1,0-0.1-0.1-0.2-0.2c0-0.1-0.1-0.1-0.1-0.2v-11.5c0-0.1,0-0.2,0-0.2c0-0.1,0.1-0.1,0.2-0.2c0.1,0,0.2-0.1,0.3-0.1
	c0.1,0,0.3,0,0.4,0c0.2,0,0.3,0,0.5,0c0.1,0,0.2,0.1,0.3,0.1c0.1,0,0.1,0.1,0.1,0.2c0,0.1,0,0.1,0,0.2v1.3c0.4-0.7,0.8-1.2,1.3-1.5
	c0.4-0.3,0.9-0.5,1.3-0.5c0.3,0,0.6,0,0.9,0.1c0.3,0.1,0.5,0.2,0.7,0.4c0.2,0.2,0.4,0.4,0.5,0.7c0.1,0.3,0.3,0.5,0.4,0.9
	c0.2-0.4,0.5-0.7,0.7-0.9c0.2-0.3,0.4-0.5,0.7-0.6c0.2-0.2,0.4-0.3,0.6-0.4c0.2-0.1,0.4-0.1,0.7-0.1c0.5,0,0.9,0.1,1.3,0.4
	c0.3,0.3,0.6,0.6,0.8,1c0.2,0.4,0.4,1,0.5,1.5c0.1,0.6,0.1,1.2,0.1,1.9V126.1z M201.8,109c0-0.1,0.1-0.2,0.1-0.2
	c0.1-0.1,0.1-0.1,0.2-0.2c0.1,0,0.2-0.1,0.3-0.1c0.1,0,0.3,0,0.5,0c0.3,0,0.5,0,0.6,0.1c0.2,0,0.3,0.1,0.3,0.1
	c0.1,0.1,0.1,0.1,0.1,0.2c0,0.1,0,0.2-0.1,0.3l-1.7,3c0,0.1-0.1,0.2-0.1,0.2c0,0.1-0.1,0.1-0.2,0.1c-0.1,0-0.2,0.1-0.3,0.1
	c-0.1,0-0.2,0-0.4,0c-0.2,0-0.4,0-0.5,0c-0.1,0-0.2-0.1-0.2-0.1c0-0.1-0.1-0.1-0.1-0.2c0-0.1,0-0.2,0.1-0.3L201.8,109z M202.6,121.2
	h-0.8c-0.3,0-0.6,0-0.9,0.1c-0.2,0.1-0.4,0.2-0.6,0.4c-0.2,0.2-0.3,0.3-0.3,0.6c-0.1,0.2-0.1,0.5-0.1,0.7c0,0.5,0.1,0.9,0.3,1.1
	c0.2,0.3,0.5,0.4,0.8,0.4c0.3,0,0.6-0.1,0.8-0.3c0.3-0.2,0.5-0.6,0.8-1V121.2z M204.7,126.1c0,0.1,0,0.2-0.1,0.3
	c-0.1,0.1-0.1,0.1-0.3,0.1c-0.1,0-0.3,0-0.5,0c-0.3,0-0.4,0-0.6,0c-0.1,0-0.2-0.1-0.2-0.1c0-0.1-0.1-0.2-0.1-0.3v-0.9
	c-0.3,0.5-0.7,0.9-1.1,1.2c-0.4,0.3-0.9,0.4-1.3,0.4c-0.4,0-0.8-0.1-1.1-0.2c-0.3-0.2-0.6-0.4-0.9-0.7c-0.2-0.3-0.4-0.7-0.6-1.2
	c-0.1-0.5-0.2-1-0.2-1.6c0-0.7,0.1-1.2,0.3-1.7c0.2-0.5,0.4-0.9,0.8-1.2c0.3-0.3,0.8-0.6,1.3-0.7c0.5-0.2,1.1-0.2,1.8-0.2h0.7v-0.7
	c0-0.4,0-0.7-0.1-0.9c0-0.3-0.1-0.5-0.2-0.7c-0.1-0.2-0.3-0.3-0.4-0.4c-0.2-0.1-0.4-0.1-0.7-0.1c-0.4,0-0.7,0.1-1,0.2
	c-0.3,0.1-0.5,0.3-0.8,0.4c-0.2,0.1-0.4,0.3-0.5,0.4c-0.1,0.1-0.3,0.2-0.4,0.2c-0.1,0-0.1,0-0.2-0.1c0-0.1-0.1-0.1-0.1-0.3
	c0-0.1-0.1-0.3-0.1-0.4c0-0.2,0-0.3,0-0.5c0-0.3,0-0.5,0-0.6c0-0.2,0.1-0.3,0.2-0.4c0.1-0.1,0.2-0.3,0.4-0.4
	c0.2-0.1,0.4-0.3,0.7-0.4c0.3-0.1,0.6-0.2,0.9-0.3c0.3-0.1,0.6-0.1,1-0.1c0.6,0,1.1,0.1,1.5,0.3c0.4,0.2,0.8,0.4,1.1,0.8
	c0.3,0.4,0.5,0.8,0.6,1.4c0.1,0.6,0.2,1.3,0.2,2V126.1z M196.7,124c0,0.2,0,0.4,0,0.5c0,0.1,0,0.3,0,0.4c0,0.1,0,0.2-0.1,0.3
	c0,0.1-0.1,0.2-0.1,0.3c-0.1,0.1-0.2,0.2-0.4,0.4c-0.2,0.1-0.4,0.3-0.7,0.4c-0.3,0.1-0.6,0.3-0.9,0.3c-0.3,0.1-0.7,0.1-1.1,0.1
	c-0.8,0-1.4-0.2-2.1-0.5c-0.6-0.4-1.1-0.9-1.6-1.6c-0.4-0.7-0.8-1.6-1-2.6c-0.2-1-0.3-2.3-0.3-3.6c0-1.4,0.1-2.7,0.4-3.8
	c0.3-1.1,0.6-2,1.1-2.8c0.5-0.7,1-1.3,1.6-1.7c0.6-0.4,1.3-0.6,2.1-0.6c0.3,0,0.6,0,0.9,0.1c0.3,0.1,0.6,0.2,0.8,0.3
	c0.2,0.1,0.5,0.3,0.7,0.4c0.2,0.2,0.3,0.3,0.4,0.4c0.1,0.1,0.1,0.2,0.2,0.3c0,0.1,0.1,0.2,0.1,0.3c0,0.1,0,0.3,0,0.4
	c0,0.2,0,0.4,0,0.6c0,0.3,0,0.5,0,0.7c0,0.2,0,0.3-0.1,0.4c0,0.1-0.1,0.2-0.1,0.2c0,0.1-0.1,0.1-0.1,0.1c-0.1,0-0.2-0.1-0.3-0.2
	c-0.1-0.1-0.3-0.3-0.5-0.5c-0.2-0.2-0.5-0.4-0.7-0.5c-0.3-0.1-0.6-0.2-1-0.2c-0.4,0-0.8,0.1-1.2,0.4c-0.3,0.3-0.6,0.7-0.9,1.2
	c-0.2,0.5-0.4,1.1-0.6,1.8c-0.1,0.7-0.2,1.5-0.2,2.4c0,1,0.1,1.8,0.2,2.5c0.1,0.7,0.3,1.3,0.6,1.8c0.2,0.5,0.5,0.8,0.9,1
	c0.4,0.2,0.7,0.3,1.2,0.3c0.4,0,0.7-0.1,1-0.2c0.3-0.1,0.5-0.3,0.7-0.5c0.2-0.2,0.4-0.3,0.5-0.5c0.1-0.1,0.2-0.2,0.3-0.2
	c0.1,0,0.1,0,0.1,0.1c0,0,0.1,0.1,0.1,0.2c0,0.1,0,0.2,0.1,0.4C196.7,123.4,196.7,123.7,196.7,124z M392.9,115.7c0,0.3,0,0.6,0,0.8
	c0,0.2,0,0.4,0,0.5c0,0.1-0.1,0.2-0.1,0.2c0,0-0.1,0.1-0.1,0.1c0,0-0.1,0-0.2,0c-0.1,0-0.1-0.1-0.2-0.1c-0.1,0-0.1-0.1-0.2-0.1
	c-0.1,0-0.2,0-0.3,0c-0.1,0-0.2,0-0.4,0.1c-0.1,0.1-0.2,0.2-0.4,0.3c-0.1,0.2-0.3,0.4-0.4,0.6c-0.1,0.3-0.3,0.6-0.5,1v7.1
	c0,0.1,0,0.2-0.1,0.2c0,0.1-0.1,0.1-0.2,0.2c-0.1,0-0.2,0.1-0.3,0.1c-0.1,0-0.3,0-0.5,0c-0.2,0-0.4,0-0.5,0c-0.1,0-0.2-0.1-0.3-0.1
	c-0.1,0-0.1-0.1-0.2-0.2c0-0.1-0.1-0.1-0.1-0.2v-11.5c0-0.1,0-0.2,0-0.2c0-0.1,0.1-0.1,0.2-0.2c0.1,0,0.2-0.1,0.3-0.1
	c0.1,0,0.3,0,0.4,0c0.2,0,0.3,0,0.5,0c0.1,0,0.2,0.1,0.3,0.1c0.1,0,0.1,0.1,0.1,0.2c0,0.1,0,0.1,0,0.2v1.4c0.2-0.4,0.4-0.8,0.6-1.1
	c0.2-0.3,0.3-0.5,0.5-0.7c0.2-0.2,0.3-0.3,0.5-0.3c0.2-0.1,0.3-0.1,0.5-0.1c0.1,0,0.2,0,0.2,0c0.1,0,0.2,0,0.3,0.1
	c0.1,0,0.2,0.1,0.2,0.1c0.1,0,0.1,0.1,0.2,0.1c0,0,0.1,0.1,0.1,0.1c0,0.1,0,0.1,0,0.2c0,0.1,0,0.2,0,0.4
	C392.9,115.1,392.9,115.4,392.9,115.7 M384.1,120.3c0-0.6,0-1.1-0.1-1.6c-0.1-0.5-0.2-0.9-0.3-1.2c-0.1-0.4-0.3-0.6-0.6-0.8
	c-0.2-0.2-0.5-0.3-0.9-0.3c-0.3,0-0.6,0.1-0.8,0.3c-0.2,0.2-0.4,0.4-0.6,0.8c-0.2,0.3-0.3,0.7-0.3,1.2c-0.1,0.5-0.1,1-0.1,1.6
	c0,0.6,0,1.1,0.1,1.6c0.1,0.5,0.2,0.9,0.3,1.2c0.1,0.4,0.3,0.6,0.6,0.8c0.2,0.2,0.5,0.3,0.9,0.3c0.3,0,0.6-0.1,0.9-0.3
	c0.2-0.2,0.4-0.4,0.6-0.8c0.2-0.3,0.3-0.7,0.3-1.2C384,121.5,384.1,120.9,384.1,120.3z M386.3,120.2c0,1-0.1,1.9-0.3,2.7
	c-0.2,0.8-0.4,1.5-0.8,2.1c-0.3,0.6-0.8,1-1.3,1.3c-0.5,0.3-1.1,0.5-1.8,0.5c-0.7,0-1.3-0.1-1.8-0.4c-0.5-0.3-0.9-0.7-1.3-1.2
	c-0.3-0.5-0.6-1.2-0.7-2c-0.2-0.8-0.2-1.7-0.2-2.7c0-1,0.1-1.9,0.3-2.7c0.2-0.8,0.4-1.5,0.8-2.1c0.3-0.6,0.8-1,1.3-1.3
	c0.5-0.3,1.1-0.5,1.8-0.5c0.7,0,1.3,0.1,1.8,0.4c0.5,0.3,0.9,0.7,1.3,1.2c0.3,0.5,0.6,1.2,0.7,2
	C386.2,118.3,386.3,119.2,386.3,120.2z M376.9,122.8c0,0.6-0.1,1.2-0.2,1.7c-0.2,0.5-0.4,0.9-0.7,1.2c-0.3,0.3-0.7,0.6-1.1,0.7
	c-0.4,0.2-0.8,0.2-1.3,0.2c-0.3,0-0.6,0-0.8-0.1c-0.3-0.1-0.5-0.1-0.7-0.2c-0.2-0.1-0.4-0.2-0.5-0.3c-0.1-0.1-0.2-0.2-0.3-0.3
	c-0.1-0.1-0.1-0.2-0.1-0.4c0-0.2-0.1-0.5-0.1-0.8c0-0.2,0-0.4,0-0.6c0-0.1,0-0.3,0-0.4c0-0.1,0.1-0.1,0.1-0.2c0,0,0.1,0,0.1,0
	c0.1,0,0.2,0.1,0.3,0.2c0.1,0.1,0.3,0.2,0.5,0.4c0.2,0.1,0.4,0.3,0.6,0.4c0.2,0.1,0.5,0.2,0.8,0.2c0.2,0,0.4,0,0.5-0.1
	c0.2-0.1,0.3-0.1,0.4-0.3c0.1-0.1,0.2-0.2,0.3-0.4c0.1-0.2,0.1-0.4,0.1-0.6c0-0.3-0.1-0.5-0.2-0.7c-0.1-0.2-0.2-0.3-0.4-0.5
	c-0.2-0.1-0.4-0.3-0.6-0.4c-0.2-0.1-0.4-0.2-0.7-0.4c-0.2-0.1-0.5-0.3-0.7-0.5c-0.2-0.2-0.4-0.4-0.6-0.7c-0.2-0.3-0.3-0.6-0.4-1
	c-0.1-0.4-0.2-0.8-0.2-1.4c0-0.5,0.1-1,0.2-1.5c0.1-0.5,0.3-0.8,0.6-1.2c0.3-0.3,0.6-0.6,1-0.8c0.4-0.2,0.8-0.3,1.3-0.3
	c0.2,0,0.5,0,0.7,0.1c0.2,0.1,0.4,0.1,0.6,0.2c0.2,0.1,0.3,0.2,0.5,0.2c0.1,0.1,0.2,0.2,0.3,0.2c0.1,0.1,0.1,0.1,0.1,0.2
	c0,0.1,0,0.1,0,0.2c0,0.1,0,0.2,0,0.3c0,0.1,0,0.3,0,0.5c0,0.2,0,0.4,0,0.6c0,0.1,0,0.3,0,0.3c0,0.1,0,0.1-0.1,0.2c0,0-0.1,0-0.1,0
	c-0.1,0-0.1,0-0.2-0.1c-0.1-0.1-0.2-0.2-0.4-0.3c-0.2-0.1-0.4-0.2-0.6-0.3c-0.2-0.1-0.5-0.1-0.7-0.1c-0.2,0-0.4,0-0.5,0.1
	c-0.1,0.1-0.3,0.1-0.4,0.3c-0.1,0.1-0.2,0.2-0.2,0.4c0,0.1-0.1,0.3-0.1,0.5c0,0.3,0.1,0.5,0.2,0.7c0.1,0.2,0.3,0.3,0.4,0.5
	c0.2,0.1,0.4,0.3,0.6,0.4c0.2,0.1,0.5,0.2,0.7,0.4c0.2,0.1,0.5,0.3,0.7,0.5c0.2,0.2,0.4,0.4,0.6,0.7c0.2,0.3,0.3,0.6,0.4,1
	C376.9,121.8,376.9,122.3,376.9,122.8z M367.6,119.1c0-0.9-0.1-1.6-0.4-2.1c-0.3-0.5-0.7-0.8-1.2-0.8c-0.3,0-0.5,0.1-0.7,0.2
	c-0.2,0.2-0.4,0.4-0.5,0.6c-0.1,0.3-0.2,0.6-0.3,0.9c-0.1,0.4-0.1,0.7-0.1,1.1H367.6z M369.7,120c0,0.4-0.1,0.7-0.2,0.9
	c-0.1,0.2-0.3,0.3-0.5,0.3h-4.7c0,0.5,0,0.9,0.1,1.3c0.1,0.4,0.2,0.7,0.4,1c0.2,0.3,0.4,0.5,0.7,0.6c0.3,0.1,0.6,0.2,1,0.2
	c0.4,0,0.7,0,1-0.1c0.3-0.1,0.5-0.2,0.7-0.3c0.2-0.1,0.4-0.2,0.5-0.3c0.1-0.1,0.2-0.1,0.3-0.1c0.1,0,0.1,0,0.1,0
	c0,0,0.1,0.1,0.1,0.2c0,0.1,0,0.2,0,0.3c0,0.1,0,0.3,0,0.5c0,0.2,0,0.4,0,0.5c0,0.1,0,0.2,0,0.3c0,0.1,0,0.2,0,0.2
	c0,0.1-0.1,0.1-0.1,0.2c0,0.1-0.1,0.1-0.3,0.2c-0.2,0.1-0.4,0.2-0.6,0.3c-0.3,0.1-0.6,0.2-0.9,0.3c-0.3,0.1-0.7,0.1-1.1,0.1
	c-0.7,0-1.3-0.1-1.8-0.4c-0.5-0.3-0.9-0.6-1.3-1.2c-0.3-0.5-0.6-1.2-0.8-2c-0.2-0.8-0.3-1.7-0.3-2.8c0-1,0.1-1.9,0.3-2.8
	c0.2-0.8,0.4-1.5,0.8-2.1c0.3-0.6,0.7-1,1.2-1.3c0.5-0.3,1-0.5,1.6-0.5c0.6,0,1.2,0.1,1.6,0.4c0.5,0.3,0.8,0.7,1.1,1.2
	c0.3,0.5,0.5,1.1,0.6,1.8c0.1,0.7,0.2,1.4,0.2,2.2V120z M361,122.8c0,0.6-0.1,1.2-0.2,1.7c-0.2,0.5-0.4,0.9-0.7,1.2
	c-0.3,0.3-0.7,0.6-1.1,0.7c-0.4,0.2-0.8,0.2-1.3,0.2c-0.3,0-0.6,0-0.8-0.1c-0.3-0.1-0.5-0.1-0.7-0.2c-0.2-0.1-0.4-0.2-0.5-0.3
	c-0.1-0.1-0.2-0.2-0.3-0.3c-0.1-0.1-0.1-0.2-0.1-0.4c0-0.2-0.1-0.5-0.1-0.8c0-0.2,0-0.4,0-0.6c0-0.1,0-0.3,0-0.4
	c0-0.1,0.1-0.1,0.1-0.2c0,0,0.1,0,0.1,0c0.1,0,0.2,0.1,0.3,0.2c0.1,0.1,0.3,0.2,0.5,0.4c0.2,0.1,0.4,0.3,0.6,0.4
	c0.2,0.1,0.5,0.2,0.8,0.2c0.2,0,0.4,0,0.5-0.1c0.2-0.1,0.3-0.1,0.4-0.3c0.1-0.1,0.2-0.2,0.3-0.4c0.1-0.2,0.1-0.4,0.1-0.6
	c0-0.3-0.1-0.5-0.2-0.7c-0.1-0.2-0.2-0.3-0.4-0.5c-0.2-0.1-0.4-0.3-0.6-0.4c-0.2-0.1-0.4-0.2-0.7-0.4c-0.2-0.1-0.5-0.3-0.7-0.5
	c-0.2-0.2-0.4-0.4-0.6-0.7c-0.2-0.3-0.3-0.6-0.4-1c-0.1-0.4-0.2-0.8-0.2-1.4c0-0.5,0.1-1,0.2-1.5c0.1-0.5,0.3-0.8,0.6-1.2
	c0.3-0.3,0.6-0.6,1-0.8c0.4-0.2,0.8-0.3,1.3-0.3c0.2,0,0.5,0,0.7,0.1c0.2,0.1,0.4,0.1,0.6,0.2c0.2,0.1,0.3,0.2,0.5,0.2
	c0.1,0.1,0.2,0.2,0.3,0.2c0.1,0.1,0.1,0.1,0.1,0.2c0,0.1,0,0.1,0,0.2c0,0.1,0,0.2,0,0.3c0,0.1,0,0.3,0,0.5c0,0.2,0,0.4,0,0.6
	c0,0.1,0,0.3,0,0.3c0,0.1,0,0.1-0.1,0.2c0,0-0.1,0-0.1,0c-0.1,0-0.1,0-0.2-0.1c-0.1-0.1-0.2-0.2-0.4-0.3c-0.2-0.1-0.4-0.2-0.6-0.3
	c-0.2-0.1-0.5-0.1-0.7-0.1c-0.2,0-0.4,0-0.5,0.1c-0.1,0.1-0.3,0.1-0.4,0.3c-0.1,0.1-0.2,0.2-0.2,0.4c0,0.1-0.1,0.3-0.1,0.5
	c0,0.3,0.1,0.5,0.2,0.7c0.1,0.2,0.3,0.3,0.4,0.5c0.2,0.1,0.4,0.3,0.6,0.4c0.2,0.1,0.5,0.2,0.7,0.4c0.2,0.1,0.5,0.3,0.7,0.5
	c0.2,0.2,0.4,0.4,0.6,0.7c0.2,0.3,0.3,0.6,0.4,1C361,121.8,361,122.3,361,122.8z M349.1,113L349.1,113l-1.6,7.1h3.1L349.1,113z
	 M354.2,125.2c0.1,0.3,0.1,0.6,0.1,0.7c0,0.2,0,0.3-0.1,0.4c-0.1,0.1-0.2,0.1-0.3,0.2c-0.2,0-0.4,0-0.7,0c-0.3,0-0.5,0-0.7,0
	c-0.2,0-0.3,0-0.4-0.1c-0.1,0-0.1-0.1-0.2-0.2c0-0.1-0.1-0.2-0.1-0.3l-0.7-3.3H347l-0.7,3.2c0,0.1-0.1,0.2-0.1,0.3
	c0,0.1-0.1,0.1-0.2,0.2c-0.1,0-0.2,0.1-0.4,0.1c-0.2,0-0.4,0-0.6,0c-0.3,0-0.5,0-0.6,0c-0.1,0-0.3-0.1-0.3-0.2
	c-0.1-0.1-0.1-0.2-0.1-0.4c0-0.2,0.1-0.4,0.1-0.7l3.4-14.7c0-0.1,0.1-0.3,0.1-0.4c0-0.1,0.1-0.2,0.2-0.2c0.1,0,0.2-0.1,0.4-0.1
	c0.2,0,0.4,0,0.7,0c0.3,0,0.6,0,0.8,0c0.2,0,0.4,0,0.5,0.1c0.1,0,0.2,0.1,0.2,0.2c0,0.1,0.1,0.2,0.1,0.4L354.2,125.2z M337.1,119.1
	c0-0.9-0.1-1.6-0.4-2.1c-0.3-0.5-0.7-0.8-1.2-0.8c-0.3,0-0.5,0.1-0.7,0.2c-0.2,0.2-0.4,0.4-0.5,0.6c-0.1,0.3-0.2,0.6-0.3,0.9
	c-0.1,0.4-0.1,0.7-0.1,1.1H337.1z M339.2,120c0,0.4-0.1,0.7-0.2,0.9c-0.1,0.2-0.3,0.3-0.5,0.3h-4.7c0,0.5,0,0.9,0.1,1.3
	c0.1,0.4,0.2,0.7,0.4,1c0.2,0.3,0.4,0.5,0.7,0.6c0.3,0.1,0.6,0.2,1,0.2c0.4,0,0.7,0,1-0.1c0.3-0.1,0.5-0.2,0.7-0.3
	c0.2-0.1,0.4-0.2,0.5-0.3c0.1-0.1,0.2-0.1,0.3-0.1c0.1,0,0.1,0,0.1,0c0,0,0.1,0.1,0.1,0.2c0,0.1,0,0.2,0,0.3c0,0.1,0,0.3,0,0.5
	c0,0.2,0,0.4,0,0.5c0,0.1,0,0.2,0,0.3c0,0.1,0,0.2,0,0.2c0,0.1-0.1,0.1-0.1,0.2c0,0.1-0.1,0.1-0.3,0.2c-0.2,0.1-0.4,0.2-0.6,0.3
	c-0.3,0.1-0.6,0.2-0.9,0.3c-0.3,0.1-0.7,0.1-1.1,0.1c-0.7,0-1.3-0.1-1.8-0.4c-0.5-0.3-0.9-0.6-1.3-1.2c-0.3-0.5-0.6-1.2-0.8-2
	c-0.2-0.8-0.3-1.7-0.3-2.8c0-1,0.1-1.9,0.3-2.8c0.2-0.8,0.4-1.5,0.8-2.1c0.3-0.6,0.7-1,1.2-1.3c0.5-0.3,1-0.5,1.6-0.5
	c0.6,0,1.2,0.1,1.6,0.4c0.5,0.3,0.8,0.7,1.1,1.2c0.3,0.5,0.5,1.1,0.6,1.8c0.1,0.7,0.2,1.4,0.2,2.2V120z M327.7,118.4
	c-0.3-0.6-0.6-1-0.9-1.3c-0.3-0.3-0.6-0.5-0.9-0.5c-0.3,0-0.5,0.1-0.7,0.3c-0.2,0.2-0.4,0.5-0.5,0.8c-0.1,0.4-0.2,0.7-0.3,1.2
	c-0.1,0.4-0.1,0.9-0.1,1.3c0,0.5,0,0.9,0.1,1.4c0.1,0.5,0.1,0.9,0.3,1.2c0.1,0.4,0.3,0.6,0.5,0.9c0.2,0.2,0.4,0.3,0.7,0.3
	c0.1,0,0.3,0,0.4-0.1c0.1-0.1,0.3-0.2,0.4-0.3c0.1-0.1,0.3-0.3,0.5-0.6c0.2-0.2,0.3-0.5,0.5-0.9V118.4z M329.9,126.1
	c0,0.1,0,0.2,0,0.2c0,0.1-0.1,0.1-0.1,0.2c-0.1,0-0.2,0.1-0.3,0.1c-0.1,0-0.3,0-0.4,0c-0.2,0-0.3,0-0.4,0c-0.1,0-0.2,0-0.3-0.1
	c-0.1,0-0.1-0.1-0.2-0.2c0-0.1,0-0.1,0-0.2v-1.3c-0.4,0.6-0.8,1.1-1.2,1.5c-0.4,0.4-0.9,0.5-1.4,0.5c-0.6,0-1.1-0.2-1.5-0.5
	c-0.4-0.3-0.7-0.8-1-1.4c-0.3-0.6-0.4-1.2-0.6-2c-0.1-0.8-0.2-1.6-0.2-2.4c0-1,0.1-1.9,0.2-2.7c0.1-0.8,0.4-1.5,0.6-2.1
	c0.3-0.6,0.6-1,1.1-1.3c0.4-0.3,0.9-0.5,1.4-0.5c0.4,0,0.8,0.1,1.2,0.4c0.4,0.3,0.7,0.6,1,1.1v-6.2c0-0.1,0-0.2,0-0.2
	c0-0.1,0.1-0.1,0.2-0.2c0.1,0,0.2-0.1,0.3-0.1c0.1,0,0.3,0,0.5,0c0.2,0,0.4,0,0.5,0c0.1,0,0.2,0.1,0.3,0.1c0.1,0,0.1,0.1,0.2,0.2
	c0,0.1,0.1,0.1,0.1,0.2V126.1z M314.3,121.2h-0.8c-0.3,0-0.6,0-0.9,0.1c-0.2,0.1-0.4,0.2-0.6,0.4c-0.2,0.2-0.3,0.3-0.3,0.6
	c-0.1,0.2-0.1,0.5-0.1,0.7c0,0.5,0.1,0.9,0.3,1.1c0.2,0.3,0.5,0.4,0.8,0.4c0.3,0,0.6-0.1,0.8-0.3c0.3-0.2,0.5-0.6,0.8-1V121.2z
	 M316.5,126.1c0,0.1,0,0.2-0.1,0.3c-0.1,0.1-0.1,0.1-0.3,0.1c-0.1,0-0.3,0-0.5,0c-0.3,0-0.4,0-0.6,0c-0.1,0-0.2-0.1-0.2-0.1
	c0-0.1-0.1-0.2-0.1-0.3v-0.9c-0.3,0.5-0.7,0.9-1.1,1.2c-0.4,0.3-0.9,0.4-1.3,0.4c-0.4,0-0.8-0.1-1.1-0.2c-0.3-0.2-0.6-0.4-0.9-0.7
	c-0.2-0.3-0.4-0.7-0.6-1.2c-0.1-0.5-0.2-1-0.2-1.6c0-0.7,0.1-1.2,0.3-1.7c0.2-0.5,0.4-0.9,0.8-1.2c0.3-0.3,0.8-0.6,1.3-0.7
	c0.5-0.2,1.1-0.2,1.8-0.2h0.7v-0.7c0-0.4,0-0.7-0.1-0.9c0-0.3-0.1-0.5-0.2-0.7c-0.1-0.2-0.3-0.3-0.4-0.4c-0.2-0.1-0.4-0.1-0.7-0.1
	c-0.4,0-0.7,0.1-1,0.2c-0.3,0.1-0.5,0.3-0.8,0.4c-0.2,0.1-0.4,0.3-0.5,0.4c-0.1,0.1-0.3,0.2-0.4,0.2c-0.1,0-0.1,0-0.2-0.1
	c0-0.1-0.1-0.1-0.1-0.3c0-0.1-0.1-0.3-0.1-0.4c0-0.2,0-0.3,0-0.5c0-0.3,0-0.5,0-0.6c0-0.2,0.1-0.3,0.2-0.4c0.1-0.1,0.2-0.3,0.4-0.4
	c0.2-0.1,0.4-0.3,0.7-0.4c0.3-0.1,0.6-0.2,0.9-0.3c0.3-0.1,0.6-0.1,1-0.1c0.6,0,1.1,0.1,1.5,0.3c0.4,0.2,0.8,0.4,1.1,0.8
	c0.3,0.4,0.5,0.8,0.6,1.4c0.1,0.6,0.2,1.3,0.2,2V126.1z M306.3,126.5l-0.9,4c-0.1,0.2-0.2,0.4-0.4,0.5c-0.2,0.1-0.6,0.1-1,0.1
	c-0.2,0-0.4,0-0.5,0c-0.1,0-0.2-0.1-0.3-0.1c-0.1-0.1-0.1-0.2-0.1-0.3c0-0.1,0-0.2,0.1-0.4l1-3.8c-0.1-0.1-0.1-0.1-0.2-0.2
	c-0.1-0.1-0.1-0.2-0.1-0.3l-2.6-10.5c-0.1-0.3-0.1-0.5-0.1-0.7c0-0.2,0-0.3,0.1-0.4c0.1-0.1,0.2-0.1,0.3-0.2c0.2,0,0.4-0.1,0.6-0.1
	c0.2,0,0.4,0,0.6,0c0.1,0,0.3,0,0.3,0.1c0.1,0.1,0.1,0.1,0.2,0.2c0,0.1,0.1,0.3,0.1,0.5l1.8,7.7h0l1.6-7.8c0-0.2,0.1-0.4,0.1-0.4
	c0.1-0.1,0.1-0.1,0.3-0.2c0.1,0,0.3-0.1,0.7-0.1c0.2,0,0.5,0,0.6,0.1c0.2,0,0.3,0.1,0.4,0.2c0.1,0.1,0.1,0.2,0.1,0.4
	c0,0.2,0,0.3-0.1,0.6L306.3,126.5z M297.9,121.2h-0.8c-0.3,0-0.6,0-0.9,0.1c-0.2,0.1-0.4,0.2-0.6,0.4c-0.2,0.2-0.3,0.3-0.3,0.6
	c-0.1,0.2-0.1,0.5-0.1,0.7c0,0.5,0.1,0.9,0.3,1.1c0.2,0.3,0.5,0.4,0.8,0.4c0.3,0,0.6-0.1,0.8-0.3c0.3-0.2,0.5-0.6,0.8-1V121.2z
	 M300,126.1c0,0.1,0,0.2-0.1,0.3c-0.1,0.1-0.1,0.1-0.3,0.1c-0.1,0-0.3,0-0.5,0c-0.3,0-0.4,0-0.6,0c-0.1,0-0.2-0.1-0.2-0.1
	c0-0.1-0.1-0.2-0.1-0.3v-0.9c-0.3,0.5-0.7,0.9-1.1,1.2c-0.4,0.3-0.9,0.4-1.3,0.4c-0.4,0-0.8-0.1-1.1-0.2c-0.3-0.2-0.6-0.4-0.9-0.7
	c-0.2-0.3-0.4-0.7-0.6-1.2c-0.1-0.5-0.2-1-0.2-1.6c0-0.7,0.1-1.2,0.3-1.7c0.2-0.5,0.4-0.9,0.8-1.2c0.3-0.3,0.8-0.6,1.3-0.7
	c0.5-0.2,1.1-0.2,1.8-0.2h0.7v-0.7c0-0.4,0-0.7-0.1-0.9c0-0.3-0.1-0.5-0.2-0.7c-0.1-0.2-0.3-0.3-0.4-0.4c-0.2-0.1-0.4-0.1-0.7-0.1
	c-0.4,0-0.7,0.1-1,0.2c-0.3,0.1-0.5,0.3-0.8,0.4c-0.2,0.1-0.4,0.3-0.5,0.4c-0.1,0.1-0.3,0.2-0.4,0.2c-0.1,0-0.1,0-0.2-0.1
	c-0.1-0.1-0.1-0.1-0.1-0.3c0-0.1-0.1-0.3-0.1-0.4c0-0.2,0-0.3,0-0.5c0-0.3,0-0.5,0-0.6c0-0.2,0.1-0.3,0.2-0.4
	c0.1-0.1,0.2-0.3,0.4-0.4c0.2-0.1,0.4-0.3,0.7-0.4c0.3-0.1,0.6-0.2,0.9-0.3c0.3-0.1,0.6-0.1,1-0.1c0.6,0,1.1,0.1,1.5,0.3
	c0.4,0.2,0.8,0.4,1.1,0.8c0.3,0.4,0.5,0.8,0.6,1.4c0.1,0.6,0.2,1.3,0.2,2V126.1z M291.3,126.1c0,0.1,0,0.2,0,0.2
	c0,0.1-0.1,0.1-0.1,0.2c-0.1,0-0.2,0.1-0.3,0.1c-0.1,0-0.3,0-0.4,0c-0.2,0-0.3,0-0.5,0c-0.1,0-0.2-0.1-0.3-0.1
	c-0.1,0-0.1-0.1-0.1-0.2c0-0.1,0-0.1,0-0.2v-1.3c-0.4,0.7-0.9,1.2-1.3,1.5c-0.4,0.3-0.9,0.5-1.4,0.5c-0.5,0-1-0.1-1.3-0.4
	c-0.4-0.3-0.6-0.6-0.9-1.1c-0.2-0.4-0.4-1-0.5-1.5c-0.1-0.6-0.1-1.3-0.1-2.2v-7c0-0.1,0-0.2,0-0.2c0-0.1,0.1-0.1,0.2-0.2
	c0.1,0,0.2-0.1,0.3-0.1c0.1,0,0.3,0,0.5,0c0.2,0,0.4,0,0.5,0c0.1,0,0.2,0.1,0.3,0.1c0.1,0,0.1,0.1,0.2,0.2c0,0.1,0.1,0.1,0.1,0.2
	v6.5c0,0.6,0,1.1,0.1,1.4c0.1,0.3,0.1,0.6,0.2,0.8c0.1,0.2,0.2,0.4,0.4,0.5c0.2,0.1,0.4,0.2,0.6,0.2c0.3,0,0.6-0.1,0.8-0.4
	c0.3-0.3,0.6-0.7,0.9-1.3v-7.6c0-0.1,0-0.2,0-0.2c0-0.1,0.1-0.1,0.2-0.2c0.1,0,0.2-0.1,0.3-0.1c0.1,0,0.3,0,0.5,0c0.2,0,0.4,0,0.5,0
	c0.1,0,0.2,0.1,0.3,0.1c0.1,0,0.1,0.1,0.2,0.2c0,0.1,0.1,0.1,0.1,0.2V126.1z M487.7,121.2h-0.8c-0.3,0-0.6,0-0.9,0.1
	c-0.2,0.1-0.4,0.2-0.6,0.4c-0.2,0.2-0.3,0.3-0.3,0.6c-0.1,0.2-0.1,0.5-0.1,0.7c0,0.5,0.1,0.9,0.3,1.1c0.2,0.3,0.5,0.4,0.8,0.4
	c0.3,0,0.6-0.1,0.8-0.3c0.3-0.2,0.5-0.6,0.8-1V121.2z M489.8,126.1c0,0.1,0,0.2-0.1,0.3c-0.1,0.1-0.1,0.1-0.3,0.1
	c-0.1,0-0.3,0-0.5,0c-0.3,0-0.4,0-0.6,0c-0.1,0-0.2-0.1-0.2-0.1c0-0.1-0.1-0.2-0.1-0.3v-0.9c-0.3,0.5-0.7,0.9-1.1,1.2
	c-0.4,0.3-0.9,0.4-1.3,0.4c-0.4,0-0.8-0.1-1.1-0.2c-0.3-0.2-0.6-0.4-0.9-0.7c-0.2-0.3-0.4-0.7-0.6-1.2c-0.1-0.5-0.2-1-0.2-1.6
	c0-0.7,0.1-1.2,0.3-1.7c0.2-0.5,0.4-0.9,0.8-1.2c0.3-0.3,0.8-0.6,1.3-0.7c0.5-0.2,1.1-0.2,1.8-0.2h0.7v-0.7c0-0.4,0-0.7-0.1-0.9
	c0-0.3-0.1-0.5-0.2-0.7c-0.1-0.2-0.3-0.3-0.4-0.4c-0.2-0.1-0.4-0.1-0.7-0.1c-0.4,0-0.7,0.1-1,0.2c-0.3,0.1-0.5,0.3-0.8,0.4
	c-0.2,0.1-0.4,0.3-0.5,0.4c-0.1,0.1-0.3,0.2-0.4,0.2c-0.1,0-0.1,0-0.2-0.1c0-0.1-0.1-0.1-0.1-0.3c0-0.1-0.1-0.3-0.1-0.4
	c0-0.2,0-0.3,0-0.5c0-0.3,0-0.5,0-0.6c0-0.2,0.1-0.3,0.2-0.4c0.1-0.1,0.2-0.3,0.4-0.4c0.2-0.1,0.4-0.3,0.7-0.4
	c0.3-0.1,0.6-0.2,0.9-0.3c0.3-0.1,0.6-0.1,1-0.1c0.6,0,1.1,0.1,1.5,0.3c0.4,0.2,0.8,0.4,1.1,0.8c0.3,0.4,0.5,0.8,0.6,1.4
	c0.1,0.6,0.2,1.3,0.2,2V126.1z M481.1,126.1c0,0.1,0,0.2-0.1,0.2c0,0.1-0.1,0.1-0.2,0.2c-0.1,0-0.2,0.1-0.3,0.1c-0.1,0-0.3,0-0.5,0
	c-0.2,0-0.4,0-0.5,0c-0.1,0-0.3-0.1-0.3-0.1c-0.1,0-0.1-0.1-0.2-0.2c0-0.1-0.1-0.1-0.1-0.2v-6.5c0-0.6,0-1-0.1-1.3
	c-0.1-0.3-0.1-0.6-0.2-0.8c-0.1-0.2-0.2-0.4-0.4-0.5c-0.2-0.1-0.4-0.2-0.6-0.2c-0.3,0-0.6,0.1-0.8,0.5c-0.3,0.3-0.6,0.7-0.9,1.3v7.6
	c0,0.1,0,0.2-0.1,0.2c0,0.1-0.1,0.1-0.2,0.2c-0.1,0-0.2,0.1-0.3,0.1c-0.1,0-0.3,0-0.5,0c-0.2,0-0.4,0-0.5,0c-0.1,0-0.2-0.1-0.3-0.1
	c-0.1,0-0.1-0.1-0.2-0.2c0-0.1-0.1-0.1-0.1-0.2v-11.5c0-0.1,0-0.2,0-0.2c0-0.1,0.1-0.1,0.2-0.2c0.1,0,0.2-0.1,0.3-0.1
	c0.1,0,0.3,0,0.4,0c0.2,0,0.3,0,0.5,0c0.1,0,0.2,0.1,0.3,0.1c0.1,0,0.1,0.1,0.1,0.2c0,0.1,0,0.1,0,0.2v1.3c0.4-0.7,0.9-1.2,1.3-1.5
	c0.4-0.3,0.9-0.5,1.4-0.5c0.5,0,1,0.1,1.3,0.4c0.4,0.3,0.6,0.6,0.9,1c0.2,0.4,0.4,1,0.5,1.5c0.1,0.6,0.1,1.3,0.1,2.1V126.1z
	 M469.9,120.3c0-0.6,0-1.1-0.1-1.6c-0.1-0.5-0.2-0.9-0.3-1.2c-0.1-0.4-0.3-0.6-0.6-0.8c-0.2-0.2-0.5-0.3-0.9-0.3
	c-0.3,0-0.6,0.1-0.8,0.3c-0.2,0.2-0.4,0.4-0.6,0.8c-0.2,0.3-0.3,0.7-0.3,1.2c-0.1,0.5-0.1,1-0.1,1.6c0,0.6,0,1.1,0.1,1.6
	c0.1,0.5,0.2,0.9,0.3,1.2c0.1,0.4,0.3,0.6,0.6,0.8c0.2,0.2,0.5,0.3,0.9,0.3c0.3,0,0.6-0.1,0.9-0.3c0.2-0.2,0.4-0.4,0.6-0.8
	c0.2-0.3,0.3-0.7,0.3-1.2C469.8,121.5,469.9,120.9,469.9,120.3z M472.1,120.2c0,1-0.1,1.9-0.3,2.7c-0.2,0.8-0.4,1.5-0.8,2.1
	c-0.3,0.6-0.8,1-1.3,1.3c-0.5,0.3-1.1,0.5-1.8,0.5c-0.7,0-1.3-0.1-1.8-0.4c-0.5-0.3-0.9-0.7-1.3-1.2c-0.3-0.5-0.6-1.2-0.7-2
	c-0.2-0.8-0.2-1.7-0.2-2.7c0-1,0.1-1.9,0.3-2.7c0.2-0.8,0.4-1.5,0.8-2.1c0.3-0.6,0.8-1,1.3-1.3c0.5-0.3,1.1-0.5,1.8-0.5
	c0.7,0,1.3,0.1,1.8,0.4c0.5,0.3,0.9,0.7,1.3,1.2c0.3,0.5,0.6,1.2,0.7,2C472,118.3,472.1,119.2,472.1,120.2z M462.4,110.7
	c0,0.7-0.1,1.1-0.3,1.3c-0.2,0.2-0.5,0.4-1,0.4c-0.5,0-0.8-0.1-1-0.4c-0.2-0.2-0.3-0.7-0.3-1.3c0-0.7,0.1-1.1,0.3-1.4
	c0.2-0.2,0.5-0.4,1-0.4c0.5,0,0.8,0.1,1,0.4C462.3,109.6,462.4,110.1,462.4,110.7z M462.2,126.1c0,0.1,0,0.2-0.1,0.2
	c0,0.1-0.1,0.1-0.2,0.2c-0.1,0-0.2,0.1-0.3,0.1c-0.1,0-0.3,0-0.5,0c-0.2,0-0.4,0-0.5,0c-0.1,0-0.2-0.1-0.3-0.1
	c-0.1,0-0.1-0.1-0.2-0.2c0-0.1-0.1-0.1-0.1-0.2v-11.4c0-0.1,0-0.2,0.1-0.2c0-0.1,0.1-0.1,0.2-0.2c0.1,0,0.2-0.1,0.3-0.1
	c0.1,0,0.3,0,0.5,0c0.2,0,0.4,0,0.5,0c0.1,0,0.2,0.1,0.3,0.1c0.1,0,0.1,0.1,0.2,0.2c0,0.1,0.1,0.1,0.1,0.2V126.1z M458.4,122.8
	c0,0.6-0.1,1.2-0.2,1.7c-0.2,0.5-0.4,0.9-0.7,1.2c-0.3,0.3-0.7,0.6-1.1,0.7c-0.4,0.2-0.8,0.2-1.3,0.2c-0.3,0-0.6,0-0.8-0.1
	c-0.3-0.1-0.5-0.1-0.7-0.2c-0.2-0.1-0.4-0.2-0.5-0.3c-0.1-0.1-0.2-0.2-0.3-0.3c-0.1-0.1-0.1-0.2-0.1-0.4c0-0.2-0.1-0.5-0.1-0.8
	c0-0.2,0-0.4,0-0.6c0-0.1,0-0.3,0-0.4c0-0.1,0.1-0.1,0.1-0.2c0,0,0.1,0,0.1,0c0.1,0,0.2,0.1,0.3,0.2c0.1,0.1,0.3,0.2,0.5,0.4
	c0.2,0.1,0.4,0.3,0.6,0.4c0.2,0.1,0.5,0.2,0.8,0.2c0.2,0,0.4,0,0.5-0.1c0.2-0.1,0.3-0.1,0.4-0.3c0.1-0.1,0.2-0.2,0.3-0.4
	c0.1-0.2,0.1-0.4,0.1-0.6c0-0.3-0.1-0.5-0.2-0.7c-0.1-0.2-0.2-0.3-0.4-0.5c-0.2-0.1-0.4-0.3-0.6-0.4c-0.2-0.1-0.4-0.2-0.7-0.4
	c-0.2-0.1-0.5-0.3-0.7-0.5c-0.2-0.2-0.4-0.4-0.6-0.7c-0.2-0.3-0.3-0.6-0.4-1c-0.1-0.4-0.2-0.8-0.2-1.4c0-0.5,0.1-1,0.2-1.5
	c0.1-0.5,0.3-0.8,0.6-1.2c0.3-0.3,0.6-0.6,1-0.8c0.4-0.2,0.8-0.3,1.3-0.3c0.2,0,0.5,0,0.7,0.1c0.2,0.1,0.4,0.1,0.6,0.2
	c0.2,0.1,0.3,0.2,0.5,0.2c0.1,0.1,0.2,0.2,0.3,0.2c0.1,0.1,0.1,0.1,0.1,0.2c0,0.1,0,0.1,0.1,0.2c0,0.1,0,0.2,0,0.3
	c0,0.1,0,0.3,0,0.5c0,0.2,0,0.4,0,0.6c0,0.1,0,0.3,0,0.3c0,0.1,0,0.1-0.1,0.2c0,0-0.1,0-0.1,0c-0.1,0-0.1,0-0.2-0.1
	c-0.1-0.1-0.2-0.2-0.4-0.3c-0.2-0.1-0.4-0.2-0.6-0.3c-0.2-0.1-0.5-0.1-0.7-0.1c-0.2,0-0.4,0-0.5,0.1c-0.1,0.1-0.3,0.1-0.4,0.3
	c-0.1,0.1-0.2,0.2-0.2,0.4c0,0.1-0.1,0.3-0.1,0.5c0,0.3,0.1,0.5,0.2,0.7c0.1,0.2,0.3,0.3,0.4,0.5c0.2,0.1,0.4,0.3,0.6,0.4
	c0.2,0.1,0.5,0.2,0.7,0.4c0.2,0.1,0.5,0.3,0.7,0.5c0.2,0.2,0.4,0.4,0.6,0.7c0.2,0.3,0.3,0.6,0.4,1
	C458.3,121.8,458.4,122.3,458.4,122.8z M449.1,119.1c0-0.9-0.1-1.6-0.4-2.1c-0.3-0.5-0.7-0.8-1.2-0.8c-0.3,0-0.5,0.1-0.7,0.2
	c-0.2,0.2-0.4,0.4-0.5,0.6c-0.1,0.3-0.2,0.6-0.3,0.9c-0.1,0.4-0.1,0.7-0.1,1.1H449.1z M451.2,120c0,0.4-0.1,0.7-0.2,0.9
	c-0.1,0.2-0.3,0.3-0.5,0.3h-4.7c0,0.5,0,0.9,0.1,1.3c0.1,0.4,0.2,0.7,0.4,1c0.2,0.3,0.4,0.5,0.7,0.6c0.3,0.1,0.6,0.2,1,0.2
	c0.4,0,0.7,0,1-0.1c0.3-0.1,0.5-0.2,0.7-0.3c0.2-0.1,0.4-0.2,0.5-0.3c0.1-0.1,0.2-0.1,0.3-0.1c0.1,0,0.1,0,0.1,0
	c0,0,0.1,0.1,0.1,0.2c0,0.1,0,0.2,0,0.3c0,0.1,0,0.3,0,0.5c0,0.2,0,0.4,0,0.5c0,0.1,0,0.2,0,0.3c0,0.1,0,0.2,0,0.2
	c0,0.1-0.1,0.1-0.1,0.2c0,0.1-0.1,0.1-0.3,0.2c-0.2,0.1-0.4,0.2-0.6,0.3c-0.3,0.1-0.6,0.2-0.9,0.3c-0.3,0.1-0.7,0.1-1.1,0.1
	c-0.7,0-1.3-0.1-1.8-0.4c-0.5-0.3-0.9-0.6-1.3-1.2c-0.3-0.5-0.6-1.2-0.8-2c-0.2-0.8-0.3-1.7-0.3-2.8c0-1,0.1-1.9,0.3-2.8
	c0.2-0.8,0.4-1.5,0.8-2.1c0.3-0.6,0.7-1,1.2-1.3c0.5-0.3,1-0.5,1.6-0.5c0.6,0,1.2,0.1,1.6,0.4c0.5,0.3,0.8,0.7,1.1,1.2
	c0.3,0.5,0.5,1.1,0.6,1.8c0.1,0.7,0.2,1.4,0.2,2.2V120z M443.5,110.2c0,0.2,0,0.4,0,0.6c0,0.1,0,0.3,0,0.3c0,0.1,0,0.1-0.1,0.2
	c0,0-0.1,0-0.1,0c0,0-0.1,0-0.1,0c0,0-0.1-0.1-0.2-0.1c-0.1,0-0.2-0.1-0.3-0.1c-0.1,0-0.2,0-0.3,0c-0.2,0-0.3,0-0.4,0.1
	c-0.1,0.1-0.2,0.2-0.3,0.3c-0.1,0.2-0.1,0.4-0.2,0.6c0,0.3-0.1,0.6-0.1,0.9v1.1h1.4c0.1,0,0.1,0,0.1,0.1c0,0,0.1,0.1,0.1,0.2
	c0,0.1,0,0.2,0.1,0.4c0,0.2,0,0.4,0,0.6c0,0.5,0,0.8-0.1,1c-0.1,0.2-0.1,0.3-0.3,0.3h-1.4v9.3c0,0.1,0,0.2-0.1,0.2
	c0,0.1-0.1,0.1-0.2,0.2c-0.1,0-0.2,0.1-0.3,0.1c-0.1,0-0.3,0-0.5,0c-0.2,0-0.4,0-0.5,0c-0.1,0-0.3-0.1-0.3-0.1
	c-0.1,0-0.1-0.1-0.2-0.2c0-0.1,0-0.1,0-0.2v-9.3h-1c-0.1,0-0.2-0.1-0.2-0.3c-0.1-0.2-0.1-0.5-0.1-1c0-0.2,0-0.5,0-0.6
	c0-0.2,0-0.3,0.1-0.4c0-0.1,0.1-0.2,0.1-0.2c0,0,0.1-0.1,0.1-0.1h1v-1c0-0.8,0.1-1.5,0.2-2c0.1-0.6,0.3-1.1,0.5-1.5
	c0.2-0.4,0.5-0.7,0.8-0.9c0.3-0.2,0.7-0.3,1.2-0.3c0.2,0,0.4,0,0.6,0.1c0.2,0.1,0.4,0.1,0.5,0.2c0.1,0.1,0.2,0.1,0.2,0.2
	c0,0.1,0.1,0.1,0.1,0.2c0,0.1,0,0.2,0.1,0.4C443.5,109.8,443.5,110,443.5,110.2z M434.9,120.3c0-0.6,0-1.1-0.1-1.6
	c-0.1-0.5-0.2-0.9-0.3-1.2c-0.1-0.4-0.3-0.6-0.6-0.8c-0.2-0.2-0.5-0.3-0.9-0.3c-0.3,0-0.6,0.1-0.8,0.3c-0.2,0.2-0.4,0.4-0.6,0.8
	c-0.2,0.3-0.3,0.7-0.3,1.2c-0.1,0.5-0.1,1-0.1,1.6c0,0.6,0,1.1,0.1,1.6c0.1,0.5,0.2,0.9,0.3,1.2c0.1,0.4,0.3,0.6,0.6,0.8
	c0.2,0.2,0.5,0.3,0.9,0.3c0.3,0,0.6-0.1,0.9-0.3c0.2-0.2,0.4-0.4,0.6-0.8c0.2-0.3,0.3-0.7,0.3-1.2
	C434.9,121.5,434.9,120.9,434.9,120.3z M437.1,120.2c0,1-0.1,1.9-0.3,2.7c-0.2,0.8-0.4,1.5-0.8,2.1c-0.3,0.6-0.8,1-1.3,1.3
	c-0.5,0.3-1.1,0.5-1.9,0.5c-0.7,0-1.3-0.1-1.8-0.4c-0.5-0.3-0.9-0.7-1.3-1.2c-0.3-0.5-0.6-1.2-0.7-2c-0.2-0.8-0.2-1.7-0.2-2.7
	c0-1,0.1-1.9,0.3-2.7c0.2-0.8,0.4-1.5,0.8-2.1c0.3-0.6,0.8-1,1.3-1.3c0.5-0.3,1.1-0.5,1.8-0.5c0.7,0,1.3,0.1,1.8,0.4
	c0.5,0.3,0.9,0.7,1.3,1.2c0.3,0.5,0.6,1.2,0.7,2C437,118.3,437.1,119.2,437.1,120.2z M428.3,115.7c0,0.3,0,0.6,0,0.8
	c0,0.2,0,0.4,0,0.5c0,0.1-0.1,0.2-0.1,0.2c0,0-0.1,0.1-0.1,0.1c0,0-0.1,0-0.2,0c-0.1,0-0.1-0.1-0.2-0.1c-0.1,0-0.1-0.1-0.2-0.1
	c-0.1,0-0.2,0-0.3,0c-0.1,0-0.2,0-0.4,0.1c-0.1,0.1-0.2,0.2-0.4,0.3c-0.1,0.2-0.3,0.4-0.4,0.6c-0.1,0.3-0.3,0.6-0.5,1v7.1
	c0,0.1,0,0.2-0.1,0.2c0,0.1-0.1,0.1-0.2,0.2c-0.1,0-0.2,0.1-0.3,0.1c-0.1,0-0.3,0-0.5,0c-0.2,0-0.4,0-0.5,0c-0.1,0-0.2-0.1-0.3-0.1
	c-0.1,0-0.1-0.1-0.2-0.2c0-0.1-0.1-0.1-0.1-0.2v-11.5c0-0.1,0-0.2,0-0.2c0-0.1,0.1-0.1,0.2-0.2c0.1,0,0.2-0.1,0.3-0.1
	c0.1,0,0.3,0,0.4,0c0.2,0,0.3,0,0.5,0c0.1,0,0.2,0.1,0.3,0.1c0.1,0,0.1,0.1,0.1,0.2c0,0.1,0,0.1,0,0.2v1.4c0.2-0.4,0.4-0.8,0.6-1.1
	c0.2-0.3,0.3-0.5,0.5-0.7c0.2-0.2,0.3-0.3,0.5-0.3c0.2-0.1,0.3-0.1,0.5-0.1c0.1,0,0.2,0,0.2,0c0.1,0,0.2,0,0.3,0.1
	c0.1,0,0.2,0.1,0.2,0.1c0.1,0,0.1,0.1,0.2,0.1c0,0,0.1,0.1,0.1,0.1c0,0.1,0,0.1,0,0.2c0,0.1,0,0.2,0,0.4
	C428.3,115.1,428.3,115.4,428.3,115.7z M419.3,115.2c0-0.6-0.1-1.1-0.2-1.4c-0.1-0.4-0.3-0.7-0.5-0.8c-0.2-0.2-0.4-0.3-0.6-0.3
	c-0.2,0-0.5-0.1-0.7-0.1h-1v5.7h1c0.4,0,0.7-0.1,0.9-0.2c0.2-0.1,0.4-0.4,0.6-0.6c0.2-0.3,0.3-0.6,0.4-0.9
	C419.3,116,419.3,115.6,419.3,115.2z M421.7,114.9c0,0.9-0.1,1.8-0.3,2.5c-0.2,0.7-0.5,1.3-0.9,1.8c-0.4,0.5-0.8,0.9-1.4,1.1
	c-0.5,0.3-1.2,0.4-1.9,0.4h-0.9v5.3c0,0.1,0,0.2-0.1,0.2c0,0.1-0.1,0.1-0.2,0.2c-0.1,0-0.2,0.1-0.3,0.1c-0.1,0-0.3,0-0.5,0
	c-0.2,0-0.4,0-0.5,0c-0.1,0-0.3-0.1-0.3-0.1c-0.1,0-0.1-0.1-0.2-0.2c0-0.1-0.1-0.1-0.1-0.2v-14.9c0-0.4,0.1-0.7,0.2-0.9
	c0.1-0.2,0.3-0.3,0.6-0.3h2.6c0.3,0,0.5,0,0.8,0c0.2,0,0.5,0.1,0.9,0.2c0.3,0.1,0.7,0.3,1,0.5c0.3,0.3,0.6,0.6,0.9,1
	c0.2,0.4,0.4,0.9,0.6,1.4C421.6,113.6,421.7,114.2,421.7,114.9z M408.3,122.8c0,0.6-0.1,1.2-0.2,1.7c-0.2,0.5-0.4,0.9-0.7,1.2
	c-0.3,0.3-0.7,0.6-1.1,0.7c-0.4,0.2-0.8,0.2-1.3,0.2c-0.3,0-0.6,0-0.8-0.1c-0.3-0.1-0.5-0.1-0.7-0.2c-0.2-0.1-0.4-0.2-0.5-0.3
	c-0.1-0.1-0.2-0.2-0.3-0.3c-0.1-0.1-0.1-0.2-0.1-0.4c0-0.2-0.1-0.5-0.1-0.8c0-0.2,0-0.4,0-0.6c0-0.1,0-0.3,0-0.4
	c0-0.1,0.1-0.1,0.1-0.2c0,0,0.1,0,0.1,0c0.1,0,0.2,0.1,0.3,0.2c0.1,0.1,0.3,0.2,0.5,0.4c0.2,0.1,0.4,0.3,0.6,0.4
	c0.2,0.1,0.5,0.2,0.8,0.2c0.2,0,0.4,0,0.5-0.1c0.2-0.1,0.3-0.1,0.4-0.3c0.1-0.1,0.2-0.2,0.3-0.4c0.1-0.2,0.1-0.4,0.1-0.6
	c0-0.3-0.1-0.5-0.2-0.7c-0.1-0.2-0.2-0.3-0.4-0.5c-0.2-0.1-0.4-0.3-0.6-0.4c-0.2-0.1-0.4-0.2-0.7-0.4c-0.2-0.1-0.5-0.3-0.7-0.5
	c-0.2-0.2-0.4-0.4-0.6-0.7c-0.2-0.3-0.3-0.6-0.4-1c-0.1-0.4-0.2-0.8-0.2-1.4c0-0.5,0.1-1,0.2-1.5c0.1-0.5,0.3-0.8,0.6-1.2
	c0.3-0.3,0.6-0.6,1-0.8c0.4-0.2,0.8-0.3,1.3-0.3c0.2,0,0.5,0,0.7,0.1c0.2,0.1,0.4,0.1,0.6,0.2c0.2,0.1,0.3,0.2,0.5,0.2
	c0.1,0.1,0.2,0.2,0.3,0.2c0.1,0.1,0.1,0.1,0.1,0.2c0,0.1,0,0.1,0,0.2c0,0.1,0,0.2,0,0.3c0,0.1,0,0.3,0,0.5c0,0.2,0,0.4,0,0.6
	c0,0.1,0,0.3,0,0.3c0,0.1,0,0.1-0.1,0.2c0,0-0.1,0-0.1,0c-0.1,0-0.1,0-0.2-0.1c-0.1-0.1-0.2-0.2-0.4-0.3c-0.2-0.1-0.4-0.2-0.6-0.3
	c-0.2-0.1-0.5-0.1-0.7-0.1c-0.2,0-0.4,0-0.5,0.1c-0.1,0.1-0.3,0.1-0.4,0.3c-0.1,0.1-0.2,0.2-0.2,0.4c0,0.1-0.1,0.3-0.1,0.5
	c0,0.3,0.1,0.5,0.2,0.7c0.1,0.2,0.3,0.3,0.4,0.5c0.2,0.1,0.4,0.3,0.6,0.4c0.2,0.1,0.5,0.2,0.7,0.4c0.2,0.1,0.5,0.3,0.7,0.5
	c0.2,0.2,0.4,0.4,0.6,0.7c0.2,0.3,0.3,0.6,0.4,1C408.3,121.8,408.3,122.3,408.3,122.8z M399.1,119.1c0-0.9-0.1-1.6-0.4-2.1
	c-0.3-0.5-0.7-0.8-1.2-0.8c-0.3,0-0.5,0.1-0.7,0.2c-0.2,0.2-0.4,0.4-0.5,0.6c-0.1,0.3-0.2,0.6-0.3,0.9c-0.1,0.4-0.1,0.7-0.1,1.1
	H399.1z M401.1,120c0,0.4-0.1,0.7-0.2,0.9c-0.1,0.2-0.3,0.3-0.5,0.3h-4.7c0,0.5,0,0.9,0.1,1.3c0.1,0.4,0.2,0.7,0.4,1
	c0.2,0.3,0.4,0.5,0.7,0.6c0.3,0.1,0.6,0.2,1,0.2c0.4,0,0.7,0,1-0.1c0.3-0.1,0.5-0.2,0.7-0.3c0.2-0.1,0.4-0.2,0.5-0.3
	c0.1-0.1,0.2-0.1,0.3-0.1c0.1,0,0.1,0,0.1,0c0,0,0.1,0.1,0.1,0.2c0,0.1,0,0.2,0,0.3c0,0.1,0,0.3,0,0.5c0,0.2,0,0.4,0,0.5
	c0,0.1,0,0.2,0,0.3c0,0.1,0,0.2,0,0.2c0,0.1-0.1,0.1-0.1,0.2c0,0.1-0.1,0.1-0.3,0.2c-0.2,0.1-0.4,0.2-0.6,0.3
	c-0.3,0.1-0.6,0.2-0.9,0.3c-0.3,0.1-0.7,0.1-1.1,0.1c-0.7,0-1.3-0.1-1.8-0.4c-0.5-0.3-0.9-0.6-1.3-1.2c-0.3-0.5-0.6-1.2-0.8-2
	c-0.2-0.8-0.3-1.7-0.3-2.8c0-1,0.1-1.9,0.3-2.8c0.2-0.8,0.4-1.5,0.8-2.1c0.3-0.6,0.7-1,1.2-1.3c0.5-0.3,1-0.5,1.6-0.5
	c0.6,0,1.2,0.1,1.6,0.4c0.5,0.3,0.8,0.7,1.1,1.2c0.3,0.5,0.5,1.1,0.6,1.8c0.1,0.7,0.2,1.4,0.2,2.2V120z M585.1,120.3
	c0-0.6,0-1.1-0.1-1.6c-0.1-0.5-0.2-0.9-0.3-1.2c-0.1-0.4-0.3-0.6-0.6-0.8c-0.2-0.2-0.5-0.3-0.9-0.3c-0.3,0-0.6,0.1-0.8,0.3
	c-0.2,0.2-0.4,0.4-0.6,0.8c-0.2,0.3-0.3,0.7-0.3,1.2c-0.1,0.5-0.1,1-0.1,1.6c0,0.6,0,1.1,0.1,1.6c0.1,0.5,0.2,0.9,0.3,1.2
	c0.1,0.4,0.3,0.6,0.6,0.8c0.2,0.2,0.5,0.3,0.9,0.3c0.3,0,0.6-0.1,0.9-0.3c0.2-0.2,0.4-0.4,0.6-0.8c0.2-0.3,0.3-0.7,0.3-1.2
	C585,121.5,585.1,120.9,585.1,120.3 M587.3,120.2c0,1-0.1,1.9-0.3,2.7c-0.2,0.8-0.4,1.5-0.8,2.1c-0.3,0.6-0.8,1-1.3,1.3
	c-0.5,0.3-1.1,0.5-1.9,0.5c-0.7,0-1.3-0.1-1.8-0.4c-0.5-0.3-0.9-0.7-1.3-1.2c-0.3-0.5-0.6-1.2-0.7-2c-0.2-0.8-0.2-1.7-0.2-2.7
	c0-1,0.1-1.9,0.3-2.7c0.2-0.8,0.4-1.5,0.8-2.1c0.3-0.6,0.8-1,1.3-1.3c0.5-0.3,1.1-0.5,1.8-0.5c0.7,0,1.3,0.1,1.8,0.4
	c0.5,0.3,0.9,0.7,1.3,1.2c0.3,0.5,0.6,1.2,0.7,2C587.2,118.3,587.3,119.2,587.3,120.2z M578.4,115.7c0,0.3,0,0.6,0,0.8
	c0,0.2,0,0.4,0,0.5c0,0.1-0.1,0.2-0.1,0.2c0,0-0.1,0.1-0.1,0.1c0,0-0.1,0-0.2,0c-0.1,0-0.1-0.1-0.2-0.1c-0.1,0-0.1-0.1-0.2-0.1
	c-0.1,0-0.2,0-0.3,0c-0.1,0-0.2,0-0.4,0.1c-0.1,0.1-0.2,0.2-0.4,0.3c-0.1,0.2-0.3,0.4-0.4,0.6c-0.1,0.3-0.3,0.6-0.5,1v7.1
	c0,0.1,0,0.2-0.1,0.2c0,0.1-0.1,0.1-0.2,0.2c-0.1,0-0.2,0.1-0.3,0.1c-0.1,0-0.3,0-0.5,0c-0.2,0-0.4,0-0.5,0c-0.1,0-0.2-0.1-0.3-0.1
	c-0.1,0-0.1-0.1-0.2-0.2c0-0.1-0.1-0.1-0.1-0.2v-11.5c0-0.1,0-0.2,0-0.2c0-0.1,0.1-0.1,0.2-0.2c0.1,0,0.2-0.1,0.3-0.1
	c0.1,0,0.3,0,0.4,0c0.2,0,0.3,0,0.5,0c0.1,0,0.2,0.1,0.3,0.1c0.1,0,0.1,0.1,0.1,0.2c0,0.1,0,0.1,0,0.2v1.4c0.2-0.4,0.4-0.8,0.6-1.1
	c0.2-0.3,0.3-0.5,0.5-0.7c0.2-0.2,0.3-0.3,0.5-0.3c0.2-0.1,0.3-0.1,0.5-0.1c0.1,0,0.2,0,0.2,0c0.1,0,0.2,0,0.3,0.1
	c0.1,0,0.2,0.1,0.2,0.1c0.1,0,0.1,0.1,0.2,0.1c0,0,0.1,0.1,0.1,0.1c0,0.1,0,0.1,0,0.2c0,0.1,0,0.2,0,0.4
	C578.4,115.1,578.4,115.4,578.4,115.7z M571.3,126.1c0,0.1,0,0.2,0,0.2c0,0.1-0.1,0.1-0.1,0.2c-0.1,0-0.2,0.1-0.3,0.1
	c-0.1,0-0.3,0-0.4,0c-0.2,0-0.3,0-0.5,0c-0.1,0-0.2-0.1-0.3-0.1c-0.1,0-0.1-0.1-0.1-0.2c0-0.1,0-0.1,0-0.2v-1.3
	c-0.4,0.7-0.9,1.2-1.3,1.5c-0.4,0.3-0.9,0.5-1.4,0.5c-0.5,0-1-0.1-1.3-0.4c-0.4-0.3-0.6-0.6-0.9-1.1c-0.2-0.4-0.4-1-0.5-1.5
	c-0.1-0.6-0.1-1.3-0.1-2.2v-7c0-0.1,0-0.2,0-0.2c0-0.1,0.1-0.1,0.2-0.2c0.1,0,0.2-0.1,0.3-0.1c0.1,0,0.3,0,0.5,0c0.2,0,0.4,0,0.5,0
	c0.1,0,0.2,0.1,0.3,0.1c0.1,0,0.1,0.1,0.2,0.2c0,0.1,0.1,0.1,0.1,0.2v6.5c0,0.6,0,1.1,0.1,1.4c0.1,0.3,0.1,0.6,0.2,0.8
	c0.1,0.2,0.2,0.4,0.4,0.5c0.2,0.1,0.4,0.2,0.6,0.2c0.3,0,0.6-0.1,0.8-0.4c0.3-0.3,0.6-0.7,0.9-1.3v-7.6c0-0.1,0-0.2,0-0.2
	c0-0.1,0.1-0.1,0.2-0.2c0.1,0,0.2-0.1,0.3-0.1c0.1,0,0.3,0,0.5,0c0.2,0,0.4,0,0.5,0c0.1,0,0.2,0.1,0.3,0.1c0.1,0,0.1,0.1,0.2,0.2
	c0,0.1,0.1,0.1,0.1,0.2V126.1z M560.3,127.2c0-0.4-0.1-0.7-0.3-0.9c-0.2-0.2-0.5-0.3-0.9-0.3l-1.5-0.1c-0.1,0.2-0.3,0.3-0.4,0.5
	c-0.1,0.1-0.2,0.3-0.2,0.4c-0.1,0.1-0.1,0.3-0.1,0.4c0,0.1,0,0.3,0,0.4c0,0.4,0.1,0.7,0.4,1c0.3,0.2,0.7,0.3,1.2,0.3
	c0.3,0,0.6,0,0.8-0.1c0.2-0.1,0.4-0.2,0.5-0.4c0.1-0.2,0.2-0.3,0.3-0.5C560.3,127.7,560.3,127.5,560.3,127.2z M559.8,118.1
	c0-0.6-0.1-1.1-0.3-1.4c-0.2-0.3-0.6-0.5-1-0.5c-0.2,0-0.4,0.1-0.6,0.2c-0.2,0.1-0.3,0.2-0.4,0.4c-0.1,0.2-0.2,0.4-0.2,0.6
	c-0.1,0.2-0.1,0.5-0.1,0.8c0,0.6,0.1,1,0.3,1.4c0.2,0.3,0.5,0.5,1,0.5c0.2,0,0.4-0.1,0.6-0.2c0.2-0.1,0.3-0.2,0.4-0.4
	c0.1-0.2,0.2-0.4,0.2-0.6C559.8,118.6,559.8,118.4,559.8,118.1z M562.6,115.4c0,0.4,0,0.7-0.1,0.9c-0.1,0.2-0.1,0.3-0.2,0.3h-0.9
	c0.1,0.2,0.2,0.4,0.3,0.7c0.1,0.3,0.1,0.5,0.1,0.8c0,0.7-0.1,1.3-0.2,1.8c-0.1,0.5-0.4,1-0.6,1.3c-0.3,0.4-0.6,0.6-1,0.8
	c-0.4,0.2-0.8,0.3-1.3,0.3c-0.2,0-0.5,0-0.7-0.1c-0.2-0.1-0.4-0.2-0.5-0.3c-0.1,0.1-0.1,0.2-0.2,0.4c-0.1,0.2-0.1,0.3-0.1,0.5
	c0,0.2,0.1,0.5,0.2,0.6c0.1,0.2,0.3,0.2,0.6,0.3l1.9,0.1c0.4,0,0.8,0.1,1.2,0.3c0.3,0.2,0.6,0.4,0.9,0.7c0.2,0.3,0.4,0.6,0.5,1
	c0.1,0.4,0.2,0.9,0.2,1.4c0,0.6-0.1,1.1-0.2,1.6c-0.2,0.5-0.4,0.9-0.7,1.3c-0.3,0.4-0.8,0.7-1.3,0.9c-0.5,0.2-1.1,0.3-1.8,0.3
	c-0.7,0-1.2-0.1-1.7-0.2c-0.5-0.2-0.8-0.4-1.1-0.6c-0.3-0.3-0.5-0.6-0.6-1c-0.1-0.4-0.2-0.8-0.2-1.3c0-0.3,0-0.6,0.1-0.8
	c0-0.3,0.1-0.5,0.2-0.7c0.1-0.2,0.2-0.5,0.3-0.7c0.1-0.2,0.3-0.4,0.5-0.6c-0.2-0.2-0.4-0.5-0.6-0.8c-0.1-0.3-0.2-0.7-0.2-1.1
	c0-0.5,0.1-1,0.2-1.4c0.2-0.4,0.4-0.8,0.6-1.1c-0.2-0.3-0.4-0.7-0.5-1.1c-0.1-0.4-0.2-0.9-0.2-1.6c0-0.7,0.1-1.3,0.2-1.8
	c0.2-0.5,0.4-1,0.7-1.3c0.3-0.4,0.6-0.6,1-0.8c0.4-0.2,0.8-0.3,1.3-0.3c0.2,0,0.5,0,0.7,0.1c0.2,0,0.4,0.1,0.6,0.2h2.4
	c0.1,0,0.2,0.1,0.2,0.3C562.6,114.6,562.6,114.9,562.6,115.4z M551.8,119.1c0-0.9-0.1-1.6-0.4-2.1c-0.3-0.5-0.7-0.8-1.2-0.8
	c-0.3,0-0.5,0.1-0.7,0.2c-0.2,0.2-0.4,0.4-0.5,0.6c-0.1,0.3-0.2,0.6-0.3,0.9c-0.1,0.4-0.1,0.7-0.1,1.1H551.8z M553.9,120
	c0,0.4-0.1,0.7-0.2,0.9c-0.1,0.2-0.3,0.3-0.5,0.3h-4.7c0,0.5,0,0.9,0.1,1.3c0.1,0.4,0.2,0.7,0.4,1c0.2,0.3,0.4,0.5,0.7,0.6
	c0.3,0.1,0.6,0.2,1,0.2c0.4,0,0.7,0,1-0.1c0.3-0.1,0.5-0.2,0.7-0.3c0.2-0.1,0.4-0.2,0.5-0.3c0.1-0.1,0.2-0.1,0.3-0.1
	c0.1,0,0.1,0,0.1,0c0,0,0.1,0.1,0.1,0.2c0,0.1,0,0.2,0,0.3c0,0.1,0,0.3,0,0.5c0,0.2,0,0.4,0,0.5c0,0.1,0,0.2,0,0.3
	c0,0.1,0,0.2,0,0.2c0,0.1-0.1,0.1-0.1,0.2c0,0.1-0.1,0.1-0.3,0.2c-0.2,0.1-0.4,0.2-0.6,0.3c-0.3,0.1-0.6,0.2-0.9,0.3
	c-0.3,0.1-0.7,0.1-1.1,0.1c-0.7,0-1.3-0.1-1.8-0.4c-0.5-0.3-0.9-0.6-1.3-1.2c-0.3-0.5-0.6-1.2-0.8-2c-0.2-0.8-0.3-1.7-0.3-2.8
	c0-1,0.1-1.9,0.3-2.8c0.2-0.8,0.4-1.5,0.8-2.1c0.3-0.6,0.7-1,1.2-1.3c0.5-0.3,1-0.5,1.6-0.5c0.6,0,1.2,0.1,1.6,0.4
	c0.5,0.3,0.8,0.7,1.1,1.2c0.3,0.5,0.5,1.1,0.6,1.8c0.1,0.7,0.2,1.4,0.2,2.2V120z M545.2,121.5c0,0.9-0.1,1.6-0.3,2.3
	c-0.2,0.7-0.5,1.2-0.9,1.6c-0.4,0.4-0.8,0.8-1.3,1c-0.5,0.2-1,0.3-1.6,0.3c-0.4,0-0.7,0-1.1-0.1c-0.3-0.1-0.6-0.2-0.9-0.3
	c-0.3-0.1-0.5-0.3-0.6-0.4c-0.2-0.1-0.3-0.3-0.4-0.4c-0.1-0.1-0.1-0.3-0.2-0.5c0-0.2,0-0.5,0-0.9c0-0.3,0-0.5,0-0.7
	c0-0.2,0-0.3,0.1-0.4c0-0.1,0.1-0.2,0.1-0.2c0,0,0.1-0.1,0.2-0.1c0.1,0,0.2,0.1,0.3,0.2c0.1,0.1,0.3,0.3,0.6,0.5
	c0.2,0.2,0.5,0.3,0.8,0.5c0.3,0.1,0.7,0.2,1.1,0.2c0.3,0,0.5,0,0.7-0.1c0.2-0.1,0.4-0.2,0.6-0.4c0.2-0.2,0.3-0.4,0.3-0.7
	c0.1-0.3,0.1-0.6,0.1-0.9c0-0.4-0.1-0.7-0.2-1c-0.1-0.3-0.3-0.5-0.5-0.7c-0.2-0.2-0.5-0.4-0.8-0.6c-0.3-0.2-0.6-0.4-0.9-0.6
	c-0.3-0.2-0.6-0.4-0.9-0.7c-0.3-0.3-0.5-0.6-0.8-0.9c-0.2-0.4-0.4-0.8-0.5-1.3c-0.1-0.5-0.2-1.1-0.2-1.8c0-0.8,0.1-1.5,0.3-2.1
	c0.2-0.6,0.5-1.1,0.8-1.5c0.3-0.4,0.7-0.7,1.2-0.9c0.5-0.2,0.9-0.3,1.5-0.3c0.3,0,0.5,0,0.8,0.1c0.3,0.1,0.5,0.1,0.7,0.2
	c0.2,0.1,0.4,0.2,0.6,0.3c0.2,0.1,0.3,0.2,0.4,0.3c0.1,0.1,0.1,0.2,0.1,0.2c0,0.1,0,0.1,0.1,0.2c0,0.1,0,0.2,0,0.4
	c0,0.1,0,0.3,0,0.6c0,0.2,0,0.5,0,0.6c0,0.2,0,0.3,0,0.4c0,0.1,0,0.2-0.1,0.2c0,0.1-0.1,0.1-0.2,0.1c-0.1,0-0.2-0.1-0.3-0.2
	c-0.1-0.1-0.3-0.2-0.5-0.4c-0.2-0.1-0.4-0.3-0.7-0.4c-0.3-0.1-0.6-0.2-0.9-0.2c-0.2,0-0.5,0-0.6,0.1c-0.2,0.1-0.3,0.2-0.5,0.4
	c-0.1,0.2-0.2,0.3-0.3,0.6c-0.1,0.2-0.1,0.5-0.1,0.7c0,0.4,0.1,0.7,0.2,1c0.1,0.3,0.3,0.5,0.5,0.7c0.2,0.2,0.5,0.4,0.8,0.6
	c0.3,0.2,0.6,0.4,0.9,0.6c0.3,0.2,0.6,0.4,0.9,0.7c0.3,0.3,0.5,0.6,0.8,0.9c0.2,0.4,0.4,0.8,0.5,1.3
	C545.1,120.3,545.2,120.8,545.2,121.5z M530.6,119.1c0-0.9-0.1-1.6-0.4-2.1c-0.3-0.5-0.7-0.8-1.2-0.8c-0.3,0-0.5,0.1-0.7,0.2
	c-0.2,0.2-0.4,0.4-0.5,0.6c-0.1,0.3-0.2,0.6-0.3,0.9c-0.1,0.4-0.1,0.7-0.1,1.1H530.6z M532.7,120c0,0.4-0.1,0.7-0.2,0.9
	c-0.1,0.2-0.3,0.3-0.5,0.3h-4.7c0,0.5,0,0.9,0.1,1.3c0.1,0.4,0.2,0.7,0.4,1c0.2,0.3,0.4,0.5,0.7,0.6c0.3,0.1,0.6,0.2,1,0.2
	c0.4,0,0.7,0,1-0.1c0.3-0.1,0.5-0.2,0.7-0.3c0.2-0.1,0.4-0.2,0.5-0.3c0.1-0.1,0.2-0.1,0.3-0.1c0.1,0,0.1,0,0.1,0
	c0,0,0.1,0.1,0.1,0.2c0,0.1,0,0.2,0,0.3c0,0.1,0,0.3,0,0.5c0,0.2,0,0.4,0,0.5c0,0.1,0,0.2,0,0.3c0,0.1,0,0.2,0,0.2
	c0,0.1-0.1,0.1-0.1,0.2c0,0.1-0.1,0.1-0.3,0.2c-0.2,0.1-0.4,0.2-0.6,0.3c-0.3,0.1-0.6,0.2-0.9,0.3c-0.3,0.1-0.7,0.1-1.1,0.1
	c-0.7,0-1.3-0.1-1.8-0.4c-0.5-0.3-0.9-0.6-1.3-1.2c-0.3-0.5-0.6-1.2-0.8-2c-0.2-0.8-0.3-1.7-0.3-2.8c0-1,0.1-1.9,0.3-2.8
	c0.2-0.8,0.4-1.5,0.8-2.1c0.3-0.6,0.7-1,1.2-1.3c0.5-0.3,1-0.5,1.6-0.5c0.6,0,1.2,0.1,1.6,0.4c0.5,0.3,0.8,0.7,1.1,1.2
	c0.3,0.5,0.5,1.1,0.6,1.8c0.1,0.7,0.2,1.4,0.2,2.2V120z M521.3,118.4c-0.3-0.6-0.6-1-0.9-1.3c-0.3-0.3-0.6-0.5-0.9-0.5
	c-0.3,0-0.5,0.1-0.7,0.3c-0.2,0.2-0.4,0.5-0.5,0.8c-0.1,0.4-0.2,0.7-0.3,1.2c-0.1,0.4-0.1,0.9-0.1,1.3c0,0.5,0,0.9,0.1,1.4
	c0.1,0.5,0.1,0.9,0.3,1.2c0.1,0.4,0.3,0.6,0.5,0.9c0.2,0.2,0.4,0.3,0.7,0.3c0.1,0,0.3,0,0.4-0.1c0.1-0.1,0.3-0.2,0.4-0.3
	c0.1-0.1,0.3-0.3,0.5-0.6c0.2-0.2,0.3-0.5,0.5-0.9V118.4z M523.5,126.1c0,0.1,0,0.2,0,0.2c0,0.1-0.1,0.1-0.1,0.2
	c-0.1,0-0.2,0.1-0.3,0.1c-0.1,0-0.3,0-0.4,0c-0.2,0-0.3,0-0.4,0c-0.1,0-0.2,0-0.3-0.1c-0.1,0-0.1-0.1-0.2-0.2c0-0.1,0-0.1,0-0.2
	v-1.3c-0.4,0.6-0.8,1.1-1.2,1.5c-0.4,0.4-0.9,0.5-1.4,0.5c-0.6,0-1.1-0.2-1.5-0.5c-0.4-0.3-0.7-0.8-1-1.4c-0.3-0.6-0.4-1.2-0.6-2
	c-0.1-0.8-0.2-1.6-0.2-2.4c0-1,0.1-1.9,0.2-2.7c0.1-0.8,0.4-1.5,0.6-2.1c0.3-0.6,0.6-1,1.1-1.3c0.4-0.3,0.9-0.5,1.4-0.5
	c0.4,0,0.8,0.1,1.2,0.4c0.4,0.3,0.7,0.6,1,1.1v-6.2c0-0.1,0-0.2,0-0.2c0-0.1,0.1-0.1,0.2-0.2c0.1,0,0.2-0.1,0.3-0.1
	c0.1,0,0.3,0,0.5,0c0.2,0,0.4,0,0.5,0c0.1,0,0.2,0.1,0.3,0.1c0.1,0,0.1,0.1,0.2,0.2c0,0.1,0.1,0.1,0.1,0.2V126.1z M510.6,122.8
	c0,0.6-0.1,1.2-0.2,1.7c-0.2,0.5-0.4,0.9-0.7,1.2c-0.3,0.3-0.7,0.6-1.1,0.7c-0.4,0.2-0.8,0.2-1.3,0.2c-0.3,0-0.6,0-0.8-0.1
	c-0.3-0.1-0.5-0.1-0.7-0.2c-0.2-0.1-0.4-0.2-0.5-0.3c-0.1-0.1-0.2-0.2-0.3-0.3c-0.1-0.1-0.1-0.2-0.1-0.4c0-0.2-0.1-0.5-0.1-0.8
	c0-0.2,0-0.4,0-0.6c0-0.1,0-0.3,0-0.4c0-0.1,0.1-0.1,0.1-0.2c0,0,0.1,0,0.1,0c0.1,0,0.2,0.1,0.3,0.2c0.1,0.1,0.3,0.2,0.5,0.4
	c0.2,0.1,0.4,0.3,0.6,0.4c0.2,0.1,0.5,0.2,0.8,0.2c0.2,0,0.4,0,0.5-0.1c0.2-0.1,0.3-0.1,0.4-0.3c0.1-0.1,0.2-0.2,0.3-0.4
	c0.1-0.2,0.1-0.4,0.1-0.6c0-0.3-0.1-0.5-0.2-0.7c-0.1-0.2-0.2-0.3-0.4-0.5c-0.2-0.1-0.4-0.3-0.6-0.4c-0.2-0.1-0.4-0.2-0.7-0.4
	c-0.2-0.1-0.5-0.3-0.7-0.5c-0.2-0.2-0.4-0.4-0.6-0.7c-0.2-0.3-0.3-0.6-0.4-1c-0.1-0.4-0.2-0.8-0.2-1.4c0-0.5,0.1-1,0.2-1.5
	c0.1-0.5,0.3-0.8,0.6-1.2c0.3-0.3,0.6-0.6,1-0.8c0.4-0.2,0.8-0.3,1.3-0.3c0.2,0,0.5,0,0.7,0.1c0.2,0.1,0.4,0.1,0.6,0.2
	c0.2,0.1,0.3,0.2,0.5,0.2c0.1,0.1,0.2,0.2,0.3,0.2c0.1,0.1,0.1,0.1,0.1,0.2c0,0.1,0,0.1,0,0.2c0,0.1,0,0.2,0,0.3c0,0.1,0,0.3,0,0.5
	c0,0.2,0,0.4,0,0.6c0,0.1,0,0.3,0,0.3c0,0.1,0,0.1-0.1,0.2c0,0-0.1,0-0.1,0c-0.1,0-0.1,0-0.2-0.1c-0.1-0.1-0.2-0.2-0.4-0.3
	c-0.2-0.1-0.4-0.2-0.6-0.3c-0.2-0.1-0.5-0.1-0.7-0.1c-0.2,0-0.4,0-0.5,0.1c-0.1,0.1-0.3,0.1-0.4,0.3c-0.1,0.1-0.2,0.2-0.2,0.4
	c0,0.1-0.1,0.3-0.1,0.5c0,0.3,0.1,0.5,0.2,0.7c0.1,0.2,0.3,0.3,0.4,0.5c0.2,0.1,0.4,0.3,0.6,0.4c0.2,0.1,0.5,0.2,0.7,0.4
	c0.2,0.1,0.5,0.3,0.7,0.5c0.2,0.2,0.4,0.4,0.6,0.7c0.2,0.3,0.3,0.6,0.4,1C510.5,121.8,510.6,122.3,510.6,122.8z M501.3,119.1
	c0-0.9-0.1-1.6-0.4-2.1c-0.3-0.5-0.7-0.8-1.2-0.8c-0.3,0-0.5,0.1-0.7,0.2c-0.2,0.2-0.4,0.4-0.5,0.6c-0.1,0.3-0.2,0.6-0.3,0.9
	c-0.1,0.4-0.1,0.7-0.1,1.1H501.3z M503.4,120c0,0.4-0.1,0.7-0.2,0.9c-0.1,0.2-0.3,0.3-0.5,0.3H498c0,0.5,0,0.9,0.1,1.3
	c0.1,0.4,0.2,0.7,0.4,1c0.2,0.3,0.4,0.5,0.7,0.6c0.3,0.1,0.6,0.2,1,0.2c0.4,0,0.7,0,1-0.1c0.3-0.1,0.5-0.2,0.7-0.3
	c0.2-0.1,0.4-0.2,0.5-0.3c0.1-0.1,0.2-0.1,0.3-0.1c0.1,0,0.1,0,0.1,0c0,0,0.1,0.1,0.1,0.2c0,0.1,0,0.2,0,0.3c0,0.1,0,0.3,0,0.5
	c0,0.2,0,0.4,0,0.5c0,0.1,0,0.2,0,0.3c0,0.1,0,0.2,0,0.2c0,0.1-0.1,0.1-0.1,0.2c0,0.1-0.1,0.1-0.3,0.2c-0.2,0.1-0.4,0.2-0.6,0.3
	c-0.3,0.1-0.6,0.2-0.9,0.3c-0.3,0.1-0.7,0.1-1.1,0.1c-0.7,0-1.3-0.1-1.8-0.4c-0.5-0.3-0.9-0.6-1.3-1.2c-0.3-0.5-0.6-1.2-0.8-2
	c-0.2-0.8-0.3-1.7-0.3-2.8c0-1,0.1-1.9,0.3-2.8c0.2-0.8,0.4-1.5,0.8-2.1c0.3-0.6,0.7-1,1.2-1.3c0.5-0.3,1-0.5,1.6-0.5
	c0.6,0,1.2,0.1,1.6,0.4c0.5,0.3,0.8,0.7,1.1,1.2c0.3,0.5,0.5,1.1,0.6,1.8c0.1,0.7,0.2,1.4,0.2,2.2V120z M494.1,126.1
	c0,0.1,0,0.2-0.1,0.2c0,0.1-0.1,0.1-0.2,0.2c-0.1,0-0.2,0.1-0.3,0.1c-0.1,0-0.3,0-0.5,0c-0.2,0-0.4,0-0.5,0c-0.1,0-0.2-0.1-0.3-0.1
	c-0.1,0-0.1-0.1-0.2-0.2c0-0.1-0.1-0.1-0.1-0.2v-16.9c0-0.1,0-0.2,0.1-0.2c0-0.1,0.1-0.1,0.2-0.2c0.1,0,0.2-0.1,0.3-0.1
	c0.1,0,0.3,0,0.5,0c0.2,0,0.4,0,0.5,0c0.1,0,0.2,0.1,0.3,0.1c0.1,0,0.1,0.1,0.2,0.2c0,0.1,0.1,0.1,0.1,0.2V126.1z M594.4,122.8
	c0,0.6-0.1,1.2-0.2,1.7c-0.2,0.5-0.4,0.9-0.7,1.2c-0.3,0.3-0.7,0.6-1.1,0.7c-0.4,0.2-0.8,0.2-1.3,0.2c-0.3,0-0.6,0-0.8-0.1
	c-0.3-0.1-0.5-0.1-0.7-0.2c-0.2-0.1-0.4-0.2-0.5-0.3c-0.1-0.1-0.2-0.2-0.3-0.3c-0.1-0.1-0.1-0.2-0.1-0.4c0-0.2-0.1-0.5-0.1-0.8
	c0-0.2,0-0.4,0-0.6c0-0.1,0-0.3,0-0.4c0-0.1,0.1-0.1,0.1-0.2c0,0,0.1,0,0.1,0c0.1,0,0.2,0.1,0.3,0.2c0.1,0.1,0.3,0.2,0.5,0.4
	c0.2,0.1,0.4,0.3,0.6,0.4c0.2,0.1,0.5,0.2,0.8,0.2c0.2,0,0.4,0,0.5-0.1c0.2-0.1,0.3-0.1,0.4-0.3c0.1-0.1,0.2-0.2,0.3-0.4
	c0.1-0.2,0.1-0.4,0.1-0.6c0-0.3-0.1-0.5-0.2-0.7c-0.1-0.2-0.2-0.3-0.4-0.5c-0.2-0.1-0.4-0.3-0.6-0.4c-0.2-0.1-0.4-0.2-0.7-0.4
	c-0.2-0.1-0.5-0.3-0.7-0.5c-0.2-0.2-0.4-0.4-0.6-0.7c-0.2-0.3-0.3-0.6-0.4-1c-0.1-0.4-0.2-0.8-0.2-1.4c0-0.5,0.1-1,0.2-1.5
	c0.1-0.5,0.3-0.8,0.6-1.2c0.3-0.3,0.6-0.6,1-0.8c0.4-0.2,0.8-0.3,1.3-0.3c0.2,0,0.5,0,0.7,0.1c0.2,0.1,0.4,0.1,0.6,0.2
	c0.2,0.1,0.3,0.2,0.5,0.2c0.1,0.1,0.2,0.2,0.3,0.2c0.1,0.1,0.1,0.1,0.1,0.2c0,0.1,0,0.1,0,0.2c0,0.1,0,0.2,0,0.3c0,0.1,0,0.3,0,0.5
	c0,0.2,0,0.4,0,0.6c0,0.1,0,0.3,0,0.3c0,0.1,0,0.1-0.1,0.2c0,0-0.1,0-0.1,0c-0.1,0-0.1,0-0.2-0.1c-0.1-0.1-0.2-0.2-0.4-0.3
	c-0.2-0.1-0.4-0.2-0.6-0.3c-0.2-0.1-0.5-0.1-0.7-0.1c-0.2,0-0.4,0-0.5,0.1c-0.1,0.1-0.3,0.1-0.4,0.3c-0.1,0.1-0.2,0.2-0.2,0.4
	c0,0.1-0.1,0.3-0.1,0.5c0,0.3,0.1,0.5,0.2,0.7c0.1,0.2,0.3,0.3,0.4,0.5c0.2,0.1,0.4,0.3,0.6,0.4c0.2,0.1,0.5,0.2,0.7,0.4
	c0.2,0.1,0.5,0.3,0.7,0.5c0.2,0.2,0.4,0.4,0.6,0.7c0.2,0.3,0.3,0.6,0.4,1C594.4,121.8,594.4,122.3,594.4,122.8"></path>
</svg>