<svg xmlns="http://www.w3.org/2000/svg" xmlns:xlink="http://www.w3.org/1999/xlink" version="1.1" x="0px" y="0px" style="enable-background:new 0 0 3710 3710;" xml:space="preserve" viewBox="960.95 1377.41 1843.25 1860.66">

<g id="Illustration">
	<g>
		<g>
			<linearGradient id="SVGID_00000163067136228153589410000011933253798807178648_" gradientUnits="userSpaceOnUse" x1="1108.3605" y1="1040.8516" x2="542.381" y2="1678.5044" gradientTransform="matrix(0.985 0.1726 -0.1726 0.985 1009.7885 76.1594)">
				<stop offset="0" style="stop-color:#00233f"/>
				<stop offset="1" style="stop-color:#00233f"/>
			</linearGradient>
			<path style="fill:url(#SVGID_00000163067136228153589410000011933253798807178648_);" d="M1660.235,1490.25     c13.063-10.727,7.634-31.841-8.685-36.239c-52.679-14.198-135.312-14.573-182.132,96.402     c-52.74,125.009-84.944,186.872-112.006,195.397c-17.771,5.598-21.426,29.021-5.355,38.45c11.882,6.972,29.55,10.91,55.764,8.068     C1610.03,1770.402,1583.622,1553.164,1660.235,1490.25z"/>

			<linearGradient id="SVGID_00000114041581803474339200000013402702004063177899_" gradientUnits="userSpaceOnUse" x1="2035.131" y1="1672.3147" x2="1725.025" y2="2425.1096">
				<stop offset="0" style="stop-color:#FEBBBA"/>
				<stop offset="1" style="stop-color:#FF928E"/>
			</linearGradient>
			<path style="fill:url(#SVGID_00000114041581803474339200000013402702004063177899_);" d="M1659.5,1826.943     c-51.993,25.878-26.829,107.119,2.736,126.586c29.566,19.468,134.22,155.068,163.599,151.237s286.454,18.415,288.074,18.821     c1.62,0.406,0.38,39.708,20.035,33.44c19.655-6.268,49.855-27.116,37.708-40.494c-12.147-13.379-10.112-28.369-27.937-32.838     c-17.826-4.468-287.302-56.606-287.302-56.606S1727.39,1793.153,1659.5,1826.943z"/>

			<linearGradient id="SVGID_00000130648051704592682930000009324511754804423080_" gradientUnits="userSpaceOnUse" x1="1870.6718" y1="2964.3984" x2="1999.3656" y2="3150.2893" gradientTransform="matrix(0.9999 0.0142 -0.0142 0.9999 25.105 41.9334)">
				<stop offset="0" style="stop-color:#00233f"/>
				<stop offset="1" style="stop-color:#00233f"/>
			</linearGradient>
			<path style="fill:url(#SVGID_00000130648051704592682930000009324511754804423080_);" d="M1857.784,2952.642l-156.279-121.706     c-4.947-3.854-11.998-3.222-16.197,1.448l-7.959,8.858c-2.24,2.493-3.349,5.813-3.066,9.163c0.291,3.353,1.945,6.434,4.575,8.5     l159.551,125.432c3.006,2.36,6.944,3.14,10.612,2.097c3.668-1.045,6.625-3.785,7.967-7.382l4.689-12.581     C1863.529,2961.497,1861.95,2955.887,1857.784,2952.642z"/>

			<g>
				<linearGradient id="SVGID_00000078019975847315381300000010340424110803826615_" gradientUnits="userSpaceOnUse" x1="1880.5706" y1="3286.9441" x2="2309.9177" y2="2849.0952" gradientTransform="matrix(0.9171 -0.0455 0.0434 0.8749 -265.161 180.6891)">
					<stop offset="0" style="stop-color:#FEBBBA"/>
					<stop offset="1" style="stop-color:#FF928E"/>
				</linearGradient>
				<path style="fill:url(#SVGID_00000078019975847315381300000010340424110803826615_);" d="M1844.303,2504.593      c0,0-57.676,137.642-58.234,172.832c-0.459,28.872-10.64,58.848-18.25,86.425c-4.029,14.598-8.261,29.139-12.634,43.637      c-4.174,13.838-14.021,28.328-8.095,42.763c3.745,9.121,11.091,16.206,18.342,22.887c20.106,18.527,41.034,36.162,62.701,52.837      c2.379,1.831,4.926,3.717,7.909,4.061c6.018,0.694,11.041-5.517,11.35-11.567c0.309-6.051-2.695-11.727-5.733-16.968      c-9.833-16.969-20.958-33.188-33.247-48.473c-3.708-4.612-7.581-9.239-9.763-14.74c-5.145-12.974,10.692-29.947,16.852-42.003      c7.224-14.139,14.128-28.441,20.898-42.802c16.739-35.503,32.624-71.418,47.799-107.616      c14.662-34.975,28.818-70.236,41.103-106.126c6.656-19.444,19.229-46.418,16.768-67.625c-0.265-2.285-0.226-4.84-1.803-6.709      C1920.684,2442.204,1846.137,2471.906,1844.303,2504.593z"/>

				<linearGradient id="SVGID_00000039113847565584468830000005208653006960649634_" gradientUnits="userSpaceOnUse" x1="-6736.7124" y1="-548.5125" x2="-6773.0454" y2="8.5961" gradientTransform="matrix(-0.8361 -0.5486 -0.5486 0.8361 -3819.8611 -931.4706)">
					<stop offset="0" style="stop-color:#b8d1fe"/>
					<stop offset="1" style="stop-color:#b8d1fe"/>
				</linearGradient>
				<path style="fill:url(#SVGID_00000039113847565584468830000005208653006960649634_);" d="M1720.058,2802.48      c0,0-30.323,5.793-30.909,33.99c0,0,119.767,112.951,171.418,134.572c3.007,1.259,6.285-1.122,6.06-4.375      c-0.712-10.331-5.129-32.98-26.731-68.745l1.644,4.717c2.08,5.968-4.79,11.051-9.868,7.289      C1803.187,2888.823,1745.522,2843.23,1720.058,2802.48z"/>

				<linearGradient id="SVGID_00000072262974101097677850000002508505549053736335_" gradientUnits="userSpaceOnUse" x1="2091.1626" y1="1685.1384" x2="1814.7637" y2="2150.2976">
					<stop offset="0" style="stop-color:#002d55"/>
					<stop offset="1" style="stop-color:#002d55"/>
				</linearGradient>
				<path style="fill:url(#SVGID_00000072262974101097677850000002508505549053736335_);" d="M1453.542,2176.977      c0,0-66.032,141.51,60.345,166.087c126.377,24.577,329.096,190.129,329.096,190.129l127.011-62.907      c0,0-291.577-271.935-357.261-282.146C1491.426,2202.453,1493.023,2191.322,1453.542,2176.977z"/>
			</g>

			<g>
				<path style="fill:#FFFFFF;" d="M2462.796,2556.733c-180.563-2.556-329.011,141.749-331.566,322.311      c-2.556,180.563,141.748,329.011,322.311,331.567c180.563,2.556,329.011-141.748,331.567-322.312      C2787.663,2707.737,2643.359,2559.289,2462.796,2556.733z M2454.232,3161.777c-153.592-2.174-276.342-128.449-274.168-282.042      c2.174-153.592,128.449-276.342,282.041-274.168s276.342,128.449,274.168,282.041      C2734.099,3041.201,2607.824,3163.95,2454.232,3161.777z"/>

				<g>
					<linearGradient id="SVGID_00000010293395856469301320000003748201433924879795_" gradientUnits="userSpaceOnUse" x1="2584.9229" y1="2345.9395" x2="2112.6121" y2="4386.9956" gradientTransform="matrix(0.9999 0.0142 -0.0142 0.9999 25.105 41.9334)">
						<stop offset="0" style="stop-color:#00233f"/>
						<stop offset="1" style="stop-color:#00233f"/>
					</linearGradient>
					<path style="fill:url(#SVGID_00000010293395856469301320000003748201433924879795_);" d="M2465.472,2550.917       c-189.744-2.686-345.74,148.956-348.426,338.698c-2.686,189.744,148.956,345.74,338.7,348.426       c189.741,2.686,345.738-148.956,348.423-338.7C2806.856,2709.599,2655.214,2553.603,2465.472,2550.917z M2452.798,3186.546       c-163.362-2.312-293.919-136.618-291.607-299.98c2.312-163.362,136.618-293.918,299.98-291.606       c163.362,2.313,293.921,136.618,291.609,299.98S2616.16,3188.858,2452.798,3186.546z"/>

					<g>
						<g>
							<path style="fill:#BDD0FB;" d="M2749.859,2783.737c-2.265-0.032-4.314-1.572-4.892-3.87         c-2.893-11.544-6.642-23.011-11.141-34.087c-1.063-2.616,0.194-5.599,2.815-6.672c2.62-1.043,5.609,0.189,6.672,2.825         c4.679,11.51,8.576,23.428,11.592,35.434c0.686,2.751-0.978,5.528-3.724,6.219         C2750.74,2783.699,2750.294,2783.743,2749.859,2783.737z"/>
						</g>

						<g>
							<path style="fill:#BDD0FB;" d="M2706.454,2691.676c-1.555-0.022-3.075-0.744-4.066-2.098         c-51.868-70.844-136.453-113.904-226.267-115.176c-38.299-0.542-75.457,6.704-110.447,21.534         c-2.611,1.083-5.615-0.119-6.713-2.726c-1.104-2.596,0.115-5.61,2.716-6.713c36.308-15.381,74.861-22.898,114.59-22.335         c93.009,1.316,180.633,45.939,234.389,119.372c1.668,2.284,1.173,5.488-1.107,7.156         C2708.614,2691.366,2707.524,2691.691,2706.454,2691.676z"/>
						</g>
					</g>
				</g>

				<linearGradient id="SVGID_00000101797918899843162120000001306809520313203085_" gradientUnits="userSpaceOnUse" x1="1741.2758" y1="-657.0608" x2="1751.3813" y2="-657.0608" gradientTransform="matrix(0.7086 0.7057 -0.7057 0.7086 884.8464 2036.4792)">
					<stop offset="0" style="stop-color:#00233f"/>
					<stop offset="1" style="stop-color:#00233f"/>
				</linearGradient>
				<path style="fill:url(#SVGID_00000101797918899843162120000001306809520313203085_);" d="M2667.996,2728.079      c1.969-1.977,1.962-5.176-0.015-7.145l0,0c-1.977-1.969-5.176-1.962-7.145,0.015l-156.867,157.514      c-1.969,1.977-1.962,5.176,0.015,7.145l0,0c1.977,1.969,5.176,1.962,7.145-0.015L2667.996,2728.079z"/>

				<linearGradient id="SVGID_00000067925939303405741170000006408302496323846800_" gradientUnits="userSpaceOnUse" x1="1736.5482" y1="-518.8553" x2="1746.6565" y2="-518.8553" gradientTransform="matrix(0.7086 0.7057 -0.6616 0.6643 791.0736 2130.5237)">
					<stop offset="0" style="stop-color:#00233f"/>
					<stop offset="1" style="stop-color:#00233f"/>
				</linearGradient>
				<path style="fill:url(#SVGID_00000067925939303405741170000006408302496323846800_);" d="M2445.558,2944.629      c1.846-1.854,1.74-4.952-0.238-6.921l0,0c-1.977-1.969-5.076-2.063-6.922-0.209l-147.061,147.667      c-1.846,1.854-1.74,4.952,0.238,6.922l0,0c1.977,1.969,5.076,2.062,6.922,0.209L2445.558,2944.629z"/>

				<linearGradient id="SVGID_00000114785526291033660540000010810844882443474869_" gradientUnits="userSpaceOnUse" x1="-2471.8499" y1="-2270.6072" x2="-2461.7302" y2="-2270.6072" gradientTransform="matrix(-0.2749 0.9614 -0.9614 -0.2749 -551.7765 4623.915)">
					<stop offset="0" style="stop-color:#00233f"/>
					<stop offset="1" style="stop-color:#00233f"/>
				</linearGradient>
				<path style="fill:url(#SVGID_00000114785526291033660540000010810844882443474869_);" d="M2414.782,2911.955      c2.683,0.767,5.479-0.786,6.247-3.468l0,0c0.767-2.683-0.785-5.48-3.469-6.247l-213.731-61.128      c-2.683-0.767-5.48,0.786-6.247,3.469l0,0c-0.768,2.683,0.785,5.479,3.468,6.247L2414.782,2911.955z"/>

				<linearGradient id="SVGID_00000155867899251961035870000004730562783227821441_" gradientUnits="userSpaceOnUse" x1="-2469.3596" y1="-2581.7402" x2="-2461.0286" y2="-2581.7402" gradientTransform="matrix(-0.2749 0.9614 -0.9614 -0.2749 -551.7765 4623.915)">
					<stop offset="0" style="stop-color:#00233f"/>
					<stop offset="1" style="stop-color:#00233f"/>
				</linearGradient>
				<path style="fill:url(#SVGID_00000155867899251961035870000004730562783227821441_);" d="M2694.825,2992.76      c2.209,0.631,4.511-0.647,5.143-2.856l0,0c0.632-2.208-0.646-4.511-2.855-5.143l-175.958-50.325      c-2.209-0.632-4.511,0.647-5.143,2.855l0,0c-0.632,2.208,0.646,4.511,2.855,5.143L2694.825,2992.76z"/>

				<linearGradient id="SVGID_00000042699961795580028820000012336195358615674772_" gradientUnits="userSpaceOnUse" x1="-5293.7773" y1="-951.5078" x2="-5285.4556" y2="-951.5078" gradientTransform="matrix(-0.8257 0.5641 -0.5641 -0.8257 -2503.3391 4982.4717)">
					<stop offset="0" style="stop-color:#00233f"/>
					<stop offset="1" style="stop-color:#00233f"/>
				</linearGradient>
				<path style="fill:url(#SVGID_00000042699961795580028820000012336195358615674772_);" d="M2449.226,2862.163      c1.296,1.897,3.884,2.384,5.781,1.088l0,0c1.897-1.296,2.384-3.884,1.088-5.781l-103.236-151.116      c-1.296-1.897-3.884-2.384-5.781-1.088l0,0c-1.897,1.295-2.384,3.884-1.088,5.781L2449.226,2862.163z"/>

				<linearGradient id="SVGID_00000106848001376074115470000015526285137041738685_" gradientUnits="userSpaceOnUse" x1="-5280.3364" y1="-1238.6786" x2="-5272.0146" y2="-1238.6786" gradientTransform="matrix(-0.8257 0.5641 -0.5641 -0.8257 -2503.3391 4982.4717)">
					<stop offset="0" style="stop-color:#00233f"/>
					<stop offset="1" style="stop-color:#00233f"/>
				</linearGradient>
				<path style="fill:url(#SVGID_00000106848001376074115470000015526285137041738685_);" d="M2600.121,3106.862      c1.296,1.897,3.884,2.384,5.781,1.088l0,0c1.897-1.296,2.384-3.884,1.089-5.781l-103.236-151.116      c-1.296-1.897-3.884-2.384-5.781-1.088l0,0c-1.897,1.296-2.384,3.884-1.088,5.781L2600.121,3106.862z"/>

				<linearGradient id="SVGID_00000035522856172486895620000002162290208877935015_" gradientUnits="userSpaceOnUse" x1="-3871.9622" y1="6104.6675" x2="-3863.6396" y2="6104.6675" gradientTransform="matrix(-0.2407 -0.9706 0.9706 -0.2407 -4545.8105 674.6908)">
					<stop offset="0" style="stop-color:#00233f"/>
					<stop offset="1" style="stop-color:#00233f"/>
				</linearGradient>
				<path style="fill:url(#SVGID_00000035522856172486895620000002162290208877935015_);" d="M2220.541,2977.372      c-2.229,0.553-3.589,2.809-3.036,5.038l0,0c0.553,2.23,2.808,3.589,5.038,3.036l177.633-44.048      c2.229-0.553,3.589-2.809,3.036-5.038l0,0c-0.553-2.23-2.809-3.589-5.038-3.036L2220.541,2977.372z"/>

				<linearGradient id="SVGID_00000093863414387247277880000016984537953391064207_" gradientUnits="userSpaceOnUse" x1="-3865.2017" y1="6425.6343" x2="-3856.8794" y2="6425.6343" gradientTransform="matrix(-0.2407 -0.9706 0.9706 -0.2407 -4545.8105 674.6908)">
					<stop offset="0" style="stop-color:#00233f"/>
					<stop offset="1" style="stop-color:#00233f"/>
				</linearGradient>
				<path style="fill:url(#SVGID_00000093863414387247277880000016984537953391064207_);" d="M2530.445,2893.553      c-2.229,0.553-3.589,2.808-3.036,5.038l0,0c0.553,2.23,2.808,3.589,5.038,3.036l177.633-44.048      c2.23-0.553,3.589-2.809,3.036-5.038l0,0c-0.553-2.23-2.809-3.589-5.038-3.036L2530.445,2893.553z"/>

				<linearGradient id="SVGID_00000096773103354844621590000002298379512068240017_" gradientUnits="userSpaceOnUse" x1="-6491.8628" y1="1138.9038" x2="-6480.8633" y2="1138.9038" gradientTransform="matrix(-1 0.005 -0.005 -1 -3996.542 4217.707)">
					<stop offset="0" style="stop-color:#00233f"/>
					<stop offset="1" style="stop-color:#00233f"/>
				</linearGradient>
				<path style="fill:url(#SVGID_00000096773103354844621590000002298379512068240017_);" d="M2481.783,3141.595      c0.012,2.297,1.883,4.15,4.18,4.138l0,0c2.297-0.012,4.15-1.883,4.139-4.18l-0.916-183.01c-0.011-2.297-1.883-4.15-4.18-4.139      l0,0c-2.297,0.011-6.886-9.307-6.875-7.01L2481.783,3141.595z"/>

				<linearGradient id="SVGID_00000179645816194049758690000011014510472434533794_" gradientUnits="userSpaceOnUse" x1="-6497.7749" y1="1443.8253" x2="-6489.4551" y2="1443.8253" gradientTransform="matrix(-1 0.005 -0.005 -1 -3996.542 4217.707)">
					<stop offset="0" style="stop-color:#00233f"/>
					<stop offset="1" style="stop-color:#00233f"/>
				</linearGradient>
				<path style="fill:url(#SVGID_00000179645816194049758690000011014510472434533794_);" d="M2486.152,2832.939      c0.012,2.297,1.883,4.15,4.18,4.139l0,0c2.297-0.012,4.15-1.883,4.139-4.18l-0.916-183.01c-0.012-2.297-1.883-4.15-4.18-4.139      l0,0c-2.297,0.011-4.15,1.883-4.139,4.18L2486.152,2832.939z"/>

				<linearGradient id="SVGID_00000150791550656940329560000000833297051279073188_" gradientUnits="userSpaceOnUse" x1="2472.7346" y1="2861.6323" x2="2515.3318" y2="2818.1914" gradientTransform="matrix(0.9999 0.0142 -0.0142 0.9999 25.105 41.9334)">
					<stop offset="0" style="stop-color:#00233f"/>
					<stop offset="1" style="stop-color:#00233f"/>
				</linearGradient>
				<path style="fill:url(#SVGID_00000150791550656940329560000000833297051279073188_);" d="M2508.979,2917.407      c-0.238,16.799-14.049,30.224-30.848,29.987c-16.799-0.238-30.225-14.049-29.987-30.848s14.049-30.225,30.848-29.987      C2495.792,2886.797,2509.217,2900.608,2508.979,2917.407z"/>
			</g>

			<g>
				<path style="fill:#FFFFFF;" d="M1309.256,2561.233c-181.571-2.57-330.848,142.54-333.418,324.111      c-2.57,181.572,142.54,330.848,324.111,333.418s330.848-142.539,333.418-324.111S1490.827,2563.803,1309.256,2561.233z       M1300.644,3169.655c-154.449-2.186-277.885-129.166-275.699-283.616c2.186-154.45,129.166-277.885,283.616-275.699      c154.45,2.186,277.885,129.166,275.699,283.616C1582.074,3048.406,1455.094,3171.841,1300.644,3169.655z"/>

				<g>
					<linearGradient id="SVGID_00000049184885796482993260000003556157157805348278_" gradientUnits="userSpaceOnUse" x1="1428.9713" y1="2361.6353" x2="956.6605" y2="4402.6919" gradientTransform="matrix(0.9999 0.0142 -0.0142 0.9999 25.105 41.9334)">
						<stop offset="0" style="stop-color:#00233f"/>
						<stop offset="1" style="stop-color:#00233f"/>
					</linearGradient>
					<path style="fill:url(#SVGID_00000049184885796482993260000003556157157805348278_);" d="M1309.414,2550.197       c-189.744-2.686-345.74,148.956-348.426,338.698c-2.686,189.744,148.956,345.74,338.7,348.426       c189.742,2.686,345.738-148.956,348.424-338.7C1650.797,2708.879,1499.156,2552.883,1309.414,2550.197z M1296.74,3185.825       c-163.362-2.312-293.919-136.618-291.607-299.98c2.312-163.362,136.618-293.919,299.98-291.606s293.921,136.618,291.609,299.98       C1594.41,3057.581,1460.102,3188.138,1296.74,3185.825z"/>

					<g>
						<g>
							<path style="fill:#BDD0FB;" d="M1607.135,2791.848c-2.438-0.034-4.644-1.691-5.265-4.166         c-3.114-12.427-7.149-24.769-11.992-36.692c-1.144-2.816,0.209-6.027,3.03-7.182c2.821-1.123,6.037,0.204,7.182,3.041         c5.036,12.389,9.231,25.219,12.478,38.142c0.739,2.961-1.053,5.95-4.009,6.694         C1608.083,2791.808,1607.603,2791.855,1607.135,2791.848z"/>
						</g>

						<g>
							<path style="fill:#BDD0FB;" d="M1560.414,2692.754c-1.674-0.024-3.31-0.801-4.377-2.259         c-55.831-76.258-146.879-122.607-243.554-123.975c-41.225-0.583-81.222,7.217-118.886,23.178         c-2.811,1.167-6.044-0.129-7.226-2.934c-1.188-2.795,0.123-6.039,2.923-7.227c39.083-16.556,80.581-24.647,123.345-24.042         c100.115,1.417,194.434,49.449,252.297,128.492c1.796,2.459,1.262,5.907-1.191,7.703         C1562.739,2692.421,1561.566,2692.77,1560.414,2692.754z"/>
						</g>
					</g>
				</g>

				<linearGradient id="SVGID_00000176006380171521466000000010166925879729470655_" gradientUnits="userSpaceOnUse" x1="1316.7833" y1="2877.3281" x2="1359.3805" y2="2833.8875" gradientTransform="matrix(0.9999 0.0142 -0.0142 0.9999 25.105 41.9334)">
					<stop offset="0" style="stop-color:#00233f"/>
					<stop offset="1" style="stop-color:#00233f"/>
				</linearGradient>
				<path style="fill:url(#SVGID_00000176006380171521466000000010166925879729470655_);" d="M1352.921,2916.687      c-0.238,16.799-14.049,30.225-30.848,29.987c-16.799-0.238-30.225-14.049-29.987-30.848      c0.238-16.799,14.049-30.225,30.848-29.987S1353.158,2899.888,1352.921,2916.687z"/>

				<linearGradient id="SVGID_00000136388577333264783290000017788982555457607579_" gradientUnits="userSpaceOnUse" x1="921.6879" y1="158.1564" x2="931.7935" y2="158.1564" gradientTransform="matrix(0.7086 0.7057 -0.7057 0.7086 884.8464 2036.4792)">
					<stop offset="0" style="stop-color:#00233f"/>
					<stop offset="1" style="stop-color:#00233f"/>
				</linearGradient>
				<path style="fill:url(#SVGID_00000136388577333264783290000017788982555457607579_);" d="M1511.937,2727.358      c1.969-1.977,1.963-5.176-0.015-7.145l0,0c-1.977-1.969-5.176-1.963-7.145,0.015l-156.866,157.514      c-1.969,1.977-1.962,5.176,0.015,7.145l0,0c1.977,1.969,5.176,1.962,7.145-0.015L1511.937,2727.358z"/>

				<linearGradient id="SVGID_00000110462127253792485680000005272596295635117237_" gradientUnits="userSpaceOnUse" x1="916.972" y1="350.7137" x2="927.0804" y2="350.7137" gradientTransform="matrix(0.7086 0.7057 -0.6616 0.6643 791.0736 2130.5237)">
					<stop offset="0" style="stop-color:#00233f"/>
					<stop offset="1" style="stop-color:#00233f"/>
				</linearGradient>
				<path style="fill:url(#SVGID_00000110462127253792485680000005272596295635117237_);" d="M1289.499,2943.908      c1.846-1.854,1.74-4.952-0.237-6.921l0,0c-1.977-1.969-5.077-2.063-6.922-0.209l-147.061,147.667      c-1.846,1.854-1.739,4.952,0.238,6.921l0,0c1.977,1.969,5.076,2.063,6.922,0.209L1289.499,2943.908z"/>

				<linearGradient id="SVGID_00000124163155612079329760000009195133620918991807_" gradientUnits="userSpaceOnUse" x1="-2154.6973" y1="-1158.8186" x2="-2144.5776" y2="-1158.8186" gradientTransform="matrix(-0.2749 0.9614 -0.9614 -0.2749 -551.7765 4623.915)">
					<stop offset="0" style="stop-color:#00233f"/>
					<stop offset="1" style="stop-color:#00233f"/>
				</linearGradient>
				<path style="fill:url(#SVGID_00000124163155612079329760000009195133620918991807_);" d="M1258.723,2911.235      c2.683,0.767,5.48-0.786,6.247-3.469l0,0c0.767-2.683-0.786-5.479-3.468-6.247l-213.731-61.128      c-2.683-0.767-5.48,0.786-6.247,3.469l0,0c-0.767,2.683,0.786,5.479,3.468,6.247L1258.723,2911.235z"/>

				<linearGradient id="SVGID_00000160871871741568377040000004121815817906747816_" gradientUnits="userSpaceOnUse" x1="-2152.207" y1="-1469.9519" x2="-2143.8762" y2="-1469.9519" gradientTransform="matrix(-0.2749 0.9614 -0.9614 -0.2749 -551.7765 4623.915)">
					<stop offset="0" style="stop-color:#00233f"/>
					<stop offset="1" style="stop-color:#00233f"/>
				</linearGradient>
				<path style="fill:url(#SVGID_00000160871871741568377040000004121815817906747816_);" d="M1538.767,2992.039      c2.209,0.632,4.511-0.647,5.143-2.855l0,0c0.632-2.208-0.647-4.511-2.855-5.143l-175.958-50.325      c-2.208-0.632-4.511,0.647-5.143,2.855l0,0c-0.631,2.208,0.647,4.511,2.855,5.143L1538.767,2992.039z"/>

				<linearGradient id="SVGID_00000070103712036511140570000009910147857344145340_" gradientUnits="userSpaceOnUse" x1="-4339.6157" y1="-298.7735" x2="-4331.2944" y2="-298.7735" gradientTransform="matrix(-0.8257 0.5641 -0.5641 -0.8257 -2503.3391 4982.4717)">
					<stop offset="0" style="stop-color:#00233f"/>
					<stop offset="1" style="stop-color:#00233f"/>
				</linearGradient>
				<path style="fill:url(#SVGID_00000070103712036511140570000009910147857344145340_);" d="M1293.168,2861.443      c1.296,1.897,3.884,2.384,5.78,1.088l0,0c1.897-1.296,2.384-3.884,1.088-5.781l-103.236-151.116      c-1.296-1.897-3.884-2.384-5.781-1.088l0,0c-1.897,1.295-2.384,3.884-1.088,5.781L1293.168,2861.443z"/>

				<linearGradient id="SVGID_00000084523013255023440300000004232054208861153434_" gradientUnits="userSpaceOnUse" x1="-4326.1743" y1="-585.9442" x2="-4317.853" y2="-585.9442" gradientTransform="matrix(-0.8257 0.5641 -0.5641 -0.8257 -2503.3391 4982.4717)">
					<stop offset="0" style="stop-color:#00233f"/>
					<stop offset="1" style="stop-color:#00233f"/>
				</linearGradient>
				<path style="fill:url(#SVGID_00000084523013255023440300000004232054208861153434_);" d="M1444.062,3106.142      c1.296,1.897,3.884,2.384,5.781,1.088l0,0c1.897-1.296,2.384-3.884,1.088-5.781l-103.236-151.116      c-1.296-1.897-3.884-2.384-5.781-1.088l0,0c-1.897,1.296-2.384,3.884-1.088,5.781L1444.062,3106.142z"/>

				<linearGradient id="SVGID_00000038407267902715708320000010685884696568106941_" gradientUnits="userSpaceOnUse" x1="-3592.9998" y1="4982.771" x2="-3584.6772" y2="4982.771" gradientTransform="matrix(-0.2407 -0.9706 0.9706 -0.2407 -4545.8105 674.6908)">
					<stop offset="0" style="stop-color:#00233f"/>
					<stop offset="1" style="stop-color:#00233f"/>
				</linearGradient>
				<path style="fill:url(#SVGID_00000038407267902715708320000010685884696568106941_);" d="M1064.483,2976.651      c-2.23,0.553-3.589,2.809-3.036,5.038l0,0c0.553,2.23,2.809,3.589,5.038,3.036l177.633-44.048      c2.23-0.553,3.589-2.809,3.036-5.038l0,0c-0.553-2.23-2.809-3.589-5.038-3.036L1064.483,2976.651z"/>

				<linearGradient id="SVGID_00000108998140411854000690000014801772458926594451_" gradientUnits="userSpaceOnUse" x1="-3586.2395" y1="5303.7378" x2="-3577.9172" y2="5303.7378" gradientTransform="matrix(-0.2407 -0.9706 0.9706 -0.2407 -4545.8105 674.6908)">
					<stop offset="0" style="stop-color:#00233f"/>
					<stop offset="1" style="stop-color:#00233f"/>
				</linearGradient>
				<path style="fill:url(#SVGID_00000108998140411854000690000014801772458926594451_);" d="M1374.386,2892.833      c-2.23,0.553-3.589,2.809-3.036,5.038l0,0c0.553,2.23,2.808,3.589,5.038,3.036l177.633-44.048      c2.229-0.553,3.589-2.809,3.036-5.038l0,0c-0.553-2.23-2.809-3.589-5.038-3.036L1374.386,2892.833z"/>

				<linearGradient id="SVGID_00000080904928752376118150000014460537933579741079_" gradientUnits="userSpaceOnUse" x1="-5335.8364" y1="1141.7004" x2="-5327.5171" y2="1141.7004" gradientTransform="matrix(-1 0.005 -0.005 -1 -3996.542 4217.707)">
					<stop offset="0" style="stop-color:#00233f"/>
					<stop offset="1" style="stop-color:#00233f"/>
				</linearGradient>
				<path style="fill:url(#SVGID_00000080904928752376118150000014460537933579741079_);" d="M1325.725,3140.875      c0.012,2.297,1.883,4.15,4.18,4.138l0,0c2.297-0.011,4.15-1.883,4.138-4.18l-0.916-183.01c-0.011-2.297-1.883-4.15-4.18-4.139      l0,0c-2.297,0.012-4.15,1.883-4.138,4.18L1325.725,3140.875z"/>

				<linearGradient id="SVGID_00000004532913141676947950000009818169202762278048_" gradientUnits="userSpaceOnUse" x1="-5341.7485" y1="1450.3257" x2="-5333.4292" y2="1450.3257" gradientTransform="matrix(-1 0.005 -0.005 -1 -3996.542 4217.707)">
					<stop offset="0" style="stop-color:#00233f"/>
					<stop offset="1" style="stop-color:#00233f"/>
				</linearGradient>
				<path style="fill:url(#SVGID_00000004532913141676947950000009818169202762278048_);" d="M1330.094,2832.219      c0.012,2.297,1.883,4.15,4.18,4.139l0,0c2.297-0.011,4.15-1.883,4.138-4.18l-0.916-183.01c-0.011-2.297-1.883-4.15-4.18-4.139      l0,0c-2.297,0.011-4.15,1.883-4.138,4.18L1330.094,2832.219z"/>
			</g>

			<linearGradient id="SVGID_00000050629345382602805270000014685002011330372799_" gradientUnits="userSpaceOnUse" x1="520.8811" y1="3899.4636" x2="2092.7817" y2="2268.2466">
				<stop offset="0" style="stop-color:#95c9b8"/>
				<stop offset="1" style="stop-color:#058259"/>
			</linearGradient>
			<path style="fill:url(#SVGID_00000050629345382602805270000014685002011330372799_);" d="M2246.331,2438.369     c-25.234,2.202-634.752,82.043-634.752,82.043l-9.588-82.043l-35.137,14.225l6.578,104.901c0,0-295.351,361.303-260.575,372.545     c34.777,11.242,389.463,88.822,421.636,57.028c32.173-31.793,512.158-517.228,512.158-517.228     C2247.538,2471.617,2248.023,2438.221,2246.331,2438.369z M1684.757,2956.17c-2.325,2.403-5.702,3.473-8.984,2.852     c-58.509-11.089-271.718-51.23-302.553-53.212c-31.024-1.99,166.06-245.799,219.2-310.822c2.409-2.945,6.28-4.262,9.981-3.386     s6.578,3.794,7.402,7.505l77.509,347.992C1688.038,2950.362,1687.082,2953.771,1684.757,2956.17z M2167.69,2494.21     c-16.337,15.058-414.756,443.219-431.485,429.729c-16.729-13.49-112.34-362.476-100.996-364.225     C1635.21,2559.713,2184.028,2479.151,2167.69,2494.21z"/>

			<linearGradient id="SVGID_00000122693057467940620420000002189938288743722151_" gradientUnits="userSpaceOnUse" x1="2125.5005" y1="1932.4597" x2="1628.7449" y2="2292.0508">
				<stop offset="0" style="stop-color:#00233f"/>
				<stop offset="1" style="stop-color:#00233f"/>
			</linearGradient>
			<path style="fill:url(#SVGID_00000122693057467940620420000002189938288743722151_);" d="M1672.104,2326.445     c-21.153-24.486-261.302-39.978-270.528-10.548c-9.226,29.431,21.303,55.905,69.632,59.021     c48.329,3.114,72.472,6.151,72.472,6.151l9.578,72.377c0.341,2.587,1.773,4.906,3.933,6.373c2.16,1.466,4.841,1.94,7.374,1.304     l42.093-10.597l-9.169-73.82C1597.489,2376.706,1693.256,2350.931,1672.104,2326.445z"/>

			<linearGradient id="SVGID_00000015320634309200886380000008498615164978388131_" gradientUnits="userSpaceOnUse" x1="1347.4415" y1="2861.1492" x2="1368.6025" y2="2861.1492" gradientTransform="matrix(0.9999 0.0142 -0.0142 0.9999 25.105 41.9334)">
				<stop offset="0" style="stop-color:#00233f"/>
				<stop offset="1" style="stop-color:#00233f"/>
			</linearGradient>
			<circle style="fill:url(#SVGID_00000015320634309200886380000008498615164978388131_);" cx="1342.363" cy="2922.08" r="10.581"/>

			<g>
				<g>
					<linearGradient id="SVGID_00000114778891881986871340000002376844398280715656_" gradientUnits="userSpaceOnUse" x1="1095.1802" y1="2604.8992" x2="1502.1583" y2="2778.8059" gradientTransform="matrix(0.9999 0.0142 -0.0142 0.9999 -57.6912 41.3474)">
						<stop offset="0" style="stop-color:#00233f"/>
						<stop offset="1" style="stop-color:#00233f"/>
					</linearGradient>
					<path style="fill:url(#SVGID_00000114778891881986871340000002376844398280715656_);" d="M1748.105,2922.37       c-0.094,0-0.189,0-0.283,0l-417.254-29.173c-2.963-0.189-5.194-3.498-5-6.466c0.199-2.958,2.791-5.835,5.724-5.374       l417.278,27.491c2.963,0.189,5.184,4.144,4.99,7.113C1753.368,2918.825,1750.944,2922.37,1748.105,2922.37z"/>
				</g>

				<g>
					<linearGradient id="SVGID_00000044137441718725662830000016535334275940253877_" gradientUnits="userSpaceOnUse" x1="2389.2781" y1="1743.1007" x2="2795.9197" y2="1916.8635" gradientTransform="matrix(0.9739 0.227 -0.227 0.9739 -909.2497 386.2283)">
						<stop offset="0" style="stop-color:#00233f"/>
						<stop offset="1" style="stop-color:#00233f"/>
					</linearGradient>
					<path style="fill:url(#SVGID_00000044137441718725662830000016535334275940253877_);" d="M1727.065,3060.67       c-0.092-0.021-0.184-0.043-0.276-0.064l-401.706-116.33c-2.855-0.816-4.459-3.968-3.636-6.827       c0.825-2.847,3.906-4.827,6.673-3.751l401.795,115.945c2.855,0.816,4.425,4.113,3.603,6.971       C1732.719,3059.37,1729.83,3061.315,1727.065,3060.67z"/>
				</g>
			</g>

			<linearGradient id="SVGID_00000018942029405633570060000009882828186484731832_" gradientUnits="userSpaceOnUse" x1="1653.7745" y1="2921.6338" x2="1829.6646" y2="2921.6338" gradientTransform="matrix(0.9999 0.0142 -0.0142 0.9999 25.105 41.9334)">
				<stop offset="0" style="stop-color:#00233f"/>
				<stop offset="1" style="stop-color:#00233f"/>
			</linearGradient>
			<circle style="fill:url(#SVGID_00000018942029405633570060000009882828186484731832_);" cx="1725.163" cy="2988.008" r="87.945"/>

			<linearGradient id="SVGID_00000065781812461824965850000013466240389762515096_" gradientUnits="userSpaceOnUse" x1="1640.4512" y1="3035.9995" x2="1740.9388" y2="2933.522" gradientTransform="matrix(0.9999 0.0142 -0.0142 0.9999 25.105 41.9334)">
				<stop offset="0" style="stop-color:#00233f"/>
				<stop offset="1" style="stop-color:#00233f"/>
			</linearGradient>
			<path style="fill:url(#SVGID_00000065781812461824965850000013466240389762515096_);" d="M1731.466,2988.648l-5.769-7.569     c-2.213-2.9-5.661-4.589-9.31-4.554c-3.648,0.035-7.067,1.79-9.221,4.733l-58.449,79.815l27.455,22.158l55.629-81.023     C1734.629,2998.088,1734.493,2992.622,1731.466,2988.648z"/>

			<linearGradient id="SVGID_00000096038340042202473460000005862188315099111090_" gradientUnits="userSpaceOnUse" x1="1763.1954" y1="3136.3782" x2="1891.8894" y2="3322.269" gradientTransform="matrix(0.9999 0.0142 -0.0142 0.9999 25.105 41.9334)">
				<stop offset="0" style="stop-color:#00233f"/>
				<stop offset="1" style="stop-color:#00233f"/>
			</linearGradient>
			<path style="fill:url(#SVGID_00000096038340042202473460000005862188315099111090_);" d="M1747.876,3123.079l-156.279-121.706     c-4.947-3.854-11.997-3.222-16.197,1.448l-7.959,8.858c-2.24,2.493-3.35,5.813-3.067,9.163c0.291,3.353,1.945,6.434,4.575,8.499     l159.551,125.432c3.006,2.36,6.944,3.14,10.612,2.098c3.668-1.045,6.625-3.785,7.967-7.383l4.689-12.581     C1753.622,3131.933,1752.042,3126.324,1747.876,3123.079z"/>

			<linearGradient id="SVGID_00000026144328744216339130000003422885934245813408_" gradientUnits="userSpaceOnUse" x1="1348.0333" y1="2797.792" x2="1315.9012" y2="3054.8494" gradientTransform="matrix(0.9999 0.0142 -0.0142 0.9999 25.105 41.9334)">
				<stop offset="0" style="stop-color:#00233f"/>
				<stop offset="1" style="stop-color:#00233f"/>
			</linearGradient>
			<circle style="fill:url(#SVGID_00000026144328744216339130000003422885934245813408_);" cx="1325.32" cy="2915.635" r="40.854"/>

			<linearGradient id="SVGID_00000127009157752444719640000014522386533710239110_" gradientUnits="userSpaceOnUse" x1="664.2064" y1="7001.8779" x2="2235.9929" y2="5370.7793" gradientTransform="matrix(0.7434 -0.3899 0.3858 0.7357 -1435.623 -541.8209)">
				<stop offset="0" style="stop-color:#95c9b8"/>
				<stop offset="1" style="stop-color:#058258"/>
			</linearGradient>
			<polygon style="fill:url(#SVGID_00000127009157752444719640000014522386533710239110_);" points="2511.853,2906.634     2480.099,2923.288 2086.958,2163.653 2117.011,2147.891    "/>

			<linearGradient id="SVGID_00000128484802804643849670000009405402987994474175_" gradientUnits="userSpaceOnUse" x1="1895.4043" y1="2490.5156" x2="1341.7795" y2="3301.1809">
				<stop offset="0" style="stop-color:#00233f"/>
				<stop offset="1" style="stop-color:#00233f"/>
			</linearGradient>
			<path style="fill:url(#SVGID_00000128484802804643849670000009405402987994474175_);" d="M2206.747,2080.857     c-4.228-3.342-8.899-6.116-13.882-8.179c-13.95-5.773-28.239-5.136-42.487-1.119c-14.405,4.061-29.383,5.925-43.868,10.656     c-8.773,2.866-17.567,6.292-24.683,12.169c-24.171,19.961-3.584,56.648,5.852,79.833c0.844,2.074,2.968,3.322,5.193,3.063     c0,0,38.227-2.442,38.46-2.428c4.223,0.256-9.263-16.888-9.721-18.658c-2.641-10.204-1.666-20.932,4.097-29.968     c11.025-17.281,48.872-5.311,63.058,2.456c10.877,5.955,26.648,18.781,36.81,3.797c4.309-6.354,3.675-14.872,1.433-22.214     C2223.475,2098.699,2216.227,2088.351,2206.747,2080.857z"/>

			<g>
				<linearGradient id="SVGID_00000154392267116883941520000010515448032077766279_" gradientUnits="userSpaceOnUse" x1="2023.34" y1="2688.2227" x2="2983.9475" y2="2531.4919">
					<stop offset="0" style="stop-color:#FEBBBA"/>
					<stop offset="1" style="stop-color:#FF928E"/>
				</linearGradient>
				<path style="fill:url(#SVGID_00000154392267116883941520000010515448032077766279_);" d="M1609.144,2424.577      c1.186-0.597,166.563,98.196,166.563,98.196s-33.126,32.292-52.407,86.62c-19.281,54.328-68.703,344.588-68.703,344.588      l-53.041,43.292c41.075,53.485,91.505,90.816,150.955,112.574l-64.701-134.073c0,0,198.779-362.367,177.442-463.235      l-121.627-156.117L1609.144,2424.577z"/>

				<linearGradient id="SVGID_00000142872376841705682790000008164824653116120241_" gradientUnits="userSpaceOnUse" x1="-6755.6816" y1="-309.2312" x2="-6792.0146" y2="247.8766" gradientTransform="matrix(-0.8361 -0.5486 -0.5486 0.8361 -3819.8611 -931.4706)">
					<stop offset="0" style="stop-color:#b8d1fe"/>
					<stop offset="1" style="stop-color:#b8d1fe"/>
				</linearGradient>
				<path style="fill:url(#SVGID_00000142872376841705682790000008164824653116120241_);" d="M1620.127,2983.158      c0,0-30.323,5.793-30.909,33.99c0,0,129.788,122.403,177.415,136.756c0,0,4.121-24.331-26.667-75.304l1.644,4.717      c2.081,5.97-4.777,11.061-9.857,7.297C1703.271,3069.512,1645.595,3023.913,1620.127,2983.158z"/>

				<linearGradient id="SVGID_00000061448655707951120450000010729964525478043069_" gradientUnits="userSpaceOnUse" x1="1787.7844" y1="2226.5583" x2="2248.449" y2="1880.4978">
					<stop offset="0" style="stop-color:#27537b"/>
					<stop offset="1" style="stop-color:#27537b"/>
				</linearGradient>
				<path style="fill:url(#SVGID_00000061448655707951120450000010729964525478043069_);" d="M1675.148,2252.577l0.007,0.001      l-54.819-87.976l36.591-41.188l-189.382-40.523c-9.819,17.757-23.284,51.817-37.742,90.316      c-8.062,15.433-17.227,36.398-21.736,58.612c-0.001,0.002-0.001,0.003-0.001,0.003l0,0.002      c-8.156,40.183-1.048,84.431,55.585,107.336c119.353,48.271,273.003,233.511,273.003,233.511      c50.335,8.517,100.494-11.424,150.393-36.443C1887.048,2536.227,1762.384,2337.616,1675.148,2252.577z"/>
			</g>
			<linearGradient id="SVGID_00000057847029261766389760000014562602042620551614_" gradientUnits="userSpaceOnUse" x1="1106.1265" y1="2401.3901" x2="1545.9843" y2="2001.979">
				<stop offset="0" style="stop-color:#b8d1fe"/>
				<stop offset="1" style="stop-color:#cddffe"/>
			</linearGradient>
			<path style="fill:url(#SVGID_00000057847029261766389760000014562602042620551614_);" d="M1620.336,2164.602     c0,0,126.306-141.35,172.838-199.259c25.153-31.303,33.5-72.863,22.62-111.517c-19.871-70.593-55.922-143.926-59.143-155.306     c-4.937-17.443-109.052-18.193-109.052-18.193c-36.326,16.951-192.857,402.564-208.13,467.481     C1492.065,2171.524,1551.433,2179.289,1620.336,2164.602z"/>

			<linearGradient id="SVGID_00000035506245053233809670000002064780039828333202_" gradientUnits="userSpaceOnUse" x1="1904.0912" y1="1224.3511" x2="1684.1234" y2="1713.7168">
				<stop offset="0" style="stop-color:#ffbe96"/>
				<stop offset="1" style="stop-color:#ffab77"/>
			</linearGradient>
			<path style="fill:url(#SVGID_00000035506245053233809670000002064780039828333202_);" d="M1775.965,1604.468     c-1.282,3.547-33.313,92.023-35.537,93.775c-2.224,1.751-66.672,6.141-92.678-13.79l57.942-97.86L1775.965,1604.468z"/>

			<linearGradient id="SVGID_00000067199272996394284750000006631863134176583088_" gradientUnits="userSpaceOnUse" x1="1938.3322" y1="2519.8328" x2="1384.7096" y2="3330.4949">
				<stop offset="0" style="stop-color:#00233f"/>
				<stop offset="1" style="stop-color:#00233f"/>
			</linearGradient>
			<path style="fill:url(#SVGID_00000067199272996394284750000006631863134176583088_);" d="M2155.425,2157.808l-24.093,36.604     c3.9,12.786,14.82,21.444,38.185,17.23c9.518-1.717,17.323-8.561,20.227-17.787l21.451-46.195L2155.425,2157.808z"/>

			<g>
				<linearGradient id="SVGID_00000171705366277641273600000005456316235875733421_" gradientUnits="userSpaceOnUse" x1="1979.2401" y1="1919.9091" x2="2171.3623" y2="1308.1526">
					<stop offset="0" style="stop-color:#FEBBBA"/>
					<stop offset="1" style="stop-color:#FF928E"/>
				</linearGradient>
				<path style="fill:url(#SVGID_00000171705366277641273600000005456316235875733421_);" d="M2172.666,2077.356l-90.167,36.596      c0,0-89.413,12.56-140.281-1.986c-50.867-14.546-50.867-14.546-50.867-14.546l-60.46-19.765l-98.781-136.988l-99.67,58.966      l126.763,131.725c2.013,2.717,33.225,30.452,33.225,30.452c1.764,1.401,379.506,3.872,379.506,3.872l56.5-21.816      c3.822-1.476,4.853-6.401,1.944-9.286L2172.666,2077.356z"/>

				<linearGradient id="SVGID_00000025421333340853281780000011533154905113886359_" gradientUnits="userSpaceOnUse" x1="1397.7006" y1="2835.2302" x2="1741.4962" y2="1662.277">
					<stop offset="0" style="stop-color:#b8d1fe"/>
					<stop offset="1" style="stop-color:#b8d1fe"/>
				</linearGradient>
				<path style="fill:url(#SVGID_00000025421333340853281780000011533154905113886359_);" d="M1571.729,1906.312      c57.981,102.566,38.475,72.277,97.15,142.163l97.421-76.691c-53.564-88.59-36.824-69.488-63.693-156.698      c-3.119-10.123-10.798-18.353-20.839-21.726c-64.309-21.602-113.56,20.556-115.947,89.201      C1565.532,1890.856,1567.645,1899.087,1571.729,1906.312z"/>
			</g>

			<linearGradient id="SVGID_00000181777734106307061200000012754112734186608527_" gradientUnits="userSpaceOnUse" x1="2499.585" y1="2776.4946" x2="2467.4529" y2="3033.5522" gradientTransform="matrix(0.9999 0.0142 -0.0142 0.9999 25.105 41.9334)">
				<stop offset="0" style="stop-color:#00233f"/>
				<stop offset="1" style="stop-color:#00233f"/>
			</linearGradient>
			<circle style="fill:url(#SVGID_00000181777734106307061200000012754112734186608527_);" cx="2477.059" cy="2910.692" r="40.854"/>

			<g>
				<linearGradient id="SVGID_00000101085973802895123590000014201448120640700069_" gradientUnits="userSpaceOnUse" x1="-6886.1138" y1="-255.8024" x2="-6647.8784" y2="-93.9823" gradientTransform="matrix(-0.9224 -0.3862 -0.3862 0.9224 -4573.417 -883.0553)">
					<stop offset="0" style="stop-color:#ffab77"/>
					<stop offset="1" style="stop-color:#ffbe96"/>
				</linearGradient>
				<path style="fill:url(#SVGID_00000101085973802895123590000014201448120640700069_);" d="M1827.108,1456.208      c0,0,37.253,38.053,40.648,116.325c3.394,78.272-32.223,98.845-62.821,90.907s-73.496-26.638-101.468-87.993      C1675.496,1514.093,1777.764,1408.932,1827.108,1456.208z"/>

				<linearGradient id="SVGID_00000142885312799212918170000014338679374471108538_" gradientUnits="userSpaceOnUse" x1="1871.3545" y1="1347.0465" x2="1305.37" y2="1984.7051">
					<stop offset="0" style="stop-color:#00233f"/>
					<stop offset="1" style="stop-color:#00233f"/>
				</linearGradient>
				<path style="fill:url(#SVGID_00000142885312799212918170000014338679374471108538_);" d="M1748.773,1553.385      c0,0,5.91-109.963,91.203-75.585l14.119,22.306c0,0,41.856-35.409,1.376-82.113c-40.481-46.704-114.667-60.673-165.214-0.955      c-50.547,59.718-56.427,109.483-34.046,157.548c22.381,48.065,52.914,16.971,52.914,16.971s-6.802-39.04,8.113-52.16      c14.914-13.12,25.082,14.506,25.082,14.506L1748.773,1553.385z"/>
			</g>
		</g>
	</g>
</g>
</svg>