<svg xmlns="http://www.w3.org/2000/svg" xmlns:xlink="http://www.w3.org/1999/xlink" version="1.1" x="0px" y="0px" xml:space="preserve" viewBox="91.97 57.47 280.72 388.6" height="600" width="600">
<g id="Shadow">
	<path id="Shadow_34_" style="fill:#263238;" d="M365.574,442.034c-19.467,11.239-72.62-1.811-118.718-29.149l-89.743-53.219   c-46.099-27.337-68.468-58.16-49.963-68.844c18.505-10.684,71.133,2.378,117.547,29.176l92.085,53.165   C363.197,399.96,385.042,430.795,365.574,442.034z"/>
</g>
<g id="Character">
	<g id="Character_00000150092493167199600380000012115021148444982955_">
		<g id="Scooter_1_">
			<g id="XMLID_00000067923184099817320480000009666366405426196914_">
				<g id="XMLID_3241_">
					<path style="fill:#455A64;" d="M154.785,323.079c-2.242,0-4.458-0.277-6.597-0.823l-0.574-0.159       c-2.298-0.626-4.67-1.64-7.052-3.015c-15.311-8.84-27.767-30.415-27.767-48.095c0-3.189,0.407-6.101,1.209-8.653       c3.624-11.848,16.557-21.126,29.443-21.126c2.218,0,4.411,0.272,6.528,0.809l0.615,0.169c2.302,0.624,4.68,1.638,7.067,3.016       c15.311,8.832,27.768,30.407,27.768,48.094c0,3.217-0.413,6.15-1.229,8.718l-0.229,0.723       C180.057,314.202,167.401,323.079,154.785,323.079z"/>
					<path style="fill:#37474F;" d="M143.447,241.708c2.136,0,4.248,0.257,6.289,0.765l0.722,0.196       c2.261,0.613,4.599,1.611,6.949,2.967c15.173,8.752,27.517,30.133,27.517,47.661c0,3.166-0.406,6.048-1.206,8.567l-0.21,0.664       c-3.822,11.296-16.291,20.052-28.724,20.052c-2.153,0-4.282-0.26-6.339-0.774l-0.701-0.191       c-2.256-0.614-4.589-1.612-6.933-2.966c-15.173-8.76-27.517-30.141-27.517-47.661c0-3.139,0.399-6,1.188-8.51       C118.045,250.831,130.768,241.708,143.447,241.708 M143.447,240.708c-13.552,0-26.376,9.89-29.921,21.476l0.001,0       c-0.8,2.546-1.232,5.492-1.232,8.803c0,17.867,12.543,39.594,28.017,48.527c2.48,1.432,4.882,2.441,7.171,3.065l-0.006,0.003       c2.427,0.68,4.879,0.996,7.308,0.996c13.542,0,26.35-9.837,29.892-21.415l-0.005,0.002c0.813-2.561,1.252-5.529,1.252-8.869       c0-17.875-12.543-39.602-28.017-48.528c-2.485-1.434-4.892-2.443-7.187-3.065l0.006-0.003       C148.309,241.024,145.866,240.708,143.447,240.708L143.447,240.708z"/>
				</g>
				<path id="XMLID_3240_" style="fill:#37474F;" d="M140.312,319.515c-15.474-8.934-28.017-30.66-28.017-48.527      s12.544-25.116,28.018-16.19c15.474,8.926,28.017,30.652,28.017,48.527C168.329,321.2,155.785,328.448,140.312,319.515z"/>
				<path id="XMLID_3239_" style="fill:#F5F5F5;" d="M152.821,317.937c9.467-0.001,10.203-11.258,10.203-14.709      c0-15.883-11.614-36.001-25.362-43.931c-3.529-2.035-6.936-3.111-9.854-3.111c-9.471,0-10.207,11.255-10.207,14.705      c0,15.875,11.615,35.994,25.364,43.932c3.529,2.037,6.937,3.114,9.854,3.114H152.821z"/>
				<g id="XMLID_3238_">
					<path style="fill:#E0E0E0;" d="M141.994,307.618c-10.105-5.833-18.642-20.618-18.642-32.285c0-2.615,0.569-11.152,7.89-11.152       c2.199,0,4.755,0.803,7.39,2.321c10.104,5.829,18.639,20.614,18.639,32.285c0,2.617-0.569,11.154-7.887,11.155h-0.001       C147.181,309.943,144.626,309.138,141.994,307.618z M124.325,275.334c0,11.363,8.314,25.762,18.154,31.443       c2.485,1.435,4.873,2.193,6.906,2.193c6.416-0.001,6.914-7.795,6.914-10.183c0-11.368-8.312-25.766-18.151-31.443       c-2.488-1.434-4.876-2.19-6.906-2.19C124.823,265.154,124.325,272.946,124.325,275.334z"/>
				</g>
				<path id="XMLID_3237_" style="fill:#455A64;" d="M140.312,274.619c-5.951-3.436-10.776-0.65-10.776,6.221      c0,6.872,4.824,15.229,10.776,18.665c5.951,3.436,10.776,0.65,10.776-6.221C151.088,286.411,146.263,278.055,140.312,274.619z"/>
				<path id="XMLID_00000071539220301826937970000012457094622649183391_" style="fill:#37474F;" d="M140.312,282.799      c-2.039-1.177-3.691-0.223-3.691,2.131c0,2.354,1.653,5.217,3.691,6.394c2.039,1.177,3.692,0.223,3.692-2.131      C144.004,286.839,142.351,283.976,140.312,282.799z"/>
			</g>
			<g id="XMLID_3232_">
				<path id="XMLID_3234_" style="fill:#234b6f;" d="M171.803,315.252l47.414-27.375c0,0,41.42,40.515,61.129,34.388      c0,0,5.003,52.501-18.273,57.015c-23.276,4.514-53.753-23.976-64.916-35.488C185.994,332.28,171.803,315.252,171.803,315.252z"/>
				<path id="XMLID_3233_" style="opacity:0.4;" d="M171.803,315.252l47.414-27.375c0,0,41.42,40.515,61.129,34.388      c0,0,5.003,52.501-18.273,57.015c-23.276,4.514-53.753-23.976-64.916-35.488C185.994,332.28,171.803,315.252,171.803,315.252z"/>
			</g>
			<g id="XMLID_00000096751742744418811150000005330458517305672592_">
				<path id="XMLID_00000158018200763299593080000005354028635012554133_" style="fill:#234b6f;" d="M122.77,231.02      c4.511-2.65,21.608-12.476,26.067-15.051c9.22-5.325,21.075-6.086,31.612-0.002l26.386,14.989      c11.355,6.556,33.818,19.311,35.306,32.337c1.938,16.97-12.666,42.561,2.939,59.425l-25.862,14.931l-112.07-69.68l0.026-9.631v0      C107.174,246.263,113.66,236.371,122.77,231.02z"/>
				<path id="XMLID_00000111870919836308929670000000043039718302488710_" style="opacity:0.2;" d="M215.242,292.993      c1.401-8.084,6.797-18.095,13.902-22.198l0.131-0.075c7.105-4.102,13.229-0.742,11.828,7.342      c-2.597,14.986-7.549,32.201,3.976,44.655l-25.862,14.931C207.693,325.194,212.645,307.98,215.242,292.993z"/>
				<path id="XMLID_3204_" style="opacity:0.1;" d="M154.611,230.911l26.363,14.971c11.354,6.555,33.817,19.315,35.305,32.342      c1.938,16.97-12.666,42.561,2.939,59.426l-112.07-69.68l0.025-9.631C107.2,234.008,133.54,218.747,154.611,230.911z"/>
			</g>
			<g id="XMLID_3197_">
				<g id="XMLID_00000171701746394828879070000009556722912782180542_">
					<path id="XMLID_00000103257047212426315910000010792052405357989765_" style="fill:#234b6f;" d="M122.467,233.648       c7.651-4.33,18.147-5.494,32.143,1.903c0.318,0.159,0.647,0.329,0.966,0.509c0.35,0.191,0.711,0.393,1.072,0.594       c19.111,11.025,34.603,37.85,34.603,59.933c0,0.408-0.009,0.828-0.026,1.256c-0.191,4.783-2.853,9.128-7,11.52l0,0       c-4.334,2.499-9.672,2.498-14.004-0.003l-15.346-8.861l-44.695-25.807v0l-18.209-10.516c0,0,4.785-15.63,17.249-22.887       C111.298,240.079,120.077,235,122.467,233.648z"/>
				</g>
				<path id="XMLID_00000145737049583391463670000001343646637699313847_" style="fill:#234b6f;" d="M177.678,311.205      c-1.963,0.064-3.947-0.276-5.794-1.029c3.99,1.645,8.553,1.38,12.341-0.817c4.149-2.388,6.813-6.727,7.004-11.513      c0.011-0.435,0.021-0.849,0.021-1.263c0-12.299-4.818-26.083-12.383-37.776l-12.935,7.471      c7.566,11.704,12.373,25.478,12.373,37.776C178.304,306.621,178.081,309.009,177.678,311.205z"/>
				<path id="XMLID_00000165929732194418360670000016806068262389968038_" style="opacity:0.1;" d="M91.983,264.138      c0.001-0.005,0.004-0.014,0.006-0.02c0.007-0.023,0.018-0.057,0.031-0.095c0.005-0.014,0.01-0.031,0.016-0.047      c0.014-0.044,0.032-0.097,0.051-0.155c0.006-0.018,0.011-0.034,0.018-0.053c0.057-0.167,0.131-0.381,0.226-0.641      c0.002-0.005,0.004-0.011,0.006-0.016c0.045-0.122,0.094-0.255,0.147-0.396c0.008-0.02,0.016-0.042,0.024-0.062      c0.053-0.139,0.109-0.287,0.17-0.442c0.005-0.014,0.011-0.027,0.016-0.041c0.206-0.525,0.458-1.138,0.759-1.82      c0.007-0.015,0.014-0.031,0.02-0.046c0.096-0.217,0.197-0.441,0.303-0.672c0.005-0.011,0.01-0.022,0.015-0.034      c0.339-0.738,0.728-1.539,1.17-2.385c0,0,0.001-0.002,0.001-0.002c0.146-0.281,0.299-0.566,0.457-0.857      c0.003-0.005,0.005-0.009,0.008-0.014c0.639-1.17,1.373-2.407,2.209-3.666c0.001-0.002,0.003-0.004,0.004-0.006      c0.837-1.261,1.775-2.543,2.821-3.8c0.001-0.001,0.001-0.002,0.002-0.003c1.045-1.256,2.197-2.487,3.462-3.647      c0.004-0.003,0.007-0.007,0.011-0.01c1.262-1.156,2.637-2.24,4.129-3.207c0.008-0.005,0.017-0.011,0.025-0.016      c0.361-0.233,0.729-0.46,1.105-0.679c0.045-0.027,0.09-0.053,0.135-0.079c0.091-0.053,0.188-0.109,0.299-0.174      c7.642-4.279,18.106-5.396,32.035,1.966c0.318,0.159,0.647,0.329,0.966,0.509c0.35,0.191,0.711,0.393,1.072,0.594      c19.111,11.025,34.603,37.85,34.603,59.933c0,2.567-0.221,4.951-0.628,7.154c-2.568,0.083-5.153-0.519-7.455-1.848      l-15.346-8.861l-44.695-25.807v0l-18.209-10.516C91.971,264.176,91.976,264.159,91.983,264.138z"/>
				<path id="XMLID_3198_" style="opacity:0.25;fill:#FFFFFF;" d="M109.755,240.99c7.629-4.223,18.05-5.295,31.908,2.027      c0.318,0.159,0.647,0.329,0.966,0.509c0.35,0.191,0.711,0.393,1.072,0.594c8.468,4.881,16.225,12.861,22.231,22.156      l12.935-7.471c-5.995-9.295-13.752-17.275-22.22-22.156c-0.361-0.202-0.722-0.403-1.072-0.594      c-0.318-0.18-0.647-0.35-0.965-0.509c-13.996-7.396-24.491-6.229-32.142-1.9C120.25,234.91,112.482,239.388,109.755,240.99z"/>
			</g>
			<g id="XMLID_2998_">
				<g id="XMLID_3036_">
					<path id="XMLID_3196_" style="fill:#37474F;" d="M249.39,252.873v-1.865c0-1.465-0.981-3.322-2.191-4.148l-43.031-29.361       c-1.21-0.826-3.22-0.901-4.489-0.169l-29.888,17.255c-1.269,0.733-2.298,2.514-2.298,3.979l-0.001,6.842       c0,1.465,1.028,3.247,2.297,3.979l42.819,24.722c1.269,0.732,3.326,0.732,4.595,0l29.889-17.256       C248.361,256.119,249.39,254.338,249.39,252.873z"/>
					<path id="XMLID_3098_" style="fill:#455A64;" d="M247.093,249.681l-29.889,17.255c-1.269,0.733-3.278,0.657-4.489-0.169       l-43.03-29.361c-1.21-0.826-1.163-2.089,0.106-2.822l29.888-17.255c1.269-0.733,3.279-0.657,4.489,0.169l43.031,29.361       C248.409,247.685,248.361,248.949,247.093,249.681z"/>
					<path id="XMLID_3044_" style="fill:#263238;" d="M214.906,267.422v7.237c0.828,0,1.666-0.18,2.303-0.552l29.881-17.254       c1.274-0.732,2.303-2.515,2.303-3.979v-1.868c0-1.369-0.87-3.088-1.973-3.979c0.976,0.828,0.859,1.973-0.329,2.653       l-29.881,17.254C216.561,267.305,215.734,267.464,214.906,267.422z"/>
				</g>
			</g>
			<path id="XMLID_2997_" style="fill:#234b6f;" d="M171.803,315.252c0,0,39.124,38.052,66.237,54.386l-0.027,10.087     c-29.706-15.959-66.21-59.496-66.21-59.496L171.803,315.252z"/>
		</g>
		<g id="Bottom_00000146474259445463653900000007336393943268041376_">
			<g>
				<g>
					<g>
						<g>
							<path id="XMLID_00000023252471572528655930000015509528901675468960_" style="fill:#455A64;" d="M243.491,331.116         c0.045,0.254,0.097,0.507,0.156,0.759c0.32,1.374,0.9,1.955,1.843,2.961c1.595,1.702,3.288,3.264,4.945,4.908         c1.727,1.713,3.571,3.302,5.45,4.844c1.63,1.338,3.229,2.663,4.815,4.041c1.199,1.042,2.408,2.25,3.052,3.73         c0.913,2.099,0.034,4.02-1.329,5.671c-2.038,2.468-9.239,3.196-15.355,2.187c-5.169-0.853-10.542-4.096-13.762-7.706         c-3.112-3.488-5.379-5.691-8.701-7.606c-2.033-1.172-4.197-2.101-6.235-3.265c-2.115-1.207-4.823-2.561-4.374-5.397         c0.272-1.715,0.557-3.457,1.186-5.077c0.514-1.324,1.232-3.176,1.842-4.497c0.788-1.706,1.261-3.441,1.578-5.294         c0.27-1.574-0.087-2.763,0.375-4.292c0.08-0.264,0.175-0.533,0.364-0.735c0.245-0.263,0.609-0.373,0.96-0.45         c1.283-0.281,2.612-0.262,3.924-0.191c2.93,0.16,5.894,0.332,8.795,0.637c2.242,0.235,4.486,0.573,6.65,1.22         c1.332,0.398,3.961,0.437,4.307,2.102c0.358,1.723-0.453,4.191-0.598,5.949C243.228,327.444,243.168,329.302,243.491,331.116         z"/>
						</g>
					</g>
				</g>
				<path style="fill:#263238;" d="M213.116,341.487c-0.096-0.337-0.132-0.698-0.09-1.091c0.094-0.885,0.292-1.755,0.489-2.624      c0.173-0.762,0.452-1.665,0.625-2.427c-0.087,0.988,0.368,1.785,0.784,2.388c0.44,0.637,1.262,1.36,1.767,1.718      c1.219,0.863,1.805,0.998,3.098,1.61c2.616,1.239,5.383,2.193,7.829,3.766c4.094,2.634,6.954,6.818,10.846,9.744      c1.901,1.429,4.038,2.544,6.298,3.287c1.658,0.545,3.404,0.891,5.145,0.773c1.133-0.077,2.261-0.358,3.274-0.877      c1.069-0.547,1.993-1.422,2.936-2.153c0.962-0.746,2.151-1.023,3.319-1.272c0.93-0.199,1.859-0.397,2.789-0.596      c0.259-0.055,0.531-0.11,0.784-0.033c0.601,0.183,0.91,0.974,0.987,1.544c0.065,0.483,0.014,0.973-0.053,1.456      c-0.138,1.003-0.353,2.029-0.925,2.864c-0.595,0.868-1.517,1.445-2.413,1.998c-1.735,1.07-3.618,1.423-5.621,1.673      c-1.983,0.247-3.99,0.302-5.983,0.155c-3.95-0.291-7.862-1.384-11.299-3.372c-0.806-0.466-1.585-0.981-2.328-1.542      c-4.27-3.222-7.406-7.903-12.098-10.472c-2.855-1.563-6.207-2.294-8.658-4.436C213.932,342.967,213.349,342.3,213.116,341.487z"/>
			</g>
			<g>
				<g>
					<g>
						<g>
							<path id="XMLID_00000107546462016849499780000016227982952258141569_" style="fill:#455A64;" d="M276.139,308.937         c0.433,1.343,3.388,3.381,4.606,4.389c1.797,1.487,3.673,2.823,5.524,4.245c1.928,1.481,3.958,2.826,6.016,4.119         c1.785,1.122,3.539,2.235,5.286,3.402c1.321,0.883,2.673,1.928,3.498,3.315c1.171,1.967,0.54,3.984-0.604,5.793         c-1.711,2.706-8.763,4.335-14.957,4.105c-5.236-0.195-10.974-2.735-14.624-5.91c-3.527-3.068-6.054-4.968-9.59-6.449         c-2.164-0.906-4.428-1.556-6.597-2.453c-2.25-0.931-5.108-1.933-5.019-4.802c0.054-1.736,0.117-3.5,0.537-5.187         c0.446-1.79,1.694-4.974,2.103-6.774c1.339-5.891,0.476-10.669,1.099-16.661c0.031-0.296,0.081-0.626,0.318-0.806         c0.207-0.158,0.493-0.149,0.753-0.132c6.258,0.411,12.418,1.516,18.578,2.617c1.404,0.251,2.857,0.417,4.217,0.858         c0.254,0.082,0.521,0.184,0.681,0.398c0.189,0.254,0.182,0.6,0.155,0.915c-0.059,0.694-0.171,1.383-0.284,2.07         c-0.36,2.205-0.646,4.441-1.074,6.631C276.356,304.693,275.457,306.817,276.139,308.937z"/>
						</g>
					</g>
				</g>
				<path style="fill:#263238;" d="M249.468,324.003c-0.138-0.322-0.219-0.676-0.227-1.071c-0.018-0.89,0.068-1.778,0.154-2.664      c0.076-0.778,0.239-1.708,0.314-2.487c0.038,0.991,0.59,1.724,1.079,2.27c0.517,0.577,1.423,1.19,1.969,1.481      c1.318,0.703,1.917,0.763,3.276,1.207c2.751,0.899,5.617,1.497,8.242,2.75c4.394,2.097,7.758,5.888,11.987,8.299      c2.066,1.178,4.326,2.015,6.662,2.467c1.713,0.331,3.489,0.455,5.201,0.119c1.114-0.219,2.198-0.641,3.137-1.283      c0.992-0.677,1.798-1.662,2.642-2.506c0.861-0.861,2.005-1.286,3.133-1.68c0.897-0.314,1.794-0.628,2.691-0.943      c0.25-0.087,0.513-0.176,0.773-0.132c0.619,0.106,1.026,0.852,1.174,1.407c0.125,0.471,0.136,0.964,0.131,1.451      c-0.01,1.013-0.094,2.057-0.557,2.958c-0.481,0.936-1.323,1.625-2.142,2.286c-1.586,1.28-3.409,1.868-5.365,2.368      c-1.936,0.495-3.92,0.803-5.916,0.908c-3.955,0.209-7.973-0.382-11.634-1.922c-0.858-0.361-1.695-0.773-2.504-1.236      c-4.642-2.658-8.343-6.907-13.321-8.864c-3.029-1.191-6.447-1.493-9.148-3.31C250.463,325.369,249.801,324.78,249.468,324.003z"/>
			</g>
			<g>
				<path style="fill:#37474F;" d="M284.249,253.812c0.885-6.353,1.532-14.201-10.39-24.78      c-13.991-12.415-31.481-27.094-31.481-27.094h-72.324c0,0-0.486,13.328,0.892,19.43c1.721,7.625,5.058,15.018,15.195,22.462      c19.324,14.188,36.57,25.327,36.57,25.327c-2.908,10.246-3.382,13.61-4.11,26.86c-0.677,12.336-0.94,17.258-0.94,27.944      c1.372,2.411,6.488,5.821,10.252,6.911c6.189,1.791,11.474,0.933,15.347-1.356c2.857-15.274,9.548-42.213,9.548-42.213      s-0.47,15.846-0.771,19.428c1.372,2.411,6.891,4.101,11.989,4.703c5.099,0.601,9.978-1.28,12.339-3.213      c0,0,2.749-19.935,4.695-32.331C282.406,267.318,283.292,260.683,284.249,253.812z"/>
				<path style="fill:#263238;" d="M244.048,215.265c0.721,6.126-6.24,11.908-6.24,11.908s10.913,12.268,15.065,16.901      c4.75,5.301,7.291,9.923,7.332,15.543c0.071,9.708-3.46,15.857-7.396,27.685c3.169-14.445,6.279-23.641,3.596-30.992      c-1.476-4.045-3.384-7.32-9.923-14.046c-7.127-7.331-15.175-15.889-15.175-15.889S239.296,224.768,244.048,215.265z"/>
			</g>
		</g>
		<g>
			<g id="XMLID_2864_">
				<path id="XMLID_2996_" style="fill:#234b6f;" d="M238.041,369.638c3.956,2.383,7.779,4.232,11.349,5.34      c8.985,2.788,25.862-6.379,25.862-46.018c0-22.849-4.296-42.929-7.936-55.84c-2.385-8.461,1.176-18.668,8.789-23.063      c6.242-3.604,13.605-7.855,19.847-11.459c7.613-4.395,17.921-2.118,21.816,5.763c7.063,14.29,16.171,39.188,15.789,72.069      c-0.316,27.192-9.114,37.681-15.202,43.617c-7.164,6.986-34.932,26.344-63.775,24.886c-5.344-0.27-10.938-2.182-16.567-5.207"/>
				<path id="XMLID_2995_" style="opacity:0.2;" d="M281.596,360.046c6.892-14.067,10.897-24.886,28.139-34.84      c13.231-7.639,20.753-3.183,22.071,9.143c-2.93,14.376-8.934,21.293-13.451,25.697c-7.164,6.985-34.932,26.344-63.775,24.886      C266.631,384.932,274.705,374.112,281.596,360.046z"/>
				<path id="XMLID_2994_" style="opacity:0.2;" d="M295.391,305.819c0.146,1.458,1.263,3.237,2.532,3.969l4.026,2.325      c1.269,0.733,2.891,0.298,3.624-0.971l5.968-10.337c0.733-1.269,1.225-3.482,1.064-4.938      c-0.973-8.782-4.956-37.555-16.979-57.048l-17.24,9.917C278.385,248.736,292.378,275.615,295.391,305.819z"/>
				<path id="XMLID_2993_" style="fill:#234b6f;" d="M296.569,305.143c0.145,1.458,1.263,3.237,2.532,3.969l4.026,2.324      c1.269,0.733,2.891,0.298,3.624-0.971l5.968-10.337c0.732-1.269,1.225-3.482,1.063-4.938      c-0.973-8.782-4.956-37.555-16.979-57.048l-17.24,9.917C279.563,248.059,293.556,274.938,296.569,305.143z"/>
				<path id="XMLID_2992_" style="opacity:0.2;fill:#FFFFFF;" d="M296.569,305.143c0.145,1.458,1.263,3.237,2.532,3.969l4.026,2.324      c1.269,0.733,2.891,0.298,3.624-0.971l5.968-10.337c0.732-1.269,1.225-3.482,1.063-4.938      c-0.973-8.782-4.956-37.555-16.979-57.048l-17.24,9.917C279.563,248.059,293.556,274.938,296.569,305.143z"/>
				<g id="XMLID_2987_">
					<g id="XMLID_2991_">
						<path style="fill:#455A64;" d="M299.034,297.03c0.083,0,0.167-0.021,0.242-0.065l10.7-6.178        c0.233-0.134,0.312-0.431,0.178-0.663c-0.135-0.233-0.436-0.314-0.663-0.178l-10.7,6.178        c-0.233,0.134-0.312,0.431-0.178,0.663C298.704,296.942,298.866,297.03,299.034,297.03z"/>
					</g>
					<g id="XMLID_2990_">
						<path style="fill:#455A64;" d="M299.755,300.356c0.083,0,0.167-0.021,0.242-0.065l9.631-5.561        c0.233-0.134,0.312-0.431,0.178-0.663c-0.135-0.234-0.436-0.312-0.663-0.178l-9.631,5.561        c-0.233,0.134-0.312,0.431-0.178,0.663C299.425,300.268,299.587,300.356,299.755,300.356z"/>
					</g>
					<g id="XMLID_2989_">
						<path style="fill:#455A64;" d="M300.476,303.681c0.083,0,0.167-0.021,0.242-0.065l8.562-4.943        c0.233-0.134,0.312-0.431,0.178-0.663c-0.135-0.233-0.436-0.314-0.663-0.178l-8.562,4.943        c-0.233,0.134-0.312,0.431-0.178,0.663C300.146,303.593,300.308,303.681,300.476,303.681z"/>
					</g>
					<g id="XMLID_2988_">
						<path style="fill:#455A64;" d="M301.199,307.006c0.083,0,0.166-0.021,0.242-0.065l7.49-4.324        c0.233-0.134,0.312-0.431,0.178-0.663c-0.135-0.233-0.433-0.312-0.663-0.178l-7.49,4.324        c-0.233,0.134-0.312,0.431-0.178,0.663C300.869,306.918,301.031,307.006,301.199,307.006z"/>
					</g>
				</g>
				<path id="XMLID_2986_" style="fill:#FAFAFA;" d="M286.612,308.69l-3.989,2.305c-1.269,0.733-2.319,2.515-2.276,3.98      c0.052,1.762,0.194,4.181,0.56,6.555c0.713,4.626,4.533,8.149,9.201,8.489c0.043,0.003,0.086,0.006,0.128,0.009      c1.194,0.087,2.31-0.947,2.045-2.115c-1.057-4.658-2.305-10.469-3.112-17.91C289.012,308.546,287.881,307.957,286.612,308.69z"/>
				<path id="XMLID_2985_" style="fill:#FAFAFA;" d="M320.682,289.004l2.871-1.658c1.269-0.733,2.624-0.184,2.957,1.243      c0.564,2.412,1.286,6.107,1.288,9.242c0.006,6.383-2.136,10.638-3.554,12.149c-1.418,1.511-3.851,2.578-3.823,0.718      c0.063-4.18-0.006-9.344-1.536-17.763C318.622,291.494,319.413,289.737,320.682,289.004z"/>
				<path id="XMLID_2873_" style="fill:#234b6f;" d="M246.676,373.45c-2.706-0.838-5.624-2.122-8.669-3.757      c4.043,2.366,7.884,4.192,11.386,5.285c8.977,2.791,25.86-6.377,25.86-46.021c0-22.846-4.298-42.923-7.938-55.837      c-2.388-8.457,1.178-18.665,8.786-23.069c6.25-3.597,13.604-7.852,19.854-11.449c4.584-2.653,10.134-2.876,14.686-0.923      c-4.892-3.47-11.863-3.81-17.403-0.616c-6.239,3.608-13.604,7.852-19.843,11.46c-7.619,4.393-11.184,14.601-8.797,23.069      c3.64,12.903,7.937,32.991,7.937,55.836C272.536,367.072,255.664,376.23,246.676,373.45z"/>
				<g id="XMLID_2866_">
					<path id="XMLID_2872_" style="opacity:0.1;" d="M246.676,373.45c8.988,2.78,25.86-6.378,25.86-46.021       c0-22.846-4.298-42.933-7.937-55.836c-1.091-3.87-0.926-8.099,0.288-11.974l2.699,1.588c-1.199,3.861-1.356,8.067-0.27,11.915       c3.64,12.914,7.938,32.991,7.938,55.837c0,39.644-16.883,48.812-25.86,46.021c-3.502-1.093-7.343-2.918-11.386-5.285       C241.053,371.328,243.971,372.612,246.676,373.45z"/>
					<path id="XMLID_2871_" style="opacity:0.4;fill:#FFFFFF;" d="M273.396,248.523c6.239-3.608,13.604-7.852,19.843-11.46       c5.539-3.194,12.511-2.854,17.403,0.616c-4.552-1.953-10.102-1.73-14.686,0.923c-6.25,3.597-13.604,7.852-19.854,11.449       c-4.147,2.4-7.081,6.529-8.516,11.154l-2.699-1.588C266.329,255.013,269.258,250.909,273.396,248.523z"/>
				</g>
			</g>
			<g id="XMLID_00000107557459629903997800000013965651267409252740_">
				<g id="XMLID_2821_">
					<g id="XMLID_2863_">
						<path style="fill:#455A64;" d="M334.983,427.13c-2.243,0-4.46-0.277-6.601-0.824l-0.571-0.158        c-2.296-0.625-4.669-1.64-7.052-3.015c-15.312-8.84-27.768-30.415-27.767-48.094c0-3.189,0.406-6.101,1.208-8.653        c3.624-11.848,16.558-21.126,29.444-21.126c2.218,0,4.41,0.272,6.527,0.809l0.614,0.169c2.304,0.625,4.682,1.64,7.067,3.017        c15.311,8.832,27.768,30.407,27.768,48.094c0,3.215-0.413,6.148-1.229,8.718l-0.212,0.667        C360.297,418.223,347.621,427.13,334.983,427.13z"/>
						<path style="fill:#37474F;" d="M323.645,345.759c2.132,0,4.239,0.256,6.276,0.761l0.735,0.199        c2.261,0.613,4.599,1.611,6.948,2.967c15.173,8.752,27.517,30.133,27.517,47.661c0,3.165-0.406,6.047-1.206,8.567        l-0.206,0.654c-3.818,11.302-16.29,20.062-28.727,20.062c-2.156,0-4.287-0.261-6.347-0.776l-0.692-0.189        c-2.255-0.614-4.588-1.612-6.933-2.966c-15.173-8.76-27.517-30.141-27.517-47.661c0-3.139,0.399-6,1.188-8.51        C298.243,354.882,310.966,345.759,323.645,345.759 M323.645,344.759c-13.552,0-26.376,9.889-29.921,21.476l0,0        c-0.8,2.546-1.232,5.492-1.232,8.803c0,17.867,12.544,39.594,28.017,48.527c2.479,1.431,4.881,2.442,7.17,3.065l-0.006,0.003        c2.427,0.68,4.879,0.996,7.309,0.996c13.542,0,26.349-9.837,29.892-21.415l-0.005,0.003c0.813-2.561,1.253-5.529,1.253-8.87        c0-17.875-12.543-39.601-28.018-48.527c-2.485-1.434-4.892-2.444-7.186-3.066l0.006-0.004        C328.507,345.074,326.065,344.759,323.645,344.759L323.645,344.759z"/>
					</g>
					<path id="XMLID_2862_" style="fill:#37474F;" d="M320.51,423.566c-15.473-8.934-28.017-30.66-28.017-48.527       c0-17.867,12.544-25.116,28.018-16.19c15.474,8.926,28.017,30.652,28.017,48.527C348.527,425.251,335.983,432.5,320.51,423.566       z"/>
					<path id="XMLID_2855_" style="fill:#F5F5F5;" d="M333.019,421.988c9.467-0.001,10.203-11.258,10.203-14.709       c0-15.883-11.614-36.001-25.362-43.931c-3.529-2.035-6.936-3.111-9.854-3.111c-9.471,0-10.207,11.255-10.207,14.704       c0,15.875,11.615,35.995,25.364,43.932c3.529,2.037,6.937,3.114,9.854,3.114H333.019z"/>
					<g id="XMLID_2853_">
						<path style="fill:#E0E0E0;" d="M322.192,411.669c-10.104-5.832-18.641-20.617-18.641-32.285c0-2.616,0.569-11.151,7.89-11.151        c2.202,0,4.758,0.803,7.389,2.321c10.104,5.827,18.639,20.612,18.639,32.285c0,2.617-0.57,11.154-7.885,11.154h-0.001        C327.378,413.993,324.824,413.189,322.192,411.669z M304.524,379.384c0,11.363,8.314,25.763,18.153,31.443        c2.485,1.435,4.873,2.193,6.907,2.193c6.415,0,6.913-7.793,6.913-10.181c0-11.369-8.312-25.768-18.151-31.443        c-2.485-1.433-4.871-2.19-6.904-2.19C305.022,369.206,304.524,376.996,304.524,379.384z"/>
					</g>
					<path id="XMLID_2852_" style="fill:#455A64;" d="M320.51,378.67c-5.951-3.436-10.776-0.651-10.776,6.221       c0,6.872,4.824,15.228,10.776,18.664c5.951,3.436,10.776,0.651,10.776-6.222C331.286,390.462,326.462,382.106,320.51,378.67z"/>
					<path id="XMLID_2851_" style="fill:#37474F;" d="M320.51,386.85c-2.039-1.177-3.692-0.223-3.692,2.131       c0,2.354,1.653,5.217,3.692,6.394c2.039,1.177,3.692,0.223,3.692-2.131C324.202,390.89,322.549,388.027,320.51,386.85z"/>
				</g>
				<g id="XMLID_2461_">
					<path id="XMLID_2815_" style="fill:#234b6f;" d="M297.929,348.195c3.82-2.207,18.028-10.155,21.52-12.404       c6.07-3.905,14.654-3.576,24.183,1.931c9.238,5.327,17.566,14.524,23.59,25.033c0.932,1.626,0.363,3.701-1.265,4.631       c-4.793,2.738-14.172,8.112-19.248,11.125c-5.815,3.449-19.705-5.21-33.351-3.915c-2.249,0.202-4.499,0.679-6.696,1.539       c-9.198,3.574-12.363,4.798-15.819,3.54c-1.124-0.409-1.929-1.432-2.103-2.615c-0.364-2.485-0.552-4.936-0.552-7.324       C288.188,359.125,291.902,351.665,297.929,348.195z"/>
					<path id="XMLID_2814_" style="opacity:0.2;fill:#FFFFFF;" d="M297.929,348.195c3.82-2.207,18.028-10.155,21.52-12.404       c6.07-3.905,14.654-3.576,24.183,1.931c4.526,2.61,8.832,6.153,12.757,10.32l-47.32,27.32       c-0.807,0.216-1.611,0.461-2.407,0.773c-9.198,3.574-12.363,4.798-15.819,3.54c-1.123-0.409-1.93-1.432-2.103-2.615       c-0.364-2.485-0.552-4.936-0.552-7.324C288.188,359.125,291.902,351.665,297.929,348.195z"/>
					<path id="XMLID_2792_" style="fill:#234b6f;" d="M288.188,369.736c0,2.95,0.286,5.996,0.838,9.084       c4.372,2.462,6.876,1.496,17.636-2.685c2.197-0.86,4.447-1.337,6.696-1.539c13.646-1.294,27.536,7.364,33.351,3.915       c-3.162-6.059-7.099-11.778-11.566-16.691c-4.181-4.584-8.807-8.478-13.689-11.29c-3.364-1.942-6.6-3.237-9.656-3.937       c-5.305-1.21-10.049-0.605-13.869,1.602C291.902,351.665,288.188,359.125,288.188,369.736z"/>
					<path id="XMLID_2786_" style="opacity:0.1;" d="M288.188,369.736c0,2.95,0.286,5.996,0.838,9.084       c4.372,2.462,6.876,1.496,17.636-2.685c2.197-0.86,4.447-1.337,6.696-1.539c13.646-1.294,27.536,7.364,33.351,3.915       c-3.162-6.059-7.099-11.778-11.566-16.691c-4.181-4.584-8.807-8.478-13.689-11.29c-3.364-1.942-6.6-3.237-9.656-3.937       c-5.305-1.21-10.049-0.605-13.869,1.602C291.902,351.665,288.188,359.125,288.188,369.736z"/>
				</g>
			</g>
		</g>
		<g id="Top_00000041287643467912098250000008850183461386256033_">
			<g>
				<g>
					<g id="XMLID_2442_">
						<path id="XMLID_2459_" style="fill:#37474F;" d="M324.562,198.736l-3.795-6.554l16.044-9.263l0.002,0.004        c0.487-0.297,1.164-0.267,1.917,0.168c1.479,0.854,2.678,2.93,2.678,4.638c0,0.831-0.288,1.416-0.749,1.705l0.004,0.006        l-0.035,0.02c-0.003,0.001-0.005,0.003-0.008,0.005L324.562,198.736z"/>
						<path id="XMLID_2457_" style="fill:#263238;" d="M325.341,197.005c0,1.708-1.199,2.4-2.678,1.546        c-1.479-0.854-2.678-2.93-2.678-4.638c0-1.708,1.199-2.4,2.678-1.546C324.143,193.221,325.341,195.297,325.341,197.005z"/>
					</g>
					<g id="XMLID_00000103987785234628361200000014546257416891134399_">
						<path id="XMLID_00000167388285350474230850000013328843504681895079_" style="fill:#F0F0F0;" d="M312.895,202.127        l-1.035-1.787l10.178-5.887l0,0.001c0.133-0.081,0.318-0.073,0.523,0.046c0.403,0.233,0.73,0.799,0.73,1.264        c0,0.227-0.078,0.386-0.204,0.465l0.001,0.001l-0.009,0.005c0,0-0.002,0.001-0.002,0.002L312.895,202.127z"/>
						<path id="XMLID_2436_" style="fill:#E0E0E0;" d="M313.107,201.655c0,0.466-0.327,0.654-0.73,0.421        c-0.403-0.232-0.73-0.799-0.73-1.264c0-0.465,0.327-0.654,0.73-0.422C312.78,200.623,313.107,201.189,313.107,201.655z"/>
					</g>
				</g>
				<g>
					<path id="XMLID_2149_" style="fill:#234b6f;" d="M260.716,242.156c3.302-0.135,10.331,1.665,12.68,6.368l19.843-11.46       c0,0-2.113-8.912,11.389-19.327L260.716,242.156z"/>
					<path id="XMLID_2136_" style="opacity:0.2;" d="M260.716,242.156c3.302-0.135,10.331,1.665,12.68,6.368l19.843-11.46       c0,0-2.113-8.912,11.389-19.327L260.716,242.156z"/>
				</g>
				<g>
					<polygon id="XMLID_2132_" style="fill:#234b6f;" points="274.772,237.296 243.672,248.06 243.672,240.977 268.207,226.812            "/>
					<polygon id="XMLID_2100_" style="fill:#234b6f;" points="262.073,223.27 237.538,237.436 243.672,240.977 268.207,226.812            "/>
					<polygon id="XMLID_2099_" style="opacity:0.4;fill:#FFFFFF;" points="262.073,223.27 237.538,237.436 243.672,240.977       268.207,226.812      "/>
					<polygon id="XMLID_2097_" style="fill:#234b6f;" points="243.672,248.06 237.538,244.518 237.538,237.436 243.672,240.977            "/>
					<polygon id="XMLID_2095_" style="opacity:0.1;" points="243.672,248.06 237.538,244.518 237.538,237.436 243.672,240.977       "/>
				</g>
				<g>
					<polygon id="XMLID_2094_" style="fill:#234b6f;" points="294.318,211.784 318.853,197.618 312.719,194.077 288.184,208.243            "/>
					<polygon id="XMLID_2092_" style="opacity:0.4;fill:#FFFFFF;" points="294.318,211.784 318.853,197.618 312.719,194.077       288.184,208.243      "/>
					<polygon id="XMLID_2091_" style="fill:#234b6f;" points="318.853,204.701 300.451,222.408 294.318,211.784 318.853,197.618            "/>
				</g>
				<g>
					<g>
						<path id="XMLID_2090_" style="fill:#234b6f;" d="M266.47,218.193c0.959-1.107,2.765-2.599,4.034-3.332l19.941-11.512        c1.269-0.732,3.075-0.428,4.034,0.679l2.661,3.072c0.959,1.107,2.125,3.128,2.605,4.512l4.397,12.693        c0.48,1.384-0.16,3.1-1.429,3.833l-19.941,11.512c-1.269,0.733-3.326,0.733-4.595,0l-1.539-0.888        c-1.269-0.733-2.892-2.355-3.624-3.624l-3.481-6.029c-0.733-1.269-2.355-2.891-3.624-3.624l-3.836-2.215L266.47,218.193z"/>
						<path id="XMLID_2089_" style="opacity:0.1;" d="M266.47,218.193c0.959-1.107,2.765-2.599,4.034-3.332l19.941-11.512        c1.269-0.732,3.075-0.428,4.034,0.679l2.661,3.072c0.959,1.107,2.125,3.128,2.605,4.512l4.397,12.693        c0.48,1.384-0.16,3.1-1.429,3.833l-19.941,11.512c-1.269,0.733-3.326,0.733-4.595,0l-1.539-0.888        c-1.269-0.733-2.892-2.355-3.624-3.624l-3.481-6.029c-0.733-1.269-2.355-2.891-3.624-3.624l-3.836-2.215L266.47,218.193z"/>
						<path id="XMLID_2088_" style="fill:#234b6f;" d="M272.604,221.265l-2.661-3.072c-0.959-1.107-0.708-2.599,0.561-3.332        l19.941-11.512c1.269-0.732,3.075-0.428,4.034,0.679l2.661,3.072c0.959,1.107,0.708,2.599-0.561,3.332l-19.94,11.513        C275.369,222.676,273.563,222.373,272.604,221.265z"/>
					</g>
					<g>
						<path id="XMLID_2087_" style="fill:#455A64;" d="M275.209,225.777l4.397,12.693c0.479,1.384,1.897,1.913,3.166,1.18        l19.941-11.512c1.269-0.733,1.909-2.449,1.429-3.833l-4.397-12.693c-0.48-1.384-1.897-1.913-3.166-1.18l-19.94,11.513        C275.369,222.676,274.729,224.393,275.209,225.777z"/>
						<path id="XMLID_2086_" style="fill:#EBEBEB;" d="M281.711,237.813l19.941-11.513c0.386-0.223,0.631-0.879,0.485-1.299        l-4.397-12.695c-0.011-0.032-0.024-0.057-0.033-0.075c-0.011,0.009-20.007,11.551-20.007,11.551        c-0.385,0.223-0.631,0.879-0.485,1.299l4.397,12.694c0.01,0.03,0.02,0.053,0.03,0.07        C281.66,237.839,281.683,237.829,281.711,237.813z"/>
						<path id="XMLID_2085_" style="fill:#FAFAFA;" d="M296.804,214.345l3.684,10.857l-17.816,10.415l-0.763-2.01        c0,0,9.71-4.921,12.41-8.566C297.018,221.396,296.804,214.345,296.804,214.345z"/>
						<path id="XMLID_2043_" style="fill:#E0E0E0;" d="M288.022,225.993c0.365,1.055,1.402,1.482,2.315,0.955        c0.914-0.527,1.358-1.81,0.992-2.864c-0.365-1.055-1.402-1.482-2.315-0.955C288.1,223.656,287.656,224.939,288.022,225.993z"/>
					</g>
				</g>
				<g>
					<g id="XMLID_1990_">
						<path id="XMLID_2038_" style="fill:#F0F0F0;" d="M230.586,249.58l-1.035-1.786l10.178-5.887l0.001,0.001        c0.133-0.081,0.317-0.073,0.523,0.046c0.403,0.233,0.73,0.799,0.73,1.264c0,0.227-0.078,0.386-0.204,0.465l0.001,0.001        l-0.01,0.006c-0.001,0.001-0.001,0.001-0.002,0.001L230.586,249.58z"/>
						<path id="XMLID_2031_" style="fill:#E0E0E0;" d="M230.798,249.108c0,0.466-0.327,0.654-0.73,0.421        c-0.403-0.232-0.73-0.799-0.73-1.264c0-0.465,0.327-0.654,0.73-0.421C230.472,248.077,230.798,248.643,230.798,249.108z"/>
					</g>
					<g id="XMLID_1981_">
						<path id="XMLID_1989_" style="fill:#37474F;" d="M219.202,259.321l-3.796-6.554l16.044-9.263l0.003,0.004        c0.486-0.297,1.164-0.267,1.917,0.168c1.479,0.854,2.678,2.93,2.678,4.638c0,0.831-0.287,1.416-0.749,1.705l0.003,0.006        l-0.035,0.02c-0.003,0.002-0.005,0.003-0.008,0.005L219.202,259.321z"/>
						<path id="XMLID_1988_" style="fill:#263238;" d="M219.981,257.591c0,1.707-1.199,2.4-2.678,1.546        c-1.479-0.854-2.678-2.93-2.678-4.638c0-1.708,1.199-2.4,2.678-1.546C218.782,253.807,219.981,255.883,219.981,257.591z"/>
					</g>
				</g>
			</g>
			<g id="Top">
				<g>
					<g>
						<path style="fill:#ffbd96;" d="M237.329,117.685c12.256,1.289,15.543,8.048,23.699,20.419        c7.495,11.369,15.556,22.066,15.556,22.066s44.743,13.827,44.183,13.737c-0.56-0.091-6.954,14.081-6.954,14.081        s-33.79-4.876-41.585-6.525c-7.795-1.649-9.858-1.138-17.424-10.335s-18.122-23.87-18.122-23.87L237.329,117.685z"/>
						<g>
							<path style="fill:#008a5c;" d="M272.523,154.332l3.318,4.444c0,0-5.646-1.142-11.231,5         c-5.961,6.556-6.637,11.166-6.637,11.166l-4.935-5.295c0,0,0.085-5.956,6.722-11.402         C266.397,152.801,272.523,154.332,272.523,154.332z"/>
							<path style="opacity:0.25;" d="M272.523,154.332l3.318,4.444c0,0-5.646-1.142-11.231,5         c-5.961,6.556-6.637,11.166-6.637,11.166l-4.935-5.295c0,0,0.085-5.956,6.722-11.402         C266.397,152.801,272.523,154.332,272.523,154.332z"/>
							<path style="fill:#008a5c;" d="M236.775,116.82c8.57,0.496,12.81,2.431,19.26,11.277c6.45,8.846,12.142,17.769,14.332,20.893         c3.108,4.434,2.79,6.193,2.79,6.193s-5.624-1.455-11.531,4.09c-7.404,6.949-7.202,11.863-7.202,11.863         s-0.785,0.27-3.549-2.677c-2.764-2.948-15.223-19.876-15.223-19.876L236.775,116.82z"/>
						</g>
					</g>
					<g>
						<path id="XMLID_00000033351748921789683600000009806353020223650212_" style="fill:#263238;" d="M324.994,174.495        c1.458,0.448,2.934,0.828,4.439,1.095c2.834,0.503,5.905,0.658,8.195,2.4c0.922,0.702,1.654,1.621,2.331,2.561        c1.46,2.03,2.71,4.21,3.728,6.493c0.966,2.169,2.44,4.637,0.632,6.727c-0.677,0.783-1.803,1.004-2.449,1.778        c-0.263,0.316-0.383,0.725-0.592,1.079c-0.578,0.977-1.392,0.809-2.233,1.258c-0.799,0.426-1.053,1.519-1.925,1.908        c-0.702,0.313-1.529,0.092-2.278,0.267c-0.875,0.204-1.522,0.896-2.367,1.167c-0.842,0.27-1.972,0.3-2.823,0.067        c-2.145-0.587-4.671-2.8-4.671-2.8l2.154-1.244c0.967-1.789-1.05-6.67-4.003-6.434c-0.768,0.443-1.976,1.501-2.894,1.313        c-0.579-0.119-1.084-0.851-1.561-1.169c-0.646-0.432-1.395-0.74-2.12-1.008c-2.36-0.872-4.872-1.156-7.315-1.699        c-1.35-0.3-1.907-0.399-2.347-1.781c-0.328-1.031-0.377-2.137-0.352-3.21c0.097-4.229,1.457-8.633,4.637-11.422        c0.899-0.788,2.039-1.459,3.224-1.298c0.867,0.118,1.532,0.661,2.303,1.016c0.791,0.365,1.644,0.574,2.467,0.884        C321.098,173.168,323.026,173.891,324.994,174.495z"/>
					</g>
					<polygon style="fill:#455A64;" points="326.533,177.112 317.52,181.93 324.99,183.444 334.279,178.61      "/>
				</g>
				<g id="Chest_00000017478048994531414060000007733240771237214631_">
					<path id="Chest_00000042697641941302908950000014341895235561343161_" style="fill:#008a5c;" d="M202.879,118.63       c-4.726,1.597-12.923,5.29-18.443,8.538c-7.516,6.92-12.095,28.677-13.391,42.587c-0.954,10.246-1.853,29.663-1.527,44.583       c31.172,16.242,69.952-0.084,76.054-9.706c-1.902-8.613-3.866-20.231-1.415-36.449c0.556-3.68,2.9-16.55,3.271-20.253       c1.316-13.118-1.581-27.724-10.654-31.109h-14.555C222.219,116.82,202.893,118.626,202.879,118.63z"/>
				</g>
				<g id="Chest_00000121255436825670463140000015109353641702212791_" style="opacity:0.3;">
					<path id="Chest_00000091703327606828541330000003151890692893319342_" style="fill:#FFFFFF;" d="M202.879,118.63       c-4.726,1.597-12.923,5.29-18.443,8.538c-7.516,6.92-12.095,28.677-13.391,42.587c-0.954,10.246-1.853,29.663-1.527,44.583       c31.172,16.242,69.952-0.084,76.054-9.706c-1.902-8.613-3.866-20.231-1.415-36.449c0.556-3.68,2.9-16.55,3.271-20.253       c1.316-13.118-1.581-27.724-10.654-31.109h-14.555C222.219,116.82,202.893,118.626,202.879,118.63z"/>
				</g>

				<g>
					<path style="opacity:0.5;fill:#008a5c;" d="M223.889,134.374c-0.623,2.048-1.194,5.493-1.432,10.686       c-0.308,6.709-0.439,19.301-0.439,19.301l5.072-2.154c0,0,0.024-6.553,0.283-18.011c0.148-6.546,1.908-14.641,1.908-14.641       S224.926,128.392,223.889,134.374z"/>
					<path style="fill:#FFFFFF;" d="M226.312,142.34c-0.143,0.728-0.752,1.487-1.36,1.695c-0.608,0.208-0.985-0.214-0.842-0.942       c0.143-0.728,0.752-1.487,1.36-1.695C226.078,141.19,226.455,141.612,226.312,142.34z"/>
					<path style="fill:#FFFFFF;" d="M225.947,153.271c-0.143,0.728-0.752,1.487-1.36,1.695c-0.608,0.208-0.985-0.214-0.842-0.942       c0.143-0.728,0.752-1.487,1.36-1.695C225.713,152.122,226.09,152.543,225.947,153.271z"/>
				</g>
				<g>
					<path style="fill:#ffbd96;" d="M184.184,127.843c-10.8,5.38-14.714,11.441-16.555,29.922       c-1.911,19.182-1.783,24.003-2.12,29.792c-0.623,10.707-0.208,13.677,5.848,20.168c5.803,6.221,33.338,27.955,33.338,27.955       l11.597-10.735l-25.665-34.399l3.175-29.66C193.802,160.885,198.742,135.509,184.184,127.843z"/>
					<g>
						<g>
							<path style="fill:#008a5c;" d="M165.987,177.137l-0.432,6.153c0,0,3.528,4.005,13.107,4.697s12.707-1.238,12.707-1.238         l0.798-7.251L165.987,177.137z"/>
							<path style="opacity:0.25;" d="M165.987,177.137l-0.432,6.153c0,0,3.528,4.005,13.107,4.697s12.707-1.238,12.707-1.238         l0.798-7.251L165.987,177.137z"/>
						</g>
						<path style="fill:#008a5c;" d="M184.437,127.168c-7.775,3.041-13.898,8.52-15.842,18.891        c-2.131,11.366-2.995,23.578-3.039,27.222c-0.038,3.227,0.608,4.283,0.608,4.283s1.324,3.57,11.3,5.326        c9.161,1.612,14.035-0.501,14.035-0.501s1.342-0.45,2.145-5.608c0.803-5.158,1.85-16.796,2.647-25.081        C197.089,143.417,192.348,129.055,184.437,127.168z"/>
					</g>
					<path id="XMLID_864_" style="fill:#263238;" d="M219.965,228.295c0.347,0.395,0.704,0.781,1.079,1.15       c3.192,3.144,7.688,5.245,11.604,7.296c0.763,0.4,1.487,0.891,2.047,1.553c1.316,1.557,1.892,3.989,2.487,5.902       c0.681,2.188,1.206,4.425,1.569,6.687c0.119,0.742,0.202,1.572-0.239,2.181c-0.442,0.611-1.293,0.82-1.729,1.436       c-0.234,0.332-0.32,0.745-0.498,1.11c-0.492,1.009-1.307,0.908-2.101,1.417c-0.754,0.483-0.917,1.581-1.746,2.033       c-0.667,0.364-1.5,0.213-2.224,0.444c-0.846,0.27-1.429,1.004-2.24,1.338c-0.809,0.333-1.919,0.452-2.776,0.29       c-2.161-0.408-5.414-2.149-5.414-2.149l2.335-1.348c0.811-1.84-1.929-6.423-4.313-6.231l-2.4,1.362c0,0-2.853-3.318-3.141-3.72       c-1.037-1.445-1.913-3.361-2.547-5.052c-0.449-1.199-0.702-2.473-1.259-3.627c-1.101-2.282-3.25-3.842-5.279-5.359       c-0.204-0.153-0.418-0.319-0.508-0.557c-0.149-0.394,0.087-0.82,0.323-1.169c2.887-4.256,7.248-7.49,12.158-9.018       c0.342-0.107,0.713-0.205,1.054-0.094c0.28,0.091,0.497,0.31,0.698,0.525C217.979,225.848,218.928,227.113,219.965,228.295z"/>
					<polygon style="fill:#455A64;" points="225.711,235.825 217.211,241.29 223.099,244.801 231.87,239.298      "/>
				</g>
				<g id="Head_00000054267208781000938720000011089155456875565978_">
					<g>
						<g id="Head_00000044866729357017602220000013749254309486619309_">
							<path id="Hair_00000101792485888578272090000005166243228242317204_" style="fill:#455A64;" d="M203.313,113.031         c0,0,13.188-9.652,18.802-14.085c3.099-2.447,6.199-4.895,9.299-7.342c1.982-1.565,3.032-2.619,5.547-3.659         c2.903-1.2,5.275-4.232,4.62-7.104c-0.926-4.056,2.632-3.522,0.807-7.079c-1.067-2.08-2.653-3.929-4.683-5.088         c-1.023-0.584-2.138-0.984-3.247-1.382c-1.389-0.498-2.719-1.137-4.079-1.653c-1.53-0.58-3.326-0.769-4.912-1.212         c-3.716-1.037-7.635-1.147-11.457-0.785c-19.748,1.868-24.002,18.9-22.329,28.504         C193.341,101.683,201.022,106.872,203.313,113.031z"/>
							<g id="Head_00000011010690882112117650000004747416350264276908_">
								<g id="XMLID_00000114058607272404452760000013009334888503454092_">
									<path style="fill:#ffbd96;" d="M241.517,97.378c-0.52,15.161-5.461,18.165-7.94,19.214           c-1.734,0.733-3.756,0.941-6.393,0.72l-0.721,4.607c2.077,3.132,0.253,10.006-0.736,13.464           c-4.498-4.467-17.851-4.281-23.22-15.483l1.954-16.646c0,0-1.936,2.472-5.847,0.055c-3.748-2.316-4.104-8.587-2.036-11.219           c1.888-2.403,6.025-1.993,7.32,0.633c0.508,1.032,0.516,1.449,0.642,2.822c0.058,0.628-0.039,1.443,0.432,1.71           c3.186,1.806,4.384-3.75,4.008-5.759c-0.165-0.883-0.237-1.935,0.43-2.536c0.37-0.333,0.884-0.44,1.367-0.559           c1.2-0.294,2.421-0.775,3.205-1.731c1.968-2.398,0.3-6.453,2.28-8.841c0.856-1.033,2.256-1.503,3.598-1.483           c1.341,0.02,2.639,0.477,3.86,1.033c0.955,0.435,2.091,0.931,2.991,0.392c0.316-0.189,0.552-0.485,0.803-0.755           c1.808-1.942,4.814-2.663,7.306-1.751c4.166,1.524,4.999,6.654,5.726,10.464C241.325,89.823,241.663,93.221,241.517,97.378           z"/>
								</g>
							</g>
						</g>
					</g>
					<g>
						<path style="fill:#008a5c;" d="M241.548,80.199c-0.095-0.3-0.6-1.371-3.304-1.996c-2.263-0.514-6.062-0.714-12.438,0.127        c-3.666,0.483-7.247,1.489-10.621,2.83c-6.321,2.469-11.89,6.07-15.891,9.405c-1.037,0.149-2.027,0.651-2.716,1.523        c-0.383,0.494-0.689,1.106-0.89,1.804c-1.179,1.25-2.03,2.353-2.496,3.226c-4.619-7.458-8.809-28.909,17.816-35.394        C236.581,55.5,241.276,78.691,241.548,80.199z"/>
					</g>
					<g id="Helmet_00000070827906902745889600000015244565979107419060_">
						<path style="fill:#263238;" d="M206.836,80.279c0.996,11.129,2.39,24.426,4.16,28.537c2.336,5.426,8.37,6.804,8.37,6.804        s-2.432,0.186-5.113-1.074c-2.681-1.261-4.452-2.449-6.286-7.176c-1.832-4.723-4.315-26.242-4.315-26.242L206.836,80.279z"/>
						<path style="fill:#263238;" d="M197.913,85.994c0,0,0.277,1.074,1.128,4.606c-0.563,0.186-1.416,0.503-2.051,1.073        c-0.565,0.507-0.803,0.922-1.062,1.539c-0.8-2.828-1.332-4.964-1.332-4.964L197.913,85.994z"/>
						<path style="fill:#008a5c;" d="M192.134,94.807c3.124-5.602,19.326-17.919,34.278-18.406        c14.279-0.464,15.19,4.693,15.19,4.693s1.647-0.788,2.477-2.199c1.098-1.865-3.895-18.383-16.227-20.793        c-12.704-2.483-27.175,2.578-34.256,11.696c-6.124,7.886-6.337,15.807-4.295,23.014c0.169,0.595,1.484,4.531,3.371,3.486        C192.671,96.299,192.274,95.273,192.134,94.807z"/>
						<path style="fill:#455A64;" d="M220.117,66.784c-7.011-3.383-15.59-1.72-17.574-0.191c-1.984,1.53-5.037,6.087-1.745,6.449        c3.292,0.362,11.492-2.029,16.561-1.358C222.428,72.354,225.895,69.572,220.117,66.784z"/>
						<path style="fill:#37474F;" d="M220.229,69.209c-7.011-3.384-15.59-1.721-17.574-0.191c-0.992,0.765-2.251,2.287-2.851,3.662        c0.231,0.183,0.551,0.313,0.994,0.361c3.291,0.362,11.492-2.029,16.561-1.358c2.316,0.307,4.285-0.113,5.203-0.919        C222.079,70.261,221.32,69.735,220.229,69.209z"/>
						<path style="fill:#455A64;" d="M233.411,70.345c-0.706-0.233-1.132-0.873-1.434-1.575c-0.661-1.535-1.561-2.967-2.658-4.229        c-0.278-0.319-0.574-0.637-0.73-1.03c-0.157-0.393-0.141-0.889,0.158-1.188c0.397-0.398,1.06-0.279,1.596-0.11        c2.674,0.849,4.963,2.255,6.566,4.619c0.409,0.603,0.768,1.364,0.485,2.035c-0.256,0.609-0.939,0.899-1.557,1.131        c-0.624,0.233-1.269,0.471-1.934,0.436C233.724,70.426,233.561,70.395,233.411,70.345z"/>
						<path style="fill:#37474F;" d="M236.722,69.59c-0.11-0.302-0.269-0.597-0.447-0.86c-1.603-2.365-3.892-3.771-6.566-4.619        c-0.271-0.086-0.575-0.157-0.86-0.157c0.145,0.204,0.305,0.398,0.469,0.587c1.097,1.262,1.997,2.694,2.658,4.229        c0.302,0.702,0.728,1.343,1.434,1.575c0.15,0.049,0.313,0.081,0.49,0.09c0.665,0.035,1.311-0.202,1.934-0.436        C236.135,69.887,236.448,69.759,236.722,69.59z"/>
						<path style="fill:#37474F;" d="M215.982,75.527c-14.866,4.43-23.574,12.143-26.026,18.934        c0.599,1.201,1.585,2.478,2.761,1.827c0,0-0.352-0.84-0.492-1.306c3.124-5.602,19.189-17.88,34.141-18.366        c14.279-0.465,15.236,4.479,15.236,4.479s1.722-0.657,2.477-2.199C239.377,73.932,233.081,70.432,215.982,75.527z"/>
						<path style="fill:#263238;" d="M207.968,107.369c-1.985-1.011-6.005-3.001-6.005-3.001c1.3-0.168,2.022-0.64,2.498-1.113        l3.529,1.662L207.968,107.369z"/>
					</g>
				</g>
				<g>
					<path style="fill:#008a5c;" d="M225.727,135.383c-1.122-1.943-1.958-3.144-6.624-4.728c-4.667-1.583-10.167-5-12.667-7.75       c-2.5-2.75-3.567-6.085-3.567-6.085l0.385-3.279c0,0-1.058,0.002-2.058,1.419c-1,1.417-3.96,5.869-3.96,5.869       s0.356,5.625,6.714,11.386c6.655,6.031,15.01,7.839,15.01,7.839s1.035-3.371,2.195-4.822       C222.671,133.337,224.344,134.591,225.727,135.383z"/>
					<path style="fill:#008a5c;" d="M225.727,135.383c0-1.736,0.342-2.684,0.741-5.179c0.399-2.495,0.788-5.344-0.005-8.286       l0.686-4.378c0,0,2.708,0.108,4.008-0.026c2.447,6.303,2.601,12.436,2.451,17.868c-2.518-2.544-4.459-3.787-5.807-2.987       C226.285,133.296,225.727,135.383,225.727,135.383z"/>
				</g>
			</g>
			<g id="XMLID_1407_">
				<g id="XMLID_1902_">
					<path id="XMLID_1979_" style="fill:#E0E0E0;" d="M220.297,242.133c0.184,0,0.368-0.048,0.531-0.142l24.869-14.359l2.737,5.72       c0.253,0.53,0.884,0.752,1.415,0.5c0.529-0.253,0.753-0.887,0.499-1.415l-3.232-6.755c-0.127-0.266-0.361-0.468-0.643-0.555       c-0.282-0.088-0.589-0.054-0.845,0.094l-24.869,14.359l-2.738-5.72c-0.253-0.53-0.885-0.752-1.416-0.499       c-0.529,0.254-0.752,0.887-0.499,1.415l3.233,6.754c0.129,0.266,0.361,0.468,0.643,0.555       C220.085,242.117,220.191,242.133,220.297,242.133z"/>
				</g>
				<g id="XMLID_1481_">
					<path id="XMLID_1901_" style="fill:#37474F;" d="M211.199,225.315l7.417-4.283c0.767-0.442,1.46-0.481,1.96-0.186       c0.37,0.219,1.828,1.026,2.213,1.28c0.459,0.303,0.74,0.903,0.74,1.742v3.587c0,1.758-1.234,3.896-2.757,4.775l-7.417,4.283       c-0.751,0.434-1.432,0.479-1.929,0.204c-0.387-0.214-1.794-1.039-2.17-1.253c-0.503-0.286-0.814-0.905-0.814-1.787v-3.588       C208.442,228.332,209.676,226.194,211.199,225.315z"/>
					<path id="XMLID_1843_" style="fill:#455A64;" d="M220.771,232.231l-7.417,4.283c-1.523,0.879-2.757,0.166-2.757-1.592v-3.587       c0-1.758,1.235-3.896,2.757-4.775l7.417-4.283c1.523-0.879,2.757-0.166,2.757,1.592v3.587       C223.528,229.214,222.294,231.352,220.771,232.231z"/>
				</g>
			</g>
			<g id="XMLID_2044_">
				<g id="XMLID_2081_">
					<path id="XMLID_2084_" style="fill:#E0E0E0;" d="M305.424,201.838c0.454,0,0.873-0.292,1.014-0.748l3.11-10.089l14.724-8.489       c0.232-0.133,0.405-0.35,0.485-0.606l3.831-12.349c0.172-0.561-0.142-1.154-0.702-1.327c-0.563-0.172-1.154,0.142-1.328,0.701       l-3.707,11.951l-14.724,8.489c-0.232,0.134-0.405,0.35-0.485,0.606l-3.233,10.487c-0.172,0.561,0.142,1.154,0.702,1.327       C305.216,201.824,305.321,201.838,305.424,201.838z"/>
				</g>
				<g id="XMLID_2045_">
					<path id="XMLID_2077_" style="fill:#37474F;" d="M321.113,161.87l7.417-4.283c0.767-0.443,1.46-0.481,1.96-0.186       c0.371,0.219,1.828,1.026,2.213,1.28c0.459,0.303,0.74,0.903,0.74,1.742v3.587c0,1.758-1.234,3.896-2.757,4.775l-7.417,4.283       c-0.751,0.434-1.432,0.48-1.929,0.204c-0.387-0.214-1.794-1.039-2.17-1.253c-0.503-0.286-0.814-0.905-0.814-1.787v-3.587       C318.356,164.886,319.591,162.748,321.113,161.87z"/>
					<path id="XMLID_2046_" style="fill:#455A64;" d="M330.686,168.786l-7.417,4.282c-1.523,0.879-2.757,0.166-2.757-1.592v-3.587       c0-1.758,1.234-3.896,2.757-4.775l7.417-4.283c1.523-0.879,2.757-0.166,2.757,1.592v3.588       C333.443,165.769,332.208,167.907,330.686,168.786z"/>
				</g>
			</g>
		</g>
	</g>
</g>
</svg>