<svg xmlns="http://www.w3.org/2000/svg" xmlns:xlink="http://www.w3.org/1999/xlink" version="1.1" x="0px" y="0px" style="enable-background:new 0 0 3710 3710;" xml:space="preserve" viewBox="457.51 909.63 2798.96 2345.37">

<g id="Illustration">
	<g>
		<g>

				<linearGradient id="SVGID_00000181786836048632890610000013875941872875865745_" gradientUnits="userSpaceOnUse" x1="2137.7273" y1="1461.0786" x2="2103.4854" y2="1687.0759">
				<stop offset="0" style="stop-color:#00233f"/>
				<stop offset="1" style="stop-color:#00233f"/>
			</linearGradient>
			<path style="fill:url(#SVGID_00000181786836048632890610000013875941872875865745_);" d="M2216.736,1478.389     c-0.298-3.69-4.067-6.885-10.449-9.445c6.936-3.825,10.773-7.925,10.449-11.945c-0.981-12.166-39.51-18.987-86.057-15.234     c-46.547,3.753-83.486,16.658-82.505,28.825c0.298,3.69,4.067,6.884,10.45,9.445c-6.936,3.825-10.774,7.924-10.45,11.945     c0.298,3.69,4.067,6.884,10.45,9.445c-6.936,3.825-10.774,7.924-10.45,11.945c0.298,3.69,4.067,6.884,10.45,9.445     c-6.936,3.825-10.774,7.925-10.45,11.945c0.435,5.38,8.222,9.713,20.79,12.55c-0.163,3.976-0.072,8.334,0.319,13.146     c1.821,22.419,27.038,39.997,60.39,39.997c33.353,0,62.22-23.967,62.548-46.457c0.081-5.512-0.154-10.363-0.653-14.674     c15.958-5.329,25.677-11.839,25.168-18.153c-0.298-3.69-4.067-6.885-10.449-9.445c6.936-3.825,10.773-7.925,10.449-11.945     c-0.298-3.69-4.067-6.884-10.449-9.445C2213.223,1486.509,2217.06,1482.409,2216.736,1478.389z"/>
			<g>

					<linearGradient id="SVGID_00000010288269724799483450000005466796759107760773_" gradientUnits="userSpaceOnUse" x1="2145.2954" y1="1367.3778" x2="2086.1628" y2="2019.5308">
					<stop offset="0" style="stop-color:#53D8FF"/>
					<stop offset="1" style="stop-color:#3840F7"/>
				</linearGradient>
				<path style="fill:url(#SVGID_00000010288269724799483450000005466796759107760773_);" d="M2109.14,1552.152      c-13.824,0-26.473-1.017-36.924-3.019c-0.606-0.116-1.004-0.701-0.887-1.308c0.116-0.606,0.698-1.003,1.307-0.887      c16.354,3.131,38.196,3.821,61.504,1.941c19.073-1.538,36.909-4.614,51.581-8.897c0.594-0.173,1.213,0.167,1.387,0.76      c0.173,0.593-0.167,1.213-0.76,1.386c-14.815,4.324-32.806,7.429-52.027,8.979      C2125.663,1551.806,2117.202,1552.152,2109.14,1552.152z"/>

					<linearGradient id="SVGID_00000079447182995936837170000006193258372872488846_" gradientUnits="userSpaceOnUse" x1="2147.0195" y1="1367.5334" x2="2087.8867" y2="2019.6887">
					<stop offset="0" style="stop-color:#53D8FF"/>
					<stop offset="1" style="stop-color:#3840F7"/>
				</linearGradient>
				<path style="fill:url(#SVGID_00000079447182995936837170000006193258372872488846_);" d="M2109.373,1530.742      c-17.961,0-34.012-1.69-45.334-4.914c-0.594-0.169-0.938-0.788-0.769-1.382c0.17-0.594,0.785-0.937,1.382-0.769      c16.133,4.594,42.11,6.018,69.489,3.811c27.084-2.184,52.342-7.68,67.567-14.702c0.561-0.258,1.225-0.014,1.484,0.547      c0.258,0.56,0.014,1.224-0.547,1.484c-15.451,7.126-40.993,12.696-68.324,14.899      C2125.792,1530.406,2117.391,1530.742,2109.373,1530.742z"/>

					<linearGradient id="SVGID_00000150789142518377089850000001173001563138005944_" gradientUnits="userSpaceOnUse" x1="2143.7512" y1="1367.2374" x2="2084.6187" y2="2019.391">
					<stop offset="0" style="stop-color:#53D8FF"/>
					<stop offset="1" style="stop-color:#3840F7"/>
				</linearGradient>
				<path style="fill:url(#SVGID_00000150789142518377089850000001173001563138005944_);" d="M2109.142,1509.368      c-19.393,0-36.363-1.984-47.786-5.751c-0.587-0.193-0.905-0.825-0.711-1.412c0.193-0.587,0.823-0.906,1.411-0.712      c15.896,5.241,42.843,6.962,72.084,4.605c27.082-2.183,52.341-7.679,67.567-14.702c0.561-0.257,1.225-0.013,1.484,0.547      c0.258,0.56,0.014,1.224-0.547,1.483c-15.453,7.127-40.995,12.697-68.324,14.9      C2125.66,1509.027,2117.192,1509.368,2109.142,1509.368z"/>

					<linearGradient id="SVGID_00000137091275097175510430000007456857117672130744_" gradientUnits="userSpaceOnUse" x1="2145.5103" y1="1367.3966" x2="2086.3774" y2="2019.5518">
					<stop offset="0" style="stop-color:#53D8FF"/>
					<stop offset="1" style="stop-color:#3840F7"/>
				</linearGradient>
				<path style="fill:url(#SVGID_00000137091275097175510430000007456857117672130744_);" d="M2109.292,1487.968      c-15.384,0-29.375-1.244-40.252-3.66c-0.603-0.134-0.983-0.731-0.849-1.333c0.134-0.604,0.733-0.984,1.334-0.849      c16.357,3.634,39.909,4.576,64.616,2.584c26.841-2.165,51.971-7.6,67.223-14.543c0.561-0.257,1.224-0.008,1.48,0.554      c0.256,0.562,0.008,1.225-0.555,1.481c-15.475,7.044-40.884,12.553-67.968,14.737      C2125.763,1487.627,2117.336,1487.968,2109.292,1487.968z"/>
			</g>

				<linearGradient id="SVGID_00000016067293312992063910000000445285612987881657_" gradientUnits="userSpaceOnUse" x1="2163.4663" y1="903.6233" x2="2072.2368" y2="1521.9578">
				<stop offset="0" style="stop-color:#f9a643"/>
				<stop offset="1" style="stop-color:#fcbe41"/>
			</linearGradient>
			<path style="fill:url(#SVGID_00000016067293312992063910000000445285612987881657_);" d="M2016.932,1370.415     c-5.653-20.023-15.256-38.737-28.188-55.036c-27.71-34.923-72.916-105.947-78.48-202.882     c-8.094-140.996,116.954-211.587,231.062-202.004c114.108,9.583,226.704,94.545,214.377,225.715     c-7.584,80.708-52.759,141.927-86.392,177.085c-21.359,22.325-36.593,49.67-44.84,79.445     c-10.094,36.444-34.115,81.86-91.21,84.628C2059.381,1480.948,2028.696,1412.083,2016.932,1370.415z"/>

				<linearGradient id="SVGID_00000157299054428086722520000011469295213669006731_" gradientUnits="userSpaceOnUse" x1="3004.3259" y1="160.2487" x2="2593.7917" y2="732.9688">
				<stop offset="0" style="stop-color:#E1473D"/>
				<stop offset="1" style="stop-color:#E9605A"/>
			</linearGradient>
			<path style="fill:url(#SVGID_00000157299054428086722520000011469295213669006731_);" d="M2152.133,1449.248l39.927-259.684     c0.824-5.365,3.465-8.968,5.897-8.048c2.432,0.921,3.735,6.016,2.91,11.381c-0.022,0.143-0.051,0.319-0.076,0.46l-45.479,257.271     c-0.342,1.935-1.324,3.157-2.195,2.729C2152.273,1452.943,2151.846,1451.121,2152.133,1449.248z"/>

				<linearGradient id="SVGID_00000095325410640324199160000009357139896403833757_" gradientUnits="userSpaceOnUse" x1="2947.325" y1="119.3908" x2="2536.7913" y2="692.1105">
				<stop offset="0" style="stop-color:#E1473D"/>
				<stop offset="1" style="stop-color:#E9605A"/>
			</linearGradient>
			<path style="fill:url(#SVGID_00000095325410640324199160000009357139896403833757_);" d="M2110.688,1451.31l-39.926-259.684     c-0.825-5.365-3.465-8.967-5.897-8.047c-2.432,0.92-3.735,6.016-2.91,11.381c0.021,0.143,0.051,0.319,0.076,0.46l45.479,257.271     c0.342,1.935,1.324,3.157,2.195,2.729C2110.547,1455.005,2110.974,1453.184,2110.688,1451.31z"/>
			<path style="fill:#FFFFFF;" d="M2191.772,1167.267c-1.013-1.63-3.36-2.24-5.241-1.36l-22.232,10.388l-7.717-21.989     c-0.408-1.147-1.354-2.165-2.704-2.72c-2.558-1.054-5.616-0.111-6.832,2.106l-0.039,0.071l-18.284,33.336l-16.966-47.455     l-0.028-0.079c-0.415-1.158-1.291-2.198-2.568-2.896c-2.845-1.553-6.603-0.813-8.395,1.654l-25.56,35.187     c-1.04,1.442-0.682,3.374,0.901,4.44c1.689,1.138,4.123,0.874,5.435-0.591l22.505-25.105l20.262,45.144l0.015,0.035     c0.325,0.722,0.936,1.353,1.786,1.75c1.901,0.89,4.275,0.276,5.302-1.372l19.554-31.379l7.36,15.871l0.064,0.141     c0.053,0.114,0.114,0.226,0.183,0.337c1.013,1.629,3.357,2.238,5.237,1.36l26.389-12.331     C2192.083,1170.932,2192.786,1168.898,2191.772,1167.267z"/>
			<path style="fill:#FFFFFF;" d="M2270.179,1279.816c-1.051,0-2.11-0.323-3.017-1c-2.248-1.666-2.718-4.841-1.05-7.091     c6.799-9.157,13.031-18.624,18.522-28.131c1.401-2.422,4.498-3.254,6.923-1.854c2.424,1.399,3.255,4.497,1.854,6.923     c-5.684,9.844-12.13,19.637-19.159,29.108C2273.258,1279.11,2271.729,1279.816,2270.179,1279.816z"/>
			<path style="fill:#FFFFFF;" d="M2303.024,1223.445c-0.673,0-1.358-0.135-2.016-0.419c-2.567-1.115-3.745-4.102-2.63-6.669     c42.19-97.161,5.804-178.713,5.433-179.525c-1.168-2.544-0.051-5.554,2.495-6.719c2.551-1.165,5.556-0.05,6.719,2.495     c1.599,3.484,38.626,86.516-5.347,187.788C2306.847,1222.307,2304.983,1223.445,2303.024,1223.445z"/>
		</g>
		<g>
			<g>

					<linearGradient id="SVGID_00000015353585493658720640000013422931786274322573_" gradientUnits="userSpaceOnUse" x1="6652.8403" y1="3023.9963" x2="6049.4673" y2="3680.2976" gradientTransform="matrix(1 0.0095 -0.0095 1 -4973.9507 -63.4747)">
					<stop offset="0" style="stop-color:#00233f"/>
					<stop offset="1" style="stop-color:#00233f"/>
				</linearGradient>
				<path style="fill:url(#SVGID_00000015353585493658720640000013422931786274322573_);" d="M1458.97,3070.794      c0,0-6.587,35.317-9.984,70.307c-1.329,13.674,9.109,25.657,22.83,26.361c46.615,2.386,146.333,7.115,182.143,5.859      c5.383-0.189,8.954-5.664,7.01-10.687l0,0c-1.629-4.209-4.815-7.632-8.899-9.556l-164.05-77.301L1458.97,3070.794z"/>

					<linearGradient id="SVGID_00000166675494549476449490000003886706918188271000_" gradientUnits="userSpaceOnUse" x1="6456.9946" y1="3072.7349" x2="6510.5894" y2="3072.7349" gradientTransform="matrix(1 0.0095 -0.0095 1 -4973.9507 -63.4747)">
					<stop offset="0" style="stop-color:#ffbe96"/>
					<stop offset="1" style="stop-color:#ffbe96"/>
				</linearGradient>
				<path style="fill:url(#SVGID_00000166675494549476449490000003886706918188271000_);" d="M1454.049,3049.96l4.617,42.362      c0,0,28.736,13.712,48.592-1.23l-11.503-47.269L1454.049,3049.96z"/>

					<linearGradient id="SVGID_00000087391695209665663800000000586838718421671305_" gradientUnits="userSpaceOnUse" x1="6700.3823" y1="2281.7405" x2="6186.9351" y2="2977.6521" gradientTransform="matrix(1 0.0095 -0.0095 1 -4973.9507 -63.4747)">
					<stop offset="0" style="stop-color:#00233f"/>
					<stop offset="1" style="stop-color:#00233f"/>
				</linearGradient>
				<path style="fill:url(#SVGID_00000087391695209665663800000000586838718421671305_);" d="M1465.411,2254.467      c-2.273,11.029-16.901,551.321,38.551,794.036c0.905,3.96-1.137,8.014-4.912,9.515c-8.894,3.535-26.313,8.611-47.134,9.111      c-6.447,0.155-12.188-4.09-13.947-10.294c-15.975-56.343-92.409-338.604-100.164-607.617      c-8.667-300.596,0.098-10.231,0.098-10.231l8.536-185.677L1465.411,2254.467z"/>

					<linearGradient id="SVGID_00000173844245674625093230000016484901793773656243_" gradientUnits="userSpaceOnUse" x1="6517.4834" y1="2899.5339" x2="5914.0854" y2="3555.8623" gradientTransform="matrix(1 0.0095 -0.0095 1 -4973.9507 -63.4747)">
					<stop offset="0" style="stop-color:#00233f"/>
					<stop offset="1" style="stop-color:#00233f"/>
				</linearGradient>
				<path style="fill:url(#SVGID_00000173844245674625093230000016484901793773656243_);" d="M1269.249,3087.442      c0,0-10.118,17.764-20.2,65.129c-1.821,8.554,4.089,16.813,12.784,17.752c15.385,1.661,39.071,3.834,58.062,3.885      c8.753,0.023,15.658-7.534,14.686-16.234c-1.938-17.342-8.22-45.825-28.251-68.168L1269.249,3087.442z"/>

					<linearGradient id="SVGID_00000159469150186117690610000015926318191105539722_" gradientUnits="userSpaceOnUse" x1="6263.8335" y1="3069.9785" x2="6310.1064" y2="3069.9785" gradientTransform="matrix(1 0.0095 -0.0095 1 -4973.9507 -63.4747)">
					<stop offset="0" style="stop-color:#ffbe96"/>
					<stop offset="1" style="stop-color:#ffbe96"/>
				</linearGradient>
				<path style="fill:url(#SVGID_00000159469150186117690610000015926318191105539722_);" d="M1261.032,3032.932l11.12,64.103      c0,0,11.517,8.738,34.522,2.703l-4.943-68.903L1261.032,3032.932z"/>

					<linearGradient id="SVGID_00000066484410951400974230000000363127998702031799_" gradientUnits="userSpaceOnUse" x1="6608.8721" y1="2214.2249" x2="6095.4302" y2="2910.1292" gradientTransform="matrix(1 0.0095 -0.0095 1 -4973.9507 -63.4747)">
					<stop offset="0" style="stop-color:#00233f"/>
					<stop offset="1" style="stop-color:#00233f"/>
				</linearGradient>
				<path style="fill:url(#SVGID_00000066484410951400974230000000363127998702031799_);" d="M1236.627,2268.869      c-49.962,284.66,3.525,704.771,22.131,787.074c1.139,5.04,5.16,8.93,10.248,9.823c8.641,1.516,22.879,2.824,36.965-1.123      c4.853-1.359,8.295-5.692,8.54-10.727c3.235-66.365,2.442-473.982,47.997-634.637c2.308-8.142,7.361-15.214,14.306-20.051      l86.017-59.923l7.488-98.117L1236.627,2268.869z"/>
				<g>

					<linearGradient xmlns="http://www.w3.org/2000/svg" id="SVGID_00000144333929015717610440000011986497386733910428_" gradientUnits="userSpaceOnUse" x1="1116.2535" y1="1502.9969" x2="661.2365" y2="2352.2122">
						<stop offset="0" style="stop-color:#018257"/>
						<stop offset="1" style="stop-color:#00ba7c"/>
					</linearGradient>

					<path style="fill:url(#SVGID_00000144333929015717610440000011986497386733910428_);" d="M1542.809,1731.512       c-141.554-3.69-298.143,34.333-298.143,34.333c-44.551,245.837-12.438,530.191-12.438,530.191       c109.33,29.788,233.412-15.349,233.412-15.349c19.199-102.749,106.959-391.597,106.959-391.597       c69.255-7.925,126.43-27.339,173.608-53.276c-35.399-41.833-51.77-94.79-58.801-126.069       C1637.2,1724.824,1586.469,1732.651,1542.809,1731.512z"/>

						<linearGradient id="SVGID_00000070801044470203947880000017610342193448752516_" gradientUnits="userSpaceOnUse" x1="6677.5991" y1="1674.4781" x2="6951.4219" y2="1674.4781" gradientTransform="matrix(1 0.0095 -0.0095 1 -4973.9507 -63.4747)">
						<stop offset="0" style="stop-color:#ffbe96"/>
						<stop offset="1" style="stop-color:#ffbe96"/>
					</linearGradient>
					<path style="fill:url(#SVGID_00000070801044470203947880000017610342193448752516_);" d="M1962.989,1526.969       c-13.747-16.931-31.425-9.152-31.425-9.152c-21.674,87.807-131.595,158.121-244.158,191.93       c7.031,31.279,23.402,84.236,58.801,126.069C1933.462,1732.867,1962.989,1526.969,1962.989,1526.969z"/>
				</g>
				<g>

						<linearGradient id="SVGID_00000151526349900695244270000003973210024506988716_" gradientUnits="userSpaceOnUse" x1="3556.3086" y1="1627.6532" x2="3740.0459" y2="2045.6974" gradientTransform="matrix(-1 -0.0095 -0.0095 1 5472.7749 36.7017)">
						<stop offset="0" style="stop-color:#ffbe96"/>
						<stop offset="1" style="stop-color:#ffbe96"/>
					</linearGradient>
					<path style="fill:url(#SVGID_00000151526349900695244270000003973210024506988716_);" d="M1959.573,1531.207       c1.411,4.64-15.508,11.524-25.25-7.491c-0.26-9.072-5.404-47.973,0.085-55.31c29.235-39.07,85.657-87.858,85.657-87.858       c9.368,9.422,1.49,18.513,1.49,18.513l-27.414,28.017c5.58,10.313,12.423,19.04,15.55,31.48       c2.368,9.421,0.769,19.45-4.06,27.958c-4.847,8.538-11.453,19.634-17.682,28.308       C1976.16,1531.241,1959.573,1531.207,1959.573,1531.207z"/>

						<linearGradient id="SVGID_00000108997236501141830990000000795269648371296676_" gradientUnits="userSpaceOnUse" x1="6950.1089" y1="1489.3619" x2="7026.7764" y2="1371.4858" gradientTransform="matrix(1 0.0095 -0.0095 1 -4973.9507 -63.4747)">
						<stop offset="0" style="stop-color:#ffbe96"/>
						<stop offset="1" style="stop-color:#ffbe96"/>
					</linearGradient>
					<path style="fill:url(#SVGID_00000108997236501141830990000000795269648371296676_);" d="M1982.095,1445.312l-24.935,20.733       l-7.965,20.803l21.82,24.676c0,0,7.81-41.353,13.407-50.266C1990.018,1452.345,1987.202,1447.983,1982.095,1445.312z"/>
				</g>

					<linearGradient id="SVGID_00000157292703817839985340000000690464942284387972_" gradientUnits="userSpaceOnUse" x1="8363.3984" y1="-1531.1018" x2="7890.3325" y2="-711.1189" gradientTransform="matrix(-1 0 0 1 7569.6606 0)">
					<stop offset="0" style="stop-color:#018257"/>
					<stop offset="1" style="stop-color:#018257"/>
				</linearGradient>
				<path style="fill:url(#SVGID_00000157292703817839985340000000690464942284387972_);" d="M1297.661,1903.45l-52.994-137.605      c0,0-133.098,88.589-155.932,202.303c24.969,2.079,70.375,9.012,114.665,31.908      C1213.692,1946.358,1297.661,1903.45,1297.661,1903.45z"/>

					<linearGradient id="SVGID_00000124163432324805180930000016972813754922631065_" gradientUnits="userSpaceOnUse" x1="6078.4209" y1="2062.303" x2="6424.9346" y2="2062.303" gradientTransform="matrix(1 0.0095 -0.0095 1 -4973.9507 -63.4747)">
					<stop offset="0" style="stop-color:#ffbe96"/>
					<stop offset="1" style="stop-color:#ffbe96"/>
				</linearGradient>
				<path style="fill:url(#SVGID_00000124163432324805180930000016972813754922631065_);" d="M1411.993,2033.547      c0,0-149.273,82.493-198.686,10.366c-10.258-14.977-12.605-29.786-9.908-43.857c-44.29-22.896-89.696-29.829-114.665-31.908      c-6.884,34.281-3.767,70.841,16.062,107.951c86.222,161.362,326.497-5.757,326.497-5.757L1411.993,2033.547z"/>

					<linearGradient id="SVGID_00000089567023439047275560000016808947561328624558_" gradientUnits="userSpaceOnUse" x1="6344.5078" y1="1691.8655" x2="6481.5137" y2="1691.8655" gradientTransform="matrix(1 0.0095 -0.0095 1 -4973.9507 -63.4747)">
					<stop offset="0" style="stop-color:#ffbe96"/>
					<stop offset="1" style="stop-color:#ffbe96"/>
				</linearGradient>
				<path style="fill:url(#SVGID_00000089567023439047275560000016808947561328624558_);" d="M1400.501,1615.206l-46.291,129.845      c-0.766,2.15,0.097,4.549,2.086,5.673c12.215,6.906,56.267,26.952,109.904-6.341c5.588-3.468,9.423-9.175,10.329-15.689      l15.663-112.613L1400.501,1615.206z"/>
				<g>

						<linearGradient id="SVGID_00000123411282346853864620000005662727190417650054_" gradientUnits="userSpaceOnUse" x1="-567.9231" y1="2721.1606" x2="-619.1201" y2="2552.3005" gradientTransform="matrix(0.7523 -0.6588 0.6588 0.7523 159.4521 -818.1582)">
						<stop offset="0" style="stop-color:#ffbe96"/>
						<stop offset="1" style="stop-color:#ffbe96"/>
					</linearGradient>
					<path style="fill:url(#SVGID_00000123411282346853864620000005662727190417650054_);" d="M1499.668,1495.505       c0,0,48.579,93.587,41.879,131.141c-6.699,37.553-67.98,34.267-121.223,3.208l-36.449-100.901L1499.668,1495.505z"/>

						<linearGradient id="SVGID_00000023990463594653805030000007168680777815508391_" gradientUnits="userSpaceOnUse" x1="-614.1094" y1="2426.9468" x2="-571.284" y2="2671.2104" gradientTransform="matrix(0.7523 -0.6588 0.6588 0.7523 159.4521 -818.1582)">
						<stop offset="0" style="stop-color:#8d3b26"/>
						<stop offset="1" style="stop-color:#8d3b26"/>
					</linearGradient>
					<path style="fill:url(#SVGID_00000023990463594653805030000007168680777815508391_);" d="M1423.162,1580.5       c2.185-0.943,3.013-3.598,1.729-5.602c-3.906-6.092-11.217-18.514-13.484-29.351c0,0-8.838-5.78,22.759-13.025       c31.599-7.245,78.724-18.509,88.861-45.249c9.884-26.072-14.802-92.108-55.689-40.069c-1.555,1.98-4.565,1.996-6.081-0.016       c-6.538-8.68-23.773-26.732-48.043-16.12c-22.711,9.932-25.417,26.478-25.186,34.835c0.068,2.458-2.147,4.347-4.558,3.864       c-11.413-2.29-38.833-4.425-51.909,23.6c-10.769,23.083-4.038,36.273,2.145,42.75c2.003,2.099,1.084,5.515-1.699,6.337       c-7.537,2.229-17.3,8.508-16.497,26.123c1.111,24.352,28.343,22.467,36.101,21.431c1.271-0.169,2.546,0.279,3.397,1.238       c6.573,7.415,36.205,38.915,68.563,42.986c2.802,0.353,5.003-2.396,4.109-5.076l-13.63-40.885       c-0.633-1.898,0.292-3.966,2.13-4.76L1423.162,1580.5z"/>

						<linearGradient id="SVGID_00000093134515245197269500000016404580675862331825_" gradientUnits="userSpaceOnUse" x1="-620.258" y1="2720.3723" x2="-666.3209" y2="2568.446" gradientTransform="matrix(0.7523 -0.6588 0.6588 0.7523 159.4521 -818.1582)">
						<stop offset="0" style="stop-color:#ffbe96"/>
						<stop offset="1" style="stop-color:#ffbe96"/>
					</linearGradient>
					<path style="fill:url(#SVGID_00000093134515245197269500000016404580675862331825_);" d="M1428.742,1586.337       c0,0-34.99-24.501-37.758-4.175c-2.767,20.325,31.435,29.779,48.492,22.353L1428.742,1586.337z"/>
				</g>
				<g>
					<g>

							<linearGradient id="SVGID_00000035503469432877752300000016319143807853397897_" gradientUnits="userSpaceOnUse" x1="6229.9697" y1="1836.3977" x2="6421.1758" y2="2633.0901" gradientTransform="matrix(1 0 0 1 -4705.6621 0)">
							<stop offset="0" style="stop-color:#00233f"/>
							<stop offset="1" style="stop-color:#00233f"/>
						</linearGradient>
						<path style="fill:url(#SVGID_00000035503469432877752300000016319143807853397897_);" d="M1381.486,2163.917l81.315-283.97        c0.923-3.223,3.673-5.574,7.004-5.963c14.733-1.719,57.423-6.545,106.713-10.714c59.371-5.022,128.32-9.091,169.521-5.63        c5.857,0.492,9.397,6.687,6.792,11.957c-23.429,47.401-119.803,240.216-168.064,303.38c-1.599,2.093-4.072,3.316-6.705,3.292        l-188.664-1.755C1383.907,2174.462,1379.975,2169.196,1381.486,2163.917z"/>

							<linearGradient id="SVGID_00000007387866317435131450000016805800255234613890_" gradientUnits="userSpaceOnUse" x1="6098.9502" y1="2047.1652" x2="6207.2832" y2="2047.1652" gradientTransform="matrix(1 0 0 1 -4705.6621 0)">
							<stop offset="0" style="stop-color:#ffbe96"/>
							<stop offset="1" style="stop-color:#ffbe96"/>
						</linearGradient>
						<path style="fill:url(#SVGID_00000007387866317435131450000016805800255234613890_);" d="M1401.132,2095.311        c0,0-11.328-46.577-6.758-63.102c4.569-16.525,13.422-37.771,42.93-33.05c29.509,4.721,64.317,17.152,64.317,17.152        s-1.758,21.524-24.185,14.58l13.908,10.761c0,0-1.988,17.234-20.931,8.027l12.935,14.271c0,0-8.136,14.155-22.073,5.076        C1447.337,2059.947,1440.656,2100.919,1401.132,2095.311z"/>
					</g>
					<path style="fill:#91B3FA;" d="M1571.097,1948.042c0,13.183,10.687,23.869,23.87,23.869c13.182,0,23.869-10.686,23.869-23.869       c0-13.184-10.687-23.87-23.869-23.87C1581.783,1924.172,1571.097,1934.858,1571.097,1948.042z"/>
					<path style="fill:#91B3FA;" d="M1472.002,1963.776l-6.085-1.797l16.554-56.16c2.701-9.146,10.085-16.018,19.265-17.926       c52.476-10.956,190.685-13.187,196.541-13.28l0.099,6.345c-1.428,0.018-143.46,2.317-195.345,13.143       c-6.89,1.437-12.437,6.612-14.476,13.515L1472.002,1963.776z"/>
				</g>
			</g>
			<g>
				<path style="fill:#7D97F4;" d="M509.653,2758.484c-8.668,12.826-43.118,303.23-48.51,410.486      c-0.365,7.253,5.437,13.301,12.699,13.301l0,0c6.263,0,11.592-4.563,12.559-10.75l63.012-403.799L509.653,2758.484z"/>
				<path style="fill:#7D97F4;" d="M786.633,2758.484c8.668,12.826,43.118,303.23,48.51,410.486      c0.365,7.253-5.436,13.301-12.7,13.301l0,0c-6.262,0-11.592-4.563-12.557-10.75l-63.012-403.799L786.633,2758.484z"/>
				<path style="fill:#7D97F4;" d="M457.54,2735.819l-0.029,3.166c-0.208,22.783,19.419,41.47,43.995,41.889l291.255,4.954      c24.222,0.412,44.413-17.092,45.588-39.521l0.152-2.898c1.225-23.392-18.639-43.099-43.899-43.552l-291.378-5.222      C478.284,2694.187,457.75,2712.699,457.54,2735.819z"/>
			</g>
			<g>
				<g>
					<path style="fill:#91B3FA;" d="M1071.078,3158.421c-51.775,0-74.683-4.442-84.925-8.492       c1.991,8.503,9.564,15.215,19.134,15.215h183.162c6.168,0,10.061-5.904,8.587-11.25       C1176.157,3155.573,1131.813,3158.421,1071.078,3158.421z"/>

						<linearGradient id="SVGID_00000150785576267069525800000016632044978013481365_" gradientUnits="userSpaceOnUse" x1="1067.8546" y1="2574.6421" x2="1090.3816" y2="3126.5535">
						<stop offset="0" style="stop-color:#26547c"/>
						<stop offset="1" style="stop-color:#26547c"/>
					</linearGradient>
					<path style="fill:url(#SVGID_00000150785576267069525800000016632044978013481365_);" d="M1197.036,3153.894       c-0.297-1.078-0.734-2.138-1.5-3.117c-13.953-17.813-41.98-45.789-80.106-45.252c-55.852,0.786-75.325,6.845-118.728,0.34       l-10.239,33.939c-1.043,3.459-1.062,6.915-0.31,10.124c10.243,4.051,33.151,8.492,84.925,8.492       C1131.813,3158.421,1176.157,3155.573,1197.036,3153.894z"/>
				</g>

					<linearGradient id="SVGID_00000119826205624433053990000003899896806796926886_" gradientUnits="userSpaceOnUse" x1="996.7025" y1="3093.8923" x2="1053.8455" y2="3093.8923">
					<stop offset="0" style="stop-color:#ffbe96"/>
					<stop offset="1" style="stop-color:#ffbe96"/>
				</linearGradient>
				<path style="fill:url(#SVGID_00000119826205624433053990000003899896806796926886_);" d="M1009.271,3069.292l-12.569,42.746      c0,0,27.844,12.676,52.334,2.5l4.809-37.034L1009.271,3069.292z"/>
				<g>
					<path style="fill:#91B3FA;" d="M1388.897,3131.502c-40.36,32.429-60.987,43.332-71.496,46.604       c6.852,5.35,16.94,5.815,24.4-0.179l142.783-114.724c4.808-3.864,4.163-10.883-0.318-14.107       C1469.036,3063.475,1436.243,3093.46,1388.897,3131.502z"/>

						<linearGradient id="SVGID_00000128473700488503210040000011126431042191019671_" gradientUnits="userSpaceOnUse" x1="1369.5428" y1="2562.3284" x2="1392.0698" y2="3114.24">
						<stop offset="0" style="stop-color:#26547c"/>
						<stop offset="1" style="stop-color:#26547c"/>
					</linearGradient>
					<path style="fill:url(#SVGID_00000128473700488503210040000011126431042191019671_);" d="M1484.265,3049.095       c-0.904-0.65-1.906-1.2-3.113-1.479c-21.98-5.081-61.269-9.231-90.655,15.066c-43.049,35.594-54.452,52.492-92.34,74.63       l13.174,32.745c1.344,3.337,3.483,6.03,6.07,8.049c10.509-3.272,31.136-14.175,71.496-46.604       C1436.243,3093.46,1469.036,3063.475,1484.265,3049.095z"/>
				</g>

					<linearGradient id="SVGID_00000076569314340267780620000001400197322254738841_" gradientUnits="userSpaceOnUse" x1="680.7304" y1="2836.0479" x2="1133.0813" y2="2836.0479">
					<stop offset="0" style="stop-color:#00233f"/>
					<stop offset="1" style="stop-color:#00233f"/>
				</linearGradient>
				<path style="fill:url(#SVGID_00000076569314340267780620000001400197322254738841_);" d="M740.406,2582.273      c0,0,309.976,25.31,373.565,55.244s-51.892,449.484-51.892,449.484s-17.312,8.331-55.832-3.644c0,0,39.5-309.611,10.107-376.747      l-335.624-54.896L740.406,2582.273z"/>

					<linearGradient id="SVGID_00000169553022010797853900000014128516899123275157_" gradientUnits="userSpaceOnUse" x1="1267.3583" y1="3098.7017" x2="1335.5789" y2="3098.7017">
					<stop offset="0" style="stop-color:#ffbe96"/>
					<stop offset="1" style="stop-color:#ffbe96"/>
				</linearGradient>
				<path style="fill:url(#SVGID_00000169553022010797853900000014128516899123275157_);" d="M1267.358,3078.378      c2.878,2.623,30.799,58.934,30.799,58.934s31.083-6.725,37.422-26.396l-27.968-50.824L1267.358,3078.378z"/>

					<linearGradient id="SVGID_00000031198298660691758680000004717506792913813944_" gradientUnits="userSpaceOnUse" x1="1091.6237" y1="2647.5813" x2="595.0173" y2="3210.6348">
					<stop offset="0" style="stop-color:#00233f"/>
					<stop offset="1" style="stop-color:#00233f"/>
				</linearGradient>
				<path style="fill:url(#SVGID_00000031198298660691758680000004717506792913813944_);" d="M553.711,2579.683      c0,0-10.102,24.306-9.689,56.606c0.57,44.67,36.482,80.918,81.1,83.145l366.442,16.711c7.739,0.353,14.286,5.708,16.225,13.209      c8.611,33.307,50.701,135.59,256.445,339.686c5.473,5.43,14.001,6.354,20.52,2.236l29.288-18.5      c3.075-1.942,4.056-5.973,2.218-9.111l-213.361-364.347c-11.207-18.493-29.221-31.854-50.171-37.209l-312.322-79.835      L553.711,2579.683z"/>

					<linearGradient id="SVGID_00000067937894108260899980000012022271294189694644_" gradientUnits="userSpaceOnUse" x1="888.4167" y1="2137.3647" x2="922.0504" y2="2052.5493">
					<stop offset="0" style="stop-color:#ffbe96"/>
					<stop offset="1" style="stop-color:#ffbe96"/>
				</linearGradient>
				<path style="fill:url(#SVGID_00000067937894108260899980000012022271294189694644_);" d="M914.836,2010.541      c0,0-39.255,69.406-79.278,103.031l82.725,46.156c0,0,18.641-73.475,61.229-94.993L914.836,2010.541z"/>

					<linearGradient id="SVGID_00000133501577325272881860000006576057586816730781_" gradientUnits="userSpaceOnUse" x1="1796.9087" y1="1063.4705" x2="765.0093" y2="2635.8877">
					<stop offset="0" style="stop-color:#26547c"/>
					<stop offset="1" style="stop-color:#26547c"/>
				</linearGradient>
				<path style="fill:url(#SVGID_00000133501577325272881860000006576057586816730781_);" d="M547.055,2582.273      c0,0,98.926,24.109,193.352,0c0,0,132.128-177.618,183.245-225.961c0,0,81.537,128.664,263.022,146.897l10.121-22.617      c0,0-144.482-66.603-188.961-168.94c-44.48-102.337-62.344-145.984-102.81-172.685c-25.202-16.628-40.292-27.988-48.089-34.191      c-4.27-3.396-10.162-3.781-14.821-0.942C799.169,2130.005,597.099,2268.401,547.055,2582.273z"/>

					<linearGradient id="SVGID_00000009571837285216260790000009074734098492957608_" gradientUnits="userSpaceOnUse" x1="910.2352" y1="2276.803" x2="1564.0488" y2="1187.1156">
					<stop offset="0" style="stop-color:#00233f"/>
					<stop offset="1" style="stop-color:#00233f"/>
				</linearGradient>
				<path style="fill:url(#SVGID_00000009571837285216260790000009074734098492957608_);" d="M918.288,2353.81      c-1.906,0-3.789-0.855-5.038-2.485c-31.503-41.077-49.049-86.356-49.78-88.259c-1.255-3.271,0.378-6.94,3.65-8.198      c3.278-1.258,6.941,0.378,8.198,3.65c0.173,0.453,17.657,45.515,48.002,85.086c2.132,2.782,1.609,6.76-1.174,8.899      C920.995,2353.382,919.635,2353.81,918.288,2353.81z"/>

					<linearGradient id="SVGID_00000000910461641454147180000011940431262410914195_" gradientUnits="userSpaceOnUse" x1="1175.7615" y1="2467.2161" x2="1333.3428" y2="2467.2161">
					<stop offset="0" style="stop-color:#ffbe96"/>
					<stop offset="1" style="stop-color:#ffbe96"/>
				</linearGradient>
				<path style="fill:url(#SVGID_00000000910461641454147180000011940431262410914195_);" d="M1175.761,2468.78l20.428-5.445      l62.024-14.362c7.466-1.729,15.314-0.406,21.801,3.675l53.329,33.553l-147.274-0.248L1175.761,2468.78z"/>
				<g>

						<linearGradient id="SVGID_00000007408775550519356180000001660501251903763857_" gradientUnits="userSpaceOnUse" x1="2898.2417" y1="2425.6287" x2="2729.3708" y2="2554.8406" gradientTransform="matrix(0.9914 -0.1306 0.1306 0.9914 -2198.9988 -61.3823)">
						<stop offset="0" style="stop-color:#ffbe96"/>
						<stop offset="1" style="stop-color:#ffbe96"/>
					</linearGradient>
					<path style="fill:url(#SVGID_00000007408775550519356180000001660501251903763857_);" d="M977.164,1906.466       c0,0,38.149,63.417,44.769,98.468c6.619,35.051,17.246,56.961-22.645,69.45c-39.892,12.49-76.966-3.317-100.233-36.036       c0,0-36.335-50.352-32.711-73.41C869.969,1941.88,977.164,1906.466,977.164,1906.466z"/>

						<linearGradient id="SVGID_00000163757427408065723800000013399940804475758226_" gradientUnits="userSpaceOnUse" x1="2779.6021" y1="2323.6284" x2="2932.5198" y2="2520.5098" gradientTransform="matrix(0.9914 -0.1306 0.1306 0.9914 -2198.9988 -61.3823)">
						<stop offset="0" style="stop-color:#00233f"/>
						<stop offset="1" style="stop-color:#00233f"/>
					</linearGradient>
					<path style="fill:url(#SVGID_00000163757427408065723800000013399940804475758226_);" d="M909.675,2011.222l5.161-0.68       c0,0-27.013-40.819-9.337-50.944c17.676-10.125,89.706-34.972,102.216-63.34c12.059-27.348-5.98-58.245-27.728-64.691       c-1.376-0.408-2.828,0.406-3.326,1.751l-1.278,3.444c-0.874,2.359-4.176,2.453-5.185,0.149l0,0       c-0.956-2.186-4.085-2.278-5.071-0.105c-3.854,8.498-15.408,23.014-50.048,34.244c-49.152,15.934-79.769,40.71-76.001,75.634       c0.239,2.212-1.959,3.739-3.994,2.839c-4.018-1.777-10.109-2.056-17.182,5.68c-12.3,13.453-2.665,42.879,30.928,63.703       c1.596,0.989,1.881,3.241,0.454,4.462c-5.026,4.303-12.096,13.898,10.632,22.45c23.251,8.749,35.938,5.789,40.626,3.909       c1.262-0.506,1.982-1.812,1.722-3.145l-5.971-30.602c-0.309-1.583,0.781-3.099,2.38-3.309L909.675,2011.222z"/>

						<linearGradient id="SVGID_00000140011006492111619220000003977957641157342655_" gradientUnits="userSpaceOnUse" x1="2877.2944" y1="2398.2544" x2="2708.4248" y2="2527.4656" gradientTransform="matrix(0.9914 -0.1306 0.1306 0.9914 -2198.9988 -61.3823)">
						<stop offset="0" style="stop-color:#ffbe96"/>
						<stop offset="1" style="stop-color:#ffbe96"/>
					</linearGradient>
					<path style="fill:url(#SVGID_00000140011006492111619220000003977957641157342655_);" d="M911.793,2017.51       c0,0-16.834-41.502-34.514-26.914c-17.679,14.588,16.343,46.834,32.045,46.401L911.793,2017.51z"/>
				</g>
			</g>
			<g>
				<g>

						<linearGradient id="SVGID_00000064313382661373063390000000840513140967830678_" gradientUnits="userSpaceOnUse" x1="21227.1875" y1="-22775.1426" x2="20805.748" y2="-22367.6934" gradientTransform="matrix(-1.388 -0.0686 -0.0685 1.3855 -4690.1738 -570.6171)">
						<stop offset="0" style="stop-color:#00233f"/>
						<stop offset="1" style="stop-color:#00233f"/>
					</linearGradient>
					<path style="fill:url(#SVGID_00000064313382661373063390000000840513140967830678_);" d="M1118.864,2515.091       c0.24,0.012,0.481,0.018,0.723,0.016l314.625-0.313c7.777-0.007,14.075-6.306,14.066-14.07       c-0.008-7.766-6.343-14.183-14.1-14.043l-314.626,0.314c-7.777,0.006-14.075,6.305-14.066,14.069       C1105.496,2508.586,1111.422,2514.724,1118.864,2515.091z"/>
				</g>
				<g>

						<linearGradient id="SVGID_00000050643674082799632060000004013701216817801615_" gradientUnits="userSpaceOnUse" x1="18195.043" y1="-22757.0957" x2="17773.6211" y2="-22349.6621" gradientTransform="matrix(0.6475 -1.2297 -1.2274 -0.6463 8775.9707 -5472.2012)">
						<stop offset="0" style="stop-color:#00233f"/>
						<stop offset="1" style="stop-color:#00233f"/>
					</linearGradient>
					<path style="fill:url(#SVGID_00000050643674082799632060000004013701216817801615_);" d="M1556.057,2206.974       c-0.112,0.213-0.22,0.428-0.321,0.649l-132.381,285.42c-3.275,7.055-0.218,15.421,6.826,18.687       c7.046,3.267,15.535,0.228,18.679-6.864l132.381-285.419c3.274-7.055,0.217-15.422-6.826-18.688       C1567.592,2197.597,1559.528,2200.382,1556.057,2206.974z"/>
				</g>
			</g>
			<g>
				<g>
					<rect x="2346.728" y="2801.934" style="fill:#7D97F4;" width="33.207" height="359.113"/>
					<path style="fill:#7D97F4;" d="M2508.753,3167.971h-290.845l0,0c0-11.938,9.678-21.616,21.616-21.616h247.613       C2499.076,3146.355,2508.753,3156.033,2508.753,3167.971L2508.753,3167.971z"/>
					<path style="fill:#7D97F4;" d="M2551.918,2789.47c0,19.641-16.07,35.711-35.711,35.711h-294.259       c-19.641,0-35.711-16.07-35.711-35.711v-32.29c0-19.641,16.07-35.711,35.711-35.711h294.259       c19.641,0,35.711,16.07,35.711,35.711V2789.47z"/>
				</g>
				<g>

						<linearGradient id="SVGID_00000124135757945180015480000016402910080226995852_" gradientUnits="userSpaceOnUse" x1="1753.1082" y1="4229.4966" x2="2174.2903" y2="2544.7629">
						<stop offset="0" style="stop-color:#ffbe96"/>
						<stop offset="1" style="stop-color:#ffbe96"/>
					</linearGradient>
					<path style="fill:url(#SVGID_00000124135757945180015480000016402910080226995852_);" d="M2118.182,2562.488       c0,0-49.344,7.649-104.823,44.737c-8.731,5.836-13.521,16.011-12.205,26.431c6.644,52.621,33.957,222.938,124.026,389.289       c4.749,8.771,6.114,18.983,4.019,28.735l-15.648,72.822l-29.019,27.209h74.746l49.768-134.68l-21.281-6.729       c-16.5-5.218-27.82-20.394-28.12-37.697l-2.497-144.474c2.13-64.366-39.468-108.777-39.468-108.777l119.372-5.807       L2118.182,2562.488z"/>

						<linearGradient id="SVGID_00000082330932348091762200000002143695354390322610_" gradientUnits="userSpaceOnUse" x1="2706.1338" y1="2165.5156" x2="2305.7358" y2="2839.6023">
						<stop offset="0" style="stop-color:#00233f"/>
						<stop offset="1" style="stop-color:#00233f"/>
					</linearGradient>
					<path style="fill:url(#SVGID_00000082330932348091762200000002143695354390322610_);" d="M2055.344,3164.848       c-6.807,8.909,73.265,20.665,113.72,1.178c0,0,56.079-97.569,56.079-147.805c0,0-4.451-10.243-37.379-7.92       c0,0-18.829,115.527-38.711,128.468c-19.883,12.941-55.626,1.309-55.626,1.309S2065.389,3151.703,2055.344,3164.848z"/>

						<linearGradient id="SVGID_00000099657088600987295050000009815326337888099510_" gradientUnits="userSpaceOnUse" x1="1957.7664" y1="3163.9431" x2="2042.0026" y2="1907.4135">
						<stop offset="0" style="stop-color:#ffbe96"/>
						<stop offset="1" style="stop-color:#fc843b"/>
					</linearGradient>
					<path style="fill:url(#SVGID_00000099657088600987295050000009815326337888099510_);" d="M2221.948,2721.47       c-0.635-1.099-128.522-15.377-128.522-15.377s4.185,38.884-8.895,92.412c-13.08,53.528-200.846,285.439-200.846,285.439       l19.688,62.411c-60.872,21.205-120.75,24.594-179.671,10.809l122.012-73.22c0,0,114.19-389.138,184.135-458.56l128.192-44.35       L2221.948,2721.47z"/>

						<linearGradient id="SVGID_00000093879083072850432880000009310499251759301816_" gradientUnits="userSpaceOnUse" x1="2031.1371" y1="2613.3105" x2="2589.3159" y2="2613.3105">
						<stop offset="0" style="stop-color:#00233f"/>
						<stop offset="1" style="stop-color:#00233f"/>
					</linearGradient>
					<path style="fill:url(#SVGID_00000093879083072850432880000009310499251759301816_);" d="M2508.753,2495.044       c0,0,73.682,109.592,79.728,159.583c6.046,49.991-20.183,70.304-97.494,73.654c-77.311,3.35-283.7,3.296-283.7,3.296       l-176.15-150.542c0,0,128.37-45.806,161.746-58.758C2226.259,2509.324,2508.753,2495.044,2508.753,2495.044z"/>

						<linearGradient id="SVGID_00000009579838639368775540000005696101872626014848_" gradientUnits="userSpaceOnUse" x1="2477.4297" y1="2029.6689" x2="2077.0847" y2="2703.6672">
						<stop offset="0" style="stop-color:#00233f"/>
						<stop offset="1" style="stop-color:#00233f"/>
					</linearGradient>
					<path style="fill:url(#SVGID_00000009579838639368775540000005696101872626014848_);" d="M1895.933,3125.337       c0,0,21.196,20.53,6.878,43.372c0,0-167.909,29.762-213.498,16.259c0,0,9.466-21.606,60.8-46.198l-3.787,2.907       c-4.793,3.68-1.982,11.345,4.051,11.001C1784.204,3150.749,1854.209,3144.552,1895.933,3125.337z"/>
				</g>
				<g>

						<linearGradient id="SVGID_00000044152084652189272270000000438496561140256402_" gradientUnits="userSpaceOnUse" x1="2424.3157" y1="1681.0231" x2="2342.1248" y2="2112.8164">
						<stop offset="0" style="stop-color:#00233f"/>
						<stop offset="1" style="stop-color:#00233f"/>
					</linearGradient>
					<path style="fill:url(#SVGID_00000044152084652189272270000000438496561140256402_);" d="M2189.59,1800.028       c150.616-25.607,221.526,97.236,216.345,123.047c-0.687,3.424,2.539,6.321,5.912,5.413       c17.291-4.654,55.492-10.522,79.171,19.15c20.907,26.197,5.283,50.919-7.456,64.489c-3.076,3.277-0.49,8.598,3.969,8.035       c31.792-4.013,100.872-4.975,112.174,59.738c10.54,60.347-31.463,77.364-56.374,82.161c-4.215,0.812-5.2,6.351-1.576,8.65       c12.428,7.884,26.826,24.175,21.008,56.327c-9.119,50.393-107.918,46.268-119.465,45.611c-0.731-0.041-1.423-0.253-2.06-0.615       l-158.249-90.254c-1.234-0.704-2.088-1.921-2.331-3.321l-31.948-184.508c-0.259-1.492,0.209-3.019,1.259-4.11l-103.165-145.589       C2109.354,1838.742,2187.814,1800.329,2189.59,1800.028z"/>

						<linearGradient id="SVGID_00000139977943916537020230000012309397816872234145_" gradientUnits="userSpaceOnUse" x1="2034.1322" y1="3078.9971" x2="2348.3677" y2="2374.5002">
						<stop offset="0" style="stop-color:#000000"/>
						<stop offset="1" style="stop-color:#01a26d"/>
					</linearGradient>
					<path style="fill:url(#SVGID_00000139977943916537020230000012309397816872234145_);" d="M2309.49,2480.536       c0,0-85.802-81.701-128.038-135.816c-22.831-29.252-30-67.76-19.441-103.333c19.282-64.964,53.551-132.25,56.677-142.722       c4.79-16.052,100.997-15.384,100.997-15.384s189.316,122.868,263.699,330.997l-83.537,26.007c0,0-49.431-82.929-98.271-135.654       c0,0,84.511,111.642,87.487,157.346L2309.49,2480.536z"/>

						<linearGradient id="SVGID_00000016774740693303759950000009570067886824775328_" gradientUnits="userSpaceOnUse" x1="2288.301" y1="2221.2476" x2="2254.668" y2="2005.4368">
						<stop offset="0" style="stop-color:#ffbe96"/>
						<stop offset="1" style="stop-color:#ffbe96"/>
					</linearGradient>
					<path style="fill:url(#SVGID_00000016774740693303759950000009570067886824775328_);" d="M2207.052,2008.956       c1.004,3.337,26.115,86.582,28.079,88.309c1.965,1.728,55.069,4.584,80.065-12.5l-62.003-121.279L2207.052,2008.956z"/>
					<g>

							<linearGradient id="SVGID_00000034047263599843740500000008555793308067124102_" gradientUnits="userSpaceOnUse" x1="-231.9266" y1="5927.4321" x2="-11.7832" y2="6076.9634" gradientTransform="matrix(0.6042 -0.7968 0.7968 0.6042 -2477.407 -1773.6736)">
							<stop offset="0" style="stop-color:#ffbe96"/>
							<stop offset="1" style="stop-color:#ffbe96"/>
						</linearGradient>
						<path style="fill:url(#SVGID_00000034047263599843740500000008555793308067124102_);" d="M2106.387,1901.992        c0,0-12.136,47.688,21.438,111.827c33.574,64.139,71.583,64.071,92.36,43.542c20.777-20.53,46.398-55.367,40.312-117.378        C2254.412,1877.971,2123.912,1841.325,2106.387,1901.992z"/>

							<linearGradient id="SVGID_00000132067947433914466800000009526550678698566060_" gradientUnits="userSpaceOnUse" x1="-85.0753" y1="5748.5771" x2="-167.267" y2="6180.375" gradientTransform="matrix(0.6042 -0.7968 0.7968 0.6042 -2477.407 -1773.6736)">
							<stop offset="0" style="stop-color:#00233f"/>
							<stop offset="1" style="stop-color:#00233f"/>
						</linearGradient>
						<path style="fill:url(#SVGID_00000132067947433914466800000009526550678698566060_);" d="M2214.055,1943.351        c0,0-55.704-85.158-107.944-18.135l-0.945,24.375c0,0-61.177-7.262-50.472-63.361c10.705-56.1,63.584-91.162,131.674-66.861        c68.09,24.301,107.109,49.219,111.502,98.016c4.394,48.796-34.428,38.097-34.428,38.097s-12.662-34.359-30.667-37.932        c-18.004-3.573-13.324,23.223-13.324,23.223L2214.055,1943.351z"/>

							<linearGradient id="SVGID_00000067219120175467209470000010595590056997792930_" gradientUnits="userSpaceOnUse" x1="-218.7301" y1="5908.0044" x2="1.4119" y2="6057.5347" gradientTransform="matrix(0.6042 -0.7968 0.7968 0.6042 -2477.407 -1773.6736)">
							<stop offset="0" style="stop-color:#ffbe96"/>
							<stop offset="1" style="stop-color:#ffbe96"/>
						</linearGradient>
						<path style="fill:url(#SVGID_00000067219120175467209470000010595590056997792930_);" d="M2228.318,1942.207        c0,0-28.89-43.607,0.713-50.11c29.604-6.503,25.01,42.492,21.815,60.614L2228.318,1942.207z"/>
					</g>

						<linearGradient id="SVGID_00000098221554923798651840000007830112220065364649_" gradientUnits="userSpaceOnUse" x1="2426.4097" y1="2466.2856" x2="2894.4519" y2="2466.2856">
						<stop offset="0" style="stop-color:#ffbe96"/>
						<stop offset="1" style="stop-color:#ffbe96"/>
					</linearGradient>
					<path style="fill:url(#SVGID_00000098221554923798651840000007830112220065364649_);" d="M2134.69,2486.602l63.041-60.762       l87.208,36.841c0,0,86.806,13.449,136.489,0c49.683-13.449,49.683-13.449,49.683-13.449l112.272-34.953l17.633,49.834       c4.477,12.652-0.022,26.699-10.962,34.472c-9.713,6.902-21.099,14.488-28.355,17.662       c-14.785,6.468-364.472-4.475-364.472-4.475L2134.69,2486.602z"/>
				</g>
				<g>

						<linearGradient id="SVGID_00000015356983983325748270000018232592877090204818_" gradientUnits="userSpaceOnUse" x1="2351.5256" y1="2592.3948" x2="2056.8894" y2="2673.1467" gradientTransform="matrix(0.9988 -0.0494 0.0494 0.9988 -41.469 -55.0328)">
						<stop offset="0" style="stop-color:#00233f"/>
						<stop offset="1" style="stop-color:#00233f"/>
					</linearGradient>
					<path style="fill:url(#SVGID_00000015356983983325748270000018232592877090204818_);" d="M2373.257,2515.248       c-0.28,0.014-0.56,0.022-0.842,0.019l-365.687-0.399c-9.04-0.007-16.36-7.344-16.351-16.384       c0.009-9.043,7.371-16.514,16.388-16.351l365.687,0.399c9.04,0.008,16.36,7.344,16.351,16.384       C2388.792,2507.675,2381.905,2514.821,2373.257,2515.248z"/>

						<linearGradient id="SVGID_00000109714289563192334220000011681266237244085147_" gradientUnits="userSpaceOnUse" x1="2036.5231" y1="2227.748" x2="1827.4652" y2="2448.7092">
						<stop offset="0" style="stop-color:#00233f"/>
						<stop offset="1" style="stop-color:#00233f"/>
					</linearGradient>
					<path style="fill:url(#SVGID_00000109714289563192334220000011681266237244085147_);" d="M1677.991,2183.226h304.547       c22.466,0,42.915,12.965,52.498,33.286l140.792,298.541h-378.471c-14.478,0-27.486-8.846-32.807-22.311l-109.178-276.256       C1649.064,2200.525,1660.827,2183.226,1677.991,2183.226z"/>
					<path style="fill:#7D97F4;" d="M1892.547,2336.298c6.6,20.503,1.724,40.417-10.89,44.477       c-12.614,4.06-28.189-9.271-34.789-29.775c-6.6-20.504-1.724-40.417,10.89-44.477       C1870.372,2302.463,1885.948,2315.794,1892.547,2336.298z"/>
				</g>
			</g>
			<g>
				<g>

						<linearGradient id="SVGID_00000091735427818442143560000015903105804995455931_" gradientUnits="userSpaceOnUse" x1="-9410.1699" y1="3508.6206" x2="-9407.083" y2="3835.8411" gradientTransform="matrix(-1 0 0 1 -6719.2798 0)">
						<stop offset="0" style="stop-color:#00233f"/>
						<stop offset="1" style="stop-color:#00233f"/>
					</linearGradient>
					<path style="fill:url(#SVGID_00000091735427818442143560000015903105804995455931_);" d="M2790.168,3122.707       c0,0,3.838,21.312,5.354,46.611c0.646,10.78-7.343,20.147-18.092,21.19c-37.431,3.63-122.631,10.333-177.034,2.483       c-7.621-1.1-10.648-10.46-5.015-15.709c22.433-20.899,76.606-61.552,165.773-70.439L2790.168,3122.707z"/>

						<linearGradient id="SVGID_00000137109937390770324250000012408936756573086382_" gradientUnits="userSpaceOnUse" x1="-9489.0459" y1="3143.1982" x2="-9506.0244" y2="3010.4583" gradientTransform="matrix(-1 0 0 1 -6719.2798 0)">
						<stop offset="0" style="stop-color:#ffbe96"/>
						<stop offset="1" style="stop-color:#ffbe96"/>
					</linearGradient>
					<path style="fill:url(#SVGID_00000137109937390770324250000012408936756573086382_);" d="M2808.776,3074.669l-18.924,46.386       c-2.594,6.357-9.042,10.308-15.87,9.594c-4.634-0.485-10.121-1.374-15.459-2.994c-10.68-3.242-16.703-14.563-13.507-25.256       l14.283-47.777L2808.776,3074.669z"/>

						<linearGradient id="SVGID_00000024683852195853796160000003662752804719375267_" gradientUnits="userSpaceOnUse" x1="-9852.2656" y1="3512.7898" x2="-9849.1787" y2="3840.0083" gradientTransform="matrix(-1 0 0 1 -6719.2798 0)">
						<stop offset="0" style="stop-color:#00233f"/>
						<stop offset="1" style="stop-color:#00233f"/>
					</linearGradient>
					<path style="fill:url(#SVGID_00000024683852195853796160000003662752804719375267_);" d="M3132.323,3159.651       c0,0-37.896,31.707-52.661,72.379c-4.062,11.186,4.522,22.97,16.423,22.97h77.984c11.415,0,20.165-10.268,18.177-21.508       C3187.278,3205.407,3172.954,3159.769,3132.323,3159.651z"/>

						<linearGradient id="SVGID_00000173850831769215776440000013838155186377840055_" gradientUnits="userSpaceOnUse" x1="-9860.1318" y1="3188.6924" x2="-9876.6768" y2="3059.3406" gradientTransform="matrix(-1 0 0 1 -6719.2798 0)">
						<stop offset="0" style="stop-color:#ffbe96"/>
						<stop offset="1" style="stop-color:#ffbe96"/>
					</linearGradient>
					<path style="fill:url(#SVGID_00000173850831769215776440000013838155186377840055_);" d="M3179.269,3118.385       c0,0-7.654,33.881-13.539,56.272c-1.068,4.064-5.404,6.294-9.362,4.879c-11.802-4.219-21.405-6.085-28.386-5.148       c-3.227,0.433-6.045-2.251-6.087-5.507l-0.733-56.274L3179.269,3118.385z"/>

						<linearGradient id="SVGID_00000129180344256470208900000001046849278260935834_" gradientUnits="userSpaceOnUse" x1="2880.4761" y1="2144.384" x2="3033.6594" y2="2890.0271">
						<stop offset="0" style="stop-color:#00233f"/>
						<stop offset="1" style="stop-color:#00233f"/>
					</linearGradient>
					<path style="fill:url(#SVGID_00000129180344256470208900000001046849278260935834_);" d="M2977.723,2356.008l-230.502,703.202       c0,0,44.212,28.954,65.274,27.748l273.784-565.137c0,0,47.909,348.218,24.695,598.212l78.419,5.983       c0,0,127.511-638.862,30.93-857.676L2977.723,2356.008z"/>

						<linearGradient id="SVGID_00000029739152104841491940000006279321852485654461_" gradientUnits="userSpaceOnUse" x1="-9870.124" y1="2619.0464" x2="-9851.6016" y2="2582.0029" gradientTransform="matrix(-1 0 0 1 -6719.2798 0)">
						<stop offset="0" style="stop-color:#26547c"/>
						<stop offset="1" style="stop-color:#26547c"/>
					</linearGradient>
					<path style="fill:url(#SVGID_00000029739152104841491940000006279321852485654461_);" d="M3084.798,2515.746       c0.091,0,0.187-0.007,0.281-0.018c1.223-0.155,2.09-1.27,1.935-2.493l-8.945-70.999c-0.152-1.221-1.258-2.073-2.494-1.935       c-1.223,0.155-2.09,1.27-1.935,2.493l8.945,70.999C3082.728,2514.922,3083.688,2515.746,3084.798,2515.746z"/>
				</g>

					<linearGradient id="SVGID_00000079487302842780887000000013609530408602113413_" gradientUnits="userSpaceOnUse" x1="-9565.3291" y1="1840.9382" x2="-9883.2871" y2="2785.5515" gradientTransform="matrix(-1 0 0 1 -6719.2798 0)">
					<stop offset="0" style="stop-color:#26547c"/>
					<stop offset="1" style="stop-color:#26547c"/>
				</linearGradient>
				<path style="fill:url(#SVGID_00000079487302842780887000000013609530408602113413_);" d="M2934.508,1737.226      c0,0,186.75,16.583,160.333,149.647c0,0,103.231,194.27,151.494,423.116c1.571,7.446-3.418,14.71-10.919,15.994l-311.002,53.25      c-8.579,1.469-16.853-3.882-19.033-12.308l-74.309-287.188l-28.956,133.523l-92.007-23.973l77.455-392.356      C2787.563,1796.931,2798.368,1739.686,2934.508,1737.226z"/>
				<path style="fill:#91B3FA;" d="M2829.49,2066.891c0.162,0,0.327-0.016,0.495-0.052c1.248-0.273,2.041-1.506,1.77-2.756      l-25.924-119.036c-0.274-1.248-1.49-2.035-2.756-1.77c-1.248,0.274-2.042,1.506-1.771,2.756l25.924,119.036      C2827.467,2066.152,2828.425,2066.891,2829.49,2066.891z"/>

					<linearGradient id="SVGID_00000077287222199733764320000005224236460922843795_" gradientUnits="userSpaceOnUse" x1="-9735.084" y1="2339.1289" x2="-9503.1973" y2="2339.1289" gradientTransform="matrix(-1 0 0 1 -6719.2798 0)">
					<stop offset="0" style="stop-color:#ffbe96"/>
					<stop offset="1" style="stop-color:#ffbe96"/>
				</linearGradient>
				<path style="fill:url(#SVGID_00000077287222199733764320000005224236460922843795_);" d="M2848.262,2421.109      c9.797-5.386,21.265-6.878,32.115-4.177l21.637,5.386c4.6,1.145,9.156-2.021,9.686-6.732l22.393-199.305      c27.998,13.295,68.391,11.707,81.712,10.734l-51.538,234.964h-180.35L2848.262,2421.109z"/>

					<linearGradient id="SVGID_00000119803686816745112760000008857844264146011564_" gradientUnits="userSpaceOnUse" x1="-9521.3945" y1="2048.4456" x2="-9088.3574" y2="2048.4456" gradientTransform="matrix(-1 0 0 1 -6719.2798 0)">
					<stop offset="0" style="stop-color:#ffbe96"/>
					<stop offset="1" style="stop-color:#ffbe96"/>
				</linearGradient>
				<path style="fill:url(#SVGID_00000119803686816745112760000008857844264146011564_);" d="M2369.078,1988.795l5.451-18.117      c3.138-10.425,10.844-18.86,20.945-22.921l98.591-39.647c0,0,1.488-12.644-20.831-21.237      c-22.319-8.592-17.102-33.589-17.102-33.589s30.494,13.91,75.132,35.971c25.531,12.617,39.854,34.892,47.449,51.66      l223.402,272.345l-26.229,18.022c-34.49,23.698-81.927,12.056-101.527-24.916l-121.024-232.074      C2492.572,1992.545,2431.087,1996.035,2369.078,1988.795z"/>
				<g>

						<linearGradient id="SVGID_00000163061016374046411040000008303889049674705544_" gradientUnits="userSpaceOnUse" x1="-9677.2949" y1="1805.5699" x2="-9526.5879" y2="1650.9484" gradientTransform="matrix(-1 0 0 1 -6719.2798 0)">
						<stop offset="0" style="stop-color:#ffbe96"/>
						<stop offset="1" style="stop-color:#ffbe96"/>
					</linearGradient>
					<path style="fill:url(#SVGID_00000163061016374046411040000008303889049674705544_);" d="M2874.008,1610.176l57.439,160.758       c0,0-50.862,39.764-87.979,26.319l-28.944-92.15C2814.524,1705.102,2836.63,1592.476,2874.008,1610.176z"/>
					<g>

							<linearGradient id="SVGID_00000181084787173180265950000008553351946057425030_" gradientUnits="userSpaceOnUse" x1="-9458.7324" y1="1553.5282" x2="-9646.627" y2="1802.0967" gradientTransform="matrix(-1 0 0 1 -6719.2798 0)">
							<stop offset="0" style="stop-color:#ffbe96"/>
							<stop offset="1" style="stop-color:#ffbe96"/>
						</linearGradient>
						<path style="fill:url(#SVGID_00000181084787173180265950000008553351946057425030_);" d="M2702.58,1552.442        c0,2.477,55.33,156.631,55.33,156.631l87.348-33.464l-30.734-153.897C2814.524,1521.713,2702.58,1510.971,2702.58,1552.442z"/>

							<linearGradient id="SVGID_00000063622153549974907820000003443204171117273998_" gradientUnits="userSpaceOnUse" x1="3025.8757" y1="846.5982" x2="2827.6375" y2="1421.0369">
							<stop offset="0" style="stop-color:#8d3b26"/>
							<stop offset="1" style="stop-color:#8d3b26"/>
						</linearGradient>
						<path style="fill:url(#SVGID_00000063622153549974907820000003443204171117273998_);" d="M2799.202,1559.205l22.523,79.747        c0.289,1.023,0.437,2.053,0.438,3.116c0.009,6.505-1.602,28.885-24.399,25.841c-20.686-2.762-39.606-4.975-51.636,0.691        c-5.402,2.544-7.986,8.76-5.967,14.38c5.031,14.004,16.95,45.353,31.462,71.009c2.945,5.206,9.404,7.231,14.848,4.754        c16.405-7.464,50.564-24.173,74.895-44.053c3.297-2.694,4.881-6.93,4.096-11.115c-3.828-20.401-15.231-82.447-15.735-100.228        c-0.472-16.69,18.256-29.431,26.501-34.22c2.703-1.571,4.626-4.156,5.358-7.195c2.588-10.743,4.785-35.055-26.227-40.413        c-6.49-1.121-10.722-7.334-9.404-13.787c2.625-12.847,1.785-31.754-22.612-38.717c-24.798-7.078-40.402,7.849-48.338,19.295        c-3.209,4.628-9.214,6.13-14.355,3.832c-2.927-1.308-6.464-1.365-10.264,1.838c-5.121,4.317-12.917,3.003-16.68-2.537        c-7.231-10.644-20.367-21.268-42.606-14.072c-39.463,12.768-37.576,58.267-23.111,83.003        c14.466,24.735,56.464,8.459,76.346-7.932c15.117-12.462,38.134-5.007,48.298-0.718        C2795.853,1553.083,2798.252,1555.842,2799.202,1559.205z"/>

							<linearGradient id="SVGID_00000044869236550747269140000011230521214957991858_" gradientUnits="userSpaceOnUse" x1="-9733.9238" y1="1750.3748" x2="-9583.2178" y2="1595.7542" gradientTransform="matrix(-1 0 0 1 -6719.2798 0)">
							<stop offset="0" style="stop-color:#ffbe96"/>
							<stop offset="1" style="stop-color:#ffbe96"/>
						</linearGradient>
						<path style="fill:url(#SVGID_00000044869236550747269140000011230521214957991858_);" d="M2857.638,1632.465        c0,0-23.355-44.181-7.911-58.055c15.445-13.874,41.611-11.604,40.906,22.945        C2889.758,1640.33,2857.638,1632.465,2857.638,1632.465z"/>
					</g>
				</g>
				<path style="fill:#91B3FA;" d="M2997.682,2230.004c12.745,0,21.843-0.968,22.827-1.076l1.657-0.185l68.001-317.047      c0.269-1.25-0.527-2.482-1.777-2.75c-1.264-0.278-2.48,0.529-2.75,1.777l-67.295,313.757      c-10.12,0.889-64.162,4.477-92.691-15.734l58.907-275.452l-12.295-23.17c-0.599-1.131-2.001-1.56-3.132-0.961      c-1.131,0.602-1.56,2.001-0.961,3.131l11.509,21.683l-59.178,276.719l1.182,0.888      C2942.299,2227.072,2975.503,2230.004,2997.682,2230.004z"/>
			</g>
			<g>

					<linearGradient id="SVGID_00000158748497519321189840000004344053773724748685_" gradientUnits="userSpaceOnUse" x1="596.5228" y1="4604.4004" x2="1154.646" y2="2614.1077">
					<stop offset="0" style="stop-color:#26547c"/>
					<stop offset="1" style="stop-color:#26547c"/>
				</linearGradient>
				<path style="fill:url(#SVGID_00000158748497519321189840000004344053773724748685_);" d="M959.07,3196.643      c-1.562,0-3.149-0.341-4.677-1.057c-6.011-2.822-8.788-10.429-6.202-16.99l248.488-630.495      c2.584-6.559,9.549-9.587,15.566-6.769c6.011,2.822,8.787,10.428,6.202,16.99L969.96,3188.817      C968.032,3193.711,963.662,3196.643,959.07,3196.643z"/>

					<linearGradient id="SVGID_00000132796462509731221840000010481061428650025885_" gradientUnits="userSpaceOnUse" x1="625.664" y1="4612.5732" x2="1183.7877" y2="2622.2786">
					<stop offset="0" style="stop-color:#26547c"/>
					<stop offset="1" style="stop-color:#26547c"/>
				</linearGradient>
				<path style="fill:url(#SVGID_00000132796462509731221840000010481061428650025885_);" d="M1239.003,3196.643      c-4.592,0-8.962-2.93-10.89-7.826l-248.488-630.494c-2.586-6.561,0.191-14.167,6.202-16.99      c6.007-2.823,12.978,0.206,15.566,6.769l248.488,630.495c2.586,6.561-0.191,14.167-6.202,16.99      C1242.154,3196.302,1240.564,3196.643,1239.003,3196.643z"/>

					<linearGradient id="SVGID_00000005954245962630123830000002731441764376903099_" gradientUnits="userSpaceOnUse" x1="2159.9985" y1="5042.8398" x2="2718.1218" y2="3052.5469">
					<stop offset="0" style="stop-color:#26547c"/>
					<stop offset="1" style="stop-color:#26547c"/>
				</linearGradient>
				<path style="fill:url(#SVGID_00000005954245962630123830000002731441764376903099_);" d="M2645.494,3196.643      c-1.562,0-3.149-0.341-4.677-1.057c-6.01-2.822-8.788-10.429-6.201-16.99l248.488-630.495c2.586-6.559,9.548-9.587,15.566-6.769      c6.01,2.822,8.788,10.428,6.201,16.99l-248.488,630.494C2654.456,3193.711,2650.086,3196.643,2645.494,3196.643z"/>

					<linearGradient id="SVGID_00000066475617187063969320000004765324203950918042_" gradientUnits="userSpaceOnUse" x1="2189.1392" y1="5051.0073" x2="2747.2629" y2="3060.7129">
					<stop offset="0" style="stop-color:#26547c"/>
					<stop offset="1" style="stop-color:#26547c"/>
				</linearGradient>
				<path style="fill:url(#SVGID_00000066475617187063969320000004765324203950918042_);" d="M2925.425,3196.643      c-4.592,0-8.961-2.93-10.89-7.826l-248.488-630.494c-2.586-6.561,0.191-14.167,6.201-16.99      c6.007-2.823,12.978,0.206,15.567,6.769l248.487,630.495c2.586,6.561-0.19,14.167-6.201,16.99      C2928.576,3196.302,2926.987,3196.643,2925.425,3196.643z"/>
			</g>
			<g>
				<path style="fill:#91B3FA;" d="M2609.439,2503.57l359.899,0.001v-37.141h-359.899      C2617.143,2466.43,2617.143,2503.57,2609.439,2503.57z"/>

					<linearGradient id="SVGID_00000096028395023229373310000001582554379657975718_" gradientUnits="userSpaceOnUse" x1="2947.3809" y1="1869.3344" x2="2857.7068" y2="2245.9656">
					<stop offset="0" style="stop-color:#00233f"/>
					<stop offset="1" style="stop-color:#00233f"/>
				</linearGradient>
				<path style="fill:url(#SVGID_00000096028395023229373310000001582554379657975718_);" d="M2965.959,2503.57      c1.858,0,3.379-1.521,3.379-3.379v-30.382c0-1.859-1.521-3.379-3.379-3.379h-364.116c-1.858,0-3.379-1.521-3.379-3.379v-1.64      c0-1.858,1.521-3.379,3.379-3.379h388.102c8.585,0,15.544,6.959,15.544,15.543v23.739c0,8.094-6.561,14.655-14.655,14.655      h-388.99c-1.858,0-3.379-1.521-3.379-3.379v-1.64c0-1.858,1.521-3.379,3.379-3.379H2965.959z"/>
			</g>

				<linearGradient id="SVGID_00000155110654973646453250000002885941229573909901_" gradientUnits="userSpaceOnUse" x1="1284.071" y1="4797.1997" x2="1842.1941" y2="2806.9075">
				<stop offset="0" style="stop-color:#26547c"/>
				<stop offset="1" style="stop-color:#26547c"/>
			</linearGradient>
			<path style="fill:url(#SVGID_00000155110654973646453250000002885941229573909901_);" d="M3021.507,2528.607     c1.209-4.146-0.437-8.434-4.489-11.691c-4.052-3.258-10.084-5.144-16.451-5.144H844.085c-8.372,0-16.167,2.831-20.677,7.509     c-4.511,4.678-5.116,10.559-1.605,15.601l23.369,33.55c5.351,7.683,16.946,12.602,29.705,12.602h2110.894     c11.868,0,22.071-5.583,24.324-13.313L3021.507,2528.607z"/>
		</g>
	</g>
</g>
</svg>