<svg xmlns="http://www.w3.org/2000/svg" xmlns:xlink="http://www.w3.org/1999/xlink" version="1.1" x="0px" y="0px" style="enable-background:new 0 0 3710 3710;" xml:space="preserve" viewBox="473.2 426.1 2795.55 2800.4">
<g id="Illustration">
	<g>
		<linearGradient id="SVGID_1_" gradientUnits="userSpaceOnUse" x1="3583.7246" y1="4036.9097" x2="1122.9536" y2="980.7864">
			<stop offset="0" style="stop-color:#DAE3FE"/>
			<stop offset="1" style="stop-color:#E9EFFD"/>
		</linearGradient>
		<path style="fill:url(#SVGID_1_);" d="M2906.751,2831.685c-56.523,59.505-110.004,97.879-152.259,128.197    c-496.695,356.385-1084.418,252.5-1209.325,227.13c-184.449-37.463-540.986-109.877-798.755-413.009    c-389.984-458.613-329.258-1181.145-26.76-1658.098c55.332-87.243,347.609-571.461,941.662-649.114    c359.514-46.995,778.593,47.788,1082.077,302.048C3380.432,1302.555,3335.081,2380.752,2906.751,2831.685z"/>
		<g>

				<ellipse transform="matrix(0.0439 -0.999 0.999 0.0439 159.2395 3528.1592)" style="fill:#91B3FA;" cx="1922.842" cy="1680.888" rx="1199.303" ry="1294.529"/>
			<ellipse style="fill:#BDD0FB;" cx="1852.779" cy="1594.36" rx="1015.804" ry="959.611"/>
		</g>
		<g>
			<path style="fill:#7D97F4;" d="M2353.569,2057.27c-0.159-4.319-3.198-8.404-8.396-11.287c-5.198-2.883-12.092-4.307-19.045-3.934     l-702.407,37.652c-13.059,0.701-23.49,7.465-23.49,15.577v873.806c0,8.635,12.124,14.984,26.078,14.984h735.534     c6.801,0,13.314-1.371,18.068-4.381c4.754-3.01,7.346-6.915,7.191-11.123L2353.569,2057.27z"/>
			<path style="fill:#91B3FA;" d="M2399.867,2038.683h-812.396c-1.764,0-3.447,2.154-4.631,3.656     c-1.184,1.502-1.759,4.157-1.584,6.172l6.522,75.585c0.319,3.665,3.006,7.177,6.215,7.177h805.874     c3.449,0,0.231-4.003,0.231-7.962v-74.864C2400.098,2044.486,2403.317,2038.683,2399.867,2038.683z"/>
			<g style="opacity:0.65;">
				<g>
					<g>

							<linearGradient id="SVGID_00000008149250474383659930000008057365994476486309_" gradientUnits="userSpaceOnUse" x1="1697.9961" y1="913.1578" x2="1697.9961" y2="1452.3599">
							<stop offset="0" style="stop-color:#4F52FF"/>
							<stop offset="1" style="stop-color:#4042E2"/>
						</linearGradient>
						<path style="opacity:0.9;fill:url(#SVGID_00000008149250474383659930000008057365994476486309_);" d="M1714.938,2168.308        h3.152c-23.44,0-40.188,27.897-40.188,54.804v37.785h37.036V2168.308z"/>

							<linearGradient id="SVGID_00000000901096268333924010000014895038152068550541_" gradientUnits="userSpaceOnUse" x1="1696.4202" y1="913.1603" x2="1696.4202" y2="1452.363">
							<stop offset="0" style="stop-color:#4F52FF"/>
							<stop offset="1" style="stop-color:#4042E2"/>
						</linearGradient>
						<path style="opacity:0.9;fill:url(#SVGID_00000000901096268333924010000014895038152068550541_);" d="M1677.902,2288.674        v30.73c0,4.8,1.135,6.305,5.317,6.305h31.719v-37.036H1677.902z"/>

							<linearGradient id="SVGID_00000097473237753891883870000017494426689665435787_" gradientUnits="userSpaceOnUse" x1="1742.7147" y1="913.1578" x2="1742.7147" y2="1452.3599">
							<stop offset="0" style="stop-color:#4F52FF"/>
							<stop offset="1" style="stop-color:#4042E2"/>
						</linearGradient>
						<path style="opacity:0.9;fill:url(#SVGID_00000097473237753891883870000017494426689665435787_);" d="M1731.241,2168.308        h-7.044v92.589h37.036v-37.785C1761.233,2196.205,1754.682,2168.308,1731.241,2168.308z"/>

							<linearGradient id="SVGID_00000034773811474842703370000002471436634478193562_" gradientUnits="userSpaceOnUse" x1="1745.7057" y1="913.1603" x2="1745.7057" y2="1452.363">
							<stop offset="0" style="stop-color:#4F52FF"/>
							<stop offset="1" style="stop-color:#4042E2"/>
						</linearGradient>
						<path style="opacity:0.9;fill:url(#SVGID_00000034773811474842703370000002471436634478193562_);" d="M1724.197,2325.709        h41.915c4.182,0-4.879-1.505-4.879-6.305v-30.73h-37.036V2325.709z"/>
					</g>
					<g>

							<linearGradient id="SVGID_00000129896425633868399680000012632889292514033568_" gradientUnits="userSpaceOnUse" x1="1870.9944" y1="913.1578" x2="1870.9944" y2="1452.3599">
							<stop offset="0" style="stop-color:#4F52FF"/>
							<stop offset="1" style="stop-color:#4042E2"/>
						</linearGradient>
						<path style="opacity:0.9;fill:url(#SVGID_00000129896425633868399680000012632889292514033568_);" d="M1890.858,2168.308        h6.568c-23.44,0-52.863,27.897-52.863,54.804v37.785h46.295V2168.308z"/>

							<linearGradient id="SVGID_00000176763095120000086270000014392186181664780948_" gradientUnits="userSpaceOnUse" x1="1867.7102" y1="913.1603" x2="1867.7102" y2="1452.363">
							<stop offset="0" style="stop-color:#4F52FF"/>
							<stop offset="1" style="stop-color:#4042E2"/>
						</linearGradient>
						<path style="opacity:0.9;fill:url(#SVGID_00000176763095120000086270000014392186181664780948_);" d="M1844.563,2288.674        v30.73c0,4.8,13.81,6.305,17.992,6.305h28.302v-37.036H1844.563z"/>

							<linearGradient id="SVGID_00000115491918532351338300000005114728280475882886_" gradientUnits="userSpaceOnUse" x1="1927.8932" y1="913.1578" x2="1927.8932" y2="1452.3599">
							<stop offset="0" style="stop-color:#4F52FF"/>
							<stop offset="1" style="stop-color:#4042E2"/>
						</linearGradient>
						<path style="opacity:0.9;fill:url(#SVGID_00000115491918532351338300000005114728280475882886_);" d="M1910.577,2168.308        h-1.202v92.589h37.036v-37.785C1946.411,2196.205,1934.018,2168.308,1910.577,2168.308z"/>

							<linearGradient id="SVGID_00000043420114127551694890000009393900640460389802_" gradientUnits="userSpaceOnUse" x1="1928.4846" y1="913.1603" x2="1928.4846" y2="1452.363">
							<stop offset="0" style="stop-color:#4F52FF"/>
							<stop offset="1" style="stop-color:#4042E2"/>
						</linearGradient>
						<path style="opacity:0.9;fill:url(#SVGID_00000043420114127551694890000009393900640460389802_);" d="M1909.375,2325.709        h36.073c4.182,0,0.963-1.505,0.963-6.305v-30.73h-37.036V2325.709z"/>
					</g>
					<g>

							<linearGradient id="SVGID_00000040573930923932718400000004351186526766968738_" gradientUnits="userSpaceOnUse" x1="2053.2515" y1="913.1578" x2="2053.2515" y2="1452.3599">
							<stop offset="0" style="stop-color:#4F52FF"/>
							<stop offset="1" style="stop-color:#4042E2"/>
						</linearGradient>
						<path style="opacity:0.9;fill:url(#SVGID_00000040573930923932718400000004351186526766968738_);" d="M2066.777,2168.308        h9.985c-23.44,0-47.02,27.897-47.02,54.804v37.785h37.036V2168.308z"/>

							<linearGradient id="SVGID_00000014619754091556104950000005664253870291660436_" gradientUnits="userSpaceOnUse" x1="2048.259" y1="913.1603" x2="2048.259" y2="1452.363">
							<stop offset="0" style="stop-color:#4F52FF"/>
							<stop offset="1" style="stop-color:#4042E2"/>
						</linearGradient>
						<path style="opacity:0.9;fill:url(#SVGID_00000014619754091556104950000005664253870291660436_);" d="M2029.741,2288.674        v30.73c0,4.8,7.968,6.305,12.15,6.305h24.886v-37.036H2029.741z"/>

							<linearGradient id="SVGID_00000137128631090714531830000007424215458242155142_" gradientUnits="userSpaceOnUse" x1="2103.8127" y1="913.1578" x2="2103.8127" y2="1452.3599">
							<stop offset="0" style="stop-color:#4F52FF"/>
							<stop offset="1" style="stop-color:#4042E2"/>
						</linearGradient>
						<path style="opacity:0.9;fill:url(#SVGID_00000137128631090714531830000007424215458242155142_);" d="M2089.913,2168.308        h-4.618v92.589h37.036v-37.785C2122.331,2196.205,2113.354,2168.308,2089.913,2168.308z"/>

							<linearGradient id="SVGID_00000171703237632560341550000014446041323503647627_" gradientUnits="userSpaceOnUse" x1="2105.731" y1="913.1603" x2="2105.731" y2="1452.363">
							<stop offset="0" style="stop-color:#4F52FF"/>
							<stop offset="1" style="stop-color:#4042E2"/>
						</linearGradient>
						<path style="opacity:0.9;fill:url(#SVGID_00000171703237632560341550000014446041323503647627_);" d="M2085.295,2325.709        h39.489c4.182,0-2.453-1.505-2.453-6.305v-30.73h-37.036V2325.709z"/>
					</g>
					<g>

							<linearGradient id="SVGID_00000051357192304054952430000010773979610288253617_" gradientUnits="userSpaceOnUse" x1="2230.8792" y1="913.1578" x2="2230.8792" y2="1452.3599">
							<stop offset="0" style="stop-color:#4F52FF"/>
							<stop offset="1" style="stop-color:#4042E2"/>
						</linearGradient>
						<path style="opacity:0.9;fill:url(#SVGID_00000051357192304054952430000010773979610288253617_);" d="M2251.955,2168.308        h4.142c-23.44,0-50.437,27.897-50.437,54.804v37.785h46.294V2168.308z"/>

							<linearGradient id="SVGID_00000173881473880004699080000013172705850246581170_" gradientUnits="userSpaceOnUse" x1="2228.8081" y1="913.1603" x2="2228.8081" y2="1452.363">
							<stop offset="0" style="stop-color:#4F52FF"/>
							<stop offset="1" style="stop-color:#4042E2"/>
						</linearGradient>
						<path style="opacity:0.9;fill:url(#SVGID_00000173881473880004699080000013172705850246581170_);" d="M2205.661,2288.674        v30.73c0,4.8,11.384,6.305,15.566,6.305h30.729v-37.036H2205.661z"/>

							<linearGradient id="SVGID_00000005266498011383784410000017122540209036159915_" gradientUnits="userSpaceOnUse" x1="2288.3789" y1="913.1578" x2="2288.3789" y2="1452.3599">
							<stop offset="0" style="stop-color:#4F52FF"/>
							<stop offset="1" style="stop-color:#4042E2"/>
						</linearGradient>
						<path style="opacity:0.9;fill:url(#SVGID_00000005266498011383784410000017122540209036159915_);" d="M2269.249,2168.308        h1.224v92.589h37.036v-37.785C2307.509,2196.205,2292.69,2168.308,2269.249,2168.308z"/>

							<linearGradient id="SVGID_00000029037331458262455380000014876718564330332316_" gradientUnits="userSpaceOnUse" x1="2289.021" y1="913.1603" x2="2289.021" y2="1452.363">
							<stop offset="0" style="stop-color:#4F52FF"/>
							<stop offset="1" style="stop-color:#4042E2"/>
						</linearGradient>
						<path style="opacity:0.9;fill:url(#SVGID_00000029037331458262455380000014876718564330332316_);" d="M2270.473,2325.709        h33.647c4.182,0,3.389-1.505,3.389-6.305v-30.73h-37.036V2325.709z"/>
					</g>
				</g>
				<g>
					<g>

							<linearGradient id="SVGID_00000091733562462106477820000002188772479765993135_" gradientUnits="userSpaceOnUse" x1="1697.9961" y1="913.1592" x2="1697.9961" y2="1452.3608">
							<stop offset="0" style="stop-color:#4F52FF"/>
							<stop offset="1" style="stop-color:#4042E2"/>
						</linearGradient>
						<path style="opacity:0.9;fill:url(#SVGID_00000091733562462106477820000002188772479765993135_);" d="M1714.938,2446.075        h3.152c-23.44,0-40.188,19.108-40.188,46.015v46.575h37.036V2446.075z"/>

							<linearGradient id="SVGID_00000013897476601781889260000016432279166695164083_" gradientUnits="userSpaceOnUse" x1="1696.4202" y1="913.1617" x2="1696.4202" y2="1452.3628">
							<stop offset="0" style="stop-color:#4F52FF"/>
							<stop offset="1" style="stop-color:#4042E2"/>
						</linearGradient>
						<path style="opacity:0.9;fill:url(#SVGID_00000013897476601781889260000016432279166695164083_);" d="M1677.902,2547.923        v40.459c0,4.8,1.135,15.095,5.317,15.095h31.719v-55.553H1677.902z"/>

							<linearGradient id="SVGID_00000132810757629586418530000003993353592398075282_" gradientUnits="userSpaceOnUse" x1="1742.7147" y1="913.1592" x2="1742.7147" y2="1452.3608">
							<stop offset="0" style="stop-color:#4F52FF"/>
							<stop offset="1" style="stop-color:#4042E2"/>
						</linearGradient>
						<path style="opacity:0.9;fill:url(#SVGID_00000132810757629586418530000003993353592398075282_);" d="M1731.241,2446.075        h-7.044v92.589h37.036v-46.575C1761.233,2465.184,1754.682,2446.075,1731.241,2446.075z"/>

							<linearGradient id="SVGID_00000078026935631400969540000016149676520361338496_" gradientUnits="userSpaceOnUse" x1="1745.7057" y1="913.1617" x2="1745.7057" y2="1452.3628">
							<stop offset="0" style="stop-color:#4F52FF"/>
							<stop offset="1" style="stop-color:#4042E2"/>
						</linearGradient>
						<path style="opacity:0.9;fill:url(#SVGID_00000078026935631400969540000016149676520361338496_);" d="M1724.197,2603.477        h41.915c4.182,0-4.879-10.294-4.879-15.095v-40.459h-37.036V2603.477z"/>
					</g>
					<g>

							<linearGradient id="SVGID_00000056393479377840883370000001649853085471895469_" gradientUnits="userSpaceOnUse" x1="1870.9944" y1="913.1592" x2="1870.9944" y2="1452.3608">
							<stop offset="0" style="stop-color:#4F52FF"/>
							<stop offset="1" style="stop-color:#4042E2"/>
						</linearGradient>
						<path style="opacity:0.9;fill:url(#SVGID_00000056393479377840883370000001649853085471895469_);" d="M1890.858,2446.075        h6.568c-23.44,0-52.863,19.108-52.863,46.015v46.575h46.295V2446.075z"/>

							<linearGradient id="SVGID_00000132792298272570929660000011761963671680777115_" gradientUnits="userSpaceOnUse" x1="1867.7102" y1="913.1617" x2="1867.7102" y2="1452.3628">
							<stop offset="0" style="stop-color:#4F52FF"/>
							<stop offset="1" style="stop-color:#4042E2"/>
						</linearGradient>
						<path style="opacity:0.9;fill:url(#SVGID_00000132792298272570929660000011761963671680777115_);" d="M1844.563,2547.923        v40.459c0,4.8,13.81,15.095,17.992,15.095h28.302v-55.553H1844.563z"/>

							<linearGradient id="SVGID_00000142160351538250728600000017470633892880886718_" gradientUnits="userSpaceOnUse" x1="1927.8932" y1="913.1592" x2="1927.8932" y2="1452.3608">
							<stop offset="0" style="stop-color:#4F52FF"/>
							<stop offset="1" style="stop-color:#4042E2"/>
						</linearGradient>
						<path style="opacity:0.9;fill:url(#SVGID_00000142160351538250728600000017470633892880886718_);" d="M1910.577,2446.075        h-1.202v92.589h37.036v-46.575C1946.411,2465.184,1934.018,2446.075,1910.577,2446.075z"/>

							<linearGradient id="SVGID_00000105406429878058994920000014750205698384962737_" gradientUnits="userSpaceOnUse" x1="1928.4846" y1="913.1617" x2="1928.4846" y2="1452.3628">
							<stop offset="0" style="stop-color:#4F52FF"/>
							<stop offset="1" style="stop-color:#4042E2"/>
						</linearGradient>
						<path style="opacity:0.9;fill:url(#SVGID_00000105406429878058994920000014750205698384962737_);" d="M1909.375,2603.477        h36.073c4.182,0,0.963-10.294,0.963-15.095v-40.459h-37.036V2603.477z"/>
					</g>
					<g>

							<linearGradient id="SVGID_00000086665189315919573540000000263633365178635453_" gradientUnits="userSpaceOnUse" x1="2053.2515" y1="913.1592" x2="2053.2515" y2="1452.3608">
							<stop offset="0" style="stop-color:#4F52FF"/>
							<stop offset="1" style="stop-color:#4042E2"/>
						</linearGradient>
						<path style="opacity:0.9;fill:url(#SVGID_00000086665189315919573540000000263633365178635453_);" d="M2066.777,2446.075        h9.985c-23.44,0-47.02,19.108-47.02,46.015v46.575h37.036V2446.075z"/>

							<linearGradient id="SVGID_00000057866483614285528080000014484866189046550932_" gradientUnits="userSpaceOnUse" x1="2048.259" y1="913.1617" x2="2048.259" y2="1452.3628">
							<stop offset="0" style="stop-color:#4F52FF"/>
							<stop offset="1" style="stop-color:#4042E2"/>
						</linearGradient>
						<path style="opacity:0.9;fill:url(#SVGID_00000057866483614285528080000014484866189046550932_);" d="M2029.741,2547.923        v40.459c0,4.8,7.968,15.095,12.15,15.095h24.886v-55.553H2029.741z"/>

							<linearGradient id="SVGID_00000006695853209055249350000016299977514698985139_" gradientUnits="userSpaceOnUse" x1="2103.8127" y1="913.1592" x2="2103.8127" y2="1452.3608">
							<stop offset="0" style="stop-color:#4F52FF"/>
							<stop offset="1" style="stop-color:#4042E2"/>
						</linearGradient>
						<path style="opacity:0.9;fill:url(#SVGID_00000006695853209055249350000016299977514698985139_);" d="M2089.913,2446.075        h-4.618v92.589h37.036v-46.575C2122.331,2465.184,2113.354,2446.075,2089.913,2446.075z"/>

							<linearGradient id="SVGID_00000138551853150817081500000018096463454458220462_" gradientUnits="userSpaceOnUse" x1="2105.731" y1="913.1617" x2="2105.731" y2="1452.3628">
							<stop offset="0" style="stop-color:#4F52FF"/>
							<stop offset="1" style="stop-color:#4042E2"/>
						</linearGradient>
						<path style="opacity:0.9;fill:url(#SVGID_00000138551853150817081500000018096463454458220462_);" d="M2085.295,2603.477        h39.489c4.182,0-2.453-10.294-2.453-15.095v-40.459h-37.036V2603.477z"/>
					</g>
					<g>

							<linearGradient id="SVGID_00000165209131771006835540000000199455651316660914_" gradientUnits="userSpaceOnUse" x1="2230.8792" y1="913.1592" x2="2230.8792" y2="1452.3608">
							<stop offset="0" style="stop-color:#4F52FF"/>
							<stop offset="1" style="stop-color:#4042E2"/>
						</linearGradient>
						<path style="opacity:0.9;fill:url(#SVGID_00000165209131771006835540000000199455651316660914_);" d="M2251.955,2446.075        h4.142c-23.44,0-50.437,19.108-50.437,46.015v46.575h46.294V2446.075z"/>

							<linearGradient id="SVGID_00000174590498529431429380000003172683419130535335_" gradientUnits="userSpaceOnUse" x1="2228.8081" y1="913.1617" x2="2228.8081" y2="1452.3628">
							<stop offset="0" style="stop-color:#4F52FF"/>
							<stop offset="1" style="stop-color:#4042E2"/>
						</linearGradient>
						<path style="opacity:0.9;fill:url(#SVGID_00000174590498529431429380000003172683419130535335_);" d="M2205.661,2547.923        v40.459c0,4.8,11.384,15.095,15.566,15.095h30.729v-55.553H2205.661z"/>

							<linearGradient id="SVGID_00000062174837417367945860000002650741965800590773_" gradientUnits="userSpaceOnUse" x1="2288.3789" y1="913.1592" x2="2288.3789" y2="1452.3608">
							<stop offset="0" style="stop-color:#4F52FF"/>
							<stop offset="1" style="stop-color:#4042E2"/>
						</linearGradient>
						<path style="opacity:0.9;fill:url(#SVGID_00000062174837417367945860000002650741965800590773_);" d="M2269.249,2446.075        h1.224v92.589h37.036v-46.575C2307.509,2465.184,2292.69,2446.075,2269.249,2446.075z"/>

							<linearGradient id="SVGID_00000056405412216191875690000005020515470820047037_" gradientUnits="userSpaceOnUse" x1="2289.021" y1="913.1617" x2="2289.021" y2="1452.3628">
							<stop offset="0" style="stop-color:#4F52FF"/>
							<stop offset="1" style="stop-color:#4042E2"/>
						</linearGradient>
						<path style="opacity:0.9;fill:url(#SVGID_00000056405412216191875690000005020515470820047037_);" d="M2270.473,2603.477        h33.647c4.182,0,3.389-10.294,3.389-15.095v-40.459h-37.036V2603.477z"/>
					</g>
				</g>
				<g>
					<g>

							<linearGradient id="SVGID_00000012456153276133436950000008708275133288269487_" gradientUnits="userSpaceOnUse" x1="1697.9961" y1="913.1633" x2="1697.9961" y2="1452.365">
							<stop offset="0" style="stop-color:#4F52FF"/>
							<stop offset="1" style="stop-color:#4042E2"/>
						</linearGradient>
						<path style="opacity:0.9;fill:url(#SVGID_00000012456153276133436950000008708275133288269487_);" d="M1714.938,2705.325        h3.152c-23.44,0-40.188,28.837-40.188,55.743v46.105h37.036V2705.325z"/>

							<linearGradient id="SVGID_00000034784591227432736880000001720139833878637987_" gradientUnits="userSpaceOnUse" x1="1696.4202" y1="913.1617" x2="1696.4202" y2="1452.3629">
							<stop offset="0" style="stop-color:#4F52FF"/>
							<stop offset="1" style="stop-color:#4042E2"/>
						</linearGradient>
						<path style="opacity:0.9;fill:url(#SVGID_00000034784591227432736880000001720139833878637987_);" d="M1677.902,2825.691        v31.67c0,4.8,1.135,23.884,5.317,23.884h31.719v-55.553H1677.902z"/>

							<linearGradient id="SVGID_00000091701523231679194300000007674680016824228514_" gradientUnits="userSpaceOnUse" x1="1742.7147" y1="913.1633" x2="1742.7147" y2="1452.365">
							<stop offset="0" style="stop-color:#4F52FF"/>
							<stop offset="1" style="stop-color:#4042E2"/>
						</linearGradient>
						<path style="opacity:0.9;fill:url(#SVGID_00000091701523231679194300000007674680016824228514_);" d="M1731.241,2705.325        h-7.044v101.848h37.036v-46.105C1761.233,2734.162,1754.682,2705.325,1731.241,2705.325z"/>

							<linearGradient id="SVGID_00000012461602945349181540000001962847457007565496_" gradientUnits="userSpaceOnUse" x1="1745.7057" y1="913.1617" x2="1745.7057" y2="1452.3629">
							<stop offset="0" style="stop-color:#4F52FF"/>
							<stop offset="1" style="stop-color:#4042E2"/>
						</linearGradient>
						<path style="opacity:0.9;fill:url(#SVGID_00000012461602945349181540000001962847457007565496_);" d="M1724.197,2881.244        h41.915c4.182,0-4.879-19.083-4.879-23.884v-31.67h-37.036V2881.244z"/>
					</g>
					<g>

							<linearGradient id="SVGID_00000127743492685202239290000000541198115955794079_" gradientUnits="userSpaceOnUse" x1="1870.9944" y1="913.1633" x2="1870.9944" y2="1452.365">
							<stop offset="0" style="stop-color:#4F52FF"/>
							<stop offset="1" style="stop-color:#4042E2"/>
						</linearGradient>
						<path style="opacity:0.9;fill:url(#SVGID_00000127743492685202239290000000541198115955794079_);" d="M1890.858,2705.325        h6.568c-23.44,0-52.863,28.837-52.863,55.743v46.105h46.295V2705.325z"/>

							<linearGradient id="SVGID_00000131366487850811057870000012590266177113995187_" gradientUnits="userSpaceOnUse" x1="1867.7102" y1="913.1617" x2="1867.7102" y2="1452.3629">
							<stop offset="0" style="stop-color:#4F52FF"/>
							<stop offset="1" style="stop-color:#4042E2"/>
						</linearGradient>
						<path style="opacity:0.9;fill:url(#SVGID_00000131366487850811057870000012590266177113995187_);" d="M1844.563,2825.691        v31.67c0,4.8,13.81,23.884,17.992,23.884h28.302v-55.553H1844.563z"/>

							<linearGradient id="SVGID_00000183969248348159622350000017086660573036182704_" gradientUnits="userSpaceOnUse" x1="1927.8932" y1="913.1633" x2="1927.8932" y2="1452.365">
							<stop offset="0" style="stop-color:#4F52FF"/>
							<stop offset="1" style="stop-color:#4042E2"/>
						</linearGradient>
						<path style="opacity:0.9;fill:url(#SVGID_00000183969248348159622350000017086660573036182704_);" d="M1910.577,2705.325        h-1.202v101.848h37.036v-46.105C1946.411,2734.162,1934.018,2705.325,1910.577,2705.325z"/>

							<linearGradient id="SVGID_00000095316922070622317120000000850245544482578577_" gradientUnits="userSpaceOnUse" x1="1928.4846" y1="913.1617" x2="1928.4846" y2="1452.3629">
							<stop offset="0" style="stop-color:#4F52FF"/>
							<stop offset="1" style="stop-color:#4042E2"/>
						</linearGradient>
						<path style="opacity:0.9;fill:url(#SVGID_00000095316922070622317120000000850245544482578577_);" d="M1909.375,2881.244        h36.073c4.182,0,0.963-19.083,0.963-23.884v-31.67h-37.036V2881.244z"/>
					</g>
					<g>

							<linearGradient id="SVGID_00000034793014259448845870000011493538465657701548_" gradientUnits="userSpaceOnUse" x1="2053.2515" y1="913.1633" x2="2053.2515" y2="1452.365">
							<stop offset="0" style="stop-color:#4F52FF"/>
							<stop offset="1" style="stop-color:#4042E2"/>
						</linearGradient>
						<path style="opacity:0.9;fill:url(#SVGID_00000034793014259448845870000011493538465657701548_);" d="M2066.777,2705.325        h9.985c-23.44,0-47.02,28.837-47.02,55.743v46.105h37.036V2705.325z"/>

							<linearGradient id="SVGID_00000157275253194075420420000000951748764490325634_" gradientUnits="userSpaceOnUse" x1="2048.259" y1="913.1617" x2="2048.259" y2="1452.3629">
							<stop offset="0" style="stop-color:#4F52FF"/>
							<stop offset="1" style="stop-color:#4042E2"/>
						</linearGradient>
						<path style="opacity:0.9;fill:url(#SVGID_00000157275253194075420420000000951748764490325634_);" d="M2029.741,2825.691        v31.67c0,4.8,7.968,23.884,12.15,23.884h24.886v-55.553H2029.741z"/>

							<linearGradient id="SVGID_00000003810037662552573390000013932496702562777231_" gradientUnits="userSpaceOnUse" x1="2103.8127" y1="913.1633" x2="2103.8127" y2="1452.365">
							<stop offset="0" style="stop-color:#4F52FF"/>
							<stop offset="1" style="stop-color:#4042E2"/>
						</linearGradient>
						<path style="opacity:0.9;fill:url(#SVGID_00000003810037662552573390000013932496702562777231_);" d="M2089.913,2705.325        h-4.618v101.848h37.036v-46.105C2122.331,2734.162,2113.354,2705.325,2089.913,2705.325z"/>

							<linearGradient id="SVGID_00000050634880090789173760000000438697519221323161_" gradientUnits="userSpaceOnUse" x1="2105.731" y1="913.1617" x2="2105.731" y2="1452.3629">
							<stop offset="0" style="stop-color:#4F52FF"/>
							<stop offset="1" style="stop-color:#4042E2"/>
						</linearGradient>
						<path style="opacity:0.9;fill:url(#SVGID_00000050634880090789173760000000438697519221323161_);" d="M2085.295,2881.244        h39.489c4.182,0-2.453-19.083-2.453-23.884v-31.67h-37.036V2881.244z"/>
					</g>
					<g>

							<linearGradient id="SVGID_00000170240887352019277300000004672545096092291475_" gradientUnits="userSpaceOnUse" x1="2230.8792" y1="913.1633" x2="2230.8792" y2="1452.365">
							<stop offset="0" style="stop-color:#4F52FF"/>
							<stop offset="1" style="stop-color:#4042E2"/>
						</linearGradient>
						<path style="opacity:0.9;fill:url(#SVGID_00000170240887352019277300000004672545096092291475_);" d="M2251.955,2705.325        h4.142c-23.44,0-50.437,28.837-50.437,55.743v46.105h46.294V2705.325z"/>

							<linearGradient id="SVGID_00000018233732459424190880000003952191599127330211_" gradientUnits="userSpaceOnUse" x1="2228.8081" y1="913.1617" x2="2228.8081" y2="1452.3629">
							<stop offset="0" style="stop-color:#4F52FF"/>
							<stop offset="1" style="stop-color:#4042E2"/>
						</linearGradient>
						<path style="opacity:0.9;fill:url(#SVGID_00000018233732459424190880000003952191599127330211_);" d="M2205.661,2825.691        v31.67c0,4.8,11.384,23.884,15.566,23.884h30.729v-55.553H2205.661z"/>

							<linearGradient id="SVGID_00000083070647002323312310000007361487789438223528_" gradientUnits="userSpaceOnUse" x1="2288.3789" y1="913.1633" x2="2288.3789" y2="1452.365">
							<stop offset="0" style="stop-color:#4F52FF"/>
							<stop offset="1" style="stop-color:#4042E2"/>
						</linearGradient>
						<path style="opacity:0.9;fill:url(#SVGID_00000083070647002323312310000007361487789438223528_);" d="M2269.249,2705.325        h1.224v101.848h37.036v-46.105C2307.509,2734.162,2292.69,2705.325,2269.249,2705.325z"/>

							<linearGradient id="SVGID_00000163776245075387871710000003830469817769860229_" gradientUnits="userSpaceOnUse" x1="2289.021" y1="913.1617" x2="2289.021" y2="1452.3629">
							<stop offset="0" style="stop-color:#4F52FF"/>
							<stop offset="1" style="stop-color:#4042E2"/>
						</linearGradient>
						<path style="opacity:0.9;fill:url(#SVGID_00000163776245075387871710000003830469817769860229_);" d="M2270.473,2881.244        h33.647c4.182,0,3.389-19.083,3.389-23.884v-31.67h-37.036V2881.244z"/>
					</g>
				</g>
			</g>
		</g>
		<g>
			<g>

					<linearGradient id="SVGID_00000022520352349306432300000012367115972821884309_" gradientUnits="userSpaceOnUse" x1="3257.0664" y1="1932.0559" x2="2380.6052" y2="2903.1343">
					<stop offset="0" style="stop-color:#FF928E"/>
					<stop offset="1" style="stop-color:#FE7062"/>
				</linearGradient>
				<path style="fill:url(#SVGID_00000022520352349306432300000012367115972821884309_);" d="M2085.49,2671.99      c94.263-87.137,502.102-463.616,527.818-471.271c7.235-2.153,14.199-1.618,14.199-1.618      c14.047,1.08,25.069,10.059,32.579,18.298c0,0,134.444,530.422,161.416,755.36l-753.952-20.454L2085.49,2671.99z"/>

					<linearGradient id="SVGID_00000170959947973325682710000003891343353044686756_" gradientUnits="userSpaceOnUse" x1="3118.5283" y1="2458.3247" x2="3855.5522" y2="1975.2742">
					<stop offset="0" style="stop-color:#FF928E"/>
					<stop offset="1" style="stop-color:#FE7062"/>
				</linearGradient>
				<path style="fill:url(#SVGID_00000170959947973325682710000003891343353044686756_);" d="M3182.1,2982.542      c25.87,0.702,63.269-16.774,52.948-40.507c-42.288-97.24-514.861-678.601-563.751-717.083      c-7.662-8.781-19.88-19.677-37.075-24.386c-2.292-0.628-4.535-1.108-6.714-1.465c43.656,257.316,87.313,514.632,130.97,771.948      L3182.1,2982.542z"/>
			</g>
			<g>

					<linearGradient id="SVGID_00000003069011841183769320000011777025308616248725_" gradientUnits="userSpaceOnUse" x1="2514.2024" y1="2431.4961" x2="3166.5701" y2="1545.0725">
					<stop offset="0" style="stop-color:#FF928E"/>
					<stop offset="1" style="stop-color:#FE7062"/>
				</linearGradient>
				<path style="fill:url(#SVGID_00000003069011841183769320000011777025308616248725_);" d="M2052.723,2429.548      c0,0,65.628,19.195,166.784,100.302s396.379,436.075,396.379,436.075l-395.46,47.407l-202.299-580.378      C2018.128,2432.954,2033.183,2422.089,2052.723,2429.548z"/>

					<linearGradient id="SVGID_00000171692849448698222110000017892232976169908106_" gradientUnits="userSpaceOnUse" x1="2505.4958" y1="1824.3386" x2="1843.1665" y2="3069.3174">
					<stop offset="0" style="stop-color:#FF928E"/>
					<stop offset="1" style="stop-color:#FE7062"/>
				</linearGradient>
				<path style="fill:url(#SVGID_00000171692849448698222110000017892232976169908106_);" d="M1629.095,2881.704l352.394-417.084      c0,0,27.856-36.249,52.644-35.577l190.823,577.923c1.026,3.106-1.257,6.316-4.528,6.366l-703.533,10.792L1629.095,2881.704z"/>
			</g>
		</g>
		<g>
			<g>

					<linearGradient id="SVGID_00000168107057930799314420000010809054165267148683_" gradientUnits="userSpaceOnUse" x1="-3250.6624" y1="279.2873" x2="-3257.6731" y2="1404.4724" gradientTransform="matrix(-1 0 0 1 -905.7161 0)">
					<stop offset="0" style="stop-color:#FF928E"/>
					<stop offset="1" style="stop-color:#FE7062"/>
				</linearGradient>
				<path style="fill:url(#SVGID_00000168107057930799314420000010809054165267148683_);" d="M2234.88,835.912l92.76-57.567      c1.909-1.185,4.198-1.594,6.399-1.144l120.718,24.68c3.253,0.665,5.854,3.105,6.725,6.309s-0.135,6.625-2.603,8.846      l-72.287,65.053L2234.88,835.912z"/>

					<linearGradient id="SVGID_00000031920893493012130380000007889028137954289082_" gradientUnits="userSpaceOnUse" x1="2397.9155" y1="691.8667" x2="2338.1536" y2="1096.9203">
					<stop offset="0" style="stop-color:#FF928E"/>
					<stop offset="1" style="stop-color:#FE7062"/>
				</linearGradient>
				<path style="fill:url(#SVGID_00000031920893493012130380000007889028137954289082_);" d="M3038.804,942.441      c0,0-1125.052-200.905-1168.939-186.832c-43.886,14.072-122.326,60.68-145.457,60.782      c-23.13,0.102-104.026,14.338-82.954,72.072c21.073,57.734,954.029,234.042,1062.579,196.554      c108.55-37.489,383.498-108.094,383.498-108.094S3112.802,937.488,3038.804,942.441z"/>

					<linearGradient id="SVGID_00000170992131153636474040000011405481275247264410_" gradientUnits="userSpaceOnUse" x1="3037.1609" y1="437.6727" x2="2917.6372" y2="819.4847">
					<stop offset="0" style="stop-color:#FF928E"/>
					<stop offset="1" style="stop-color:#FE7062"/>
				</linearGradient>
				<path style="fill:url(#SVGID_00000170992131153636474040000011405481275247264410_);" d="M2713.156,888.433l161.764-90.131      c10.143-5.651,18.496-14.036,24.111-24.199l65.347-118.304c5.178-9.374,15.877-14.284,26.356-12.08      c33.552,7.057,103.163,22.641,103.503,30.538c0.449,10.407-33.302,271.725-33.302,271.725L2713.156,888.433z"/>

					<linearGradient id="SVGID_00000147911225649081775800000012836701374051599771_" gradientUnits="userSpaceOnUse" x1="3096.1123" y1="1249.9063" x2="2993.1892" y2="1073.9408">
					<stop offset="0" style="stop-color:#FF928E"/>
					<stop offset="1" style="stop-color:#FE7062"/>
				</linearGradient>
				<path style="fill:url(#SVGID_00000147911225649081775800000012836701374051599771_);" d="M3028.33,979.877l13.517,55.08      c2.281,9.294,0.174,18.753-5.715,26.296c-5.889,7.542-14.912,11.603-24.481,11.645l-57.175,0.252      c-9.029,0.04-17.631-3.463-23.592-10.244l-102.205-116.083L3028.33,979.877z"/>

					<linearGradient id="SVGID_00000075857213624998833360000008989711487957169831_" gradientUnits="userSpaceOnUse" x1="2388.5867" y1="752.9323" x2="2325.5044" y2="1161.3044">
					<stop offset="0" style="stop-color:#FF928E"/>
					<stop offset="1" style="stop-color:#FE7062"/>
				</linearGradient>
				<path style="fill:url(#SVGID_00000075857213624998833360000008989711487957169831_);" d="M2439.304,1164.632      c0,0-34.508,42.655-90.889,42.903c-56.381,0.249-125.841-15.058-138.94-34.951c-13.098-19.893-41.499-167.141,73.088-146.438      C2397.149,1046.849,2531.022,1113.05,2439.304,1164.632z"/>

					<linearGradient id="SVGID_00000156578284504871891790000008067505497238959551_" gradientUnits="userSpaceOnUse" x1="-3293.8948" y1="827.7493" x2="-3614.6082" y2="2431.3213" gradientTransform="matrix(-1 0 0 1 -905.7161 0)">
					<stop offset="0" style="stop-color:#FF928E"/>
					<stop offset="1" style="stop-color:#FE7062"/>
				</linearGradient>
				<path style="fill:url(#SVGID_00000156578284504871891790000008067505497238959551_);" d="M2502.82,1012.16l-267.366-46.134      l225.336,287.58c3.159,4.032,7.861,6.558,12.966,6.969l160.114,12.858c6.931,0.556,13.58-2.854,17.171-8.808      c3.591-5.954,3.505-13.427-0.221-19.297L2502.82,1012.16z"/>

					<linearGradient id="SVGID_00000093858483507626871450000017394233894721422770_" gradientUnits="userSpaceOnUse" x1="-3192.4111" y1="1192.5854" x2="-2813.844" y2="554.6302" gradientTransform="matrix(-1 0 0 1 -905.7161 0)">
					<stop offset="0" style="stop-color:#E1473D"/>
					<stop offset="1" style="stop-color:#E9605A"/>
				</linearGradient>
				<path style="fill:url(#SVGID_00000093858483507626871450000017394233894721422770_);" d="M2231.466,1171.502      c15.131-16.639,41.748-81.078,35.418-108.992c-4.04-17.807-16.639-20.706-26.499-20.005      c-12.009,0.879-22.567,7.716-28.26,18.336l0,0c-19.206,35.86-11.93,82.905-0.627,104.854      c3.516,6.827,7.109,10.522,10.686,10.984c0.653,0.084,1.321,0.054,2.008-0.093      C2226.404,1176.113,2228.804,1174.432,2231.466,1171.502z M2240.734,1047.367c11.732-0.834,18.731,4.47,21.396,16.219      c5.594,24.659-18.531,87.328-34.268,104.637c-3.373,3.714-4.886,3.648-5.057,3.621c-1.313-0.167-3.929-2.465-6.972-8.38      c-10.504-20.402-17.582-66.394,0.592-100.32l0,0c4.176-7.799,11.718-13.373,20.273-15.202      C2238.019,1047.66,2239.369,1047.464,2240.734,1047.367z"/>

					<linearGradient id="SVGID_00000070094963091536801430000006718371124286221710_" gradientUnits="userSpaceOnUse" x1="-2945.7041" y1="21.4554" x2="-4621.2148" y2="1339.4313" gradientTransform="matrix(-1 0 0 1 -905.7161 0)">
					<stop offset="0" style="stop-color:#FF928E"/>
					<stop offset="1" style="stop-color:#FE7062"/>
				</linearGradient>
				<polygon style="fill:url(#SVGID_00000070094963091536801430000006718371124286221710_);" points="3087.974,736.255      3060.217,736.378 3034.977,913.683 3064.182,920.373     "/>
				<g>
					<g>

							<linearGradient id="SVGID_00000025420662183363291190000016568101231151117457_" gradientUnits="userSpaceOnUse" x1="-1632.6462" y1="-8169.147" x2="-1712.3259" y2="-7863.7085" gradientTransform="matrix(-1 0.0045 0.0045 1 -1447.2631 -152.249)">
							<stop offset="0" style="stop-color:#09005D"/>
							<stop offset="1" style="stop-color:#1A0F91"/>
						</linearGradient>
						<path style="fill:url(#SVGID_00000025420662183363291190000016568101231151117457_);" d="M2632.67,951.371        c-0.04-9.131-7.475-16.501-16.606-16.46l-1.051,0.004c-9.131,0.04-16.5,7.475-16.46,16.606l0.047,10.799        c0.04,9.131,7.475,16.5,16.606,16.46l1.051-0.005c9.131-0.04,16.5-7.475,16.46-16.606L2632.67,951.371z"/>

							<linearGradient id="SVGID_00000170958361403982280270000003670734585923412883_" gradientUnits="userSpaceOnUse" x1="-1574.5134" y1="-8153.9873" x2="-1654.1931" y2="-7848.5488" gradientTransform="matrix(-1 0.0045 0.0045 1 -1447.2631 -152.249)">
							<stop offset="0" style="stop-color:#09005D"/>
							<stop offset="1" style="stop-color:#1A0F91"/>
						</linearGradient>
						<path style="fill:url(#SVGID_00000170958361403982280270000003670734585923412883_);" d="M2569.287,946.776        c-0.04-9.131-7.475-16.5-16.606-16.46l-1.051,0.005c-9.131,0.04-16.501,7.475-16.461,16.606l0.048,10.799        c0.04,9.131,7.475,16.5,16.606,16.46l1.052-0.005c9.131-0.04,16.5-7.475,16.46-16.606L2569.287,946.776z"/>

							<linearGradient id="SVGID_00000073710112323710247750000013228276510560256918_" gradientUnits="userSpaceOnUse" x1="-1518.7632" y1="-8139.4458" x2="-1598.443" y2="-7834.0073" gradientTransform="matrix(-1 0.0045 0.0045 1 -1447.2631 -152.249)">
							<stop offset="0" style="stop-color:#09005D"/>
							<stop offset="1" style="stop-color:#1A0F91"/>
						</linearGradient>
						<path style="fill:url(#SVGID_00000073710112323710247750000013228276510560256918_);" d="M2505.862,932.434        c-0.04-9.131-7.475-16.501-16.606-16.461l-1.052,0.005c-9.131,0.04-16.5,7.475-16.46,16.606l0.047,10.799        c0.041,9.131,7.475,16.5,16.606,16.46l1.051-0.004c9.131-0.04,16.501-7.475,16.46-16.606L2505.862,932.434z"/>

							<linearGradient id="SVGID_00000080891807492057994210000000028259772138501282_" gradientUnits="userSpaceOnUse" x1="-1466.3865" y1="-8125.7798" x2="-1546.0662" y2="-7820.3418" gradientTransform="matrix(-1 0.0045 0.0045 1 -1447.2631 -152.249)">
							<stop offset="0" style="stop-color:#09005D"/>
							<stop offset="1" style="stop-color:#1A0F91"/>
						</linearGradient>
						<path style="fill:url(#SVGID_00000080891807492057994210000000028259772138501282_);" d="M2447.332,922.944        c-0.04-9.131-7.475-16.501-16.606-16.461l-1.051,0.005c-9.131,0.04-16.5,7.475-16.46,16.606l0.048,10.799        c0.04,9.131,7.475,16.5,16.606,16.46l1.051-0.004c9.131-0.041,16.501-7.475,16.46-16.606L2447.332,922.944z"/>

							<linearGradient id="SVGID_00000121239885577292503890000007922868983687694228_" gradientUnits="userSpaceOnUse" x1="-1404.8818" y1="-8109.7388" x2="-1484.5615" y2="-7804.3003" gradientTransform="matrix(-1 0.0045 0.0045 1 -1447.2631 -152.249)">
							<stop offset="0" style="stop-color:#09005D"/>
							<stop offset="1" style="stop-color:#1A0F91"/>
						</linearGradient>
						<path style="fill:url(#SVGID_00000121239885577292503890000007922868983687694228_);" d="M2379.054,913.497        c-0.04-9.131-7.475-16.501-16.606-16.461l-1.052,0.005c-9.131,0.04-16.5,7.475-16.46,16.606l0.048,10.799        c0.04,9.131,7.475,16.5,16.606,16.46l1.051-0.004c9.131-0.041,16.501-7.476,16.46-16.606L2379.054,913.497z"/>

							<linearGradient id="SVGID_00000178886128309716014770000003602781714792707246_" gradientUnits="userSpaceOnUse" x1="-1347.9379" y1="-8094.8975" x2="-1427.6176" y2="-7789.459" gradientTransform="matrix(-1 0.0045 0.0045 1 -1447.2631 -152.249)">
							<stop offset="0" style="stop-color:#09005D"/>
							<stop offset="1" style="stop-color:#1A0F91"/>
						</linearGradient>
						<path style="fill:url(#SVGID_00000178886128309716014770000003602781714792707246_);" d="M2315.651,904.029        c-0.04-9.131-7.475-16.501-16.606-16.46l-1.051,0.004c-9.131,0.04-16.501,7.475-16.46,16.606l0.048,10.799        c0.04,9.131,7.475,16.501,16.606,16.46l1.051-0.004c9.131-0.04,16.501-7.475,16.46-16.606L2315.651,904.029z"/>

							<linearGradient id="SVGID_00000013188817213431749170000000273556516634867613_" gradientUnits="userSpaceOnUse" x1="-1292.1869" y1="-8080.3589" x2="-1371.8667" y2="-7774.9204" gradientTransform="matrix(-1 0.0045 0.0045 1 -1447.2631 -152.249)">
							<stop offset="0" style="stop-color:#09005D"/>
							<stop offset="1" style="stop-color:#1A0F91"/>
						</linearGradient>
						<path style="fill:url(#SVGID_00000013188817213431749170000000273556516634867613_);" d="M2252.225,889.686        c-0.04-9.131-7.475-16.5-16.606-16.46l-1.051,0.004c-9.131,0.04-16.5,7.475-16.46,16.606l0.047,10.799        c0.04,9.131,7.475,16.501,16.606,16.461l1.051-0.005c9.131-0.04,16.5-7.475,16.46-16.606L2252.225,889.686z"/>

							<linearGradient id="SVGID_00000170256231195474611810000000755657430084092830_" gradientUnits="userSpaceOnUse" x1="-1238.621" y1="-8066.376" x2="-1318.3008" y2="-7760.9375" gradientTransform="matrix(-1 0.0045 0.0045 1 -1447.2631 -152.249)">
							<stop offset="0" style="stop-color:#09005D"/>
							<stop offset="1" style="stop-color:#1A0F91"/>
						</linearGradient>
						<path style="fill:url(#SVGID_00000170256231195474611810000000755657430084092830_);" d="M2193.717,885.07        c-0.041-9.131-7.475-16.5-16.606-16.46l-1.051,0.004c-9.131,0.04-16.501,7.475-16.46,16.606l0.048,10.799        c0.04,9.131,7.475,16.501,16.606,16.461l1.052-0.005c9.131-0.04,16.5-7.475,16.46-16.606L2193.717,885.07z"/>

							<linearGradient id="SVGID_00000179620740438590716440000003137609021770094243_" gradientUnits="userSpaceOnUse" x1="-1181.6785" y1="-8051.5288" x2="-1261.3583" y2="-7746.0903" gradientTransform="matrix(-1 0.0045 0.0045 1 -1447.2631 -152.249)">
							<stop offset="0" style="stop-color:#09005D"/>
							<stop offset="1" style="stop-color:#1A0F91"/>
						</linearGradient>
						<path style="fill:url(#SVGID_00000179620740438590716440000003137609021770094243_);" d="M2130.313,875.602        c-0.041-9.131-7.475-16.501-16.606-16.46l-1.051,0.005c-9.131,0.04-16.501,7.475-16.46,16.606l0.048,10.799        c0.04,9.131,7.475,16.5,16.606,16.46l1.051-0.004c9.131-0.041,16.5-7.475,16.46-16.606L2130.313,875.602z"/>

							<linearGradient id="SVGID_00000154398757046297493410000008521519899486841785_" gradientUnits="userSpaceOnUse" x1="-1125.9294" y1="-8036.9834" x2="-1205.6091" y2="-7731.5449" gradientTransform="matrix(-1 0.0045 0.0045 1 -1447.2631 -152.249)">
							<stop offset="0" style="stop-color:#09005D"/>
							<stop offset="1" style="stop-color:#1A0F91"/>
						</linearGradient>
						<path style="fill:url(#SVGID_00000154398757046297493410000008521519899486841785_);" d="M2066.888,861.26        c-0.04-9.131-7.475-16.501-16.606-16.46l-1.052,0.005c-9.131,0.04-16.5,7.475-16.46,16.606l0.048,10.799        c0.04,9.131,7.475,16.5,16.606,16.46l1.051-0.004c9.131-0.04,16.5-7.475,16.46-16.606L2066.888,861.26z"/>

							<linearGradient id="SVGID_00000168806904980028564840000012273487462722677172_" gradientUnits="userSpaceOnUse" x1="-1072.3595" y1="-8023.0151" x2="-1152.0392" y2="-7717.5771" gradientTransform="matrix(-1 0.0045 0.0045 1 -1447.2631 -152.249)">
							<stop offset="0" style="stop-color:#09005D"/>
							<stop offset="1" style="stop-color:#1A0F91"/>
						</linearGradient>
						<path style="fill:url(#SVGID_00000168806904980028564840000012273487462722677172_);" d="M2008.379,856.644        c-0.04-9.131-7.475-16.501-16.606-16.46l-1.051,0.004c-9.131,0.04-16.5,7.475-16.46,16.606l0.047,10.799        c0.04,9.131,7.475,16.5,16.606,16.46l1.051-0.005c9.131-0.04,16.5-7.475,16.46-16.606L2008.379,856.644z"/>
					</g>

						<linearGradient id="SVGID_00000140692810531021432030000006083188198311215800_" gradientUnits="userSpaceOnUse" x1="-925.1558" y1="-7985.0796" x2="-1004.8393" y2="-7679.6265" gradientTransform="matrix(-1 0.0045 0.0045 1 -1447.2631 -152.249)">
						<stop offset="0" style="stop-color:#09005D"/>
						<stop offset="1" style="stop-color:#1A0F91"/>
					</linearGradient>
					<path style="fill:url(#SVGID_00000140692810531021432030000006083188198311215800_);" d="M1791.498,790.715l111.307,30.381       c8.359,2.29,13.914,10.218,13.183,18.854c-0.869,10.265-2.367,21.869-4.661,20.898c-4.056-1.717-178.531-45.215-178.531-45.215       L1791.498,790.715z"/>
				</g>
			</g>
		</g>
		<g>
			<g>

					<linearGradient id="SVGID_00000161598493569859872160000009105807613926390943_" gradientUnits="userSpaceOnUse" x1="1130.7457" y1="1854.1002" x2="1147.502" y2="1854.1002">
					<stop offset="0" style="stop-color:#2B3582"/>
					<stop offset="1" style="stop-color:#150E42"/>
				</linearGradient>

					<rect x="1130.746" y="1777.022" style="fill:url(#SVGID_00000161598493569859872160000009105807613926390943_);" width="16.756" height="154.157"/>

					<linearGradient id="SVGID_00000114034672342338711210000016935093901131502525_" gradientUnits="userSpaceOnUse" x1="1093.882" y1="1844.0465" x2="1181.0144" y2="1844.0465">
					<stop offset="0" style="stop-color:#2B3582"/>
					<stop offset="1" style="stop-color:#150E42"/>
				</linearGradient>

					<rect x="1093.882" y="1837.344" style="fill:url(#SVGID_00000114034672342338711210000016935093901131502525_);" width="87.132" height="13.405"/>
			</g>

				<linearGradient id="SVGID_00000175320856553405533030000003937700187974767801_" gradientUnits="userSpaceOnUse" x1="1179.027" y1="2391.9282" x2="1036.2623" y2="3451.0405">
				<stop offset="0" style="stop-color:#4F52FF"/>
				<stop offset="1" style="stop-color:#4042E2"/>
			</linearGradient>
			<polygon style="fill:url(#SVGID_00000175320856553405533030000003937700187974767801_);" points="1137.541,1921.538     778.865,2289.094 778.865,3037.09 1506.085,3037.09 1506.085,2276.76    "/>

				<linearGradient id="SVGID_00000097496360670131211830000004253444285496237449_" gradientUnits="userSpaceOnUse" x1="1775.9901" y1="1685.7059" x2="1623.2654" y2="1838.4307">
				<stop offset="0" style="stop-color:#09005D"/>
				<stop offset="1" style="stop-color:#1A0F91"/>
			</linearGradient>
			<polygon style="fill:url(#SVGID_00000097496360670131211830000004253444285496237449_);" points="779.57,2325.274     1142.603,1964.15 1492.48,2326.626 1550.039,2326.626 1143.014,1903.713 726.122,2326.228    "/>
			<path style="fill:#7D97F4;" d="M1166.449,2712.019h-46.869c-23.842,0-45.805,23.161-45.805,47.003v278.068h134.05v-278.068     C1207.824,2735.18,1190.291,2712.019,1166.449,2712.019z"/>
			<g>
				<path style="fill:#7D97F4;" d="M857.619,2407.501c-29.602,22.201-35.188,76.471-35.188,76.471v107.402h36.899h33.477v-107.402      C892.807,2483.972,887.221,2429.702,857.619,2407.501z"/>
				<path style="fill:#7D97F4;" d="M995.02,2407.501c-29.602,22.201-35.188,76.471-35.188,76.471v107.402h37.64h32.736v-107.402      C1030.208,2483.972,1024.622,2429.702,995.02,2407.501z"/>
			</g>
			<g>
				<path style="fill:#7D97F4;" d="M1286.579,2407.501c-29.602,22.201-35.188,76.471-35.188,76.471v107.402h37.166h33.21v-107.402      C1321.767,2483.972,1316.181,2429.702,1286.579,2407.501z"/>
				<path style="fill:#7D97F4;" d="M1425.655,2407.501c-29.602,22.201-33.512,76.471-33.512,76.471v107.402h34.555h32.47v-107.402      C1459.168,2483.972,1455.257,2429.702,1425.655,2407.501z"/>
			</g>
			<g>
				<g>
					<path style="fill:#7D97F4;" d="M857.619,2762.722c-29.602,22.201-35.188,76.472-35.188,76.472v110.763h36.899h33.477v-110.763       C892.807,2839.194,887.221,2784.924,857.619,2762.722z"/>
					<path style="fill:#7D97F4;" d="M995.02,2762.722c-29.602,22.201-35.188,76.472-35.188,76.472v110.763h37.64h32.736v-110.763       C1030.208,2839.194,1024.622,2784.924,995.02,2762.722z"/>
				</g>
				<g>
					<path style="fill:#7D97F4;" d="M1286.579,2762.722c-29.602,22.201-35.188,76.472-35.188,76.472v110.763h37.166h33.21v-110.763       C1321.767,2839.194,1316.181,2784.924,1286.579,2762.722z"/>
					<path style="fill:#7D97F4;" d="M1425.655,2762.722c-29.602,22.201-33.512,76.472-33.512,76.472v110.763h34.555h32.47v-110.763       C1459.168,2839.194,1455.257,2784.924,1425.655,2762.722z"/>
				</g>
			</g>

				<ellipse transform="matrix(0.9732 -0.2298 0.2298 0.9732 -472.8101 320.0727)" style="fill:#7D97F4;" cx="1138.081" cy="2190.421" rx="71.538" ry="71.538"/>
			<rect x="765.46" y="2668.453" style="fill:#7D97F4;" width="757.381" height="10.054"/>
			<g>

					<linearGradient id="SVGID_00000147939510197806783010000007998296250269021088_" gradientUnits="userSpaceOnUse" x1="669.7448" y1="1651.5518" x2="576.6505" y2="3340.5706">
					<stop offset="0" style="stop-color:#4F52FF"/>
					<stop offset="1" style="stop-color:#4042E2"/>
				</linearGradient>
				<polygon style="fill:url(#SVGID_00000147939510197806783010000007998296250269021088_);" points="778.865,3038.703      477.253,3040.954 477.253,1777.022 778.865,1777.022     "/>

					<linearGradient id="SVGID_00000097491874339063138240000001623859815277418371_" gradientUnits="userSpaceOnUse" x1="1886.062" y1="956.9986" x2="1547.3781" y2="1106.4177">
					<stop offset="0" style="stop-color:#09005D"/>
					<stop offset="1" style="stop-color:#1A0F91"/>
				</linearGradient>
				<polygon style="fill:url(#SVGID_00000097491874339063138240000001623859815277418371_);" points="479.972,1777.022      639.736,1173.667 782.548,1777.022     "/>

					<linearGradient id="SVGID_00000129917604877217502110000000091146615962423215_" gradientUnits="userSpaceOnUse" x1="605.5425" y1="1041.4376" x2="622.6101" y2="1420.3459">
					<stop offset="0" style="stop-color:#09005D"/>
					<stop offset="1" style="stop-color:#1A0F91"/>
				</linearGradient>
				<path style="fill:url(#SVGID_00000129917604877217502110000000091146615962423215_);" d="M800.1,1771.634      c0-4.428-3.293-8.017-7.356-8.017H484.608c-4.062,0-7.356,3.589-7.356,8.017v10.776c0,4.428,3.293,8.017,7.356,8.017h308.136      c4.062,0,7.356-3.589,7.356-8.017V1771.634z"/>
				<path style="fill:#7D97F4;" d="M774.214,2210.647c0-4.428-3.029-8.017-6.766-8.017H484.019c-3.737,0-6.766,3.589-6.766,8.017      v10.776c0,4.428,3.029,8.017,6.766,8.017h283.429c3.737,0,6.766-3.589,6.766-8.017V2210.647z"/>
				<path style="fill:#7D97F4;" d="M774.214,2696.577c0-4.428-3.029-8.017-6.766-8.017H484.019c-3.737,0-6.766,3.589-6.766,8.017      v10.776c0,4.428,3.029,8.017,6.766,8.017h283.429c3.737,0,6.766-3.589,6.766-8.017V2696.577z"/>
				<g>
					<path style="fill:#7D97F4;" d="M552.656,2777.523c-29.602,22.201-35.188,76.471-35.188,76.471v109.368h35.978h34.399v-109.368       C587.844,2853.994,582.258,2799.725,552.656,2777.523z"/>
					<path style="fill:#7D97F4;" d="M691.733,2777.523c-29.602,22.201-36.864,76.471-36.864,76.471v109.368h36.718h37.009v-109.368       C728.596,2853.994,721.334,2799.725,691.733,2777.523z"/>
				</g>
				<g>
					<path style="fill:#7D97F4;" d="M552.656,1933.873c-29.602,22.201-35.188,76.471-35.188,76.471V2122.2h35.978h34.399v-111.856       C587.844,2010.344,582.258,1956.074,552.656,1933.873z"/>
					<path style="fill:#7D97F4;" d="M691.733,1933.873c-29.602,22.201-36.864,76.471-36.864,76.471V2122.2h36.718h37.009v-111.856       C728.596,2010.344,721.334,1956.074,691.733,1933.873z"/>
				</g>
				<path style="fill:#7D97F4;" d="M574.439,2267.618c0-4.428-3.589-8.017-8.017-8.017h-30.883c-4.428,0-8.017,3.589-8.017,8.017      v369.359c0,4.428,3.589,8.017,8.017,8.017h30.883c4.428,0,8.017-3.589,8.017-8.017V2267.618z"/>
				<path style="fill:#7D97F4;" d="M701.786,2267.618c0-4.428-3.589-8.017-8.017-8.017h-30.883c-4.428,0-8.017,3.589-8.017,8.017      v369.359c0,4.428,3.589,8.017,8.017,8.017h30.883c4.428,0,8.017-3.589,8.017-8.017V2267.618z"/>
			</g>
			<g>

					<linearGradient id="SVGID_00000096045530630868943890000002018785685702330813_" gradientUnits="userSpaceOnUse" x1="1714.6674" y1="1950.7708" x2="1578.5439" y2="2999.9238">
					<stop offset="0" style="stop-color:#4F52FF"/>
					<stop offset="1" style="stop-color:#4042E2"/>
				</linearGradient>
				<polygon style="fill:url(#SVGID_00000096045530630868943890000002018785685702330813_);" points="1804.346,3040.954      1506.085,3037.09 1506.085,1777.022 1804.346,1777.022     "/>

					<linearGradient id="SVGID_00000124161114240845221720000013139394498822201730_" gradientUnits="userSpaceOnUse" x1="1458.1217" y1="725.3673" x2="1554.4049" y2="1233.343">
					<stop offset="0" style="stop-color:#09005D"/>
					<stop offset="1" style="stop-color:#1A0F91"/>
				</linearGradient>
				<polygon style="fill:url(#SVGID_00000124161114240845221720000013139394498822201730_);" points="1506.167,1777.022      1665.932,1173.667 1808.744,1777.022     "/>

					<linearGradient id="SVGID_00000166670599071241971980000011257140990983456410_" gradientUnits="userSpaceOnUse" x1="1564.0699" y1="1238.6951" x2="1590.6307" y2="1408.0201">
					<stop offset="0" style="stop-color:#09005D"/>
					<stop offset="1" style="stop-color:#1A0F91"/>
				</linearGradient>
				<path style="fill:url(#SVGID_00000166670599071241971980000011257140990983456410_);" d="M1824.453,1771.634      c0-4.428-3.589-8.017-8.017-8.017H1480.59c-4.428,0-8.017,3.589-8.017,8.017v10.776c0,4.428,3.589,8.017,8.017,8.017h335.847      c4.428,0,8.017-3.589,8.017-8.017V1771.634z"/>
				<path style="fill:#7D97F4;" d="M1824.453,2210.647c0-4.428-3.589-8.017-8.017-8.017H1480.59c-4.428,0-8.017,3.589-8.017,8.017      v10.776c0,4.428,3.589,8.017,8.017,8.017h335.847c4.428,0,8.017-3.589,8.017-8.017V2210.647z"/>
				<path style="fill:#7D97F4;" d="M1824.453,2696.577c0-4.428-3.589-8.017-8.017-8.017H1480.59c-4.428,0-8.017,3.589-8.017,8.017      v10.776c0,4.428,3.589,8.017,8.017,8.017h335.847c4.428,0,8.017-3.589,8.017-8.017V2696.577z"/>
				<g>
					<path style="fill:#7D97F4;" d="M1579.813,2777.523c-29.602,22.201-36.864,76.471-36.864,76.471v109.368h36.692h37.036v-109.368       C1616.676,2853.994,1609.414,2799.725,1579.813,2777.523z"/>
					<path style="fill:#7D97F4;" d="M1717.214,2777.523c-29.602,22.201-33.513,76.471-33.513,76.471v109.368h34.081h32.944v-109.368       C1750.726,2853.994,1746.816,2799.725,1717.214,2777.523z"/>
				</g>
				<g>
					<path style="fill:#7D97F4;" d="M1579.813,1933.873c-29.602,22.201-36.864,76.471-36.864,76.471V2122.2h36.692h37.036v-111.856       C1616.676,2010.344,1609.414,1956.074,1579.813,1933.873z"/>
					<path style="fill:#7D97F4;" d="M1717.214,1933.873c-29.602,22.201-33.513,76.471-33.513,76.471V2122.2h34.081h32.944v-111.856       C1750.726,2010.344,1746.816,1956.074,1717.214,1933.873z"/>
				</g>
				<path style="fill:#7D97F4;" d="M1603.271,2267.618c0-4.428-3.589-8.017-8.017-8.017h-30.883c-4.428,0-8.017,3.589-8.017,8.017      v369.359c0,4.428,3.589,8.017,8.017,8.017h30.883c4.428,0,8.017-3.589,8.017-8.017V2267.618z"/>
				<path style="fill:#7D97F4;" d="M1730.619,2267.618c0-4.428-3.589-8.017-8.017-8.017h-30.883c-4.428,0-8.017,3.589-8.017,8.017      v369.359c0,4.428,3.589,8.017,8.017,8.017h30.883c4.428,0,8.017-3.589,8.017-8.017V2267.618z"/>
			</g>
		</g>
		<g>

				<linearGradient id="SVGID_00000032632448286264394590000016087450077372063916_" gradientUnits="userSpaceOnUse" x1="2868.2073" y1="1963.381" x2="2712.1626" y2="2557.6804">
				<stop offset="0" style="stop-color:#4F52FF"/>
				<stop offset="1" style="stop-color:#4042E2"/>
			</linearGradient>
			<path style="fill:url(#SVGID_00000032632448286264394590000016087450077372063916_);" d="M2873.072,1973.543l3.348-103.789     c0.4-3.935,1.853-6.613,2.982-6.592c1.122,0.021,2.457,2.722,2.738,6.592c0,34.596,0,69.193,0,103.789H2873.072z"/>

				<linearGradient id="SVGID_00000117665499136438841880000012176901987189321350_" gradientUnits="userSpaceOnUse" x1="3227.3257" y1="2439.1765" x2="3655.6189" y2="2230.01">
				<stop offset="0" style="stop-color:#4F52FF"/>
				<stop offset="1" style="stop-color:#4042E2"/>
			</linearGradient>
			<path style="fill:url(#SVGID_00000117665499136438841880000012176901987189321350_);" d="M3128.709,2951.119     c-15.066-20.088-103.789-220.971-133.922-311.368s-58.591-232.689-66.961-274.539c-8.37-41.85-21.762-333.13-21.762-333.13     h-58.59c0,0-10.044,261.147-25.11,331.456s-43.525,205.904-70.309,276.213c-26.784,70.309-133.922,328.108-150.662,351.188     c-16.74,23.081-53.569,50.576-53.569,50.576h185.426c-1.926-9.101-2.958-18.533-2.958-28.208     c0-74.887,60.708-135.595,135.596-135.595c74.887,0,135.595,60.708,135.595,135.595c0,9.675-1.032,19.106-2.958,28.208h2.958     h205.904C3207.388,3041.516,3143.775,2971.208,3128.709,2951.119z M2802.108,2765.575c0,0,38.502-37.1,41.85-157.63h70.476     c0,0-5.022,106.008,50.22,157.63H2802.108z"/>

				<linearGradient id="SVGID_00000100343068457471700080000000746337572599189896_" gradientUnits="userSpaceOnUse" x1="3003.2664" y1="1755.2231" x2="2913.178" y2="2330.4028">
				<stop offset="0" style="stop-color:#4F52FF"/>
				<stop offset="1" style="stop-color:#4042E2"/>
			</linearGradient>
			<path style="fill:url(#SVGID_00000100343068457471700080000000746337572599189896_);" d="M2999.031,2578.231h-242.849     c-2.73,0-4.964-2.234-4.964-4.964v-31.504c0-2.73,2.234-4.964,4.964-4.964h242.849c2.73,0,4.964,2.234,4.964,4.964v31.504     C3003.995,2575.998,3001.761,2578.231,2999.031,2578.231z"/>

				<linearGradient id="SVGID_00000067202346901107069790000003816981811388327813_" gradientUnits="userSpaceOnUse" x1="2990.6948" y1="2212.3943" x2="2928.8538" y2="2535.342">
				<stop offset="0" style="stop-color:#4F52FF"/>
				<stop offset="1" style="stop-color:#4042E2"/>
			</linearGradient>
			<path style="fill:url(#SVGID_00000067202346901107069790000003816981811388327813_);" d="M3097.346,2825.568h-439.48     c-2.978,0-5.415-2.437-5.415-5.415v-34.368c0-2.978,2.437-5.415,5.415-5.415h439.48c2.979,0,5.415,2.437,5.415,5.415v34.368     C3102.762,2823.131,3100.325,2825.568,3097.346,2825.568z"/>

				<linearGradient id="SVGID_00000132069281235025609860000016978985546992770455_" gradientUnits="userSpaceOnUse" x1="2896.2388" y1="1922.8759" x2="2839.0613" y2="2351.7097">
				<stop offset="0" style="stop-color:#4F52FF"/>
				<stop offset="1" style="stop-color:#4042E2"/>
			</linearGradient>
			<path style="fill:url(#SVGID_00000132069281235025609860000016978985546992770455_);" d="M2902.787,1962.662     c8.442,5.599,10.353,15.498,11.3,20.402c2.808,14.545-4.004,19.36-0.314,31.074c0.92,2.92,4.811,7.741,12.555,17.263     c15.434,18.978,19.712,22.522,20.088,30.132c0.38,7.67-3.497,13.314-4.524,14.737c-8.204,11.363-24.667,11.001-24.667,11.001     h-34.841h-9.557h-34.841c0,0-16.463,0.362-24.667-11.001c-1.027-1.423-4.904-7.067-4.524-14.737     c0.376-7.611,4.654-11.154,20.088-30.132c7.744-9.523,11.635-14.344,12.555-17.263c3.69-11.714-3.122-16.529-0.314-31.074     c0.947-4.904,2.858-14.803,11.3-20.402C2860.249,1957.474,2894.964,1957.474,2902.787,1962.662z"/>
		</g>
		<g>
			<g>

					<linearGradient id="SVGID_00000167391799905559449420000009735166880237843365_" gradientUnits="userSpaceOnUse" x1="3713.3425" y1="2359.3135" x2="3080.2336" y2="3082.1541" gradientTransform="matrix(1 0 0 1 -2520.5364 0)">
					<stop offset="0" style="stop-color:#2B3582"/>
					<stop offset="1" style="stop-color:#150E42"/>
				</linearGradient>
				<path style="fill:url(#SVGID_00000167391799905559449420000009735166880237843365_);" d="M839.119,2523.414l-107.738-52.23      c0,0-73.704,83.202-79.355,139.505c-2.984,29.728,4.214,58.874,4.019,64.004l-8.957,180.019      c-0.802,7.27-3.178,14.279-6.964,20.537l-92.629,158.449c-3.336,5.166-11.106,14.129-7.289,18.951      c4.395,5.556,3.677,15.498,13.849,19.68c3.83,1.575,21.708-16.373,24.436-19.487l138.278-157.815      c4.549-5.192,7.792-11.395,9.457-18.093l39.57-147.225c25.068,73.719,54.81,317.649,60.14,366.674      c0.558,5.133,3.006,59.511,8.148,59.968c9.632,0.856,18.528-2.121,26.559-3.308c5.449-0.808,3.603-42.035,3.957-47.533      C884.043,2803.993,839.119,2523.414,839.119,2523.414z"/>

					<linearGradient id="SVGID_00000088114387348649604000000004314543898339843218_" gradientUnits="userSpaceOnUse" x1="3148.4663" y1="2702.3145" x2="3017.2637" y2="3276.6909" gradientTransform="matrix(1 0 0 1 -2520.5364 0)">
					<stop offset="0" style="stop-color:#4F52FF"/>
					<stop offset="1" style="stop-color:#4042E2"/>
				</linearGradient>
				<path style="fill:url(#SVGID_00000088114387348649604000000004314543898339843218_);" d="M539.862,3046.176      c0,0-44.848,7.201-33.914,40.731c10.933,33.53,27.698,95.486,49.565,83.095c21.867-12.391-11.835-84.909,5.571-101.035      C540.206,3052.648,539.862,3046.176,539.862,3046.176z"/>

					<linearGradient id="SVGID_00000168837237118489058160000004020651343100718230_" gradientUnits="userSpaceOnUse" x1="3267.0662" y1="3067.3489" x2="3645.0608" y2="3445.3435" gradientTransform="matrix(1 0 0 1 -2520.5364 0)">
					<stop offset="0" style="stop-color:#4F52FF"/>
					<stop offset="1" style="stop-color:#4042E2"/>
				</linearGradient>
				<path style="fill:url(#SVGID_00000168837237118489058160000004020651343100718230_);" d="M832.497,3152.508      c0,0-29.156,42.276,0,50.294c29.156,8.018,87.468,28.957,103.504,13.021c16.036-15.937-74.082-66.111-74.082-66.111      C850.766,3155.935,840.403,3159.049,832.497,3152.508z"/>
			</g>

				<linearGradient id="SVGID_00000037659062222312364520000004678267919511901372_" gradientUnits="userSpaceOnUse" x1="565.1183" y1="2532.9702" x2="972.3836" y2="2309.4165">
				<stop offset="0" style="stop-color:#FF928E"/>
				<stop offset="1" style="stop-color:#FE7062"/>
			</linearGradient>
			<path style="fill:url(#SVGID_00000037659062222312364520000004678267919511901372_);" d="M672.745,2529.844     c48.615-135.531,35.821-287.302,35.821-287.302c34.234-32.861,90.428-37.802,116.23-45.571c8.64-2.602,17.963,0.121,23.811,6.992     c19.197,22.558,53.825,98.726,46.567,133.737c-1.992,9.605-10.591,19.47-25.508,58.192     c-23.271,60.409-17.889,147.821-14.416,183.212c0.854,8.704-5.832,16.275-14.575,16.505     C796.423,2596.776,677.434,2593.921,672.745,2529.844z"/>

				<linearGradient id="SVGID_00000118373923893254078760000016860252561622167725_" gradientUnits="userSpaceOnUse" x1="794.7159" y1="2341.8911" x2="798.036" y2="2139.365">
				<stop offset="0" style="stop-color:#FEBBBA"/>
				<stop offset="1" style="stop-color:#FF928E"/>
			</linearGradient>
			<path style="fill:url(#SVGID_00000118373923893254078760000016860252561622167725_);" d="M786.802,2112.718l-23.323,104.763     c-2.233,9.228,6.179,7.718,15.509,5.959c15.279-2.881,34.97-8.813,41.553-20.702c0.67-1.21,1.005-2.578,1.194-3.948l10.02-72.646     c0.795-5.763-2.32-11.357-7.639-13.716l-19.336-8.574C797.334,2100.554,788.718,2104.802,786.802,2112.718z"/>
			<g>

					<linearGradient id="SVGID_00000145781443840251480280000011887650499835533501_" gradientUnits="userSpaceOnUse" x1="-1977.531" y1="2155.3582" x2="-1869.7001" y2="2015.9811" gradientTransform="matrix(-1 0 0 1 -1105.9042 0)">
					<stop offset="0" style="stop-color:#FEBBBA"/>
					<stop offset="1" style="stop-color:#FF928E"/>
				</linearGradient>
				<path style="fill:url(#SVGID_00000145781443840251480280000011887650499835533501_);" d="M854.345,2049.239      c0,0,36.807,98.151-9.968,110.07c-55.05,14.027-73.613-58.694-73.613-58.694S819.072,1961.823,854.345,2049.239z"/>
				<g>
					<path style="fill:#FFFFFF;" d="M756.005,2054.728c0,0,19.879-38.299,3.878-54.084c-16.001-15.785-45.825-8.826-50.058,22.635       C705.593,2054.74,746.302,2088.96,756.005,2054.728z"/>
					<path style="fill:#FFFFFF;" d="M869.261,2041.109c2.218,8.064-5.026,15.554-13.176,13.679       c-8.205-1.887-18.302-3.59-27.044-3.25c-59.044,2.301-36.04,40.641-36.04,46.775c0,12.546-12.331-6.531-13.035-2.3       c-1.534,9.202,5.645,37.12,5.645,37.12s-37.851-7.981-50.12-26.385c-12.269-18.403,1.533-59.811,6.134-75.147       c4.601-15.336,35.273-30.673,52.143-29.139C808.849,2003.834,857.028,1996.625,869.261,2041.109z"/>
				</g>

					<linearGradient id="SVGID_00000151540379595508509760000009381663782714840709_" gradientUnits="userSpaceOnUse" x1="-1945.8033" y1="2181.1416" x2="-1837.7091" y2="2041.4242" gradientTransform="matrix(-1 0 0 1 -1105.9042 0)">
					<stop offset="0" style="stop-color:#FEBBBA"/>
					<stop offset="1" style="stop-color:#FF928E"/>
				</linearGradient>
				<path style="fill:url(#SVGID_00000151540379595508509760000009381663782714840709_);" d="M787.633,2106.749      c0,0-4.601-23.004-16.87-18.403c-12.269,4.601,9.202,30.672,16.87,35.273V2106.749z"/>
			</g>

				<linearGradient id="SVGID_00000150074535693009694840000010251518457363905694_" gradientUnits="userSpaceOnUse" x1="950.3346" y1="2174.9958" x2="681.267" y2="2482.199">
				<stop offset="0" style="stop-color:#E1473D"/>
				<stop offset="1" style="stop-color:#E9605A"/>
			</linearGradient>
			<path style="fill:url(#SVGID_00000150074535693009694840000010251518457363905694_);" d="M777.344,2564.787     c9.945-130.27,9.945-283.261-14.224-352.368c-9.109-0.495-6.546-0.494-18.799,5.507c21.25,69.096,25.686,162.628,18.794,333.919     L777.344,2564.787z"/>

				<linearGradient id="SVGID_00000021823170002230941200000006639851892086765757_" gradientUnits="userSpaceOnUse" x1="806.5767" y1="2320.3811" x2="647.3071" y2="2502.2241">
				<stop offset="0" style="stop-color:#E1473D"/>
				<stop offset="1" style="stop-color:#E9605A"/>
			</linearGradient>
			<polygon style="fill:url(#SVGID_00000021823170002230941200000006639851892086765757_);" points="667.986,2519.411     705.168,2365.497 712.471,2357.171 690.641,2523.414    "/>

				<linearGradient id="SVGID_00000014623916427024350030000013951676776488798128_" gradientUnits="userSpaceOnUse" x1="556.8246" y1="2250.9646" x2="780.1995" y2="2742.0039">
				<stop offset="0" style="stop-color:#E1473D"/>
				<stop offset="1" style="stop-color:#E9605A"/>
			</linearGradient>
			<path style="fill:url(#SVGID_00000014623916427024350030000013951676776488798128_);" d="M667.267,2515.021l109.439,42.044     c10.782,4.142,16.534,15.908,13.181,26.961l-19.576,64.521c-2.449,8.072-11.203,12.401-19.104,9.448l-108.77-40.653     c-9.874-3.691-15.266-14.339-12.397-24.482l19.511-68.97C651.699,2516.299,659.903,2512.192,667.267,2515.021z"/>

				<linearGradient id="SVGID_00000033330538761738507640000006480261787227548553_" gradientUnits="userSpaceOnUse" x1="767.6879" y1="2441.8591" x2="915.4326" y2="2314.0352">
				<stop offset="0" style="stop-color:#FEBBBA"/>
				<stop offset="1" style="stop-color:#FF928E"/>
			</linearGradient>
			<path style="fill:url(#SVGID_00000033330538761738507640000006480261787227548553_);" d="M726.079,2494.254     c-6.521-6.086-16.501-6.519-23.524-1.019c-4.481,3.509-11.043,2.039-13.55-3.068c-5.268-10.728-12.443-30.049-12.176-55.094     c-14.856,6.793-28.542,15.151-40.313,25.531c10.732,19.418,26.969,39.331,50.227,59.38c0,0,6.308,7.137,18.717,10.846     c6.264,1.872,24.795,15.892,34.188,23.202c3.021,2.35,7.384,1.551,9.415-1.693c1.593-2.542,1.777-5.719,0.495-8.43     L726.079,2494.254z"/>

				<linearGradient id="SVGID_00000003804550101337035530000011333243976891838388_" gradientUnits="userSpaceOnUse" x1="513.5761" y1="2439.0715" x2="920.842" y2="2215.5176">
				<stop offset="0" style="stop-color:#FF928E"/>
				<stop offset="1" style="stop-color:#FE7062"/>
			</linearGradient>
			<path style="fill:url(#SVGID_00000003804550101337035530000011333243976891838388_);" d="M749.844,2295.651     c-8.033-19.943-22.118-48.421-38.842-53.964c0,0-140.086,100.225-74.485,218.916c11.771-10.38,25.457-18.738,40.313-25.531     c0.361-33.888,14.365-61.569,65.299-106.644C751.388,2320.234,754.464,2307.119,749.844,2295.651z"/>

				<linearGradient id="SVGID_00000176041525361919364760000006642588986662439301_" gradientUnits="userSpaceOnUse" x1="765.7167" y1="2484.9111" x2="1143.1437" y2="1967.5535">
				<stop offset="0" style="stop-color:#FF928E"/>
				<stop offset="1" style="stop-color:#FE7062"/>
			</linearGradient>
			<polygon style="fill:url(#SVGID_00000176041525361919364760000006642588986662439301_);" points="654.468,2531.86     774.614,2571.119 773.068,2580.38 650.617,2538.92    "/>

				<linearGradient id="SVGID_00000173157294535085141170000002889277553880848794_" gradientUnits="userSpaceOnUse" x1="810.5259" y1="2501.3062" x2="627.9202" y2="2756.9539">
				<stop offset="0" style="stop-color:#FF928E"/>
				<stop offset="1" style="stop-color:#FE7062"/>
			</linearGradient>
			<path style="fill:url(#SVGID_00000173157294535085141170000002889277553880848794_);" d="M753.398,2635.31l13.078-45.36     l-46.857-16.689l-13.296,51.377c-1.346,5.498,1.982,11.056,7.464,12.464l25.388,6.523     C745.395,2645.223,751.74,2641.513,753.398,2635.31z"/>

				<linearGradient id="SVGID_00000012464659688832779200000001443828717537575320_" gradientUnits="userSpaceOnUse" x1="750.8116" y1="2458.6533" x2="568.2056" y2="2714.3015">
				<stop offset="0" style="stop-color:#FF928E"/>
				<stop offset="1" style="stop-color:#FE7062"/>
			</linearGradient>
			<path style="fill:url(#SVGID_00000012464659688832779200000001443828717537575320_);" d="M680.726,2612.617l14.502-49.627     l-48.462-15.726l-11.928,45.512c-2.127,7.941,2.055,16.212,9.711,19.205l21.04,8.227     C671.887,2622.671,678.932,2619.138,680.726,2612.617z"/>
		</g>
		<g>

				<linearGradient id="SVGID_00000150101298728673139110000008720380254831058869_" gradientUnits="userSpaceOnUse" x1="1232.7375" y1="2258.1724" x2="847.7853" y2="3679.9246">
				<stop offset="0" style="stop-color:#E1473D"/>
				<stop offset="1" style="stop-color:#E9605A"/>
			</linearGradient>
			<path style="fill:url(#SVGID_00000150101298728673139110000008720380254831058869_);" d="M1271.44,2589.83h-148.639     c-5.69,0-10.303-4.613-10.303-10.303v-379.619c0-5.69,4.613-10.303,10.303-10.303h148.639c5.69,0,10.303,4.613,10.303,10.303     v379.619C1281.743,2585.217,1277.13,2589.83,1271.44,2589.83z"/>
			<g>

					<linearGradient id="SVGID_00000022544260045688170590000017353981693718349489_" gradientUnits="userSpaceOnUse" x1="1260.4282" y1="2352.8252" x2="1189.0461" y2="2600.1729">
					<stop offset="0" style="stop-color:#FEBBBA"/>
					<stop offset="1" style="stop-color:#FF928E"/>
				</linearGradient>
				<path style="fill:url(#SVGID_00000022544260045688170590000017353981693718349489_);" d="M1216.834,2531.48l91.512,1.132      l-32.028-30.148c-7.961-7.493-20.112-8.707-29.301-2.747c-5.38,3.49-11.215,8.228-16.271,14.5c0,0-57.085-20.862-84.758-67.539      c-8.618,12.803-18.697,30.23-27.429,51.91C1143.366,2513.151,1175.525,2524.603,1216.834,2531.48z"/>

					<linearGradient id="SVGID_00000011731910333441881000000002143417897634767549_" gradientUnits="userSpaceOnUse" x1="1272.8726" y1="3164.7271" x2="1334.2941" y2="2796.1975">
					<stop offset="0" style="stop-color:#2B3582"/>
					<stop offset="1" style="stop-color:#150E42"/>
				</linearGradient>
				<path style="fill:url(#SVGID_00000011731910333441881000000002143417897634767549_);" d="M1335.841,3184.096      c-24.363,2.106-66.646,5.527-99.98,6.994c-20.038,0.882-31.574-1.081-38.218-3.74c0.011,0.749,0.033,1.457,0.062,2.115      c0.158,3.507,3.008,6.314,6.551,6.511c62.987,3.515,113.08,1.217,130.913,0.132c3.687-0.225,5.885-4.232,4-7.376      C1338.224,3187.159,1337.082,3185.619,1335.841,3184.096z"/>

					<linearGradient id="SVGID_00000091726721571995248110000017302998570495349896_" gradientUnits="userSpaceOnUse" x1="1262.1283" y1="2724.4072" x2="1265.4482" y2="3056.4175">
					<stop offset="0" style="stop-color:#FF928E"/>
					<stop offset="1" style="stop-color:#FE7062"/>
				</linearGradient>
				<path style="fill:url(#SVGID_00000091726721571995248110000017302998570495349896_);" d="M1235.861,3191.09      c33.334-1.467,75.617-4.888,99.98-6.994c-23.953-29.387-99.98-49.194-99.98-49.194h-21.473      c-14.768,21.288-16.907,41.556-16.745,52.448C1204.287,3190.01,1215.823,3191.972,1235.861,3191.09z"/>
				<g>

						<linearGradient id="SVGID_00000136405255320643580840000009664568710951212964_" gradientUnits="userSpaceOnUse" x1="986.6851" y1="3117.0293" x2="1048.1066" y2="2748.4995">
						<stop offset="0" style="stop-color:#2B3582"/>
						<stop offset="1" style="stop-color:#150E42"/>
					</linearGradient>
					<path style="fill:url(#SVGID_00000136405255320643580840000009664568710951212964_);" d="M961.556,3218.277       c-10.565-1.715-15.346-8.105-17.35-14.937c-0.014,0.062-0.026,0.123-0.04,0.184c-1.554,7.206,2.049,14.674,9.253,18.226       c8.707,4.293,18.228,5.025,25.619,4.67c7.93-0.38,15.209-4.201,19.209-10.315l0.06-0.092       C990.349,3220.598,979.176,3221.138,961.556,3218.277z"/>

						<linearGradient id="SVGID_00000002385071373125399560000003189498606182151609_" gradientUnits="userSpaceOnUse" x1="979.7833" y1="2727.2312" x2="983.1032" y2="3059.2415">
						<stop offset="0" style="stop-color:#FF928E"/>
						<stop offset="1" style="stop-color:#FE7062"/>
					</linearGradient>
					<path style="fill:url(#SVGID_00000002385071373125399560000003189498606182151609_);" d="M1011.369,3112.098h-17.708       c-26.973-0.642-43.911,65.593-49.455,91.242c2.004,6.831,6.785,13.221,17.35,14.937c17.62,2.861,28.792,2.321,36.753-2.264       c14.572-22.325,21.796-55.023,25.269-74.105C1027.528,3120.204,1011.369,3112.098,1011.369,3112.098z"/>
				</g>

					<linearGradient id="SVGID_00000062908594984997434630000007326133690595570573_" gradientUnits="userSpaceOnUse" x1="1309.7988" y1="2788.3765" x2="1753.0323" y2="2502.8481">
					<stop offset="0" style="stop-color:#2B3582"/>
					<stop offset="1" style="stop-color:#150E42"/>
				</linearGradient>
				<path style="fill:url(#SVGID_00000062908594984997434630000007326133690595570573_);" d="M1341.839,2560.625      c0,0-80.182,524.784-86.099,574.521c-0.289,2.432-1.919,4.494-4.231,5.302c-7.398,2.587-24.395,6.983-43.036,1.233      c-2.22-0.685-3.75-2.708-3.686-5.031c0.972-35.266,5.516-285.75,22.93-396.003c0,0-150.713,258.5-199.479,396.522      c-0.613,1.735-2.231,2.863-4.07,2.828c-10.938-0.207-47.017-2.522-41.694-24.19c0,0,167.259-500.92,210.339-566.801      L1341.839,2560.625z"/>

					<linearGradient id="SVGID_00000159433255969146495320000009855840119485524642_" gradientUnits="userSpaceOnUse" x1="1061.2802" y1="1928.2285" x2="1286.0787" y2="2757.6553">
					<stop offset="0" style="stop-color:#53D8FF"/>
					<stop offset="1" style="stop-color:#3840F7"/>
				</linearGradient>
				<path style="fill:url(#SVGID_00000159433255969146495320000009855840119485524642_);" d="M1234.759,2705.473      c-0.604,0-1.216-0.163-1.767-0.508c-1.56-0.977-2.034-3.035-1.056-4.595l32.839-52.45c0.487-0.778,1.27-1.319,2.169-1.501      l24.165-4.865c1.798-0.375,3.563,0.808,3.927,2.612c0.363,1.804-0.806,3.562-2.612,3.927l-22.759,4.582l-32.077,51.232      C1236.956,2704.92,1235.87,2705.473,1234.759,2705.473z"/>

					<linearGradient id="SVGID_00000168099337508304754240000013722207602979925889_" gradientUnits="userSpaceOnUse" x1="1644.2743" y1="2094.8799" x2="1454.6652" y2="2341.5559">
					<stop offset="0" style="stop-color:#FEBBBA"/>
					<stop offset="1" style="stop-color:#FF928E"/>
				</linearGradient>
				<path style="fill:url(#SVGID_00000168099337508304754240000013722207602979925889_);" d="M1745.081,2022.241      c0,0-59.295,13.078-95.359,29.729c-7.163,3.307-12.877,9.09-16.13,16.217c-10.786,23.627-43.057,82.876-105.641,111.151      c9.012,11.963,23.525,36.845,29.846,78.668c37.589-27.977,70.039-74.699,85.619-151.325c0,0,11.863,6.449,26.663-0.738      c7.819-3.798,16.847-9.184,23.624-13.42c6.753-4.221,11.782-10.782,13.735-18.445c2.579-10.119,1.061-19.017,1.061-28.562      l30.478-9.443C1738.977,2036.073,1748.139,2032.615,1745.081,2022.241z"/>

					<linearGradient id="SVGID_00000174560489465018926390000009134852152561233805_" gradientUnits="userSpaceOnUse" x1="1450.8748" y1="2074.4739" x2="1152.0653" y2="2504.4268">
					<stop offset="0" style="stop-color:#FF928E"/>
					<stop offset="1" style="stop-color:#FE7062"/>
				</linearGradient>
				<path style="fill:url(#SVGID_00000174560489465018926390000009134852152561233805_);" d="M1557.797,2258.006      c-6.322-41.823-20.834-66.706-29.846-78.668c-38.878,17.565-89.451,23.18-153.851,0.865c-5.936-2.056-12.129-3.261-18.407-3.629      c-34.283-2.01-143.651-0.138-237.134,30.748c-19.674,6.5-39.177,31.84-47.388,50.685      c-25.288,58.033-66.27,173.859,47.388,240.582c8.732-21.68,18.811-39.106,27.429-51.91      c-18.304-30.873-23.724-73.041,8.756-127.952c23.684,63.952,34.794,157.265,37.116,198.561      c0.765,13.596-1.621,27.167-6.955,39.719c0,0-15.137,31.794-12.612,33.238c56.429,32.256,131.762,24.638,155.195,21.674      c4.086-0.517,7.563-3.297,8.947-7.176c46.99-131.702,45.368-259.805,32.485-314.45      C1398.026,2296.799,1487.027,2310.679,1557.797,2258.006z"/>

					<linearGradient id="SVGID_00000165229327996743912690000018195124000504543142_" gradientUnits="userSpaceOnUse" x1="1221.6404" y1="2254.3103" x2="1242.3839" y2="2145.4067">
					<stop offset="0" style="stop-color:#FEBBBA"/>
					<stop offset="1" style="stop-color:#FF928E"/>
				</linearGradient>
				<path style="fill:url(#SVGID_00000165229327996743912690000018195124000504543142_);" d="M1211.143,2100.201      c0,0-6.473,68.44-12.172,88.685c-0.865,3.072,0.469,6.31,3.26,7.905c9.673,5.527,32.872,14.541,64.606-1.011      c5.141-2.52,8.231-7.878,7.992-13.55l-2.796-66.135L1211.143,2100.201z"/>

					<linearGradient id="SVGID_00000137109312559623017820000016021384861276771234_" gradientUnits="userSpaceOnUse" x1="1670.6012" y1="1864.197" x2="1675.5811" y2="2172.9668">
					<stop offset="0" style="stop-color:#FEBBBA"/>
					<stop offset="1" style="stop-color:#FF928E"/>
				</linearGradient>
				<path style="fill:url(#SVGID_00000137109312559623017820000016021384861276771234_);" d="M1659.23,2100.354      c-0.739,0-1.483-0.244-2.102-0.746c-1.43-1.162-1.646-3.263-0.484-4.692c2.252-2.771,22.231-27.197,30.016-31.597      c2.569-1.452,4.15-2.953,4.451-4.233c0.046-0.196,0.15-0.638-0.096-1.42l-22.58,4.52l-13.097,11.244      c-1.399,1.198-3.504,1.036-4.702-0.358c-1.2-1.397-1.039-3.504,0.358-4.702l13.76-11.811c0.434-0.371,0.956-0.628,1.517-0.739      l25.883-5.184c1.32-0.257,2.668,0.293,3.419,1.406c1.991,2.95,2.674,5.835,2.027,8.574c-0.764,3.243-3.269,6.028-7.661,8.509      c-5.068,2.865-19.594,19.509-28.122,29.998C1661.16,2099.935,1660.199,2100.354,1659.23,2100.354z"/>

					<linearGradient id="SVGID_00000044152095931240369180000001618709121789319088_" gradientUnits="userSpaceOnUse" x1="1234.0083" y1="2480.5042" x2="1396.6932" y2="2309.5188">
					<stop offset="0" style="stop-color:#FEBBBA"/>
					<stop offset="1" style="stop-color:#FF928E"/>
				</linearGradient>
				<path style="fill:url(#SVGID_00000044152095931240369180000001618709121789319088_);" d="M1178.507,2494.627      c0,0,7.786-12.977,25.953-12.977c18.167,0,38.93,33.739,38.93,33.739s-28.548,12.976-38.93,23.358      C1194.079,2549.128,1178.507,2515.39,1178.507,2494.627z"/>
				<g>

						<linearGradient id="SVGID_00000137810957589789060200000005627865748029985458_" gradientUnits="userSpaceOnUse" x1="14374.8457" y1="12527.6279" x2="14233.7607" y2="12714.2705" gradientTransform="matrix(0.8237 -0.567 0.567 0.8237 -17685.334 -161.1617)">
						<stop offset="0" style="stop-color:#FEBBBA"/>
						<stop offset="1" style="stop-color:#FF928E"/>
					</linearGradient>
					<path style="fill:url(#SVGID_00000137810957589789060200000005627865748029985458_);" d="M1291.09,2008.417       c4.602,9.845,7.143,21.803,10.537,34.437c6.369,23.709,12.667,47.437,18.937,71.172l-60.129,14.523       c-10.37-24.139-20.256-48.482-30.692-72.593c-5.557-12.837-10.551-30.482-24.439-36.794c-8.097-3.68-17.313-0.073-12.927-11.18       c3.218-8.149,14.623-15.187,22.126-18.644c12.184-5.615,26.011-7.019,39.365-5.728       C1274.862,1985.641,1284.863,1995.095,1291.09,2008.417z"/>
					<path style="fill:#FFFFFF;" d="M1243.572,2047.968c-0.431,4.865,1.728,9.984,4.046,16.803       c3.963,11.662,7.911,23.332,11.89,34.988c0.227,0.665,0.532,1.281,0.93,1.861c2.435,3.547,11.704,15.134,22.98,4.928       c10.234-9.262,19.709-17.561,28.388-18.986c3.895-0.64,7.635,1.777,8.642,5.595c2.51,9.515,7.773,31.062,9.488,50.478       c0.348,3.941-2.411,7.465-6.306,8.157c-11.735,2.086-36.608,5.793-57.316,4.087c-2.806-0.231-5.258-1.945-6.399-4.52       c-4.42-9.967-8.905-19.906-13.512-29.787c-1.877-4.027-2.722-9.856-6.255-12.63c-3.941-3.095-10.157-3.517-14.594-1.383       c-2.062,0.992-3.863,2.466-5.928,3.453c-5.175,2.473-11.836,1.388-15.958-2.6c-4.965-4.803-6.52-13.213-12.936-15.773       c-3.6-1.436-7.386,0.36-11.062-0.843c-3.261-1.067-5.69-3.706-7.432-6.56c-3.299-5.405-4.905-13.189-2.903-19.324       c3.803-11.654,17.542-13.545,7.785-26.343c-4.923-6.457-2.741-16.251,2.691-22.286c13.538-15.043,43.237-27.229,60.155-11.148       c0.67,0.637,1.407,1.35,2.332,1.376c0.889,0.024,1.643-0.596,2.374-1.101c4.389-3.032,10.828-2.403,14.787,1.173       c3.959,3.576,5.284,9.653,3.51,14.684c-2.029,5.756-7.317,9.589-11.929,13.586       C1245.977,2040.239,1243.922,2044.02,1243.572,2047.968z"/>

						<linearGradient id="SVGID_00000075146389803607791860000013292300985328957107_" gradientUnits="userSpaceOnUse" x1="14197.4629" y1="12678.5527" x2="14296.5898" y2="12576.8506" gradientTransform="matrix(0.8237 -0.567 0.567 0.8237 -17685.334 -161.1617)">
						<stop offset="0" style="stop-color:#FEBBBA"/>
						<stop offset="1" style="stop-color:#FF928E"/>
					</linearGradient>
					<path style="fill:url(#SVGID_00000075146389803607791860000013292300985328957107_);" d="M1240.662,2109.451       c0,0-6.993-32.585-20.608-34.351c-13.616-1.766-27.018,9.282-13.68,27.838       C1222.965,2126.019,1240.662,2109.451,1240.662,2109.451z"/>
				</g>
			</g>
			<g>
				<g>
					<g>

							<linearGradient id="SVGID_00000141414781234971847430000007775484617072235400_" gradientUnits="userSpaceOnUse" x1="-1774.6752" y1="2565.4136" x2="-1686.4374" y2="2697.0698" gradientTransform="matrix(-0.9867 0.1626 0.1626 0.9867 -847.8333 65.7351)">
							<stop offset="0" style="stop-color:#2B3582"/>
							<stop offset="1" style="stop-color:#150E42"/>
						</linearGradient>
						<polygon style="fill:url(#SVGID_00000141414781234971847430000007775484617072235400_);" points="1336.04,2452.83        1226.58,2479.902 1197.711,2399.185 1206.145,2385.955       "/>
						<path style="fill:#FFFFFF;" d="M1225.522,2481.873l-29.647-82.894l9.685-15.193l135.177,69.594L1225.522,2481.873z         M1199.551,2399.391l28.085,78.54l103.711-25.65l-124.614-64.157L1199.551,2399.391z"/>
					</g>

						<linearGradient id="SVGID_00000044863418638969338600000011759471815901232545_" gradientUnits="userSpaceOnUse" x1="3465.2971" y1="-9777.6855" x2="3530.0386" y2="-9932.8984" gradientTransform="matrix(-0.9867 0.1626 0.1626 0.9867 -847.8333 65.7351)">
						<stop offset="0" style="stop-color:#2B3582"/>
						<stop offset="1" style="stop-color:#150E42"/>
					</linearGradient>
					<polygon style="fill:url(#SVGID_00000044863418638969338600000011759471815901232545_);" points="1339.788,2363.932       1206.145,2385.955 1236.842,2469.177 1336.04,2452.83      "/>
					<g>

							<linearGradient id="SVGID_00000013155081355794307580000002237733784992017304_" gradientUnits="userSpaceOnUse" x1="1256.6462" y1="2428.9326" x2="1295.0515" y2="2428.9326">
							<stop offset="0" style="stop-color:#2B3582"/>
							<stop offset="1" style="stop-color:#150E42"/>
						</linearGradient>

							<circle style="fill:url(#SVGID_00000013155081355794307580000002237733784992017304_);" cx="1275.849" cy="2428.933" r="19.2"/>
						<path style="fill:#FFFFFF;" d="M1275.803,2449.797c-4.322,0-8.527-1.344-12.11-3.914c-4.53-3.246-7.522-8.062-8.427-13.559        v-0.002c-1.868-11.35,5.843-22.104,17.191-23.972c5.496-0.909,11.017,0.381,15.547,3.63c4.53,3.245,7.522,8.062,8.427,13.559        c0.908,5.499-0.383,11.021-3.628,15.548c-3.249,4.528-8.064,7.521-13.563,8.425        C1278.092,2449.703,1276.944,2449.797,1275.803,2449.797z M1258.541,2431.783c1.573,9.542,10.589,16.022,20.161,14.456        c4.623-0.762,8.673-3.278,11.403-7.086c2.73-3.806,3.813-8.449,3.051-13.071c-1.576-9.544-10.599-16.015-20.16-14.456        c-9.539,1.573-16.023,10.615-14.454,20.159V2431.783z"/>
					</g>
					<g>

							<linearGradient id="SVGID_00000051376797011340017050000011442475570266354106_" gradientUnits="userSpaceOnUse" x1="-1781.4296" y1="2612.4785" x2="-1761.5046" y2="2642.2078" gradientTransform="matrix(-0.9867 0.1626 0.1626 0.9867 -847.8333 65.7351)">
							<stop offset="0" style="stop-color:#2B3582"/>
							<stop offset="1" style="stop-color:#150E42"/>
						</linearGradient>
						<polygon style="fill:url(#SVGID_00000051376797011340017050000011442475570266354106_);" points="1312.588,2392.098        1329.121,2389.374 1327.542,2379.791 1311.009,2382.515       "/>
						<path style="fill:#FFFFFF;" d="M1311.219,2394.006l-2.117-12.859l19.81-3.265l2.117,12.861L1311.219,2394.006z         M1312.914,2383.883l1.041,6.306l13.261-2.184l-1.041-6.308L1312.914,2383.883z"/>
					</g>
					<g>

							<linearGradient id="SVGID_00000171683431876344948080000017261355011094879397_" gradientUnits="userSpaceOnUse" x1="-1747.8827" y1="2577.4429" x2="-1707.1176" y2="2638.2671" gradientTransform="matrix(-0.9867 0.1626 0.1626 0.9867 -847.8333 65.7351)">
							<stop offset="0" style="stop-color:#2B3582"/>
							<stop offset="1" style="stop-color:#150E42"/>
						</linearGradient>
						<polygon style="fill:url(#SVGID_00000171683431876344948080000017261355011094879397_);" points="1238.471,2397.48        1294.27,2388.285 1293.466,2383.406 1237.667,2392.601       "/>
						<path style="fill:#FFFFFF;" d="M1237.103,2399.388l-1.342-8.154l59.074-9.737l1.342,8.156L1237.103,2399.388z         M1239.574,2393.97l0.266,1.602l52.525-8.655l-0.266-1.604L1239.574,2393.97z"/>
					</g>
				</g>

					<linearGradient id="SVGID_00000014601844713739672520000017741795364328386720_" gradientUnits="userSpaceOnUse" x1="3383.3154" y1="-9811.8965" x2="3448.0569" y2="-9967.1104" gradientTransform="matrix(-0.9867 0.1626 0.1626 0.9867 -847.8333 65.7351)">
					<stop offset="0" style="stop-color:#2B3582"/>
					<stop offset="1" style="stop-color:#150E42"/>
				</linearGradient>
				<polygon style="fill:url(#SVGID_00000014601844713739672520000017741795364328386720_);" points="1339.788,2363.932      1273.282,2176.008 1331.523,2366.912     "/>

					<linearGradient id="SVGID_00000089562623797688096850000010119643540967558282_" gradientUnits="userSpaceOnUse" x1="3475.5457" y1="-9773.4229" x2="3540.2871" y2="-9928.6357" gradientTransform="matrix(-0.9867 0.1626 0.1626 0.9867 -847.8333 65.7351)">
					<stop offset="0" style="stop-color:#2B3582"/>
					<stop offset="1" style="stop-color:#150E42"/>
				</linearGradient>
				<polygon style="fill:url(#SVGID_00000089562623797688096850000010119643540967558282_);" points="1200.077,2189.605      1197.711,2399.185 1206.145,2385.955     "/>
			</g>

				<linearGradient id="SVGID_00000129188404379086519490000010151925527849506961_" gradientUnits="userSpaceOnUse" x1="1178.0695" y1="2236.3936" x2="938.0388" y2="3122.9038">
				<stop offset="0" style="stop-color:#E1473D"/>
				<stop offset="1" style="stop-color:#E9605A"/>
			</linearGradient>
			<path style="fill:url(#SVGID_00000129188404379086519490000010151925527849506961_);" d="M1168.454,2459.383     c13.883-17.93-13.914-280.052-29.727-267.314l49.434-2.464C1199.147,2258.397,1186.102,2356.119,1168.454,2459.383z"/>

				<linearGradient id="SVGID_00000039102006705435639030000017025416573845929653_" gradientUnits="userSpaceOnUse" x1="1325.6661" y1="2282.2917" x2="1808.8523" y2="1499.3752">
				<stop offset="0" style="stop-color:#E1473D"/>
				<stop offset="1" style="stop-color:#E9605A"/>
			</linearGradient>
			<path style="fill:url(#SVGID_00000039102006705435639030000017025416573845929653_);" d="M1300.265,2176.772     c21.792,37.986,48.559,102.996,75.794,170.546l-1.297-40.384c-10.49-52.893-22.322-100.653-38.722-130.926     C1323.737,2170.913,1311.786,2170.803,1300.265,2176.772z"/>
		</g>
	</g>
</g>
</svg>